<svg width="39" height="39" viewBox="0 0 39 39" fill="none" xmlns="http://www.w3.org/2000/svg">
<circle cx="19.5" cy="19.5" r="19.5" fill="#FFEEE3"/>
<path d="M12.3575 27.0581H12.1114C9.64792 26.9607 7.47095 25.427 6.55052 23.1403C5.63008 20.8536 6.13757 18.2397 7.84683 16.4634C9.02582 15.2347 10.6551 14.54 12.3581 14.54C14.0612 14.54 15.6905 15.2347 16.8695 16.4634C17.5833 17.2075 18.1041 18.1151 18.3864 19.1069C18.5388 19.6592 18.6167 20.2293 18.6183 20.8023C18.617 21.1191 18.594 21.4354 18.5496 21.7491C18.3998 22.7037 18.0328 23.6111 17.477 24.4016C16.3038 26.0667 14.3947 27.0583 12.3575 27.0607V27.0581ZM12.3575 15.1889C10.8312 15.1884 9.37066 15.8097 8.31253 16.9094C7.2544 18.0092 6.69005 19.4924 6.74961 21.0173C6.87148 23.9398 9.2118 26.2819 12.1347 26.4066C14.0372 26.4794 15.8472 25.5838 16.9433 24.0273C17.4422 23.322 17.7724 22.5115 17.9084 21.6584C17.9483 21.376 17.9691 21.0913 17.9706 20.8062C17.9691 20.2924 17.8994 19.781 17.7633 19.2856C17.509 18.3966 17.0416 17.583 16.4018 16.9154C15.3474 15.8108 13.886 15.1868 12.3588 15.1889H12.3575Z" fill="#F0792E"/>
<path d="M26.0322 27.0604H16.4851C15.8457 27.0589 15.2758 26.6463 15.06 26.0286C15.0075 25.8787 15.0671 25.7118 15.2016 25.6323C15.8951 25.2194 16.4926 24.6563 16.9524 23.9822C17.0131 23.8936 17.1121 23.8409 17.2176 23.8408H26.0322C26.8725 23.8393 27.556 24.5349 27.5616 25.3971V25.4856C27.5627 25.9027 27.402 26.3031 27.1151 26.5985C26.8282 26.8939 26.4386 27.0601 26.0322 27.0604ZM15.786 26.0392C15.949 26.2677 16.2091 26.4019 16.4851 26.3998H26.0322C26.5211 26.3991 26.9172 25.9926 26.9179 25.4909V25.3971C26.9169 25.1571 26.823 24.9273 26.6569 24.7584C26.4908 24.5894 26.2661 24.495 26.0322 24.4961H17.3824C16.944 25.1038 16.4034 25.6264 15.786 26.0392Z" fill="#F0792E"/>
<path d="M26.0223 24.5565H17.1482C17.0282 24.5538 16.9194 24.4838 16.8652 24.3745C16.8109 24.2651 16.8201 24.1342 16.889 24.0338C17.3839 23.3129 17.7107 22.4859 17.8442 21.6161C17.8691 21.4553 18.0049 21.3369 18.1643 21.3369H26.0223C26.8705 21.3362 27.5592 22.0364 27.562 22.9024V22.991C27.5578 23.8564 26.8699 24.5558 26.0223 24.5565ZM17.7379 23.8949H26.0223C26.5145 23.8941 26.9133 23.4869 26.914 22.9844V22.8958C26.9119 22.3949 26.5129 21.9905 26.0223 21.9919H18.4352C18.3023 22.6598 18.067 23.302 17.7379 23.8949Z" fill="#F0792E"/>
<path d="M26.0602 22.0521H18.3691C18.2774 22.0522 18.1902 22.011 18.13 21.9391C18.0697 21.8671 18.0422 21.7715 18.0547 21.6769C18.0945 21.3868 18.1153 21.0941 18.1168 20.801C18.1154 20.2769 18.0472 19.7554 17.914 19.25C17.8874 19.1506 17.907 19.044 17.967 18.962C18.027 18.88 18.1205 18.832 18.2195 18.8325H26.0614C26.8897 18.8325 27.5611 19.5323 27.5611 20.3954V20.4879C27.5576 21.3503 26.8877 22.0485 26.0602 22.0521ZM18.7291 21.3915H26.0602C26.5419 21.3915 26.9323 20.9846 26.9323 20.4826V20.3954C26.9323 19.8971 26.5447 19.4931 26.0665 19.4931H18.6226C18.7073 19.9235 18.7498 20.3617 18.7494 20.801C18.7557 20.9899 18.7494 21.1854 18.7291 21.3915Z" fill="#F0792E"/>
<path d="M26.0535 19.5482H18.2031C18.061 19.5488 17.9361 19.4503 17.8983 19.3079C17.6485 18.4006 17.1899 17.5702 16.5622 16.8885C16.4734 16.7932 16.448 16.6519 16.4979 16.5297C16.5478 16.4076 16.6632 16.3284 16.7908 16.3286H26.0535C26.4542 16.329 26.8384 16.4949 27.1214 16.7899C27.4044 17.0849 27.563 17.4848 27.5623 17.9014V17.9833C27.5596 18.8479 26.885 19.5475 26.0535 19.5482ZM18.433 18.8879H26.0535C26.5358 18.8872 26.9266 18.4808 26.9273 17.9793V17.9014C26.9266 17.3999 26.5358 16.9936 26.0535 16.9929H17.4792C17.8976 17.5649 18.2217 18.2053 18.4381 18.8879H18.433Z" fill="#F0792E"/>
<path d="M26.0418 17.0438H16.7118C16.6244 17.044 16.5407 17.0073 16.4803 16.9423C16.1101 16.5448 15.6861 16.2047 15.2214 15.9324C15.1456 15.8884 15.0909 15.8139 15.0705 15.7267C15.0503 15.6453 15.0404 15.5615 15.041 15.4775V15.3905C15.0417 14.5258 15.7218 13.8249 16.5609 13.8242H26.0418C26.8809 13.8249 27.5609 14.5258 27.5616 15.3905V15.4775C27.5609 16.3423 26.8809 17.0431 26.0418 17.0438ZM16.8461 16.3846H26.0418C26.5279 16.3846 26.922 15.9785 26.922 15.4775V15.3905C26.922 14.8895 26.5279 14.4834 26.0418 14.4834H16.5609C16.0751 14.4842 15.6814 14.8898 15.6807 15.3905V15.4498C16.1041 15.7122 16.4954 16.0261 16.8461 16.3846Z" fill="#F0792E"/>
<path d="M26.2601 14.4623H16.6366C15.7554 14.4623 15.041 13.7589 15.041 12.8913C15.041 12.0237 15.7554 11.3203 16.6366 11.3203H26.2601C27.1414 11.3203 27.8558 12.0237 27.8558 12.8913C27.8558 13.7589 27.1414 14.4623 26.2601 14.4623ZM16.6366 11.9647C16.1169 11.9647 15.6955 12.3795 15.6955 12.8913C15.6955 13.403 16.1169 13.8179 16.6366 13.8179H26.2601C26.7799 13.8179 27.2013 13.403 27.2013 12.8913C27.2013 12.3795 26.7799 11.9647 26.2601 11.9647H16.6366ZM32.4057 26.7028C32.1905 26.7015 31.9777 26.6577 31.7801 26.5739C31.39 26.4112 31.0822 26.1017 30.9253 25.7143L27.3309 16.9251C27.0899 16.3358 27.2331 15.6615 27.6938 15.2167C28.1545 14.7719 28.8419 14.644 29.4357 14.8927C29.8258 15.0546 30.1337 15.3638 30.2904 15.751L33.8849 24.5403C34.214 25.3449 33.8185 26.2599 33.0013 26.5842C32.8125 26.6615 32.6102 26.7018 32.4057 26.7028ZM28.8113 15.4147C28.4988 15.4154 28.2068 15.5685 28.0318 15.8234C27.8567 16.0783 27.8212 16.4021 27.9369 16.6879L31.5327 25.4772C31.6247 25.7058 31.8063 25.8884 32.0366 25.9837C32.3869 26.1307 32.7926 26.0555 33.0646 25.7932C33.3365 25.5308 33.4211 25.1329 33.2788 24.7851L29.6844 15.9959C29.54 15.6458 29.1951 15.4162 28.8113 15.4147Z" fill="#F0792E"/>
<path d="M30.5382 12.2031C30.3599 12.2031 30.2153 12.0574 30.2153 11.8776C30.2146 10.907 29.4344 10.1204 28.4717 10.1197C28.2934 10.1197 28.1488 9.97398 28.1488 9.79419C28.1488 9.61441 28.2934 9.46866 28.4717 9.46866C29.4344 9.46794 30.2146 8.68134 30.2153 7.71079C30.2153 7.531 30.3599 7.38525 30.5382 7.38525C30.7166 7.38525 30.8611 7.531 30.8611 7.71079C30.8625 8.68104 31.6424 9.46723 32.6048 9.46866C32.7831 9.46866 32.9277 9.61441 32.9277 9.79419C32.9277 9.97398 32.7831 10.1197 32.6048 10.1197C31.6424 10.1212 30.8625 10.9073 30.8611 11.8776C30.8615 11.964 30.8276 12.047 30.7669 12.1082C30.7063 12.1693 30.624 12.2035 30.5382 12.2031ZM29.6703 9.79419C30.0299 10.0051 30.329 10.3066 30.5382 10.6692C30.7482 10.3072 31.0471 10.0058 31.4062 9.79419C31.0471 9.58255 30.7482 9.28118 30.5382 8.91916C30.329 9.28176 30.0299 9.5833 29.6703 9.79419ZM10.6336 32.4265C10.4552 32.4265 10.3107 32.2808 10.3107 32.101C10.3093 31.1307 9.52943 30.3445 8.56704 30.3431C8.38871 30.3431 8.24414 30.1973 8.24414 30.0176C8.24414 29.8378 8.38871 29.692 8.56704 29.692C9.52943 29.6906 10.3093 28.9044 10.3107 27.9342C10.3107 27.7544 10.4552 27.6086 10.6336 27.6086C10.8119 27.6086 10.9565 27.7544 10.9565 27.9342C10.9579 28.9044 11.7377 29.6906 12.7001 29.692C12.8784 29.692 13.023 29.8378 13.023 30.0176C13.023 30.1973 12.8784 30.3431 12.7001 30.3431C11.7377 30.3445 10.9579 31.1307 10.9565 32.101C10.9565 32.1873 10.9225 32.2701 10.8619 32.3312C10.8013 32.3922 10.7192 32.4265 10.6336 32.4265ZM9.76563 30.0176C10.1245 30.2277 10.4235 30.5278 10.6336 30.8887C10.8431 30.5264 11.1421 30.2249 11.5015 30.0137C11.1426 29.8035 10.8437 29.5034 10.6336 29.1425C10.424 29.5048 10.125 29.8063 9.76563 30.0176Z" fill="#F0792E"/>
<path fill-rule="evenodd" clip-rule="evenodd" d="M12.6418 26.7352C15.9421 26.7352 18.6175 24.0598 18.6175 20.7594C18.6175 17.4591 15.9421 14.7837 12.6418 14.7837C9.34145 14.7837 6.66602 17.4591 6.66602 20.7594C6.66602 24.0598 9.34145 26.7352 12.6418 26.7352ZM10.6475 21.336L12.2077 24.0601H13.0497L11.473 21.4598C11.9133 21.3993 12.2655 21.2589 12.5297 21.0388C12.7993 20.8132 12.9534 20.4995 12.9919 20.0977H14.0651V19.5694H12.9754C12.9259 19.2007 12.769 18.909 12.5049 18.6944H14.0651V18.1661H10.6475V18.6944H10.8291C11.2474 18.6944 11.5721 18.7632 11.8032 18.9008C12.0399 19.0383 12.1857 19.2612 12.2407 19.5694H10.6475V20.0977H12.249C12.2105 20.4279 12.0729 20.6563 11.8362 20.7829C11.6051 20.9095 11.2694 20.9728 10.8291 20.9728H10.6475V21.336Z" fill="#F0792E"/>
</svg>
