<svg width="9" height="21" viewBox="0 0 9 21" fill="none" xmlns="http://www.w3.org/2000/svg">
<path d="M6.41106 20.9999H0.24413C0.179383 20.9999 0.117284 20.9742 0.0715012 20.9284C0.0257187 20.8826 0 20.8204 0 20.7557C0 20.6909 0.0257187 20.6288 0.0715012 20.583C0.117284 20.5372 0.179383 20.5115 0.24413 20.5115H6.41106C7.12034 20.5115 7.81644 19.8107 7.81644 19.0968V0.228885C7.8206 0.166806 7.84819 0.108631 7.89362 0.0661342C7.93904 0.0236371 7.99891 0 8.06111 0C8.12331 0 8.18318 0.0236371 8.22861 0.0661342C8.27404 0.108631 8.30163 0.166806 8.30579 0.228885V19.0968C8.30579 20.0748 7.38536 20.9999 6.41106 20.9999Z" fill="#90B9E7"/>
</svg>
