<svg width="16" height="16" viewBox="0 0 16 16" fill="none" xmlns="http://www.w3.org/2000/svg">
<path opacity="0.73" d="M7.0765e-06 7.99222C-0.00178133 9.33696 0.335438 10.6604 0.980478 11.8402C1.62552 13.0201 2.55755 14.0181 3.69037 14.7421C4.82319 15.4661 6.12022 15.8926 7.4615 15.9822C8.80278 16.0719 10.145 15.8217 11.364 15.2549C12.583 14.6881 13.6395 13.8229 14.4357 12.7395C15.2319 11.656 15.7421 10.3891 15.9191 9.05609C16.0962 7.72307 15.9343 6.36691 15.4486 5.11304C14.9628 3.85917 14.1688 2.74808 13.14 1.88253V1.86071H13.1128C11.6777 0.658687 9.86559 0 7.99385 0C6.12212 0 4.31004 0.658687 2.87494 1.86071H2.84876V1.88253C1.95715 2.6314 1.24014 3.56635 0.748024 4.6218C0.255905 5.67724 0.000596054 6.82762 7.0765e-06 7.99222ZM0.381731 8.11115H0.432994L2.20638 8.12205C2.21868 8.96389 2.33555 9.80094 2.55429 10.6139L0.849619 10.6292C0.551848 9.82253 0.39362 8.97099 0.381731 8.11115ZM15.1381 10.6325L14.9538 10.6259L13.8413 10.6194C13.9565 10.1961 14.0436 9.76568 14.102 9.3309C14.154 8.93287 14.1832 8.53217 14.1892 8.13078L15.6071 8.11988C15.5939 8.97791 15.4353 9.8275 15.1381 10.6325ZM15.6027 7.70202H15.558L14.186 7.69329C14.1754 7.3404 14.147 6.98828 14.1009 6.63827C14.041 6.19184 13.9507 5.75004 13.8304 5.31596L13.7944 5.20032L15.0367 5.1894L15.0628 5.16322C15.3875 5.97209 15.5702 6.83097 15.6027 7.70202ZM3.04944 10.5168C2.84089 9.73685 2.73097 8.93378 2.72225 8.12642L4.21642 8.13624H5.64843C5.65389 9.00905 5.69533 9.82186 5.77604 10.6008L3.08106 10.6096C3.06907 10.5801 3.05816 10.5485 3.04944 10.5168ZM3.12142 5.20141L4.51526 5.21122H5.80875C5.71045 6.02924 5.65657 6.85198 5.64734 7.67583L2.72225 7.68456C2.7428 6.92874 2.85263 6.178 3.04944 5.44798C3.07125 5.36615 3.09633 5.28323 3.11706 5.20141H3.12142ZM6.66163 12.9476C6.58638 12.6389 6.51985 12.3814 6.45878 12.0268C6.40497 11.7162 6.35844 11.3951 6.31917 11.0634H7.99439L9.63035 11.0503C9.58891 11.3918 9.54092 11.705 9.4853 12.0323C9.42314 12.3847 9.35661 12.6738 9.27917 12.9847C9.24463 13.1277 9.20017 13.268 9.14612 13.4048H6.80232C6.74441 13.2553 6.69739 13.1017 6.66163 12.9454V12.9476ZM6.26901 10.6052C6.24938 10.4132 6.23192 10.2179 6.21665 10.0171C6.17084 9.40945 6.14685 8.77994 6.14358 8.1417H7.99767H9.80158C9.80158 8.78976 9.77759 9.43128 9.73179 10.0499C9.71761 10.2386 9.70125 10.423 9.6838 10.6041H7.99876L6.26901 10.6052ZM9.74269 5.98366C9.77541 6.50844 9.79395 7.06486 9.79832 7.67583H7.99549H6.1414C6.1414 7.09214 6.17303 6.5139 6.21884 5.9553C6.23956 5.69891 6.26573 5.45452 6.293 5.21341H7.99112H9.67834C9.70452 5.46325 9.72524 5.71746 9.74269 5.98366ZM7.44471 1.14392C7.52663 1.018 7.62575 0.904152 7.73919 0.805697C7.78985 0.76225 7.84594 0.725576 7.90605 0.696595C7.95738 0.672444 8.01298 0.658723 8.06965 0.656228H8.08056C8.13226 0.656256 8.18344 0.666646 8.23107 0.68678C8.28956 0.712017 8.34397 0.745846 8.39248 0.787152C8.50416 0.884725 8.59984 0.999217 8.67604 1.12646C8.75927 1.26226 8.83219 1.40413 8.89417 1.55086C8.93271 1.63596 8.96906 1.72652 9.00323 1.82253H7.98894H7.07826C7.17747 1.58431 7.30023 1.35661 7.44471 1.14282V1.14392ZM9.34352 2.97464C9.41332 3.28667 9.47439 3.6107 9.53002 3.96638C9.56928 4.22167 9.60309 4.48352 9.63908 4.75082H8.00312H6.36716C6.40642 4.47697 6.44787 4.20531 6.49695 3.94783C6.56239 3.59761 6.63437 3.27685 6.71507 2.96592C6.77942 2.72262 6.84704 2.50005 6.91793 2.29166H8.00857H9.17992C9.22464 2.50114 9.2879 2.72589 9.34352 2.97355V2.97464ZM5.18927 1.8378C5.39411 1.65517 5.61291 1.48883 5.84366 1.3403C6.19488 1.11514 6.57496 0.938614 6.97356 0.815519C7.04772 0.792608 7.12188 0.775154 7.19168 0.756607C7.15787 0.800247 7.12297 0.846066 7.08262 0.896253C6.88709 1.1892 6.72434 1.50275 6.59728 1.83126L5.18927 1.8378ZM8.89745 0.691141C9.07285 0.72113 9.24623 0.761939 9.41659 0.813335C9.81548 0.93703 10.1959 1.11391 10.5476 1.33921C10.775 1.48693 10.9909 1.65179 11.1932 1.83235L10.4625 1.82689C10.1735 1.82689 9.88338 1.82689 9.59 1.82689H9.48094C9.42095 1.65997 9.36096 1.50941 9.29662 1.36976C9.22221 1.20403 9.13582 1.04395 9.03814 0.890799C8.99472 0.821858 8.94776 0.755215 8.89745 0.691141ZM11.3525 13.9917C11.1031 14.227 10.8338 14.4402 10.5476 14.6289C10.1957 14.8514 9.81569 15.026 9.41768 15.1482C9.22824 15.2059 9.03512 15.2507 8.83964 15.2824C8.87672 15.2355 8.9138 15.1864 8.9487 15.1318C9.14482 14.8304 9.30513 14.5071 9.4264 14.1685C9.4578 14.1133 9.47956 14.0531 9.49075 13.9906L11.3525 13.9917ZM7.88206 15.3239C7.85588 15.3174 7.83033 15.3087 7.80571 15.2977C7.74774 15.269 7.69413 15.2323 7.64649 15.1886C7.53493 15.0903 7.43862 14.9759 7.36073 14.8493C7.19302 14.5782 7.05551 14.2895 6.95066 13.9885H8.99778C8.99778 13.9885 8.99778 13.9961 8.99124 14.0015C8.88558 14.3078 8.74467 14.6007 8.57135 14.8744C8.49174 14.9972 8.39433 15.1075 8.28232 15.2017C8.23447 15.2422 8.1808 15.2753 8.12309 15.2999C8.09408 15.312 8.06367 15.3204 8.03257 15.3249C7.9824 15.3282 7.93223 15.3282 7.88206 15.3239ZM7.02045 15.1646C7.003 15.1646 6.98665 15.1569 6.97029 15.1515C6.5731 15.0289 6.19417 14.8535 5.84366 14.63C5.5562 14.4407 5.28546 14.2272 5.0344 13.9917H6.45987C6.47732 13.9917 6.49477 14.0888 6.51222 14.1379C6.63218 14.4755 6.78948 14.7986 6.98119 15.1013C6.99101 15.1231 7.00627 15.1482 7.02045 15.1646ZM3.26757 4.76063C3.47382 4.18594 3.74535 3.63684 4.07682 3.12411C4.2724 2.82482 4.4912 2.54137 4.7312 2.27639L5.52082 2.28294H6.42606C6.36826 2.4575 6.31699 2.64079 6.25701 2.83717C6.16866 3.15902 6.09123 3.49178 6.01925 3.85291C5.96144 4.14639 5.91019 4.44533 5.86656 4.74754L3.26757 4.76063ZM11.6469 2.27421C11.8874 2.54032 12.1063 2.82526 12.3013 3.12629C12.6328 3.63869 12.9036 4.18788 13.1084 4.76282L11.4724 4.75299H10.1157C10.0793 4.45842 10.0386 4.17149 9.99354 3.89219C9.93246 3.52561 9.86593 3.19175 9.78959 2.87099C9.74051 2.66479 9.69034 2.47277 9.63581 2.29166C9.91283 2.29166 10.1888 2.29166 10.4647 2.29166L11.6469 2.27421ZM13.26 5.20358C13.2851 5.28541 13.3102 5.36833 13.3331 5.45234C13.4433 5.86462 13.526 6.28376 13.5807 6.70701C13.6221 7.03431 13.6483 7.36162 13.6581 7.68892L11.7767 7.67802H10.3098C10.3098 7.43145 10.3 7.19469 10.2924 6.98412C10.2793 6.63609 10.2597 6.28806 10.2357 5.95094C10.216 5.69673 10.1942 5.45343 10.1691 5.2145L13.2142 5.20577L13.26 5.20358ZM13.3014 10.615L11.4746 10.6041H10.1757C10.1931 10.435 10.2095 10.2637 10.2237 10.0881C10.276 9.45528 10.3044 8.80067 10.3109 8.13951L13.6603 8.13078C13.655 8.50951 13.628 8.88762 13.5796 9.26326C13.525 9.6866 13.4419 10.1058 13.3309 10.5179C13.3222 10.5496 13.3113 10.5823 13.3014 10.615ZM13.164 11.0209C12.9522 11.6369 12.6631 12.2234 12.3035 12.7665C12.1421 13.0142 11.9665 13.276 11.7811 13.3949H9.6369C9.6718 13.3949 9.70561 13.2215 9.73833 13.0916C9.82122 12.772 9.8932 12.5058 9.95646 12.1414C10.0197 11.777 10.0732 11.4322 10.1201 11.0613L13.164 11.0209ZM4.60142 13.4026C4.4171 13.2837 4.24151 13.012 4.08009 12.7665C3.71916 12.2292 3.42885 11.6476 3.2163 11.0362L4.51526 11.0231H5.82402C5.86874 11.3798 5.92 11.7191 5.98108 12.0617C6.04761 12.4261 6.1185 12.7469 6.1992 13.0676C6.2341 13.2084 6.27119 13.2858 6.30827 13.4026H4.60142ZM0.390458 7.70311C0.422167 6.83918 0.60182 5.9871 0.921599 5.18395H1.04266L2.60555 5.19377L2.56955 5.31269C2.35763 6.08682 2.23828 6.88338 2.214 7.68565L0.390458 7.70311ZM3.50642 1.84653C4.3752 1.2076 5.37016 0.761273 6.42497 0.537311C6.13913 0.652201 5.86395 0.792021 5.60262 0.955166C5.21851 1.19944 4.86325 1.48638 4.54361 1.81053L4.51744 1.83671H3.84342L3.50642 1.84653ZM10.565 0.819881C11.2518 1.06794 11.8997 1.41292 12.4889 1.84435H12.1443H11.8836L11.8564 1.81489C11.5363 1.49134 11.1807 1.20512 10.7962 0.961711C10.7155 0.907161 10.6425 0.863521 10.5607 0.819881H10.565ZM12.694 13.9885C12.0404 14.5022 11.3068 14.9047 10.5225 15.1798C10.6152 15.1297 10.7079 15.0773 10.7984 15.0195C11.1834 14.7764 11.5395 14.4901 11.8596 14.1663C11.9163 14.1085 11.9687 14.1107 12.0276 13.9917H12.6907L12.694 13.9885ZM6.47732 15.4613C5.32094 15.2238 4.23556 14.7207 3.30683 13.9917H4.37784C4.43237 14.1107 4.4869 14.1074 4.54252 14.163C4.86243 14.4862 5.21767 14.7724 5.60154 15.0162C5.87672 15.1908 6.16732 15.3398 6.46968 15.4613H6.47732ZM2.99491 2.26002H3.06362L3.88486 2.27093H4.12917C3.97539 2.4575 3.82816 2.65388 3.69292 2.86008C3.30063 3.45099 2.98474 4.08923 2.75278 4.75955L1.10373 4.77372C1.55066 3.81431 2.19208 2.9583 2.98727 2.26002H2.99491ZM14.9025 4.76936L13.6624 4.76172C13.4278 4.09047 13.1094 3.45153 12.7147 2.86008C12.5793 2.65683 12.4337 2.46056 12.2784 2.27202C12.502 2.27202 12.7245 2.27203 12.947 2.2633H13.0135C13.8078 2.96129 14.4488 3.81646 14.896 4.77482L14.9025 4.76936ZM12.9121 13.7703C12.9165 13.7421 12.9187 13.7136 12.9186 13.6852C12.9186 13.5608 12.8172 13.3917 12.694 13.3917H12.4137C12.5225 13.2829 12.6231 13.1662 12.7147 13.0425C13.1375 12.428 13.4726 11.7575 13.7104 11.0503L14.9734 11.0405C14.5033 12.0994 13.7953 13.0354 12.9045 13.7757L12.9121 13.7703ZM1.02412 10.9892L1.04702 11.0154H2.69498C2.93176 11.7323 3.2657 12.4132 3.68746 13.0393C3.77868 13.168 3.87969 13.2894 3.98957 13.4026H2.80731C2.79641 13.4026 2.78769 13.4724 2.77787 13.4735C2.02814 12.7756 1.42844 11.9322 1.01539 10.9947L1.02412 10.9892Z" fill="white"/>
</svg>
