<svg width="25" height="25" viewBox="0 0 25 25" fill="none" xmlns="http://www.w3.org/2000/svg">
<path d="M24.9928 12.0127C25.0791 14.4731 24.4308 16.9037 23.1298 18.9971C21.8288 21.0905 19.9336 22.7528 17.6838 23.7737C15.4341 24.7946 12.9308 25.1282 10.4906 24.7324C8.05046 24.3366 5.78294 23.2292 3.97483 21.5502C2.16672 19.8712 0.899234 17.6959 0.332661 15.2996C-0.233911 12.9033 -0.0741264 10.3935 0.791813 8.08755C1.65775 5.78165 3.19095 3.78322 5.19752 2.34499C7.20409 0.906764 9.5939 0.0933308 12.0647 0.00756423C15.3779 -0.107439 18.6012 1.09276 21.0256 3.34415C23.4501 5.59553 24.8771 8.7137 24.9928 12.0127Z" fill="#20446C"/>
<g opacity="0.1">
<path opacity="0.1" d="M12.0639 0.00909532C8.75078 0.124307 5.61933 1.54529 3.35837 3.95946C1.0974 6.37363 -0.107896 9.58325 0.00759649 12.8823C0.00759649 12.8823 8.80487 12.9699 10.8043 9.37433C12.8036 5.77875 12.0639 0.00909532 12.0639 0.00909532Z" fill="white"/>
</g>
<path d="M21.7936 11.9249C21.8598 13.7957 21.3673 15.6439 20.3782 17.2357C19.3891 18.8276 17.9481 20.0915 16.2374 20.8676C14.5267 21.6436 12.6232 21.8969 10.7679 21.5953C8.91263 21.2938 7.18885 20.451 5.81474 19.1736C4.44063 17.8962 3.47795 16.2416 3.04853 14.4193C2.61911 12.5969 2.74225 10.6886 3.40237 8.93592C4.06248 7.18325 5.22991 5.66496 6.7569 4.57318C8.28389 3.48141 10.1018 2.86523 11.9806 2.80262C14.4962 2.71878 16.9423 3.63229 18.7821 5.34259C20.6219 7.0529 21.705 9.42024 21.7936 11.9249Z" fill="#20446C"/>
<g opacity="0.2">
<path opacity="0.2" d="M21.7896 11.9249C21.8558 13.7957 21.3632 15.6439 20.3742 17.2357C19.3851 18.8276 17.944 20.0915 16.2333 20.8676C14.5226 21.6436 12.6192 21.8969 10.7639 21.5953C8.90859 21.2938 7.18481 20.451 5.8107 19.1736C4.43659 17.8962 3.47391 16.2416 3.04449 14.4193C2.61507 12.5969 2.73821 10.6886 3.39832 8.93592C4.05844 7.18325 5.22586 5.66496 6.75286 4.57318C8.27985 3.48141 10.0978 2.86523 11.9766 2.80262C14.4921 2.71878 16.9383 3.63229 18.7781 5.34259C20.6179 7.0529 21.701 9.42024 21.7896 11.9249Z" fill="#20446C"/>
</g>
<path d="M22.0776 12.3116C22.1421 14.1563 21.6558 15.9787 20.6803 17.5482C19.7048 19.1177 18.2838 20.364 16.597 21.1294C14.9102 21.8949 13.0333 22.1451 11.2037 21.8484C9.37415 21.5518 7.67398 20.7216 6.31818 19.4629C4.96238 18.2041 4.01185 16.5733 3.58676 14.7767C3.16167 12.9801 3.28111 11.0983 3.92999 9.36923C4.57887 7.64019 5.72805 6.14156 7.23222 5.06281C8.73639 3.98407 10.528 3.37366 12.3805 3.30876C14.8652 3.22277 17.2825 4.12284 19.1009 5.81108C20.9194 7.49932 21.99 9.83754 22.0776 12.3116Z" fill="#F0792E"/>
<path d="M15.2126 10.0561C15.5325 10.0561 15.7918 9.80156 15.7918 9.48753C15.7918 9.17371 15.5325 8.91897 15.2126 8.91897H10.6257C10.3059 8.91897 10.0466 9.17371 10.0466 9.48753C10.0466 9.80156 10.3059 10.0561 10.6257 10.0561H11.9404C12.484 10.0552 12.9779 10.3666 13.203 10.8521H10.6314C10.3117 10.8521 10.0522 11.1068 10.0522 11.4206C10.0522 11.7347 10.3117 11.9892 10.6314 11.9892H13.203C12.9758 12.4733 12.4831 12.7838 11.9404 12.7851H10.6257C10.3882 12.7854 10.1746 12.9277 10.0866 13.1443C9.99863 13.3608 10.0538 13.6082 10.226 13.7688L13.5041 16.8106C13.6125 16.9101 13.7554 16.9649 13.9036 16.964C14.0629 16.9631 14.2151 16.8996 14.3264 16.7879C14.4319 16.6786 14.4887 16.5327 14.4844 16.3824C14.4801 16.232 14.4149 16.0894 14.3034 15.9862L12.0793 13.9223C13.2075 13.8583 14.159 13.0745 14.4192 11.9949H15.2126C15.5325 11.9949 15.7918 11.7404 15.7918 11.4264C15.7918 11.1124 15.5325 10.8578 15.2126 10.8578H14.4192C14.3518 10.5747 14.2341 10.305 14.0717 10.0619H15.2126V10.0561Z" fill="white"/>
<g opacity="0.2">
<path opacity="0.2" d="M22.0776 12.3116C22.1421 14.1563 21.6558 15.9787 20.6803 17.5482C19.7048 19.1177 18.2838 20.364 16.597 21.1294C14.9102 21.8949 13.0333 22.1451 11.2037 21.8484C9.37415 21.5518 7.67398 20.7216 6.31818 19.4629C4.96238 18.2041 4.01185 16.5733 3.58676 14.7767C3.16167 12.9801 3.28111 11.0983 3.92999 9.36923C4.57887 7.64019 5.72805 6.14156 7.23222 5.06281C8.73639 3.98407 10.528 3.37366 12.3805 3.30876C14.8652 3.22277 17.2825 4.12284 19.1009 5.81108C20.9194 7.49932 21.99 9.83754 22.0776 12.3116Z" fill="white"/>
</g>
<path d="M12.8624 22.063H12.9384L13.1623 22.0431L13.5302 22.0072C13.6968 21.9957 13.8625 21.9731 14.0261 21.9395L14.6459 21.8201C14.7627 21.7984 14.8777 21.7678 14.9898 21.7285L15.3617 21.617C15.497 21.5827 15.6305 21.5415 15.7615 21.4936L16.1614 21.3263C16.3014 21.2666 16.4493 21.2148 16.5893 21.1432L17.0292 20.9122C17.6756 20.5644 18.2806 20.1449 18.8326 19.6619L19.2685 19.2438L19.4884 19.0288C19.5564 18.9492 19.6204 18.8696 19.6923 18.7899C19.8243 18.6267 19.9722 18.4714 20.0922 18.2962L20.4681 17.7586L20.5641 17.6193C20.5961 17.5755 20.6201 17.5237 20.648 17.4759L20.816 17.1813L20.984 16.8826C21.0439 16.7831 21.0799 16.6716 21.1319 16.5681C21.2239 16.353 21.3238 16.142 21.4078 15.923L21.6357 15.2421C21.9045 14.2821 22.0298 13.2879 22.0076 12.2916C21.9612 11.2954 21.7658 10.3117 21.4278 9.37292C21.3358 9.14994 21.2479 8.92695 21.1559 8.70795C21.0639 8.48895 20.94 8.28987 20.832 8.08281C20.7815 7.97902 20.7254 7.878 20.664 7.78019L20.4761 7.4935L20.2881 7.21079C20.2562 7.16301 20.2282 7.11523 20.1962 7.07143L20.0882 6.94003L19.6883 6.43035C19.5444 6.2671 19.3884 6.11977 19.2445 5.96846L19.0245 5.74548C18.9486 5.67381 18.8686 5.6101 18.7886 5.54241L18.3288 5.14423C17.7426 4.70046 17.1081 4.3238 16.4373 4.02135L15.9855 3.82226C15.8375 3.75855 15.6856 3.72272 15.5456 3.67096L15.1217 3.53159C14.9898 3.48381 14.8498 3.46788 14.7219 3.43205L14.342 3.34842C14.2265 3.31828 14.1088 3.29698 13.9901 3.28472L13.3663 3.20906C13.2007 3.18593 13.0336 3.17528 12.8664 3.17721H12.4985H12.2706H12.8664C13.0334 3.17225 13.2005 3.18023 13.3663 3.2011L13.9941 3.26879C14.1138 3.28126 14.2327 3.30121 14.35 3.32852L14.7498 3.41214C14.8778 3.44399 15.0178 3.45992 15.1497 3.5077L15.5736 3.64308C15.7175 3.69086 15.8735 3.73068 16.0215 3.79439L16.4773 3.9895C17.1537 4.2916 17.7947 4.66682 18.3887 5.10839L18.8526 5.50658L19.0925 5.70965L19.3125 5.93263C19.4604 6.08792 19.6204 6.23524 19.7643 6.3985L20.1642 6.91216L20.2722 7.04356L20.3681 7.18292L20.5561 7.46961L20.748 7.7563C20.816 7.85186 20.86 7.96336 20.92 8.0629C21.0279 8.26996 21.1439 8.46108 21.2479 8.69203C21.3518 8.92297 21.4278 9.13799 21.5198 9.36495C22.2325 11.2652 22.3055 13.3447 21.7277 15.2899L21.5038 15.9788C21.4158 16.2017 21.3118 16.4128 21.2199 16.6278C21.1679 16.7353 21.1319 16.8468 21.0719 16.9463C21.0119 17.0459 20.956 17.1454 20.9 17.245L20.732 17.5436C20.704 17.5914 20.676 17.6432 20.644 17.6909L20.5481 17.8303L20.1482 18.3718C20.0162 18.547 19.8683 18.7023 19.7483 18.8656L19.5404 19.1045L19.3204 19.3235L18.8806 19.7456C18.3204 20.2292 17.7074 20.6486 17.0531 20.9958L16.6133 21.2228C16.4693 21.2945 16.3214 21.3423 16.1774 21.402L15.7775 21.5692C15.6464 21.6171 15.513 21.6582 15.3777 21.6927L15.0018 21.8002C14.8882 21.8382 14.7719 21.8675 14.6539 21.8878L14.0341 21.9993C13.8692 22.0312 13.7021 22.0498 13.5342 22.055L13.1663 22.0829H12.9384L12.8624 22.063Z" fill="#263238"/>
<path d="M2.0713 18.654C2.04768 18.6245 2.02756 18.5925 2.01133 18.5584L1.84737 18.2797C1.7794 18.1602 1.69542 18.0089 1.61145 17.8258C1.52748 17.6426 1.41951 17.4475 1.33153 17.2126L1.18358 16.8502C1.1316 16.7228 1.09161 16.5874 1.04362 16.452C0.939655 16.1733 0.863682 15.8707 0.771711 15.5482C0.601523 14.8506 0.485221 14.1411 0.423822 13.4259C0.376424 12.7082 0.385787 11.9879 0.451816 11.2717C0.491803 10.9452 0.523788 10.6306 0.583769 10.3439C0.61176 10.1966 0.631759 10.0572 0.663749 9.92186C0.695739 9.78648 0.727721 9.66304 0.755712 9.52368C0.811695 9.27681 0.883673 9.06179 0.943654 8.87066C0.989078 8.7071 1.04382 8.54623 1.1076 8.38886L1.22756 8.09023C1.23723 8.05382 1.25205 8.01896 1.27155 7.9867C1.26647 8.0248 1.25708 8.0622 1.24356 8.09819L1.14359 8.40081C1.09561 8.53221 1.04362 8.69546 0.991637 8.88659C0.939653 9.07772 0.871678 9.28477 0.819694 9.53563C0.793036 9.66039 0.765048 9.79312 0.735724 9.93381C0.703734 10.0652 0.687738 10.2086 0.659746 10.3519C0.603764 10.6386 0.575778 10.9492 0.539789 11.2757C0.476619 11.9868 0.469926 12.7018 0.519788 13.4139C0.577352 14.1249 0.689646 14.8304 0.855681 15.5243C0.943654 15.8428 1.01963 16.1454 1.1156 16.4242C1.16358 16.5595 1.20358 16.6989 1.25157 16.8223L1.39151 17.1887C1.47948 17.4236 1.57946 17.6227 1.65943 17.8059C1.73941 17.989 1.81538 18.1403 1.87936 18.2638L2.02731 18.5505C2.0476 18.5823 2.06247 18.6173 2.0713 18.654Z" fill="white"/>
<path d="M12.8129 2.52828C12.7118 2.53867 12.61 2.53867 12.509 2.52828H12.1491C12.0131 2.52828 11.8532 2.52828 11.6772 2.52828C11.5013 2.52828 11.3133 2.54819 11.1054 2.57208C10.8974 2.59598 10.6855 2.62385 10.4576 2.65968C9.46697 2.82967 8.50821 3.14924 7.61445 3.60736C7.41051 3.71885 7.21457 3.81839 7.04262 3.92988C6.87625 4.02389 6.71476 4.12622 6.55877 4.23648C6.41082 4.33205 6.28686 4.42761 6.15889 4.51123C6.03093 4.59485 5.95495 4.66652 5.87898 4.73022C5.80292 4.79792 5.72133 4.85919 5.63506 4.91339C5.70355 4.83823 5.77702 4.76772 5.85498 4.70236C5.92696 4.63466 6.01893 4.55503 6.1269 4.47141C6.23486 4.38779 6.35883 4.28028 6.50679 4.18074C6.65474 4.08119 6.80669 3.9697 6.98663 3.86219C7.16658 3.75468 7.35453 3.64319 7.55847 3.5317C8.0076 3.29841 8.47418 3.10005 8.95404 2.93841C9.43408 2.77878 9.92616 2.65762 10.4256 2.57607C10.6575 2.54422 10.8774 2.50837 11.0854 2.49643C11.2933 2.48448 11.4853 2.46856 11.6612 2.46458C11.8372 2.4606 11.9971 2.46458 12.1371 2.46458C12.277 2.46458 12.397 2.46458 12.493 2.48847C12.6004 2.49379 12.7074 2.50709 12.8129 2.52828Z" fill="white"/>
<path d="M14.4373 24.1892C14.3673 24.2213 14.2934 24.2441 14.2174 24.2569C14.0734 24.2967 13.8615 24.3405 13.6016 24.3843C12.2269 24.6109 10.818 24.5155 9.4868 24.1056C9.23488 24.0299 9.03094 23.9543 8.89499 23.8985C8.8227 23.8735 8.75304 23.8415 8.68704 23.803C8.76241 23.8144 8.83622 23.8344 8.90698 23.8627C9.04694 23.9105 9.25088 23.9742 9.5068 24.0458C10.8344 24.4152 12.2241 24.5087 13.5896 24.3206C13.8535 24.2848 14.0654 24.2489 14.2094 24.2211C14.2836 24.2004 14.3603 24.1897 14.4373 24.1892Z" fill="white"/>
</svg>
