<svg width="25" height="25" viewBox="0 0 25 25" fill="none" xmlns="http://www.w3.org/2000/svg">
<path d="M24.9928 12.0127C25.0791 14.4731 24.4308 16.9037 23.1298 18.9971C21.8288 21.0905 19.9336 22.7528 17.6838 23.7737C15.4341 24.7946 12.9308 25.1282 10.4906 24.7324C8.05046 24.3366 5.78294 23.2292 3.97483 21.5502C2.16672 19.8712 0.899234 17.6959 0.332661 15.2996C-0.233911 12.9033 -0.0741264 10.3935 0.791813 8.08755C1.65775 5.78165 3.19095 3.78322 5.19752 2.34499C7.20409 0.906764 9.5939 0.0933308 12.0647 0.00756423C15.3779 -0.107439 18.6012 1.09276 21.0256 3.34415C23.4501 5.59553 24.8771 8.7137 24.9928 12.0127Z" fill="#20446C"/>
<g opacity="0.1">
<path opacity="0.1" d="M12.0639 0.00960061C8.75078 0.124813 5.61933 1.5458 3.35837 3.95997C1.0974 6.37414 -0.107896 9.58376 0.00759649 12.8828C0.00759649 12.8828 8.80487 12.9704 10.8043 9.37483C12.8036 5.77925 12.0639 0.00960061 12.0639 0.00960061Z" fill="white"/>
</g>
<path d="M21.7896 11.9249C21.8558 13.7957 21.3632 15.6439 20.3742 17.2357C19.3851 18.8276 17.944 20.0915 16.2333 20.8676C14.5226 21.6436 12.6192 21.8969 10.7639 21.5953C8.90859 21.2938 7.18481 20.451 5.8107 19.1736C4.43659 17.8962 3.47391 16.2416 3.04449 14.4193C2.61507 12.5969 2.73821 10.6886 3.39832 8.93592C4.05844 7.18325 5.22586 5.66496 6.75286 4.57318C8.27985 3.48141 10.0978 2.86523 11.9766 2.80262C14.4921 2.71878 16.9383 3.63229 18.7781 5.34259C20.6179 7.0529 21.701 9.42024 21.7896 11.9249Z" fill="#20446C"/>
<g opacity="0.2">
<path opacity="0.2" d="M21.7896 11.9249C21.8558 13.7957 21.3632 15.6439 20.3742 17.2357C19.3851 18.8276 17.944 20.0915 16.2333 20.8676C14.5226 21.6436 12.6192 21.8969 10.7639 21.5953C8.90859 21.2938 7.18481 20.451 5.8107 19.1736C4.43659 17.8962 3.47391 16.2416 3.04449 14.4193C2.61507 12.5969 2.73821 10.6886 3.39832 8.93592C4.05844 7.18325 5.22586 5.66496 6.75286 4.57318C8.27985 3.48141 10.0978 2.86523 11.9766 2.80262C14.4921 2.71878 16.9383 3.63229 18.7781 5.34259C20.6179 7.0529 21.701 9.42024 21.7896 11.9249Z" fill="#20446C"/>
</g>
<path d="M22.0796 12.3111C22.1441 14.1558 21.6578 15.9782 20.6823 17.5477C19.7068 19.1172 18.2858 20.3635 16.599 21.1289C14.9122 21.8943 13.0354 22.1446 11.2058 21.8479C9.37618 21.5513 7.676 20.7211 6.3202 19.4623C4.96441 18.2036 4.01387 16.5728 3.58878 14.7762C3.16369 12.9796 3.28313 11.0978 3.93201 9.36872C4.58089 7.63968 5.73007 6.14105 7.23424 5.06231C8.73841 3.98357 10.53 3.37315 12.3826 3.30825C14.8673 3.22226 17.2845 4.12233 19.103 5.81058C20.9214 7.49882 21.9921 9.83703 22.0796 12.3111Z" fill="#F0792E"/>
<path d="M15.2106 10.0561C15.5305 10.0561 15.7897 9.80156 15.7897 9.48753C15.7897 9.17371 15.5305 8.91897 15.2106 8.91897H10.6237C10.3038 8.91897 10.0446 9.17371 10.0446 9.48753C10.0446 9.80156 10.3038 10.0561 10.6237 10.0561H11.9384C12.482 10.0552 12.9759 10.3666 13.201 10.8521H10.6294C10.3097 10.8521 10.0502 11.1068 10.0502 11.4206C10.0502 11.7347 10.3097 11.9892 10.6294 11.9892H13.201C12.9738 12.4733 12.4811 12.7838 11.9384 12.7851H10.6237C10.3862 12.7854 10.1726 12.9277 10.0846 13.1443C9.99661 13.3608 10.0518 13.6082 10.224 13.7688L13.5021 16.8106C13.6104 16.9101 13.7534 16.9649 13.9016 16.964C14.0609 16.9631 14.2131 16.8996 14.3244 16.7879C14.4299 16.6786 14.4866 16.5327 14.4823 16.3824C14.478 16.232 14.4129 16.0894 14.3014 15.9862L12.0773 13.9223C13.2055 13.8583 14.157 13.0745 14.4172 11.9949H15.2106C15.5305 11.9949 15.7897 11.7404 15.7897 11.4264C15.7897 11.1124 15.5305 10.8578 15.2106 10.8578H14.4172C14.3498 10.5747 14.2321 10.305 14.0697 10.0619H15.2106V10.0561Z" fill="white"/>
<g opacity="0.2">
<path opacity="0.2" d="M22.0776 12.3111C22.1421 14.1558 21.6558 15.9782 20.6803 17.5477C19.7048 19.1172 18.2838 20.3635 16.597 21.1289C14.9102 21.8943 13.0333 22.1446 11.2037 21.8479C9.37415 21.5513 7.67398 20.7211 6.31818 19.4623C4.96238 18.2036 4.01185 16.5728 3.58676 14.7762C3.16167 12.9796 3.28111 11.0978 3.92999 9.36872C4.57887 7.63968 5.72805 6.14105 7.23222 5.06231C8.73639 3.98357 10.528 3.37315 12.3805 3.30825C14.8652 3.22226 17.2825 4.12233 19.1009 5.81058C20.9194 7.49882 21.99 9.83703 22.0776 12.3111Z" fill="white"/>
</g>
<path d="M12.8644 22.063H12.9404L13.1643 22.0431L13.5322 22.0072C13.6989 21.9957 13.8645 21.9731 14.0281 21.9395L14.6479 21.8201C14.7647 21.7984 14.8797 21.7678 14.9918 21.7285L15.3637 21.617C15.499 21.5827 15.6325 21.5415 15.7636 21.4936L16.1634 21.3263C16.3034 21.2666 16.4514 21.2148 16.5913 21.1432L17.0312 20.9122C17.6777 20.5644 18.2826 20.1449 18.8346 19.6619L19.2705 19.2438L19.4904 19.0288C19.5584 18.9492 19.6224 18.8696 19.6944 18.7899C19.8263 18.6267 19.9743 18.4714 20.0942 18.2962L20.4701 17.7586L20.5661 17.6193C20.5981 17.5755 20.6221 17.5237 20.6501 17.4759L20.818 17.1813L20.986 16.8826C21.046 16.7831 21.0819 16.6716 21.1339 16.5681C21.2259 16.353 21.3259 16.142 21.4098 15.923L21.6378 15.2421C21.9065 14.2821 22.0318 13.2879 22.0097 12.2916C21.9632 11.2954 21.7678 10.3117 21.4298 9.37292C21.3379 9.14994 21.2499 8.92695 21.1579 8.70795C21.0659 8.48895 20.942 8.28987 20.834 8.08281C20.7835 7.97902 20.7274 7.878 20.6661 7.78019L20.4781 7.4935L20.2902 7.21079C20.2582 7.16301 20.2302 7.11523 20.1982 7.07143L20.0902 6.94003L19.6904 6.43035C19.5464 6.2671 19.3904 6.11977 19.2465 5.96846L19.0266 5.74548C18.9506 5.67381 18.8706 5.6101 18.7906 5.54241L18.3308 5.14423C17.7446 4.70046 17.1101 4.3238 16.4394 4.02135L15.9875 3.82226C15.8395 3.75855 15.6876 3.72272 15.5476 3.67096L15.1237 3.53159C14.9918 3.48381 14.8518 3.46788 14.7239 3.43205L14.344 3.34842C14.2285 3.31828 14.1109 3.29698 13.9921 3.28472L13.3683 3.20906C13.2027 3.18593 13.0356 3.17528 12.8684 3.17721H12.5006H12.2726H12.8684C13.0354 3.17225 13.2026 3.18023 13.3683 3.2011L13.9961 3.26879C14.1159 3.28126 14.2347 3.30121 14.352 3.32852L14.7519 3.41214C14.8798 3.44399 15.0198 3.45992 15.1517 3.5077L15.5756 3.64308C15.7196 3.69086 15.8755 3.73068 16.0235 3.79439L16.4793 3.9895C17.1557 4.2916 17.7967 4.66682 18.3908 5.10839L18.8546 5.50658L19.0945 5.70965L19.3145 5.93263C19.4624 6.08792 19.6224 6.23524 19.7663 6.3985L20.1662 6.91216L20.2742 7.04356L20.3701 7.18292L20.5581 7.46961L20.75 7.7563C20.818 7.85186 20.862 7.96336 20.922 8.0629C21.0299 8.26996 21.1459 8.46108 21.2499 8.69203C21.3539 8.92297 21.4298 9.13799 21.5218 9.36495C22.2345 11.2652 22.3075 13.3447 21.7297 15.2899L21.5058 15.9788C21.4178 16.2017 21.3139 16.4128 21.2219 16.6278C21.1699 16.7353 21.1339 16.8468 21.0739 16.9463C21.014 17.0459 20.958 17.1454 20.902 17.245L20.7341 17.5436C20.7061 17.5914 20.6781 17.6432 20.6461 17.6909L20.5501 17.8303L20.1502 18.3718C20.0183 18.547 19.8703 18.7023 19.7503 18.8656L19.5424 19.1045L19.3225 19.3235L18.8826 19.7456C18.3224 20.2292 17.7094 20.6486 17.0552 20.9958L16.6153 21.2228C16.4713 21.2945 16.3234 21.3423 16.1794 21.402L15.7796 21.5692C15.6484 21.6171 15.515 21.6582 15.3797 21.6927L15.0038 21.8002C14.8903 21.8382 14.7739 21.8675 14.6559 21.8878L14.0361 21.9993C13.8712 22.0312 13.7041 22.0498 13.5362 22.055L13.1684 22.0829H12.9404L12.8644 22.063Z" fill="#263238"/>
<path d="M2.0713 18.654C2.04768 18.6245 2.02756 18.5925 2.01133 18.5584L1.84737 18.2797C1.7794 18.1602 1.69542 18.0089 1.61145 17.8258C1.52748 17.6426 1.41951 17.4475 1.33153 17.2126L1.18358 16.8502C1.1316 16.7228 1.09161 16.5874 1.04362 16.452C0.939655 16.1733 0.863682 15.8707 0.771711 15.5482C0.601523 14.8506 0.485221 14.1411 0.423822 13.4259C0.376424 12.7082 0.385787 11.9879 0.451816 11.2717C0.491803 10.9452 0.523788 10.6306 0.583769 10.3439C0.61176 10.1966 0.631759 10.0572 0.663749 9.92186C0.695739 9.78648 0.727721 9.66304 0.755712 9.52368C0.811695 9.27681 0.883673 9.06179 0.943654 8.87066C0.989078 8.7071 1.04382 8.54623 1.1076 8.38886L1.22756 8.09023C1.23723 8.05382 1.25205 8.01896 1.27155 7.9867C1.26647 8.0248 1.25708 8.0622 1.24356 8.09819L1.14359 8.40081C1.09561 8.53221 1.04362 8.69546 0.991637 8.88659C0.939653 9.07772 0.871678 9.28477 0.819694 9.53563C0.793036 9.66039 0.765048 9.79312 0.735724 9.93381C0.703734 10.0652 0.687738 10.2086 0.659746 10.3519C0.603764 10.6386 0.575778 10.9492 0.539789 11.2757C0.476619 11.9868 0.469926 12.7018 0.519788 13.4139C0.577352 14.1249 0.689646 14.8304 0.855681 15.5243C0.943654 15.8428 1.01963 16.1454 1.1156 16.4242C1.16358 16.5595 1.20358 16.6989 1.25157 16.8223L1.39151 17.1887C1.47948 17.4236 1.57946 17.6227 1.65943 17.8059C1.73941 17.989 1.81538 18.1403 1.87936 18.2638L2.02731 18.5505C2.0476 18.5823 2.06247 18.6173 2.0713 18.654Z" fill="white"/>
<path d="M12.8129 2.52828C12.7118 2.53867 12.61 2.53867 12.509 2.52828H12.1491C12.0131 2.52828 11.8532 2.52828 11.6772 2.52828C11.5013 2.52828 11.3133 2.54819 11.1054 2.57208C10.8974 2.59598 10.6855 2.62385 10.4576 2.65968C9.46697 2.82967 8.50821 3.14924 7.61445 3.60736C7.41051 3.71885 7.21457 3.81839 7.04262 3.92988C6.87625 4.02389 6.71476 4.12622 6.55877 4.23648C6.41082 4.33205 6.28686 4.42761 6.15889 4.51123C6.03093 4.59485 5.95495 4.66652 5.87898 4.73022C5.80292 4.79792 5.72133 4.85919 5.63506 4.91339C5.70355 4.83823 5.77702 4.76772 5.85498 4.70236C5.92696 4.63466 6.01893 4.55503 6.1269 4.47141C6.23486 4.38779 6.35883 4.28028 6.50679 4.18074C6.65474 4.08119 6.80669 3.9697 6.98663 3.86219C7.16658 3.75468 7.35453 3.64319 7.55847 3.5317C8.0076 3.29841 8.47418 3.10005 8.95404 2.93841C9.43408 2.77878 9.92616 2.65762 10.4256 2.57607C10.6575 2.54422 10.8774 2.50837 11.0854 2.49643C11.2933 2.48448 11.4853 2.46856 11.6612 2.46458C11.8372 2.4606 11.9971 2.46458 12.1371 2.46458C12.277 2.46458 12.397 2.46458 12.493 2.48847C12.6004 2.49379 12.7074 2.50709 12.8129 2.52828Z" fill="white"/>
<path d="M14.4393 24.1887C14.3693 24.2208 14.2954 24.2436 14.2194 24.2564C14.0754 24.2962 13.8635 24.34 13.6036 24.3838C12.2289 24.6104 10.82 24.515 9.48882 24.1051C9.2369 24.0294 9.03297 23.9538 8.89701 23.898C8.82472 23.873 8.75506 23.841 8.68906 23.8024C8.76443 23.8139 8.83824 23.8339 8.909 23.8622C9.04896 23.91 9.2529 23.9737 9.50882 24.0453C10.8364 24.4147 12.2261 24.5082 13.5916 24.3201C13.8555 24.2843 14.0674 24.2484 14.2114 24.2205C14.2856 24.1999 14.3623 24.1892 14.4393 24.1887Z" fill="white"/>
</svg>
