<svg width="360" height="335" viewBox="0 0 360 335" fill="none" xmlns="http://www.w3.org/2000/svg">
<g clip-path="url(#clip0_67490_16491)">
<path d="M384.057 308.082C384.057 322.948 292.65 335 179.895 335C67.1393 335 -24.2672 322.948 -24.2672 308.082C-24.2672 293.215 -102.996 -38.3669 9.75989 -38.3669C70.7466 -38.3669 265.915 -129.792 349.029 -38.3664C419.58 39.2405 384.057 301.256 384.057 308.082Z" fill="#FCDAC4" fill-opacity="0.6"/>
<circle cx="327" cy="46" r="133" fill="#F0792E"/>
<circle cx="368" cy="22" r="106" fill="#A0310D"/>
<path d="M368.483 184.135L311.026 184.102C309.383 184.101 307.756 183.777 306.238 183.147C304.72 182.518 303.341 181.595 302.179 180.433C301.018 179.27 300.097 177.89 299.468 176.371C298.84 174.853 298.517 173.225 298.518 171.582L298.546 27.5197C298.546 25.8752 298.87 24.2468 299.499 22.7275C300.129 21.2083 301.051 19.8279 302.214 18.6653C303.377 17.5026 304.758 16.5805 306.277 15.9517C307.796 15.3228 309.424 14.9994 311.069 15L368.526 15.0331C371.844 15.0356 375.026 16.3558 377.371 18.7034C379.717 21.051 381.035 24.2341 381.035 27.5529L381.006 171.615C381.007 173.26 380.683 174.888 380.054 176.408C379.425 177.927 378.502 179.308 377.339 180.471C376.176 181.634 374.796 182.556 373.276 183.184C371.756 183.813 370.128 184.136 368.483 184.135Z" fill="#20446C"/>
<path d="M368.559 20.4208H357.427C357.063 20.4288 356.704 20.5087 356.371 20.6559C356.038 20.803 355.737 21.0146 355.486 21.2785C355.235 21.5423 355.038 21.8532 354.908 22.1932C354.777 22.5332 354.715 22.8957 354.725 23.2598V25.2801C354.735 25.6441 354.672 26.0063 354.542 26.346C354.411 26.6858 354.215 26.9964 353.964 27.2601C353.713 27.5238 353.412 27.7354 353.079 27.8828C352.747 28.0302 352.388 28.1105 352.024 28.1191H330.309C329.945 28.1105 329.586 28.0302 329.253 27.8829C328.92 27.7355 328.619 27.524 328.368 27.2604C328.117 26.9967 327.92 26.6861 327.788 26.3464C327.657 26.0066 327.594 25.6443 327.603 25.2801V23.2266C327.612 22.8627 327.55 22.5005 327.419 22.1608C327.289 21.821 327.092 21.5104 326.841 21.2467C326.59 20.983 326.29 20.7714 325.957 20.624C325.624 20.4766 325.266 20.3963 324.902 20.3877H311.229C310.078 20.3865 308.937 20.6122 307.873 21.052C306.809 21.4918 305.842 22.1371 305.028 22.9509C304.213 23.7648 303.567 24.7312 303.126 25.795C302.685 26.8588 302.458 27.999 302.458 29.1506L302.43 169.768C302.432 172.091 303.356 174.318 304.999 175.96C306.642 177.602 308.869 178.525 311.191 178.526L368.53 178.559C369.682 178.561 370.822 178.335 371.886 177.895C372.95 177.455 373.917 176.81 374.732 175.996C375.547 175.182 376.193 174.216 376.634 173.152C377.075 172.088 377.302 170.948 377.302 169.796L377.33 29.179C377.327 26.8545 376.402 24.6261 374.757 22.9838C373.113 21.3414 370.883 20.4196 368.559 20.4208Z" fill="#FFF7E0"/>
<path d="M243.605 160C263.269 160 279.209 144.106 279.209 124.5C279.209 104.894 263.269 89 243.605 89C223.941 89 208 104.894 208 124.5C208 144.106 223.941 160 243.605 160Z" fill="#FEF9BA"/>
<path d="M243.46 153.588C259.642 153.588 272.76 140.509 272.76 124.375C272.76 108.24 259.642 95.1606 243.46 95.1606C227.278 95.1606 214.16 108.24 214.16 124.375C214.16 140.509 227.278 153.588 243.46 153.588Z" fill="#F8AD43"/>
<path opacity="0.55" d="M253.322 96.8711L222.507 144.795C223.738 146.05 225.079 147.193 226.515 148.209L258.103 99.0839C256.58 98.2038 254.979 97.4632 253.322 96.8711ZM261.308 101.222L229.798 150.227C233.784 152.325 238.204 153.472 242.71 153.579L269.762 111.507C267.771 107.478 264.878 103.96 261.308 101.222ZM244.21 95.189L217.158 137.261C218.012 138.99 219.036 140.63 220.214 142.158L249.957 95.9C248.07 95.4746 246.145 95.2364 244.21 95.189Z" fill="#F8D24A"/>
<path d="M389.198 128.385H331.553V138.558H389.198V128.385Z" fill="#F79A45"/>
<path d="M384.677 128.385H351.898V138.558H384.677V128.385Z" fill="#F8AD43"/>
<g style="mix-blend-mode:multiply" opacity="0.5">
<path d="M389.198 137.428H331.553V138.558H389.198V137.428Z" fill="#F79A45"/>
</g>
<path d="M384.677 118.212H327.031V128.385H384.677V118.212Z" fill="#F79A45"/>
<path d="M381.286 118.212H347.377V128.385H381.286V118.212Z" fill="#F8AD43"/>
<g style="mix-blend-mode:multiply" opacity="0.5">
<path d="M384.677 127.255H327.031V128.385H384.677V127.255Z" fill="#F79A45"/>
</g>
<path d="M389.198 108.04H331.553V118.213H389.198V108.04Z" fill="#F79A45"/>
<path d="M384.677 108.04H351.898V118.213H384.677V108.04Z" fill="#F8AD43"/>
<g style="mix-blend-mode:multiply" opacity="0.5">
<path d="M389.198 117.083H331.553V118.213H389.198V117.083Z" fill="#F79A45"/>
</g>
<path d="M380.156 97.8672H323.641V108.04H380.156V97.8672Z" fill="#F79A45"/>
<path d="M376.765 97.8672H342.855V108.04H376.765V97.8672Z" fill="#F8AD43"/>
<g style="mix-blend-mode:multiply" opacity="0.5">
<path d="M380.156 106.91H323.641V108.04H380.156V106.91Z" fill="#F79A45"/>
</g>
<path d="M384.677 87.6943H327.031V97.8671H384.677V87.6943Z" fill="#F79A45"/>
<path d="M381.286 87.6943H347.377V97.8671H381.286V87.6943Z" fill="#F8AD43"/>
<g style="mix-blend-mode:multiply" opacity="0.5">
<path d="M384.677 96.7368H327.031V97.8671H384.677V96.7368Z" fill="#F79A45"/>
</g>
<path d="M389.198 77.5215H331.553V87.6943H389.198V77.5215Z" fill="#F79A45"/>
<path d="M384.677 77.5215H351.898V87.6943H384.677V77.5215Z" fill="#F8AD43"/>
<g style="mix-blend-mode:multiply" opacity="0.5">
<path d="M389.198 86.564H331.553V87.6943H389.198V86.564Z" fill="#F79A45"/>
</g>
<path d="M252.682 114.664C253.962 114.664 255 113.62 255 112.332C255 111.045 253.962 110 252.682 110H234.323C233.043 110 232.005 111.045 232.005 112.332C232.005 113.62 233.043 114.664 234.323 114.664H239.585C241.761 114.661 243.738 115.938 244.639 117.929H234.346C233.066 117.929 232.028 118.974 232.028 120.261C232.028 121.55 233.066 122.594 234.346 122.594H244.639C243.729 124.58 241.757 125.853 239.585 125.859H234.323C233.373 125.86 232.518 126.443 232.166 127.332C231.813 128.22 232.034 129.235 232.723 129.893L245.844 142.37C246.277 142.779 246.85 143.004 247.443 143C248.08 142.996 248.69 142.736 249.135 142.278C249.557 141.829 249.784 141.231 249.767 140.614C249.75 139.997 249.489 139.412 249.043 138.989L240.141 130.523C244.657 130.261 248.465 127.046 249.506 122.617H252.682C253.962 122.617 255 121.573 255 120.285C255 118.997 253.962 117.953 252.682 117.953H249.506C249.237 116.791 248.766 115.686 248.116 114.688H252.682V114.664Z" fill="white"/>
<path opacity="0.1" d="M352.194 100.127H298.477C296.144 100.127 294.252 101.98 294.252 104.266V115.204C294.252 117.49 296.143 119.343 298.477 119.343H352.194C354.527 119.343 356.419 117.49 356.419 115.204V104.266C356.419 101.98 354.527 100.127 352.194 100.127Z" fill="#231F20"/>
<path d="M353 104.242V120.757C353 124.208 351.108 127 348.781 127H295.112C292.781 127 290.888 124.208 290.888 120.757V114.479L278 111.294L290.888 107.261C290.888 103.819 292.781 98 295.112 98H348.781C351.108 97.9993 353 100.799 353 104.242Z" fill="white"/>
<path d="M359.648 105.02L341.803 111.643L339.612 109.049C339.214 108.578 338.375 108.155 337.75 108.188C335.996 108.279 335.083 110.315 336.257 111.633L340.561 116.466C341.267 117.259 342.474 117.404 343.357 116.802L359.913 105.507C360.188 105.319 359.961 104.904 359.648 105.02ZM308.275 114.144C308.275 114.75 308.051 115.236 307.601 115.603C307.152 115.971 306.523 116.191 305.714 116.263V117.433H304.911V116.286C303.958 116.267 303.121 116.103 302.402 115.795V114.287C302.742 114.451 303.152 114.596 303.63 114.721C304.109 114.847 304.536 114.921 304.911 114.944V113.174L304.518 113.025C303.745 112.728 303.196 112.406 302.874 112.057C302.552 111.709 302.391 111.278 302.391 110.764C302.391 110.212 302.612 109.758 303.056 109.402C303.499 109.046 304.118 108.83 304.911 108.754V107.88H305.714V108.731C306.609 108.769 307.418 108.945 308.141 109.257L307.59 110.593C306.98 110.349 306.355 110.201 305.714 110.147V111.832C306.476 112.117 307.018 112.365 307.34 112.574C307.663 112.784 307.899 113.014 308.05 113.265C308.2 113.516 308.275 113.81 308.275 114.144ZM304.155 110.764C304.155 110.932 304.214 111.07 304.334 111.178C304.453 111.287 304.645 111.398 304.911 111.512V110.17C304.407 110.243 304.155 110.441 304.155 110.764ZM306.511 114.23C306.511 114.07 306.445 113.935 306.312 113.825C306.179 113.714 305.979 113.6 305.714 113.482V114.904C306.245 114.817 306.511 114.592 306.511 114.23ZM312.326 111.421C313.154 111.421 313.813 111.648 314.304 112.1C314.794 112.554 315.039 113.174 315.039 113.962C315.039 114.895 314.744 115.612 314.154 116.114C313.564 116.617 312.72 116.868 311.622 116.868C310.669 116.868 309.899 116.718 309.313 116.417V114.892C309.622 115.052 309.981 115.183 310.391 115.283C310.802 115.384 311.19 115.435 311.558 115.435C312.664 115.435 313.216 114.993 313.216 114.11C313.216 113.269 312.644 112.848 311.499 112.848C311.292 112.848 311.064 112.868 310.814 112.908C310.563 112.948 310.36 112.991 310.204 113.036L309.483 112.66L309.805 108.406H314.454V109.902H311.394L311.236 111.54L311.441 111.5C311.679 111.448 311.974 111.421 312.326 111.421ZM322.002 112.58C322.002 114.038 321.757 115.117 321.267 115.818C320.776 116.518 320.021 116.868 319.001 116.868C318.013 116.868 317.267 116.507 316.765 115.783C316.263 115.06 316.012 113.992 316.012 112.58C316.012 111.107 316.256 110.021 316.744 109.322C317.233 108.624 317.985 108.275 319.001 108.275C319.99 108.275 320.737 108.64 321.243 109.371C321.749 110.102 322.002 111.172 322.002 112.58ZM317.812 112.58C317.812 113.604 317.903 114.338 318.084 114.781C318.266 115.225 318.571 115.446 319.002 115.446C319.424 115.446 319.728 115.222 319.916 114.773C320.104 114.324 320.197 113.593 320.197 112.58C320.197 111.556 320.102 110.821 319.913 110.373C319.724 109.926 319.42 109.702 319.002 109.702C318.576 109.702 318.271 109.926 318.087 110.373C317.903 110.821 317.812 111.556 317.812 112.58ZM328.854 112.58C328.854 114.038 328.609 115.117 328.119 115.818C327.628 116.518 326.873 116.868 325.853 116.868C324.864 116.868 324.119 116.507 323.617 115.783C323.115 115.06 322.864 113.992 322.864 112.58C322.864 111.107 323.108 110.021 323.597 109.322C324.085 108.624 324.837 108.275 325.853 108.275C326.842 108.275 327.589 108.64 328.095 109.371C328.601 110.102 328.854 111.172 328.854 112.58ZM324.663 112.58C324.663 113.604 324.754 114.338 324.936 114.781C325.118 115.225 325.423 115.446 325.853 115.446C326.275 115.446 326.58 115.222 326.767 114.773C326.955 114.324 327.049 113.593 327.049 112.58C327.049 111.556 326.954 110.821 326.764 110.373C326.575 109.926 326.271 109.702 325.853 109.702C325.427 109.702 325.122 109.926 324.939 110.373C324.755 110.821 324.663 111.556 324.663 112.58Z" fill="#6C3B0D"/>
<g opacity="0.15">
<path opacity="0.15" d="M322.518 124.001H307.877L299 103.001H313.641L322.518 124.001Z" fill="#F6E9EB"/>
<path opacity="0.15" d="M331 124H325.071L316.186 103H322.123L331 124Z" fill="#F6E9EB"/>
</g>
<rect x="298" y="101" width="11" height="23" fill="white"/>
<path d="M307.098 109.438C307.476 109.438 307.782 109.116 307.782 108.719C307.782 108.322 307.476 108 307.098 108H301.685C301.308 108 301.002 108.322 301.002 108.719C301.002 109.116 301.308 109.438 301.685 109.438H303.237C303.878 109.437 304.461 109.83 304.727 110.444H301.692C301.314 110.444 301.008 110.766 301.008 111.163C301.008 111.56 301.314 111.882 301.692 111.882H304.727C304.459 112.494 303.877 112.887 303.237 112.889H301.685C301.405 112.889 301.153 113.069 301.049 113.343C300.945 113.617 301.01 113.929 301.213 114.132L305.082 117.979C305.21 118.105 305.379 118.174 305.554 118.173C305.741 118.172 305.921 118.091 306.053 117.95C306.177 117.812 306.244 117.627 306.239 117.437C306.234 117.247 306.157 117.067 306.025 116.936L303.4 114.327C304.732 114.246 305.855 113.255 306.162 111.889H307.098C307.476 111.889 307.782 111.568 307.782 111.171C307.782 110.773 307.476 110.452 307.098 110.452H306.162C306.082 110.094 305.944 109.753 305.752 109.445H307.098V109.438Z" fill="#6C3B0D"/>
</g>
<defs>
<clipPath id="clip0_67490_16491">
<rect width="360" height="335" fill="white"/>
</clipPath>
</defs>
</svg>
