<svg width="28" height="28" viewBox="0 0 28 28" fill="none" xmlns="http://www.w3.org/2000/svg">
<g clip-path="url(#clip0_834_51493)">
<path d="M10.7916 9.3334H2.0416C0.915802 9.3334 0 8.4176 0 7.2916V2.0416C0 0.915802 0.915802 0 2.0416 0H10.7916C11.9176 0 12.8334 0.915802 12.8334 2.0416V7.2916C12.8334 8.4176 11.9176 9.3334 10.7916 9.3334ZM2.0416 1.75C1.88074 1.75 1.75 1.88074 1.75 2.0416V7.2916C1.75 7.45267 1.88074 7.5834 2.0416 7.5834H10.7916C10.9527 7.5834 11.0834 7.45267 11.0834 7.2916V2.0416C11.0834 1.88074 10.9527 1.75 10.7916 1.75H2.0416Z" fill="#F0792E"/>
<path d="M10.7916 27.9999H2.0416C0.915802 27.9999 0 27.0841 0 25.9583V13.7083C0 12.5823 0.915802 11.6665 2.0416 11.6665H10.7916C11.9176 11.6665 12.8334 12.5823 12.8334 13.7083V25.9583C12.8334 27.0841 11.9176 27.9999 10.7916 27.9999ZM2.0416 13.4165C1.88074 13.4165 1.75 13.5472 1.75 13.7083V25.9583C1.75 26.1192 1.88074 26.2499 2.0416 26.2499H10.7916C10.9527 26.2499 11.0834 26.1192 11.0834 25.9583V13.7083C11.0834 13.5472 10.9527 13.4165 10.7916 13.4165H2.0416Z" fill="#20446C"/>
<path d="M25.9598 27.9999H17.2098C16.0838 27.9999 15.168 27.0841 15.168 25.9583V20.7083C15.168 19.5823 16.0838 18.6665 17.2098 18.6665H25.9598C27.0856 18.6665 28.0014 19.5823 28.0014 20.7083V25.9583C28.0014 27.0841 27.0856 27.9999 25.9598 27.9999ZM17.2098 20.4165C17.0487 20.4165 16.918 20.5472 16.918 20.7083V25.9583C16.918 26.1192 17.0487 26.2499 17.2098 26.2499H25.9598C26.1206 26.2499 26.2514 26.1192 26.2514 25.9583V20.7083C26.2514 20.5472 26.1206 20.4165 25.9598 20.4165H17.2098Z" fill="#20446C"/>
<path d="M25.9598 16.3334H17.2098C16.0838 16.3334 15.168 15.4176 15.168 14.2916V2.0416C15.168 0.915802 16.0838 0 17.2098 0H25.9598C27.0856 0 28.0014 0.915802 28.0014 2.0416V14.2916C28.0014 15.4176 27.0856 16.3334 25.9598 16.3334ZM17.2098 1.75C17.0487 1.75 16.918 1.88074 16.918 2.0416V14.2916C16.918 14.4527 17.0487 14.5834 17.2098 14.5834H25.9598C26.1206 14.5834 26.2514 14.4527 26.2514 14.2916V2.0416C26.2514 1.88074 26.1206 1.75 25.9598 1.75H17.2098Z" fill="#20446C"/>
</g>
<defs>
<clipPath id="clip0_834_51493">
<rect width="28" height="28" fill="white"/>
</clipPath>
</defs>
</svg>
