<svg width="14" height="14" viewBox="0 0 14 14" fill="none" xmlns="http://www.w3.org/2000/svg">
<path d="M8.73173 13.9999C8.68044 13.9999 8.62976 13.9887 8.58322 13.9671C8.53668 13.9456 8.49538 13.9141 8.4622 13.875L7.69895 12.9723C7.14432 13.0377 6.58324 13.0251 6.03212 12.9347L5.22798 13.8021C5.17811 13.8559 5.11266 13.8929 5.04078 13.9077C4.96889 13.9226 4.89417 13.9146 4.82703 13.885L3.38223 13.2474C3.31506 13.2176 3.25878 13.1677 3.22118 13.1046C3.18359 13.0414 3.16652 12.9682 3.17236 12.8949L3.27067 11.717C2.83266 11.3704 2.44526 10.9643 2.1197 10.5104L0.937792 10.5557C0.864865 10.5582 0.792931 10.5383 0.731559 10.4988C0.670187 10.4594 0.622291 10.4021 0.594268 10.3347L0.0243001 8.8629C-0.00254568 8.7944 -0.00727696 8.71921 0.010749 8.64787C0.028775 8.57653 0.0686583 8.51263 0.124821 8.46512L1.02837 7.70159C0.962565 7.14682 0.97483 6.58556 1.06482 6.0342L0.198833 5.22979C0.144747 5.17981 0.107669 5.11414 0.0928106 5.042C0.0779518 4.96986 0.0860585 4.89488 0.115989 4.82758L0.752229 3.3834C0.782043 3.31601 0.832095 3.25958 0.895439 3.22196C0.958784 3.18434 1.03227 3.16738 1.10569 3.17346L2.28318 3.2718C2.62894 2.8334 3.03461 2.44581 3.48827 2.12043L3.4441 0.938122C3.44091 0.865169 3.46045 0.793025 3.50003 0.731664C3.5396 0.670303 3.59726 0.622751 3.66501 0.59558L5.13631 0.0243172C5.20479 -0.00253778 5.27995 -0.00728417 5.35127 0.010748C5.42258 0.0287802 5.48646 0.0686839 5.53396 0.124866L6.29833 1.02873C6.85291 0.962927 7.41397 0.975196 7.96514 1.06519L8.76818 0.198903C8.81814 0.144799 8.88378 0.107708 8.95589 0.0928445C9.02801 0.0779806 9.10297 0.08609 9.17025 0.116031L10.615 0.75249C10.6822 0.782487 10.7384 0.832633 10.7758 0.895985C10.8132 0.959337 10.83 1.03275 10.8238 1.10607L10.7255 2.28396C11.1638 2.63012 11.5516 3.03588 11.8776 3.48947L13.0584 3.44528C13.1313 3.44283 13.2032 3.46266 13.2646 3.50214C13.326 3.54162 13.3739 3.59888 13.4019 3.66627L13.973 5.13807C13.9994 5.20673 14.0038 5.2819 13.9855 5.35317C13.9673 5.42444 13.9274 5.48829 13.8713 5.53586L12.9689 6.3005C13.0343 6.85532 13.0217 7.41658 12.9314 7.96788L13.7984 8.77119C13.8523 8.82135 13.8891 8.88702 13.904 8.95908C13.9188 9.03114 13.9109 9.10604 13.8813 9.17339L13.2439 10.6187C13.2147 10.6862 13.1649 10.7427 13.1016 10.7802C13.0383 10.8177 12.9648 10.8343 12.8916 10.8275L11.7141 10.7292C11.3679 11.1672 10.9623 11.5547 10.509 11.8806L10.5543 13.0618C10.5575 13.1349 10.538 13.2072 10.4985 13.2687C10.4589 13.3303 10.4012 13.378 10.3334 13.4054L8.86206 13.9767C8.82036 13.9922 8.77622 14 8.73173 13.9999ZM7.89998 12.4529L8.7737 13.4872L10.0627 12.9866L10.0119 11.633L10.1224 11.5568C10.615 11.22 11.0493 10.805 11.4081 10.3281L11.4899 10.2176L12.8375 10.3281L13.3964 9.0629L12.4023 8.14246L12.4277 8.00987C12.5375 7.42298 12.5509 6.8221 12.4674 6.23088L12.4487 6.09719L13.4814 5.22205L12.9822 3.93256L11.629 3.9845L11.5528 3.87401C11.2162 3.38121 10.8013 2.94676 10.3245 2.58783L10.2141 2.50716L10.3245 1.15801L9.05979 0.600004L8.13967 1.59447L8.00712 1.56905C7.42037 1.45954 6.81969 1.44648 6.22874 1.53038L6.09509 1.54916L5.22026 0.51492L3.93121 1.01546L3.98313 2.36794L3.87267 2.44528C3.38033 2.78197 2.94607 3.1966 2.58694 3.6729L2.50631 3.7834L1.1576 3.6729L0.599797 4.93918L1.59392 5.85851L1.56961 5.99221C1.45921 6.57867 1.44578 7.17928 1.52985 7.77009L1.54863 7.9049L0.514742 8.77892L1.01512 10.0684L2.36713 10.0176L2.44444 10.1281C2.78158 10.6202 3.19685 11.0539 3.67384 11.412L3.7843 11.4938L3.67384 12.8419L4.93969 13.401L5.85871 12.4065L5.99236 12.4319C6.57868 12.5418 7.17899 12.5552 7.76963 12.4717L7.89998 12.4529ZM7.0384 11.0463C6.38945 11.0457 5.75006 10.8899 5.17359 10.5918C4.59713 10.2936 4.10031 9.86186 3.72465 9.33251C3.70601 9.30617 3.69275 9.27642 3.6856 9.24496C3.67846 9.21349 3.67758 9.18092 3.68301 9.14912C3.68845 9.11731 3.70008 9.08688 3.71727 9.05957C3.73446 9.03227 3.75687 9.00862 3.7832 8.98997C3.80952 8.97133 3.83926 8.95805 3.87072 8.95091C3.90218 8.94376 3.93474 8.94287 3.96653 8.94831C3.99833 8.95375 4.02874 8.9654 4.05604 8.9826C4.08333 8.99979 4.10697 9.0222 4.12561 9.04853C4.58045 9.69109 5.23509 10.165 5.98741 10.3963C6.73974 10.6276 7.54744 10.6033 8.28453 10.3273C9.02162 10.0512 9.64664 9.53884 10.0621 8.87014C10.4775 8.20143 10.6601 7.41398 10.5812 6.63061C10.5023 5.84724 10.1665 5.11202 9.62605 4.53963C9.08562 3.96723 8.37102 3.58986 7.59369 3.46638C6.81637 3.34289 6.02006 3.48025 5.32896 3.857C4.63787 4.23376 4.09085 4.82874 3.77326 5.54912C3.67053 5.78147 3.59278 6.02408 3.5413 6.27287C3.53477 6.30443 3.52209 6.3344 3.50399 6.36106C3.48589 6.38772 3.4627 6.41055 3.43578 6.42825C3.40885 6.44595 3.37871 6.45816 3.34707 6.46421C3.31542 6.47025 3.2829 6.47001 3.25135 6.46348C3.2198 6.45695 3.18984 6.44427 3.16319 6.42616C3.13654 6.40805 3.11371 6.38486 3.09601 6.35793C3.07832 6.331 3.06611 6.30084 3.06007 6.26918C3.05402 6.23753 3.05427 6.20499 3.0608 6.17343C3.11957 5.89099 3.20768 5.61546 3.32369 5.35134C3.61928 4.68478 4.08922 4.11038 4.68393 3.6887C5.27864 3.26703 5.97607 3.01372 6.70269 2.95547C7.42931 2.89723 8.15817 3.03622 8.81242 3.35778C9.46666 3.67934 10.022 4.17157 10.42 4.78253C10.8179 5.39349 11.0436 6.10055 11.0733 6.82914C11.1031 7.55773 10.9357 8.28085 10.5889 8.92222C10.2421 9.5636 9.72866 10.0995 9.1028 10.4733C8.47694 10.8471 7.76183 11.0451 7.03288 11.0463H7.0384Z" fill="#90B9E7"/>
</svg>
