<svg width="51" height="91" viewBox="0 0 51 91" fill="none" xmlns="http://www.w3.org/2000/svg">
<path d="M49.7918 77.7364C49.7617 79.3955 49.0839 80.9769 47.9032 82.1429C46.7226 83.3088 45.1328 83.9668 43.4735 83.9762H15.9331C14.2724 83.9657 12.6813 83.308 11.498 82.1428C10.3146 80.9776 9.63241 79.3968 9.59634 77.7364L8.61416 14.4377C8.59942 13.6234 8.74713 12.8143 9.04867 12.0577C9.35021 11.3011 9.79953 10.6123 10.3704 10.0313C10.9412 9.45036 11.6221 8.98902 12.3733 8.67424C13.1244 8.35946 13.9308 8.19756 14.7453 8.198L44.4534 8.198C45.2686 8.19792 46.0757 8.35992 46.8277 8.67459C47.5798 8.98926 48.2617 9.45031 48.834 10.0309C49.4062 10.6116 49.8573 11.3002 50.161 12.0567C50.4647 12.8132 50.6149 13.6226 50.603 14.4377L49.7918 77.7364Z" fill="#D2D2D2"/>
<path d="M45.893 84.0523C45.858 85.8998 45.1023 87.6604 43.7871 88.9583C42.4719 90.2563 40.7014 90.9887 38.8536 90.9992H8.16799C6.3168 90.9906 4.54207 90.2598 3.22168 88.9623C1.90129 87.6647 1.13953 85.9031 1.0986 84.0523L0.000865553 12.7529C-0.0592208 8.93277 3.01674 8.90966 6.83454 8.90966L39.9421 8.90966C43.6513 8.90966 46.9584 3.76303 46.7966 15.8566L45.893 84.0523Z" fill="#424242"/>
<path d="M49.7914 65.2194C49.7612 66.8785 49.0834 68.4599 47.9028 69.6259C46.7222 70.7918 45.1323 71.4498 43.473 71.4592L15.9327 71.4592C14.272 71.4487 12.6809 70.791 11.4975 69.6258C10.3142 68.4606 9.63196 66.8798 9.59589 65.2194L8.78472 13.0159C8.66427 13.5136 8.60682 14.0245 8.61371 14.5366L9.59589 77.8352C9.63196 79.4956 10.3142 81.0764 11.4975 82.2416C12.6809 83.4068 14.272 84.0645 15.9327 84.075H43.473C45.1323 84.0656 46.7222 83.4076 47.9028 82.2417C49.0834 81.0758 49.7612 79.4943 49.7914 77.8352L50.6025 14.5389C50.6079 14.0727 50.5598 13.6075 50.4592 13.1523L49.7914 65.2194Z" fill="#D9D6D6"/>
<path d="M27.131 83.9736L43.4722 81.6464C44.9284 81.645 46.3387 81.1368 47.461 80.2089L48.427 9.66985C47.3181 8.72546 45.9087 8.20757 44.4521 8.20929L29.2387 8.20929C28.6632 27.0302 27.5678 63.6551 27.131 83.9736Z" fill="#20446C"/>
<path d="M45.893 77.4742C45.8575 79.3213 45.1015 81.0813 43.7863 82.3788C42.4712 83.6762 40.7011 84.4083 38.8537 84.4188H8.16802C6.31722 84.4103 4.54283 83.6797 3.2225 82.3827C1.90217 81.0857 1.14016 79.3246 1.09863 77.4742L0.000900161 6.95132C-0.0138168 6.04451 0.152056 5.14384 0.488856 4.30177C0.825656 3.45969 1.32665 2.69305 1.96266 2.04651C2.59866 1.39997 3.35696 0.886441 4.19339 0.535848C5.02981 0.185255 5.92764 0.00460369 6.83457 0.0044165L39.9422 0.0044165C40.85 0.00464406 41.7488 0.185169 42.5864 0.535513C43.424 0.885858 44.1836 1.39905 44.8213 2.0453C45.4589 2.69156 45.9619 3.45802 46.301 4.3002C46.6401 5.14238 46.8086 6.04352 46.7966 6.95132L45.893 77.4742Z" fill="#FFFEFE"/>
<path d="M39.9414 0.00442391L6.84307 0.00442391C5.66377 0.0033676 4.50438 0.308346 3.47824 0.889543L4.25012 69.7416C4.27787 71.353 4.93521 72.8895 6.08149 74.0224C7.22777 75.1553 8.77193 75.7946 10.3835 75.8034H36.3709C37.9812 75.7951 39.5239 75.1555 40.6678 74.0221C41.8116 72.8886 42.4652 71.3517 42.4882 69.7416L43.0913 0.771679C42.1185 0.266019 41.0379 0.00280589 39.9414 0.00442391Z" fill="#FFD9C9"/>
<path d="M36.3672 11.7847C36.672 11.7847 36.9739 11.845 37.2553 11.9621C37.5368 12.0793 37.7923 12.251 38.0071 12.4673C38.2219 12.6836 38.3918 12.9403 38.507 13.2225C38.6221 13.5048 38.6803 13.807 38.6782 14.1119L38.1698 67.353C38.1565 67.9682 37.9038 68.5539 37.4652 68.9855C37.0267 69.4171 36.4371 69.6606 35.8218 69.664H10.8906C10.2748 69.6606 9.68468 69.4173 9.24542 68.9858C8.80616 68.5543 8.55237 67.9686 8.53795 67.353L7.89087 14.1211C7.88873 13.8163 7.94693 13.514 8.06212 13.2318C8.1773 12.9495 8.34719 12.6928 8.562 12.4765C8.77681 12.2602 9.0323 12.0885 9.31374 11.9714C9.59519 11.8542 9.89703 11.7939 10.2019 11.7939L36.3672 11.7847Z" fill="#20446C"/>
<path d="M45.8922 77.4736C45.8566 79.3206 45.1006 81.0807 43.7855 82.3781C42.4704 83.6755 40.7002 84.4076 38.8528 84.4181H8.16719C6.31639 84.4096 4.542 83.679 3.22167 82.382C1.90134 81.085 1.13932 79.3239 1.0978 77.4736L0.0763305 11.6674C0.0240093 12.0271 -0.00148259 12.3901 6.65671e-05 12.7536L1.0978 84.053C1.13868 85.9022 1.89916 87.6625 3.21757 88.9598C4.53598 90.257 6.30836 90.9889 8.15795 90.9999H38.8528C40.7006 90.9894 42.4711 90.257 43.7863 88.9591C45.1015 87.6611 45.8572 85.9005 45.8922 84.053L46.7958 15.8573C46.7965 15.5296 46.7749 15.2022 46.7311 14.8774L45.8922 77.4736Z" fill="#20446C"/>
<path opacity="0.1" d="M6.84307 0.00442391C5.66377 0.0033676 4.50438 0.308346 3.47824 0.889543L4.08603 56.5087C13.344 48.4202 30.4917 33.7244 42.9111 23.0637L43.0844 0.771679C42.1115 0.266019 41.0309 0.00280589 39.9345 0.00442391L6.84307 0.00442391Z" fill="#D08364"/>
<path d="M20.3498 78.0917C20.774 78.0953 21.1799 78.2654 21.4799 78.5654C21.7799 78.8654 21.95 79.2713 21.9536 79.6955V80.2756C21.9494 80.6994 21.779 81.1047 21.4791 81.4042C21.1791 81.7037 20.7736 81.8735 20.3498 81.8771H17.2045C16.7811 81.8729 16.3761 81.7028 16.0767 81.4034C15.7773 81.1039 15.6072 80.699 15.603 80.2756V79.6955C15.6066 79.2717 15.7764 78.8662 16.0759 78.5662C16.3754 78.2663 16.7807 78.0959 17.2045 78.0917H20.3498ZM20.3498 77.5208H17.2045C16.6279 77.5215 16.0751 77.7508 15.6675 78.1585C15.2598 78.5662 15.0304 79.1189 15.0298 79.6955V80.2756C15.0311 80.8517 15.2606 81.4039 15.6683 81.8111C16.0759 82.2183 16.6283 82.4473 17.2045 82.4479H20.3498C20.926 82.4473 21.4784 82.2183 21.886 81.8111C22.2937 81.4039 22.5232 80.8517 22.5245 80.2756V79.6955C22.5238 79.1189 22.2945 78.5662 21.8868 78.1585C21.4791 77.7508 20.9264 77.5215 20.3498 77.5208Z" fill="#D6D6D5"/>
<path d="M20.3521 78.092H17.2045C16.32 78.092 15.603 78.8091 15.603 79.6936V80.2736C15.603 81.1581 16.32 81.8752 17.2045 81.8752H20.3521C21.2366 81.8752 21.9537 81.1581 21.9537 80.2736V79.6936C21.9537 78.8091 21.2366 78.092 20.3521 78.092Z" fill="#FFD6C6"/>
<path d="M39.6181 77.7534C39.814 77.7515 40.0084 77.7888 40.1897 77.8632C40.371 77.9375 40.5356 78.0473 40.6738 78.1862C40.8121 78.3251 40.9211 78.4902 40.9946 78.6719C41.0681 78.8535 41.1045 79.048 41.1017 79.244V79.8217C41.0948 80.2551 40.9275 80.6704 40.6321 80.9876C40.3367 81.3047 39.9343 81.5011 39.5025 81.5388L36.348 81.7699H36.2347C36.0388 81.7718 35.8445 81.7344 35.6632 81.6601C35.4819 81.5858 35.3172 81.4759 35.179 81.3371C35.0408 81.1982 34.9317 81.033 34.8582 80.8514C34.7847 80.6697 34.7483 80.4752 34.7511 80.2793V79.6992C34.7574 79.2661 34.9243 78.8507 35.2193 78.5335C35.5143 78.2163 35.9165 78.0199 36.348 77.9821L39.5025 77.751H39.6181V77.7534ZM39.6181 77.1779H39.4632L36.3087 77.409C35.7331 77.4583 35.1962 77.7196 34.8025 78.1424C34.4088 78.5652 34.1862 79.1192 34.1779 79.6969V80.277C34.1749 80.5482 34.2259 80.8172 34.3281 81.0684C34.4303 81.3196 34.5817 81.5479 34.7732 81.7399C34.9648 81.9318 35.1927 82.0837 35.4437 82.1864C35.6946 82.2892 35.9636 82.3409 36.2347 82.3384H36.3896L39.5441 82.1073C40.1195 82.058 40.6561 81.7966 41.0495 81.3737C41.4428 80.9509 41.6649 80.3969 41.6726 79.8194V79.2417C41.6763 78.9704 41.6257 78.7011 41.5239 78.4497C41.4221 78.1982 41.2711 77.9696 41.0797 77.7774C40.8883 77.5851 40.6604 77.4331 40.4094 77.3301C40.1584 77.2272 39.8893 77.1754 39.6181 77.1779Z" fill="#D6D6D5"/>
<path d="M41.1037 79.8135C41.0968 80.2468 40.9295 80.6622 40.6341 80.9794C40.3387 81.2965 39.9363 81.4929 39.5045 81.5306L36.35 81.7617C36.1453 81.7791 35.9391 81.7535 35.7449 81.6865C35.5507 81.6195 35.3726 81.5126 35.2222 81.3726C35.0718 81.2326 34.9524 81.0627 34.8715 80.8738C34.7907 80.6849 34.7504 80.4812 34.7531 80.2757V79.6956C34.7594 79.2625 34.9263 78.8472 35.2213 78.53C35.5163 78.2128 35.9184 78.0163 36.35 77.9786L39.5045 77.7475C39.7095 77.73 39.9159 77.7557 40.1105 77.8228C40.305 77.89 40.4833 77.9971 40.6339 78.1372C40.7845 78.2774 40.9042 78.4476 40.9851 78.6368C41.066 78.826 41.1064 79.03 41.1037 79.2358V79.8135Z" fill="#FFD6C6"/>
<path d="M11.1759 82.0504C11.1319 82.0504 11.0857 82.0504 11.0395 82.0504L7.88497 81.8193C7.3813 81.7758 6.91178 81.5467 6.56756 81.1764C6.22335 80.8061 6.02902 80.3212 6.02229 79.8157V79.2379C6.01921 79.0045 6.06276 78.7727 6.1504 78.5563C6.23804 78.3399 6.368 78.1432 6.53266 77.9777C6.69733 77.8122 6.89337 77.6812 7.10932 77.5924C7.32526 77.5036 7.55675 77.4589 7.79022 77.4607C7.83564 77.4584 7.88115 77.4584 7.92657 77.4607L11.0811 77.6918C11.585 77.7353 12.0548 77.9644 12.3994 78.3346C12.744 78.7048 12.9388 79.1898 12.9461 79.6955V80.2756C12.9489 80.509 12.905 80.7407 12.8171 80.957C12.7292 81.1733 12.599 81.3698 12.4341 81.5351C12.2692 81.7004 12.073 81.8312 11.8569 81.9196C11.6409 82.0081 11.4093 82.0526 11.1759 82.0504Z" fill="#FFE0D5"/>
<path d="M7.80006 77.751H7.91561L11.0701 77.9821C11.5019 78.0198 11.9043 78.2162 12.1997 78.5334C12.4951 78.8505 12.6624 79.2659 12.6694 79.6992V80.2793C12.6718 80.4751 12.6352 80.6695 12.5616 80.851C12.488 81.0325 12.3789 81.1975 12.2407 81.3363C12.1026 81.4752 11.9381 81.585 11.7569 81.6595C11.5757 81.7339 11.3815 81.7715 11.1857 81.7699H11.0701L7.91561 81.5388C7.48386 81.5011 7.0814 81.3047 6.78602 80.9876C6.49065 80.6704 6.32332 80.2551 6.31639 79.8217V79.244C6.31329 79.0478 6.34949 78.8531 6.42284 78.6711C6.49619 78.4892 6.60521 78.3238 6.74348 78.1847C6.88174 78.0456 7.04646 77.9355 7.22792 77.8611C7.40938 77.7866 7.60391 77.7492 7.80006 77.751ZM7.80006 77.1779C7.52878 77.1754 7.25975 77.2272 7.00876 77.3301C6.75776 77.4331 6.52987 77.5851 6.33848 77.7774C6.14708 77.9696 5.99604 78.1982 5.89422 78.4497C5.7924 78.7011 5.74186 78.9704 5.74556 79.2416V79.8194C5.75321 80.3969 5.9753 80.9509 6.36867 81.3737C6.76205 81.7966 7.29859 82.058 7.87401 82.1073L11.0309 82.3384H11.1857C11.4568 82.3409 11.7256 82.2892 11.9764 82.1864C12.2273 82.0836 12.4551 81.9317 12.6464 81.7397C12.8378 81.5477 12.9889 81.3194 13.0909 81.0682C13.1928 80.8171 13.2436 80.548 13.2402 80.277V79.6969C13.2325 79.1194 13.0104 78.5654 12.6171 78.1426C12.2237 77.7198 11.6872 77.4583 11.1117 77.409L7.9572 77.1779H7.80006Z" fill="#D6D6D5"/>
<path d="M20.3561 77.8639H17.2085C16.324 77.8639 15.6069 78.5809 15.6069 79.4654V79.8144C15.6069 80.6989 16.324 81.4159 17.2085 81.4159H20.3561C21.2406 81.4159 21.9576 80.6989 21.9576 79.8144V79.4654C21.9576 78.5809 21.2406 77.8639 20.3561 77.8639Z" fill="#FFF2ED"/>
<path d="M29.9169 78.0917C30.3408 78.0959 30.746 78.2663 31.0455 78.5662C31.345 78.8662 31.5148 79.2717 31.5184 79.6955V80.2756C31.5142 80.699 31.3442 81.1039 31.0447 81.4034C30.7453 81.7028 30.3404 81.8729 29.9169 81.8771H26.7693C26.3459 81.8729 25.941 81.7028 25.6415 81.4034C25.3421 81.1039 25.172 80.699 25.1678 80.2756V79.6955C25.1714 79.2717 25.3412 78.8662 25.6407 78.5662C25.9402 78.2663 26.3455 78.0959 26.7693 78.0917H29.9169ZM29.9169 77.5208H26.7693C26.1931 77.5221 25.641 77.7516 25.2338 78.1593C24.8266 78.5669 24.5976 79.1193 24.597 79.6955V80.2756C24.5976 80.8515 24.8266 81.4037 25.2339 81.811C25.6412 82.2183 26.1934 82.4473 26.7693 82.4479H29.9169C30.4931 82.4473 31.0455 82.2183 31.4531 81.8111C31.8608 81.4039 32.0904 80.8517 32.0916 80.2756V79.6955C32.091 79.1189 31.8617 78.5662 31.454 78.1585C31.0463 77.7508 30.4935 77.5215 29.9169 77.5208Z" fill="#D6D6D5"/>
<path d="M29.9173 78.092H26.7697C25.8852 78.092 25.1682 78.8091 25.1682 79.6936V80.2736C25.1682 81.1581 25.8852 81.8752 26.7697 81.8752H29.9173C30.8018 81.8752 31.5188 81.1581 31.5188 80.2736V79.6936C31.5188 78.8091 30.8018 78.092 29.9173 78.092Z" fill="#FFD6C6"/>
<path d="M29.9173 77.8639H26.7697C25.8852 77.8639 25.1682 78.5809 25.1682 79.4654V79.8144C25.1682 80.6989 25.8852 81.4159 26.7697 81.4159H29.9173C30.8018 81.4159 31.5188 80.6989 31.5188 79.8144V79.4654C31.5188 78.5809 30.8018 77.8639 29.9173 77.8639Z" fill="#FFF2ED"/>
<path d="M41.1037 79.3544C41.0968 79.7879 40.9296 80.2036 40.6343 80.5211C40.3389 80.8387 39.9365 81.0355 39.5045 81.0738L36.35 81.3049C36.1453 81.3223 35.9391 81.2967 35.7449 81.2297C35.5507 81.1627 35.3726 81.0557 35.2222 80.9158C35.0718 80.7758 34.9524 80.6059 34.8715 80.417C34.7907 80.2281 34.7504 80.0243 34.7531 79.8189V79.4699C34.7594 79.0368 34.9263 78.6214 35.2213 78.3042C35.5163 77.987 35.9184 77.7906 36.35 77.7528L39.5045 77.5217C39.7095 77.5043 39.9159 77.53 40.1105 77.5971C40.305 77.6642 40.4833 77.7713 40.6339 77.9115C40.7845 78.0517 40.9042 78.2219 40.9851 78.411C41.066 78.6002 41.1064 78.8043 41.1037 79.01V79.3544Z" fill="#FFF2ED"/>
<path d="M12.6539 79.8167C12.6567 80.0224 12.6162 80.2263 12.5353 80.4154C12.4544 80.6045 12.3347 80.7745 12.184 80.9145C12.0333 81.0545 11.855 81.1614 11.6605 81.2283C11.466 81.2951 11.2596 81.3205 11.0547 81.3027L7.90019 81.0716C7.46844 81.0339 7.06598 80.8375 6.77061 80.5204C6.47523 80.2032 6.3079 79.7878 6.30097 79.3545V79.0079C6.29865 78.8022 6.33931 78.5983 6.42035 78.4093C6.50139 78.2203 6.62101 78.0503 6.77156 77.9102C6.92212 77.7701 7.10028 77.663 7.29463 77.5957C7.48898 77.5284 7.69524 77.5025 7.90019 77.5196L11.0547 77.7507C11.4865 77.7883 11.8889 77.9847 12.1843 78.3019C12.4797 78.619 12.647 79.0344 12.6539 79.4677V79.8167Z" fill="#FFF2ED"/>
<path d="M18.4302 66.5276C18.4296 66.8069 18.3184 67.0745 18.1209 67.272C17.9234 67.4695 17.6557 67.5808 17.3764 67.5814H11.2337C10.954 67.5814 10.6857 67.4704 10.4877 67.2729C10.2897 67.0753 10.1782 66.8073 10.1776 66.5276V62.4995C10.1776 62.2194 10.2888 61.9507 10.4869 61.7527C10.685 61.5546 10.9536 61.4433 11.2337 61.4433H17.3718C17.5107 61.443 17.6482 61.4701 17.7766 61.523C17.905 61.576 18.0217 61.6537 18.1201 61.7518C18.2184 61.8499 18.2964 61.9665 18.3496 62.0948C18.4028 62.223 18.4302 62.3606 18.4302 62.4995V66.5276Z" fill="#FDCDAE"/>
<path d="M27.6753 66.5275C27.6747 66.8073 27.5631 67.0753 27.3651 67.2729C27.1671 67.4704 26.8989 67.5814 26.6192 67.5814H20.4903C20.2109 67.5814 19.9428 67.4703 19.7452 67.2727C19.5476 67.0751 19.4365 66.807 19.4365 66.5275V62.4995C19.4362 62.3609 19.4633 62.2236 19.5161 62.0955C19.5689 61.9673 19.6465 61.8509 19.7444 61.7528C19.8422 61.6547 19.9585 61.5769 20.0865 61.5238C20.2145 61.4707 20.3518 61.4433 20.4903 61.4433H26.6284C26.9067 61.4464 27.1726 61.5589 27.3686 61.7566C27.5645 61.9542 27.6747 62.2211 27.6753 62.4995V66.5275Z" fill="white"/>
<path d="M36.9385 66.5251C36.9379 66.8044 36.8267 67.0721 36.6292 67.2696C36.4317 67.4671 36.164 67.5783 35.8847 67.5789H29.7536C29.4739 67.5789 29.2056 67.468 29.0076 67.2704C28.8096 67.0728 28.698 66.8048 28.6974 66.5251V62.497C28.6974 62.2169 28.8087 61.9483 29.0068 61.7502C29.2048 61.5521 29.4735 61.4409 29.7536 61.4409H35.8916C36.1713 61.4415 36.4394 61.553 36.6369 61.751C36.8345 61.949 36.9454 62.2173 36.9454 62.497L36.9385 66.5251Z" fill="#FDCDAE"/>
<path d="M18.4302 59.191C18.4296 59.4705 18.3185 59.7385 18.121 59.9363C17.9236 60.1342 17.6559 60.2459 17.3764 60.2472H11.2337C10.9538 60.2466 10.6855 60.1351 10.4876 59.9372C10.2897 59.7392 10.1782 59.4709 10.1776 59.191V55.1514C10.1776 54.8713 10.2888 54.6026 10.4869 54.4046C10.685 54.2065 10.9536 54.0952 11.2337 54.0952H17.3718C17.5107 54.0949 17.6482 54.122 17.7766 54.175C17.905 54.2279 18.0217 54.3057 18.1201 54.4038C18.2184 54.5019 18.2964 54.6184 18.3496 54.7467C18.4028 54.875 18.4302 55.0125 18.4302 55.1514V59.191Z" fill="white"/>
<path d="M27.6753 59.191C27.6747 59.4709 27.5632 59.7392 27.3653 59.9372C27.1674 60.1351 26.8991 60.2466 26.6192 60.2472L20.4903 60.2472C20.2106 60.2466 19.9426 60.135 19.745 59.937C19.5475 59.739 19.4365 59.4707 19.4365 59.191V55.1514C19.4362 55.0128 19.4633 54.8755 19.5161 54.7474C19.5689 54.6193 19.6465 54.5028 19.7444 54.4047C19.8422 54.3066 19.9585 54.2288 20.0865 54.1757C20.2145 54.1226 20.3518 54.0952 20.4903 54.0952H26.6284C26.9067 54.0983 27.1726 54.2108 27.3686 54.4085C27.5645 54.6062 27.6747 54.8731 27.6753 55.1514V59.191Z" fill="white"/>
<path d="M36.9405 59.191C36.9399 59.4705 36.8287 59.7385 36.6313 59.9363C36.4338 60.1342 36.1662 60.2459 35.8866 60.2472L29.7555 60.2472C29.4756 60.2466 29.2073 60.1351 29.0094 59.9372C28.8115 59.7392 28.7 59.4709 28.6994 59.191V55.1514C28.6994 54.8713 28.8107 54.6026 29.0087 54.4046C29.2068 54.2065 29.4754 54.0952 29.7555 54.0952H35.8936C36.1733 54.0959 36.4413 54.2074 36.6389 54.4054C36.8364 54.6034 36.9474 54.8717 36.9474 55.1514L36.9405 59.191Z" fill="white"/>
<path d="M18.4302 51.8542C18.4296 52.1335 18.3184 52.4012 18.1209 52.5987C17.9234 52.7962 17.6557 52.9075 17.3764 52.9081L11.2337 52.9081C10.954 52.9081 10.6857 52.7971 10.4877 52.5995C10.2897 52.402 10.1782 52.1339 10.1776 51.8542V47.8146C10.1773 47.6758 10.2044 47.5383 10.2574 47.4101C10.3103 47.2818 10.3881 47.1652 10.4862 47.0671C10.5844 46.969 10.7009 46.8912 10.8292 46.8382C10.9575 46.7853 11.0949 46.7582 11.2337 46.7585H17.3718C17.6515 46.7591 17.9195 46.8706 18.1171 47.0686C18.3146 47.2666 18.4256 47.5349 18.4256 47.8146L18.4302 51.8542Z" fill="white"/>
<path d="M27.6753 51.8542C27.6747 52.1339 27.5631 52.402 27.3651 52.5995C27.1672 52.7971 26.8989 52.9081 26.6192 52.9081L20.4904 52.9081C20.2109 52.9081 19.9428 52.797 19.7452 52.5994C19.5476 52.4018 19.4365 52.1337 19.4365 51.8542V47.8146C19.4359 47.6759 19.4627 47.5385 19.5155 47.4102C19.5682 47.282 19.6457 47.1654 19.7437 47.0672C19.8416 46.9691 19.958 46.8913 20.0862 46.8383C20.2143 46.7853 20.3517 46.7582 20.4904 46.7585L26.6284 46.7585C26.9085 46.7585 27.1771 46.8697 27.3752 47.0678C27.5733 47.2659 27.6845 47.5345 27.6845 47.8146L27.6753 51.8542Z" fill="white"/>
<path d="M36.9385 51.8542C36.9379 52.1335 36.8267 52.4012 36.6292 52.5987C36.4317 52.7962 36.164 52.9075 35.8847 52.9081L29.7536 52.9081C29.4739 52.9081 29.2056 52.7971 29.0076 52.5995C28.8096 52.402 28.698 52.1339 28.6974 51.8542V47.8146C28.6971 47.6758 28.7242 47.5383 28.7772 47.4101C28.8302 47.2818 28.908 47.1652 29.0061 47.0671C29.1042 46.969 29.2208 46.8912 29.349 46.8382C29.4773 46.7853 29.6148 46.7582 29.7536 46.7585H35.8916C36.1713 46.7591 36.4394 46.8706 36.6369 47.0686C36.8345 47.2666 36.9454 47.5349 36.9454 47.8146L36.9385 51.8542Z" fill="white"/>
<path d="M18.4302 44.517C18.4296 44.7965 18.3185 45.0644 18.121 45.2623C17.9236 45.4601 17.6559 45.5719 17.3764 45.5731L11.2337 45.5731C10.9538 45.5725 10.6855 45.461 10.4876 45.2631C10.2897 45.0652 10.1782 44.7969 10.1776 44.517V40.4773C10.1776 40.1972 10.2888 39.9286 10.4869 39.7305C10.685 39.5324 10.9536 39.4212 11.2337 39.4212H17.3718C17.6513 39.4212 17.9193 39.5322 18.1169 39.7298C18.3146 39.9275 18.4256 40.1955 18.4256 40.475L18.4302 44.517Z" fill="white"/>
<path d="M27.6753 44.5171C27.6747 44.797 27.5632 45.0653 27.3653 45.2632C27.1674 45.4612 26.8991 45.5726 26.6192 45.5732H20.4903C20.2106 45.5726 19.9426 45.4611 19.745 45.2631C19.5475 45.0651 19.4365 44.7968 19.4365 44.5171V40.4775C19.4362 40.339 19.4633 40.2018 19.5161 40.0738C19.569 39.9458 19.6466 39.8295 19.7445 39.7316C19.8424 39.6337 19.9587 39.5561 20.0867 39.5032C20.2147 39.4504 20.3519 39.4233 20.4903 39.4236H26.6284C26.9081 39.4236 27.1764 39.5346 27.3744 39.7322C27.5724 39.9297 27.6839 40.1978 27.6845 40.4775L27.6753 44.5171Z" fill="white"/>
<path d="M36.9405 44.5171C36.9399 44.7966 36.8287 45.0646 36.6313 45.2624C36.4338 45.4603 36.1662 45.572 35.8866 45.5732H29.7555C29.4756 45.5726 29.2073 45.4612 29.0094 45.2632C28.8115 45.0653 28.7 44.797 28.6994 44.5171V40.4775C28.6994 40.3389 28.7267 40.2017 28.7798 40.0736C28.8329 39.9456 28.9108 39.8294 29.0089 39.7315C29.107 39.6336 29.2234 39.556 29.3515 39.5032C29.4797 39.4504 29.6169 39.4233 29.7555 39.4236H35.8936C36.1731 39.4236 36.4411 39.5347 36.6387 39.7323C36.8364 39.9299 36.9474 40.198 36.9474 40.4775L36.9405 44.5171Z" fill="white"/>
<path d="M36.367 11.7847L10.1901 11.7847C9.88525 11.7847 9.58341 11.845 9.30197 11.9621C9.02052 12.0793 8.76504 12.251 8.55023 12.4673C8.33542 12.6836 8.16553 12.9403 8.05034 13.2225C7.93516 13.5048 7.87696 13.807 7.87909 14.1119L8.16103 38.0887L38.4353 38.0887L38.6664 14.1119C38.6686 13.808 38.6107 13.5067 38.4963 13.2252C38.3818 12.9437 38.213 12.6875 37.9994 12.4714C37.7858 12.2552 37.5317 12.0833 37.2515 11.9655C36.9714 11.8476 36.6708 11.7862 36.367 11.7847Z" fill="white"/>
<path d="M8.18831 36.3525H38.4395L38.5065 30.7182L8.1028 30.7182L8.18831 36.3525Z" fill="#FFC8B2"/>
<path d="M36.367 11.7847L10.1901 11.7847C9.88525 11.7847 9.58341 11.845 9.30197 11.9621C9.02052 12.0793 8.76504 12.251 8.55023 12.4673C8.33542 12.6836 8.16553 12.9403 8.05034 13.2225C7.93516 13.5048 7.87696 13.807 7.87909 14.1119L7.91376 17.1486L38.6433 17.1486L38.6734 14.1119C38.6755 13.8074 38.6174 13.5055 38.5025 13.2236C38.3877 12.9416 38.2182 12.6852 38.0039 12.4689C37.7895 12.2527 37.5346 12.0809 37.2537 11.9635C36.9728 11.8461 36.6714 11.7853 36.367 11.7847Z" fill="#D9D6D6"/>
<path d="M43.0197 6.80363L43.0913 0.767266C42.1185 0.261606 41.0379 -0.00161061 39.9414 7.4147e-06L6.84307 7.4147e-06C5.66377 -0.0010489 4.50438 0.30393 3.47824 0.885126L3.57068 6.80363L43.0197 6.80363Z" fill="#EEB8A3"/>
<g opacity="0.7">
<path opacity="0.7" d="M27.5122 26.7048L26.7287 26.7048V23.095C26.4512 23.4131 26.1029 23.6616 25.7119 23.8207V22.9517C25.9664 22.8384 26.197 22.6776 26.3913 22.478C26.6181 22.2609 26.7859 21.9897 26.8789 21.6899H27.5122V26.7048Z" fill="#333330"/>
<path opacity="0.7" d="M28.9546 22.666V21.7763H31.64V22.4696C31.3704 22.8186 31.1452 23.1997 30.9698 23.6043C30.7386 24.1084 30.5627 24.6361 30.4452 25.1781C30.3293 25.6785 30.2673 26.1898 30.2603 26.7034H29.5023C29.5223 25.9824 29.6421 25.2677 29.8582 24.5795C30.0612 23.9027 30.3584 23.2578 30.741 22.6637L28.9546 22.666Z" fill="#333330"/>
<path opacity="0.7" d="M32.7469 22.666V21.7763H35.4323V22.4696C35.1627 22.8186 34.9375 23.1997 34.7621 23.6043C34.5309 24.1084 34.355 24.6361 34.2375 25.1781C34.1216 25.6785 34.0596 26.1898 34.0526 26.7034H33.2946C33.3146 25.9824 33.4344 25.2677 33.6505 24.5795C33.8535 23.9027 34.1507 23.2578 34.5333 22.6637L32.7469 22.666Z" fill="#333330"/>
</g>
<path d="M23.2833 32.6556H10.1776V34.2895H23.2833V32.6556Z" fill="white"/>
<path opacity="0.5" d="M18.4025 13.6489L10.1776 13.6489V15.2828L18.4025 15.2828V13.6489Z" fill="#AFAFAD"/>
<path opacity="0.5" d="M36.9279 13.6489H32.8489V15.2828H36.9279V13.6489Z" fill="#AFAFAD"/>
<path d="M35.8224 32.6556H25.7649V34.2895H35.8224V32.6556Z" fill="white"/>
<path d="M18.3491 73.6311V71.9741H18.7928C18.9013 71.9692 19.01 71.9777 19.1163 71.9995C19.2011 72.0268 19.2722 72.0855 19.3151 72.1636C19.366 72.2597 19.3936 72.3665 19.3956 72.4753C19.3976 72.5841 19.374 72.6919 19.3266 72.7899C19.289 72.864 19.2293 72.9246 19.1556 72.9632C19.043 73.0027 18.9235 73.0192 18.8044 73.0117H18.6241V73.6403L18.3491 73.6311ZM18.6241 72.2445V72.7182H18.7766C18.8466 72.7218 18.9167 72.7148 18.9846 72.6974C19.0221 72.6812 19.0536 72.6538 19.0747 72.6189C19.1015 72.5777 19.1144 72.5292 19.1117 72.4802C19.1124 72.4307 19.0996 72.382 19.0747 72.3392C19.0536 72.3054 19.0219 72.2794 18.9846 72.2653C18.9091 72.2466 18.8312 72.2396 18.7535 72.2445H18.6241Z" fill="#C2B59B"/>
<path d="M21.0857 73.6326H20.7876L20.6674 73.2559H20.122L20.0087 73.6326H19.7153L20.2468 71.9664H20.538L21.0857 73.6326ZM20.5796 72.974L20.3901 72.3546L20.2052 72.974H20.5796Z" fill="#C2B59B"/>
<path d="M21.789 73.6297V72.9364L21.2875 71.9727H21.6111L21.9323 72.6314L22.2489 71.9727H22.5655L22.0617 72.9387V73.632L21.789 73.6297Z" fill="#C2B59B"/>
<path d="M23.0698 73.6297V71.9727H23.4835L23.7308 73.1098L23.9781 71.9727H24.3917V73.639H24.1352V72.3263L23.8625 73.639H23.5967L23.3263 72.3263V73.639L23.0698 73.6297Z" fill="#C2B59B"/>
<path d="M25.0347 73.6297V71.9727H26.0562V72.2547H25.3189V72.6244H26.0122V72.8971H25.3189V73.3593H26.0816V73.6413L25.0347 73.6297Z" fill="#C2B59B"/>
<path d="M26.6815 73.6297V71.9727H26.9496L27.5089 73.0843V71.9727H27.7654V73.639H27.4881L26.9381 72.5528V73.639L26.6815 73.6297Z" fill="#C2B59B"/>
<path d="M28.7368 73.6297V72.2431H28.3323V71.9727H29.4162V72.2547H29.0118V73.6413L28.7368 73.6297Z" fill="#C2B59B"/>
<path d="M37.7245 86.2793H9.13725V87.2984H37.7245V86.2793Z" fill="#BDBDB9"/>
<path d="M37.7225 87.2975H9.13528V88.3144H37.7225V87.2975Z" fill="white"/>
</svg>
