<svg width="2" height="4" viewBox="0 0 2 4" fill="none" xmlns="http://www.w3.org/2000/svg">
<path opacity="0.81" d="M1.13898 3.99986C1.06952 3.99967 1.00212 3.97621 0.947541 3.93324C0.892957 3.89026 0.854327 3.83025 0.837819 3.76275L0.0110257 0.391553C9.04869e-05 0.351671 -0.00274818 0.309996 0.00267751 0.268999C0.0081032 0.228002 0.0216858 0.188507 0.0426186 0.152846C0.0635513 0.117185 0.09141 0.0860777 0.124556 0.0613645C0.157702 0.0366513 0.195462 0.0188344 0.235605 0.00895791C0.275748 -0.000918568 0.317461 -0.00264737 0.358284 0.00386708C0.399107 0.0103815 0.438211 0.025012 0.47329 0.0468922C0.508369 0.0687725 0.538714 0.097454 0.562529 0.131257C0.586344 0.16506 0.603147 0.203292 0.61195 0.243698L1.44014 3.61629C1.45948 3.69601 1.44641 3.78013 1.4038 3.85022C1.36119 3.9203 1.29252 3.9706 1.21287 3.99009C1.18879 3.99663 1.16394 3.99993 1.13898 3.99986Z" fill="white"/>
</svg>
