<svg width="27" height="30" viewBox="0 0 27 30" fill="none" xmlns="http://www.w3.org/2000/svg">
<path d="M20.9681 23.9822C19.0279 27.4792 15.3407 29.6515 11.3455 29.6515C5.28165 29.6515 0.348256 24.7181 0.348256 18.6541C0.348256 13.9601 3.27799 9.83661 7.67494 8.28457L5.69072 0.810923C5.66141 0.700336 5.68512 0.582535 5.75477 0.491974C5.82442 0.401414 5.93221 0.348256 6.04648 0.348256H16.6444C16.7586 0.348256 16.8664 0.401267 16.9362 0.491974C17.006 0.582682 17.0296 0.700336 17.0003 0.810923L15.0161 8.28486C17.2973 9.09283 19.2665 10.6478 20.5882 12.6932C20.6985 12.864 20.6496 13.0918 20.4788 13.2021C20.3083 13.3125 20.0804 13.2635 19.9698 13.0926C18.6766 11.0916 16.7198 9.59364 14.46 8.87446C14.2729 8.81497 14.1654 8.61897 14.2157 8.42917L16.1658 1.08452H11.7136V4.24205C11.7136 4.4454 11.5489 4.61018 11.3455 4.61018C11.1421 4.61018 10.9774 4.4454 10.9774 4.24205V1.08452H6.5252L8.47511 8.42917C8.52547 8.61897 8.41798 8.81497 8.23097 8.87446C3.95653 10.2346 1.08452 14.1648 1.08452 18.6541C1.08452 24.3121 5.68762 28.9152 11.3455 28.9152C15.0732 28.9152 18.5137 26.8881 20.3244 23.625C20.423 23.4471 20.647 23.3831 20.8249 23.4817C21.0026 23.5804 21.0668 23.8045 20.9681 23.9822ZM26.2891 18.3244C26.2891 20.7034 24.3536 22.6389 21.9746 22.6389C19.5956 22.6389 17.6601 20.7034 17.6601 18.3244C17.6601 15.9454 19.5956 14.0099 21.9746 14.0099C24.3536 14.0099 26.2891 15.9454 26.2891 18.3244ZM25.5528 18.3244C25.5528 16.3513 23.9476 14.7461 21.9746 14.7461C20.0016 14.7461 18.3964 16.3513 18.3964 18.3244C18.3964 20.2974 20.0016 21.9026 21.9746 21.9026C23.9476 21.9026 25.5528 20.2974 25.5528 18.3244ZM23.9524 16.8912C23.7989 16.7579 23.5663 16.7742 23.433 16.9277L21.517 19.1329L20.5545 18.0421C20.4201 17.8897 20.1874 17.8751 20.035 18.0095C19.8825 18.144 19.868 18.3766 20.0025 18.5291L21.2431 19.9352C21.313 20.0144 21.4134 20.0597 21.519 20.0597H21.5205C21.6265 20.0593 21.7274 20.0132 21.797 19.9331L23.9889 17.4105C24.1223 17.2571 24.1059 17.0246 23.9524 16.8912Z" fill="#F0792E" stroke="#F0792E" stroke-width="0.687743"/>
</svg>
