<svg width="48" height="32" viewBox="0 0 48 32" fill="none" xmlns="http://www.w3.org/2000/svg">
<path d="M47.9969 2.83797L46.563 28.0628C46.5332 28.5914 46.3063 29.0897 45.9271 29.4591C45.5479 29.8285 45.0441 30.0423 44.515 30.0583L2.73289 31.3478C2.45325 31.3563 2.1747 31.3093 1.91334 31.2094C1.65197 31.1096 1.41298 30.9589 1.21017 30.7662C1.00736 30.5734 0.844755 30.3423 0.731753 30.0863C0.618752 29.8303 0.557593 29.5544 0.551814 29.2746L0.00043203 2.16073C-0.00530442 1.87669 0.0461362 1.5944 0.151707 1.33065C0.257277 1.06691 0.414816 0.827111 0.614938 0.625527C0.815061 0.423944 1.05368 0.264698 1.31659 0.157266C1.57951 0.0498352 1.86134 -0.00358503 2.14532 0.000186666L45.9126 0.600752C46.1982 0.60475 46.48 0.666503 46.7411 0.782297C47.0022 0.89809 47.2372 1.06553 47.4319 1.27454C47.6266 1.48354 47.777 1.7298 47.8741 1.99848C47.9712 2.26716 48.013 2.55272 47.9969 2.83797Z" fill="white"/>
</svg>
