<svg width="59" height="41" viewBox="0 0 59 41" fill="none" xmlns="http://www.w3.org/2000/svg">
<path d="M3.79354 40.9275H52.1517C53.0976 40.9275 54.0095 40.5745 54.7091 39.9375C55.4087 39.3006 55.8457 38.4255 55.9345 37.4834L58.9822 5.1375C59.0314 4.61664 58.9726 4.09122 58.8094 3.59415C58.6463 3.09708 58.3823 2.63906 58.0339 2.24879C57.6856 1.85852 57.2605 1.54441 56.7852 1.32611C56.3099 1.10782 55.7946 0.990061 55.2717 0.980204L3.86601 0.00057463C3.36164 -0.00819894 2.86057 0.0835729 2.39203 0.270539C1.92348 0.457504 1.49685 0.735921 1.13699 1.08955C0.777134 1.44318 0.491268 1.86495 0.296058 2.33025C0.100849 2.79556 0.000206669 3.29508 0 3.7997V37.1263C-1.42498e-06 38.1333 0.399469 39.0992 1.11071 39.8119C1.82196 40.5246 2.78684 40.9259 3.79354 40.9275Z" fill="#20446C"/>
</svg>
