<svg width="22" height="22" viewBox="0 0 22 22" fill="none" xmlns="http://www.w3.org/2000/svg">
<path d="M21.9935 10.5711C22.0694 12.7362 21.4989 14.8751 20.354 16.7173C19.2091 18.5595 17.5414 20.0223 15.5616 20.9206C13.5819 21.819 11.379 22.1126 9.23168 21.7643C7.08433 21.416 5.08893 20.4415 3.49781 18.964C1.90669 17.4865 0.791318 15.5723 0.292739 13.4635C-0.20584 11.3548 -0.0652306 9.14616 0.696788 7.11698C1.45881 5.0878 2.80801 3.3292 4.57377 2.06357C6.33953 0.797944 8.44255 0.0821303 10.6169 0.00665646C13.5324 -0.0945453 16.3689 0.96162 18.5024 2.94282C20.6359 4.92402 21.8917 7.66798 21.9935 10.5711Z" fill="#20446C"/>
<g opacity="0.1">
<path opacity="0.1" d="M10.6161 0.00781805C7.70061 0.109204 4.94497 1.35966 2.95533 3.48411C0.965702 5.60856 -0.0949476 8.433 0.00668485 11.3361C0.00668485 11.3361 7.74821 11.4132 9.50765 8.24914C11.2671 5.08506 10.6161 0.00781805 10.6161 0.00781805Z" fill="white"/>
</g>
<path d="M19.1773 10.4939C19.2356 12.1402 18.8021 13.7666 17.9318 15.1674C17.0614 16.5682 15.7933 17.6805 14.2879 18.3634C12.7825 19.0463 11.1075 19.2692 9.47481 19.0038C7.84216 18.7385 6.32525 17.9968 5.11604 16.8727C3.90683 15.7486 3.05968 14.2926 2.6818 12.6889C2.30391 11.0852 2.41227 9.40597 2.99317 7.86363C3.57407 6.32129 4.60139 4.98521 5.94513 4.02446C7.28887 3.06371 8.88864 2.52147 10.542 2.46637C12.7556 2.3926 14.9082 3.19648 16.5272 4.70153C18.1462 6.20659 19.0993 8.28983 19.1773 10.4939Z" fill="#20446C"/>
<g opacity="0.2">
<path opacity="0.2" d="M19.1734 10.4939C19.2317 12.1402 18.7982 13.7666 17.9278 15.1674C17.0575 16.5682 15.7894 17.6805 14.284 18.3634C12.7786 19.0463 11.1036 19.2692 9.4709 19.0038C7.83825 18.7385 6.32134 17.9968 5.11213 16.8727C3.90293 15.7486 3.05578 14.2926 2.67789 12.6889C2.3 11.0852 2.40836 9.40597 2.98926 7.86363C3.57016 6.32129 4.59748 4.98521 5.94122 4.02446C7.28496 3.06371 8.88473 2.52147 10.5381 2.46637C12.7517 2.3926 14.9043 3.19648 16.5233 4.70153C18.1423 6.20659 19.0954 8.28983 19.1734 10.4939Z" fill="#20446C"/>
</g>
<path d="M19.4273 10.8343C19.484 12.4576 19.0561 14.0612 18.1977 15.4424C17.3392 16.8236 16.0887 17.9203 14.6044 18.5938C13.12 19.2674 11.4684 19.4876 9.85837 19.2266C8.24835 18.9655 6.75221 18.235 5.55912 17.1273C4.36603 16.0196 3.52957 14.5845 3.15549 13.0035C2.78142 11.4225 2.88652 9.76651 3.45753 8.24497C4.02854 6.72344 5.03981 5.40465 6.36347 4.45537C7.68712 3.50608 9.26373 2.96893 10.8939 2.91181C13.0805 2.83614 15.2076 3.6282 16.8078 5.11384C18.408 6.59948 19.3502 8.65708 19.4273 10.8343Z" fill="#F0792E"/>
<path d="M13.3875 8.84948C13.669 8.84948 13.8971 8.62551 13.8971 8.34916C13.8971 8.073 13.669 7.84884 13.3875 7.84884H9.35107C9.06957 7.84884 8.84142 8.073 8.84142 8.34916C8.84142 8.62551 9.06957 8.84948 9.35107 8.84948H10.5079C10.9863 8.8487 11.4209 9.12271 11.619 9.54994H9.35605C9.07474 9.54994 8.8464 9.77411 8.8464 10.0503C8.8464 10.3266 9.07474 10.5506 9.35605 10.5506H11.619C11.4191 10.9766 10.9855 11.2499 10.5079 11.251H9.35107C9.14203 11.2512 8.9541 11.3765 8.87666 11.5671C8.79921 11.7576 8.84779 11.9753 8.99929 12.1166L11.884 14.7934C11.9794 14.8809 12.1052 14.9292 12.2356 14.9284C12.3757 14.9276 12.5097 14.8717 12.6077 14.7734C12.7004 14.6773 12.7504 14.5489 12.7466 14.4166C12.7428 14.2843 12.6855 14.1588 12.5874 14.0679L10.6302 12.2517C11.623 12.1954 12.4603 11.5057 12.6893 10.5557H13.3875C13.669 10.5557 13.8971 10.3317 13.8971 10.0553C13.8971 9.77899 13.669 9.55502 13.3875 9.55502H12.6893C12.63 9.30583 12.5264 9.06857 12.3835 8.85457H13.3875V8.84948Z" fill="white"/>
<g opacity="0.2">
<path opacity="0.2" d="M19.4273 10.8343C19.484 12.4576 19.0561 14.0612 18.1977 15.4424C17.3392 16.8236 16.0887 17.9203 14.6044 18.5938C13.12 19.2674 11.4684 19.4876 9.85837 19.2266C8.24835 18.9655 6.75221 18.235 5.55912 17.1273C4.36603 16.0196 3.52957 14.5845 3.15549 13.0035C2.78142 11.4225 2.88652 9.76651 3.45753 8.24497C4.02854 6.72344 5.03981 5.40465 6.36347 4.45537C7.68712 3.50608 9.26373 2.96893 10.8939 2.91181C13.0805 2.83614 15.2076 3.6282 16.8078 5.11384C18.408 6.59948 19.3502 8.65708 19.4273 10.8343Z" fill="white"/>
</g>
<path d="M11.3195 19.415H11.3863L11.5834 19.3975L11.9071 19.366C12.0538 19.3559 12.1995 19.336 12.3435 19.3064L12.8889 19.2013C12.9917 19.1822 13.0929 19.1553 13.1915 19.1207L13.5188 19.0226C13.6379 18.9924 13.7553 18.9561 13.8707 18.914L14.2226 18.7668C14.3457 18.7142 14.4759 18.6687 14.5991 18.6056L14.9862 18.4024C15.5551 18.0963 16.0874 17.7272 16.5732 17.3021L16.9567 16.9342L17.1503 16.745C17.2101 16.6749 17.2664 16.6048 17.3297 16.5348C17.4459 16.3911 17.5761 16.2544 17.6816 16.1003L18.0124 15.6272L18.0969 15.5046C18.125 15.4661 18.1461 15.4205 18.1708 15.3785L18.3186 15.1192L18.4664 14.8564C18.5191 14.7688 18.5508 14.6707 18.5966 14.5796C18.6775 14.3903 18.7655 14.2046 18.8394 14.0119L19.0399 13.4127C19.2764 12.5679 19.3867 11.6931 19.3672 10.8163C19.3263 9.93966 19.1544 9.07399 18.857 8.24789C18.776 8.05167 18.6986 7.85545 18.6177 7.66273C18.5367 7.47001 18.4277 7.29481 18.3326 7.11261C18.2882 7.02127 18.2389 6.93237 18.1848 6.8463L18.0195 6.59402L17.8541 6.34524C17.8259 6.30319 17.8013 6.26114 17.7731 6.2226L17.6781 6.10697L17.3262 5.65846C17.1996 5.5148 17.0623 5.38515 16.9356 5.252L16.7421 5.05578C16.6752 4.99271 16.6049 4.93664 16.5345 4.87708L16.1298 4.52668C15.614 4.13617 15.0557 3.80471 14.4654 3.53856L14.0677 3.36336C13.9375 3.3073 13.8038 3.27577 13.6807 3.23021L13.3077 3.10757C13.1915 3.06553 13.0684 3.05151 12.9558 3.01997L12.6215 2.94639C12.5198 2.91986 12.4163 2.90112 12.3118 2.89033L11.7629 2.82375C11.6172 2.80339 11.4701 2.79402 11.323 2.79572H10.9993H10.7987H11.323C11.47 2.79135 11.617 2.79838 11.7629 2.81674L12.3153 2.87631C12.4207 2.88728 12.5253 2.90484 12.6285 2.92887L12.9804 3.00245C13.093 3.03049 13.2162 3.0445 13.3323 3.08655L13.7053 3.20568C13.832 3.24773 13.9692 3.28277 14.0994 3.33884L14.5006 3.51053C15.0958 3.77638 15.6598 4.10657 16.1826 4.49515L16.5908 4.84554L16.8019 5.02424L16.9955 5.22046C17.1257 5.35712 17.2664 5.48676 17.3931 5.63043L17.745 6.08244L17.84 6.19807L17.9244 6.32071L18.0898 6.57299L18.2587 6.82528C18.3186 6.90938 18.3573 7.00749 18.4101 7.09509C18.5051 7.27729 18.6071 7.44548 18.6986 7.64871C18.7901 7.85194 18.857 8.04115 18.9379 8.24088C19.565 9.91311 19.6293 11.743 19.1209 13.4548L18.9238 14.061C18.8464 14.2572 18.7549 14.4429 18.674 14.6321C18.6282 14.7267 18.5966 14.8248 18.5438 14.9124C18.491 15 18.4417 15.0876 18.3925 15.1752L18.2447 15.438C18.22 15.4801 18.1954 15.5256 18.1672 15.5677L18.0828 15.6903L17.7309 16.1669C17.6148 16.321 17.4846 16.4577 17.379 16.6013L17.196 16.8116L17.0025 17.0043L16.6154 17.3757C16.1224 17.8013 15.583 18.1704 15.0073 18.476L14.6202 18.6757C14.4935 18.7388 14.3633 18.7808 14.2366 18.8334L13.8848 18.9805C13.7694 19.0226 13.6519 19.0589 13.5329 19.0892L13.2021 19.1838C13.1022 19.2172 12.9998 19.243 12.896 19.2609L12.3505 19.359C12.2055 19.3871 12.0584 19.4035 11.9107 19.408L11.5869 19.4325H11.3863L11.3195 19.415Z" fill="#263238"/>
<path d="M1.82185 16.4155C1.80106 16.3896 1.78335 16.3614 1.76907 16.3314L1.62479 16.0862C1.56497 15.9811 1.49108 15.8479 1.41718 15.6867C1.34328 15.5255 1.24827 15.3538 1.17086 15.1471L1.04066 14.8282C0.994914 14.7161 0.959723 14.597 0.917496 14.4779C0.826006 14.2326 0.75915 13.9663 0.678216 13.6825C0.528452 13.0686 0.426108 12.4442 0.372077 11.8148C0.330368 11.1833 0.338606 10.5495 0.396712 9.9192C0.4319 9.63187 0.460046 9.35506 0.512829 9.10277C0.537461 8.97313 0.55506 8.85049 0.583211 8.73136C0.611362 8.61222 0.639506 8.5036 0.664138 8.38096C0.713402 8.16371 0.776742 7.9745 0.829525 7.80631C0.869497 7.66237 0.917668 7.52081 0.9738 7.38233L1.07936 7.11953C1.08787 7.08749 1.10091 7.05682 1.11807 7.02843C1.1136 7.06195 1.10534 7.09487 1.09344 7.12654L1.00547 7.39284C0.963242 7.50847 0.917495 7.65213 0.871749 7.82032C0.826004 7.98851 0.766186 8.17072 0.720441 8.39147C0.696982 8.50126 0.672353 8.61806 0.646548 8.74187C0.618397 8.8575 0.604321 8.98364 0.579689 9.10978C0.530424 9.36207 0.505797 9.63538 0.474127 9.9227C0.418538 10.5485 0.412648 11.1776 0.456526 11.8043C0.507182 12.43 0.606 13.0508 0.752109 13.6614C0.829524 13.9417 0.896381 14.208 0.980833 14.4533C1.02306 14.5725 1.05826 14.6951 1.10048 14.8037L1.22364 15.1261C1.30105 15.3328 1.38903 15.508 1.4594 15.6692C1.52978 15.8304 1.59664 15.9635 1.65294 16.0722L1.78313 16.3244C1.80099 16.3525 1.81407 16.3833 1.82185 16.4155Z" fill="white"/>
<path d="M11.275 2.22468C11.1861 2.23382 11.0965 2.23382 11.0076 2.22468H10.6909C10.5712 2.22468 10.4305 2.22468 10.2756 2.22468C10.1208 2.22468 9.95543 2.2422 9.77244 2.26323C9.58946 2.28425 9.40296 2.30878 9.20238 2.34031C8.33065 2.4899 7.48695 2.77112 6.70045 3.17426C6.52098 3.27237 6.34856 3.35997 6.19725 3.45808C6.05084 3.5408 5.90873 3.63085 5.77146 3.72788C5.64126 3.81198 5.53218 3.89607 5.41957 3.96966C5.30697 4.04324 5.24011 4.10631 5.17325 4.16237C5.10632 4.22195 5.03452 4.27586 4.9586 4.32356C5.01887 4.25741 5.08352 4.19537 5.15213 4.13785C5.21547 4.07828 5.29641 4.0082 5.39142 3.93462C5.48643 3.86103 5.59552 3.76643 5.72572 3.67883C5.85592 3.59123 5.98963 3.49312 6.14798 3.39851C6.30633 3.3039 6.47172 3.20579 6.65119 3.10768C7.04642 2.90239 7.45701 2.72783 7.87928 2.58559C8.30171 2.44512 8.73473 2.33849 9.17423 2.26673C9.37832 2.2387 9.57186 2.20716 9.75484 2.19665C9.93783 2.18614 10.1067 2.17213 10.2616 2.16862C10.4164 2.16512 10.5572 2.16862 10.6803 2.16862C10.8035 2.16862 10.909 2.16862 10.9935 2.18965C11.0881 2.19433 11.1822 2.20603 11.275 2.22468Z" fill="white"/>
<path d="M12.7043 21.2864C12.6427 21.3147 12.5776 21.3347 12.5108 21.346C12.3841 21.381 12.1976 21.4196 11.9688 21.4581C10.7591 21.6575 9.51935 21.5735 8.34788 21.2128C8.12619 21.1462 7.94673 21.0797 7.82709 21.0306C7.76348 21.0086 7.70218 20.9805 7.6441 20.9465C7.71043 20.9566 7.77538 20.9742 7.83765 20.9991C7.96081 21.0411 8.14027 21.0972 8.36548 21.1603C9.53377 21.4853 10.7567 21.5676 11.9583 21.402C12.1905 21.3705 12.377 21.339 12.5037 21.3144C12.569 21.2963 12.6365 21.2869 12.7043 21.2864Z" fill="white"/>
</svg>
