<svg width="4" height="4" viewBox="0 0 4 4" fill="none" xmlns="http://www.w3.org/2000/svg">
<path opacity="0.8" d="M1.97716 0.000774763C0.941242 0.032013 0.0465287 0.963724 0.00172505 2.08423C-0.0430786 3.20473 0.790538 4.07261 1.84003 3.99519C2.86644 3.92049 3.70956 2.97384 3.74079 1.89137C3.77202 0.808893 2.98999 -0.0291053 1.97716 0.000774763ZM1.87669 2.92087C1.392 2.95075 1.00913 2.55144 1.02814 2.03126C1.03386 1.7851 1.13008 1.54969 1.2984 1.37004C1.46671 1.19038 1.69531 1.07909 1.9405 1.05744C2.05503 1.05454 2.16889 1.07584 2.27464 1.11995C2.38039 1.16406 2.47564 1.22999 2.55418 1.31343C2.63272 1.39688 2.69279 1.49596 2.73046 1.6042C2.76812 1.71245 2.78253 1.82742 2.77276 1.94162C2.76783 2.18633 2.67381 2.42085 2.50833 2.60114C2.34285 2.78143 2.11729 2.89512 1.87397 2.92087H1.87669Z" fill="white"/>
</svg>
