<svg width="4" height="4" viewBox="0 0 4 4" fill="none" xmlns="http://www.w3.org/2000/svg">
<path opacity="0.81" d="M2.00044 3.99978C1.83024 3.99965 1.66074 3.97801 1.49596 3.93539C1.00415 3.80742 0.57952 3.49692 0.308376 3.06698C0.037232 2.63705 -0.0600725 2.11996 0.0362457 1.62084C0.132564 1.12171 0.415276 0.678003 0.826908 0.379919C1.23854 0.0818347 1.7482 -0.0482543 2.25228 0.0160935C2.75636 0.0804414 3.21702 0.334395 3.54063 0.726335C3.86424 1.11828 4.0265 1.61879 3.99443 2.12612C3.96236 2.63344 3.73836 3.10951 3.36797 3.45755C2.99759 3.80559 2.50861 3.99947 2.00044 3.99978ZM2.00044 0.984727C1.74224 0.985117 1.49388 1.08383 1.30582 1.26081C1.11776 1.43779 1.00411 1.67975 0.98797 1.93754C0.971833 2.19532 1.05441 2.44958 1.21893 2.64865C1.38345 2.84772 1.61757 2.97666 1.8737 3.00927C2.12983 3.04188 2.38877 2.97571 2.59789 2.82421C2.80701 2.67272 2.95063 2.44726 2.99955 2.19365C3.04848 1.94004 2.99905 1.67731 2.8613 1.45885C2.72355 1.24039 2.50782 1.08259 2.25795 1.01752C2.17366 0.997234 2.08712 0.987784 2.00044 0.989408V0.984727Z" fill="white"/>
</svg>
