<svg width="24" height="24" viewBox="0 0 24 24" fill="none" xmlns="http://www.w3.org/2000/svg">
<g clip-path="url(#clip0_67490_16747)">
<mask id="path-1-outside-1_67490_16747" maskUnits="userSpaceOnUse" x="-1" y="-1" width="26" height="26" fill="black">
<rect fill="white" x="-1" y="-1" width="26" height="26"/>
<path d="M22.8 10.8H21.9732C21.9473 10.3699 21.8907 9.94211 21.804 9.52V9.5144C21.738 9.2172 21.6624 8.9544 21.5868 8.692C21.4699 8.31343 21.3764 7.92804 21.3068 7.538C21.2305 7.02897 21.1948 6.51469 21.2 6C21.1805 5.08821 21.3105 4.17938 21.5848 3.3096C21.8792 2.36846 22.0194 1.38591 22 0.4C22 0.179086 21.8209 0 21.6 0H11.2C10.9791 0 10.8 0.179086 10.8 0.4C10.8195 1.31179 10.6895 2.22062 10.4152 3.0904C10.1208 4.03154 9.98062 5.01409 10 6C9.99487 6.55663 10.0341 7.11279 10.1172 7.6632C10.1284 7.7324 10.1468 7.8008 10.16 7.8696C8.7272 8.1072 8.0208 9.4844 7.9756 9.5772C7.9756 9.5828 7.7652 10.1092 7.3936 10.8224C6.70156 12.0354 5.78419 13.1052 4.6908 13.974L1.4148 13.378C1.06446 13.3143 0.703901 13.4094 0.430627 13.6377C0.157353 13.866 -0.000409084 14.2039 7.96706e-07 14.56V22.8C7.96706e-07 23.4627 0.537259 24 1.2 24C1.27322 23.9999 1.34629 23.9935 1.4184 23.9808L7.24 22.8H11.2C15.9664 22.8 19.6108 22.4092 19.6232 22.4076C20.1343 22.38 20.6175 22.1654 20.9808 21.8048C21.3476 21.4425 21.5643 20.9551 21.5876 20.44C21.6013 20.1932 21.5459 19.9475 21.4276 19.7304C22.0295 19.3743 22.399 18.7273 22.4 18.028V17.928C22.4003 17.5633 22.2689 17.2107 22.03 16.9352C22.1933 16.8427 22.3435 16.7289 22.4768 16.5968C22.863 16.205 23.0786 15.6765 23.0768 15.1264C23.0791 14.7957 22.9722 14.4734 22.7728 14.2096C23.4375 13.7923 23.8843 13.1028 23.9936 12.3256C24.0344 12.06 23.9992 11.7884 23.892 11.542C23.6996 11.1064 23.2758 10.8185 22.8 10.8ZM11.1848 3.3096C11.4399 2.49679 11.5779 1.65175 11.5944 0.8H21.1944C21.1781 1.57763 21.0505 2.34893 20.8156 3.0904C20.5211 4.03152 20.3808 5.01407 20.4 6C20.3949 6.55744 20.4342 7.11441 20.5176 7.6656C20.5915 8.08684 20.6915 8.5031 20.8168 8.912C20.888 9.1584 20.9588 9.4052 21.0212 9.684C21.0967 10.0522 21.1472 10.425 21.1724 10.8H20.3284C20.3148 10.5904 20.2992 10.4 20.2884 10.256C20.2729 10.0595 20.242 9.86448 20.196 9.6728C20.1824 9.6104 20.1632 9.544 20.1484 9.4968C20.116 9.3744 20.0832 9.2568 20.0468 9.13C19.7318 8.1172 19.5809 7.06049 19.6 6C19.5818 5.08872 19.6904 4.17934 19.9228 3.298C19.9536 3.18147 19.9302 3.05727 19.8591 2.95994C19.788 2.86261 19.6768 2.80253 19.5564 2.7964C19.1322 2.77527 18.7993 2.42476 18.8 2C18.8 1.77909 18.6209 1.6 18.4 1.6H14C13.7791 1.6 13.6 1.77909 13.6 2C13.6 2.44183 13.2418 2.8 12.8 2.8C12.7287 2.80074 12.6578 2.79048 12.5896 2.7696C12.485 2.73742 12.3717 2.74954 12.2762 2.80313C12.1808 2.85672 12.1114 2.9471 12.0844 3.0532C12.0416 3.2216 11.998 3.378 11.956 3.528C11.699 4.32609 11.5787 5.16184 11.6 6C11.5785 6.83609 11.6983 7.66981 11.9544 8.466L11.9824 8.5688C12.0748 8.902 12.1696 9.2464 12.2472 9.6768C12.2704 9.794 12.2892 9.924 12.3072 10.0488C12.3072 10.0532 12.3472 10.3716 12.3728 10.8H11.5728C11.5464 10.3675 11.4892 9.93752 11.4016 9.5132C11.3352 9.2148 11.2592 8.9532 11.1832 8.688C11.1328 8.5132 11.0828 8.3364 11.0348 8.1496C11.0324 8.1384 11.0292 8.1284 11.0264 8.1176C10.9764 7.9212 10.9372 7.7308 10.9064 7.5368C10.8303 7.02816 10.7947 6.51428 10.8 6C10.7805 5.08821 10.9105 4.17938 11.1848 3.3096ZM18.764 10.8C18.5699 9.6457 17.5705 8.80038 16.4 8.80038C15.2295 8.80038 14.2301 9.6457 14.036 10.8H13.1744C13.1464 10.324 13.1032 9.968 13.1 9.9436C13.0788 9.7964 13.06 9.6536 13.0336 9.5288C12.9504 9.0688 12.846 8.6888 12.7536 8.356L12.724 8.2484C12.4888 7.52284 12.3792 6.76244 12.4 6C12.3793 5.23658 12.4892 4.47524 12.7248 3.7488C12.7388 3.6996 12.7528 3.65 12.7648 3.5996C13.5069 3.61515 14.1622 3.11831 14.3476 2.3996H18.0488C18.1808 2.90887 18.5546 3.32073 19.0488 3.5012C18.8713 4.322 18.7879 5.16033 18.8 6C18.781 7.13515 18.9415 8.26617 19.2756 9.3512C19.3108 9.4712 19.342 9.586 19.3776 9.718C19.3912 9.758 19.404 9.8052 19.4176 9.8576C19.4542 10.0121 19.4788 10.1693 19.4912 10.3276C19.5024 10.4556 19.5164 10.6176 19.5284 10.8H18.764ZM17.9492 10.8H14.8508C15.0332 10.0936 15.6704 9.59997 16.4 9.59997C17.1296 9.59997 17.7668 10.0936 17.9492 10.8ZM1.2696 23.194C1.15313 23.2146 1.03351 23.1826 0.942901 23.1065C0.85229 23.0305 0.799971 22.9183 0.800001 22.8V14.56C0.799983 14.4414 0.852621 14.3289 0.943696 14.2528C1.03477 14.1768 1.15489 14.1452 1.2716 14.1664L4.4872 14.7512L6.6908 22.0964L1.2696 23.194ZM23.2 12.2236C23.1272 12.7864 22.6352 13.604 22.0288 13.604H21.5888L17.6 13.6C17.3791 13.6 17.2 13.7791 17.2 14C17.2 14.2209 17.3791 14.4 17.6 14.4L21.5804 14.404C21.971 14.4145 22.2809 14.7365 22.2764 15.1272C22.281 15.4686 22.1469 15.7972 21.9048 16.038C21.6628 16.2787 21.3334 16.4109 20.992 16.4044L20.868 16.4084C20.8607 16.4096 20.8535 16.4112 20.8464 16.4132C20.8312 16.4091 20.8157 16.406 20.8 16.404H17.6C17.3791 16.404 17.2 16.5831 17.2 16.804C17.2 17.0249 17.3791 17.204 17.6 17.204H20.8C20.8108 17.204 20.8196 17.1988 20.83 17.198C20.8465 17.2023 20.8631 17.2057 20.88 17.208C21.2776 17.208 21.6 17.5304 21.6 17.928V18.028C21.6006 18.5902 21.2035 19.0743 20.652 19.1836H20.65C20.5676 19.1987 20.4838 19.2054 20.4 19.2036H18C17.7791 19.2036 17.6 19.3827 17.6 19.6036C17.6 19.8245 17.7791 20.0036 18 20.0036H20.4C20.404 20.0036 20.4076 20.0012 20.412 20.0012C20.4164 20.0012 20.4196 20.0036 20.424 20.0036C20.4879 20.0008 20.5515 19.9948 20.6148 19.9856C20.7353 20.0882 20.7998 20.2421 20.7884 20.4C20.7745 20.7155 20.6419 21.0141 20.4172 21.236C20.1878 21.4623 19.8824 21.5952 19.5604 21.6088C19.5248 21.6128 15.9204 21.9988 11.2004 21.9988H7.4976L5.2612 14.546C6.41186 13.6184 7.37564 12.4804 8.1012 11.1928C8.4908 10.4452 8.7048 9.9024 8.7048 9.9024C8.7104 9.8908 9.2684 8.7972 10.3404 8.6488C10.3648 8.7368 10.39 8.8232 10.4144 8.9092C10.4864 9.158 10.5576 9.406 10.6192 9.6812C10.6957 10.052 10.7465 10.4277 10.7712 10.8056C10.5561 10.8191 10.391 11.0015 10.3988 11.2168C10.4066 11.4322 10.5845 11.6021 10.8 11.6H22.8C22.9615 11.6216 23.0998 11.7266 23.164 11.8764C23.2067 11.9869 23.2191 12.1067 23.2 12.2236Z"/>
</mask>
<path d="M22.8 10.8H21.9732C21.9473 10.3699 21.8907 9.94211 21.804 9.52V9.5144C21.738 9.2172 21.6624 8.9544 21.5868 8.692C21.4699 8.31343 21.3764 7.92804 21.3068 7.538C21.2305 7.02897 21.1948 6.51469 21.2 6C21.1805 5.08821 21.3105 4.17938 21.5848 3.3096C21.8792 2.36846 22.0194 1.38591 22 0.4C22 0.179086 21.8209 0 21.6 0H11.2C10.9791 0 10.8 0.179086 10.8 0.4C10.8195 1.31179 10.6895 2.22062 10.4152 3.0904C10.1208 4.03154 9.98062 5.01409 10 6C9.99487 6.55663 10.0341 7.11279 10.1172 7.6632C10.1284 7.7324 10.1468 7.8008 10.16 7.8696C8.7272 8.1072 8.0208 9.4844 7.9756 9.5772C7.9756 9.5828 7.7652 10.1092 7.3936 10.8224C6.70156 12.0354 5.78419 13.1052 4.6908 13.974L1.4148 13.378C1.06446 13.3143 0.703901 13.4094 0.430627 13.6377C0.157353 13.866 -0.000409084 14.2039 7.96706e-07 14.56V22.8C7.96706e-07 23.4627 0.537259 24 1.2 24C1.27322 23.9999 1.34629 23.9935 1.4184 23.9808L7.24 22.8H11.2C15.9664 22.8 19.6108 22.4092 19.6232 22.4076C20.1343 22.38 20.6175 22.1654 20.9808 21.8048C21.3476 21.4425 21.5643 20.9551 21.5876 20.44C21.6013 20.1932 21.5459 19.9475 21.4276 19.7304C22.0295 19.3743 22.399 18.7273 22.4 18.028V17.928C22.4003 17.5633 22.2689 17.2107 22.03 16.9352C22.1933 16.8427 22.3435 16.7289 22.4768 16.5968C22.863 16.205 23.0786 15.6765 23.0768 15.1264C23.0791 14.7957 22.9722 14.4734 22.7728 14.2096C23.4375 13.7923 23.8843 13.1028 23.9936 12.3256C24.0344 12.06 23.9992 11.7884 23.892 11.542C23.6996 11.1064 23.2758 10.8185 22.8 10.8ZM11.1848 3.3096C11.4399 2.49679 11.5779 1.65175 11.5944 0.8H21.1944C21.1781 1.57763 21.0505 2.34893 20.8156 3.0904C20.5211 4.03152 20.3808 5.01407 20.4 6C20.3949 6.55744 20.4342 7.11441 20.5176 7.6656C20.5915 8.08684 20.6915 8.5031 20.8168 8.912C20.888 9.1584 20.9588 9.4052 21.0212 9.684C21.0967 10.0522 21.1472 10.425 21.1724 10.8H20.3284C20.3148 10.5904 20.2992 10.4 20.2884 10.256C20.2729 10.0595 20.242 9.86448 20.196 9.6728C20.1824 9.6104 20.1632 9.544 20.1484 9.4968C20.116 9.3744 20.0832 9.2568 20.0468 9.13C19.7318 8.1172 19.5809 7.06049 19.6 6C19.5818 5.08872 19.6904 4.17934 19.9228 3.298C19.9536 3.18147 19.9302 3.05727 19.8591 2.95994C19.788 2.86261 19.6768 2.80253 19.5564 2.7964C19.1322 2.77527 18.7993 2.42476 18.8 2C18.8 1.77909 18.6209 1.6 18.4 1.6H14C13.7791 1.6 13.6 1.77909 13.6 2C13.6 2.44183 13.2418 2.8 12.8 2.8C12.7287 2.80074 12.6578 2.79048 12.5896 2.7696C12.485 2.73742 12.3717 2.74954 12.2762 2.80313C12.1808 2.85672 12.1114 2.9471 12.0844 3.0532C12.0416 3.2216 11.998 3.378 11.956 3.528C11.699 4.32609 11.5787 5.16184 11.6 6C11.5785 6.83609 11.6983 7.66981 11.9544 8.466L11.9824 8.5688C12.0748 8.902 12.1696 9.2464 12.2472 9.6768C12.2704 9.794 12.2892 9.924 12.3072 10.0488C12.3072 10.0532 12.3472 10.3716 12.3728 10.8H11.5728C11.5464 10.3675 11.4892 9.93752 11.4016 9.5132C11.3352 9.2148 11.2592 8.9532 11.1832 8.688C11.1328 8.5132 11.0828 8.3364 11.0348 8.1496C11.0324 8.1384 11.0292 8.1284 11.0264 8.1176C10.9764 7.9212 10.9372 7.7308 10.9064 7.5368C10.8303 7.02816 10.7947 6.51428 10.8 6C10.7805 5.08821 10.9105 4.17938 11.1848 3.3096ZM18.764 10.8C18.5699 9.6457 17.5705 8.80038 16.4 8.80038C15.2295 8.80038 14.2301 9.6457 14.036 10.8H13.1744C13.1464 10.324 13.1032 9.968 13.1 9.9436C13.0788 9.7964 13.06 9.6536 13.0336 9.5288C12.9504 9.0688 12.846 8.6888 12.7536 8.356L12.724 8.2484C12.4888 7.52284 12.3792 6.76244 12.4 6C12.3793 5.23658 12.4892 4.47524 12.7248 3.7488C12.7388 3.6996 12.7528 3.65 12.7648 3.5996C13.5069 3.61515 14.1622 3.11831 14.3476 2.3996H18.0488C18.1808 2.90887 18.5546 3.32073 19.0488 3.5012C18.8713 4.322 18.7879 5.16033 18.8 6C18.781 7.13515 18.9415 8.26617 19.2756 9.3512C19.3108 9.4712 19.342 9.586 19.3776 9.718C19.3912 9.758 19.404 9.8052 19.4176 9.8576C19.4542 10.0121 19.4788 10.1693 19.4912 10.3276C19.5024 10.4556 19.5164 10.6176 19.5284 10.8H18.764ZM17.9492 10.8H14.8508C15.0332 10.0936 15.6704 9.59997 16.4 9.59997C17.1296 9.59997 17.7668 10.0936 17.9492 10.8ZM1.2696 23.194C1.15313 23.2146 1.03351 23.1826 0.942901 23.1065C0.85229 23.0305 0.799971 22.9183 0.800001 22.8V14.56C0.799983 14.4414 0.852621 14.3289 0.943696 14.2528C1.03477 14.1768 1.15489 14.1452 1.2716 14.1664L4.4872 14.7512L6.6908 22.0964L1.2696 23.194ZM23.2 12.2236C23.1272 12.7864 22.6352 13.604 22.0288 13.604H21.5888L17.6 13.6C17.3791 13.6 17.2 13.7791 17.2 14C17.2 14.2209 17.3791 14.4 17.6 14.4L21.5804 14.404C21.971 14.4145 22.2809 14.7365 22.2764 15.1272C22.281 15.4686 22.1469 15.7972 21.9048 16.038C21.6628 16.2787 21.3334 16.4109 20.992 16.4044L20.868 16.4084C20.8607 16.4096 20.8535 16.4112 20.8464 16.4132C20.8312 16.4091 20.8157 16.406 20.8 16.404H17.6C17.3791 16.404 17.2 16.5831 17.2 16.804C17.2 17.0249 17.3791 17.204 17.6 17.204H20.8C20.8108 17.204 20.8196 17.1988 20.83 17.198C20.8465 17.2023 20.8631 17.2057 20.88 17.208C21.2776 17.208 21.6 17.5304 21.6 17.928V18.028C21.6006 18.5902 21.2035 19.0743 20.652 19.1836H20.65C20.5676 19.1987 20.4838 19.2054 20.4 19.2036H18C17.7791 19.2036 17.6 19.3827 17.6 19.6036C17.6 19.8245 17.7791 20.0036 18 20.0036H20.4C20.404 20.0036 20.4076 20.0012 20.412 20.0012C20.4164 20.0012 20.4196 20.0036 20.424 20.0036C20.4879 20.0008 20.5515 19.9948 20.6148 19.9856C20.7353 20.0882 20.7998 20.2421 20.7884 20.4C20.7745 20.7155 20.6419 21.0141 20.4172 21.236C20.1878 21.4623 19.8824 21.5952 19.5604 21.6088C19.5248 21.6128 15.9204 21.9988 11.2004 21.9988H7.4976L5.2612 14.546C6.41186 13.6184 7.37564 12.4804 8.1012 11.1928C8.4908 10.4452 8.7048 9.9024 8.7048 9.9024C8.7104 9.8908 9.2684 8.7972 10.3404 8.6488C10.3648 8.7368 10.39 8.8232 10.4144 8.9092C10.4864 9.158 10.5576 9.406 10.6192 9.6812C10.6957 10.052 10.7465 10.4277 10.7712 10.8056C10.5561 10.8191 10.391 11.0015 10.3988 11.2168C10.4066 11.4322 10.5845 11.6021 10.8 11.6H22.8C22.9615 11.6216 23.0998 11.7266 23.164 11.8764C23.2067 11.9869 23.2191 12.1067 23.2 12.2236Z" fill="#20446C"/>
<path d="M22.8 10.8H21.9732C21.9473 10.3699 21.8907 9.94211 21.804 9.52V9.5144C21.738 9.2172 21.6624 8.9544 21.5868 8.692C21.4699 8.31343 21.3764 7.92804 21.3068 7.538C21.2305 7.02897 21.1948 6.51469 21.2 6C21.1805 5.08821 21.3105 4.17938 21.5848 3.3096C21.8792 2.36846 22.0194 1.38591 22 0.4C22 0.179086 21.8209 0 21.6 0H11.2C10.9791 0 10.8 0.179086 10.8 0.4C10.8195 1.31179 10.6895 2.22062 10.4152 3.0904C10.1208 4.03154 9.98062 5.01409 10 6C9.99487 6.55663 10.0341 7.11279 10.1172 7.6632C10.1284 7.7324 10.1468 7.8008 10.16 7.8696C8.7272 8.1072 8.0208 9.4844 7.9756 9.5772C7.9756 9.5828 7.7652 10.1092 7.3936 10.8224C6.70156 12.0354 5.78419 13.1052 4.6908 13.974L1.4148 13.378C1.06446 13.3143 0.703901 13.4094 0.430627 13.6377C0.157353 13.866 -0.000409084 14.2039 7.96706e-07 14.56V22.8C7.96706e-07 23.4627 0.537259 24 1.2 24C1.27322 23.9999 1.34629 23.9935 1.4184 23.9808L7.24 22.8H11.2C15.9664 22.8 19.6108 22.4092 19.6232 22.4076C20.1343 22.38 20.6175 22.1654 20.9808 21.8048C21.3476 21.4425 21.5643 20.9551 21.5876 20.44C21.6013 20.1932 21.5459 19.9475 21.4276 19.7304C22.0295 19.3743 22.399 18.7273 22.4 18.028V17.928C22.4003 17.5633 22.2689 17.2107 22.03 16.9352C22.1933 16.8427 22.3435 16.7289 22.4768 16.5968C22.863 16.205 23.0786 15.6765 23.0768 15.1264C23.0791 14.7957 22.9722 14.4734 22.7728 14.2096C23.4375 13.7923 23.8843 13.1028 23.9936 12.3256C24.0344 12.06 23.9992 11.7884 23.892 11.542C23.6996 11.1064 23.2758 10.8185 22.8 10.8ZM11.1848 3.3096C11.4399 2.49679 11.5779 1.65175 11.5944 0.8H21.1944C21.1781 1.57763 21.0505 2.34893 20.8156 3.0904C20.5211 4.03152 20.3808 5.01407 20.4 6C20.3949 6.55744 20.4342 7.11441 20.5176 7.6656C20.5915 8.08684 20.6915 8.5031 20.8168 8.912C20.888 9.1584 20.9588 9.4052 21.0212 9.684C21.0967 10.0522 21.1472 10.425 21.1724 10.8H20.3284C20.3148 10.5904 20.2992 10.4 20.2884 10.256C20.2729 10.0595 20.242 9.86448 20.196 9.6728C20.1824 9.6104 20.1632 9.544 20.1484 9.4968C20.116 9.3744 20.0832 9.2568 20.0468 9.13C19.7318 8.1172 19.5809 7.06049 19.6 6C19.5818 5.08872 19.6904 4.17934 19.9228 3.298C19.9536 3.18147 19.9302 3.05727 19.8591 2.95994C19.788 2.86261 19.6768 2.80253 19.5564 2.7964C19.1322 2.77527 18.7993 2.42476 18.8 2C18.8 1.77909 18.6209 1.6 18.4 1.6H14C13.7791 1.6 13.6 1.77909 13.6 2C13.6 2.44183 13.2418 2.8 12.8 2.8C12.7287 2.80074 12.6578 2.79048 12.5896 2.7696C12.485 2.73742 12.3717 2.74954 12.2762 2.80313C12.1808 2.85672 12.1114 2.9471 12.0844 3.0532C12.0416 3.2216 11.998 3.378 11.956 3.528C11.699 4.32609 11.5787 5.16184 11.6 6C11.5785 6.83609 11.6983 7.66981 11.9544 8.466L11.9824 8.5688C12.0748 8.902 12.1696 9.2464 12.2472 9.6768C12.2704 9.794 12.2892 9.924 12.3072 10.0488C12.3072 10.0532 12.3472 10.3716 12.3728 10.8H11.5728C11.5464 10.3675 11.4892 9.93752 11.4016 9.5132C11.3352 9.2148 11.2592 8.9532 11.1832 8.688C11.1328 8.5132 11.0828 8.3364 11.0348 8.1496C11.0324 8.1384 11.0292 8.1284 11.0264 8.1176C10.9764 7.9212 10.9372 7.7308 10.9064 7.5368C10.8303 7.02816 10.7947 6.51428 10.8 6C10.7805 5.08821 10.9105 4.17938 11.1848 3.3096ZM18.764 10.8C18.5699 9.6457 17.5705 8.80038 16.4 8.80038C15.2295 8.80038 14.2301 9.6457 14.036 10.8H13.1744C13.1464 10.324 13.1032 9.968 13.1 9.9436C13.0788 9.7964 13.06 9.6536 13.0336 9.5288C12.9504 9.0688 12.846 8.6888 12.7536 8.356L12.724 8.2484C12.4888 7.52284 12.3792 6.76244 12.4 6C12.3793 5.23658 12.4892 4.47524 12.7248 3.7488C12.7388 3.6996 12.7528 3.65 12.7648 3.5996C13.5069 3.61515 14.1622 3.11831 14.3476 2.3996H18.0488C18.1808 2.90887 18.5546 3.32073 19.0488 3.5012C18.8713 4.322 18.7879 5.16033 18.8 6C18.781 7.13515 18.9415 8.26617 19.2756 9.3512C19.3108 9.4712 19.342 9.586 19.3776 9.718C19.3912 9.758 19.404 9.8052 19.4176 9.8576C19.4542 10.0121 19.4788 10.1693 19.4912 10.3276C19.5024 10.4556 19.5164 10.6176 19.5284 10.8H18.764ZM17.9492 10.8H14.8508C15.0332 10.0936 15.6704 9.59997 16.4 9.59997C17.1296 9.59997 17.7668 10.0936 17.9492 10.8ZM1.2696 23.194C1.15313 23.2146 1.03351 23.1826 0.942901 23.1065C0.85229 23.0305 0.799971 22.9183 0.800001 22.8V14.56C0.799983 14.4414 0.852621 14.3289 0.943696 14.2528C1.03477 14.1768 1.15489 14.1452 1.2716 14.1664L4.4872 14.7512L6.6908 22.0964L1.2696 23.194ZM23.2 12.2236C23.1272 12.7864 22.6352 13.604 22.0288 13.604H21.5888L17.6 13.6C17.3791 13.6 17.2 13.7791 17.2 14C17.2 14.2209 17.3791 14.4 17.6 14.4L21.5804 14.404C21.971 14.4145 22.2809 14.7365 22.2764 15.1272C22.281 15.4686 22.1469 15.7972 21.9048 16.038C21.6628 16.2787 21.3334 16.4109 20.992 16.4044L20.868 16.4084C20.8607 16.4096 20.8535 16.4112 20.8464 16.4132C20.8312 16.4091 20.8157 16.406 20.8 16.404H17.6C17.3791 16.404 17.2 16.5831 17.2 16.804C17.2 17.0249 17.3791 17.204 17.6 17.204H20.8C20.8108 17.204 20.8196 17.1988 20.83 17.198C20.8465 17.2023 20.8631 17.2057 20.88 17.208C21.2776 17.208 21.6 17.5304 21.6 17.928V18.028C21.6006 18.5902 21.2035 19.0743 20.652 19.1836H20.65C20.5676 19.1987 20.4838 19.2054 20.4 19.2036H18C17.7791 19.2036 17.6 19.3827 17.6 19.6036C17.6 19.8245 17.7791 20.0036 18 20.0036H20.4C20.404 20.0036 20.4076 20.0012 20.412 20.0012C20.4164 20.0012 20.4196 20.0036 20.424 20.0036C20.4879 20.0008 20.5515 19.9948 20.6148 19.9856C20.7353 20.0882 20.7998 20.2421 20.7884 20.4C20.7745 20.7155 20.6419 21.0141 20.4172 21.236C20.1878 21.4623 19.8824 21.5952 19.5604 21.6088C19.5248 21.6128 15.9204 21.9988 11.2004 21.9988H7.4976L5.2612 14.546C6.41186 13.6184 7.37564 12.4804 8.1012 11.1928C8.4908 10.4452 8.7048 9.9024 8.7048 9.9024C8.7104 9.8908 9.2684 8.7972 10.3404 8.6488C10.3648 8.7368 10.39 8.8232 10.4144 8.9092C10.4864 9.158 10.5576 9.406 10.6192 9.6812C10.6957 10.052 10.7465 10.4277 10.7712 10.8056C10.5561 10.8191 10.391 11.0015 10.3988 11.2168C10.4066 11.4322 10.5845 11.6021 10.8 11.6H22.8C22.9615 11.6216 23.0998 11.7266 23.164 11.8764C23.2067 11.9869 23.2191 12.1067 23.2 12.2236Z" stroke="#20446C" stroke-width="0.4" mask="url(#path-1-outside-1_67490_16747)"/>
<path d="M15.6007 4.3999C14.7171 4.3999 14.0007 5.11625 14.0007 5.9999C14.0007 6.88356 14.7171 7.5999 15.6007 7.5999C16.4844 7.5999 17.2007 6.88356 17.2007 5.9999C17.2007 5.57556 17.0322 5.16859 16.7321 4.86853C16.4321 4.56847 16.0251 4.3999 15.6007 4.3999ZM15.6007 6.7999C15.1589 6.7999 14.8007 6.44173 14.8007 5.9999C14.8007 5.55807 15.1589 5.1999 15.6007 5.1999C16.0426 5.1999 16.4007 5.55807 16.4007 5.9999C16.4007 6.44173 16.0426 6.7999 15.6007 6.7999ZM7.69435 17.0851L7.57435 16.6851C7.51095 16.4735 7.28798 16.3533 7.07635 16.4167C6.86471 16.4801 6.74455 16.7031 6.80795 16.9147L6.92795 17.3147C6.97866 17.484 7.13444 17.5999 7.31115 17.5999C7.35002 17.5998 7.38868 17.5942 7.42595 17.5831C7.52758 17.5527 7.61296 17.4831 7.6633 17.3897C7.71363 17.2963 7.7248 17.1867 7.69435 17.0851ZM10.3863 20.3863C9.96715 20.4011 9.45915 20.4023 8.99755 20.3951C8.8257 20.3961 8.67269 20.2865 8.61835 20.1235L8.17355 18.6835C8.10838 18.4724 7.88443 18.3541 7.67335 18.4193C7.46226 18.4845 7.34398 18.7084 7.40915 18.9195L7.85435 20.3595C8.01015 20.8538 8.46688 21.1913 8.98515 21.1951C9.16875 21.1999 9.36075 21.1999 9.55195 21.1999C9.86075 21.1999 10.1491 21.1951 10.4151 21.1855C10.5212 21.1817 10.6214 21.136 10.6937 21.0584C10.766 20.9807 10.8045 20.8775 10.8007 20.7715C10.7991 20.6647 10.7539 20.5632 10.6757 20.4905C10.5975 20.4178 10.493 20.3802 10.3863 20.3863ZM12.3663 20.3263L11.9663 20.3639C11.7454 20.3731 11.5738 20.5596 11.5829 20.7805C11.5921 21.0014 11.7786 21.1731 11.9995 21.1639C12.0109 21.1645 12.0222 21.1645 12.0335 21.1639L12.4335 21.1267C12.6537 21.1077 12.8167 20.9138 12.7977 20.6937C12.7787 20.4736 12.5849 20.3105 12.3647 20.3295L12.3663 20.3263Z" fill="#F0792E"/>
</g>
<defs>
<clipPath id="clip0_67490_16747">
<rect width="24" height="24" fill="white"/>
</clipPath>
</defs>
</svg>
