<svg width="32" height="26" viewBox="0 0 32 26" fill="none" xmlns="http://www.w3.org/2000/svg">
<g opacity="0.8">
<path d="M17.0644 12.7979C17.0648 13.0471 16.9781 13.2886 16.8191 13.4804L11.4866 19.8793C11.3056 20.0971 11.0455 20.2341 10.7635 20.2601C10.4815 20.2861 10.2007 20.199 9.98289 20.018C9.76509 19.837 9.62813 19.5768 9.60213 19.2948C9.57613 19.0128 9.66322 18.732 9.84424 18.5142L14.6221 12.7979L10.0149 7.08151C9.92629 6.97242 9.86014 6.8469 9.82022 6.71216C9.7803 6.57742 9.7674 6.43612 9.78226 6.29638C9.79713 6.15664 9.83947 6.02121 9.90684 5.89789C9.97421 5.77456 10.0653 5.66577 10.1749 5.57776C10.2845 5.48009 10.4132 5.40612 10.5527 5.36048C10.6923 5.31484 10.8398 5.29852 10.986 5.31254C11.1322 5.32656 11.2739 5.37061 11.4022 5.44194C11.5306 5.51327 11.6428 5.61034 11.7319 5.72707L16.8831 12.126C17.0169 12.3234 17.0808 12.5599 17.0644 12.7979Z" fill="#92140C"/>
</g>
<g opacity="0.8">
<path d="M23.4687 12.7979C23.4692 13.0471 23.3824 13.2886 23.2234 13.4804L17.891 19.8793C17.71 20.0971 17.4499 20.2341 17.1678 20.2601C16.8858 20.2861 16.6051 20.199 16.3873 20.018C16.1695 19.837 16.0325 19.5768 16.0065 19.2948C15.9805 19.0128 16.0676 18.732 16.2486 18.5142L21.0265 12.7979L16.4193 7.08151C16.3307 6.97242 16.2645 6.8469 16.2246 6.71216C16.1847 6.57742 16.1718 6.43612 16.1866 6.29638C16.2015 6.15664 16.2438 6.02121 16.3112 5.89789C16.3786 5.77456 16.4697 5.66577 16.5792 5.57776C16.6889 5.48009 16.8175 5.40612 16.9571 5.36048C17.0967 5.31484 17.2442 5.29852 17.3903 5.31254C17.5365 5.32656 17.6782 5.37061 17.8066 5.44194C17.9349 5.51327 18.0472 5.61034 18.1363 5.72707L23.2874 12.126C23.4213 12.3234 23.4851 12.5599 23.4687 12.7979Z" fill="#92140C"/>
</g>
</svg>
