<svg width="19" height="19" viewBox="0 0 19 19" fill="none" xmlns="http://www.w3.org/2000/svg">
<g opacity="0.6">
<path d="M12.6657 9.49982C12.6661 9.6848 12.6016 9.86406 12.4836 10.0065L8.52529 14.7565C8.39091 14.9182 8.19782 15.0198 7.98848 15.0391C7.77914 15.0584 7.57071 14.9938 7.40904 14.8594C7.24737 14.725 7.1457 14.5319 7.1264 14.3226C7.1071 14.1133 7.17174 13.9048 7.30612 13.7432L10.8528 9.49982L7.43279 5.25649C7.36703 5.17551 7.31792 5.08234 7.28829 4.98232C7.25865 4.8823 7.24908 4.77741 7.26011 4.67368C7.27115 4.56995 7.30257 4.46942 7.35259 4.37787C7.4026 4.28633 7.47021 4.20557 7.55154 4.14024C7.63294 4.06774 7.72843 4.01283 7.83204 3.97895C7.93565 3.94507 8.04514 3.93296 8.15365 3.94336C8.26216 3.95377 8.36735 3.98647 8.46263 4.03942C8.55791 4.09237 8.64123 4.16442 8.70737 4.25107L12.5311 9.00107C12.6305 9.1476 12.6779 9.3232 12.6657 9.49982Z" fill="#434B53"/>
</g>
</svg>
