<svg width="90" height="83" viewBox="0 0 90 83" fill="none" xmlns="http://www.w3.org/2000/svg">
<g clip-path="url(#clip0_67490_16543)">
<path d="M30.1021 13.4916C30.4133 14.2278 30.4986 15.0426 30.3472 15.833C30.1958 16.6233 29.8145 17.3537 29.2515 17.9317C28.6886 18.5097 27.9693 18.9093 27.1847 19.0799C26.4 19.2506 25.5854 19.1846 24.8438 18.8903C24.1022 18.5961 23.467 18.0867 23.0186 17.4268C22.5701 16.7669 22.3286 15.9861 22.3246 15.1831C22.3206 14.3801 22.5543 13.5912 22.9961 12.916C23.4378 12.2408 24.0678 11.7099 24.8064 11.3903C25.2959 11.1777 25.8212 11.0635 26.3523 11.054C26.8834 11.0446 27.4099 11.1402 27.9017 11.3354C28.3935 11.5305 28.841 11.8214 29.2185 12.1914C29.5961 12.5613 29.8963 13.0032 30.1021 13.4916Z" fill="#F9C0A8"/>
<path d="M29.212 13.8766C29.4491 14.4376 29.5141 15.0585 29.3986 15.6608C29.2832 16.2632 28.9926 16.8197 28.5635 17.2602C28.1345 17.7006 27.5863 18.0051 26.9883 18.135C26.3904 18.265 25.7696 18.2147 25.2045 17.9903C24.6393 17.766 24.1553 17.3778 23.8136 16.8748C23.472 16.3719 23.288 15.7768 23.2851 15.1649C23.2821 14.5529 23.4603 13.9517 23.7971 13.4373C24.1339 12.9228 24.6141 12.5183 25.1769 12.2748C25.55 12.1129 25.9503 12.0259 26.3549 12.0188C26.7596 12.0117 27.1608 12.0846 27.5355 12.2333C27.9103 12.3821 28.2512 12.6038 28.5388 12.8857C28.8265 13.1677 29.0552 13.5044 29.212 13.8766Z" fill="#FCD3C3"/>
<path d="M26.3254 13.4163C26.4162 13.3255 26.4189 13.1802 26.3316 13.0918C26.2444 13.0034 26.1 13.0053 26.0092 13.0961L24.7077 14.3982C24.6169 14.489 24.6142 14.6343 24.7014 14.7227C24.7887 14.8111 24.9331 14.8092 25.0239 14.7184L25.3969 14.3452C25.5509 14.1906 25.7776 14.1381 25.9765 14.2109L25.2468 14.9409C25.1561 15.0316 25.1533 15.177 25.2405 15.2654C25.3278 15.3538 25.4722 15.3518 25.563 15.2611L26.2926 14.5311C26.3628 14.7319 26.3093 14.9591 26.1557 15.1136L25.7827 15.4868C25.7153 15.5543 25.6943 15.655 25.7296 15.7409C25.7648 15.8269 25.8492 15.8809 25.9427 15.8772L27.7187 15.8031C27.7771 15.8004 27.8329 15.7752 27.8747 15.7329C27.9197 15.6874 27.9452 15.6263 27.9457 15.5633C27.9453 15.5026 27.9208 15.4454 27.8778 15.4043C27.8347 15.3631 27.7766 15.3415 27.7163 15.3441L26.5113 15.3943C26.8136 15.056 26.8657 14.5652 26.6394 14.1874L26.8645 13.9622C26.9553 13.8714 26.9581 13.7261 26.8707 13.6377C26.7834 13.5493 26.6391 13.5512 26.5483 13.642L26.3232 13.8673C26.2253 13.8067 26.117 13.7641 26.0033 13.7418L26.327 13.4179L26.3254 13.4163Z" fill="#F38D5D"/>
<path d="M29.1714 13.7877C29.1538 13.7914 29.0906 13.6768 28.953 13.4795C28.7614 13.2015 28.5274 12.9556 28.2594 12.7507C28.075 12.6118 27.8759 12.4935 27.6656 12.3978C27.4236 12.2902 27.1685 12.2143 26.9065 12.172C26.7658 12.1483 26.6233 12.1355 26.4803 12.1337C26.1778 12.1283 25.8757 12.1686 25.5842 12.2531C25.4312 12.2981 25.2817 12.3544 25.1368 12.4215C24.9926 12.4904 24.8534 12.5695 24.7202 12.6581C24.5916 12.7454 24.4698 12.8424 24.3559 12.9482C24.245 13.0493 24.1424 13.1591 24.049 13.2765C23.9584 13.3895 23.8762 13.509 23.803 13.6341C23.6663 13.8638 23.5594 14.1098 23.485 14.3662C23.4205 14.5902 23.3811 14.8205 23.3674 15.0527C23.349 15.3921 23.3831 15.7318 23.4686 16.0595C23.5294 16.2932 23.5777 16.4201 23.5608 16.4277C23.5439 16.4353 23.4703 16.3197 23.3812 16.0879C23.257 15.7568 23.1957 15.4047 23.2003 15.0495C23.2074 14.5157 23.3514 13.9911 23.6186 13.5262C23.776 13.251 23.9729 13.0001 24.2029 12.7818C24.3247 12.6664 24.4555 12.561 24.594 12.4667C24.7369 12.3699 24.8869 12.2841 25.0425 12.2102C25.199 12.1374 25.3607 12.0769 25.5262 12.0291C25.687 11.9819 25.8512 11.9479 26.0171 11.9273C26.1766 11.9079 26.3372 11.9013 26.4975 11.9074C26.651 11.912 26.8038 11.9285 26.9545 11.9567C27.2316 12.0095 27.5 12.0996 27.7524 12.2245C27.9703 12.3317 28.1745 12.4646 28.3607 12.6204C28.6321 12.8458 28.8588 13.1203 29.0292 13.43C29.1484 13.6484 29.1846 13.7819 29.1714 13.7877Z" fill="#F38D5D"/>
<path d="M53.0058 62.5679C52.9314 63.1975 52.6712 63.7905 52.2581 64.2717C51.845 64.753 51.2977 65.101 50.6853 65.2716C50.0729 65.4423 49.423 65.4279 48.8179 65.2303C48.2128 65.0327 47.6796 64.6608 47.2859 64.1617C46.8921 63.6625 46.6555 63.0586 46.6059 62.4262C46.5564 61.7939 46.6961 61.1616 47.0075 60.6094C47.3188 60.0571 47.7878 59.6098 48.355 59.3239C48.9223 59.0381 49.5623 58.9266 50.1941 59.0035C50.6131 59.0541 51.0183 59.1863 51.3864 59.3928C51.7545 59.5993 52.0784 59.876 52.3395 60.207C52.6006 60.538 52.7938 60.9169 52.9082 61.322C53.0225 61.7271 53.0557 62.1505 53.0058 62.5679Z" fill="#F9C0A8"/>
<path d="M52.2444 62.4756C52.1877 62.9554 51.9894 63.4073 51.6746 63.774C51.3598 64.1408 50.9426 64.4059 50.4759 64.5359C50.0092 64.6659 49.514 64.6549 49.0528 64.5043C48.5917 64.3537 48.1854 64.0702 47.8854 63.6898C47.5854 63.3093 47.4051 62.8491 47.3674 62.3672C47.3298 61.8853 47.4363 61.4034 47.6737 60.9826C47.911 60.5618 48.2685 60.221 48.7008 60.0032C49.1331 59.7855 49.6209 59.7006 50.1023 59.7594C50.4216 59.7979 50.7303 59.8987 51.0108 60.0561C51.2912 60.2135 51.538 60.4243 51.7369 60.6766C51.9359 60.9288 52.0831 61.2176 52.1702 61.5262C52.2572 61.8349 52.2825 62.1575 52.2444 62.4756Z" fill="#FCD3C3"/>
<path d="M50.4429 61.0015C50.5405 60.9757 50.599 60.8771 50.5736 60.7814C50.5483 60.6857 50.4487 60.6289 50.3511 60.6547L48.9524 61.0249C48.8549 61.0507 48.7964 61.1494 48.8217 61.245C48.847 61.3408 48.9466 61.3975 49.0442 61.3717L49.4451 61.2656C49.6108 61.2214 49.7865 61.2765 49.8943 61.4064L49.1101 61.614C49.0127 61.6398 48.9541 61.7384 48.9794 61.8341C49.0048 61.9298 49.1044 61.9865 49.2019 61.9607L49.9861 61.7532C49.9559 61.9191 49.8307 62.0536 49.6653 62.0978L49.2644 62.2039C49.192 62.2231 49.1384 62.2838 49.129 62.3569C49.1197 62.43 49.1565 62.501 49.2219 62.5361L50.4671 63.1991C50.5081 63.2207 50.5562 63.2259 50.6013 63.2137C50.6498 63.2005 50.6911 63.1689 50.716 63.1258C50.7393 63.084 50.7449 63.0349 50.7314 62.9894C50.718 62.9439 50.6866 62.9057 50.6443 62.8832L49.7995 62.4333C50.1384 62.3228 50.3653 62.007 50.3575 61.6568L50.5994 61.5927C50.697 61.5669 50.7555 61.4684 50.7301 61.3726C50.7048 61.2768 50.6052 61.2201 50.5076 61.246L50.2657 61.31C50.2223 61.2291 50.1646 61.1564 50.0955 61.0953L50.4434 61.0032L50.4429 61.0015Z" fill="#F38D5D"/>
<path d="M52.253 62.399C52.2394 62.3944 52.2409 62.2905 52.2237 62.1001C52.201 61.8326 52.1366 61.5702 52.0329 61.3223C51.9607 61.1532 51.8704 60.9922 51.7636 60.8422C51.6396 60.6715 51.4943 60.5172 51.3311 60.3832C51.2438 60.3105 51.151 60.2446 51.0536 60.186C50.8482 60.0611 50.6252 59.9676 50.392 59.9087C50.2695 59.8782 50.1449 59.8568 50.0193 59.8448C49.8934 59.8342 49.7669 59.8326 49.6408 59.84C49.5185 59.8483 49.397 59.866 49.2774 59.8929C49.1618 59.9178 49.0484 59.9519 48.9384 59.995C48.832 60.0362 48.7289 60.0852 48.6298 60.1416C48.4461 60.2443 48.2765 60.3701 48.1251 60.5161C47.9933 60.6439 47.8762 60.786 47.7759 60.9397C47.6305 61.1651 47.521 61.4117 47.4515 61.6707C47.4018 61.8553 47.3853 61.9616 47.3707 61.96C47.3561 61.9585 47.3508 61.8498 47.3804 61.6551C47.4247 61.3783 47.5204 61.1122 47.6625 60.8705C47.8762 60.5074 48.1803 60.2054 48.5454 59.9937C48.7611 59.8681 48.9943 59.775 49.2375 59.7174C49.3662 59.6872 49.4972 59.6674 49.6292 59.6582C49.7651 59.6491 49.9015 59.6504 50.0372 59.6621C50.1731 59.6749 50.3077 59.6982 50.4399 59.7319C50.5687 59.7639 50.6947 59.8064 50.8166 59.8588C50.9336 59.9095 51.0464 59.9693 51.1539 60.0377C51.2574 60.1024 51.3558 60.175 51.4482 60.2547C51.6177 60.4021 51.7666 60.5714 51.8909 60.7582C51.9985 60.9191 52.0866 61.0921 52.1534 61.2736C52.2514 61.5369 52.2996 61.816 52.2953 62.0967C52.2916 62.2942 52.2643 62.4003 52.253 62.399Z" fill="#F38D5D"/>
<path d="M20.0171 16.7919C20.2636 17.375 20.3312 18.0204 20.2112 18.6464C20.0913 19.2724 19.7893 19.8509 19.3434 20.3087C18.8975 20.7665 18.3278 21.083 17.7063 21.2182C17.0849 21.3533 16.4396 21.3011 15.8522 21.068C15.2648 20.8349 14.7617 20.4315 14.4065 19.9088C14.0513 19.3861 13.86 18.7676 13.8569 18.1316C13.8537 17.4957 14.0388 16.8707 14.3887 16.336C14.7386 15.8012 15.2376 15.3806 15.8226 15.1275C16.2103 14.9591 16.6264 14.8687 17.0471 14.8612C17.4677 14.8537 17.8848 14.9294 18.2743 15.084C18.6638 15.2386 19.0182 15.469 19.3173 15.762C19.6163 16.0551 19.8541 16.405 20.0171 16.7919Z" fill="#F9C0A8"/>
<path d="M19.312 17.0972C19.4999 17.5415 19.5513 18.0334 19.4599 18.5104C19.3685 18.9875 19.1383 19.4283 18.7984 19.7772C18.4586 20.126 18.0244 20.3672 17.5508 20.4701C17.0772 20.5731 16.5855 20.5332 16.1378 20.3555C15.6902 20.1778 15.3069 19.8704 15.0362 19.472C14.7656 19.0736 14.6199 18.6023 14.6176 18.1176C14.6153 17.6329 14.7564 17.1567 15.0231 16.7492C15.2899 16.3417 15.6702 16.0213 16.116 15.8285C16.4115 15.7003 16.7286 15.6314 17.0491 15.6257C17.3696 15.6201 17.6874 15.6778 17.9842 15.7956C18.281 15.9134 18.551 16.089 18.7789 16.3124C19.0067 16.5357 19.1879 16.8024 19.312 17.0972Z" fill="#FCD3C3"/>
<path d="M17.027 16.7319C17.0989 16.66 17.1011 16.5449 17.032 16.4749C16.9629 16.4049 16.8485 16.4064 16.7766 16.4783L15.7457 17.5096C15.6738 17.5815 15.6716 17.6967 15.7407 17.7666C15.8099 17.8367 15.9242 17.8351 15.9961 17.7632L16.2916 17.4676C16.4136 17.3452 16.5931 17.3036 16.7507 17.3612L16.1727 17.9395C16.1009 18.0113 16.0986 18.1265 16.1677 18.1965C16.2369 18.2665 16.3513 18.2649 16.4231 18.193L17.0011 17.6148C17.0567 17.7739 17.0143 17.9539 16.8926 18.0762L16.5972 18.3718C16.5438 18.4253 16.5272 18.5051 16.5551 18.5731C16.583 18.6412 16.6499 18.684 16.7239 18.6811L18.1306 18.6224C18.1769 18.6202 18.2211 18.6003 18.2542 18.5668C18.2898 18.5308 18.31 18.4824 18.3104 18.4324C18.3101 18.3843 18.2907 18.339 18.2566 18.3065C18.2225 18.2739 18.1765 18.2568 18.1287 18.2588L17.1743 18.2986C17.4137 18.0307 17.455 17.6419 17.2757 17.3427L17.454 17.1643C17.5259 17.0923 17.5281 16.9773 17.459 16.9073C17.3898 16.8372 17.2755 16.8388 17.2036 16.9107L17.0253 17.0891C16.9478 17.0411 16.8619 17.0074 16.7719 16.9897L17.0283 16.7332L17.027 16.7319Z" fill="#F38D5D"/>
<path d="M19.2812 17.0277C19.2672 17.0306 19.2171 16.9398 19.1082 16.7835C18.9564 16.5634 18.7711 16.3686 18.5588 16.2063C18.4127 16.0963 18.255 16.0026 18.0885 15.9267C17.8968 15.8415 17.6948 15.7814 17.4872 15.7479C17.3757 15.7292 17.2629 15.719 17.1496 15.7176C16.91 15.7133 16.6708 15.7452 16.4398 15.8122C16.3187 15.8478 16.2003 15.8924 16.0855 15.9456C15.9713 16.0001 15.861 16.0627 15.7555 16.133C15.6537 16.2021 15.5572 16.2789 15.4669 16.3628C15.3791 16.4428 15.2979 16.5298 15.2239 16.6228C15.1521 16.7123 15.087 16.807 15.0291 16.906C14.9207 17.0879 14.8361 17.2828 14.7772 17.4859C14.7261 17.6633 14.6949 17.8457 14.6841 18.0296C14.6694 18.2985 14.6965 18.5675 14.7642 18.8271C14.8124 19.0121 14.8506 19.1127 14.8372 19.1187C14.8238 19.1247 14.7655 19.0332 14.6949 18.8496C14.5966 18.5873 14.548 18.3084 14.5517 18.0271C14.5573 17.6043 14.6714 17.1888 14.883 16.8205C15.0077 16.6025 15.1636 16.4038 15.3458 16.2309C15.4423 16.1395 15.5459 16.0561 15.6556 15.9813C15.7688 15.9047 15.8875 15.8367 16.0108 15.7782C16.1348 15.7205 16.2628 15.6726 16.3939 15.6348C16.5213 15.5974 16.6513 15.5704 16.7828 15.5541C16.9091 15.5388 17.0363 15.5335 17.1632 15.5384C17.2848 15.542 17.4058 15.5551 17.5252 15.5774C17.7447 15.6193 17.9573 15.6906 18.1572 15.7895C18.3298 15.8744 18.4916 15.9797 18.639 16.1031C18.854 16.2816 19.0336 16.4991 19.1685 16.7443C19.2629 16.9173 19.2916 17.0231 19.2812 17.0277Z" fill="#F38D5D"/>
<path d="M46.3661 67.5724C46.2721 68.3673 45.9436 69.1159 45.4221 69.7235C44.9006 70.3312 44.2095 70.7705 43.4364 70.9859C42.6632 71.2013 41.8428 71.1832 41.0788 70.9337C40.3148 70.6843 39.6416 70.2147 39.1445 69.5845C38.6474 68.9544 38.3487 68.1918 38.2861 67.3935C38.2235 66.5952 38.4 65.7969 38.793 65.0997C39.1861 64.4024 39.7782 63.8377 40.4944 63.4768C41.2105 63.1159 42.0186 62.9751 42.8162 63.0723C43.3452 63.136 43.8568 63.303 44.3215 63.5638C44.7863 63.8245 45.1952 64.1738 45.5249 64.5917C45.8545 65.0096 46.0985 65.4879 46.2428 65.9994C46.3872 66.5108 46.4291 67.0453 46.3661 67.5724Z" fill="#F9C0A8"/>
<path d="M45.4076 67.4567C45.336 68.0624 45.0856 68.6329 44.6882 69.096C44.2907 69.559 43.764 69.8938 43.1748 70.0579C42.5856 70.222 41.9603 70.2081 41.3781 70.0179C40.7959 69.8278 40.283 69.4699 39.9042 68.9896C39.5254 68.5093 39.2979 67.9282 39.2503 67.3198C39.2027 66.7114 39.3372 66.103 39.6369 65.5717C39.9365 65.0405 40.3878 64.6101 40.9337 64.3352C41.4795 64.0603 42.0953 63.9531 42.7031 64.0273C43.1062 64.076 43.496 64.2033 43.8501 64.402C44.2042 64.6007 44.5157 64.8669 44.7669 65.1854C45.0181 65.5038 45.2039 65.8684 45.3139 66.2581C45.4238 66.6478 45.4557 67.0551 45.4076 67.4567Z" fill="#FCD3C3"/>
<path d="M43.1327 65.5948C43.2558 65.5622 43.3297 65.4378 43.2977 65.3169C43.2657 65.1961 43.1399 65.1245 43.0168 65.1571L41.2508 65.6244C41.1277 65.657 41.0538 65.7815 41.0858 65.9024C41.1178 66.0233 41.2435 66.0948 41.3667 66.0622L41.8728 65.9283C42.082 65.8725 42.3039 65.9421 42.4401 66.1061L41.45 66.3681C41.3269 66.4007 41.253 66.5252 41.2849 66.646C41.3169 66.7669 41.4428 66.8385 41.5659 66.8059L42.5559 66.5439C42.5178 66.7534 42.3597 66.9232 42.1509 66.979L41.6448 67.1129C41.5534 67.1372 41.4856 67.2138 41.4738 67.3061C41.462 67.3985 41.5085 67.4881 41.5911 67.5324L43.1632 68.3694C43.215 68.3967 43.2756 68.4032 43.3326 68.3878C43.3938 68.3712 43.446 68.3313 43.4775 68.2769C43.5069 68.2241 43.5139 68.1621 43.4969 68.1047C43.4799 68.0472 43.4403 67.999 43.3869 67.9706L42.3203 67.4026C42.7481 67.263 43.0346 66.8643 43.0248 66.4222L43.3302 66.3413C43.4534 66.3087 43.5273 66.1843 43.4953 66.0634C43.4633 65.9425 43.3375 65.8709 43.2144 65.9035L42.9089 65.9844C42.8541 65.8822 42.7813 65.7904 42.694 65.7133L43.1332 65.5971L43.1327 65.5948Z" fill="#F38D5D"/>
<path d="M45.4177 67.3599C45.4006 67.3541 45.4024 67.2229 45.3807 66.9825C45.352 66.6449 45.2707 66.3136 45.1398 66.0006C45.0487 65.787 44.9346 65.5838 44.7998 65.3944C44.6433 65.1788 44.4598 64.984 44.2537 64.8148C44.1435 64.7231 44.0264 64.6399 43.9034 64.5659C43.6441 64.4082 43.3625 64.2901 43.0682 64.2158C42.9135 64.1773 42.7562 64.1503 42.5975 64.1352C42.4386 64.1218 42.2789 64.1198 42.1198 64.1291C41.9653 64.1396 41.8119 64.1619 41.6609 64.1959C41.5149 64.2273 41.3718 64.2704 41.2329 64.3248C41.0986 64.3768 40.9684 64.4386 40.8433 64.5098C40.6113 64.6395 40.3972 64.7984 40.2062 64.9827C40.0397 65.144 39.8918 65.3234 39.7653 65.5175C39.5816 65.802 39.4435 66.1134 39.3556 66.4404C39.2929 66.6734 39.272 66.8077 39.2536 66.8057C39.2352 66.8037 39.2286 66.6665 39.2659 66.4207C39.3219 66.0712 39.4427 65.7353 39.6221 65.4302C39.8919 64.9716 40.2758 64.5904 40.7368 64.3231C41.0091 64.1645 41.3035 64.047 41.6106 63.9743C41.7731 63.9361 41.9384 63.9111 42.105 63.8995C42.2766 63.8881 42.4489 63.8897 42.6203 63.9045C42.7917 63.9206 42.9617 63.9501 43.1286 63.9925C43.2912 64.0331 43.4502 64.0867 43.6042 64.1529C43.7519 64.2168 43.8943 64.2923 44.0301 64.3787C44.1608 64.4604 44.285 64.552 44.4016 64.6527C44.6156 64.8387 44.8036 65.0525 44.9605 65.2883C45.0963 65.4915 45.2076 65.7099 45.2919 65.939C45.4157 66.2715 45.4765 66.6239 45.4712 66.9782C45.4665 67.2276 45.4319 67.3615 45.4177 67.3599Z" fill="#F38D5D"/>
<g clip-path="url(#clip1_67490_16543)">
<path d="M67.2977 28.8704L53.9629 28.2212L52.9871 48.2633L66.3219 48.9125L67.2977 28.8704Z" fill="white" stroke="#263238" stroke-width="0.123235" stroke-linecap="round" stroke-linejoin="round"/>
<path d="M54.8962 29.635L58.3674 29.7969" stroke="#263238" stroke-width="0.24647" stroke-linecap="round" stroke-linejoin="round"/>
<path d="M54.8643 30.3016L57.225 30.4109" stroke="#263238" stroke-width="0.24647" stroke-linecap="round" stroke-linejoin="round"/>
<path d="M55.6377 31.9142L65.6219 32.3789" stroke="#263238" stroke-width="0.24647" stroke-linecap="round" stroke-linejoin="round"/>
<path d="M55.6047 32.5786L65.5887 33.0449" stroke="#263238" stroke-width="0.24647" stroke-linecap="round" stroke-linejoin="round"/>
<path d="M55.5719 33.3565L64.0863 33.7541" stroke="#263238" stroke-width="0.24647" stroke-linecap="round" stroke-linejoin="round"/>
<path d="M56.394 34.1047L55.582 34.0669L55.5442 34.8789L56.3562 34.9167L56.394 34.1047Z" stroke="#263238" stroke-width="0.123235" stroke-linecap="round" stroke-linejoin="round"/>
<path d="M57.8647 34.1721L57.0527 34.1343L57.0149 34.9463L57.8269 34.9841L57.8647 34.1721Z" stroke="#263238" stroke-width="0.123235" stroke-linecap="round" stroke-linejoin="round"/>
<path d="M59.3374 34.2414L58.5254 34.2036L58.4876 35.0156L59.2995 35.0534L59.3374 34.2414Z" stroke="#263238" stroke-width="0.123235" stroke-linecap="round" stroke-linejoin="round"/>
<path d="M60.8081 34.3093L59.9961 34.2715L59.9583 35.0835L60.7703 35.1213L60.8081 34.3093Z" stroke="#263238" stroke-width="0.123235" stroke-linecap="round" stroke-linejoin="round"/>
<path d="M55.1061 31.8883C55.1046 31.9288 55.0911 31.968 55.0673 32.0008C55.0435 32.0336 55.0104 32.0586 54.9724 32.0726C54.9343 32.0866 54.893 32.089 54.8536 32.0794C54.8142 32.0698 54.7785 32.0487 54.7511 32.0188C54.7237 31.9889 54.7059 31.9515 54.6998 31.9115C54.6937 31.8714 54.6996 31.8304 54.7169 31.7937C54.7342 31.757 54.762 31.7263 54.7968 31.7054C54.8315 31.6846 54.8717 31.6746 54.9122 31.6766C54.9659 31.6793 55.0163 31.7031 55.0526 31.7427C55.0889 31.7823 55.1081 31.8346 55.1061 31.8883Z" fill="#263238"/>
<path d="M55.4561 35.7999L65.4402 36.2646" stroke="#263238" stroke-width="0.24647" stroke-linecap="round" stroke-linejoin="round"/>
<path d="M55.4251 36.4653L65.409 36.9316" stroke="#263238" stroke-width="0.24647" stroke-linecap="round" stroke-linejoin="round"/>
<path d="M55.3901 37.2443L63.9047 37.6403" stroke="#263238" stroke-width="0.24647" stroke-linecap="round" stroke-linejoin="round"/>
<path d="M56.2124 37.9905L55.4004 37.9526L55.3626 38.7646L56.1745 38.8024L56.2124 37.9905Z" stroke="#263238" stroke-width="0.123235" stroke-linecap="round" stroke-linejoin="round"/>
<path d="M57.685 38.0598L56.873 38.022L56.8352 38.8339L57.6472 38.8718L57.685 38.0598Z" stroke="#263238" stroke-width="0.123235" stroke-linecap="round" stroke-linejoin="round"/>
<path d="M59.1557 38.1286L58.3438 38.0908L58.3059 38.9028L59.1179 38.9406L59.1557 38.1286Z" stroke="#263238" stroke-width="0.123235" stroke-linecap="round" stroke-linejoin="round"/>
<path d="M60.6264 38.1965L59.8145 38.1587L59.7766 38.9707L60.5886 39.0085L60.6264 38.1965Z" stroke="#263238" stroke-width="0.123235" stroke-linecap="round" stroke-linejoin="round"/>
<path d="M54.9264 35.7761C54.9246 35.8166 54.9108 35.8556 54.8868 35.8882C54.8628 35.9208 54.8296 35.9455 54.7915 35.9593C54.7535 35.973 54.7121 35.9751 54.6729 35.9654C54.6336 35.9556 54.5981 35.9344 54.5708 35.9044C54.5436 35.8744 54.5259 35.8371 54.52 35.797C54.514 35.757 54.5201 35.716 54.5375 35.6795C54.5548 35.6429 54.5826 35.6123 54.6174 35.5915C54.6521 35.5707 54.6923 35.5608 54.7327 35.5629C54.7866 35.5656 54.8372 35.5896 54.8735 35.6296C54.9098 35.6695 54.9288 35.7222 54.9264 35.7761Z" fill="#263238"/>
<path d="M55.2747 39.686L65.2586 40.1523" stroke="#263238" stroke-width="0.24647" stroke-linecap="round" stroke-linejoin="round"/>
<path d="M55.2432 40.3536L65.2258 40.8181" stroke="#263238" stroke-width="0.24647" stroke-linecap="round" stroke-linejoin="round"/>
<path d="M55.2084 41.131L63.7231 41.527" stroke="#263238" stroke-width="0.24647" stroke-linecap="round" stroke-linejoin="round"/>
<path d="M56.0307 41.8772L55.2188 41.8394L55.1809 42.6513L55.9929 42.6891L56.0307 41.8772Z" stroke="#263238" stroke-width="0.123235" stroke-linecap="round" stroke-linejoin="round"/>
<path d="M57.5034 41.9455L56.6914 41.9077L56.6536 42.7197L57.4656 42.7575L57.5034 41.9455Z" stroke="#263238" stroke-width="0.123235" stroke-linecap="round" stroke-linejoin="round"/>
<path d="M58.976 42.0158L58.1641 41.978L58.1262 42.79L58.9382 42.8278L58.976 42.0158Z" stroke="#263238" stroke-width="0.123235" stroke-linecap="round" stroke-linejoin="round"/>
<path d="M60.4467 42.0837L59.6348 42.0459L59.5969 42.8579L60.4089 42.8957L60.4467 42.0837Z" stroke="#263238" stroke-width="0.123235" stroke-linecap="round" stroke-linejoin="round"/>
<path d="M54.7447 39.6629C54.7429 39.7033 54.7291 39.7423 54.7051 39.7749C54.6811 39.8075 54.648 39.8322 54.6099 39.846C54.5718 39.8597 54.5305 39.8618 54.4912 39.8521C54.4519 39.8423 54.4164 39.8211 54.3892 39.7911C54.362 39.7611 54.3443 39.7238 54.3383 39.6837C54.3324 39.6437 54.3385 39.6028 54.3558 39.5662C54.3731 39.5296 54.401 39.499 54.4357 39.4782C54.4705 39.4575 54.5106 39.4475 54.5511 39.4496C54.605 39.4523 54.6556 39.4763 54.6919 39.5163C54.7281 39.5562 54.7472 39.6089 54.7447 39.6629Z" fill="#263238"/>
<path d="M55.0891 43.6831L65.0715 44.1491" stroke="#263238" stroke-width="0.24647" stroke-linecap="round" stroke-linejoin="round"/>
<path d="M55.0598 44.3506L65.0422 44.8166" stroke="#263238" stroke-width="0.24647" stroke-linecap="round" stroke-linejoin="round"/>
<path d="M55.0212 45.127L63.5356 45.5246" stroke="#263238" stroke-width="0.24647" stroke-linecap="round" stroke-linejoin="round"/>
<path d="M55.8452 45.8747L55.0332 45.8369L54.9954 46.6489L55.8074 46.6867L55.8452 45.8747Z" stroke="#263238" stroke-width="0.123235" stroke-linecap="round" stroke-linejoin="round"/>
<path d="M57.3159 45.9431L56.5039 45.9053L56.4661 46.7172L57.2781 46.7551L57.3159 45.9431Z" stroke="#263238" stroke-width="0.123235" stroke-linecap="round" stroke-linejoin="round"/>
<path d="M58.7885 46.0119L57.9766 45.9741L57.9387 46.7861L58.7507 46.8239L58.7885 46.0119Z" stroke="#263238" stroke-width="0.123235" stroke-linecap="round" stroke-linejoin="round"/>
<path d="M60.2612 46.0798L59.4492 46.042L59.4114 46.854L60.2234 46.8918L60.2612 46.0798Z" stroke="#263238" stroke-width="0.123235" stroke-linecap="round" stroke-linejoin="round"/>
<path d="M54.5641 43.66C54.5623 43.7001 54.5486 43.7387 54.5249 43.771C54.5011 43.8033 54.4684 43.8279 54.4307 43.8416C54.393 43.8552 54.3521 43.8575 54.3131 43.8479C54.2742 43.8384 54.239 43.8175 54.2119 43.7879C54.1848 43.7583 54.1671 43.7214 54.161 43.6818C54.1549 43.6421 54.1607 43.6016 54.1776 43.5653C54.1945 43.5289 54.2219 43.4984 54.2561 43.4776C54.2904 43.4568 54.3301 43.4466 54.3701 43.4483C54.3968 43.4494 54.4229 43.4558 54.4471 43.4671C54.4713 43.4784 54.493 43.4943 54.511 43.5139C54.529 43.5336 54.543 43.5566 54.5521 43.5817C54.5612 43.6068 54.5652 43.6334 54.5641 43.66Z" fill="#263238"/>
<path d="M55.8574 34.404L55.9639 34.5838L56.3939 34.105" stroke="#263238" stroke-width="0.24647" stroke-linecap="round" stroke-linejoin="round"/>
<path d="M58.621 38.3791L58.7273 38.5605L59.1576 38.0801" stroke="#263238" stroke-width="0.24647" stroke-linecap="round" stroke-linejoin="round"/>
<path d="M56.9628 42.2775L57.0707 42.4591L57.4994 41.9785" stroke="#263238" stroke-width="0.24647" stroke-linecap="round" stroke-linejoin="round"/>
<path d="M59.705 46.3786L59.8113 46.56L60.2415 46.0796" stroke="#263238" stroke-width="0.24647" stroke-linecap="round" stroke-linejoin="round"/>
</g>
<path opacity="0.2" d="M54.5508 50.0566C54.5508 50.0566 54.5347 57.7104 54.5508 58.1567C54.5669 58.6031 55.1535 61.2911 55.1535 61.2911L53.2871 64.7177L54.8944 66.0066L58.0185 62.9463C58.0185 62.9463 60.6785 64.5836 61.1646 66.9253C61.6508 69.2671 64.5459 70.9724 67.5494 77.4572C70.553 83.9421 73.9785 62.9463 73.9785 62.9463L64.7106 51.3236L54.5508 50.0566Z" fill="black" fill-opacity="0.7"/>
<path d="M82.4794 79.9812L68.2151 82.3991C68.2151 82.3991 65.7319 69.2592 64.2512 67.1876C62.7705 65.1161 63.0458 64.2654 62.3225 62.8704C61.8885 62.0278 59.7107 60.4566 58.005 58.9054C57.8564 58.7713 57.7117 58.6372 57.5731 58.5051C57.5128 58.4511 57.4566 58.393 57.4003 58.339C57.1733 58.1148 56.9623 57.8967 56.7755 57.6825C56.7072 57.6064 56.6402 57.5304 56.5746 57.4543C56.2579 57.103 56.022 56.687 55.8835 56.2354C55.8773 56.2152 55.8733 56.1944 55.8714 56.1734C55.8656 56.149 55.8616 56.1242 55.8593 56.0993C55.8212 55.7891 55.781 55.4348 55.7408 55.0505C55.7408 54.9745 55.7247 54.8944 55.7147 54.8143L55.7026 54.7183C55.6685 54.398 55.6303 54.0578 55.5861 53.7075C55.5419 53.3572 55.4937 52.9609 55.4374 52.5787C55.4194 52.4466 55.4013 52.3145 55.3792 52.1784C55.3571 52.0302 55.333 51.8821 55.3089 51.732L55.2426 51.3477C55.2426 51.3257 55.2325 51.3057 55.2305 51.2877L55.1501 50.8374C55.1447 50.8212 55.1413 50.8044 55.1401 50.7873C55.112 50.6572 55.0859 50.5291 55.0557 50.399C54.9934 50.1088 54.9231 49.8246 54.8548 49.5484C54.7165 49.0286 54.5385 48.52 54.3224 48.0272C53.2938 45.7395 54.6318 46.5661 53.8262 40.6797C53.8262 40.6797 54.4188 39.3147 56.1085 40.4055C56.239 40.4904 56.3651 40.5819 56.4862 40.6797C56.8286 40.9556 57.1308 41.2776 57.3842 41.6364C57.7277 42.125 57.9896 42.6657 58.1597 43.2376C58.4359 44.1653 58.5139 45.1403 58.3888 46.0998C58.3888 46.0998 59.6585 50.4351 60.3275 51.4218C60.9965 52.4085 63.763 46.7403 63.5842 46.0798C63.5214 45.7835 63.4738 45.4842 63.4415 45.1831C63.4295 45.085 63.4174 44.983 63.4034 44.8709C63.3893 44.7588 63.3773 44.6467 63.3652 44.5286C63.3652 44.4726 63.3511 44.4125 63.3431 44.3545C63.3431 44.3305 63.3431 44.3064 63.3431 44.2844C63.319 44.0583 63.2909 43.8181 63.2648 43.5699C63.2648 43.4998 63.2507 43.4338 63.2427 43.3697L63.2065 43.0095C63.2053 42.9895 63.2053 42.9694 63.2065 42.9494C63.2065 42.8814 63.1904 42.8113 63.1844 42.7393C63.1683 42.5992 63.1542 42.4571 63.1402 42.3149C63.1261 42.1728 63.1161 42.0708 63.104 41.9487C63.0799 41.7185 63.0578 41.4883 63.0357 41.2662C63.0196 41.1 63.0036 40.9359 62.9895 40.7758C62.9895 40.7398 62.9895 40.7037 62.9795 40.6697C62.8951 39.789 62.8288 39.0685 62.8047 38.7563C62.8047 38.7563 60.7956 35.79 60.5947 34.393C60.3938 32.9959 60.4059 31.5248 61.2477 30.9264C63.2406 29.5133 62.654 31.791 63.55 32.7277C64.4461 33.6644 65.8102 35.2156 66.5857 35.698C67.301 36.1503 67.9398 37.8996 68.0302 38.1638C67.9278 37.7795 66.9052 34.0007 66.8831 33.2401C66.857 32.4395 66.2422 28.2043 67.2849 26.6852C68.3276 25.1661 69.7179 26.3449 69.8464 26.6452C69.975 26.9454 70.0132 31.0485 70.3809 32.1893C70.7485 33.3302 72.2875 38.0878 72.2875 38.0878C72.2875 38.0878 72.3517 33.4603 72.6993 31.3887C73.0469 29.3172 73.9489 27.698 74.8329 27.6059C75.7169 27.5138 76.5346 28.4846 76.5346 28.4846C76.5346 28.4846 76.185 31.787 76.2855 32.5496C76.3859 33.3122 76.1408 36.0663 76.5607 37.5534C76.5607 37.5534 76.5125 33.6084 77.1273 33.104C77.7421 32.5996 78.2704 32.3575 78.616 32.7037C78.9616 33.05 79.0359 35.3797 79.3875 36.7848C79.7391 38.1898 79.6949 40.0993 79.9259 42.2909C80.157 44.4826 81.0671 47.5249 80.8862 49.2642C80.7054 51.0035 80.1489 55.3167 79.7009 57.8486C79.2529 60.3805 78.1097 63.8531 78.1097 63.8531C78.1097 63.8531 78.6301 65.7045 78.5296 67.3558C78.4292 69.007 82.4794 79.9812 82.4794 79.9812Z" fill="white"/>
<path opacity="0.8" d="M70.3557 32.1865C70.6289 33.0331 71.5411 35.8592 71.9951 37.2703C71.9951 37.2703 70.0021 38.7294 70.0523 40.0864C70.1026 41.4434 69.6867 44.1815 68.7906 44.1034C67.8946 44.0254 67.987 38.3271 67.6837 37.3704C67.8665 37.7707 67.983 38.1169 68.0071 38.183C67.9408 37.9368 66.876 34.0158 66.8539 33.2393C66.8539 33.0551 66.8117 32.6928 66.7695 32.2225V32.2125C66.7695 32.2125 68.7505 30.3231 70.205 31.4799C70.2375 31.7189 70.2879 31.955 70.3557 32.1865Z" fill="#FFE4C8"/>
<path opacity="0.8" d="M76.2798 33.8262C75.3516 34.7048 73.9513 36.254 73.7745 37.7491C73.7745 37.7491 74.2928 41.9243 74.0718 43.7436L72.2637 38.0974C72.2637 38.0974 72.328 33.4699 72.6755 31.3983L72.7057 31.2282C73.8341 30.6553 75.0797 30.3485 76.3461 30.3315C76.2684 31.0681 76.2422 31.8091 76.2677 32.5492C76.2944 32.9744 76.2984 33.4006 76.2798 33.8262Z" fill="#FFE4C8"/>
<path opacity="0.4" d="M77.1 33.0966C77.0779 33.1126 77.0237 33.1546 76.9453 33.2226C76.9926 33.1324 77.045 33.0449 77.102 32.9604L77.1 33.0966Z" fill="#92E3A9"/>
<path opacity="0.8" d="M77.5731 44.634C77.5731 44.634 76.3797 40.1747 76.3676 36.584C76.3576 35.255 76.5123 34.0441 76.9443 33.2255C76.9916 33.1352 77.0439 33.0477 77.101 32.9633V33.0934C77.316 32.9063 77.5552 32.7488 77.8122 32.625C77.4766 33.1454 77.0909 34.1642 77.5369 35.8274C78.2381 38.4174 77.6273 41.5837 77.5731 44.634Z" fill="#FFE4C8"/>
<path opacity="0.8" d="M61.1138 53.1385C61.1138 53.1385 61.4333 57.3877 58.0058 58.9089C57.8571 58.7748 57.7125 58.6407 57.5738 58.5086C57.5136 58.4545 57.4573 58.3965 57.4011 58.3424C57.174 58.1183 56.9631 57.8981 56.7762 57.6859C56.7059 57.6079 56.6436 57.5318 56.5753 57.4578C56.2586 57.1064 56.0227 56.6904 55.8842 56.2388C55.8783 56.2186 55.8742 56.1978 55.8722 56.1768C55.8663 56.1524 55.8623 56.1277 55.8601 56.1027C55.8219 55.7925 55.7818 55.4382 55.7416 55.054C55.7416 54.9779 55.7255 54.8978 55.7155 54.8178L55.7034 54.7217C55.6692 54.3995 55.6311 54.0612 55.5869 53.7109C55.5427 53.3607 55.4945 52.9644 55.4382 52.5821C55.4181 52.45 55.4 52.3159 55.3799 52.1818C55.3578 52.0337 55.3337 51.8836 55.3096 51.7355L55.2433 51.3512L55.2313 51.2911C55.2031 51.141 55.177 50.9949 55.1469 50.8468C55.1426 50.8303 55.1392 50.8136 55.1368 50.7968C55.1087 50.6667 55.0826 50.5366 55.0525 50.4085C54.9882 50.1182 54.9179 49.834 54.8516 49.5578C56.2077 48.2568 59.3378 49.0735 57.823 46.0612C57.823 46.0612 58.5864 43.4833 56.4829 40.6892C57.9214 41.844 58.6587 43.8755 58.3855 46.0932C58.3855 46.0932 59.6552 50.4265 60.3243 51.4152C60.9933 52.404 63.7598 46.7337 63.5809 46.0712C63.5181 45.7757 63.4711 45.477 63.4403 45.1765C63.4262 45.0785 63.4142 44.9764 63.4021 44.8643C63.3901 44.7522 63.374 44.6401 63.362 44.52C63.362 44.466 63.3479 44.406 63.3399 44.3479C63.3399 44.3239 63.3399 44.2999 63.3399 44.2779C63.3158 44.0497 63.2896 43.8115 63.2615 43.5613C63.2615 43.4933 63.2474 43.4272 63.2394 43.3612C63.2394 43.2411 63.2153 43.121 63.2032 43.0009C63.2021 42.9809 63.2021 42.9608 63.2032 42.9408C63.2032 42.8728 63.1872 42.8027 63.1811 42.7307C63.1651 42.5886 63.153 42.4485 63.1369 42.3064L63.1008 41.9381C63.0767 41.7099 63.0546 41.4798 63.0325 41.2576C63.0184 41.0895 63.0023 40.9253 62.9863 40.7672C62.9863 40.7312 62.9863 40.6952 62.9762 40.6611C63.0325 40.9233 64.0511 45.753 64.6317 46.8798C65.2123 48.0367 62.6849 54.1393 61.1138 53.1385Z" fill="#FFE4C8"/>
<path opacity="0.8" d="M79.674 57.8437C79.226 60.3776 78.0828 63.8482 78.0828 63.8482C78.0828 63.8482 78.6032 65.6996 78.5027 67.3509C78.4746 67.7952 78.7518 68.916 79.1657 70.3191C79.0472 70.0109 77.7594 66.7044 77.7875 65.5495C77.8116 64.3486 77.466 64.0064 76.7829 62.5192C76.0999 61.0321 75.0732 61.1942 75.0732 61.1942C75.0732 61.1942 74.6714 64.905 73.7392 62.4672C72.807 60.0294 72.6242 57.1932 74.9808 47.3458C74.9808 47.3458 75.3364 48.5808 75.0391 52.2495C74.7417 55.9183 75.6217 57.0291 75.6217 57.0291C76.9469 54.7294 77.9987 52.2838 78.7558 49.7416C78.7558 49.7416 78.4505 54.0229 78.1792 55.9723C77.908 57.9218 79.1456 53.7126 80.0095 51.1127C80.8131 48.6708 80.8513 47.7441 80.5419 46.0068C80.7709 47.2298 80.9437 48.3966 80.8553 49.2493C80.6785 50.9866 80.122 55.3038 79.674 57.8437Z" fill="#FFE4C8"/>
<path opacity="0.8" d="M63.5566 66.0879C64.2518 67.1907 65.9535 68.6458 66.9721 72.6708C67.9907 76.6959 67.3478 81.1012 67.3478 81.1012L63.5566 66.0879Z" fill="#FFE4C8"/>
<path opacity="0.8" d="M58.0856 43.2408C58.0856 43.2408 54.5275 45.0421 54.2462 48.0444C53.2176 45.7567 54.5556 46.5833 53.75 40.6969C53.75 40.6969 54.3427 39.3319 56.0323 40.4227C56.1629 40.5075 56.2889 40.5991 56.41 40.6969C56.7524 40.9728 57.0547 41.2948 57.308 41.6536L58.0856 43.2408Z" fill="#FFE4C8" fill-opacity="0.7"/>
<path d="M68.2154 82.4003C68.2154 82.4003 65.7342 69.2605 64.2515 67.1889C62.7688 65.1173 63.046 64.2667 62.3228 62.8717C61.5995 61.4766 56.1087 58.0801 55.8657 56.0986C55.6226 54.1171 55.3453 50.3182 54.3147 48.0305C53.284 45.7428 54.624 46.5694 53.8164 40.681C53.8164 40.681 54.4191 39.318 56.1007 40.4088C57.7823 41.4996 58.6783 43.6792 58.383 46.0951C58.383 46.0951 59.6527 50.4283 60.3238 51.4171C60.9948 52.4058 63.7552 46.7355 63.5784 46.073C63.4017 45.4105 62.8692 39.7743 62.7849 38.7475C62.7849 38.7475 60.7758 35.7793 60.5749 34.3822C60.374 32.9852 60.386 31.5141 61.2278 30.9176C63.2208 29.5046 62.6342 31.7823 63.5302 32.719C64.4263 33.6557 65.7904 35.2029 66.5639 35.6872C67.3374 36.1716 68.0205 38.1831 68.0205 38.1831C68.0205 38.1831 66.8854 34.032 66.8633 33.2294C66.8412 32.4268 66.2224 28.1936 67.2651 26.6745C68.3078 25.1553 69.6981 26.3342 69.8266 26.6344C69.9552 26.9347 69.9934 31.0377 70.3631 32.1766C70.7327 33.3154 72.2656 38.077 72.2656 38.077C72.2656 38.077 72.3319 33.4495 72.6795 31.378C73.0271 29.3064 73.9311 27.6872 74.8131 27.5951C75.6951 27.5031 76.5148 28.4738 76.5148 28.4738C76.5148 28.4738 76.1652 31.7763 76.2637 32.5389C76.3621 33.3014 76.121 36.0535 76.5409 37.5426C76.5409 37.5426 76.4927 33.5977 77.1075 33.0933C77.7223 32.5889 78.2506 32.3467 78.5962 32.693C78.9418 33.0392 79.0161 35.369 79.3677 36.774C79.7193 38.1791 79.6771 40.0885 79.9061 42.2802C80.1351 44.4718 81.0472 47.5141 80.8664 49.2514C80.6856 50.9887 80.1291 55.306 79.6791 57.8379C79.229 60.3698 78.0919 63.8424 78.0919 63.8424C78.0919 63.8424 78.6123 65.6938 78.5098 67.345C78.4073 68.9963 82.4857 79.9885 82.4857 79.9885" stroke="#263238" stroke-width="0.123235" stroke-linecap="round" stroke-linejoin="round"/>
<path d="M72.2598 38.0869C72.6756 39.0596 73.7023 43.1647 74.0679 43.7352C74.2538 44.0502 74.5255 44.3062 74.8514 44.4737" stroke="#263238" stroke-width="0.123235" stroke-linecap="round" stroke-linejoin="round"/>
<path d="M76.5342 37.5469C76.5342 37.5469 76.4458 38.3875 76.9019 41.0715C77.358 43.7555 77.581 44.8964 77.8381 45.4948" stroke="#263238" stroke-width="0.123235" stroke-linecap="round" stroke-linejoin="round"/>
<path d="M68.0117 38.1934C68.5682 39.8286 68.8837 42.4345 69.2011 43.2191C69.5185 44.0037 69.8038 44.1659 69.8038 44.1659" stroke="#263238" stroke-width="0.123235" stroke-linecap="round" stroke-linejoin="round"/>
<path d="M68.9141 42.1157C69.2492 42.3694 69.5146 42.7033 69.6855 43.0865" stroke="#263238" stroke-width="0.123235" stroke-linecap="round" stroke-linejoin="round"/>
<path d="M60.3223 51.4189C60.3223 51.4189 60.6276 53.5866 61.9898 53.4204" stroke="#263238" stroke-width="0.123235" stroke-linecap="round" stroke-linejoin="round"/>
<path d="M63.5766 46.0752C63.5766 46.0752 63.9282 48.6531 63.3496 49.746" stroke="#263238" stroke-width="0.123235" stroke-linecap="round" stroke-linejoin="round"/>
<path d="M74.4719 46.0986C74.4719 46.0986 75.388 46.6571 74.7753 48.3003C74.1625 49.9435 73.0957 56.5525 73.0957 56.5525" stroke="#263238" stroke-width="0.123235" stroke-linecap="round" stroke-linejoin="round"/>
<path d="M78.4593 47.8359C78.843 49.3171 78.8772 49.3551 78.2584 51.1744C77.6396 52.9938 76.625 57.4432 76.625 57.4432" stroke="#263238" stroke-width="0.123235" stroke-linecap="round" stroke-linejoin="round"/>
<path d="M78.083 63.8369C78.083 63.8369 77.4803 62.636 77.9785 61.6353" stroke="#263238" stroke-width="0.123235" stroke-linecap="round" stroke-linejoin="round"/>
<path d="M64.25 67.1914C64.25 67.1914 65.7648 69.311 66.4238 71.6828" stroke="#263238" stroke-width="0.123235" stroke-linecap="round" stroke-linejoin="round"/>
<path d="M75.3965 30.0374L75.8063 29.6331L75.9912 29.5811L75.9791 29.7812L75.6034 30.2596L75.3965 30.0374Z" fill="#757575" stroke="#263238" stroke-width="0.123235" stroke-linecap="round" stroke-linejoin="round"/>
<path d="M75.7274 30.2591L75.0604 31.7662L57.1395 55.5701L55.1445 54.3032L57.8608 50.9166L73.9554 30.8015L75.3758 29.9028C75.4603 29.9269 75.5371 29.9723 75.5988 30.0348C75.6604 30.0972 75.7047 30.1745 75.7274 30.2591Z" fill="#20446C"/>
<path opacity="0.3" d="M75.7293 30.2591L75.0623 31.7662L57.1415 55.5701L55.1465 54.3032L57.8627 50.9166C59.1063 50.7885 59.3153 51.5171 59.3153 51.5171L74.7489 31.444C74.5962 30.9056 73.9453 30.8015 73.9453 30.8015L75.3657 29.9028C75.4524 29.925 75.5318 29.9697 75.5956 30.0322C75.6595 30.0948 75.7056 30.1731 75.7293 30.2591Z" fill="black" fill-opacity="0.7"/>
<path d="M75.7274 30.2591L75.0604 31.7662L57.1395 55.5701L55.1445 54.3032L57.8608 50.9166L73.9554 30.8015L75.3758 29.9028C75.4603 29.9269 75.5371 29.9723 75.5988 30.0348C75.6604 30.0972 75.7047 30.1745 75.7274 30.2591Z" stroke="#263238" stroke-width="0.123235" stroke-linecap="round" stroke-linejoin="round"/>
<path d="M62.987 48.523C62.987 48.523 60.978 52.478 59.0613 55.2761L57.6871 55.6303C57.6871 55.6303 54.5329 58.7527 52.6082 60.3098C52.2588 60.0936 51.9422 59.8288 51.668 59.5233C51.668 59.5233 54.4003 54.2973 57.4239 50.9868C57.7781 51.1133 58.1118 51.2906 58.4144 51.5132C58.8075 51.7895 59.157 52.1227 59.4511 52.502L62.8203 48.2788L62.987 48.523Z" fill="#F0792E"/>
<path opacity="0.3" d="M62.9882 48.5222C62.9882 48.5222 60.9791 52.4772 59.0625 55.2753L57.6883 55.6295C57.6883 55.6295 54.5341 58.7519 52.6094 60.3091L52.6616 59.4624C54.749 56.286 57.401 52.8214 58.4156 51.5125C58.8087 51.7887 59.1581 52.1219 59.4522 52.5012L57.5798 54.9911L58.6526 54.7909L62.8214 48.27L62.9882 48.5222Z" fill="black" fill-opacity="0.7"/>
<path d="M62.987 48.523C62.987 48.523 60.978 52.478 59.0613 55.2761L57.6871 55.6303C57.6871 55.6303 54.5329 58.7527 52.6082 60.3098C52.2588 60.0936 51.9422 59.8288 51.668 59.5233C51.668 59.5233 54.4003 54.2973 57.4239 50.9868C57.7781 51.1133 58.1118 51.2906 58.4144 51.5132C58.8075 51.7895 59.157 52.1227 59.4511 52.502L62.8203 48.2788L62.987 48.523Z" stroke="#263238" stroke-width="0.123235" stroke-linecap="round" stroke-linejoin="round"/>
<path d="M69.801 44.1652L64.2018 49.5692L63.3078 50.4379C63.9205 48.8687 63.6232 46.4349 63.585 46.1487C63.5855 46.14 63.5855 46.1313 63.585 46.1226C63.5862 46.108 63.5862 46.0933 63.585 46.0786C63.5221 45.7831 63.4752 45.4845 63.4444 45.1839C63.4303 45.0859 63.4183 44.9838 63.4062 44.8717C63.3942 44.7596 63.3781 44.6475 63.366 44.5274C63.366 44.4734 63.352 44.4134 63.3439 44.3553C63.3439 44.3313 63.3439 44.3073 63.3439 44.2853C63.3198 44.0591 63.2917 43.8189 63.2656 43.5687C63.2656 43.5007 63.2515 43.4346 63.2435 43.3686C63.2435 43.2485 63.2194 43.1284 63.2073 43.0083C63.2062 42.9883 63.2062 42.9683 63.2073 42.9483C63.2073 42.8802 63.1912 42.8102 63.1852 42.7381C63.1691 42.596 63.1571 42.4559 63.141 42.3138L63.1048 41.9455C63.0807 41.7173 63.0586 41.4872 63.0365 41.265C63.0205 41.0969 63.0044 40.9347 62.9903 40.7746C62.9903 40.7386 62.9903 40.7026 62.9803 40.6685C62.8959 39.7879 62.8296 39.0673 62.8055 38.7551C62.8055 38.7551 60.7964 35.7889 60.5955 34.3898C60.3946 32.9908 60.4067 31.5217 61.2485 30.9252C63.2415 29.5122 62.6548 31.7899 63.5509 32.7266C64.4469 33.6633 65.811 35.2144 66.5865 35.6968C67.362 36.1792 68.0411 38.1927 68.0411 38.1927C68.5976 39.8279 68.913 42.4319 69.2305 43.2185C69.5479 44.0051 69.801 44.1652 69.801 44.1652Z" fill="white"/>
<path d="M68.9141 42.1157C69.2492 42.3694 69.5146 42.7033 69.6855 43.0865" stroke="#263238" stroke-width="0.123235" stroke-linecap="round" stroke-linejoin="round"/>
<path opacity="0.8" d="M63.5194 32.7276C64.4074 33.6723 65.7715 35.2055 66.547 35.6939C66.4386 35.6398 65.0101 34.9473 64.2125 35.7179C63.3828 36.5185 62.7821 38.7502 62.7821 38.7502C62.7821 38.7502 60.773 35.7839 60.5721 34.3849C60.3712 32.9858 60.3832 31.5167 61.225 30.9203C63.21 29.5072 62.6274 31.7849 63.5194 32.7276Z" fill="#FFE4C8"/>
<path opacity="0.8" d="M64.202 49.5731L63.3079 50.4378C63.9207 48.8686 63.6234 46.4348 63.5852 46.1486C63.5876 46.1253 63.5876 46.1018 63.5852 46.0785C63.5223 45.783 63.4754 45.4844 63.4446 45.1838C63.4305 45.0858 63.4184 44.9837 63.4064 44.8716C63.3943 44.7595 63.3783 44.6474 63.3662 44.5274C63.3662 44.4733 63.3521 44.4133 63.3441 44.3552C63.3441 44.3312 63.3441 44.3072 63.3441 44.2852C63.32 44.057 63.2939 43.8188 63.2658 43.5686C63.2658 43.5006 63.2517 43.4345 63.2437 43.3685C63.2437 43.2484 63.2195 43.1283 63.2075 43.0082C63.2064 42.9882 63.2064 42.9682 63.2075 42.9482C63.2075 42.8801 63.1914 42.8101 63.1854 42.738C63.1693 42.5959 63.1573 42.4558 63.1412 42.3137L63.105 41.9454C63.0809 41.7172 63.0588 41.4871 63.0367 41.2649C63.0227 41.0968 63.0066 40.9327 62.9905 40.7745C62.9905 40.7385 62.9905 40.7025 62.9805 40.6685C63.0367 40.9307 64.0553 45.7603 64.6359 46.8871C64.8328 47.3074 64.6299 48.4043 64.202 49.5731Z" fill="#FFE4C8"/>
<path d="M69.8018 44.1659C69.8018 44.1659 69.5185 44.0038 69.1991 43.2192C68.8796 42.4346 68.5662 39.8287 68.0097 38.1934C68.0097 38.1934 67.3286 36.1919 66.5531 35.6976C65.7776 35.2032 64.4115 33.674 63.5194 32.7293C62.6274 31.7846 63.21 29.5069 61.217 30.928C60.3753 31.5284 60.3592 32.9955 60.5641 34.3926C60.769 35.7896 62.7741 38.7579 62.7741 38.7579C62.8585 39.7846 63.3888 45.4229 63.5676 46.0834" stroke="#263238" stroke-width="0.123235" stroke-linecap="round" stroke-linejoin="round"/>
<path d="M63.5766 46.0752C63.5766 46.0752 63.9282 48.6531 63.3496 49.746" stroke="#263238" stroke-width="0.123235" stroke-linecap="round" stroke-linejoin="round"/>
<path opacity="0.2" d="M29.2112 49.239C29.2112 49.239 30.483 55.1214 27.7286 59.4026C24.9741 63.6839 22.8546 64.8227 21.9023 66.0997C20.95 67.3766 17.2151 74.508 17.2151 74.508L12.8555 61.6483L17.2151 45.7344L29.2112 49.239Z" fill="black" fill-opacity="0.7"/>
<g clip-path="url(#clip2_67490_16543)">
<path d="M26.1987 25.1711L13.8242 30.1821L21.3557 48.7809L33.7302 43.7699L26.1987 25.1711Z" fill="white" stroke="#263238" stroke-width="0.123235" stroke-linecap="round" stroke-linejoin="round"/>
<path d="M15.2652 31.0721L18.4835 29.7613" stroke="#263238" stroke-width="0.24647" stroke-linecap="round" stroke-linejoin="round"/>
<path d="M15.5162 31.6899L17.7046 30.7976" stroke="#263238" stroke-width="0.24647" stroke-linecap="round" stroke-linejoin="round"/>
<path d="M16.8936 32.8294L26.1498 29.0581" stroke="#263238" stroke-width="0.24647" stroke-linecap="round" stroke-linejoin="round"/>
<path d="M17.1451 33.4456L26.4017 29.6758" stroke="#263238" stroke-width="0.24647" stroke-linecap="round" stroke-linejoin="round"/>
<path d="M17.4407 34.1664L25.3349 30.9515" stroke="#263238" stroke-width="0.24647" stroke-linecap="round" stroke-linejoin="round"/>
<path d="M18.5008 34.4995L17.748 34.8062L18.0547 35.5589L18.8075 35.2522L18.5008 34.4995Z" stroke="#263238" stroke-width="0.123235" stroke-linecap="round" stroke-linejoin="round"/>
<path d="M19.8641 33.9443L19.1113 34.251L19.418 35.0038L20.1708 34.6971L19.8641 33.9443Z" stroke="#263238" stroke-width="0.123235" stroke-linecap="round" stroke-linejoin="round"/>
<path d="M21.2313 33.3872L20.4785 33.6938L20.7852 34.4466L21.538 34.1399L21.2313 33.3872Z" stroke="#263238" stroke-width="0.123235" stroke-linecap="round" stroke-linejoin="round"/>
<path d="M22.5926 32.831L21.8398 33.1377L22.1465 33.8905L22.8993 33.5838L22.5926 32.831Z" stroke="#263238" stroke-width="0.123235" stroke-linecap="round" stroke-linejoin="round"/>
<path d="M16.404 33.0284C16.4196 33.0658 16.4238 33.1071 16.416 33.1468C16.4081 33.1866 16.3887 33.2232 16.36 33.2519C16.3313 33.2806 16.2948 33.3001 16.255 33.3079C16.2152 33.3158 16.174 33.3116 16.1366 33.296C16.0992 33.2803 16.0673 33.2539 16.0449 33.2201C16.0225 33.1863 16.0107 33.1466 16.011 33.106C16.0113 33.0655 16.0236 33.0259 16.0464 32.9924C16.0692 32.9589 16.1015 32.9329 16.1391 32.9177C16.1889 32.8977 16.2447 32.8981 16.2942 32.9188C16.3438 32.9395 16.3832 32.9789 16.404 33.0284Z" fill="#263238"/>
<path d="M18.3624 36.433L27.6185 32.6616" stroke="#263238" stroke-width="0.24647" stroke-linecap="round" stroke-linejoin="round"/>
<path d="M18.6139 37.0486L27.8705 33.2788" stroke="#263238" stroke-width="0.24647" stroke-linecap="round" stroke-linejoin="round"/>
<path d="M18.908 37.77L26.8016 34.5535" stroke="#263238" stroke-width="0.24647" stroke-linecap="round" stroke-linejoin="round"/>
<path d="M19.9676 38.1015L19.2148 38.4082L19.5215 39.161L20.2743 38.8543L19.9676 38.1015Z" stroke="#263238" stroke-width="0.123235" stroke-linecap="round" stroke-linejoin="round"/>
<path d="M21.3309 37.5473L20.5781 37.854L20.8848 38.6068L21.6376 38.3001L21.3309 37.5473Z" stroke="#263238" stroke-width="0.123235" stroke-linecap="round" stroke-linejoin="round"/>
<path d="M22.6961 36.9907L21.9434 37.2974L22.25 38.0501L23.0028 37.7435L22.6961 36.9907Z" stroke="#263238" stroke-width="0.123235" stroke-linecap="round" stroke-linejoin="round"/>
<path d="M24.0614 36.4355L23.3086 36.7422L23.6153 37.495L24.3681 37.1883L24.0614 36.4355Z" stroke="#263238" stroke-width="0.123235" stroke-linecap="round" stroke-linejoin="round"/>
<path d="M17.8694 36.6334C17.8848 36.6709 17.8886 36.7121 17.8805 36.7517C17.8724 36.7914 17.8528 36.8278 17.824 36.8563C17.7952 36.8847 17.7586 36.904 17.7188 36.9116C17.679 36.9193 17.6379 36.9149 17.6006 36.8992C17.5633 36.8834 17.5316 36.8569 17.5094 36.823C17.4871 36.7892 17.4755 36.7495 17.4759 36.709C17.4762 36.6685 17.4886 36.6291 17.5114 36.5956C17.5343 36.5622 17.5665 36.5363 17.6041 36.5212C17.6542 36.5011 17.7102 36.5016 17.7599 36.5226C17.8096 36.5436 17.849 36.5835 17.8694 36.6334Z" fill="#263238"/>
<path d="M19.8307 40.0349L29.0873 36.2651" stroke="#263238" stroke-width="0.24647" stroke-linecap="round" stroke-linejoin="round"/>
<path d="M20.0811 40.6537L29.3358 36.8828" stroke="#263238" stroke-width="0.24647" stroke-linecap="round" stroke-linejoin="round"/>
<path d="M20.3768 41.3745L28.2704 38.158" stroke="#263238" stroke-width="0.24647" stroke-linecap="round" stroke-linejoin="round"/>
<path d="M21.4364 41.706L20.6836 42.0127L20.9903 42.7655L21.7431 42.4588L21.4364 41.706Z" stroke="#263238" stroke-width="0.123235" stroke-linecap="round" stroke-linejoin="round"/>
<path d="M22.7997 41.1499L22.0469 41.4565L22.3536 42.2093L23.1063 41.9026L22.7997 41.1499Z" stroke="#263238" stroke-width="0.123235" stroke-linecap="round" stroke-linejoin="round"/>
<path d="M24.1668 40.5947L23.4141 40.9014L23.7207 41.6541L24.4735 41.3475L24.1668 40.5947Z" stroke="#263238" stroke-width="0.123235" stroke-linecap="round" stroke-linejoin="round"/>
<path d="M25.5301 40.0395L24.7773 40.3462L25.084 41.099L25.8368 40.7923L25.5301 40.0395Z" stroke="#263238" stroke-width="0.123235" stroke-linecap="round" stroke-linejoin="round"/>
<path d="M19.3382 40.236C19.3535 40.2734 19.3574 40.3146 19.3493 40.3543C19.3412 40.394 19.3215 40.4303 19.2927 40.4588C19.2639 40.4873 19.2273 40.5065 19.1876 40.5142C19.1478 40.5218 19.1067 40.5175 19.0694 40.5017C19.0321 40.4859 19.0003 40.4594 18.9781 40.4256C18.9559 40.3917 18.9442 40.352 18.9446 40.3116C18.945 40.2711 18.9574 40.2316 18.9802 40.1982C19.003 40.1647 19.0353 40.1388 19.0728 40.1237C19.1229 40.1036 19.1789 40.1041 19.2286 40.1252C19.2783 40.1462 19.3177 40.186 19.3382 40.236Z" fill="#263238"/>
<path d="M21.3385 43.7405L30.5936 39.9712" stroke="#263238" stroke-width="0.24647" stroke-linecap="round" stroke-linejoin="round"/>
<path d="M21.5904 44.3582L30.8455 40.5888" stroke="#263238" stroke-width="0.24647" stroke-linecap="round" stroke-linejoin="round"/>
<path d="M21.8841 45.0795L29.7782 41.8646" stroke="#263238" stroke-width="0.24647" stroke-linecap="round" stroke-linejoin="round"/>
<path d="M22.9461 45.4126L22.1934 45.7192L22.5 46.472L23.2528 46.1653L22.9461 45.4126Z" stroke="#263238" stroke-width="0.123235" stroke-linecap="round" stroke-linejoin="round"/>
<path d="M24.3094 44.8559L23.5566 45.1626L23.8633 45.9154L24.6161 45.6087L24.3094 44.8559Z" stroke="#263238" stroke-width="0.123235" stroke-linecap="round" stroke-linejoin="round"/>
<path d="M25.6727 44.3007L24.9199 44.6074L25.2266 45.3602L25.9794 45.0535L25.6727 44.3007Z" stroke="#263238" stroke-width="0.123235" stroke-linecap="round" stroke-linejoin="round"/>
<path d="M27.0379 43.7436L26.2852 44.0503L26.5918 44.8031L27.3446 44.4964L27.0379 43.7436Z" stroke="#263238" stroke-width="0.123235" stroke-linecap="round" stroke-linejoin="round"/>
<path d="M20.8523 43.9391C20.8675 43.9762 20.8713 44.017 20.8634 44.0563C20.8554 44.0956 20.8359 44.1316 20.8075 44.1599C20.779 44.1881 20.7428 44.2073 20.7035 44.215C20.6641 44.2227 20.6234 44.2186 20.5864 44.2031C20.5494 44.1876 20.5178 44.1616 20.4956 44.1282C20.4735 44.0947 20.4617 44.0555 20.4618 44.0154C20.4619 43.9753 20.4739 43.9362 20.4962 43.9029C20.5186 43.8696 20.5503 43.8437 20.5874 43.8284C20.6121 43.8183 20.6385 43.8131 20.6651 43.8132C20.6918 43.8132 20.7182 43.8186 20.7428 43.8288C20.7674 43.8391 20.7897 43.8542 20.8085 43.8731C20.8273 43.892 20.8422 43.9144 20.8523 43.9391Z" fill="#263238"/>
<path d="M18.14 34.9971L18.3122 35.1155L18.5013 34.5004" stroke="#263238" stroke-width="0.24647" stroke-linecap="round" stroke-linejoin="round"/>
<path d="M22.3158 37.4434L22.4884 37.5633L22.6771 36.9467" stroke="#263238" stroke-width="0.24647" stroke-linecap="round" stroke-linejoin="round"/>
<path d="M22.4505 41.6772L22.6247 41.7968L22.8119 41.1806" stroke="#263238" stroke-width="0.24647" stroke-linecap="round" stroke-linejoin="round"/>
<path d="M26.6615 44.249L26.8341 44.369L27.0228 43.7523" stroke="#263238" stroke-width="0.24647" stroke-linecap="round" stroke-linejoin="round"/>
</g>
<path d="M26.1907 46.8031C26.6608 45.2019 28.4931 40.0761 28.252 37.8084C28.2328 37.6196 28.1896 37.4339 28.1234 37.256C27.4805 35.5627 24.8526 35.7268 23.8441 37.1299C22.7351 38.673 21.835 41.4491 21.7526 43.1344C21.6822 43.9789 21.4063 44.7936 20.949 45.5082C20.792 45.7723 20.6147 46.0239 20.4186 46.2607L14.4256 32.1001C13.8203 32.6022 13.2918 33.1895 12.8565 33.8434C12.6115 34.208 12.4534 34.6235 12.3944 35.0583C12.2719 36.4594 10.6847 42.1917 10.0257 44.6115C10.0137 44.6635 9.99762 44.7116 9.98557 44.7616C9.3507 47.0874 11.0263 55.7259 10.5461 58.2337C10.0659 60.7416 9.7706 60.6876 9.70028 62.4689C9.65005 63.7699 7.78163 67.7269 5.68216 71.7879C4.47672 74.1137 3.20699 76.4734 2.15625 78.3929L17.4894 77.7584C17.7546 75.901 18.0278 73.9435 18.277 72.0461C18.3853 71.2569 18.5382 70.4744 18.735 69.7024C19.0726 68.3413 19.4844 67.1104 19.7396 66.3899C20.0649 65.3307 20.3331 64.2551 20.5432 63.1674C22.3252 61.288 24.6638 58.3318 25.3408 56.3303V56.3163C25.5069 55.9046 25.5596 55.4561 25.4935 55.0173C25.4187 54.6569 25.3777 54.2904 25.371 53.9225C25.3007 51.7449 25.7969 48.1361 26.1907 46.8031Z" fill="white"/>
<path opacity="0.8" d="M20.952 45.5202C20.4779 46.4709 19.9053 47.3956 19.5456 48.4604C19.186 49.5252 18.7862 49.6773 17.7134 50.5099C16.6405 51.3426 15.857 49.9715 15.857 49.9715C15.857 49.9715 17.2774 48.5004 16.8053 47.6838C16.3332 46.8672 14.5592 44.8357 14.6636 43.7068C14.7681 42.578 13.5928 40.0641 13.5928 40.0641C13.5928 40.0641 16.2709 38.4989 15.7505 36.6615C15.4673 35.6668 14.0609 34.602 12.8555 33.8434C13.2907 33.1895 13.8193 32.6022 14.4245 32.1001L20.4216 46.2728C20.6177 46.0359 20.795 45.7843 20.952 45.5202Z" fill="#FFE4C8"/>
<path opacity="0.8" d="M11.2285 54.2135C11.2647 54.3336 12.1366 57.2038 11.4013 58.3987C10.666 59.5936 9.91055 61.1768 10.2702 62.802C10.5555 64.099 8.14659 68.7825 5.6875 71.7887C7.78094 67.7277 9.64937 63.7707 9.70563 62.4697C9.77594 60.6884 10.0713 60.7424 10.5514 58.2346C11.0316 55.7267 9.346 47.0882 9.99091 44.7624C10.003 44.7124 10.019 44.6643 10.0311 44.6123C10.4992 47.2483 11.5901 52.4982 11.8895 54.1855C12.2632 56.3331 11.2687 54.2996 11.2285 54.2135Z" fill="#FFE4C8"/>
<path opacity="0.8" d="M16.75 71.5207C18.532 63.879 24.5291 58.0166 25.3408 56.3213C24.6637 58.3228 22.3272 61.279 20.5431 63.1584C20.333 64.2461 20.0648 65.3217 19.7395 66.3808C19.4884 67.1014 19.0765 68.3323 18.735 69.6933C16.9991 71.7389 16.75 71.5207 16.75 71.5207Z" fill="#FFE4C8"/>
<path opacity="0.8" d="M26.1904 46.8033C25.7885 48.1363 25.3003 51.745 25.3767 53.9126C25.0613 52.5496 24.4545 50.8223 24.3541 48.4145C24.1833 44.3314 26.5058 45.7965 25.6961 43.785C24.8865 41.7735 22.5781 44.3514 23.7152 40.0942C24.5469 36.9839 26.9096 37.0139 28.1231 37.2561C28.1893 37.4341 28.2325 37.6197 28.2517 37.8085C28.4927 40.0762 26.6605 45.2061 26.1904 46.8033Z" fill="#FFE4C8"/>
<path d="M20.4232 46.272C20.0597 46.9717 19.7637 47.7042 19.5392 48.4596C19.2881 49.4404 18.0163 49.3003 17.3594 49.9087" stroke="#263238" stroke-width="0.123235" stroke-linecap="round" stroke-linejoin="round"/>
<path d="M15.625 44.5469C15.625 44.5469 17.3568 45.1473 18.3634 45.9379C19.3699 46.7285 20.1153 46.9106 20.1153 46.9106" stroke="#263238" stroke-width="0.123235" stroke-linecap="round" stroke-linejoin="round"/>
<path d="M14.5234 40.2735C14.5234 40.2735 15.9197 40.6638 16.9544 40.1734C17.0012 39.674 17.0892 39.1793 17.2176 38.6943" stroke="#263238" stroke-width="0.123235" stroke-linecap="round" stroke-linejoin="round"/>
<path d="M17.2871 40.3745C17.2871 40.3745 17.3012 40.5747 18.0124 40.5747" stroke="#263238" stroke-width="0.123235" stroke-linecap="round" stroke-linejoin="round"/>
<path d="M20.5416 63.1616C19.5674 64.1387 18.8188 65.3155 18.3477 66.6102" stroke="#263238" stroke-width="0.123235" stroke-linecap="round" stroke-linejoin="round"/>
<path d="M9.90239 45.188C9.84011 46.3889 11.2525 50.6481 11.6824 52.7657C12.1124 54.8833 12.2711 56.3804 12.2711 56.3804" stroke="#263238" stroke-width="0.123235" stroke-linecap="round" stroke-linejoin="round"/>
<path d="M4.49414 74.1691C6.42686 70.6705 8.28524 67.0698 9.64136 63.1848C9.80409 62.6264 9.58712 61.8999 9.74985 61.3414C11.5701 56.2977 9.50474 51.0477 9.84428 45.8838C10.1276 43.8483 10.7805 41.7968 11.4355 39.7452C11.7428 38.2601 11.8574 36.6008 12.3496 35.1077C12.8559 33.9829 13.3541 32.6739 14.433 32.1055C16.4822 36.783 18.5254 41.4825 20.43 46.2781C21.2899 45.7838 21.4346 44.6769 21.5732 43.7482C22.0353 41.5205 22.5034 39.477 23.3492 37.6036C24.2091 36.0945 26.399 35.452 27.743 36.6849C28.1288 37.0695 28.3492 37.5884 28.3578 38.132C28.0966 40.7179 27.2809 43.3359 26.4592 45.7537C26.1358 46.8706 25.8063 47.8053 25.6677 48.9141C25.6837 49.2804 25.6898 49.4645 25.7058 49.8328C25.2297 51.6922 25.6677 53.3294 25.5592 55.1748C25.1433 58.5033 22.4712 60.8211 20.5365 63.2929C20.0604 65.1523 19.5822 67.0117 18.9293 68.8791C18.1256 71.6712 17.8685 74.4433 17.5932 77.1353" stroke="#263238" stroke-width="0.123235" stroke-linecap="round" stroke-linejoin="round"/>
<g clip-path="url(#clip3_67490_16543)">
<path d="M50.1315 20.8418H33.4805V45.9639H50.1315V20.8418Z" fill="white" stroke="#263238" stroke-width="0.123235" stroke-linecap="round" stroke-linejoin="round"/>
<path d="M34.7269 22.5517L39.0608 22.5429" stroke="#263238" stroke-width="0.24647" stroke-linecap="round" stroke-linejoin="round"/>
<path d="M34.7294 23.3876L37.6768 23.3806" stroke="#263238" stroke-width="0.24647" stroke-linecap="round" stroke-linejoin="round"/>
<path d="M35.7907 25.3574L48.2565 25.3306" stroke="#263238" stroke-width="0.24647" stroke-linecap="round" stroke-linejoin="round"/>
<path d="M35.7909 26.1909L48.2565 26.1661" stroke="#263238" stroke-width="0.24647" stroke-linecap="round" stroke-linejoin="round"/>
<path d="M35.7956 27.1646L46.4264 27.1434" stroke="#263238" stroke-width="0.24647" stroke-linecap="round" stroke-linejoin="round"/>
<path d="M36.8654 28.0506L35.8516 28.0527L35.8537 29.0704L36.8675 29.0683L36.8654 28.0506Z" stroke="#263238" stroke-width="0.123235" stroke-linecap="round" stroke-linejoin="round"/>
<path d="M38.6993 28.0452L37.6855 28.0474L37.6877 29.065L38.7015 29.0629L38.6993 28.0452Z" stroke="#263238" stroke-width="0.123235" stroke-linecap="round" stroke-linejoin="round"/>
<path d="M40.5392 28.0413L39.5254 28.0435L39.5275 29.0611L40.5413 29.059L40.5392 28.0413Z" stroke="#263238" stroke-width="0.123235" stroke-linecap="round" stroke-linejoin="round"/>
<path d="M42.3771 28.0379L41.3633 28.04L41.3654 29.0577L42.3792 29.0556L42.3771 28.0379Z" stroke="#263238" stroke-width="0.123235" stroke-linecap="round" stroke-linejoin="round"/>
<path d="M35.1275 25.3558C35.1281 25.4066 35.1136 25.4564 35.0859 25.4989C35.0582 25.5414 35.0186 25.5746 34.972 25.5944C34.9255 25.6143 34.8741 25.6197 34.8244 25.6101C34.7748 25.6006 34.7291 25.5764 34.6931 25.5406C34.6572 25.5049 34.6327 25.4593 34.6227 25.4095C34.6126 25.3598 34.6176 25.3081 34.6369 25.2612C34.6562 25.2143 34.6889 25.1742 34.731 25.146C34.773 25.1178 34.8225 25.1028 34.8731 25.1029C34.9401 25.103 35.0043 25.1297 35.052 25.177C35.0996 25.2243 35.1267 25.2886 35.1275 25.3558Z" fill="#263238"/>
<path d="M35.8005 30.2275L48.2663 30.2007" stroke="#263238" stroke-width="0.24647" stroke-linecap="round" stroke-linejoin="round"/>
<path d="M35.8026 31.0605L48.2683 31.0357" stroke="#263238" stroke-width="0.24647" stroke-linecap="round" stroke-linejoin="round"/>
<path d="M35.8052 32.0377L46.4362 32.0145" stroke="#263238" stroke-width="0.24647" stroke-linecap="round" stroke-linejoin="round"/>
<path d="M36.8751 32.9202L35.8613 32.9224L35.8635 33.94L36.8773 33.9379L36.8751 32.9202Z" stroke="#263238" stroke-width="0.123235" stroke-linecap="round" stroke-linejoin="round"/>
<path d="M38.7111 32.9178L37.6973 32.9199L37.6994 33.9376L38.7132 33.9355L38.7111 32.9178Z" stroke="#263238" stroke-width="0.123235" stroke-linecap="round" stroke-linejoin="round"/>
<path d="M40.549 32.9134L39.5352 32.9155L39.5373 33.9332L40.5511 33.9311L40.549 32.9134Z" stroke="#263238" stroke-width="0.123235" stroke-linecap="round" stroke-linejoin="round"/>
<path d="M42.3868 32.9095L41.373 32.9116L41.3752 33.9293L42.389 33.9272L42.3868 32.9095Z" stroke="#263238" stroke-width="0.123235" stroke-linecap="round" stroke-linejoin="round"/>
<path d="M35.1373 30.2289C35.1375 30.2796 35.1226 30.3292 35.0947 30.3715C35.0668 30.4137 35.027 30.4466 34.9804 30.4661C34.9338 30.4856 34.8825 30.4908 34.8329 30.481C34.7834 30.4712 34.7379 30.4468 34.7021 30.411C34.6664 30.3751 34.6421 30.3295 34.6322 30.2798C34.6224 30.23 34.6275 30.1785 34.6469 30.1317C34.6663 30.0849 34.6991 30.0449 34.7411 30.0168C34.7832 29.9888 34.8326 29.9739 34.8831 29.974C34.9504 29.9742 35.0149 30.0011 35.0625 30.0489C35.1101 30.0966 35.137 30.1613 35.1373 30.2289Z" fill="#263238"/>
<path d="M35.8104 35.0981L48.2761 35.0733" stroke="#263238" stroke-width="0.24647" stroke-linecap="round" stroke-linejoin="round"/>
<path d="M35.8122 35.9341L48.276 35.9071" stroke="#263238" stroke-width="0.24647" stroke-linecap="round" stroke-linejoin="round"/>
<path d="M35.8149 36.9083L46.4459 36.8851" stroke="#263238" stroke-width="0.24647" stroke-linecap="round" stroke-linejoin="round"/>
<path d="M36.8829 37.7923L35.8691 37.7944L35.8713 38.8121L36.8851 38.81L36.8829 37.7923Z" stroke="#263238" stroke-width="0.123235" stroke-linecap="round" stroke-linejoin="round"/>
<path d="M38.7208 37.7884L37.707 37.7905L37.7092 38.8082L38.723 38.8061L38.7208 37.7884Z" stroke="#263238" stroke-width="0.123235" stroke-linecap="round" stroke-linejoin="round"/>
<path d="M40.5607 37.7855L39.5469 37.7876L39.549 38.8053L40.5628 38.8031L40.5607 37.7855Z" stroke="#263238" stroke-width="0.123235" stroke-linecap="round" stroke-linejoin="round"/>
<path d="M42.3966 37.7811L41.3828 37.7832L41.3849 38.8009L42.3988 38.7987L42.3966 37.7811Z" stroke="#263238" stroke-width="0.123235" stroke-linecap="round" stroke-linejoin="round"/>
<path d="M35.147 35.101C35.1472 35.1517 35.1324 35.2013 35.1045 35.2435C35.0766 35.2858 35.0368 35.3187 34.9902 35.3382C34.9435 35.3577 34.8922 35.3629 34.8427 35.3531C34.7931 35.3432 34.7476 35.3189 34.7119 35.283C34.6762 35.2472 34.6518 35.2015 34.642 35.1518C34.6322 35.1021 34.6373 35.0506 34.6567 35.0038C34.676 34.957 34.7088 34.917 34.7509 34.8889C34.7929 34.8608 34.8423 34.8459 34.8928 34.8461C34.9601 34.8463 35.0246 34.8732 35.0723 34.9209C35.1199 34.9687 35.1468 35.0334 35.147 35.101Z" fill="#263238"/>
<path d="M35.8221 40.1079L48.2858 40.0829" stroke="#263238" stroke-width="0.24647" stroke-linecap="round" stroke-linejoin="round"/>
<path d="M35.8241 40.9438L48.2878 40.9188" stroke="#263238" stroke-width="0.24647" stroke-linecap="round" stroke-linejoin="round"/>
<path d="M35.8249 41.918L46.4557 41.8968" stroke="#263238" stroke-width="0.24647" stroke-linecap="round" stroke-linejoin="round"/>
<path d="M36.8966 42.8025L35.8828 42.8047L35.8849 43.8224L36.8987 43.8202L36.8966 42.8025Z" stroke="#263238" stroke-width="0.123235" stroke-linecap="round" stroke-linejoin="round"/>
<path d="M38.7326 42.7981L37.7188 42.8003L37.7209 43.818L38.7347 43.8158L38.7326 42.7981Z" stroke="#263238" stroke-width="0.123235" stroke-linecap="round" stroke-linejoin="round"/>
<path d="M40.5704 42.7938L39.5566 42.7959L39.5588 43.8136L40.5726 43.8114L40.5704 42.7938Z" stroke="#263238" stroke-width="0.123235" stroke-linecap="round" stroke-linejoin="round"/>
<path d="M42.4083 42.7898L41.3945 42.792L41.3967 43.8097L42.4105 43.8075L42.4083 42.7898Z" stroke="#263238" stroke-width="0.123235" stroke-linecap="round" stroke-linejoin="round"/>
<path d="M35.1667 40.1096C35.1669 40.1598 35.1522 40.2089 35.1246 40.2508C35.097 40.2926 35.0577 40.3253 35.0115 40.3447C34.9654 40.3641 34.9146 40.3694 34.8655 40.3598C34.8164 40.3502 34.7712 40.3263 34.7357 40.291C34.7002 40.2556 34.6759 40.2105 34.6659 40.1613C34.6559 40.1122 34.6606 40.0611 34.6795 40.0146C34.6984 39.9681 34.7306 39.9283 34.772 39.9002C34.8135 39.8721 34.8623 39.8569 34.9123 39.8566C34.9455 39.8564 34.9785 39.8628 35.0093 39.8755C35.0401 39.8881 35.0681 39.9067 35.0917 39.9301C35.1154 39.9536 35.1341 39.9816 35.147 40.0124C35.1599 40.0432 35.1665 40.0762 35.1667 40.1096Z" fill="#263238"/>
<path d="M36.2144 28.4575L36.358 28.6758L36.8646 28.0509" stroke="#263238" stroke-width="0.24647" stroke-linecap="round" stroke-linejoin="round"/>
<path d="M39.8999 33.2597L40.0433 33.4801L40.5502 32.8531" stroke="#263238" stroke-width="0.24647" stroke-linecap="round" stroke-linejoin="round"/>
<path d="M38.0718 38.2358L38.2172 38.4563L38.722 37.8292" stroke="#263238" stroke-width="0.24647" stroke-linecap="round" stroke-linejoin="round"/>
<path d="M41.7359 43.1977L41.8793 43.4181L42.3861 42.7911" stroke="#263238" stroke-width="0.24647" stroke-linecap="round" stroke-linejoin="round"/>
</g>
</g>
<defs>
<clipPath id="clip0_67490_16543">
<rect width="90" height="82.5" fill="white"/>
</clipPath>
<clipPath id="clip1_67490_16543">
<rect width="15.3676" height="21.4105" fill="white" transform="translate(52.9863 27.5005) rotate(2.78731)"/>
</clipPath>
<clipPath id="clip2_67490_16543">
<rect width="15.3676" height="21.4105" fill="white" transform="translate(12.6367 29.938) rotate(-22.0453)"/>
</clipPath>
<clipPath id="clip3_67490_16543">
<rect width="19.1667" height="26.8056" fill="white" transform="translate(32.2227 20)"/>
</clipPath>
</defs>
</svg>
