<svg width="46" height="1" viewBox="0 0 46 1" fill="none" xmlns="http://www.w3.org/2000/svg">
<path d="M45.6867 0.589248H0.312533C0.272399 0.591672 0.232194 0.585859 0.194389 0.572162C0.156585 0.558465 0.121982 0.537176 0.0927066 0.509605C0.0634316 0.482033 0.0401127 0.448763 0.0241678 0.411838C0.00822291 0.374914 0 0.335115 0 0.294892C0 0.254669 0.00822291 0.21487 0.0241678 0.177946C0.0401127 0.141021 0.0634316 0.107751 0.0927066 0.0801793C0.121982 0.0526079 0.156585 0.0313186 0.194389 0.017622C0.232194 0.0039255 0.272399 -0.00188817 0.312533 0.000536259H45.6867C45.7269 -0.00188817 45.7671 0.0039255 45.8049 0.017622C45.8427 0.0313186 45.8773 0.0526079 45.9066 0.0801793C45.9358 0.107751 45.9592 0.141021 45.9751 0.177946C45.9911 0.21487 45.9993 0.254669 45.9993 0.294892C45.9993 0.335115 45.9911 0.374914 45.9751 0.411838C45.9592 0.448763 45.9358 0.482033 45.9066 0.509605C45.8773 0.537176 45.8427 0.558465 45.8049 0.572162C45.7671 0.585859 45.7269 0.591672 45.6867 0.589248Z" fill="#90B9E7"/>
</svg>
