<svg width="54" height="37" viewBox="0 0 54 37" fill="none" xmlns="http://www.w3.org/2000/svg">
<path d="M4.11126 36.9995L47.7629 36.1102C48.6166 36.0927 49.433 35.7574 50.0528 35.17C50.6726 34.5826 51.0512 33.7851 51.1148 32.9334L53.2714 3.68394C53.3062 3.21292 53.2435 2.73979 53.087 2.29416C52.9306 1.84854 52.6839 1.44003 52.3623 1.0942C52.0408 0.748377 51.6513 0.472693 51.2183 0.284411C50.7853 0.0961292 50.3181 -0.000694321 49.846 3.74791e-06L3.42616 0.0608502C2.97017 0.0614664 2.51889 0.153007 2.09868 0.330121C1.67847 0.507234 1.29777 0.766368 0.97884 1.09237C0.659905 1.41838 0.409128 1.80471 0.241182 2.22879C0.0732348 2.65287 -0.00851806 3.10619 0.000701368 3.56224L0.614296 33.6379C0.632793 34.5474 1.01151 35.4124 1.66723 36.0427C2.32295 36.6731 3.20203 37.0172 4.11126 36.9995Z" fill="#90B9E7"/>
</svg>
