<svg width="2" height="4" viewBox="0 0 2 4" fill="none" xmlns="http://www.w3.org/2000/svg">
<path opacity="0.81" d="M0.309098 3.99985C0.262364 3.99989 0.21623 3.98932 0.174174 3.96893C0.132118 3.94854 0.0952359 3.91888 0.0663039 3.88217C0.0373719 3.84545 0.0171454 3.80264 0.00714874 3.75698C-0.00284791 3.71131 -0.0023543 3.66397 0.00859227 3.61852L0.804374 0.254713C0.811728 0.213464 0.827393 0.17414 0.850414 0.139138C0.873436 0.104135 0.903331 0.0741829 0.938287 0.0511014C0.973244 0.02802 1.01253 0.0122924 1.05375 0.00487483C1.09498 -0.00254273 1.13727 -0.0014823 1.17808 0.00796679C1.21888 0.0174159 1.25735 0.0350671 1.29112 0.0598507C1.32489 0.0846343 1.35327 0.116017 1.37453 0.152117C1.39579 0.188217 1.40949 0.228271 1.41479 0.269833C1.4201 0.311395 1.4169 0.3536 1.40538 0.393885L0.609603 3.75908C0.593937 3.82721 0.555742 3.88804 0.501202 3.93174C0.446663 3.97544 0.378973 3.99943 0.309098 3.99985Z" fill="white"/>
</svg>
