<svg width="13" height="1" viewBox="0 0 13 1" fill="none" xmlns="http://www.w3.org/2000/svg">
<path d="M0.283972 0.568139H12.7159C12.7912 0.568139 12.8635 0.53821 12.9167 0.484937C12.97 0.431663 12.9999 0.359413 12.9999 0.284073C12.9999 0.208733 12.97 0.136476 12.9167 0.083202C12.8635 0.0299285 12.7912 1.79625e-08 12.7159 0H0.283972C0.246681 -8.89414e-09 0.209753 0.00734641 0.1753 0.0216223C0.140847 0.0358981 0.109549 0.0568237 0.0831797 0.083202C0.0568107 0.10958 0.0358926 0.140897 0.0216218 0.175362C0.00735101 0.209827 0 0.246768 0 0.284073C0 0.321378 0.00735101 0.358312 0.0216218 0.392777C0.0358926 0.427242 0.0568107 0.458559 0.0831797 0.484937C0.109549 0.511315 0.140847 0.532241 0.1753 0.546517C0.209753 0.560793 0.246681 0.568139 0.283972 0.568139Z" fill="#90B9E7"/>
</svg>
