<svg width="27" height="2" viewBox="0 0 27 2" fill="none" xmlns="http://www.w3.org/2000/svg">
<path d="M26.9999 0.46395V0.642877C27.0016 0.705203 26.991 0.767251 26.9685 0.825418C26.9461 0.883586 26.9123 0.936715 26.8692 0.981724C26.8261 1.02673 26.7744 1.06272 26.7173 1.08761C26.6601 1.1125 26.5986 1.12578 26.5363 1.12669L0.483799 1.65759C0.421396 1.65931 0.359274 1.6486 0.301049 1.62608C0.242824 1.60355 0.189654 1.56967 0.144645 1.5264C0.099635 1.48313 0.0636845 1.43133 0.0388761 1.37403C0.0140678 1.31672 0.000905075 1.25506 0.00014848 1.19261V1.01368C-0.00141391 0.951454 0.00936685 0.889535 0.0318804 0.831504C0.054394 0.773473 0.0881969 0.720483 0.131314 0.6756C0.174431 0.630718 0.226009 0.594832 0.283079 0.57002C0.340149 0.545208 0.401568 0.53196 0.463789 0.531046L26.5175 0.000148446C26.5797 -0.00141446 26.6416 0.00937707 26.6996 0.0318982C26.7576 0.0544193 26.8106 0.0882226 26.8554 0.131354C26.9003 0.174485 26.9362 0.226087 26.961 0.283176C26.9858 0.340265 26.999 0.401709 26.9999 0.46395Z" fill="#7D97F4"/>
</svg>
