<svg width="7" height="7" viewBox="0 0 7 7" fill="none" xmlns="http://www.w3.org/2000/svg">
<path d="M3.5023 6.99997C2.93362 6.99935 2.37363 6.86035 1.87061 6.59499C1.3676 6.32962 0.936648 5.94584 0.614946 5.47674C0.293243 5.00764 0.0904284 4.46731 0.0240016 3.90233C-0.0424251 3.33735 0.0295293 2.76468 0.23365 2.23372C0.463983 1.64 0.851891 1.1204 1.35558 0.730902C1.85927 0.341402 2.45966 0.0967628 3.09206 0.0233397C3.72445 -0.0500834 4.36489 0.0504933 4.94437 0.314234C5.52386 0.577974 6.02041 0.994881 6.38056 1.52004C6.74071 2.0452 6.9508 2.65871 6.98819 3.29447C7.02557 3.93023 6.88883 4.56414 6.59271 5.12792C6.29659 5.6917 5.85231 6.16397 5.30774 6.49385C4.76316 6.82373 4.13894 6.99872 3.5023 6.99997ZM0.740475 2.42966C0.530073 2.97563 0.486223 3.57175 0.614482 4.14265C0.742741 4.71355 1.03735 5.23359 1.46104 5.637C1.88474 6.04042 2.41849 6.30911 2.99483 6.40909C3.57117 6.50907 4.16419 6.43586 4.69894 6.1987C5.23368 5.96155 5.68612 5.57111 5.99904 5.07674C6.31197 4.58238 6.47135 4.0063 6.457 3.42133C6.44266 2.83637 6.25524 2.2688 5.91845 1.79038C5.58166 1.31196 5.11063 0.944185 4.5649 0.733548C3.83285 0.452034 3.01905 0.472505 2.30207 0.790482C1.58509 1.10846 1.02349 1.69797 0.740475 2.42966Z" fill="#90B9E7"/>
</svg>
