<svg width="8" height="14" viewBox="0 0 8 14" fill="none" xmlns="http://www.w3.org/2000/svg">
<path d="M0.245375 14.0001C0.180298 14.0001 0.117885 13.9742 0.0718686 13.9282C0.0258519 13.8822 0 13.8197 0 13.7546V2.38716C0 1.09351 1.00581 0 2.19732 0H7.12029C7.18537 0 7.24778 0.0258592 7.2938 0.071892C7.33982 0.117925 7.36567 0.180357 7.36567 0.245457C7.36567 0.310558 7.33982 0.372997 7.2938 0.419029C7.24778 0.465062 7.18537 0.490922 7.12029 0.490922H2.19732C1.28877 0.490922 0.491855 1.37546 0.491855 2.38716V13.7546C0.491855 13.787 0.485472 13.819 0.473072 13.8488C0.460671 13.8787 0.442499 13.9058 0.419596 13.9286C0.396694 13.9514 0.369514 13.9695 0.339616 13.9817C0.309718 13.994 0.277691 14.0002 0.245375 14.0001Z" fill="#90B9E7"/>
</svg>
