<svg width="57" height="34" viewBox="0 0 57 34" fill="none" xmlns="http://www.w3.org/2000/svg">
<path d="M56.0637 33.0288C56.0601 33.289 55.9536 33.5372 55.7677 33.7192C55.5818 33.9011 55.3314 34.0021 55.0713 34.0001H1.43772C1.17771 34.0021 0.927486 33.9011 0.74173 33.7191C0.555975 33.5371 0.449799 33.2889 0.446411 33.0288L0 2.82927C0 2.29382 0.64232 1.25183 1.8199 1.33L54.232 0.00100997C54.5693 -0.00853577 54.9051 0.0496659 55.2195 0.172169C55.534 0.294673 55.8207 0.478988 56.0626 0.71423C56.3016 0.946327 56.4901 1.22522 56.6165 1.53348C56.7429 1.84175 56.8043 2.17277 56.797 2.50586L56.0637 33.0288Z" fill="#20446C"/>
</svg>
