<svg width="37" height="5" viewBox="0 0 37 5" fill="none" xmlns="http://www.w3.org/2000/svg">
<path d="M20.133 0.000177055L21.1799 1.92083L18.9792 3.84126L20.133 0.000177055Z" fill="#2B8B4B"/>
<path d="M19.3977 0.000177055L20.4436 1.92083L18.242 3.84126L19.3977 0.000177055Z" fill="#D9782D"/>
<path d="M4.50258 2.7879C4.42218 2.94404 4.25973 3.05715 4.06586 3.07985H3.9224H1.10938L1.34731 2.29438H3.51779H4.18729H4.33216C4.44093 2.31925 4.52626 2.39862 4.55111 2.49918C4.55439 2.52189 4.5565 2.5446 4.5565 2.56817C4.5565 2.58007 4.5558 2.59196 4.55463 2.60364C4.55439 2.60861 4.55439 2.61337 4.55392 2.61834L4.50258 2.7879ZM1.81193 0.757818H3.9803H4.65941H4.80241C4.88445 0.776417 4.95314 0.825726 4.99299 0.891686C5.00752 0.937967 5.01573 0.986627 5.01573 1.0368C5.01573 1.06405 5.01291 1.09022 5.00846 1.11639L5.00072 1.14147L4.97189 1.23749C4.895 1.40467 4.72528 1.52642 4.52228 1.54913H4.38444H1.57259L1.81193 0.757818ZM4.92688 3.71589C5.02956 3.64301 5.0973 3.55283 5.12989 3.44534L5.478 2.29438C5.50988 2.18971 5.49581 2.1019 5.43651 2.03097C5.3772 1.96003 5.28953 1.92457 5.17372 1.92457C5.28953 1.92457 5.399 1.88823 5.50214 1.81535C5.60458 1.74247 5.6721 1.6538 5.70374 1.54913L6.05139 0.399684C6.08538 0.287875 6.07389 0.195746 6.0174 0.122432C5.9609 0.0493346 5.87253 0.0125694 5.75227 0.0125694H1.21159L0.0577783 3.82532H4.5987C4.7145 3.82532 4.82397 3.78877 4.92688 3.71589Z" fill="#6D6E71"/>
<path d="M10.8099 0.0145873L10.3535 1.54596H7.07769L7.53434 0.0145873H6.71997L5.58656 3.81436H6.40116L6.85617 2.28969H10.1315L9.67693 3.81436H10.4915L11.6247 0.0145873H10.8099Z" fill="#6D6E71"/>
<path d="M11.8576 3.82532H11.0376L12.1778 0.0264113H12.9976L11.8576 3.82532Z" fill="#6D6E71"/>
<path d="M18.7016 0.0230025L15.2995 2.68306L14.1128 0.863624L13.5643 0.0230025H13.5495L13.2912 0.886332L12.4163 3.81088H13.231L13.8442 1.76091L15.1436 3.81586L17.2946 1.99707L16.7552 3.81088H17.57L18.3649 1.15234L18.703 0.0230025H18.7016Z" fill="#6D6E71"/>
<path d="M0.187066 4.49069H0.227151C0.277083 4.49069 0.314121 4.48463 0.338031 4.47274C0.361708 4.46084 0.377414 4.44095 0.384681 4.41283C0.392651 4.38191 0.388431 4.36028 0.372725 4.34795C0.356785 4.33541 0.322091 4.32936 0.269112 4.32936H0.229027L0.187066 4.49069ZM0.122835 4.73896H0.158936C0.195505 4.73896 0.223166 4.73788 0.242154 4.73528C0.260908 4.73269 0.276614 4.72836 0.289038 4.72166C0.303806 4.71431 0.316465 4.70414 0.326779 4.69182C0.337094 4.67927 0.344126 4.66565 0.348111 4.65029C0.352565 4.63234 0.352331 4.61677 0.347408 4.60336C0.342251 4.59017 0.332874 4.57979 0.318809 4.57244C0.309901 4.5679 0.299352 4.56487 0.287163 4.56271C0.274738 4.56076 0.258329 4.55968 0.236997 4.55968H0.205351H0.16925L0.122835 4.73896ZM0 4.81552L0.145808 4.25323H0.308729C0.354909 4.25323 0.388666 4.25539 0.409763 4.25993C0.430861 4.26404 0.447739 4.2714 0.460867 4.28134C0.47751 4.2941 0.488762 4.31097 0.494388 4.33173C0.500014 4.35228 0.499546 4.37542 0.493216 4.40029C0.485012 4.43035 0.470947 4.45544 0.449849 4.47555C0.428517 4.49545 0.402028 4.5095 0.369678 4.51751C0.406013 4.52248 0.431799 4.53762 0.446801 4.56227C0.462039 4.58693 0.464852 4.61807 0.455006 4.6557C0.449146 4.67841 0.438831 4.70025 0.424532 4.72036C0.409998 4.74112 0.392651 4.75842 0.372022 4.77291C0.350455 4.78849 0.325842 4.79952 0.297946 4.806C0.27005 4.81227 0.225276 4.81552 0.163624 4.81552H0Z" fill="#434244"/>
<path d="M0.792957 4.81552L0.938765 4.25323H1.04355L0.989868 4.46063H1.30704L1.36095 4.25323H1.46597L1.32016 4.81552H1.21514L1.28617 4.54238H0.968536L0.897742 4.81552H0.792957Z" fill="#434244"/>
<path d="M1.93472 4.59471H2.11475L2.08194 4.46647C2.08006 4.45825 2.07865 4.44895 2.07725 4.43814C2.07608 4.42776 2.0749 4.41586 2.0742 4.40267C2.06717 4.415 2.06084 4.42667 2.05404 4.43706C2.04724 4.44765 2.04068 4.4576 2.03435 4.46647L1.93472 4.59471ZM2.1675 4.81552L2.1321 4.67084H1.87635L1.76383 4.81552H1.65365L2.1178 4.23117L2.27838 4.81552H2.1675Z" fill="#434244"/>
<path d="M2.80045 4.49285H2.81944C2.87499 4.49285 2.9132 4.48745 2.93454 4.4762C2.95563 4.46474 2.96993 4.44462 2.97743 4.41629C2.9854 4.38515 2.98118 4.36331 2.96501 4.35077C2.94883 4.33801 2.91414 4.33173 2.8614 4.33173H2.84241L2.80045 4.49285ZM2.7756 4.564L2.7102 4.81552H2.61198L2.75778 4.25345H2.90406C2.94696 4.25345 2.97978 4.25583 3.00205 4.26058C3.02455 4.26534 3.0426 4.27356 3.05643 4.2848C3.07284 4.29843 3.08386 4.31616 3.08902 4.33736C3.09441 4.35898 3.09371 4.38234 3.08714 4.40808C3.07542 4.45306 3.05362 4.48831 3.02197 4.51405C2.99056 4.53935 2.94977 4.5547 2.89961 4.55989L3.0555 4.81552H2.93688L2.78732 4.564H2.7756Z" fill="#434244"/>
<path d="M3.58041 4.59471H3.76044L3.72762 4.46647C3.72574 4.45825 3.7241 4.44895 3.72293 4.43814C3.72176 4.42776 3.72059 4.41586 3.71988 4.40267C3.71285 4.415 3.70629 4.42667 3.69972 4.43706C3.69269 4.44765 3.68613 4.4576 3.68003 4.46647L3.58041 4.59471ZM3.81318 4.81552L3.77779 4.67084H3.52203L3.40951 4.81552H3.29934L3.76349 4.23117L3.92383 4.81552H3.81318Z" fill="#434244"/>
<path d="M4.54423 4.33087L4.41835 4.81552H4.31357L4.43922 4.33087H4.26762L4.28778 4.25345H4.73482L4.71489 4.33087H4.54423Z" fill="#434244"/>
<path d="M5.48893 4.81552L5.63474 4.25323H5.73953L5.59372 4.81552H5.48893Z" fill="#434244"/>
<path d="M6.01691 4.81609L6.16834 4.23174L6.48926 4.57539C6.49793 4.58512 6.50661 4.59528 6.51505 4.60631C6.52372 4.61734 6.53239 4.62989 6.54154 4.64351L6.64257 4.2538H6.73962L6.58819 4.83793L6.2607 4.48802C6.2518 4.4785 6.24383 4.46877 6.23609 4.45817C6.22812 4.44757 6.22109 4.43655 6.21476 4.42508L6.11325 4.81609H6.01691Z" fill="#434244"/>
<path d="M7.34923 4.33087L7.22359 4.81552H7.1188L7.24445 4.33087H7.07286L7.09302 4.25345H7.53982L7.52013 4.33087H7.34923Z" fill="#434244"/>
<path d="M7.74627 4.81552L7.89208 4.25323H8.25215L8.23199 4.33087H7.9767L7.94014 4.47187H8.19542L8.17455 4.55211H7.91927L7.87215 4.73377H8.12744L8.10634 4.81552H7.74627Z" fill="#434244"/>
<path d="M8.68785 4.49285H8.70684C8.7624 4.49285 8.80061 4.48745 8.82194 4.4762C8.84304 4.46474 8.85734 4.44462 8.86484 4.41629C8.87281 4.38515 8.86859 4.36331 8.85241 4.35077C8.83624 4.33801 8.80155 4.33173 8.7488 4.33173H8.72981L8.68785 4.49285ZM8.663 4.564L8.5976 4.81552H8.49938L8.64519 4.25345H8.79147C8.83436 4.25345 8.86718 4.25583 8.88945 4.26058C8.91196 4.26534 8.93001 4.27356 8.94384 4.2848C8.96025 4.29843 8.97126 4.31616 8.97642 4.33736C8.98181 4.35898 8.98111 4.38234 8.97455 4.40808C8.96283 4.45306 8.94102 4.48831 8.90938 4.51405C8.87797 4.53935 8.83718 4.5547 8.78701 4.55989L8.9429 4.81552H8.82428L8.67473 4.564H8.663Z" fill="#434244"/>
<path d="M9.2764 4.81552L9.42221 4.25323H9.78227L9.76211 4.33087H9.50683L9.47073 4.47101H9.72601L9.70515 4.55124H9.44987L9.38118 4.81552H9.2764Z" fill="#434244"/>
<path d="M10.1873 4.59471H10.3671L10.3343 4.46647C10.3324 4.45825 10.331 4.44895 10.3296 4.43814C10.3284 4.42776 10.3272 4.41586 10.3265 4.40267C10.3197 4.415 10.3132 4.42667 10.3064 4.43706C10.2996 4.44765 10.293 4.4576 10.2867 4.46647L10.1873 4.59471ZM10.4201 4.81552L10.3844 4.67084H10.1287L10.0164 4.81552H9.90598L10.3701 4.23117L10.5307 4.81552H10.4201Z" fill="#434244"/>
<path d="M11.4755 4.38893C11.4514 4.36687 11.4244 4.35044 11.3942 4.33941C11.364 4.3286 11.3309 4.32276 11.2946 4.32276C11.224 4.32276 11.1612 4.34265 11.1068 4.38223C11.0524 4.42137 11.017 4.47263 11.0008 4.53535C10.9849 4.5959 10.9936 4.64586 11.0264 4.68543C11.0592 4.72501 11.1084 4.74469 11.1741 4.74469C11.2121 4.74469 11.25 4.73863 11.2875 4.72674C11.325 4.71506 11.363 4.69733 11.401 4.67332L11.374 4.77691C11.3412 4.79443 11.307 4.80784 11.2716 4.81649C11.2362 4.82514 11.1989 4.82947 11.1602 4.82947C11.1108 4.82947 11.0672 4.82233 11.029 4.80827C10.9908 4.79421 10.9594 4.77345 10.9345 4.74599C10.9101 4.71917 10.8944 4.6876 10.8867 4.65105C10.8794 4.61471 10.8811 4.57557 10.8916 4.53448C10.9024 4.49317 10.9209 4.45468 10.9472 4.41835C10.9734 4.38223 11.0062 4.35022 11.0454 4.32276C11.0845 4.29529 11.1267 4.27453 11.1717 4.26004C11.2167 4.24598 11.2636 4.23885 11.3119 4.23885C11.3497 4.23885 11.3846 4.2436 11.4165 4.25334C11.4483 4.26285 11.4779 4.27734 11.5053 4.2968L11.4755 4.38893Z" fill="#434244"/>
<path d="M11.7688 4.81552L11.9146 4.25323H12.2747L12.2545 4.33087H11.9993L11.9629 4.47187H12.2182L12.1973 4.55211H11.9421L11.895 4.73377H12.1502L12.1289 4.81552H11.7688Z" fill="#434244"/>
<path d="M13.0678 4.81552L13.2137 4.25323H13.5737L13.5536 4.33087H13.2983L13.2619 4.47101H13.5172L13.4964 4.55124H13.2411L13.1726 4.81552H13.0678Z" fill="#434244"/>
<path d="M14.4383 4.53448C14.4458 4.50615 14.4467 4.47912 14.4415 4.4536C14.4361 4.42808 14.4251 4.40515 14.408 4.38526C14.3914 4.36558 14.37 4.35022 14.3443 4.33984C14.3182 4.32924 14.2894 4.32362 14.2575 4.32362C14.2261 4.32362 14.1945 4.32903 14.163 4.33963C14.1316 4.35001 14.1021 4.36514 14.0747 4.38526C14.0472 4.40472 14.0243 4.42765 14.0058 4.45316C13.9875 4.47868 13.9746 4.50593 13.9671 4.53448C13.9598 4.56303 13.9586 4.58984 13.964 4.61515C13.9692 4.64045 13.9802 4.66316 13.9973 4.68305C14.0144 4.70295 14.036 4.71852 14.0618 4.72869C14.0876 4.73928 14.1164 4.74469 14.1485 4.74469C14.1799 4.74469 14.2111 4.73928 14.2423 4.72869C14.2735 4.71852 14.3028 4.70295 14.3307 4.68305C14.3581 4.66316 14.3813 4.64045 14.3996 4.61493C14.4181 4.58963 14.4312 4.56281 14.4383 4.53448ZM14.5477 4.53448C14.5374 4.57449 14.5191 4.61212 14.4924 4.6478C14.4662 4.68327 14.4329 4.71506 14.3928 4.74296C14.3522 4.77107 14.3091 4.79227 14.2636 4.80719C14.2181 4.8219 14.1722 4.82947 14.1265 4.82947C14.0801 4.82947 14.0376 4.8219 13.9994 4.80697C13.9612 4.79184 13.9293 4.77064 13.9043 4.74296C13.8785 4.71506 13.8618 4.68349 13.8539 4.64824C13.8461 4.61277 13.8473 4.57492 13.8578 4.53448C13.8682 4.49425 13.8864 4.45662 13.9129 4.42094C13.9392 4.38526 13.9725 4.35347 14.0128 4.32514C14.0526 4.29724 14.0955 4.27626 14.141 4.26155C14.1867 4.24685 14.2327 4.23971 14.2793 4.23971C14.326 4.23971 14.3679 4.24685 14.4059 4.26155C14.4436 4.27626 14.4753 4.29724 14.5011 4.32514C14.5266 4.35368 14.5433 4.38591 14.5512 4.42159C14.5592 4.45727 14.558 4.49469 14.5477 4.53448Z" fill="#434244"/>
<path d="M15.0576 4.49285H15.0766C15.132 4.49285 15.1704 4.48745 15.1915 4.4762C15.2126 4.46474 15.2271 4.44462 15.2344 4.41629C15.2424 4.38515 15.2384 4.36331 15.222 4.35077C15.2058 4.33801 15.1711 4.33173 15.1184 4.33173H15.0994L15.0576 4.49285ZM15.0326 4.564L14.9672 4.81552H14.8689L15.0147 4.25345H15.161C15.2039 4.25345 15.2367 4.25583 15.259 4.26058C15.2815 4.26534 15.2996 4.27356 15.3136 4.2848C15.3298 4.29843 15.3408 4.31616 15.346 4.33736C15.3514 4.35898 15.3507 4.38234 15.3441 4.40808C15.3324 4.45306 15.3106 4.48831 15.2792 4.51405C15.2478 4.53935 15.2067 4.5547 15.1566 4.55989L15.3125 4.81552H15.1938L15.0443 4.564H15.0326Z" fill="#434244"/>
<path d="M16.7905 4.53754C16.7905 4.53322 16.7916 4.52132 16.7942 4.50142C16.7958 4.4852 16.7975 4.47158 16.7984 4.46077C16.7926 4.47353 16.7855 4.4865 16.7773 4.49905C16.7691 4.51202 16.7597 4.525 16.7487 4.53841L16.5024 4.83793L16.4128 4.53235C16.4088 4.51959 16.406 4.50748 16.4041 4.4958C16.402 4.48391 16.4004 4.47223 16.3994 4.46077C16.3962 4.47245 16.3919 4.48499 16.3865 4.49775C16.3814 4.51072 16.3751 4.52413 16.3676 4.53841L16.2267 4.81522H16.1301L16.4344 4.22915L16.5328 4.58404C16.5342 4.58966 16.5363 4.59896 16.5392 4.61215C16.5415 4.62513 16.5448 4.64113 16.5483 4.66038C16.5588 4.64438 16.5736 4.62383 16.5933 4.59896C16.5987 4.59247 16.6024 4.58728 16.6053 4.58361L16.8833 4.22915L16.8873 4.81522H16.79L16.7905 4.53754Z" fill="#434244"/>
<path d="M17.8652 4.53448C17.8725 4.50615 17.8737 4.47912 17.8685 4.4536C17.8631 4.42808 17.8519 4.40515 17.8347 4.38526C17.8181 4.36558 17.7968 4.35022 17.771 4.33984C17.745 4.32924 17.7161 4.32362 17.6845 4.32362C17.6528 4.32362 17.6212 4.32903 17.5898 4.33963C17.5584 4.35001 17.5288 4.36514 17.5014 4.38526C17.474 4.40472 17.451 4.42765 17.4327 4.45316C17.4142 4.47868 17.4013 4.50593 17.3938 4.53448C17.3865 4.56303 17.3854 4.58984 17.3908 4.61515C17.3959 4.64045 17.4069 4.66316 17.4243 4.68305C17.4412 4.70295 17.4627 4.71852 17.4887 4.72869C17.5143 4.73928 17.5434 4.74469 17.5755 4.74469C17.6067 4.74469 17.6378 4.73928 17.669 4.72869C17.7002 4.71852 17.7295 4.70295 17.7574 4.68305C17.7848 4.66316 17.808 4.64045 17.8265 4.61493C17.8451 4.58963 17.858 4.56281 17.8652 4.53448ZM17.9745 4.53448C17.9641 4.57449 17.9459 4.61212 17.9191 4.6478C17.8929 4.68327 17.8598 4.71506 17.8195 4.74296C17.7792 4.77107 17.7361 4.79227 17.6903 4.80719C17.6449 4.8219 17.5992 4.82947 17.5532 4.82947C17.5068 4.82947 17.4644 4.8219 17.4262 4.80697C17.3879 4.79184 17.3561 4.77064 17.3312 4.74296C17.3052 4.71506 17.2886 4.68349 17.2808 4.64824C17.2728 4.61277 17.2743 4.57492 17.2846 4.53448C17.2949 4.49425 17.3134 4.45662 17.3397 4.42094C17.3659 4.38526 17.3992 4.35347 17.4395 4.32514C17.4794 4.29724 17.5225 4.27626 17.568 4.26155C17.6135 4.24685 17.6596 4.23971 17.7063 4.23971C17.7529 4.23971 17.7949 4.24685 17.8326 4.26155C17.8704 4.27626 17.9023 4.29724 17.928 4.32514C17.9534 4.35368 17.97 4.38591 17.978 4.42159C17.9862 4.45727 17.9848 4.49469 17.9745 4.53448Z" fill="#434244"/>
<path d="M18.2978 4.81609L18.4492 4.23174L18.7704 4.57539C18.7788 4.58512 18.7875 4.59528 18.7961 4.60631C18.8046 4.61734 18.8135 4.62989 18.8224 4.64351L18.9237 4.2538H19.0205L18.8693 4.83793L18.5416 4.48802C18.5327 4.4785 18.5247 4.46877 18.517 4.45817C18.509 4.44757 18.5022 4.43655 18.4956 4.42508L18.3941 4.81609H18.2978Z" fill="#434244"/>
<path d="M19.294 4.81552L19.4398 4.25323H19.7998L19.7797 4.33087H19.5244L19.4878 4.47187H19.7431L19.7222 4.55211H19.467L19.4198 4.73377H19.6751L19.654 4.81552H19.294Z" fill="#434244"/>
<path d="M20.1863 4.81552L20.2531 4.55816L20.1148 4.25323H20.225L20.3108 4.44398C20.3127 4.44917 20.3152 4.45544 20.318 4.46322C20.3206 4.47123 20.3234 4.47988 20.3262 4.48896C20.3323 4.48009 20.3389 4.47166 20.3457 4.46366C20.3523 4.45587 20.3588 4.44873 20.3656 4.4416L20.5534 4.25323H20.6584L20.3572 4.55816L20.2901 4.81552H20.1863Z" fill="#434244"/>
<path d="M23.306 4.189H23.4094L23.3134 4.58995C23.2991 4.64943 23.3018 4.69422 23.3215 4.7241C23.3411 4.75401 23.3776 4.76896 23.431 4.76896C23.4841 4.76896 23.5276 4.75401 23.5616 4.7241C23.5956 4.69422 23.6198 4.64943 23.634 4.58995L23.73 4.189H23.8347L23.7363 4.59987C23.715 4.68915 23.6769 4.75598 23.6223 4.80029C23.5677 4.84467 23.4962 4.86682 23.4076 4.86682C23.319 4.86682 23.2582 4.84471 23.2251 4.80051C23.192 4.75636 23.1862 4.68945 23.2076 4.59987L23.306 4.189Z" fill="#434244"/>
<path d="M23.8226 4.85017L23.987 4.16377L24.2994 4.5674C24.3077 4.57878 24.3161 4.59097 24.3245 4.60391C24.3328 4.61685 24.3413 4.6314 24.35 4.64766L24.4597 4.18991H24.5564L24.3922 4.87579L24.0732 4.46496C24.0647 4.45388 24.0567 4.44217 24.0493 4.42982C24.0418 4.41748 24.035 4.40454 24.0288 4.39104L23.9189 4.85017H23.8226Z" fill="#434244"/>
<path d="M24.5458 4.85039L24.7039 4.19013H24.8086L24.6505 4.85039H24.5458Z" fill="#434244"/>
<path d="M24.8008 4.85039L24.959 4.19013H25.3183L25.2964 4.2812H25.0418L25.0023 4.44582H25.257L25.2345 4.54006H24.9798L24.9055 4.85039H24.8008Z" fill="#434244"/>
<path d="M25.275 4.85039L25.4331 4.19013H25.5378L25.3797 4.85039H25.275Z" fill="#434244"/>
<path d="M25.532 4.85039L25.6901 4.19013H26.0495L26.0276 4.2812H25.773L25.7333 4.44671H25.988L25.9654 4.54099H25.7108L25.6597 4.75432H25.9143L25.8913 4.85039H25.532Z" fill="#434244"/>
<path d="M26.1361 4.75189H26.224C26.2724 4.75189 26.3095 4.74857 26.3353 4.74197C26.3611 4.73537 26.3847 4.72422 26.4064 4.70859C26.4358 4.6873 26.4604 4.66074 26.4802 4.629C26.4999 4.5973 26.5149 4.56035 26.525 4.51824C26.535 4.47614 26.5378 4.43929 26.5332 4.40763C26.5286 4.37585 26.5168 4.34934 26.4975 4.32797C26.4831 4.31238 26.464 4.30119 26.4402 4.29455C26.4164 4.28799 26.3776 4.28467 26.3236 4.28467H26.2858H26.248L26.1361 4.75189ZM26.0082 4.84889L26.1663 4.1886H26.3075C26.3993 4.1886 26.4627 4.1933 26.4978 4.20277C26.5329 4.21228 26.5619 4.22817 26.5847 4.25039C26.615 4.27956 26.6342 4.317 26.6425 4.36265C26.6508 4.40837 26.6478 4.46055 26.6338 4.51917C26.6198 4.5778 26.5977 4.62975 26.5677 4.67499C26.5377 4.72026 26.5005 4.75759 26.4562 4.78706C26.4227 4.80932 26.3868 4.82517 26.3487 4.83468C26.3105 4.84412 26.2534 4.84889 26.1775 4.84889H26.1493H26.0082Z" fill="#434244"/>
<path d="M27.1453 4.46614H27.1721C27.2301 4.46614 27.2704 4.45962 27.2929 4.44671C27.3154 4.43381 27.3305 4.41095 27.3383 4.37817C27.3467 4.343 27.3424 4.31816 27.3251 4.30376C27.3079 4.28933 27.2716 4.28206 27.2162 4.28206H27.1894L27.1453 4.46614ZM27.1176 4.55401L27.0466 4.85039H26.9486L27.1067 4.19013H27.2651C27.312 4.19013 27.3459 4.19274 27.3668 4.198C27.3876 4.20322 27.4048 4.21191 27.4184 4.22396C27.4349 4.23928 27.4458 4.25994 27.451 4.28594C27.4562 4.31197 27.4551 4.34061 27.4476 4.37183C27.4401 4.40312 27.4275 4.43198 27.4097 4.45846C27.3919 4.4849 27.3711 4.50568 27.3473 4.52067C27.328 4.53271 27.3067 4.54129 27.2833 4.54636C27.2599 4.55151 27.2248 4.55401 27.1779 4.55401H27.1573H27.1176Z" fill="#434244"/>
<path d="M27.5768 4.59108H27.7562L27.7263 4.44041C27.7248 4.43083 27.7235 4.41979 27.7223 4.40729C27.7213 4.3948 27.7205 4.38089 27.72 4.36556C27.7131 4.37999 27.7061 4.39346 27.6991 4.40595C27.6922 4.41841 27.6854 4.42989 27.6788 4.44041L27.5768 4.59108ZM27.8041 4.85039L27.7717 4.68036H27.5166L27.4011 4.85039H27.2913L27.7674 4.16399L27.9145 4.85039H27.8041Z" fill="#434244"/>
<path d="M28.0652 4.85039L28.1376 4.54819L28.0065 4.19013H28.1165L28.1978 4.41427C28.1997 4.42001 28.2019 4.42751 28.2045 4.43683C28.2071 4.44615 28.2096 4.45619 28.212 4.46704C28.2186 4.45652 28.2254 4.44653 28.2321 4.43724C28.2389 4.42792 28.2457 4.41938 28.2526 4.41154L28.4441 4.19013H28.5488L28.2414 4.54819L28.169 4.85039H28.0652Z" fill="#434244"/>
<path d="M29.0643 4.52206C29.0643 4.51695 29.0658 4.50286 29.0687 4.4797C29.0709 4.46045 29.0727 4.44449 29.074 4.43185C29.0677 4.44692 29.0604 4.46198 29.052 4.47697C29.0435 4.492 29.0338 4.50733 29.0227 4.523L28.77 4.87479L28.6875 4.5158C28.684 4.50103 28.6813 4.48675 28.6795 4.47295C28.6777 4.45911 28.6765 4.44542 28.6759 4.43185C28.6723 4.44572 28.6678 4.46019 28.6622 4.47541C28.6567 4.49059 28.65 4.50647 28.6422 4.523L28.4953 4.84816H28.399L28.716 4.1599L28.8062 4.57666C28.8075 4.58326 28.8094 4.59426 28.8117 4.60959C28.814 4.62492 28.8168 4.64387 28.8199 4.66639C28.8306 4.64745 28.846 4.62343 28.8662 4.59426C28.8716 4.58643 28.8757 4.58043 28.8784 4.57621L29.1638 4.1599L29.1546 4.84816H29.0574L29.0643 4.52206Z" fill="#434244"/>
<path d="M29.2378 4.84889L29.396 4.18864H29.7553L29.7335 4.27971H29.4788L29.4391 4.44522H29.6938L29.6713 4.5395H29.4166L29.3655 4.75282H29.6201L29.5971 4.84889H29.2378Z" fill="#434244"/>
<path d="M29.7179 4.85017L29.8823 4.16377L30.1947 4.5674C30.2031 4.57878 30.2115 4.59097 30.2198 4.60391C30.2282 4.61685 30.2367 4.6314 30.2454 4.64766L30.3551 4.18991H30.4519L30.2875 4.87579L29.9686 4.46496C29.96 4.45388 29.9521 4.44217 29.9447 4.42982C29.9372 4.41748 29.9304 4.40454 29.9242 4.39104L29.8143 4.85017H29.7179Z" fill="#434244"/>
<path d="M30.7847 4.2812L30.6484 4.85039H30.5437L30.68 4.2812H30.5089L30.5307 4.19013H30.9767L30.9549 4.2812H30.7847Z" fill="#434244"/>
<path d="M30.8935 4.71709L30.9865 4.67744C30.9875 4.70687 30.9966 4.72936 31.0139 4.74483C31.0313 4.76035 31.0564 4.76807 31.0894 4.76807C31.1204 4.76807 31.1473 4.75919 31.1698 4.74144C31.1924 4.72372 31.2073 4.69997 31.2144 4.67021C31.2237 4.63138 31.2005 4.59681 31.1451 4.56649C31.1373 4.56198 31.1314 4.55866 31.1273 4.55653C31.0648 4.52107 31.0251 4.48896 31.0084 4.46024C30.9917 4.43152 30.9883 4.39643 30.9982 4.35496C31.0111 4.30114 31.0394 4.25755 31.083 4.22417C31.1266 4.19079 31.1773 4.17408 31.2351 4.17408C31.2826 4.17408 31.3201 4.18348 31.3475 4.20228C31.375 4.22111 31.3907 4.24808 31.3945 4.28324L31.3024 4.32654C31.2944 4.30581 31.2839 4.29063 31.2708 4.28097C31.2577 4.27135 31.2412 4.26654 31.2213 4.26654C31.1932 4.26654 31.169 4.27411 31.1488 4.28906C31.1287 4.30413 31.1155 4.32427 31.1095 4.34955C31.1 4.38923 31.1275 4.42619 31.192 4.46047C31.197 4.46315 31.2008 4.46531 31.2036 4.46681C31.2601 4.49683 31.2968 4.52625 31.3136 4.55497C31.3305 4.58372 31.3338 4.61956 31.3235 4.66252C31.3085 4.7251 31.2774 4.77478 31.2302 4.81159C31.183 4.8484 31.1266 4.86682 31.0613 4.86682C31.0064 4.86682 30.9646 4.85392 30.9358 4.82804C30.9069 4.80219 30.8928 4.76523 30.8935 4.71709Z" fill="#434244"/>
<path d="M31.6685 4.85039L31.8266 4.19013H31.9313L31.7731 4.85039H31.6685Z" fill="#434244"/>
<path d="M31.9235 4.85017L32.0879 4.16377L32.4003 4.5674C32.4086 4.57878 32.4171 4.59097 32.4254 4.60391C32.4337 4.61685 32.4422 4.6314 32.4509 4.64766L32.5606 4.18991H32.6574L32.4931 4.87579L32.1741 4.46496C32.1656 4.45388 32.1576 4.44217 32.1502 4.42982C32.1427 4.41748 32.1359 4.40454 32.1297 4.39104L32.0198 4.85017H31.9235Z" fill="#434244"/>
<path d="M32.9922 4.27971L32.8559 4.84889H32.7513L32.8875 4.27971H32.7164L32.7383 4.18864H33.1842L33.1624 4.27971H32.9922Z" fill="#434244"/>
<path d="M33.103 4.84889L33.2611 4.18864H33.6204L33.5986 4.27971H33.344L33.3043 4.44522H33.559L33.5364 4.5395H33.2817L33.2306 4.75282H33.4853L33.4623 4.84889H33.103Z" fill="#434244"/>
<path d="M33.7785 4.47151H33.7975C33.8528 4.47151 33.8912 4.46495 33.9126 4.45171C33.9339 4.43847 33.9487 4.41505 33.9567 4.38134C33.9654 4.34497 33.9618 4.31932 33.9458 4.30447C33.93 4.28952 33.8956 4.2821 33.8429 4.2821H33.8239L33.7785 4.47151ZM33.752 4.55494L33.6812 4.85039H33.5831L33.7413 4.19013H33.8873C33.9301 4.19013 33.9626 4.19296 33.9848 4.19871C34.0071 4.20441 34.025 4.21385 34.0385 4.22713C34.0546 4.24301 34.0651 4.26367 34.0699 4.28892C34.0747 4.31413 34.0734 4.3418 34.0663 4.37183C34.0536 4.42475 34.0312 4.46618 33.9992 4.49613C33.9671 4.526 33.9259 4.54401 33.8758 4.54998L34.0256 4.85039H33.9073L33.7638 4.55494H33.752Z" fill="#434244"/>
<path d="M34.0872 4.85039L34.2453 4.19013H34.6046L34.5828 4.2812H34.3281L34.2887 4.44582H34.5434L34.5208 4.54006H34.2662L34.1918 4.85039H34.0872Z" fill="#434244"/>
<path d="M34.7253 4.58958H34.9048L34.8749 4.43892C34.8734 4.42933 34.8721 4.41829 34.8709 4.4058C34.8699 4.39331 34.8691 4.37939 34.8686 4.36407C34.8616 4.3785 34.8547 4.39196 34.8477 4.40446C34.8408 4.41691 34.834 4.4284 34.8274 4.43892L34.7253 4.58958ZM34.9527 4.84889L34.9203 4.67887H34.6652L34.5497 4.84889H34.4398L34.916 4.16249L35.0631 4.84889H34.9527Z" fill="#434244"/>
<path d="M35.746 4.34955C35.7226 4.32371 35.696 4.30431 35.6661 4.29137C35.6362 4.27851 35.6031 4.27198 35.5667 4.27198C35.4964 4.27198 35.4335 4.29514 35.3784 4.34142C35.3231 4.38774 35.2867 4.44771 35.269 4.5214C35.252 4.59267 35.2594 4.65141 35.2913 4.69769C35.3231 4.74401 35.3718 4.76721 35.4371 4.76721C35.4753 4.76721 35.5132 4.76027 35.551 4.74644C35.5887 4.7326 35.6268 4.71172 35.6651 4.68371L35.6361 4.80506C35.603 4.8258 35.5686 4.84131 35.5331 4.85149C35.4975 4.86171 35.4603 4.86682 35.4216 4.86682C35.3724 4.86682 35.3288 4.85858 35.291 4.84202C35.2532 4.8255 35.2222 4.80118 35.1983 4.76896C35.1745 4.73741 35.1593 4.70023 35.1527 4.65734C35.1461 4.61453 35.1486 4.56888 35.1602 4.52043C35.1718 4.47206 35.1911 4.4266 35.2182 4.38405C35.2452 4.3415 35.2786 4.30413 35.3182 4.27198C35.358 4.2395 35.4005 4.21496 35.4458 4.19821C35.4912 4.18158 35.5379 4.17319 35.586 4.17319C35.6238 4.17319 35.6585 4.17886 35.6901 4.19016C35.7218 4.20138 35.7509 4.21843 35.7778 4.24136L35.746 4.34955Z" fill="#434244"/>
<path d="M35.7548 4.84889L35.9129 4.18864H36.2722L36.2504 4.27971H35.9958L35.9561 4.44522H36.2108L36.1882 4.5395H35.9335L35.8825 4.75282H36.1371L36.1141 4.84889H35.7548Z" fill="#434244"/>
<path d="M33.8464 3.61463H33.1269L34.1275 0.00250333H34.8471L33.8464 3.61463Z" fill="#6D6E71"/>
<path d="M33.4716 0.11635C33.4217 0.0476171 33.3447 0.0129333 33.2402 0.0129333H29.2837L29.0877 0.720403H29.8076V0.719993H32.687L32.4776 1.47602H29.5981L29.5983 1.47445H28.8787L28.2815 3.62957H29.0015L29.4023 2.18308H32.639C32.7401 2.18308 32.8353 2.14862 32.9247 2.0797C33.014 2.01071 33.0728 1.92564 33.101 1.82405L33.5017 0.37726C33.531 0.272277 33.5209 0.185158 33.4716 0.11635Z" fill="#6D6E71"/>
<path d="M27.8634 3.3891C27.8237 3.53212 27.6934 3.63106 27.5448 3.63106H23.8325C23.7314 3.63106 23.6562 3.5966 23.6067 3.52776C23.5573 3.45884 23.5467 3.37359 23.575 3.27203L24.4808 0.0130113H25.201L24.3919 2.92382H27.2727L28.0818 0.0130113H28.8018L27.8634 3.3891Z" fill="#6D6E71"/>
<path d="M36.0894 0.00857014L37.0003 1.81931L35.0853 3.62957L36.0894 0.00857014Z" fill="#2B8B4B"/>
<path d="M35.4493 0.00857014L36.3596 1.81931L34.4438 3.62957L35.4493 0.00857014Z" fill="#D9782D"/>
</svg>
