<svg width="20" height="20" viewBox="0 0 20 20" fill="none" xmlns="http://www.w3.org/2000/svg">
<path d="M19.9938 9.65092C20.0628 11.6275 19.5441 13.5802 18.5034 15.2621C17.4626 16.9439 15.9465 18.2794 14.1467 19.0995C12.347 19.9197 10.3444 20.1877 8.39231 19.8698C6.4402 19.5518 4.62623 18.6621 3.17978 17.3132C1.73333 15.9643 0.719369 14.2167 0.266122 12.2916C-0.187124 10.3664 -0.0592996 8.35 0.633434 6.49746C1.32617 4.64492 2.55269 3.0394 4.15791 1.88394C5.76312 0.728485 7.67493 0.0749811 9.65155 0.00607703C12.302 -0.0863153 14.8806 0.877913 16.8201 2.68665C18.7596 4.4954 19.9012 7.0005 19.9938 9.65092Z" fill="#20446C"/>
<g opacity="0.1">
<path opacity="0.1" d="M9.65085 0.00794123C7.00045 0.100501 4.49535 1.24211 2.68663 3.18163C0.877897 5.12115 -0.0863147 7.69973 0.00607704 10.3502C0.00607704 10.3502 7.04372 10.4205 8.64319 7.53188C10.2427 4.64322 9.65085 0.00794123 9.65085 0.00794123Z" fill="white"/>
</g>
<path d="M17.4321 9.58092C17.4851 11.0838 17.091 12.5687 16.2998 13.8476C15.5086 15.1264 14.3558 16.1419 12.9872 16.7653C11.6187 17.3888 10.096 17.5923 8.61179 17.35C7.12759 17.1078 5.7486 16.4307 4.64934 15.4044C3.55008 14.3782 2.77995 13.0489 2.43642 11.5848C2.0929 10.1207 2.1914 8.58764 2.71949 7.17956C3.24757 5.77148 4.18148 4.5517 5.40305 3.67458C6.62461 2.79746 8.07892 2.30243 9.58192 2.25212C11.5943 2.18477 13.5512 2.91867 15.023 4.29272C16.4948 5.66676 17.3612 7.56866 17.4321 9.58092Z" fill="#20446C"/>
<g opacity="0.2">
<path opacity="0.2" d="M17.4321 9.58092C17.4851 11.0838 17.091 12.5687 16.2998 13.8476C15.5086 15.1264 14.3558 16.1419 12.9872 16.7653C11.6187 17.3888 10.096 17.5923 8.61179 17.35C7.12759 17.1078 5.7486 16.4307 4.64934 15.4044C3.55008 14.3782 2.77995 13.0489 2.43642 11.5848C2.0929 10.1207 2.1914 8.58764 2.71949 7.17956C3.24757 5.77148 4.18148 4.5517 5.40305 3.67458C6.62461 2.79746 8.07892 2.30243 9.58192 2.25212C11.5943 2.18477 13.5512 2.91867 15.023 4.29272C16.4948 5.66676 17.3612 7.56866 17.4321 9.58092Z" fill="#20446C"/>
</g>
<path d="M17.6604 9.89072C17.712 11.3727 17.323 12.8368 16.5426 14.0977C15.7622 15.3587 14.6254 16.3599 13.276 16.9748C11.9266 17.5898 10.4252 17.7908 8.96151 17.5525C7.49788 17.3142 6.13777 16.6472 5.05316 15.6359C3.96855 14.6247 3.20814 13.3145 2.86808 11.8711C2.52802 10.4277 2.62357 8.91591 3.14266 7.52682C3.66175 6.13773 4.58107 4.93374 5.78438 4.06709C6.98768 3.20044 8.42094 2.71004 9.90293 2.6579C11.8906 2.58881 13.8244 3.31192 15.2791 4.66824C16.7338 6.02456 17.5903 7.90305 17.6604 9.89072Z" fill="#F0792E"/>
<path d="M12.1703 8.07902C12.4262 8.07902 12.6336 7.87454 12.6336 7.62225C12.6336 7.37013 12.4262 7.16548 12.1703 7.16548H8.50089C8.24499 7.16548 8.03758 7.37013 8.03758 7.62225C8.03758 7.87454 8.24499 8.07902 8.50089 8.07902H9.55257C9.98747 8.07831 10.3826 8.32846 10.5626 8.7185H8.50542C8.24969 8.7185 8.04211 8.92316 8.04211 9.17527C8.04211 9.42757 8.24969 9.63204 8.50542 9.63204H10.5626C10.3809 10.021 9.98675 10.2705 9.55257 10.2715H8.50089C8.31086 10.2717 8.14002 10.3861 8.06961 10.56C7.99921 10.734 8.04337 10.9328 8.1811 11.0618L10.8035 13.5055C10.8902 13.5854 11.0046 13.6295 11.1231 13.6288C11.2505 13.6281 11.3723 13.5771 11.4614 13.4873C11.5457 13.3995 11.5911 13.2823 11.5877 13.1615C11.5843 13.0407 11.5321 12.9262 11.4429 12.8432L9.6637 11.1851C10.5663 11.1337 11.3275 10.504 11.5356 9.63668H12.1703C12.4262 9.63668 12.6336 9.43221 12.6336 9.17991C12.6336 8.92762 12.4262 8.72314 12.1703 8.72314H11.5356C11.4817 8.49565 11.3875 8.27904 11.2576 8.08366H12.1703V8.07902Z" fill="white"/>
<g opacity="0.2">
<path opacity="0.2" d="M17.6624 9.89072C17.714 11.3727 17.325 12.8368 16.5445 14.0977C15.7641 15.3587 14.6274 16.3599 13.278 16.9748C11.9286 17.5898 10.4271 17.7908 8.9635 17.5525C7.49986 17.3142 6.13976 16.6472 5.05515 15.6359C3.97054 14.6247 3.21013 13.3145 2.87007 11.8711C2.53001 10.4277 2.62555 8.91591 3.14464 7.52682C3.66374 6.13773 4.58306 4.93374 5.78636 4.06709C6.98967 3.20044 8.42292 2.71004 9.90492 2.6579C11.8926 2.58881 13.8264 3.31192 15.2811 4.66824C16.7358 6.02456 17.5923 7.90305 17.6624 9.89072Z" fill="white"/>
</g>
<path d="M10.2908 17.7254H10.3516L10.5307 17.7094L10.825 17.6806C10.9583 17.6714 11.0908 17.6532 11.2217 17.6262L11.7175 17.5303C11.811 17.5128 11.903 17.4882 11.9926 17.4567L12.2901 17.3671C12.3984 17.3396 12.5052 17.3065 12.61 17.2679L12.9299 17.1336C13.0419 17.0856 13.1603 17.044 13.2722 16.9864L13.6241 16.8009C14.1413 16.5214 14.6252 16.1845 15.0668 15.7964L15.4155 15.4605L15.5915 15.2878C15.6458 15.2238 15.697 15.1598 15.7546 15.0959C15.8602 14.9647 15.9785 14.8399 16.0745 14.6992L16.3752 14.2673L16.452 14.1554C16.4776 14.1202 16.4968 14.0786 16.5191 14.0402L16.6535 13.8035L16.7879 13.5636C16.8358 13.4836 16.8646 13.394 16.9062 13.3108C16.9798 13.1381 17.0598 12.9686 17.127 12.7926L17.3093 12.2456C17.5243 11.4743 17.6245 10.6756 17.6068 9.87517C17.5697 9.07484 17.4133 8.28453 17.1429 7.53033C17.0694 7.35119 16.999 7.17205 16.9254 6.99611C16.8518 6.82017 16.7527 6.66022 16.6663 6.49388C16.6259 6.41049 16.581 6.32933 16.5319 6.25075L16.3816 6.02043L16.2312 5.79331C16.2056 5.75492 16.1833 5.71653 16.1577 5.68134L16.0713 5.57577L15.7514 5.16631C15.6362 5.03515 15.5115 4.91679 15.3963 4.79523L15.2204 4.61609C15.1596 4.55851 15.0956 4.50733 15.0316 4.45294L14.6638 4.13305C14.1948 3.77653 13.6873 3.47392 13.1507 3.23094L12.7892 3.07099C12.6708 3.01981 12.5493 2.99102 12.4373 2.94944L12.0982 2.83747C11.9926 2.79908 11.8807 2.78629 11.7783 2.7575L11.4744 2.69032C11.382 2.6661 11.2879 2.64899 11.1929 2.63914L10.6939 2.57836C10.5614 2.55977 10.4277 2.55121 10.294 2.55276H9.99969H9.81735H10.294C10.4276 2.54878 10.5613 2.55519 10.6939 2.57196L11.1961 2.62634C11.2919 2.63636 11.387 2.65239 11.4808 2.67433L11.8007 2.7415C11.9031 2.76709 12.015 2.77989 12.1206 2.81828L12.4597 2.92704C12.5748 2.96543 12.6996 2.99742 12.818 3.0486L13.1826 3.20535C13.7237 3.44806 14.2365 3.74951 14.7117 4.10426L15.0828 4.42415L15.2748 4.5873L15.4507 4.76644C15.5691 4.8912 15.697 5.00956 15.8122 5.14072L16.1321 5.55338L16.2184 5.65895L16.2952 5.77091L16.4456 6.00124L16.5991 6.23156C16.6535 6.30834 16.6887 6.39791 16.7367 6.47788C16.823 6.64423 16.9158 6.79778 16.999 6.98332C17.0822 7.16886 17.1429 7.3416 17.2165 7.52394C17.7867 9.0506 17.845 10.7212 17.3829 12.284L17.2037 12.8374C17.1333 13.0165 17.0502 13.1861 16.9766 13.3588C16.935 13.4452 16.9062 13.5348 16.8582 13.6147C16.8102 13.6947 16.7655 13.7747 16.7207 13.8547L16.5863 14.0946C16.5639 14.133 16.5415 14.1746 16.5159 14.2129L16.4392 14.3249L16.1193 14.76C16.0137 14.9007 15.8953 15.0255 15.7994 15.1566L15.633 15.3486L15.4571 15.5245L15.1052 15.8636C14.6571 16.2521 14.1667 16.5891 13.6433 16.8681L13.2914 17.0504C13.1762 17.108 13.0579 17.1464 12.9427 17.1944L12.6228 17.3287C12.5179 17.3672 12.4112 17.4002 12.3029 17.4279L12.0022 17.5143C11.9114 17.5448 11.8184 17.5684 11.7239 17.5846L11.2281 17.6742C11.0962 17.6999 10.9625 17.7148 10.8282 17.719L10.5339 17.7414H10.3516L10.2908 17.7254Z" fill="#263238"/>
<path d="M1.65538 14.9875C1.63649 14.9638 1.62039 14.9381 1.6074 14.9107L1.47625 14.6868C1.42186 14.5908 1.35469 14.4693 1.28751 14.3221C1.22033 14.175 1.13396 14.0182 1.06358 13.8295L0.945224 13.5384C0.903638 13.436 0.871647 13.3272 0.83326 13.2185C0.750088 12.9946 0.689311 12.7514 0.615736 12.4923C0.479589 11.9319 0.38655 11.3619 0.337431 10.7873C0.299514 10.2107 0.307004 9.63204 0.359826 9.05664C0.391815 8.79433 0.417402 8.54161 0.465386 8.31129C0.487778 8.19293 0.503777 8.08096 0.529368 7.9722C0.55496 7.86344 0.580545 7.76427 0.602937 7.65231C0.647722 7.45397 0.705303 7.28123 0.753287 7.12768C0.789625 6.99627 0.833415 6.86703 0.884444 6.7406L0.980407 6.50068C0.988144 6.47143 0.999997 6.44343 1.0156 6.41751C1.01154 6.44812 1.00402 6.47816 0.993206 6.50708L0.913233 6.7502C0.874846 6.85576 0.833258 6.98692 0.791672 7.14047C0.750086 7.29402 0.695707 7.46037 0.654121 7.6619C0.632795 7.76214 0.610405 7.86877 0.586946 7.9818C0.561355 8.08736 0.548559 8.20253 0.526166 8.31769C0.481381 8.54801 0.458993 8.79753 0.430203 9.05984C0.379668 9.63114 0.374314 10.2055 0.414202 10.7777C0.460253 11.3489 0.550085 11.9157 0.68291 12.4731C0.753286 12.729 0.814064 12.9722 0.890838 13.1961C0.929225 13.3049 0.961223 13.4168 0.99961 13.516L1.11156 13.8103C1.18194 13.999 1.26192 14.159 1.3259 14.3061C1.38987 14.4533 1.45065 14.5748 1.50183 14.674L1.62019 14.9043C1.63642 14.9299 1.64832 14.958 1.65538 14.9875Z" fill="white"/>
<path d="M10.2507 2.03096C10.1699 2.03931 10.0884 2.03931 10.0076 2.03096H9.71971C9.61095 2.03096 9.48299 2.03096 9.34224 2.03096C9.20148 2.03096 9.05114 2.04696 8.88479 2.06615C8.71845 2.08534 8.5489 2.10774 8.36656 2.13653C7.57409 2.27309 6.8071 2.52983 6.09211 2.89788C5.92896 2.98745 5.77222 3.06742 5.63466 3.15699C5.50156 3.23252 5.37238 3.31473 5.24759 3.40331C5.12923 3.48009 5.03006 3.55686 4.9277 3.62404C4.82533 3.69122 4.76455 3.7488 4.70377 3.79998C4.64292 3.85437 4.57766 3.90359 4.50864 3.94713C4.56343 3.88675 4.6222 3.83011 4.68457 3.77759C4.74216 3.72321 4.81573 3.65923 4.9021 3.59205C4.98847 3.52487 5.08764 3.4385 5.206 3.35853C5.32436 3.27855 5.44592 3.18898 5.58987 3.10261C5.73382 3.01624 5.88418 2.92667 6.04733 2.8371C6.40663 2.64967 6.77988 2.49031 7.16376 2.36045C7.54778 2.23221 7.94143 2.13486 8.34097 2.06935C8.52651 2.04376 8.70245 2.01497 8.86879 2.00537C9.03514 1.99577 9.18869 1.98298 9.32944 1.97978C9.47019 1.97658 9.59815 1.97978 9.71011 1.97978C9.82208 1.97978 9.91805 1.97978 9.99483 1.99897C10.0808 2.00325 10.1663 2.01394 10.2507 2.03096Z" fill="white"/>
<path d="M11.5487 19.4333C11.4927 19.4591 11.4335 19.4774 11.3727 19.4877C11.2576 19.5197 11.088 19.5549 10.8801 19.59C9.78036 19.7721 8.65332 19.6954 7.58837 19.3661C7.38684 19.3053 7.2237 19.2445 7.11493 19.1998C7.0571 19.1797 7.00138 19.154 6.94858 19.123C7.00888 19.1322 7.06792 19.1483 7.12453 19.171C7.23649 19.2094 7.39964 19.2605 7.60437 19.3181C8.66644 19.6149 9.77817 19.69 10.8705 19.5389C11.0816 19.5101 11.2512 19.4813 11.3663 19.4589C11.4257 19.4423 11.487 19.4337 11.5487 19.4333Z" fill="white"/>
</svg>
