<svg width="30" height="2" viewBox="0 0 30 2" fill="none" xmlns="http://www.w3.org/2000/svg">
<path d="M29.4904 0.865638L0.542143 0.000259144C0.471739 -0.00195274 0.401612 0.0100133 0.335921 0.0354466C0.27023 0.0608799 0.21031 0.0992621 0.159738 0.148312C0.109166 0.197362 0.0689628 0.256079 0.0415208 0.320976C0.0140788 0.385873 -3.46484e-05 0.455624 6.38759e-08 0.526088V0.997684C-1.24141e-05 1.13624 0.0545222 1.26922 0.151797 1.36786C0.249071 1.46649 0.381249 1.52283 0.519743 1.52469L29.4668 1.92437C29.5365 1.92546 29.6058 1.91267 29.6705 1.88674C29.7352 1.8608 29.7942 1.82224 29.8438 1.77331C29.8935 1.72437 29.933 1.66603 29.9599 1.60169C29.9869 1.53735 30.0007 1.46829 30.0007 1.39854C30.0023 1.26057 29.9498 1.12746 29.8543 1.02782C29.7589 0.92818 29.6283 0.86995 29.4904 0.865638Z" fill="#90B9E7"/>
</svg>
