<svg width="131" height="126" viewBox="0 0 131 126" fill="none" xmlns="http://www.w3.org/2000/svg">
<path d="M14.2278 39.0084C14.2278 39.0084 6.30042 59.3644 17.4408 79.8617C28.5812 100.359 51.5273 111.187 69.8927 120.446C88.2582 129.706 107.329 125.196 116.391 110.031C125.452 94.8658 113.024 84.0404 113.007 62.4149C112.99 40.7895 116.263 35.0644 104.477 16.7949C92.691 -1.47458 63.7994 -5.52033 41.9508 8.03054C20.1022 21.5814 14.2278 39.0084 14.2278 39.0084Z" fill="white"/>
<path d="M61.7658 1.867C97.0238 -1.24294 97.0949 18.5278 112.987 36.9613C128.878 55.3948 132.276 63.7492 126.277 84.9986C120.277 106.248 100.117 122.903 75.1354 113.466C50.1534 104.029 35.8569 113.09 20.1074 104.701C4.35785 96.3131 -1.50237 80.1301 10.0361 61.0464C21.5745 41.9626 18.2791 5.71767 61.7658 1.867Z" fill="white"/>
<path d="M85.2393 10.2937L29.8237 16.4606L38.349 93.0688L93.7646 86.9019L85.2393 10.2937Z" fill="white" stroke="#434B53" stroke-width="0.346552" stroke-linecap="round" stroke-linejoin="round"/>
<path d="M85.2393 10.2937L29.8237 16.4606L31.0032 27.0602L86.4189 20.8933L85.2393 10.2937Z" fill="#BFBFBF" stroke="#434B53" stroke-width="0.346552" stroke-linecap="round" stroke-linejoin="round"/>
<path d="M69.8452 15.2124L45.921 17.8586C45.8098 17.8642 45.7009 17.8921 45.601 17.9409C45.5011 17.9897 45.4122 18.0582 45.3398 18.1422C45.2674 18.2263 45.213 18.3241 45.1799 18.4298C45.1468 18.5355 45.1357 18.6467 45.1473 18.7568C45.1589 18.8669 45.193 18.9735 45.2474 19.07C45.3018 19.1665 45.3755 19.251 45.4638 19.3183C45.5522 19.3856 45.6535 19.4343 45.7614 19.4614C45.8693 19.4884 45.9817 19.4934 46.0916 19.4758L70.0158 16.8295C70.2251 16.7981 70.4141 16.6872 70.543 16.5202C70.6719 16.3532 70.7307 16.1431 70.7072 15.9339C70.6836 15.7247 70.5795 15.5327 70.4167 15.3982C70.2539 15.2637 70.045 15.1971 69.8338 15.2124H69.8452Z" fill="white"/>
<path d="M64.2344 19.1927L52.2751 20.5159C52.2217 20.5211 52.1699 20.5369 52.1227 20.5623C52.0755 20.5877 52.0339 20.6223 52.0003 20.6638C51.9667 20.7054 51.9417 20.7533 51.9269 20.8046C51.9121 20.8559 51.9077 20.9096 51.914 20.9626C51.9255 21.0697 51.9792 21.168 52.0634 21.2358C52.1476 21.3037 52.2555 21.3355 52.3633 21.3244L64.3254 20.0013C64.4301 19.9856 64.5245 19.9301 64.589 19.8466C64.6534 19.7632 64.6828 19.6581 64.6711 19.5535C64.6593 19.4489 64.6072 19.3529 64.5258 19.2856C64.4444 19.2184 64.34 19.1851 64.2344 19.1927Z" fill="white"/>
<path opacity="0.3" d="M73.1754 28.3587L41.8271 31.8249C41.7468 31.8339 41.6733 31.8743 41.6229 31.9371C41.5725 31.9999 41.5493 32.0801 41.5584 32.1599C41.5674 32.2398 41.608 32.3128 41.6712 32.3629C41.7344 32.413 41.815 32.4361 41.8953 32.4271L73.2351 28.9609C73.3154 28.9519 73.3888 28.9116 73.4392 28.8488C73.4896 28.7859 73.5129 28.7058 73.5038 28.6259C73.4948 28.5461 73.4542 28.473 73.391 28.4229C73.3278 28.3728 73.2472 28.3497 73.1669 28.3587H73.1754Z" fill="black"/>
<path opacity="0.3" d="M73.4158 30.5217L37.373 34.5081C37.2927 34.5171 37.2193 34.5575 37.1689 34.6203C37.1185 34.6831 37.0953 34.7633 37.1044 34.8431C37.1134 34.923 37.154 34.996 37.2172 35.0461C37.2804 35.0962 37.361 35.1193 37.4413 35.1103L73.484 31.1239C73.5251 31.1215 73.5652 31.1108 73.6019 31.0925C73.6387 31.0742 73.6713 31.0487 73.6979 31.0175C73.7245 30.9864 73.7444 30.9501 73.7565 30.9111C73.7686 30.872 73.7727 30.831 73.7684 30.7903C73.7639 30.7493 73.751 30.7096 73.7307 30.6736C73.7103 30.6376 73.6828 30.6061 73.6499 30.581C73.6169 30.5559 73.5792 30.5377 73.5389 30.5275C73.4987 30.5173 73.4568 30.5154 73.4158 30.5217Z" fill="black"/>
<path opacity="0.3" d="M64.2533 33.7249L37.6165 36.6709C37.5362 36.6799 37.4627 36.7202 37.4123 36.783C37.3619 36.8459 37.3387 36.926 37.3478 37.0059C37.3568 37.0858 37.3974 37.1588 37.4606 37.2089C37.5238 37.259 37.6044 37.2821 37.6847 37.2731L64.3187 34.3271C64.3597 34.3247 64.3998 34.314 64.4366 34.2957C64.4733 34.2774 64.506 34.2519 64.5326 34.2207C64.5591 34.1895 64.5791 34.1533 64.5912 34.1143C64.6033 34.0752 64.6073 34.0341 64.603 33.9935C64.5985 33.9527 64.5858 33.9133 64.5656 33.8775C64.5454 33.8418 64.5181 33.8104 64.4855 33.7854C64.4529 33.7603 64.4155 33.742 64.3756 33.7316C64.3357 33.7213 64.2941 33.719 64.2533 33.7249Z" fill="black"/>
<path opacity="0.3" d="M81.1244 27.2102L77.9452 27.562C77.5176 27.6093 77.2095 27.9924 77.2571 28.4176L77.6109 31.5787C77.6585 32.0039 78.0437 32.3103 78.4714 32.2629L81.6506 31.9112C82.0782 31.8638 82.3863 31.4808 82.3387 31.0556L81.9849 27.8945C81.9373 27.4693 81.5521 27.1629 81.1244 27.2102Z" stroke="#434B53" stroke-width="0.346552" stroke-linecap="round" stroke-linejoin="round"/>
<path d="M78.5097 29.6396L79.5561 30.6206L80.9323 28.5256" stroke="#F0792E" stroke-width="1.03966" stroke-linecap="round" stroke-linejoin="round"/>
<path opacity="0.3" d="M74.3211 38.6046L42.9813 42.0707C42.901 42.0797 42.8276 42.1201 42.7772 42.1829C42.7268 42.2457 42.7036 42.3259 42.7126 42.4058C42.7217 42.4856 42.7622 42.5586 42.8254 42.6087C42.8886 42.6588 42.9692 42.6819 43.0495 42.6729L74.3893 39.2067C74.4291 39.2023 74.4676 39.1901 74.5026 39.1708C74.5377 39.1516 74.5685 39.1257 74.5935 39.0946C74.6184 39.0635 74.637 39.0278 74.648 38.9895C74.6591 38.9513 74.6625 38.9113 74.658 38.8717C74.6536 38.8322 74.6413 38.7939 74.6219 38.7591C74.6026 38.7243 74.5765 38.6936 74.5452 38.6688C74.5139 38.6439 74.478 38.6255 74.4396 38.6145C74.4011 38.6035 74.3609 38.6001 74.3211 38.6046Z" fill="black"/>
<path opacity="0.3" d="M74.5641 40.7673L38.5214 44.7537C38.4816 44.7581 38.4431 44.7703 38.4081 44.7896C38.3731 44.8088 38.3422 44.8347 38.3173 44.8658C38.2923 44.897 38.2738 44.9326 38.2627 44.9709C38.2516 45.0091 38.2482 45.0491 38.2527 45.0887C38.2572 45.1282 38.2694 45.1665 38.2888 45.2013C38.3082 45.2362 38.3342 45.2669 38.3655 45.2917C38.3968 45.3165 38.4327 45.3349 38.4712 45.3459C38.5096 45.3569 38.5499 45.3603 38.5896 45.3559L74.6324 41.3695C74.7127 41.3605 74.7861 41.3201 74.8365 41.2573C74.8869 41.1945 74.9101 41.1143 74.9011 41.0345C74.892 40.9546 74.8515 40.8816 74.7883 40.8315C74.7251 40.7814 74.6445 40.7583 74.5641 40.7673Z" fill="black"/>
<path opacity="0.3" d="M65.3977 43.9707L38.7609 46.9167C38.6806 46.9257 38.6071 46.966 38.5568 47.0289C38.5064 47.0917 38.4831 47.1718 38.4922 47.2517C38.5012 47.3316 38.5418 47.4046 38.605 47.4547C38.6682 47.5048 38.7488 47.5279 38.8291 47.5189L65.4631 44.5729C65.5041 44.5705 65.5442 44.5598 65.581 44.5415C65.6178 44.5232 65.6504 44.4977 65.677 44.4665C65.7035 44.4354 65.7235 44.3991 65.7356 44.3601C65.7477 44.321 65.7517 44.2799 65.7474 44.2393C65.7429 44.1985 65.7302 44.1591 65.71 44.1234C65.6898 44.0876 65.6626 44.0562 65.6299 44.0312C65.5973 44.0061 65.5599 43.9878 65.52 43.9775C65.4801 43.9671 65.4385 43.9648 65.3977 43.9707Z" fill="black"/>
<path opacity="0.3" d="M82.2708 37.4536L79.0916 37.8054C78.664 37.8527 78.3559 38.2358 78.4035 38.661L78.7573 41.8221C78.8049 42.2473 79.1901 42.5536 79.6178 42.5063L82.7969 42.1545C83.2246 42.1072 83.5327 41.7242 83.4851 41.2989L83.1313 38.1378C83.0837 37.7126 82.6985 37.4063 82.2708 37.4536Z" stroke="#434B53" stroke-width="0.346552" stroke-linecap="round" stroke-linejoin="round"/>
<path d="M79.6581 39.8854L80.7016 40.8664L82.0778 38.7715" stroke="#F0792E" stroke-width="1.03966" stroke-linecap="round" stroke-linejoin="round"/>
<path opacity="0.3" d="M75.4671 48.8505L44.1273 52.3167C44.0521 52.3311 43.9851 52.3732 43.9397 52.4346C43.8944 52.4959 43.8739 52.5721 43.8826 52.6478C43.8912 52.7234 43.9282 52.7931 43.9862 52.8428C44.0442 52.8926 44.119 52.9187 44.1955 52.9161L75.5353 49.4442C75.5751 49.4398 75.6136 49.4276 75.6486 49.4083C75.6836 49.3891 75.7145 49.3632 75.7394 49.332C75.7644 49.3009 75.7829 49.2652 75.794 49.227C75.8051 49.1888 75.8085 49.1487 75.804 49.1092C75.7995 49.0697 75.7873 49.0314 75.7679 48.9966C75.7485 48.9617 75.7225 48.931 75.6912 48.9062C75.6599 48.8814 75.624 48.863 75.5855 48.852C75.5471 48.841 75.5068 48.8376 75.4671 48.842V48.8505Z" fill="black"/>
<path opacity="0.3" d="M75.7106 51.0134L39.665 54.9998C39.6251 55.0036 39.5865 55.0154 39.5513 55.0344C39.5161 55.0533 39.4852 55.0792 39.4602 55.1103C39.4353 55.1414 39.4169 55.1772 39.4062 55.2155C39.3954 55.2538 39.3925 55.2939 39.3977 55.3334C39.4019 55.3729 39.414 55.4113 39.4332 55.4462C39.4523 55.4811 39.4782 55.5119 39.5094 55.5369C39.5406 55.5618 39.5764 55.5804 39.6148 55.5916C39.6532 55.6028 39.6934 55.6063 39.7332 55.602L75.7759 51.6156C75.8171 51.6128 75.8573 51.6017 75.894 51.5832C75.9308 51.5646 75.9634 51.5388 75.99 51.5074C76.0165 51.476 76.0364 51.4396 76.0485 51.4004C76.0606 51.3612 76.0646 51.3199 76.0603 51.2792C76.0558 51.2385 76.043 51.1991 76.0228 51.1635C76.0026 51.1279 75.9753 51.0967 75.9426 51.0719C75.9099 51.047 75.8725 51.029 75.8326 51.019C75.7927 51.0089 75.7512 51.007 75.7106 51.0134Z" fill="black"/>
<path opacity="0.3" d="M66.5441 54.2164L39.9073 57.1624C39.827 57.1714 39.7535 57.2117 39.7031 57.2746C39.6527 57.3374 39.6295 57.4175 39.6386 57.4974C39.6476 57.5773 39.6882 57.6503 39.7514 57.7004C39.8146 57.7505 39.8952 57.7736 39.9755 57.7646L66.6095 54.8158C66.6898 54.8072 66.7634 54.7672 66.814 54.7046C66.8647 54.642 66.8883 54.562 66.8796 54.4822C66.8709 54.4023 66.8307 54.3292 66.7678 54.2788C66.7049 54.2284 66.6244 54.205 66.5441 54.2136V54.2164Z" fill="black"/>
<path opacity="0.3" d="M83.4172 47.6975L80.238 48.0492C79.8104 48.0966 79.5023 48.4796 79.5499 48.9048L79.9037 52.0659C79.9513 52.4911 80.3365 52.7975 80.7641 52.7502L83.9433 52.3984C84.371 52.3511 84.6791 51.968 84.6315 51.5428L84.2777 48.3817C84.2301 47.9565 83.8448 47.6501 83.4172 47.6975Z" stroke="#434B53" stroke-width="0.346552" stroke-linecap="round" stroke-linejoin="round"/>
<path d="M80.8044 50.1311L81.848 51.1121L83.227 49.0143" stroke="#F0792E" stroke-width="1.03966" stroke-linecap="round" stroke-linejoin="round"/>
<path opacity="0.3" d="M76.6135 59.0968L45.2737 62.563C45.1985 62.5774 45.1315 62.6195 45.0861 62.6809C45.0407 62.7422 45.0203 62.8184 45.0289 62.894C45.0376 62.9697 45.0746 63.0394 45.1326 63.0891C45.1906 63.1389 45.2654 63.165 45.3419 63.1623L76.6817 59.6962C76.7236 59.6947 76.7648 59.6847 76.8026 59.6666C76.8404 59.6486 76.8741 59.623 76.9015 59.5914C76.9289 59.5598 76.9494 59.5229 76.9618 59.4831C76.9741 59.4432 76.9781 59.4013 76.9734 59.3598C76.9686 59.3184 76.9554 59.2784 76.9343 59.2423C76.9133 59.2062 76.885 59.1748 76.8512 59.1501C76.8174 59.1254 76.7789 59.1079 76.7379 59.0987C76.697 59.0896 76.6546 59.0889 76.6135 59.0968Z" fill="black"/>
<path opacity="0.3" d="M76.8569 61.2593L40.8113 65.2457C40.7715 65.2495 40.7329 65.2613 40.6977 65.2803C40.6625 65.2993 40.6316 65.3251 40.6066 65.3562C40.5817 65.3873 40.5633 65.4231 40.5526 65.4614C40.5418 65.4998 40.5389 65.5398 40.5441 65.5793C40.5483 65.6189 40.5604 65.6572 40.5795 65.6921C40.5987 65.727 40.6246 65.7579 40.6558 65.7828C40.687 65.8077 40.7228 65.8263 40.7612 65.8375C40.7996 65.8487 40.8398 65.8522 40.8796 65.8479L76.9223 61.8615C77.0029 61.8523 77.0766 61.8117 77.1272 61.7487C77.1778 61.6856 77.2012 61.6053 77.1924 61.5251C77.1832 61.4457 77.1427 61.3732 77.0798 61.3234C77.0169 61.2736 76.9368 61.2506 76.8569 61.2593Z" fill="black"/>
<path opacity="0.3" d="M67.7014 64.4622L41.0646 67.4082C41.0247 67.412 40.9861 67.4238 40.9509 67.4427C40.9158 67.4617 40.8848 67.4876 40.8599 67.5187C40.8349 67.5498 40.8165 67.5856 40.8058 67.6239C40.795 67.6622 40.7921 67.7023 40.7973 67.7418C40.8015 67.7813 40.8136 67.8197 40.8328 67.8546C40.8519 67.8895 40.8778 67.9203 40.909 67.9453C40.9402 67.9702 40.976 67.9888 41.0144 68C41.0528 68.0111 41.093 68.0147 41.1328 68.0104L67.7668 65.0644C67.8066 65.0602 67.8451 65.0482 67.8802 65.0291C67.9154 65.0101 67.9464 64.9843 67.9714 64.9533C67.9965 64.9223 68.0152 64.8867 68.0265 64.8485C68.0377 64.8103 68.0412 64.7703 68.0369 64.7308C68.033 64.6911 68.0212 64.6526 68.0022 64.6174C67.9831 64.5823 67.9572 64.5514 67.9259 64.5264C67.8947 64.5013 67.8587 64.4828 67.8202 64.4718C67.7816 64.4607 67.7412 64.4575 67.7014 64.4622Z" fill="black"/>
<path opacity="0.3" d="M84.5636 57.9433L81.3844 58.2951C80.9568 58.3424 80.6487 58.7254 80.6963 59.1506L81.0501 62.3118C81.0977 62.737 81.4829 63.0433 81.9105 62.996L85.0897 62.6442C85.5174 62.5969 85.8254 62.2138 85.7779 61.7886L85.4241 58.6275C85.3765 58.2023 84.9912 57.896 84.5636 57.9433Z" stroke="#434B53" stroke-width="0.346552" stroke-linecap="round" stroke-linejoin="round"/>
<path d="M81.9508 60.3746L82.9943 61.3556L84.3734 59.2606" stroke="#F0792E" stroke-width="1.03966" stroke-linecap="round" stroke-linejoin="round"/>
<path opacity="0.3" d="M77.7615 69.3396L46.4217 72.8058C46.382 72.8101 46.3434 72.8221 46.3083 72.8412C46.2732 72.8603 46.2423 72.886 46.2172 72.917C46.1921 72.948 46.1734 72.9836 46.1621 73.0217C46.1509 73.0599 46.1473 73.0999 46.1516 73.1394C46.1559 73.179 46.168 73.2173 46.1872 73.2522C46.2064 73.2871 46.2323 73.3179 46.2634 73.3428C46.2946 73.3678 46.3304 73.3864 46.3688 73.3975C46.4071 73.4087 46.4474 73.4123 46.4871 73.408L77.8269 69.9418C77.8667 69.9376 77.9053 69.9256 77.9404 69.9066C77.9755 69.8875 78.0065 69.8617 78.0316 69.8307C78.0567 69.7998 78.0754 69.7642 78.0866 69.726C78.0978 69.6878 78.1014 69.6478 78.097 69.6082C78.0877 69.5286 78.0474 69.4559 77.9846 69.4056C77.9218 69.3554 77.8417 69.3317 77.7615 69.3396Z" fill="black"/>
<path opacity="0.3" d="M78.0036 71.4966L41.958 75.483C41.9161 75.4844 41.8749 75.4945 41.8371 75.5125C41.7993 75.5306 41.7656 75.5562 41.7382 75.5878C41.7108 75.6194 41.6903 75.6562 41.678 75.6961C41.6656 75.7359 41.6616 75.7779 41.6663 75.8193C41.6711 75.8608 41.6844 75.9008 41.7054 75.9369C41.7264 75.973 41.7547 76.0044 41.7885 76.0291C41.8223 76.0538 41.8608 76.0712 41.9018 76.0804C41.9427 76.0896 41.9851 76.0902 42.0263 76.0823L78.069 72.096C78.1111 72.095 78.1525 72.0853 78.1907 72.0675C78.2288 72.0498 78.2628 72.0244 78.2906 71.9929C78.3183 71.9614 78.3392 71.9245 78.3519 71.8846C78.3645 71.8447 78.3687 71.8025 78.3642 71.7609C78.3596 71.7193 78.3464 71.6791 78.3255 71.6428C78.3045 71.6065 78.2761 71.5749 78.2422 71.5501C78.2084 71.5252 78.1696 71.5076 78.1286 71.4984C78.0875 71.4892 78.0449 71.4886 78.0036 71.4966Z" fill="black"/>
<path opacity="0.3" d="M68.8388 74.708L42.202 77.654C42.1217 77.663 42.0483 77.7034 41.9979 77.7662C41.9475 77.829 41.9243 77.9092 41.9333 77.989C41.9424 78.0689 41.9829 78.1419 42.0461 78.192C42.1093 78.2421 42.1899 78.2652 42.2702 78.2562L68.9071 75.3102C68.9872 75.3003 69.0601 75.2595 69.1101 75.1965C69.1601 75.1336 69.1832 75.0536 69.1744 74.9738C69.1701 74.9344 69.1581 74.8961 69.1388 74.8613C69.1196 74.8266 69.0937 74.7959 69.0625 74.7712C69.0312 74.7465 68.9954 74.7282 68.957 74.7173C68.9186 74.7065 68.8785 74.7033 68.8388 74.708Z" fill="black"/>
<path opacity="0.3" d="M85.71 68.1901L82.5308 68.5419C82.1032 68.5892 81.7951 68.9722 81.8427 69.3974L82.1964 72.5585C82.244 72.9837 82.6293 73.2901 83.0569 73.2428L86.2361 72.891C86.6637 72.8437 86.9718 72.4606 86.9242 72.0354L86.5704 68.8743C86.5229 68.4491 86.1376 68.1428 85.71 68.1901Z" stroke="#434B53" stroke-width="0.346552" stroke-linecap="round" stroke-linejoin="round"/>
<path d="M83.0952 70.6199L84.1388 71.6009L85.5178 69.506" stroke="#F0792E" stroke-width="1.03966" stroke-linecap="round" stroke-linejoin="round"/>
<path opacity="0.3" d="M78.6338 77.1511L47.294 80.6229C47.2137 80.6319 47.1403 80.6723 47.0899 80.7351C47.0395 80.7979 47.0162 80.8781 47.0253 80.9579C47.0343 81.0378 47.0749 81.1108 47.1381 81.1609C47.2013 81.211 47.2819 81.2341 47.3622 81.2251L78.702 77.7589C78.7419 77.7551 78.7805 77.7433 78.8157 77.7243C78.8508 77.7054 78.8818 77.6795 78.9067 77.6484C78.9317 77.6173 78.9501 77.5815 78.9608 77.5432C78.9716 77.5049 78.9744 77.4648 78.9693 77.4253C78.9658 77.3853 78.9542 77.3463 78.9353 77.3107C78.9165 77.2752 78.8907 77.2437 78.8594 77.2182C78.8282 77.1926 78.7921 77.1736 78.7534 77.162C78.7147 77.1505 78.674 77.1468 78.6338 77.1511Z" fill="black"/>
<path opacity="0.3" d="M78.8757 79.3226L42.8329 83.309C42.7908 83.31 42.7494 83.3196 42.7113 83.3374C42.6731 83.3551 42.6391 83.3806 42.6114 83.4121C42.5836 83.4436 42.5628 83.4804 42.5501 83.5204C42.5374 83.5603 42.5332 83.6024 42.5378 83.644C42.5423 83.6856 42.5555 83.7259 42.5765 83.7622C42.5975 83.7985 42.6258 83.83 42.6597 83.8549C42.6936 83.8797 42.7323 83.8973 42.7734 83.9065C42.8144 83.9157 42.857 83.9163 42.8983 83.9083L78.9439 79.9219C79.0191 79.9075 79.0861 79.8654 79.1315 79.8041C79.1769 79.7427 79.1973 79.6665 79.1886 79.5909C79.18 79.5152 79.143 79.4455 79.085 79.3958C79.027 79.346 78.9522 79.3199 78.8757 79.3226Z" fill="black"/>
<path opacity="0.3" d="M69.7089 82.5225L43.0749 85.4684C43.0351 85.4727 42.9965 85.4847 42.9614 85.5037C42.9263 85.5228 42.8953 85.5485 42.8702 85.5795C42.8451 85.6105 42.8264 85.6461 42.8152 85.6843C42.804 85.7225 42.8004 85.7625 42.8047 85.8021C42.814 85.8822 42.8548 85.9554 42.9182 86.0057C42.9816 86.0561 43.0625 86.0794 43.1431 86.0706L69.7771 83.1247C69.8169 83.1202 69.8554 83.108 69.8904 83.0888C69.9254 83.0695 69.9563 83.0436 69.9812 83.0125C70.0062 82.9814 70.0247 82.9457 70.0358 82.9075C70.0469 82.8692 70.0503 82.8292 70.0458 82.7897C70.0413 82.7501 70.029 82.7118 70.0097 82.677C69.9903 82.6422 69.9643 82.6115 69.933 82.5867C69.9017 82.5619 69.8658 82.5434 69.8273 82.5324C69.7889 82.5214 69.7486 82.518 69.7089 82.5225Z" fill="black"/>
<path opacity="0.3" d="M86.5855 76.0047L83.4063 76.3565C82.9786 76.4038 82.6706 76.7869 82.7181 77.2121L83.0719 80.3732C83.1195 80.7984 83.5048 81.1047 83.9324 81.0574L87.1116 80.7056C87.5392 80.6583 87.8473 80.2753 87.7998 79.8501L87.446 76.6889C87.3984 76.2637 87.0131 75.9574 86.5855 76.0047Z" stroke="#434B53" stroke-width="0.346552" stroke-linecap="round" stroke-linejoin="round"/>
<path d="M83.9688 78.4375L85.0123 79.4185L86.3913 77.3236" stroke="#F0792E" stroke-width="1.03966" stroke-linecap="round" stroke-linejoin="round"/>
<path d="M52.5788 57.1538C52.6063 56.8288 52.5253 56.5039 52.3485 56.2293L51.9988 55.6129L51.305 56.0031L51.6831 56.6646C51.8708 56.9954 51.794 57.199 51.5609 57.329C51.3277 57.4591 51.1116 57.4252 50.924 57.0944L50.1136 55.6638L49.2435 55.8334L50.1705 57.4591C50.5941 58.2027 51.2083 58.4147 51.9277 58.0245C52.042 57.9593 52.148 57.8805 52.2433 57.7899C52.2029 57.6967 52.1958 57.5926 52.2232 57.4948C52.2506 57.3971 52.3109 57.3116 52.394 57.2527C52.4497 57.2099 52.5122 57.1764 52.5788 57.1538Z" fill="#F0792E"/>
<path d="M48.7965 55.0503L48.9614 55.333H49.9197L49.5017 54.598C49.314 54.2672 49.388 54.058 49.6211 53.9279C49.8543 53.7979 50.0732 53.8374 50.2609 54.1711L50.5452 54.6658L51.2362 54.2757L50.9803 53.8261C50.5566 53.0854 49.9424 52.8705 49.223 53.2776C49.0579 53.3662 48.9112 53.4852 48.7908 53.6282C48.9542 53.6804 49.1254 53.7043 49.297 53.6989L48.6146 53.9534C48.5645 54.1385 48.5549 54.3322 48.5863 54.5214C48.6177 54.7106 48.6894 54.8909 48.7965 55.0503Z" fill="#F0792E"/>
<path d="M54.1126 52.0362C54.2038 51.9909 54.2989 51.9539 54.3969 51.9259C54.7637 51.7619 54.8462 51.2361 54.8149 50.8657L54.4367 50.3992L53.4188 50.9647L54.0557 52.0786C54.0723 52.0616 54.0915 52.0473 54.1126 52.0362Z" fill="#F0792E"/>
<path d="M58.4483 54.2499L59.1392 53.8598L56.4977 49.2288L55.8409 49.5963C56.0513 49.6472 56.202 49.7462 56.2077 49.8988C56.003 49.9271 55.7528 49.8988 55.531 49.9384L56.8617 53.3678L55.1784 51.2814C55.1829 51.3276 55.176 51.3742 55.1581 51.4171C55.1403 51.46 55.1121 51.4978 55.076 51.5273C54.9993 51.581 54.8884 51.581 54.8287 51.6517C54.7689 51.7224 54.7775 51.8072 54.7263 51.8694C54.6751 51.9316 54.5955 51.9486 54.5329 51.9938C54.4704 52.0391 54.4021 52.155 54.3311 52.2313C54.2968 52.2672 54.2537 52.2935 54.2059 52.3076L56.0769 55.5872L56.7138 55.2253L54.8457 51.9514L57.2455 54.9256L57.9393 54.5355L56.5375 50.9364L58.4483 54.2499Z" fill="#F0792E"/>
<path d="M60.1963 50.218C60.2468 50.2431 60.2917 50.2781 60.3283 50.3208C60.365 50.3636 60.3926 50.4132 60.4095 50.4668C60.4693 50.1174 60.3931 49.7586 60.1963 49.4631L59.8522 48.8581C59.4285 48.1174 58.84 47.9166 58.1064 48.3294L57.0287 48.9373L59.6731 53.5711L60.3583 53.1838C60.1365 53.0452 59.8892 52.9265 59.6788 52.7766C59.58 52.7139 59.4988 52.6274 59.4428 52.525C59.4162 52.4733 59.4053 52.4151 59.4113 52.3574C59.4174 52.2997 59.4401 52.245 59.4769 52.1999C59.525 52.1595 59.5837 52.1335 59.6462 52.125C59.7086 52.1165 59.7721 52.1258 59.8295 52.1518L59.4115 51.4167L59.7584 51.2217C59.949 51.1189 60.1149 50.9761 60.2446 50.8032C60.0996 50.5742 59.8465 50.0879 60.1963 50.218ZM59.3802 50.5742L59.0333 50.7693L58.1376 49.2002L58.4845 49.0051C58.7177 48.8751 58.9054 48.909 59.093 49.2398L59.4911 49.9353C59.6788 50.2519 59.6134 50.43 59.3802 50.5742Z" fill="#F0792E"/>
<path d="M64.1162 51.0638L63.7408 50.4022L62.5352 51.0807L60.7723 47.9906L60.6927 48.0528C60.6412 48.1002 60.5787 48.1342 60.5107 48.1517C60.4765 48.1594 60.4406 48.1544 60.4098 48.1378C60.3789 48.1212 60.3552 48.094 60.343 48.0612C60.3332 48.0175 60.3332 47.9721 60.343 47.9284C60.3434 47.6653 60.2598 47.4089 60.1041 47.1961L59.5355 47.5241L62.177 52.1551L64.1162 51.0638Z" fill="#F0792E"/>
<path d="M63.7868 49.4437C63.8664 49.2373 64.1138 49.161 64.2531 48.9744C64.2655 48.9552 64.2769 48.9354 64.2872 48.915L64.0029 48.44L64.7223 48.0358C64.709 47.9906 64.6857 47.9491 64.654 47.9142C64.5508 47.864 64.4406 47.8297 64.327 47.8124C64.3095 47.7773 64.3006 47.7384 64.3013 47.6992C64.3019 47.6599 64.3119 47.6214 64.3306 47.5868C64.3492 47.5522 64.3759 47.5226 64.4084 47.5003C64.441 47.4781 64.4784 47.4639 64.5175 47.459C64.5659 47.459 64.6227 47.459 64.6597 47.4364C64.6856 47.4056 64.6988 47.3662 64.6967 47.3261L64.6313 47.213L63.6247 47.7785L62.8911 46.4893L64.1536 45.774L63.7754 45.1124L61.785 46.2433L63.7413 49.6727C63.7447 49.5945 63.76 49.5173 63.7868 49.4437Z" fill="#F0792E"/>
<path d="M66.4354 49.7574L66.0572 49.0958L64.7919 49.8083L64.4137 49.1608L63.9474 49.5962L63.7853 49.7517L64.4393 50.8967L66.4354 49.7574Z" fill="#F0792E"/>
<path d="M65.4942 44.3772C65.4942 44.4761 65.4231 44.5864 65.3264 44.5949C65.2772 44.5943 65.2284 44.5867 65.1814 44.5723C65.0935 44.5739 65.0057 44.5653 64.9198 44.5468C64.9012 44.5392 64.8839 44.5287 64.8686 44.5157L64.0327 44.9879L64.4108 45.6523L65.1757 45.2197L67.4504 49.1778L68.1812 48.7651L65.9065 44.8069L66.6742 44.3744L66.296 43.7128L65.5112 44.1538C65.497 44.2274 65.5027 44.3037 65.4942 44.3772Z" fill="#F0792E"/>
<path d="M68.687 47.1815L69.2557 48.1795L70.0234 47.7469C70.0416 47.6968 70.0644 47.6486 70.0917 47.6027C70.2607 47.3571 70.4883 47.157 70.7542 47.0203L71.1067 46.8026L70.8736 46.3898L69.6083 47.1051L68.8349 45.7481L69.8414 45.1826L69.4633 44.521L68.4567 45.0865L67.7231 43.7888L68.9884 43.0763L68.6103 42.4148L66.6199 43.5457L68.0558 46.0647C68.4027 45.8809 68.5761 46.5425 68.687 47.1815Z" fill="#F0792E"/>
<path d="M53.961 56.3307C54.0805 56.3505 54.1515 56.4692 54.2454 56.5484C54.2795 56.5796 54.319 56.6045 54.3619 56.6219C54.4164 56.6004 54.4695 56.5758 54.5212 56.5484C55.2377 56.1441 55.3884 55.4995 54.9676 54.7559L54.9249 54.6824L53.9411 54.657L54.2624 55.2224C54.4501 55.5532 54.3762 55.7624 54.143 55.8925C53.9098 56.0225 53.6909 55.9801 53.5032 55.6493L52.0815 53.1472C51.891 52.8165 51.9678 52.6101 52.201 52.4772C52.4341 52.3443 52.6502 52.3895 52.8407 52.7203L53.8046 54.4167C54.1005 54.3438 54.404 54.3058 54.7088 54.3036L53.5971 52.3556C53.1763 51.6149 52.5422 51.4142 51.8228 51.8184C51.1034 52.2227 50.9527 52.8702 51.3764 53.6109L52.7497 56.0197C52.8365 56.2054 52.9663 56.368 53.1284 56.4943C53.2905 56.6206 53.4803 56.7069 53.6824 56.7463C53.6808 56.7294 53.6808 56.7123 53.6824 56.6954C53.6483 56.5116 53.7847 56.2968 53.961 56.3307Z" fill="#F0792E"/>
<path d="M63.7783 43.0344L66.0103 41.7763C65.3706 41.9516 64.8076 42.4831 64.1479 42.4096C64.0286 42.3785 63.9032 42.3785 63.784 42.4096C63.7094 42.4574 63.6557 42.5314 63.6336 42.6168C63.6114 42.7022 63.6225 42.7928 63.6645 42.8704C63.6933 42.9308 63.7317 42.9862 63.7783 43.0344Z" fill="#F0792E"/>
<path d="M58.1809 46.1922C58.1759 46.1433 58.1858 46.094 58.2093 46.0508C58.2641 46.0698 58.3218 46.0793 58.3799 46.0791L59.1505 45.6465C59.2711 45.5108 59.4087 45.3911 59.5599 45.2903C59.706 45.2126 59.8605 45.1519 60.0205 45.1093L60.1911 45.0584L61.6128 44.2612C61.6278 44.2323 61.6481 44.2064 61.6725 44.1848C61.6945 44.1703 61.7185 44.1589 61.7436 44.1509L60.2764 43.7099L59.8812 43.9304L59.8386 44.2414L58.1467 45.1404C57.9793 45.2444 57.7928 45.3146 57.598 45.3468C57.5252 45.3553 57.4518 45.3553 57.379 45.3468L54.9678 46.7067C54.987 46.8203 55.0195 46.9313 55.0645 47.0375C54.9231 47.0113 54.7885 46.9564 54.6693 46.8763L54.1745 47.1591C54.5271 47.3909 54.874 47.6284 55.2124 47.88L58.1809 46.1922Z" fill="#F0792E"/>
<path d="M68.5022 40.3738L67.3364 39.7235L66.7848 40.0345C67.1098 40.3669 67.5296 40.5919 67.9875 40.6791L68.5022 40.3738Z" fill="#F0792E"/>
<path d="M74.7729 47.2186L70.3714 39.5031C70.2002 39.2047 69.9172 38.9858 69.5842 38.8942C69.2513 38.8025 68.8954 38.8456 68.5942 39.014L68.0654 39.3136L68.2673 39.5087C68.4777 39.7179 68.6938 39.93 68.89 40.1533L69.1572 40.0035C69.1943 39.9829 69.238 39.9776 69.2789 39.9887C69.3198 39.9998 69.3548 40.0264 69.3762 40.0629L73.7806 47.7812C73.801 47.8184 73.8059 47.862 73.7942 47.9028C73.7825 47.9435 73.7551 47.9781 73.718 47.9989L67.727 51.3915C68.2445 51.4226 68.7677 51.3491 69.2852 51.4085C69.4716 51.4319 69.6567 51.4649 69.8397 51.5075L74.281 49.0025C74.4319 48.9182 74.5644 48.805 74.6709 48.6694C74.7774 48.5339 74.8558 48.3786 74.9016 48.2127C74.9473 48.0467 74.9595 47.8734 74.9375 47.7028C74.9154 47.5322 74.8594 47.3676 74.7729 47.2186Z" fill="#F0792E"/>
<path d="M47.7993 57.0371L45.7293 53.4013C45.7186 53.3829 45.7117 53.3627 45.7089 53.3416C45.7061 53.3206 45.7076 53.2992 45.7131 53.2787C45.7187 53.2582 45.7282 53.239 45.7413 53.2222C45.7543 53.2054 45.7705 53.1913 45.789 53.1808L51.7601 49.8107C51.7402 49.7655 51.7146 49.7203 51.6976 49.675C51.782 49.6715 51.8664 49.6811 51.9478 49.7033L54.3618 48.3434C54.2822 48.318 54.2055 48.2869 54.1287 48.2586L52.9913 47.8091L52.0814 48.3236L53.0709 48.9258C52.7269 48.7166 52.0246 48.6883 51.4189 48.6968L45.2403 52.1941C44.9396 52.3638 44.719 52.6451 44.6268 52.9764C44.5345 53.3077 44.5783 53.6618 44.7484 53.9611L46.5454 57.1106C46.6278 57.088 46.7131 57.0682 46.7956 57.0541C47.0234 57.0215 47.2538 57.0101 47.4837 57.0201C47.5891 57.0194 47.6946 57.025 47.7993 57.0371Z" fill="#F0792E"/>
<path d="M55.1754 58.4567C55.2767 58.5469 55.3919 58.6204 55.5166 58.6744C55.6445 58.7309 55.8151 58.8666 55.7156 58.9571C55.255 59.1663 54.6863 59.0108 54.2342 59.2398C53.9868 59.3585 53.748 59.5932 53.4836 59.5225C53.8034 59.7156 54.0912 59.9569 54.3366 60.2378L65.6277 53.8709C65.6277 53.8257 65.6419 53.7804 65.6504 53.7324C65.6507 53.6434 65.6713 53.5556 65.7109 53.4758C65.7504 53.3959 65.8077 53.3261 65.8784 53.2716C65.9491 53.2171 66.0314 53.1793 66.119 53.1612C66.2066 53.143 66.2973 53.145 66.384 53.1669C66.5305 53.1605 66.6771 53.1758 66.819 53.2122L68.2265 52.4177C68.0334 52.0868 67.8046 51.7777 67.5441 51.496L55.1754 58.4567Z" fill="#F0792E"/>
<path d="M53.3472 60.3252C53.0749 60.2373 52.8241 60.0938 52.6108 59.9039L50.3588 61.1761C50.3406 61.1867 50.3204 61.1936 50.2995 61.1963C50.2785 61.199 50.2573 61.1976 50.2369 61.192C50.2165 61.1865 50.1974 61.177 50.1808 61.1641C50.1641 61.1512 50.1502 61.1351 50.1399 61.1168L48.1495 57.6478C47.9588 57.5822 47.756 57.559 47.5553 57.5799C47.325 57.6252 47.1231 57.8909 47.2482 58.086C47.3657 58.089 47.4804 58.123 47.5803 58.1847C47.6802 58.2463 47.7619 58.3332 47.8169 58.4366C47.6942 58.5336 47.5595 58.6143 47.4159 58.6769L49.122 61.6766C49.2067 61.8281 49.3211 61.9612 49.4583 62.0681C49.5956 62.175 49.753 62.2536 49.9212 62.2991C50.0894 62.3447 50.2651 62.3564 50.4379 62.3335C50.6107 62.3105 50.7772 62.2535 50.9275 62.1657L53.879 60.5004L53.8448 60.4806C53.6819 60.4199 53.5158 60.368 53.3472 60.3252Z" fill="#F0792E"/>
<g opacity="0.2">
<path opacity="0.2" d="M52.5788 57.1538C52.6063 56.8288 52.5253 56.5039 52.3485 56.2293L51.9988 55.6129L51.305 56.0031L51.6831 56.6646C51.8708 56.9954 51.794 57.199 51.5609 57.329C51.3277 57.4591 51.1116 57.4252 50.924 57.0944L50.1136 55.6638L49.2435 55.8334L50.1705 57.4591C50.5941 58.2027 51.2083 58.4147 51.9277 58.0245C52.042 57.9593 52.148 57.8805 52.2433 57.7899C52.2029 57.6967 52.1958 57.5926 52.2232 57.4948C52.2506 57.3971 52.3109 57.3116 52.394 57.2527C52.4497 57.2099 52.5122 57.1764 52.5788 57.1538Z" fill="black"/>
<path opacity="0.2" d="M48.7965 55.0503L48.9614 55.333H49.9197L49.5017 54.598C49.314 54.2672 49.388 54.058 49.6211 53.9279C49.8543 53.7979 50.0732 53.8374 50.2609 54.1711L50.5452 54.6658L51.2362 54.2757L50.9803 53.8261C50.5566 53.0854 49.9424 52.8705 49.223 53.2776C49.0579 53.3662 48.9112 53.4852 48.7908 53.6282C48.9542 53.6804 49.1254 53.7043 49.297 53.6989L48.6146 53.9534C48.5645 54.1385 48.5549 54.3322 48.5863 54.5214C48.6177 54.7106 48.6894 54.8909 48.7965 55.0503Z" fill="black"/>
<path opacity="0.2" d="M54.1126 52.0362C54.2038 51.9909 54.2989 51.9539 54.3969 51.9259C54.7637 51.7619 54.8462 51.2361 54.8149 50.8657L54.4367 50.3992L53.4188 50.9647L54.0557 52.0786C54.0723 52.0616 54.0915 52.0473 54.1126 52.0362Z" fill="black"/>
<path opacity="0.2" d="M58.4483 54.2499L59.1392 53.8598L56.4977 49.2288L55.8409 49.5963C56.0513 49.6472 56.202 49.7462 56.2077 49.8988C56.003 49.9271 55.7528 49.8988 55.531 49.9384L56.8617 53.3678L55.1784 51.2814C55.1829 51.3276 55.176 51.3742 55.1581 51.4171C55.1403 51.46 55.1121 51.4978 55.076 51.5273C54.9993 51.581 54.8884 51.581 54.8287 51.6517C54.7689 51.7224 54.7775 51.8072 54.7263 51.8694C54.6751 51.9316 54.5955 51.9486 54.5329 51.9938C54.4704 52.0391 54.4021 52.155 54.3311 52.2313C54.2968 52.2672 54.2537 52.2935 54.2059 52.3076L56.0769 55.5872L56.7138 55.2253L54.8457 51.9514L57.2455 54.9256L57.9393 54.5355L56.5375 50.9364L58.4483 54.2499Z" fill="black"/>
<path opacity="0.2" d="M60.1963 50.218C60.2468 50.2431 60.2917 50.2781 60.3283 50.3208C60.365 50.3636 60.3926 50.4132 60.4095 50.4668C60.4693 50.1174 60.3931 49.7586 60.1963 49.4631L59.8522 48.8581C59.4285 48.1174 58.84 47.9166 58.1064 48.3294L57.0287 48.9373L59.6731 53.5711L60.3583 53.1838C60.1365 53.0452 59.8892 52.9265 59.6788 52.7766C59.58 52.7139 59.4988 52.6274 59.4428 52.525C59.4162 52.4733 59.4053 52.4151 59.4113 52.3574C59.4174 52.2997 59.4401 52.245 59.4769 52.1999C59.525 52.1595 59.5837 52.1335 59.6462 52.125C59.7086 52.1165 59.7721 52.1258 59.8295 52.1518L59.4115 51.4167L59.7584 51.2217C59.949 51.1189 60.1149 50.9761 60.2446 50.8032C60.0996 50.5742 59.8465 50.0879 60.1963 50.218ZM59.3802 50.5742L59.0333 50.7693L58.1376 49.2002L58.4845 49.0051C58.7177 48.8751 58.9054 48.909 59.093 49.2398L59.4911 49.9353C59.6788 50.2519 59.6134 50.43 59.3802 50.5742Z" fill="black"/>
<path opacity="0.2" d="M64.1162 51.0638L63.7408 50.4022L62.5352 51.0807L60.7723 47.9906L60.6927 48.0528C60.6412 48.1002 60.5787 48.1342 60.5107 48.1517C60.4765 48.1594 60.4406 48.1544 60.4098 48.1378C60.3789 48.1212 60.3552 48.094 60.343 48.0612C60.3332 48.0175 60.3332 47.9721 60.343 47.9284C60.3434 47.6653 60.2598 47.4089 60.1041 47.1961L59.5355 47.5241L62.177 52.1551L64.1162 51.0638Z" fill="black"/>
<path opacity="0.2" d="M63.7868 49.4437C63.8664 49.2373 64.1138 49.161 64.2531 48.9744C64.2655 48.9552 64.2769 48.9354 64.2872 48.915L64.0029 48.44L64.7223 48.0358C64.709 47.9906 64.6857 47.9491 64.654 47.9142C64.5508 47.864 64.4406 47.8297 64.327 47.8124C64.3095 47.7773 64.3006 47.7384 64.3013 47.6992C64.3019 47.6599 64.3119 47.6214 64.3306 47.5868C64.3492 47.5522 64.3759 47.5226 64.4084 47.5003C64.441 47.4781 64.4784 47.4639 64.5175 47.459C64.5659 47.459 64.6227 47.459 64.6597 47.4364C64.6856 47.4056 64.6988 47.3662 64.6967 47.3261L64.6313 47.213L63.6247 47.7785L62.8911 46.4893L64.1536 45.774L63.7754 45.1124L61.785 46.2433L63.7413 49.6727C63.7447 49.5945 63.76 49.5173 63.7868 49.4437Z" fill="black"/>
<path opacity="0.2" d="M66.4354 49.7574L66.0572 49.0958L64.7919 49.8083L64.4137 49.1608L63.9474 49.5962L63.7853 49.7517L64.4393 50.8967L66.4354 49.7574Z" fill="black"/>
<path opacity="0.2" d="M65.4942 44.3772C65.4942 44.4761 65.4231 44.5864 65.3264 44.5949C65.2772 44.5943 65.2284 44.5867 65.1814 44.5723C65.0935 44.5739 65.0057 44.5653 64.9198 44.5468C64.9012 44.5392 64.8839 44.5287 64.8686 44.5157L64.0327 44.9879L64.4108 45.6523L65.1757 45.2197L67.4504 49.1778L68.1812 48.7651L65.9065 44.8069L66.6742 44.3744L66.296 43.7128L65.5112 44.1538C65.497 44.2274 65.5027 44.3037 65.4942 44.3772Z" fill="black"/>
<path opacity="0.2" d="M68.687 47.1815L69.2557 48.1795L70.0234 47.7469C70.0416 47.6968 70.0644 47.6486 70.0917 47.6027C70.2607 47.3571 70.4883 47.157 70.7542 47.0203L71.1067 46.8026L70.8736 46.3898L69.6083 47.1051L68.8349 45.7481L69.8414 45.1826L69.4633 44.521L68.4567 45.0865L67.7231 43.7888L68.9884 43.0763L68.6103 42.4148L66.6199 43.5457L68.0558 46.0647C68.4027 45.8809 68.5761 46.5425 68.687 47.1815Z" fill="black"/>
<path opacity="0.2" d="M53.961 56.3307C54.0805 56.3505 54.1515 56.4692 54.2454 56.5484C54.2795 56.5796 54.319 56.6045 54.3619 56.6219C54.4164 56.6004 54.4695 56.5758 54.5212 56.5484C55.2377 56.1441 55.3884 55.4995 54.9676 54.7559L54.9249 54.6824L53.9411 54.657L54.2624 55.2224C54.4501 55.5532 54.3762 55.7624 54.143 55.8925C53.9098 56.0225 53.6909 55.9801 53.5032 55.6493L52.0815 53.1472C51.891 52.8165 51.9678 52.6101 52.201 52.4772C52.4341 52.3443 52.6502 52.3895 52.8407 52.7203L53.8046 54.4167C54.1005 54.3438 54.404 54.3058 54.7088 54.3036L53.5971 52.3556C53.1763 51.6149 52.5422 51.4142 51.8228 51.8184C51.1034 52.2227 50.9527 52.8702 51.3764 53.6109L52.7497 56.0197C52.8365 56.2054 52.9663 56.368 53.1284 56.4943C53.2905 56.6206 53.4803 56.7069 53.6824 56.7463C53.6808 56.7294 53.6808 56.7123 53.6824 56.6954C53.6483 56.5116 53.7847 56.2968 53.961 56.3307Z" fill="black"/>
<path opacity="0.2" d="M63.7783 43.0344L66.0103 41.7763C65.3706 41.9516 64.8076 42.4831 64.1479 42.4096C64.0286 42.3785 63.9032 42.3785 63.784 42.4096C63.7094 42.4574 63.6557 42.5314 63.6336 42.6168C63.6114 42.7022 63.6225 42.7928 63.6645 42.8704C63.6933 42.9308 63.7317 42.9862 63.7783 43.0344Z" fill="black"/>
<path opacity="0.2" d="M58.1809 46.1922C58.1759 46.1433 58.1858 46.094 58.2093 46.0508C58.2641 46.0698 58.3218 46.0793 58.3799 46.0791L59.1505 45.6465C59.2711 45.5108 59.4087 45.3911 59.5599 45.2903C59.706 45.2126 59.8605 45.1519 60.0205 45.1093L60.1911 45.0584L61.6128 44.2612C61.6278 44.2323 61.6481 44.2064 61.6725 44.1848C61.6945 44.1703 61.7185 44.1589 61.7436 44.1509L60.2764 43.7099L59.8812 43.9304L59.8386 44.2414L58.1467 45.1404C57.9793 45.2444 57.7928 45.3146 57.598 45.3468C57.5252 45.3553 57.4518 45.3553 57.379 45.3468L54.9678 46.7067C54.987 46.8203 55.0195 46.9313 55.0645 47.0375C54.9231 47.0113 54.7885 46.9564 54.6693 46.8763L54.1745 47.1591C54.5271 47.3909 54.874 47.6284 55.2124 47.88L58.1809 46.1922Z" fill="black"/>
<path opacity="0.2" d="M68.5022 40.3738L67.3364 39.7235L66.7848 40.0345C67.1098 40.3669 67.5296 40.5919 67.9875 40.6791L68.5022 40.3738Z" fill="black"/>
<path opacity="0.2" d="M74.7729 47.2186L70.3714 39.5031C70.2002 39.2047 69.9172 38.9858 69.5842 38.8942C69.2513 38.8025 68.8954 38.8456 68.5942 39.014L68.0654 39.3136L68.2673 39.5087C68.4777 39.7179 68.6938 39.93 68.89 40.1533L69.1572 40.0035C69.1943 39.9829 69.238 39.9776 69.2789 39.9887C69.3198 39.9998 69.3548 40.0264 69.3762 40.0629L73.7806 47.7812C73.801 47.8184 73.8059 47.862 73.7942 47.9028C73.7825 47.9435 73.7551 47.9781 73.718 47.9989L67.727 51.3915C68.2445 51.4226 68.7677 51.3491 69.2852 51.4085C69.4716 51.4319 69.6567 51.4649 69.8397 51.5075L74.281 49.0025C74.4319 48.9182 74.5644 48.805 74.6709 48.6694C74.7774 48.5339 74.8558 48.3786 74.9016 48.2127C74.9473 48.0467 74.9595 47.8734 74.9375 47.7028C74.9154 47.5322 74.8594 47.3676 74.7729 47.2186Z" fill="black"/>
<path opacity="0.2" d="M47.7993 57.0371L45.7293 53.4013C45.7186 53.3829 45.7117 53.3627 45.7089 53.3416C45.7061 53.3206 45.7076 53.2992 45.7131 53.2787C45.7187 53.2582 45.7282 53.239 45.7413 53.2222C45.7543 53.2054 45.7705 53.1913 45.789 53.1808L51.7601 49.8107C51.7402 49.7655 51.7146 49.7203 51.6976 49.675C51.782 49.6715 51.8664 49.6811 51.9478 49.7033L54.3618 48.3434C54.2822 48.318 54.2055 48.2869 54.1287 48.2586L52.9913 47.8091L52.0814 48.3236L53.0709 48.9258C52.7269 48.7166 52.0246 48.6883 51.4189 48.6968L45.2403 52.1941C44.9396 52.3638 44.719 52.6451 44.6268 52.9764C44.5345 53.3077 44.5783 53.6618 44.7484 53.9611L46.5454 57.1106C46.6278 57.088 46.7131 57.0682 46.7956 57.0541C47.0234 57.0215 47.2538 57.0101 47.4837 57.0201C47.5891 57.0194 47.6946 57.025 47.7993 57.0371Z" fill="black"/>
<path opacity="0.2" d="M55.1754 58.4567C55.2767 58.5469 55.3919 58.6204 55.5166 58.6744C55.6445 58.7309 55.8151 58.8666 55.7156 58.9571C55.255 59.1663 54.6863 59.0108 54.2342 59.2398C53.9868 59.3585 53.748 59.5932 53.4836 59.5225C53.8034 59.7156 54.0912 59.9569 54.3366 60.2378L65.6277 53.8709C65.6277 53.8257 65.6419 53.7804 65.6504 53.7324C65.6507 53.6434 65.6713 53.5556 65.7109 53.4758C65.7504 53.3959 65.8077 53.3261 65.8784 53.2716C65.9491 53.2171 66.0314 53.1793 66.119 53.1612C66.2066 53.143 66.2973 53.145 66.384 53.1669C66.5305 53.1605 66.6771 53.1758 66.819 53.2122L68.2265 52.4177C68.0334 52.0868 67.8046 51.7777 67.5441 51.496L55.1754 58.4567Z" fill="black"/>
<path opacity="0.2" d="M53.3472 60.3252C53.0749 60.2373 52.8241 60.0938 52.6108 59.9039L50.3588 61.1761C50.3406 61.1867 50.3204 61.1936 50.2995 61.1963C50.2785 61.199 50.2573 61.1976 50.2369 61.192C50.2165 61.1865 50.1974 61.177 50.1808 61.1641C50.1641 61.1512 50.1502 61.1351 50.1399 61.1168L48.1495 57.6478C47.9588 57.5822 47.756 57.559 47.5553 57.5799C47.325 57.6252 47.1231 57.8909 47.2482 58.086C47.3657 58.089 47.4804 58.123 47.5803 58.1847C47.6802 58.2463 47.7619 58.3332 47.8169 58.4366C47.6942 58.5336 47.5595 58.6143 47.4159 58.6769L49.122 61.6766C49.2067 61.8281 49.3211 61.9612 49.4583 62.0681C49.5956 62.175 49.753 62.2536 49.9212 62.2991C50.0894 62.3447 50.2651 62.3564 50.4379 62.3335C50.6107 62.3105 50.7772 62.2535 50.9275 62.1657L53.879 60.5004L53.8448 60.4806C53.6819 60.4199 53.5158 60.368 53.3472 60.3252Z" fill="black"/>
</g>
<path opacity="0.3" d="M40.542 50.2304C42.2765 51.497 43.7266 57.5812 43.8574 63.1593C43.9882 68.7374 46.7008 78.1436 47.0249 79.6844C47.3491 81.2252 47.2297 83.4474 49.2428 80.3544C51.2559 77.2615 57.1445 71.8926 59.5984 73.6765C62.0522 75.4605 57.9208 81.4571 55.683 84.6857C53.4453 87.9144 53.2178 93.6 50.5365 97.1594C47.8552 100.719 45.4326 106.093 42.8054 106.011C40.1781 105.929 22.7765 118.765 22.7765 118.765L23.1178 101.197L38.7564 75.7517L40.542 50.2304Z" fill="black" fill-opacity="0.7"/>
<path d="M61.0258 74.5386C60.9376 75.0899 57.8753 79.1244 56.0755 82.1438C54.2756 85.1633 52.5895 90.4191 52.1374 91.1909C51.6853 91.9628 46.1663 96.7832 44.6536 98.799C43.1409 100.815 40.4397 101.705 37.7413 103.605C36.0068 104.827 30.6016 111.129 26.9592 115.48C24.9347 117.897 23.4533 119.72 23.4533 119.72L0.168817 113.684C0.168817 113.684 2.09663 112.104 4.63293 109.972H4.64999L4.67558 109.952C8.84399 106.432 14.653 101.465 16.2567 99.5906C18.8413 96.5711 22.4411 92.9834 22.4411 92.9834C22.2221 88.7906 22.6685 84.8184 22.2733 83.3087C22.0686 82.5199 21.7046 78.0331 21.4203 76.6534C20.7293 73.1278 17.7239 69.4751 17.3855 68.036C17.0472 66.597 13.0806 60.4704 15.017 59.3395C15.369 59.1191 15.7874 59.0281 16.1998 59.0822C18.8157 59.4413 20.971 65.7233 22.4553 67.3235C23.0913 68.0811 23.6673 68.8864 24.1784 69.7323C25.3498 71.5785 26.4986 73.6537 26.4986 73.6537C26.9478 71.8641 23.6865 65.4887 22.7851 59.4497C21.8837 53.4108 19.2991 50.168 22.7851 49.7948C23.0715 49.7629 23.3615 49.7878 23.6381 49.8683C26.092 50.5808 27.1554 55.65 28.6226 60.5693C28.7591 61.0217 29.8765 64.2701 30.7466 66.7751C31.3153 68.4149 31.7702 69.7352 31.7702 69.7352C31.8811 66.6592 30.9172 63.798 30.758 61.0104C30.6897 59.8936 31.0423 55.4181 30.5987 50.9455C30.2177 47.1711 30.3912 45.6416 31.8754 45.3447C32.1933 45.2878 32.5174 45.2726 32.8393 45.2995C35.4126 45.4607 36.3253 52.2601 36.3253 54.9121C36.3253 56.4529 36.5897 59.4611 36.8115 61.7172C36.9736 63.3485 37.1129 64.5868 37.1129 64.5868C37.1129 64.5868 37.5622 60.8407 37.2267 52.7605C37.1499 50.9907 37.2665 49.7241 37.9659 49.2124C38.3498 48.9297 38.9043 48.8816 39.7004 49.0965C41.9495 49.7015 42.6803 57.9881 42.6803 61.1206C42.6803 64.2532 44.4801 69.6192 44.8185 73.8431C45.1569 78.067 46.6297 83.2578 46.6297 83.2578C46.6297 83.2578 47.4628 83.5942 48.023 83.4839C48.5831 83.3737 52.4672 77.6683 52.4672 77.6683C54.2756 73.764 57.7957 72.5794 59.7121 73.0176C60.5936 73.2183 61.1623 73.7583 61.0258 74.5386Z" fill="white"/>
<path opacity="0.4" d="M61.0263 74.5388C60.9381 75.0901 57.8758 79.1245 56.0759 82.144C54.2761 85.1635 52.59 90.4193 52.1379 91.1911C51.6858 91.963 46.1667 96.7834 44.6541 98.7992C43.1414 100.815 40.4402 101.706 37.7418 103.605C36.0073 104.827 30.6021 111.129 26.9597 115.48C27.3606 113.902 28.2591 111.886 30.6077 109.95C34.6852 106.583 34.9297 103.942 37.1219 101.706C39.3142 99.4692 43.1755 100.139 44.5631 97.4647C45.9506 94.7902 50.7901 92.3192 51.8023 89.9698C52.8146 87.6203 50.7901 87.1227 52.59 84.2955C54.3898 81.4683 56.1357 80.7813 55.8797 79.673C55.6238 78.5648 54.8675 76.8854 56.4285 75.4859C57.4038 74.6151 58.5497 73.521 59.7212 73.0178C60.5941 73.2185 61.1628 73.7585 61.0263 74.5388Z" fill="#F0792E"/>
<path opacity="0.4" d="M31.8529 87.8094C31.1051 87.4362 31.7051 86.6926 31.179 86.0734C30.653 85.4543 29.4531 89.452 29.1887 89.4661C28.9242 89.4802 28.1196 87.4333 27.8011 87.2298C27.4826 87.0262 27.295 87.8829 26.8429 89.4661C26.3908 91.0493 24.7302 91.8523 23.7663 92.9832C22.8024 94.114 17.0048 100.263 15.5802 102.573C14.1557 104.883 5.35825 109.455 4.67584 109.946C8.84424 106.432 14.6533 101.465 16.2569 99.5904C18.8416 96.5709 22.4413 92.9832 22.4413 92.9832C22.2224 88.7904 22.6688 84.8181 22.2736 83.3084C22.0688 82.5196 21.7049 78.0328 21.4205 76.6531C20.7296 73.1276 17.7241 69.4748 17.3858 68.0358C17.0474 66.5967 13.0809 60.4701 15.0172 59.3392C15.3693 59.1189 15.7877 59.0279 16.2001 59.082C15.7594 59.393 15.33 59.8397 15.7309 60.4956C16.4446 61.6434 17.2294 62.8506 17.2294 64.1201C17.2294 65.3895 19.4046 67.1763 20.2491 68.3609C21.0935 69.5455 20.3059 69.1271 20.8689 70.7499C21.4319 72.3727 22.1058 72.0335 22.4413 73.6732C22.7768 75.313 24.6535 76.3591 24.3549 78.4032C24.0564 80.4473 25.2534 83.2914 25.2534 83.2914C25.2534 83.2914 26.2287 80.5349 25.8733 79.0506C25.5179 77.5663 25.9301 75.6947 25.5889 75.1915C25.3046 74.7391 24.5255 71.6687 24.1672 69.7604C25.3387 71.6065 26.4874 73.6817 26.4874 73.6817C26.9367 71.8921 23.6753 65.5167 22.774 59.4778C21.8726 53.4388 19.288 50.196 22.774 49.8228C23.0604 49.7909 23.3504 49.8159 23.627 49.8963C25.1141 52.6585 24.0791 54.7026 23.7493 55.9013C23.3882 57.2075 25.5378 60.5606 25.8562 62.8704C26.1406 65.0276 26.7263 64.8043 26.8031 64.7647C26.7377 64.824 26.1832 65.3867 26.5187 66.9869C26.8685 68.6832 29.3621 72.712 29.3621 73.8372C29.3621 74.9625 29.1574 76.8143 29.1574 77.3628C29.1574 77.9112 31.1478 81.581 31.3866 82.5422C31.6254 83.5035 31.2928 80.6904 31.8359 79.715C32.3789 78.7396 32.6661 75.3357 32.7372 75.5194C33.6727 77.883 32.6036 88.1769 31.8529 87.8094Z" fill="#F0792E"/>
<path opacity="0.4" d="M33.4643 62.5456C32.8273 63.504 32.8444 70.9849 31.7582 71.0103C31.2322 71.0103 30.9763 69.1302 30.763 66.7695C31.3317 68.4093 31.7867 69.7296 31.7867 69.7296C31.8975 66.6536 30.9336 63.7924 30.7744 61.0048C30.7062 59.888 31.0587 55.4125 30.6152 50.9399C30.2342 47.1655 30.4076 45.636 31.8919 45.3391C32.2046 46.3456 32.9723 47.5331 33.1685 48.6357C33.4358 50.1567 32.9126 51.4148 32.4634 51.6043C32.0141 51.7937 31.9374 52.7747 32.5003 52.9189C33.0633 53.0631 32.5003 60.2018 32.7619 61.1179C33.0235 62.0339 34.104 61.6013 33.4643 62.5456Z" fill="#F0792E"/>
<path opacity="0.4" d="M39.3075 54.1714C38.1388 54.6832 38.0763 55.5992 37.7265 56.9138C37.3768 58.2285 38.227 60.1482 37.7265 63.1648C37.2261 66.1815 39.0516 68.1266 37.7265 71.5023C36.4015 74.878 37.0242 68.6751 36.8024 65.8478C36.726 64.4709 36.7317 63.0907 36.8195 61.7144C36.9816 63.3458 37.1209 64.5841 37.1209 64.5841C37.1209 64.5841 37.5702 60.838 37.2346 52.7578C37.1579 50.988 37.2744 49.7214 37.9739 49.2097C39.1738 50.2925 40.3026 53.736 39.3075 54.1714Z" fill="#F0792E"/>
<path d="M23.4535 119.724C23.4535 119.724 35.0403 105.52 37.7415 103.609C40.4427 101.697 43.1439 100.813 44.6538 98.8023C46.1636 96.7922 51.6883 91.9774 52.1376 91.1943C52.5868 90.4112 54.2758 85.1554 56.0757 82.1472C57.8755 79.139 60.9379 75.0791 61.026 74.542C61.4184 72.0795 55.1203 71.9692 52.4759 77.6745C52.4759 77.6745 48.5947 83.377 48.0317 83.4901C47.4687 83.6032 46.6385 83.2639 46.6385 83.2639C46.6385 83.2639 45.1656 78.076 44.8272 73.8493C44.4889 69.6226 42.689 64.2509 42.689 61.1268C42.689 58.0027 41.9583 49.7077 39.7091 49.1026C37.46 48.4976 37.1188 50.03 37.2354 52.778C37.5709 60.8582 37.1217 64.6043 37.1217 64.6043C37.1217 64.6043 36.334 57.5843 36.334 54.9295C36.334 52.2748 35.4213 45.4753 32.848 45.317C30.4852 45.1672 30.1554 46.4875 30.6075 50.9714C31.0596 55.4554 30.6984 59.9196 30.7667 61.0363C30.9344 63.8325 31.904 66.6908 31.7789 69.7611C31.7789 69.7611 28.8531 61.3389 28.6285 60.5896C26.9992 55.0992 25.8704 49.4447 22.7768 49.784C19.2908 50.1572 21.8783 53.4 22.7768 59.439C23.6753 65.4779 26.9395 71.8533 26.4902 73.6429C26.4902 73.6429 23.7919 68.7716 22.4469 67.3128C20.7409 65.4779 18.1648 57.4825 15.0143 59.3287C13.078 60.4596 17.0559 66.606 17.3914 68.045C17.7269 69.4841 20.7352 73.134 21.4262 76.6624C21.7105 78.0421 22.0659 82.5289 22.2792 83.3177C22.6744 84.8274 22.228 88.7996 22.4469 92.9924C22.4469 92.9924 18.8472 96.5717 16.2626 99.5911C13.6779 102.611 0.174706 113.685 0.174706 113.685" stroke="#434B53" stroke-width="0.346552" stroke-linecap="round" stroke-linejoin="round"/>
<path d="M46.6386 83.2606C47.1576 84.5344 47.1576 85.9591 46.6386 87.2329" stroke="#434B53" stroke-width="0.346552" stroke-linecap="round" stroke-linejoin="round"/>
<path d="M47.5848 83.4981C47.9076 83.7338 48.1467 84.0654 48.2679 84.4449C48.389 84.8245 48.3857 85.2325 48.2587 85.6101" stroke="#434B53" stroke-width="0.346552" stroke-linecap="round" stroke-linejoin="round"/>
<path d="M37.1221 64.5838C37.1221 64.5838 38.0234 70.9026 37.6282 72.0759" stroke="#434B53" stroke-width="0.346552" stroke-linecap="round" stroke-linejoin="round"/>
<path d="M31.7788 69.7293C31.8748 70.34 31.8748 70.9619 31.7788 71.5726" stroke="#434B53" stroke-width="0.346552" stroke-linecap="round" stroke-linejoin="round"/>
<path d="M26.4925 73.6425C26.4925 73.6425 26.6593 74.5953 26.4925 74.8186" stroke="#434B53" stroke-width="0.346552" stroke-linecap="round" stroke-linejoin="round"/>
<path d="M55.0049 79.0112C55.0049 79.0112 56.0228 79.5597 56.3555 80.3542" stroke="#434B53" stroke-width="0.346552" stroke-linecap="round" stroke-linejoin="round"/>
<path d="M31.8161 52.7574C32.1461 52.8362 32.4906 52.8311 32.8181 52.7427C33.1456 52.6542 33.4454 52.4852 33.6899 52.2513" stroke="#434B53" stroke-width="0.346552" stroke-linecap="round" stroke-linejoin="round"/>
<path d="M32.1596 61.8444C32.1596 61.8444 34.1841 62.5145 34.9177 61.8444" stroke="#434B53" stroke-width="0.346552" stroke-linecap="round" stroke-linejoin="round"/>
<path d="M38.7533 63.8009C38.7533 63.8009 40.1011 63.2977 41.0024 63.5776" stroke="#434B53" stroke-width="0.346552" stroke-linecap="round" stroke-linejoin="round"/>
<path d="M25.8722 65.5907C25.8722 65.5907 26.9413 64.1912 27.7858 64.5842" stroke="#434B53" stroke-width="0.346552" stroke-linecap="round" stroke-linejoin="round"/>
<path d="M21.4851 69.7293C21.4851 69.7293 20.5297 70.176 20.2482 70.6509" stroke="#434B53" stroke-width="0.346552" stroke-linecap="round" stroke-linejoin="round"/>
<path d="M22.4409 92.9836C22.6753 92.722 22.8829 92.4379 23.0607 92.1355C23.2285 91.799 23.0039 88.2197 23.0607 85.9156" stroke="#434B53" stroke-width="0.346552" stroke-linecap="round" stroke-linejoin="round"/>
<path d="M34.2402 107.075C32.9152 108.55 28.852 111.225 27.2227 112.845" stroke="#434B53" stroke-width="0.346552" stroke-linecap="round" stroke-linejoin="round"/>
<path d="M39.5941 73.6425C38.9202 75.5452 39.651 77.9483 39.5941 79.0142C39.5373 80.0801 39.3098 84.9514 39.3098 84.9514" stroke="#434B53" stroke-width="0.346552" stroke-linecap="round" stroke-linejoin="round"/>
<path d="M33.465 73.6425C32.5665 75.1522 32.848 77.1652 33.1295 78.166C33.411 79.1669 33.1608 83.255 33.1608 83.255" stroke="#434B53" stroke-width="0.346552" stroke-linecap="round" stroke-linejoin="round"/>
<path d="M23.7911 78.4518C23.7166 79.4364 23.9132 80.4226 24.3598 81.3045" stroke="#434B53" stroke-width="0.346552" stroke-linecap="round" stroke-linejoin="round"/>
<path d="M29.3587 75.4887C28.8526 77.3348 29.5293 78.1717 29.5862 78.4516" stroke="#434B53" stroke-width="0.346552" stroke-linecap="round" stroke-linejoin="round"/>
<path opacity="0.3" d="M75.0445 63.2971L74.0863 57.767C74.044 57.5213 74.0521 57.2697 74.1101 57.0272C74.1681 56.7847 74.2748 56.5564 74.4238 56.356C74.5728 56.1555 74.761 55.9871 74.9771 55.8608C75.1932 55.7346 75.4328 55.653 75.6814 55.6212L77.8282 55.3384C77.8282 55.3384 77.1116 53.8937 79.4176 49.684C81.7236 45.4743 92.81 34.2926 101.215 53.0767C109.62 71.8607 117.3 110.138 117.3 110.138C117.3 110.138 94.6127 83.8679 93.8905 82.5222C93.1682 81.1764 86.2617 81.9822 84.6665 78.3718C83.0714 74.7614 79.7219 64.459 79.7219 64.459L77.1287 64.8125C76.6517 64.8766 76.1682 64.7547 75.7796 64.4722C75.3911 64.1896 75.1276 63.7685 75.0445 63.2971Z" fill="black" fill-opacity="0.7"/>
<path d="M95.0392 50.6084L90.686 51.3944L84.6353 52.4886L76.7108 53.922C76.5588 53.9497 76.4027 53.9473 76.2517 53.915C76.1006 53.8826 75.9574 53.821 75.8304 53.7335C75.7033 53.6461 75.5949 53.5345 75.5112 53.4053C75.4276 53.2761 75.3705 53.1317 75.3431 52.9805L73.6029 43.4669C73.5482 43.1618 73.617 42.8476 73.7944 42.5928C73.9718 42.3381 74.2433 42.1634 74.5498 42.107L79.1589 41.2588L85.8636 40.0488L92.8783 38.7794C93.0302 38.7516 93.1863 38.754 93.3373 38.7863C93.4884 38.8187 93.6316 38.8803 93.7586 38.9678C93.8857 39.0553 93.9941 39.1668 94.0778 39.296C94.1614 39.4252 94.2185 39.5696 94.2459 39.7208L95.9861 49.2344C96.016 49.3866 96.0152 49.5431 95.9837 49.695C95.9522 49.8468 95.8905 49.9909 95.8024 50.1188C95.7142 50.2467 95.6014 50.3559 95.4703 50.44C95.3393 50.524 95.1928 50.5813 95.0392 50.6084Z" fill="#F0792E"/>
<path opacity="0.3" d="M91.9591 44.292L90.6852 51.394L84.6345 52.4882C82.883 51.722 79.9941 50.3875 79.4169 49.6609C78.7288 48.8128 78.8255 43.8142 79.1582 41.2584L85.8629 40.0484C88.2257 41.6684 91.9591 44.292 91.9591 44.292Z" fill="black" fill-opacity="0.7"/>
<path opacity="0.3" d="M77.9135 53.7041L76.7108 53.9218C76.5588 53.9496 76.4028 53.9472 76.2517 53.9149C76.1006 53.8825 75.9574 53.8209 75.8304 53.7334C75.7033 53.6459 75.5949 53.5344 75.5112 53.4052C75.4276 53.276 75.3705 53.1316 75.3431 52.9804L73.6029 43.4668C73.5482 43.1617 73.617 42.8475 73.7944 42.5927C73.9718 42.3379 74.2433 42.1633 74.5498 42.1069L75.7497 41.8892C75.4434 41.9455 75.1721 42.1203 74.9951 42.3752C74.8182 42.6301 74.7501 42.9443 74.8057 43.2491L76.5458 52.7627C76.5732 52.9139 76.6304 53.0583 76.714 53.1875C76.7976 53.3167 76.9061 53.4282 77.0331 53.5157C77.1602 53.6032 77.3034 53.6648 77.4544 53.6972C77.6055 53.7295 77.7615 53.7319 77.9135 53.7041Z" fill="black" fill-opacity="0.7"/>
<path d="M95.0392 50.6084L90.686 51.3944L84.6353 52.4886L76.7108 53.922C76.5588 53.9497 76.4027 53.9473 76.2517 53.915C76.1006 53.8826 75.9574 53.821 75.8304 53.7335C75.7033 53.6461 75.5949 53.5345 75.5112 53.4053C75.4276 53.2761 75.3705 53.1317 75.3431 52.9805L73.6029 43.4669C73.5482 43.1618 73.617 42.8476 73.7944 42.5928C73.9718 42.3381 74.2433 42.1634 74.5498 42.107L79.1589 41.2588L85.8636 40.0488L92.8783 38.7794C93.0302 38.7516 93.1863 38.754 93.3373 38.7863C93.4884 38.8187 93.6316 38.8803 93.7586 38.9678C93.8857 39.0553 93.9941 39.1668 94.0778 39.296C94.1614 39.4252 94.2185 39.5696 94.2459 39.7208L95.9861 49.2344C96.016 49.3866 96.0152 49.5431 95.9837 49.695C95.9522 49.8468 95.8905 49.9909 95.8024 50.1188C95.7142 50.2467 95.6014 50.3559 95.4703 50.44C95.3393 50.524 95.1928 50.5813 95.0392 50.6084V50.6084Z" stroke="#434B53" stroke-width="0.346552" stroke-linecap="round" stroke-linejoin="round"/>
<path d="M93.7464 38.2765L75.492 41.6103C74.8548 41.7266 74.4332 42.3345 74.5502 42.968L76.3001 52.441C76.4171 53.0745 77.0285 53.4937 77.6656 53.3773L95.9201 50.0435C96.5572 49.9272 96.9789 49.3193 96.8618 48.6858L95.112 39.2129C94.9949 38.5794 94.3836 38.1601 93.7464 38.2765Z" stroke="#434B53" stroke-width="0.345302" stroke-linecap="round" stroke-linejoin="round"/>
<path d="M93.2347 39.4207L76.0325 42.5291C75.7235 42.5849 75.5185 42.8793 75.5746 43.1865L77.288 52.5607C77.3441 52.868 77.6401 53.0718 77.9492 53.016L95.1514 49.9076C95.4604 49.8517 95.6654 49.5574 95.6092 49.2501L93.8959 39.8759C93.8397 39.5687 93.5437 39.3649 93.2347 39.4207Z" stroke="#434B53" stroke-width="0.346552" stroke-linecap="round" stroke-linejoin="round"/>
<path d="M96.2425 50.3907L95.0483 50.6056C95.3533 50.5486 95.6232 50.3738 95.799 50.1195C95.9748 49.8653 96.0423 49.5521 95.9866 49.2485L94.2464 39.7349C94.219 39.5837 94.1619 39.4393 94.0783 39.3101C93.9947 39.1809 93.8862 39.0694 93.7592 38.9819C93.6321 38.8944 93.4889 38.8328 93.3379 38.8004C93.1868 38.7681 93.0308 38.7657 92.8788 38.7935L94.0815 38.5758C94.3883 38.5213 94.7043 38.5897 94.9606 38.7661C95.2168 38.9425 95.3925 39.2125 95.4492 39.5172L97.1893 49.0308C97.2441 49.3359 97.1753 49.6501 96.9979 49.9049C96.8205 50.1597 96.5489 50.3343 96.2425 50.3907V50.3907Z" stroke="#434B53" stroke-width="0.346552" stroke-linecap="round" stroke-linejoin="round"/>
<path d="M130.826 80.8651L119.051 112.27C119.051 112.27 114.126 102.94 109.577 94.3057C105.943 87.4016 102.548 80.9273 102.09 79.9745C101.064 77.8286 97.558 73.3333 97.558 73.3333C97.558 73.3333 93.9611 71.2864 92.3148 67.7213C90.6685 64.1562 88.8572 51.4026 88.8572 51.4026C88.8572 51.4026 84.1287 49.6328 82.9999 48.8581C81.871 48.0834 80.8417 40.9249 80.8417 40.1079C80.8417 39.2908 81.9791 37.6538 81.9791 37.6538C81.9791 37.6538 81.726 36.4551 83.1705 35.245C83.6426 34.8597 84.166 34.5409 84.7258 34.2979H84.7542C84.7542 34.2979 84.5666 31.5923 85.9826 30.8035C86.0502 30.7654 86.1205 30.7324 86.193 30.7045C87.4554 30.2211 91.5954 29.5963 91.5954 29.5963C92.1807 29.0849 92.862 28.6938 93.6 28.4456C94.3336 28.2448 98.3598 29.175 100.609 29.7263C101.513 29.9468 102.13 30.1052 102.13 30.1052C102.13 30.1052 105.935 30.2776 106.654 30.7045C107.156 31.0316 107.614 31.4201 108.019 31.8609L108.09 31.9428C108.09 31.9428 111.482 32.644 112.201 33.8795C112.921 35.115 113.228 41.2444 112.716 45.2279C112.204 49.2115 113.123 55.9714 113.123 55.9714C113.123 55.9714 114.183 61.1933 115.005 63.1751C115.827 65.157 130.826 80.8651 130.826 80.8651Z" fill="white"/>
<path opacity="0.4" d="M109.577 94.3059C105.943 87.4018 102.548 80.9275 102.09 79.9747C101.064 77.8289 97.558 73.3336 97.558 73.3336C97.558 73.3336 93.9611 71.2867 92.3148 67.7215C90.6685 64.1564 88.8572 51.4028 88.8572 51.4028C88.8572 51.4028 84.1287 49.633 82.9999 48.8583C81.871 48.0837 80.8417 40.9251 80.8417 40.1081C80.8417 39.291 81.9791 37.6541 81.9791 37.6541C81.9791 37.6541 81.726 36.4553 83.1705 35.2453C83.1705 35.5676 83.1705 36.1104 83.1705 36.9642C83.1363 38.5842 85.0556 48.3523 85.5305 48.0554C86.0053 47.7585 86.7389 47.0432 86.5456 46.4128C86.5456 46.4128 85.6158 42.6215 84.7372 34.2981H84.7656C84.7656 34.2981 84.5779 31.5925 85.9939 30.8037C85.7503 31.3896 85.5942 32.0077 85.5305 32.6386C85.4992 33.956 87.0744 45.2451 87.6914 45.5307C88.3085 45.8162 89.8723 44.3122 89.8723 44.3122C89.8723 44.3122 89.3378 41.1089 89.5283 39.7434C89.5283 39.7434 94.2853 42.6271 94.4274 45.9011C94.4416 46.2601 95.3544 51.3915 95.3544 51.3915C95.3544 51.3915 91.2627 59.1381 95.4397 66.2062C95.4397 66.2062 93.3157 64.9396 92.8095 62.9266C92.8095 62.9266 92.1925 68.8468 96.5799 71.9737C96.5799 71.9737 99.7275 68.9005 102.835 68.5103C102.835 68.5103 102.892 68.7139 100.811 70.3452C98.7295 71.9765 98.448 72.7031 98.448 72.7031C98.448 72.7031 100.7 70.4413 102.5 70.3452C102.5 70.3452 100.643 72.4798 100.7 72.9265C100.757 73.3732 106.009 82.3015 107.919 88.5299C108.698 91.1309 109.23 93.0082 109.577 94.3059Z" fill="#F0792E"/>
<path opacity="0.4" d="M94.8319 35.0529C94.8319 35.0529 96.3475 36.1838 96.7967 35.0529C97.0547 34.4477 97.2186 33.8071 97.2829 33.153C97.2829 33.153 97.8658 32.8872 98.4203 34.2839C98.9748 35.6805 104.534 36.0367 105.836 36.752C107.138 37.4673 107.656 36.752 107.656 36.752C107.959 36.9999 108.167 37.3442 108.245 37.7269C108.322 38.1096 108.265 38.5072 108.082 38.8527C107.451 40.1503 109.239 40.2663 109.933 39.3107C110.627 38.3551 110.09 42.0446 108.375 42.4206C108.375 42.4206 108.423 44.0321 107.32 45.1376H108.256C108.256 45.1376 105.765 47.1025 105.102 47.2099C104.44 47.3174 107.567 48.4171 106.987 48.649C106.407 48.8808 104.764 48.861 104.764 48.861C104.764 48.861 105.827 49.5933 105.836 50.0767C105.844 50.5602 105.333 50.9249 105.102 50.5206C104.872 50.1163 103.035 44.3262 102.12 42.1859C101.204 40.0457 97.4223 38.3522 94.8319 35.0529Z" fill="#F0792E"/>
<path opacity="0.4" d="M108.016 31.8409C104.825 30.973 100.546 29.7375 100.546 29.7375L100.606 29.7064C101.51 29.9269 102.127 30.0852 102.127 30.0852C102.127 30.0852 105.932 30.2577 106.651 30.6846C107.153 31.0117 107.611 31.4002 108.016 31.8409Z" fill="#F0792E"/>
<path d="M103.531 36.8313C100.755 36.2658 98.7736 38.6237 98.7736 38.6237C98.7736 38.6237 101.532 41.106 102.143 42.1719C102.754 43.2378 103.769 46.8312 103.769 46.8312C104.932 47.0177 107.076 45.8247 107.591 42.6582C108.106 39.4917 106.292 37.3939 103.531 36.8313Z" fill="#F0792E"/>
<path d="M119.051 112.27C119.051 112.27 103.128 82.1205 102.09 79.9746C101.053 77.8288 97.558 73.3335 97.558 73.3335C97.558 73.3335 93.9611 71.2866 92.3148 67.7215C90.6685 64.1563 88.8572 51.4027 88.8572 51.4027C88.8572 51.4027 84.1287 49.6329 82.9999 48.8582C81.871 48.0836 80.8417 40.9251 80.8417 40.108C80.8417 39.2909 81.9791 37.654 81.9791 37.654C81.9791 37.654 81.5696 35.7173 84.7542 34.2839C84.7542 34.2839 84.5495 31.3182 86.193 30.6905C87.4554 30.2071 91.5954 29.5823 91.5954 29.5823C92.1807 29.0709 92.862 28.6798 93.6 28.4316C94.6265 28.1489 102.13 30.0912 102.13 30.0912C102.13 30.0912 105.935 30.2636 106.654 30.6905C107.18 31.0356 107.659 31.4471 108.079 31.9147C108.079 31.9147 111.471 32.6159 112.19 33.8514C112.909 35.0869 113.217 41.2163 112.705 45.1998C112.193 49.1834 113.111 55.9433 113.111 55.9433C113.111 55.9433 114.172 61.1651 114.994 63.147C115.815 65.1289 130.826 80.8652 130.826 80.8652" stroke="#434B53" stroke-width="0.346552" stroke-linecap="round" stroke-linejoin="round"/>
<path d="M105.571 50.9874C105.571 50.9874 104.852 50.8347 103.928 47.4618C103.004 44.0889 102.759 42.5114 100.843 40.5125C99.4836 39.0989 96.373 36.7891 94.8318 35.0532C93.2907 33.3172 91.5875 31.9149 90.2568 32.9893C89.1934 33.8374 88.4996 36.0399 89.4351 39.4382C90.6378 43.8034 94.4309 45.8814 94.4309 45.8814L95.3579 51.3719C95.3579 51.3719 91.3345 59.3842 95.8697 66.947" stroke="#434B53" stroke-width="0.346552" stroke-linecap="round" stroke-linejoin="round"/>
<path d="M98.7579 38.624C98.7579 38.624 100.748 36.2689 103.515 36.8315C106.282 37.3941 108.079 39.4891 107.575 42.6584C107.072 45.8277 104.917 47.018 103.754 46.8314" stroke="#434B53" stroke-width="0.346552" stroke-linecap="round" stroke-linejoin="round"/>
<path d="M91.5865 29.5768C91.171 30.6155 90.8513 31.6895 90.6312 32.7857" stroke="#434B53" stroke-width="0.346552" stroke-linecap="round" stroke-linejoin="round"/>
<path d="M89.9029 40.6481C89.9029 40.6481 90.1417 44.1397 90.6365 45.2112C91.1312 46.2827 91.953 47.1535 92.3112 48.5332C92.6695 49.9129 92.7235 52.0587 92.8259 52.3669C92.9283 52.6751 93.5225 52.7542 93.5225 52.7542C94.3755 52.774 94.7196 52.333 95.2115 51.6601" stroke="#434B53" stroke-width="0.346552" stroke-linecap="round" stroke-linejoin="round"/>
<path d="M84.7638 34.2782C84.7638 34.2782 85.5343 41.7364 86.1514 44.9057C86.7684 48.075 87.8574 48.533 89.6459 49.5565C91.4344 50.5799 92.421 52.6664 92.5774 52.9802C92.7338 53.2941 93.3195 53.328 93.3195 53.328C93.6637 53.2995 93.9953 53.1861 94.2843 52.998C94.5733 52.8099 94.8105 52.5531 94.9744 52.2508" stroke="#434B53" stroke-width="0.346552" stroke-linecap="round" stroke-linejoin="round"/>
<path d="M81.9821 37.6486C81.7888 37.9455 83.438 45.5196 84.2967 47.7164C85.1554 49.9131 85.252 50.2609 87.5239 50.8829C89.7958 51.5048 91.5217 52.5396 92.1359 52.1749" stroke="#434B53" stroke-width="0.346552" stroke-linecap="round" stroke-linejoin="round"/>
<path d="M97.7607 33.4586C97.7607 33.4586 98.9407 36.2689 98.1616 38.1179" stroke="#434B53" stroke-width="0.346552" stroke-linecap="round" stroke-linejoin="round"/>
<path d="M102.128 30.0852C104.062 30.8454 106.052 31.4569 108.08 31.9145" stroke="#434B53" stroke-width="0.346552" stroke-linecap="round" stroke-linejoin="round"/>
<path d="M109.943 39.7966C109.943 39.7966 109.038 41.4392 107.668 41.7926" stroke="#434B53" stroke-width="0.346552" stroke-linecap="round" stroke-linejoin="round"/>
<path d="M107.663 38.0074C107.663 38.0074 107.339 38.8555 106.995 39.0902" stroke="#434B53" stroke-width="0.346552" stroke-linecap="round" stroke-linejoin="round"/>
<path d="M108.802 44.7532C108.802 44.7532 106.746 46.2997 104.773 46.7011" stroke="#434B53" stroke-width="0.346552" stroke-linecap="round" stroke-linejoin="round"/>
<path d="M103.928 47.4641C103.928 47.4641 104.781 48.5356 106.996 48.6374" stroke="#434B53" stroke-width="0.346552" stroke-linecap="round" stroke-linejoin="round"/>
<path d="M97.2739 42.7742C97.2739 42.7742 99.287 40.8517 100.436 41.1174" stroke="#434B53" stroke-width="0.346552" stroke-linecap="round" stroke-linejoin="round"/>
<path d="M101.214 43.1641C101.214 43.1641 99.6903 44.295 99.4116 44.295" stroke="#434B53" stroke-width="0.346552" stroke-linecap="round" stroke-linejoin="round"/>
<path d="M85.5215 49.1608C85.5215 49.1608 86.0276 49.2541 86.4228 48.6463" stroke="#434B53" stroke-width="0.346552" stroke-linecap="round" stroke-linejoin="round"/>
<path d="M87.3216 46.4071C87.3216 46.4071 88.5442 45.6551 89.3432 45.5109" stroke="#434B53" stroke-width="0.346552" stroke-linecap="round" stroke-linejoin="round"/>
<path d="M98.0925 71.9085C98.3455 71.6852 100.708 69.7853 102.17 69.1124" stroke="#434B53" stroke-width="0.346552" stroke-linecap="round" stroke-linejoin="round"/>
<path d="M101.158 71.0095C100.991 70.9586 99.6485 72.3553 98.9405 72.915" stroke="#434B53" stroke-width="0.346552" stroke-linecap="round" stroke-linejoin="round"/>
<path d="M101.824 75.1515C101.824 75.1515 106.325 83.6332 107.337 87.0258" stroke="#434B53" stroke-width="0.346552" stroke-linecap="round" stroke-linejoin="round"/>
<path d="M115.006 63.1582C115.387 65.2418 116.623 66.777 117.3 67.6082" stroke="#434B53" stroke-width="0.346552" stroke-linecap="round" stroke-linejoin="round"/>
<path opacity="0.4" d="M100.817 37.6484C100.163 38.0498 100.852 39.3617 101.215 40.0317C101.579 40.7018 103.206 41.7676 103.544 42.7741C103.883 43.7806 106.021 43.7523 106.672 42.7741C107.323 41.7959 107.241 39.8423 105.466 38.3552C103.692 36.8681 101.747 37.0829 100.817 37.6484Z" fill="white"/>
<path d="M88.3302 93.9924C85.4344 93.503 82.4573 94.0036 79.8844 95.4125C77.3114 96.8214 75.2945 99.0556 74.1624 101.751C73.0304 104.446 72.85 107.442 73.6508 110.252C74.4515 113.062 76.1861 115.52 78.5717 117.224" stroke="#434B53" stroke-width="0.346552" stroke-linecap="round" stroke-linejoin="round"/>
<path d="M93.7462 96.2453C92.5407 95.3797 91.194 94.7274 89.7655 94.3172" stroke="#434B53" stroke-width="0.346552" stroke-linecap="round" stroke-linejoin="round"/>
<path d="M92.4391 118.026C94.1916 117.062 95.6958 115.707 96.8342 114.068C97.9726 112.429 98.7143 110.551 99.0012 108.58C99.2881 106.608 99.1125 104.598 98.4881 102.705C97.8637 100.813 96.8074 99.0896 95.4019 97.6704" stroke="#434B53" stroke-width="0.346552" stroke-linecap="round" stroke-linejoin="round"/>
<path d="M93.0676 122.104L93.841 122.782L92.6354 118.674" stroke="#434B53" stroke-width="0.346552" stroke-linecap="round" stroke-linejoin="round"/>
<path d="M83.9688 119.463C85.8805 119.789 87.8415 119.684 89.7067 119.155L92.1549 121.304" stroke="#434B53" stroke-width="0.346552" stroke-linecap="round" stroke-linejoin="round"/>
<path d="M80.989 118.586C81.4743 118.794 81.9718 118.972 82.4789 119.12" stroke="#434B53" stroke-width="0.346552" stroke-linecap="round" stroke-linejoin="round"/>
<path d="M87.1761 100.444C88.7866 100.718 90.2358 101.581 91.2383 102.864C92.2408 104.147 92.724 105.756 92.5929 107.376C92.4617 108.995 91.7257 110.507 90.5297 111.614C89.3336 112.721 87.7643 113.342 86.1304 113.356C84.4966 113.37 82.9167 112.775 81.7017 111.689C80.4867 110.603 79.7246 109.104 79.5655 107.487C79.4064 105.87 79.8617 104.253 80.8419 102.953C81.822 101.653 83.256 100.765 84.8616 100.464" stroke="#434B53" stroke-width="0.346552" stroke-linecap="round" stroke-linejoin="round"/>
<path d="M84.8618 113.955C82.968 113.634 81.2798 112.579 80.1686 111.021C79.0574 109.462 78.6141 107.529 78.9362 105.646" stroke="#434B53" stroke-width="0.346552" stroke-linecap="round" stroke-linejoin="round"/>
<path d="M92.8906 109.302C92.4446 110.528 91.6726 111.611 90.6566 112.436C89.6407 113.26 88.4189 113.795 87.1213 113.984" stroke="#434B53" stroke-width="0.346552" stroke-linecap="round" stroke-linejoin="round"/>
<path d="M79.4932 103.848C80.2273 102.261 81.5164 100.993 83.1207 100.28C84.7249 99.5679 86.5349 99.4593 88.2136 99.9749C89.8923 100.49 91.3254 101.595 92.246 103.083C93.1667 104.571 93.5122 106.341 93.2182 108.063" stroke="#434B53" stroke-width="0.346552" stroke-linecap="round" stroke-linejoin="round"/>
<path d="M90.425 104.258L90.507 104.17" stroke="#434B53" stroke-width="0.693103" stroke-linecap="round" stroke-linejoin="round"/>
<path d="M89.2649 105.502L89.8421 104.883" stroke="#434B53" stroke-width="0.693103" stroke-linecap="round" stroke-linejoin="round"/>
<path d="M82.1825 106.415L84.9718 110.102L88.7592 106.045" stroke="#434B53" stroke-width="0.693103" stroke-linecap="round" stroke-linejoin="round"/>
<path d="M102.236 72.8837L106.552 59.2622C106.552 59.2622 106.242 58.5356 103.737 57.9136C101.232 57.2916 100.135 58.9512 98.7271 59.4177C97.3196 59.8842 95.5482 57.1559 93.717 57.0852C90.305 56.9608 89.4918 58.3292 87.2995 59.2622C85.1073 60.1952 85.1073 58.3292 82.7501 57.5517C80.3929 56.7742 78.2007 59.4177 78.2007 59.4177L84.2628 72.2052C73.8986 75.7873 66.4177 86.0586 66.4177 98.1563C66.4177 113.242 78.0358 125.47 92.3664 125.47C106.697 125.47 118.315 113.242 118.315 98.1563C118.335 86.7428 111.682 76.9662 102.236 72.8837Z" fill="#FEF7F2" stroke="#434B53" stroke-width="0.346552" stroke-linejoin="round"/>
<path d="M98.6601 87.8832C99.5657 87.8832 100.3 87.1489 100.3 86.243C100.3 85.3377 99.5657 84.6028 98.6601 84.6028H85.6749C84.7693 84.6028 84.0353 85.3377 84.0353 86.243C84.0353 87.1489 84.7693 87.8832 85.6749 87.8832H89.3966C90.9356 87.8806 92.3337 88.7789 92.971 90.1794H85.6909C84.7859 90.1794 84.0513 90.9143 84.0513 91.8196C84.0513 92.7255 84.7859 93.4598 85.6909 93.4598H92.971C92.3279 94.8565 90.933 95.7522 89.3966 95.756H85.6749C85.0024 95.7567 84.3978 96.1673 84.1487 96.792C83.8995 97.4167 84.0558 98.1304 84.5432 98.5936L93.8234 107.369C94.1302 107.656 94.535 107.814 94.9545 107.811C95.4053 107.809 95.8364 107.625 96.1515 107.303C96.4499 106.988 96.6107 106.567 96.5985 106.133C96.5863 105.7 96.4019 105.288 96.0861 104.99L89.7898 99.0364C92.9838 98.8518 95.6775 96.5908 96.4141 93.4764H98.6601C99.5657 93.4764 100.3 92.7422 100.3 91.8362C100.3 90.9303 99.5657 90.1961 98.6601 90.1961H96.4141C96.2232 89.3792 95.8902 88.6014 95.4303 87.8998H98.6601V87.8832Z" fill="#F0792E"/>
<path d="M86.8704 70.5397L84.9483 67.6333" stroke="#434B53" stroke-width="0.346552" stroke-miterlimit="10"/>
<path d="M99.3284 66.4913L98.1769 70.6954" stroke="#434B53" stroke-width="0.346552" stroke-miterlimit="10"/>
<path d="M87.4049 66.5875L87.2607 65.3464" stroke="#434B53" stroke-width="0.346552" stroke-miterlimit="10"/>
<path d="M87.882 70.6954L87.5237 67.6166" stroke="#434B53" stroke-width="0.346552" stroke-miterlimit="10"/>
<path d="M101.394 65.5947L101.841 64.6476" stroke="#434B53" stroke-width="0.346552" stroke-miterlimit="10"/>
<path d="M99.0308 70.619L100.967 66.5026" stroke="#434B53" stroke-width="0.346552" stroke-miterlimit="10"/>
<path d="M103.928 88.3001C103.664 88.3 103.411 88.1999 103.218 88.0203C103.026 87.8407 102.91 87.595 102.893 87.3332C102.359 78.6735 96.7344 72.9936 96.6719 72.9399C96.4769 72.7464 96.3673 72.4839 96.367 72.21C96.3667 71.9362 96.4759 71.6734 96.6705 71.4796C96.865 71.2858 97.129 71.1767 97.4045 71.1765C97.6799 71.1762 97.9441 71.2847 98.1391 71.4782C98.3921 71.7326 104.366 77.7744 104.963 87.2032C104.972 87.3384 104.954 87.474 104.91 87.6022C104.866 87.7305 104.797 87.8488 104.707 87.9505C104.617 88.0521 104.507 88.1351 104.385 88.1946C104.263 88.2542 104.13 88.2891 103.994 88.2973L103.928 88.3001Z" fill="#F29A62" stroke="#434B53" stroke-width="0.346552" stroke-linejoin="round"/>
<path d="M109.273 86.2595C109.019 86.3269 108.748 86.2951 108.516 86.1706C108.284 86.046 108.108 85.8382 108.025 85.5895C105.258 77.3594 98.3575 73.308 98.295 73.2684C98.1716 73.2034 98.0627 73.1143 97.9747 73.0065C97.8868 72.8986 97.8216 72.7742 97.7832 72.6408C97.7447 72.5073 97.7338 72.3675 97.7509 72.2297C97.7681 72.0919 97.8131 71.959 97.8831 71.8388C97.9532 71.7187 98.0469 71.6139 98.1587 71.5307C98.2704 71.4475 98.398 71.3875 98.5336 71.3544C98.6692 71.3213 98.8101 71.3158 98.9479 71.3381C99.0858 71.3605 99.2176 71.4103 99.3356 71.4845C99.6456 71.6626 106.982 75.9741 109.993 84.9364C110.036 85.0646 110.053 85.2001 110.044 85.3351C110.034 85.47 109.998 85.6018 109.937 85.7229C109.877 85.8439 109.793 85.9519 109.69 86.0406C109.587 86.1293 109.468 86.1969 109.339 86.2397L109.273 86.2595Z" fill="#F29A62" stroke="#434B53" stroke-width="0.346552" stroke-linejoin="round"/>
<path d="M101.822 73.3529H83.8002C83.6233 73.3533 83.448 73.3189 83.2845 73.2516C83.1209 73.1844 82.9724 73.0856 82.8474 72.9611C82.7224 72.8365 82.6234 72.6886 82.5561 72.5259C82.4888 72.3631 82.4546 72.1888 82.4553 72.0128C82.4553 71.6589 82.5967 71.3195 82.8484 71.0692C83.1001 70.819 83.4415 70.6784 83.7974 70.6784H101.819C102.175 70.6784 102.516 70.819 102.768 71.0692C103.019 71.3195 103.161 71.6589 103.161 72.0128C103.162 72.1883 103.128 72.3622 103.061 72.5246C102.994 72.6869 102.895 72.8346 102.771 72.9591C102.646 73.0835 102.499 73.1824 102.336 73.25C102.173 73.3176 101.998 73.3525 101.822 73.3529Z" fill="#F29A62" stroke="#434B53" stroke-width="0.346552" stroke-linejoin="round"/>
<path d="M106.396 117.856H77.9169V125.58H106.396V117.856Z" fill="#F29A62" stroke="#434B53" stroke-width="0.346552" stroke-miterlimit="10"/>
<path d="M120.008 117.856H106.357V125.58H120.008V117.856Z" fill="#D26E2E" stroke="#434B53" stroke-width="0.346552" stroke-linejoin="round"/>
<path d="M78.125 119.329H85.1396" stroke="#434B53" stroke-width="0.346552" stroke-linejoin="round"/>
<path d="M82.1471 121.167H88.0272" stroke="#434B53" stroke-width="0.346552" stroke-linejoin="round"/>
<path d="M103.402 120.186H106.499H108.478" stroke="#434B53" stroke-width="0.346552" stroke-linejoin="round"/>
<path d="M78.125 123.375H80.6015" stroke="#434B53" stroke-width="0.346552" stroke-linejoin="round"/>
<path d="M81.6309 123.375H83.6952" stroke="#434B53" stroke-width="0.346552" stroke-linejoin="round"/>
<path d="M106.499 122.761H95.5602" stroke="#434B53" stroke-width="0.346552" stroke-linejoin="round"/>
<path d="M95.5638 117.856H89.206V125.58H95.5638V117.856Z" fill="white" stroke="#434B53" stroke-width="0.346552" stroke-linejoin="round"/>
<path d="M119.934 121.837H115.7" stroke="#434B53" stroke-width="0.346552" stroke-linejoin="round"/>
<path d="M106.359 124.192H109.498" stroke="#434B53" stroke-width="0.346552" stroke-linejoin="round"/>
<path d="M106.433 121.634H112.416" stroke="#434B53" stroke-width="0.346552" stroke-linejoin="round"/>
<path d="M119.934 120.302H114.242" stroke="#434B53" stroke-width="0.346552" stroke-linejoin="round"/>
<path d="M110.738 124.192H112.271" stroke="#434B53" stroke-width="0.346552" stroke-linejoin="round"/>
<path d="M104.255 110.271H75.7753V117.995H104.255V110.271Z" fill="#F29A62" stroke="#434B53" stroke-width="0.346552" stroke-miterlimit="10"/>
<path d="M117.866 110.271H104.215V117.995H117.866V110.271Z" fill="#A3A3A3" stroke="#434B53" stroke-width="0.346552" stroke-linejoin="round"/>
<path d="M75.9833 111.741H82.998" stroke="#434B53" stroke-width="0.346552" stroke-linejoin="round"/>
<path d="M80.0075 113.579H85.8876" stroke="#434B53" stroke-width="0.346552" stroke-linejoin="round"/>
<path d="M101.261 112.601H104.357H106.336" stroke="#434B53" stroke-width="0.346552" stroke-linejoin="round"/>
<path d="M75.9833 115.787H78.4599" stroke="#434B53" stroke-width="0.346552" stroke-linejoin="round"/>
<path d="M79.4912 115.787H81.5526" stroke="#434B53" stroke-width="0.346552" stroke-linejoin="round"/>
<path d="M104.357 115.173H93.4186" stroke="#434B53" stroke-width="0.346552" stroke-linejoin="round"/>
<path d="M93.4222 110.268H87.0644V117.992H93.4222V110.268Z" fill="white" stroke="#434B53" stroke-width="0.346552" stroke-linejoin="round"/>
<path d="M117.793 114.252H113.559" stroke="#434B53" stroke-width="0.346552" stroke-linejoin="round"/>
<path d="M104.221 116.604H107.357" stroke="#434B53" stroke-width="0.346552" stroke-linejoin="round"/>
<path d="M104.292 114.045H110.277" stroke="#434B53" stroke-width="0.346552" stroke-linejoin="round"/>
<path d="M117.793 112.716H112.1" stroke="#434B53" stroke-width="0.346552" stroke-linejoin="round"/>
<path d="M108.596 116.604H110.129" stroke="#434B53" stroke-width="0.346552" stroke-linejoin="round"/>
<path d="M106.538 102.682H78.0582V110.406H106.538V102.682Z" fill="#F29A62" stroke="#434B53" stroke-width="0.346552" stroke-miterlimit="10"/>
<path d="M120.149 102.682H106.498V110.406H120.149V102.682Z" fill="#D26E2E" stroke="#434B53" stroke-width="0.346552" stroke-linejoin="round"/>
<path d="M78.2663 104.153H85.2809" stroke="#434B53" stroke-width="0.346552" stroke-linejoin="round"/>
<path d="M82.2904 105.993H88.1705" stroke="#434B53" stroke-width="0.346552" stroke-linejoin="round"/>
<path d="M103.544 105.012H106.64H108.619" stroke="#434B53" stroke-width="0.346552" stroke-linejoin="round"/>
<path d="M78.2663 108.198H80.7429" stroke="#434B53" stroke-width="0.346552" stroke-linejoin="round"/>
<path d="M81.7722 108.198H83.8365" stroke="#434B53" stroke-width="0.346552" stroke-linejoin="round"/>
<path d="M106.64 107.585H95.7016" stroke="#434B53" stroke-width="0.346552" stroke-linejoin="round"/>
<path d="M95.7052 102.682H89.3474V110.406H95.7052V102.682Z" fill="white" stroke="#434B53" stroke-width="0.346552" stroke-linejoin="round"/>
<path d="M120.076 106.663H115.842" stroke="#434B53" stroke-width="0.346552" stroke-linejoin="round"/>
<path d="M106.502 109.018H109.641" stroke="#434B53" stroke-width="0.346552" stroke-linejoin="round"/>
<path d="M106.575 106.46H112.557" stroke="#434B53" stroke-width="0.346552" stroke-linejoin="round"/>
<path d="M120.076 105.128H114.383" stroke="#434B53" stroke-width="0.346552" stroke-linejoin="round"/>
<path d="M110.881 109.018H112.414" stroke="#434B53" stroke-width="0.346552" stroke-linejoin="round"/>
<path d="M118.22 109.312H82.8479V125.583H118.22V109.312Z" fill="#D26E2E" stroke="#434B53" stroke-width="0.346552" stroke-linejoin="round"/>
<path d="M114.903 109.397V116.183" stroke="#434B53" stroke-width="0.346552" stroke-linejoin="round"/>
<path d="M115.854 109.445V111.509" stroke="#434B53" stroke-width="0.346552" stroke-linejoin="round"/>
<path d="M115.569 125.538V119.391" stroke="#434B53" stroke-width="0.346552" stroke-linejoin="round"/>
<path d="M116.558 125.631V124.551" stroke="#434B53" stroke-width="0.346552" stroke-linejoin="round"/>
<path d="M117.502 125.583V122.536" stroke="#434B53" stroke-width="0.346552" stroke-linejoin="round"/>
<path d="M115.52 118.781V117.514" stroke="#434B53" stroke-width="0.346552" stroke-linejoin="round"/>
<path d="M115.805 112.026V112.775" stroke="#434B53" stroke-width="0.346552" stroke-linejoin="round"/>
<path d="M114.119 109.312H82.8479V125.583H114.119V109.312Z" fill="#F29A62" stroke="#434B53" stroke-width="0.346552" stroke-linejoin="round"/>
<path d="M112.07 122.991V111.908C111.775 111.908 111.492 111.792 111.284 111.584C111.075 111.377 110.958 111.096 110.958 110.803H86.1693C86.1693 111.096 86.0522 111.377 85.8437 111.584C85.6352 111.792 85.3524 111.908 85.0576 111.908C85.0052 111.906 84.953 111.902 84.9012 111.894V123.008C84.9528 122.998 85.0051 122.992 85.0576 122.991C85.2038 122.991 85.3486 123.02 85.4837 123.075C85.6188 123.131 85.7414 123.213 85.8447 123.316C85.948 123.419 86.0298 123.541 86.0855 123.675C86.1412 123.81 86.1697 123.954 86.1693 124.099H110.958C110.958 123.954 110.986 123.81 111.042 123.675C111.097 123.541 111.179 123.419 111.283 123.316C111.386 123.213 111.509 123.131 111.644 123.075C111.779 123.02 111.923 122.991 112.07 122.991ZM98.484 122.038C97.5713 122.038 96.6791 121.769 95.9202 121.265C95.1613 120.761 94.5698 120.044 94.2205 119.206C93.8712 118.367 93.7798 117.445 93.9579 116.554C94.136 115.664 94.5755 114.847 95.2209 114.205C95.8663 113.563 96.6885 113.126 97.5837 112.949C98.4789 112.772 99.4068 112.863 100.25 113.21C101.093 113.558 101.814 114.146 102.321 114.9C102.828 115.655 103.099 116.542 103.099 117.45C103.099 118.667 102.613 119.834 101.747 120.694C100.882 121.555 99.708 122.038 98.484 122.038Z" fill="white" stroke="#434B53" stroke-width="0.346552" stroke-linejoin="round"/>
<path d="M99.9166 109.267H97.0874V125.56H99.9166V109.267Z" fill="white" stroke="#434B53" stroke-width="0.346552" stroke-linejoin="round"/>
<path d="M80.5531 121.452H68.5142V125.58H80.5531V121.452Z" fill="#FFA83D" stroke="#434B53" stroke-width="0.346552" stroke-linejoin="round"/>
<path d="M71.5779 121.452H70.0453V125.58H71.5779V121.452Z" fill="#434B53" stroke="#434B53" stroke-width="0.346552" stroke-linejoin="round"/>
<path d="M73.0606 121.452H72.2929V125.58H73.0606V121.452Z" fill="#434B53" stroke="#434B53" stroke-width="0.346552" stroke-linejoin="round"/>
<path d="M81.5561 117.314H69.5173V121.441H81.5561V117.314Z" fill="#FDB62F" stroke="#434B53" stroke-width="0.346552" stroke-linejoin="round"/>
<path d="M72.5829 117.314H71.0503V121.441H72.5829V117.314Z" fill="#434B53" stroke="#434B53" stroke-width="0.346552" stroke-linejoin="round"/>
<path d="M74.0637 117.314H73.296V121.441H74.0637V117.314Z" fill="#434B53" stroke="#434B53" stroke-width="0.346552" stroke-linejoin="round"/>
<path d="M80.5531 113.172H68.5142V117.299H80.5531V113.172Z" fill="#FFA83D" stroke="#434B53" stroke-width="0.346552" stroke-linejoin="round"/>
<path d="M71.5779 113.172H70.0453V117.299H71.5779V113.172Z" fill="#434B53" stroke="#434B53" stroke-width="0.346552" stroke-linejoin="round"/>
<path d="M73.0606 113.172H72.2929V117.299H73.0606V113.172Z" fill="#434B53" stroke="#434B53" stroke-width="0.346552" stroke-linejoin="round"/>
<path d="M79.9563 109.032H67.9174V113.16H79.9563V109.032Z" fill="#FDB62F" stroke="#434B53" stroke-width="0.346552" stroke-linejoin="round"/>
<path d="M70.9851 109.032H69.4525V113.16H70.9851V109.032Z" fill="#434B53" stroke="#434B53" stroke-width="0.346552" stroke-linejoin="round"/>
<path d="M72.4658 109.032H71.6981V113.16H72.4658V109.032Z" fill="#434B53" stroke="#434B53" stroke-width="0.346552" stroke-linejoin="round"/>
<path d="M80.5531 104.893H68.5142V109.021H80.5531V104.893Z" fill="#FFA83D" stroke="#434B53" stroke-width="0.346552" stroke-linejoin="round"/>
<path d="M71.5779 104.893H70.0453V109.021H71.5779V104.893Z" fill="#434B53" stroke="#434B53" stroke-width="0.346552" stroke-linejoin="round"/>
<path d="M73.0606 104.893H72.2929V109.021H73.0606V104.893Z" fill="#434B53" stroke="#434B53" stroke-width="0.346552" stroke-linejoin="round"/>
<path d="M70.0982 121.452H58.0593V125.58H70.0982V121.452Z" fill="#FDB62F" stroke="#434B53" stroke-width="0.346552" stroke-linejoin="round"/>
<path d="M61.1269 121.452H59.5944V125.58H61.1269V121.452Z" fill="#434B53" stroke="#434B53" stroke-width="0.346552" stroke-linejoin="round"/>
<path d="M62.6077 121.452H61.84V125.58H62.6077V121.452Z" fill="#434B53" stroke="#434B53" stroke-width="0.346552" stroke-linejoin="round"/>
<path d="M71.1013 117.314H59.0624V121.441H71.1013V117.314Z" fill="#FFA83D" stroke="#434B53" stroke-width="0.346552" stroke-linejoin="round"/>
<path d="M62.13 117.314H60.5974V121.441H62.13V117.314Z" fill="#434B53" stroke="#434B53" stroke-width="0.346552" stroke-linejoin="round"/>
<path d="M63.6128 117.314H62.8451V121.441H63.6128V117.314Z" fill="#434B53" stroke="#434B53" stroke-width="0.346552" stroke-linejoin="round"/>
<path d="M70.0982 113.172H58.0593V117.299H70.0982V113.172Z" fill="#FDB62F" stroke="#434B53" stroke-width="0.346552" stroke-linejoin="round"/>
<path d="M61.1269 113.172H59.5944V117.299H61.1269V113.172Z" fill="#434B53" stroke="#434B53" stroke-width="0.346552" stroke-linejoin="round"/>
<path d="M62.6077 113.172H61.84V117.299H62.6077V113.172Z" fill="#434B53" stroke="#434B53" stroke-width="0.346552" stroke-linejoin="round"/>
<path d="M69.5034 109.032H57.4645V113.16H69.5034V109.032Z" fill="#FFA83D" stroke="#434B53" stroke-width="0.346552" stroke-linejoin="round"/>
<path d="M60.5282 109.032H58.9956V113.16H60.5282V109.032Z" fill="#434B53" stroke="#434B53" stroke-width="0.346552" stroke-linejoin="round"/>
<path d="M62.011 109.032H61.2433V113.16H62.011V109.032Z" fill="#434B53" stroke="#434B53" stroke-width="0.346552" stroke-linejoin="round"/>
<path d="M70.0982 104.893H58.0593V109.021H70.0982V104.893Z" fill="#FDB62F" stroke="#434B53" stroke-width="0.346552" stroke-linejoin="round"/>
<path d="M61.1269 104.893H59.5944V109.021H61.1269V104.893Z" fill="#434B53" stroke="#434B53" stroke-width="0.346552" stroke-linejoin="round"/>
<path d="M62.6077 104.893H61.84V109.021H62.6077V104.893Z" fill="#434B53" stroke="#434B53" stroke-width="0.346552" stroke-linejoin="round"/>
<path d="M70.0982 100.82H58.0593V104.947H70.0982V100.82Z" fill="#FFA83D" stroke="#434B53" stroke-width="0.346552" stroke-linejoin="round"/>
<path d="M61.1269 100.82H59.5944V104.947H61.1269V100.82Z" fill="#434B53" stroke="#434B53" stroke-width="0.346552" stroke-linejoin="round"/>
<path d="M62.6077 100.82H61.84V104.947H62.6077V100.82Z" fill="#434B53" stroke="#434B53" stroke-width="0.346552" stroke-linejoin="round"/>
<path d="M70.0982 96.7483H58.0593V100.876H70.0982V96.7483Z" fill="#FDB62F" stroke="#434B53" stroke-width="0.346552" stroke-linejoin="round"/>
<path d="M61.1269 96.7483H59.5944V100.876H61.1269V96.7483Z" fill="#434B53" stroke="#434B53" stroke-width="0.346552" stroke-linejoin="round"/>
<path d="M62.6077 96.7483H61.84V100.876H62.6077V96.7483Z" fill="#434B53" stroke="#434B53" stroke-width="0.346552" stroke-linejoin="round"/>
<path d="M73.6636 125.521C76.9032 125.521 79.5295 122.91 79.5295 119.689C79.5295 116.468 76.9032 113.856 73.6636 113.856C70.4239 113.856 67.7977 116.468 67.7977 119.689C67.7977 122.91 70.4239 125.521 73.6636 125.521Z" fill="#FFA83D" stroke="#434B53" stroke-width="0.346552" stroke-linejoin="round"/>
<path d="M73.0708 125.521C76.3104 125.521 78.9367 122.91 78.9367 119.689C78.9367 116.468 76.3104 113.856 73.0708 113.856C69.8311 113.856 67.2049 116.468 67.2049 119.689C67.2049 122.91 69.8311 125.521 73.0708 125.521Z" fill="#FFA83D" stroke="#434B53" stroke-width="0.346552" stroke-linejoin="round"/>
<path d="M73.0732 124.684C75.848 124.684 78.0975 122.448 78.0975 119.689C78.0975 116.93 75.848 114.693 73.0732 114.693C70.2984 114.693 68.0489 116.93 68.0489 119.689C68.0489 122.448 70.2984 124.684 73.0732 124.684Z" fill="#FDB62F" stroke="#434B53" stroke-width="0.346552" stroke-linejoin="round"/>
<path d="M74.4027 117.65C74.5948 117.65 74.7505 117.494 74.7505 117.302C74.7505 117.11 74.5948 116.954 74.4027 116.954H71.6482C71.4561 116.954 71.3004 117.11 71.3004 117.302C71.3004 117.494 71.4561 117.65 71.6482 117.65H72.4377C72.7641 117.649 73.0607 117.84 73.1959 118.137H71.6516C71.4597 118.137 71.3038 118.293 71.3038 118.485C71.3038 118.677 71.4597 118.833 71.6516 118.833H73.1959C73.0595 119.129 72.7636 119.319 72.4377 119.32H71.6482C71.5056 119.32 71.3773 119.407 71.3245 119.539C71.2716 119.672 71.3048 119.823 71.4082 119.922L73.3767 121.783C73.4418 121.844 73.5276 121.877 73.6166 121.877C73.7123 121.876 73.8037 121.837 73.8705 121.769C73.9338 121.702 73.9679 121.613 73.9654 121.521C73.9628 121.429 73.9237 121.342 73.8567 121.278L72.5211 120.015C73.1986 119.976 73.77 119.497 73.9262 118.836H74.4027C74.5948 118.836 74.7505 118.68 74.7505 118.488C74.7505 118.296 74.5948 118.14 74.4027 118.14H73.9262C73.8857 117.967 73.8151 117.802 73.7176 117.653H74.4027V117.65Z" fill="white"/>
</svg>
