<svg width="8" height="8" viewBox="0 0 8 8" fill="none" xmlns="http://www.w3.org/2000/svg">
<path opacity="0.81" d="M3.32193 7.99979C3.27815 7.99998 3.2346 7.99352 3.19275 7.98065L2.39614 7.73176C2.31027 7.70459 2.23495 7.65144 2.18053 7.57965C2.12612 7.50786 2.0953 7.42097 2.09232 7.33092L2.07797 6.83436C1.8884 6.70677 1.71244 6.56002 1.55287 6.39642L1.06366 6.47061C0.974224 6.4843 0.88275 6.46961 0.802085 6.42862C0.72142 6.38763 0.655615 6.3224 0.613917 6.24207L0.227569 5.5038C0.186153 5.42395 0.170473 5.33322 0.182681 5.2441C0.194889 5.15497 0.234387 5.07181 0.295748 5.00604L0.636643 4.64708C0.59326 4.42238 0.572425 4.1939 0.574447 3.96505L0.176136 3.67189C0.103683 3.61818 0.0496924 3.54328 0.0216239 3.45754C-0.00644452 3.37181 -0.00720554 3.27946 0.0194447 3.19328L0.268236 2.39758C0.295158 2.31131 0.348381 2.23562 0.420449 2.18112C0.492517 2.12662 0.579823 2.09604 0.670135 2.09365L1.16413 2.0793C1.29247 1.88991 1.43953 1.71393 1.60311 1.55401L1.52895 1.06343C1.51486 0.974514 1.52897 0.883413 1.5693 0.802931C1.60964 0.722449 1.67417 0.656633 1.75382 0.61473L2.49183 0.228249C2.57203 0.186043 2.66347 0.170146 2.75321 0.182816C2.84294 0.195486 2.92641 0.236077 2.99181 0.298841L3.35064 0.637464C3.57469 0.592835 3.80281 0.571977 4.03123 0.575242L4.32548 0.176798C4.37883 0.103901 4.45368 0.0495714 4.53951 0.0214536C4.62533 -0.00666423 4.71781 -0.00715459 4.80393 0.0200514L5.60055 0.268927C5.68641 0.295724 5.76179 0.348607 5.81624 0.420226C5.87068 0.491844 5.90149 0.578646 5.90436 0.668575L5.91871 1.16514C6.10803 1.29351 6.28395 1.44064 6.44381 1.60427L6.93302 1.52889C7.02214 1.51537 7.11326 1.53 7.19367 1.57075C7.27407 1.61151 7.33976 1.67634 7.38157 1.75623L7.76911 2.49569C7.81053 2.57554 7.82621 2.66627 7.814 2.7554C7.80179 2.84453 7.76229 2.92769 7.70093 2.99346L7.36004 3.35242C7.40342 3.57672 7.42426 3.8048 7.42224 4.03325L7.82055 4.3276C7.89342 4.38097 7.94773 4.45585 7.97584 4.5417C8.00394 4.62756 8.00443 4.72007 7.97724 4.80622L7.73442 5.60312C7.70748 5.68892 7.65458 5.76424 7.58302 5.81868C7.51146 5.87311 7.42477 5.90398 7.33492 5.90704L6.83853 5.92139C6.71045 6.11061 6.56336 6.28622 6.39955 6.44548L6.47371 6.93607C6.48715 7.02507 6.47262 7.11605 6.43212 7.19644C6.39163 7.27682 6.32716 7.34263 6.24765 7.38477L5.50844 7.77245C5.42866 7.81405 5.33793 7.82984 5.24879 7.81762C5.15965 7.8054 5.07651 7.76578 5.01086 7.70424L4.65202 7.36323C4.42759 7.405 4.19971 7.42543 3.97143 7.42425L3.66761 7.8239C3.6277 7.87815 3.57564 7.92231 3.51562 7.95285C3.4556 7.98339 3.38927 7.99946 3.32193 7.99979ZM2.84109 7.08204L3.19993 7.19452L3.60063 6.65129L3.80636 6.66565C4.0941 6.687 4.3834 6.66114 4.66279 6.58907L4.86373 6.53642L5.35534 7.00068L5.69264 6.82479L5.59097 6.15592L5.74767 6.02071C5.96645 5.83229 6.15274 5.60914 6.29908 5.36021L6.40434 5.18193L7.08015 5.16159L7.19258 4.80263L6.64954 4.40179L6.66509 4.19478C6.68529 3.90689 6.65904 3.61761 6.58734 3.33806L6.53472 3.13704L6.99881 2.64526L6.82298 2.30903L6.15435 2.41074L6.01919 2.25399C5.83084 2.03514 5.60777 1.84878 5.35893 1.70239L5.18071 1.5959L5.16037 0.921044L4.80154 0.807371L4.40084 1.3518L4.1951 1.33625C3.90691 1.316 3.61734 1.34225 3.33748 1.41402L3.13773 1.46547L2.64613 1.00241L2.30882 1.1783L2.41049 1.84717L2.2538 1.98238C2.03502 2.17079 1.84873 2.39394 1.70239 2.64287L1.59713 2.82115L0.921321 2.8403L0.808885 3.19926L1.35193 3.6001L1.33638 3.80591C1.31607 4.09381 1.34233 4.3831 1.41412 4.66264L1.46555 4.86365L1.00266 5.35543L1.17849 5.69286L1.84712 5.59115L1.98228 5.7479C2.17063 5.96675 2.39369 6.15311 2.64254 6.29951L2.82076 6.4048L2.84109 7.08204ZM4.00133 6.406C3.62698 6.40505 3.25807 6.31622 2.92428 6.14667C2.5905 5.97712 2.30114 5.73157 2.0795 5.42978C1.85786 5.12798 1.71011 4.77836 1.64815 4.40904C1.58618 4.03972 1.61172 3.661 1.72272 3.30336C1.85049 2.88853 2.08865 2.51628 2.41169 2.22647C2.48608 2.16014 2.58376 2.1261 2.68324 2.13182C2.78273 2.13754 2.87586 2.18256 2.94217 2.25698C3.00847 2.3314 3.0425 2.42912 3.03678 2.52864C3.03106 2.62815 2.98605 2.72132 2.91166 2.78765C2.64186 3.02842 2.4593 3.35176 2.39246 3.70722C2.32563 4.06268 2.37828 4.43027 2.54219 4.75265C2.70611 5.07504 2.97209 5.33409 3.29863 5.48939C3.62516 5.6447 3.9939 5.68752 4.34732 5.61119C4.70074 5.53485 5.01897 5.34365 5.25236 5.06741C5.48576 4.79117 5.62119 4.44543 5.63755 4.0841C5.6539 3.72278 5.55025 3.36621 5.34276 3.07C5.13528 2.77379 4.83562 2.55461 4.49054 2.44664C4.37918 2.41211 4.26454 2.38925 4.14845 2.37843C4.04916 2.36939 3.95753 2.32126 3.89371 2.24462C3.82989 2.16799 3.79911 2.06914 3.80816 1.96982C3.8172 1.87049 3.86531 1.77882 3.94192 1.71498C4.01852 1.65114 4.11734 1.62035 4.21663 1.6294C4.3855 1.64503 4.55228 1.67832 4.71422 1.72871C5.25241 1.90553 5.71041 2.26766 6.0067 2.75064C6.30299 3.23363 6.41833 3.80612 6.33219 4.3662C6.24606 4.92629 5.96403 5.43762 5.53632 5.80918C5.10861 6.18074 4.56298 6.38841 3.99655 6.39523L4.00133 6.406Z" fill="white"/>
</svg>
