<svg width="15" height="15" viewBox="0 0 15 15" fill="none" xmlns="http://www.w3.org/2000/svg">
<path opacity="0.81" d="M8.24191 14.9998H8.23639L6.6357 14.9865C6.51672 14.9855 6.40103 14.9473 6.30469 14.8775C6.20835 14.8076 6.13614 14.7095 6.09809 14.5967L5.75146 13.5675C5.26193 13.4276 4.79144 13.2281 4.35058 12.9734L3.37139 13.4416C3.26436 13.4936 3.14376 13.511 3.02642 13.4912C2.90908 13.4714 2.80083 13.4155 2.71677 13.3312L1.59628 12.1849C1.51281 12.0998 1.45795 11.9908 1.43935 11.873C1.42075 11.7552 1.43934 11.6346 1.49251 11.5279L1.97493 10.5561C1.7282 10.1109 1.53655 9.63736 1.4042 9.14587L0.381964 8.78365C0.269785 8.74364 0.172791 8.66977 0.104373 8.57226C0.0359547 8.47474 -0.000513042 8.35837 5.45316e-06 8.23923L0.0132537 6.63799C0.0142565 6.51879 0.0524591 6.40289 0.122523 6.30646C0.192586 6.21004 0.29101 6.13792 0.404043 6.10019L1.4318 5.75454C1.57232 5.26544 1.77176 4.79524 2.02571 4.35428L1.55654 3.37366C1.50496 3.26668 1.48787 3.14631 1.50765 3.02919C1.52742 2.91208 1.58308 2.804 1.66693 2.71991L2.80839 1.59683C2.89326 1.51339 3.00201 1.45845 3.11951 1.43965C3.23702 1.42085 3.35747 1.43912 3.46412 1.49192L4.43668 1.97561C4.88147 1.72832 5.35491 1.53658 5.84639 1.40468L6.20848 0.380987C6.24808 0.269685 6.32109 0.173339 6.41752 0.10514C6.51395 0.0369406 6.6291 0.000219323 6.7472 0L8.34899 0.0132511C8.46815 0.0142543 8.58402 0.0524684 8.6804 0.122556C8.77679 0.192644 8.84888 0.291102 8.8866 0.404173L9.23103 1.43229C9.72041 1.57258 10.1908 1.77209 10.6319 2.0264L11.6122 1.55928C11.7189 1.50761 11.8391 1.49048 11.956 1.51027C12.073 1.53006 12.1808 1.58578 12.2646 1.66971L13.3884 2.81267C13.4727 2.89694 13.5287 3.00541 13.5485 3.12299C13.5683 3.24057 13.5509 3.36138 13.4988 3.46862L13.0153 4.44042C13.2634 4.88686 13.4562 5.3619 13.5893 5.85504L14.6116 6.21614C14.7239 6.25622 14.821 6.33026 14.8895 6.428C14.9579 6.52574 14.9943 6.64234 14.9935 6.76167L14.9803 8.36181C14.979 8.4808 14.9409 8.59645 14.871 8.69279C14.8012 8.78913 14.7032 8.8614 14.5906 8.89961L13.5617 9.24526C13.421 9.73464 13.2216 10.2052 12.9678 10.6466L13.4348 11.6261C13.4865 11.7333 13.5036 11.8538 13.4838 11.9712C13.464 12.0885 13.4083 12.1967 13.3244 12.281L12.1829 13.4041C12.0979 13.4877 11.9888 13.5426 11.871 13.561C11.7532 13.5794 11.6326 13.5604 11.5261 13.5068L10.5546 13.0242C10.1097 13.2714 9.63628 13.4634 9.14492 13.5962L8.78283 14.6188C8.74325 14.7306 8.66994 14.8272 8.57304 14.8955C8.47613 14.9637 8.36043 15.0002 8.24191 14.9998ZM6.89402 14.0644L7.99242 14.0733L8.43399 12.8111L8.68238 12.7558C9.25003 12.6276 9.79295 12.4076 10.2897 12.1043L10.5105 11.9718L11.7093 12.5681L12.492 11.7951L11.918 10.5947L12.0538 10.3739C12.3648 9.88189 12.5937 9.34256 12.7316 8.77703L12.7912 8.52856L14.0596 8.1034L14.0684 6.9991L12.8077 6.55737L12.7514 6.3078C12.6236 5.74021 12.4035 5.19742 12.1001 4.70103L11.9677 4.48017L12.5638 3.282L11.791 2.49905L10.5822 3.07549L10.3615 2.93856C9.8697 2.62757 9.33053 2.39892 8.76517 2.26162L8.51789 2.20088L8.09178 0.933141L6.99448 0.924304L6.54739 2.18542L6.299 2.24064C5.73142 2.36905 5.18853 2.58912 4.69169 2.89218L4.4709 3.0247L3.27204 2.42947L2.48936 3.20249L3.07775 4.4106L2.94197 4.63146C2.63075 5.12294 2.40181 5.66193 2.26416 6.22719L2.20454 6.47566L0.936135 6.90192L0.927304 7.9996L2.18799 8.44132L2.24429 8.69089C2.37237 9.25877 2.59238 9.80188 2.8956 10.2988L3.02807 10.5196L2.43195 11.7178L3.2047 12.5008L4.41019 11.9199L4.63097 12.0568C5.12272 12.3678 5.66189 12.5965 6.22725 12.7338L6.47563 12.7945L6.89402 14.0644ZM7.52105 11.8514H7.48462C6.71965 11.8453 5.97 11.6362 5.31212 11.2457C4.65425 10.8552 4.11169 10.2971 3.73979 9.62832C3.36788 8.95958 3.17994 8.20412 3.19512 7.43901C3.2103 6.6739 3.42807 5.92651 3.82621 5.27306C3.85663 5.21884 3.89765 5.17131 3.94684 5.1333C3.99603 5.09529 4.05237 5.06759 4.1125 5.05185C4.17263 5.03611 4.23531 5.03265 4.29681 5.04169C4.3583 5.05072 4.41734 5.07206 4.47041 5.10443C4.52348 5.1368 4.56947 5.17954 4.60566 5.23009C4.64185 5.28064 4.66748 5.33797 4.68102 5.39865C4.69457 5.45933 4.69575 5.52212 4.68449 5.58327C4.67324 5.64441 4.64978 5.70267 4.61552 5.75454C4.30283 6.26836 4.1319 6.85592 4.12017 7.45735C4.10843 8.05877 4.2563 8.65257 4.5487 9.1782C4.84111 9.70384 5.26759 10.1425 5.7847 10.4496C6.3018 10.7566 6.89104 10.921 7.49235 10.926H7.51774C8.40935 10.9138 9.2605 10.5518 9.88792 9.91798C10.5153 9.28416 10.8689 8.42921 10.8723 7.53722C10.8758 6.64522 10.529 5.78754 9.9065 5.14884C9.28403 4.51015 8.43572 4.14154 7.54423 4.12238C7.30217 4.12138 7.06063 4.14507 6.82337 4.19306C6.763 4.20791 6.70025 4.21043 6.63888 4.20047C6.57752 4.19051 6.51878 4.16829 6.4662 4.13511C6.41361 4.10194 6.36825 4.0585 6.33283 4.00739C6.2974 3.95629 6.27264 3.89856 6.26001 3.83766C6.24739 3.77676 6.24718 3.71395 6.25937 3.65297C6.27157 3.59198 6.29593 3.53408 6.331 3.48273C6.36606 3.43138 6.41112 3.38762 6.46348 3.35408C6.51583 3.32054 6.5744 3.29791 6.6357 3.28752C6.93678 3.22321 7.24412 3.19283 7.55196 3.19697C8.69907 3.20151 9.79739 3.66171 10.6053 4.47632C11.4132 5.29094 11.8646 6.39325 11.86 7.54076C11.8555 8.68826 11.3955 9.78697 10.5811 10.5952C9.76678 11.4034 8.66485 11.8549 7.51774 11.8503L7.52105 11.8514Z" fill="white"/>
</svg>
