<svg width="40" height="40" viewBox="0 0 40 40" fill="none" xmlns="http://www.w3.org/2000/svg">
<circle cx="20" cy="20" r="20" fill="#FFEEE3"/>
<path d="M21.2318 16.9443H14.7032C14.317 16.9443 14.0039 17.2574 14.0039 17.6436V22.0262C14.0039 22.4124 14.317 22.7255 14.7032 22.7255H21.2318C21.618 22.7255 21.9311 22.4124 21.9311 22.0262V17.6436C21.9311 17.2574 21.618 16.9443 21.2318 16.9443ZM20.5325 21.3269H15.4025V18.3429H20.5325V21.3269Z" fill="#F0792E"/>
<path d="M18.4608 25.4703C18.734 25.1971 18.734 24.7541 18.4608 24.4809C18.1875 24.2076 17.7445 24.2076 17.4713 24.4809C17.1981 24.7541 17.1981 25.1971 17.4713 25.4703C17.7445 25.7435 18.1875 25.7435 18.4608 25.4703Z" fill="#F0792E"/>
<path d="M17.9666 27.2646C17.5802 27.265 17.2672 27.5786 17.2676 27.9651C17.268 28.3516 17.5816 28.6645 17.968 28.6642C18.3545 28.6638 18.6675 28.3502 18.6671 27.9637C18.6667 27.5772 18.3531 27.2642 17.9666 27.2646Z" fill="#F0792E"/>
<path d="M14.9778 25.6803C15.3643 25.6799 15.6772 25.3663 15.6769 24.9798C15.6765 24.5933 15.3629 24.2804 14.9764 24.2808C14.5899 24.2811 14.277 24.5947 14.2773 24.9812C14.2778 25.3677 14.5914 25.6807 14.9778 25.6803Z" fill="#F0792E"/>
<path d="M21.449 25.4689C21.7223 25.1956 21.7223 24.7526 21.449 24.4794C21.1758 24.2062 20.7328 24.2062 20.4596 24.4794C20.1863 24.7526 20.1863 25.1956 20.4596 25.4689C20.7328 25.7421 21.1758 25.7421 21.449 25.4689Z" fill="#F0792E"/>
<path d="M15.4705 28.463C15.7438 28.1898 15.7438 27.7468 15.4705 27.4735C15.1973 27.2003 14.7543 27.2003 14.4811 27.4735C14.2078 27.7468 14.2078 28.1898 14.4811 28.463C14.7543 28.7362 15.1973 28.7362 15.4705 28.463Z" fill="#F0792E"/>
<path d="M21.5757 28.3042C21.7577 27.9633 21.6289 27.5394 21.2881 27.3574C20.9472 27.1754 20.5233 27.3042 20.3413 27.645C20.1593 27.9859 20.288 28.4098 20.6289 28.5918C20.9698 28.7738 21.3937 28.6451 21.5757 28.3042Z" fill="#F0792E"/>
<path d="M28.9438 15.9715H25.1484L25.1728 15.1951C25.227 14.1277 24.852 13.1133 24.1162 12.3376C23.4129 11.5962 22.474 11.1734 21.4591 11.1356V9.35249C21.4591 8.89212 21.0845 8.51758 20.6241 8.51758H15.3116C14.8512 8.51758 14.4767 8.89212 14.4767 9.35249V11.1356C13.4617 11.1734 12.5229 11.5962 11.8195 12.3377C11.0838 13.1133 10.7087 14.1277 10.763 15.1951C10.7743 15.5577 11.1669 28.0956 11.1697 28.1863C11.2005 29.3207 11.6733 30.3807 12.5009 31.1711C13.3217 31.955 14.3994 32.3868 15.5354 32.3868L20.4072 32.3868C21.5208 32.3868 22.6406 31.8963 23.4794 31.0413C23.8226 30.6915 24.1041 30.2974 24.3157 29.8799H28.9438C29.9441 29.8799 30.7578 29.0661 30.7578 28.0659V17.7854C30.7578 16.7852 29.9441 15.9715 28.9438 15.9715ZM20.0605 9.91617V14.1228H15.8753V9.91617H20.0605ZM20.4072 30.9882L15.5354 30.9882C14.7609 30.9882 14.0263 30.694 13.4669 30.1597C12.9078 29.6257 12.5885 28.9114 12.5677 28.1482C12.5667 28.1128 12.2022 16.4715 12.1607 15.1442C12.1605 15.1393 12.1603 15.1343 12.1601 15.1293C12.124 14.4462 12.3634 13.7966 12.8342 13.3002C13.2708 12.84 13.8495 12.572 14.4767 12.5353V14.1295C14.1336 14.1742 13.8684 14.4669 13.8684 14.8222C13.8684 15.2084 14.1815 15.5215 14.5677 15.5215H21.368C21.7542 15.5215 22.0673 15.2084 22.0673 14.8222C22.0673 14.4669 21.8021 14.1742 21.4591 14.1295V12.5353C22.0863 12.5719 22.6649 12.84 23.1015 13.3001C23.5723 13.7965 23.8117 14.4461 23.7757 15.1293C23.7754 15.1342 23.7752 15.1392 23.7751 15.1441L23.3695 28.0397C23.3693 28.0471 23.3692 28.0544 23.3692 28.0617C23.3692 28.7575 23.0455 29.4865 22.481 30.0618C21.9035 30.6506 21.1476 30.9882 20.4072 30.9882ZM24.7678 28.0735L25.1044 17.37H26.5602V28.4813H24.7435C24.7591 28.3453 24.7673 28.2092 24.7678 28.0735ZM29.3592 28.0658C29.3592 28.2949 29.1729 28.4812 28.9438 28.4812H27.9588V17.37H28.9438C29.1729 17.37 29.3592 17.5564 29.3592 17.7854V28.0658Z" fill="#F0792E"/>
<path d="M27.2598 13.2306C27.646 13.2306 27.9591 12.9175 27.9591 12.5313V9.28084C27.9591 8.89464 27.646 8.58154 27.2598 8.58154C26.8736 8.58154 26.5605 8.89464 26.5605 9.28084V12.5313C26.5605 12.9175 26.8736 13.2306 27.2598 13.2306Z" fill="#F0792E"/>
<path d="M30.0587 9.98584C29.6725 9.98584 29.3594 10.2989 29.3594 10.6851V12.5361C29.3594 12.9223 29.6725 13.2354 30.0587 13.2354C30.4449 13.2354 30.758 12.9223 30.758 12.5361V10.6851C30.758 10.2989 30.4449 9.98584 30.0587 9.98584Z" fill="#F0792E"/>
</svg>
