<svg width="18" height="18" viewBox="0 0 18 18" fill="none" xmlns="http://www.w3.org/2000/svg">
<path d="M17.9942 8.68575C18.0564 10.4647 17.5896 12.2221 16.6529 13.7358C15.7162 15.2494 14.3517 16.4513 12.7319 17.1894C11.1122 17.9276 9.30988 18.1688 7.55301 17.8827C5.79613 17.5965 4.16357 16.7958 2.86178 15.5818C1.55998 14.3677 0.647426 12.795 0.239508 11.0623C-0.16841 9.32965 -0.0533692 7.51494 0.570086 5.84766C1.19354 4.18039 2.2974 2.73544 3.74208 1.69553C5.18676 0.655631 6.90737 0.0674824 8.68632 0.00546928C11.0717 -0.0776831 13.3924 0.790115 15.1379 2.41797C16.8835 4.04582 17.9109 6.3004 17.9942 8.68575Z" fill="#20446C"/>
<g opacity="0.1">
<path opacity="0.1" d="M8.68569 0.0068721C6.30035 0.0901756 4.04578 1.11761 2.41794 2.86316C0.790101 4.60872 -0.0776825 6.92942 0.00546929 9.31478C0.00546929 9.31478 6.33929 9.37812 7.7788 6.77835C9.21831 4.17859 8.68569 0.0068721 8.68569 0.0068721Z" fill="white"/>
</g>
<path d="M15.6885 8.62254C15.7361 9.97515 15.3815 11.3115 14.6694 12.4625C13.9573 13.6135 12.9197 14.5273 11.6881 15.0884C10.4564 15.6496 9.08599 15.8327 7.75022 15.6147C6.41444 15.3966 5.17336 14.7873 4.18404 13.8637C3.19471 12.94 2.5016 11.7437 2.19243 10.426C1.88326 9.10837 1.97191 7.7286 2.44718 6.46134C2.92245 5.19408 3.76297 4.09629 4.86237 3.30688C5.96177 2.51748 7.27063 2.07196 8.62332 2.02668C10.4344 1.96607 12.1956 2.62658 13.5202 3.8632C14.8448 5.09983 15.6246 6.81153 15.6885 8.62254Z" fill="#20446C"/>
<g opacity="0.2">
<path opacity="0.2" d="M15.6885 8.62254C15.7361 9.97515 15.3815 11.3115 14.6694 12.4625C13.9573 13.6135 12.9197 14.5273 11.6881 15.0884C10.4564 15.6496 9.08599 15.8327 7.75022 15.6147C6.41444 15.3966 5.17336 14.7873 4.18404 13.8637C3.19471 12.94 2.5016 11.7437 2.19243 10.426C1.88326 9.10837 1.97191 7.7286 2.44718 6.46134C2.92245 5.19408 3.76297 4.09629 4.86237 3.30688C5.96177 2.51748 7.27063 2.07196 8.62332 2.02668C10.4344 1.96607 12.1956 2.62658 13.5202 3.8632C14.8448 5.09983 15.6246 6.81153 15.6885 8.62254Z" fill="#20446C"/>
</g>
<path d="M15.8941 8.90162C15.9405 10.2354 15.5904 11.553 14.8881 12.6879C14.1857 13.8227 13.1626 14.7238 11.9482 15.2773C10.7337 15.8307 9.38245 16.0116 8.06519 15.7971C6.74793 15.5826 5.52385 14.9824 4.54771 14.0723C3.57157 13.1621 2.8872 11.983 2.58115 10.684C2.2751 9.38492 2.36109 8.0243 2.82827 6.77412C3.29545 5.52395 4.12283 4.44037 5.2058 3.6604C6.28876 2.88042 7.57868 2.43906 8.91246 2.39213C10.7014 2.32996 12.4418 2.98075 13.751 4.20143C15.0602 5.4221 15.8311 7.11273 15.8941 8.90162Z" fill="#F0792E"/>
<path d="M10.9518 7.27116C11.1821 7.27116 11.3687 7.08713 11.3687 6.86007C11.3687 6.63317 11.1821 6.44898 10.9518 6.44898H7.64934C7.41902 6.44898 7.23236 6.63317 7.23236 6.86007C7.23236 7.08713 7.41902 7.27116 7.64934 7.27116H8.59584C8.98725 7.27052 9.34282 7.49565 9.50489 7.84669H7.65341C7.42326 7.84669 7.23643 8.03088 7.23643 8.25778C7.23643 8.48484 7.42326 8.66887 7.65341 8.66887H9.50489C9.34135 9.01894 8.9866 9.24343 8.59584 9.2444H7.64934C7.47831 9.24456 7.32455 9.34749 7.26119 9.50406C7.19783 9.66063 7.23757 9.83952 7.36153 9.95562L9.72168 12.155C9.7997 12.2269 9.90264 12.2666 10.0093 12.2659C10.124 12.2653 10.2336 12.2193 10.3138 12.1386C10.3897 12.0596 10.4305 11.9541 10.4274 11.8454C10.4244 11.7366 10.3774 11.6335 10.2971 11.5589L8.69585 10.0666C9.50814 10.0203 10.1932 9.45364 10.3805 8.67305H10.9518C11.1821 8.67305 11.3687 8.48902 11.3687 8.26195C11.3687 8.03489 11.1821 7.85086 10.9518 7.85086H10.3805C10.332 7.64612 10.2473 7.45117 10.1304 7.27534H10.9518V7.27116Z" fill="white"/>
<g opacity="0.2">
<path opacity="0.2" d="M15.8941 8.90162C15.9405 10.2354 15.5904 11.553 14.8881 12.6879C14.1857 13.8227 13.1626 14.7238 11.9482 15.2773C10.7337 15.8307 9.38245 16.0116 8.06519 15.7971C6.74793 15.5826 5.52385 14.9824 4.54771 14.0723C3.57157 13.1621 2.8872 11.983 2.58115 10.684C2.2751 9.38492 2.36109 8.0243 2.82827 6.77412C3.29545 5.52395 4.12283 4.44037 5.2058 3.6604C6.28876 2.88042 7.57868 2.43906 8.91246 2.39213C10.7014 2.32996 12.4418 2.98075 13.751 4.20143C15.0602 5.4221 15.8311 7.11273 15.8941 8.90162Z" fill="white"/>
</g>
<path d="M9.26264 15.9525H9.31734L9.47857 15.9382L9.74344 15.9122C9.8634 15.9039 9.98267 15.8876 10.1004 15.8633L10.5467 15.7769C10.6308 15.7613 10.7136 15.7391 10.7943 15.7107L11.062 15.6301C11.1595 15.6053 11.2556 15.5755 11.3499 15.5408L11.6378 15.4199C11.7386 15.3767 11.8451 15.3393 11.9459 15.2875L12.2626 15.1205C12.728 14.869 13.1636 14.5657 13.561 14.2165L13.8748 13.9142L14.0332 13.7587C14.0821 13.7011 14.1282 13.6436 14.18 13.586C14.275 13.4679 14.3815 13.3557 14.4679 13.229L14.7385 12.8403L14.8076 12.7395C14.8307 12.7079 14.8479 12.6705 14.8681 12.6359L14.989 12.4229L15.1099 12.2069C15.1531 12.135 15.179 12.0543 15.2165 11.9795C15.2827 11.824 15.3547 11.6714 15.4151 11.5131L15.5792 11.0208C15.7727 10.3266 15.863 9.60781 15.847 8.8874C15.8136 8.16711 15.6728 7.45584 15.4295 6.77707C15.3633 6.61584 15.3 6.45462 15.2337 6.29627C15.1675 6.13793 15.0783 5.99398 15.0005 5.84427C14.9642 5.76922 14.9238 5.69618 14.8796 5.62546L14.7443 5.41817L14.609 5.21376C14.586 5.17921 14.5658 5.14466 14.5428 5.11299L14.465 5.01798L14.1771 4.64947C14.0735 4.53142 13.9612 4.4249 13.8576 4.3155L13.6992 4.15427C13.6445 4.10245 13.5869 4.05639 13.5294 4.00744L13.1983 3.71954C12.7762 3.39867 12.3194 3.12633 11.8365 2.90765L11.5112 2.7637C11.4046 2.71763 11.2952 2.69173 11.1945 2.6543L10.8893 2.55353C10.7943 2.51898 10.6935 2.50747 10.6014 2.48155L10.3279 2.42109C10.2447 2.39929 10.16 2.3839 10.0745 2.37503L9.6254 2.32033C9.50619 2.3036 9.38589 2.2959 9.26552 2.2973H9.00065H8.83654H9.26552C9.38575 2.29371 9.50607 2.29948 9.6254 2.31457L10.0774 2.36351C10.1636 2.37253 10.2492 2.38695 10.3336 2.4067L10.6215 2.46716C10.7137 2.49019 10.8144 2.50171 10.9094 2.53626L11.2146 2.63414C11.3183 2.66869 11.4305 2.69748 11.5371 2.74355L11.8653 2.88462C12.3523 3.10305 12.8138 3.37435 13.2415 3.69363L13.5754 3.98153L13.7482 4.12836L13.9065 4.28959C14.013 4.40187 14.1282 4.50839 14.2318 4.62643L14.5197 4.99783L14.5975 5.09284L14.6666 5.1936L14.8019 5.40089L14.9401 5.60818C14.989 5.67728 15.0207 5.75789 15.0639 5.82987C15.1416 5.97958 15.2251 6.11777 15.3 6.28476C15.3748 6.45174 15.4295 6.60721 15.4957 6.77131C16.0089 8.1453 16.0614 9.64886 15.6454 11.0553L15.4842 11.5534C15.4209 11.7146 15.346 11.8672 15.2798 12.0227C15.2424 12.1004 15.2165 12.181 15.1733 12.253C15.1301 12.325 15.0898 12.3969 15.0495 12.4689L14.9286 12.6848C14.9084 12.7194 14.8883 12.7568 14.8652 12.7914L14.7961 12.8921L14.5082 13.2837C14.4132 13.4104 14.3067 13.5226 14.2203 13.6407L14.0706 13.8134L13.9123 13.9718L13.5956 14.277C13.1922 14.6266 12.7509 14.9299 12.2799 15.181L11.9632 15.3451C11.8595 15.3969 11.753 15.4314 11.6494 15.4746L11.3615 15.5955C11.267 15.6301 11.171 15.6599 11.0736 15.6848L10.8029 15.7625C10.7212 15.79 10.6374 15.8112 10.5524 15.8259L10.1062 15.9065C9.98751 15.9296 9.86716 15.9431 9.74632 15.9468L9.48145 15.9669H9.31734L9.26264 15.9525Z" fill="#263238"/>
<path d="M1.4883 13.4884C1.47129 13.4671 1.4568 13.444 1.44512 13.4193L1.32708 13.2178C1.27813 13.1314 1.21767 13.022 1.15722 12.8896C1.09676 12.7572 1.01902 12.6161 0.955682 12.4462L0.84916 12.1842C0.811733 12.0921 0.782941 11.9942 0.748393 11.8963C0.673539 11.6948 0.61884 11.476 0.552623 11.2428C0.430092 10.7384 0.346358 10.2254 0.302151 9.70827C0.268027 9.18936 0.274767 8.66857 0.322307 8.15071C0.351097 7.91463 0.374125 7.68719 0.41731 7.4799C0.437463 7.37337 0.451861 7.27261 0.474893 7.17472C0.497925 7.07683 0.520952 6.98758 0.541105 6.88682C0.581411 6.70832 0.633233 6.55285 0.676418 6.41466C0.709122 6.29639 0.748533 6.18008 0.794458 6.06629L0.880825 5.85036C0.887788 5.82404 0.898455 5.79884 0.912498 5.77551C0.908841 5.80306 0.902079 5.8301 0.892343 5.85612L0.820368 6.07493C0.78582 6.16994 0.748392 6.28798 0.710965 6.42617C0.673538 6.56436 0.624597 6.71408 0.58717 6.89545C0.567977 6.98566 0.547826 7.08163 0.526713 7.18336C0.503681 7.27837 0.492165 7.38201 0.472012 7.48566C0.431706 7.69295 0.411556 7.91751 0.385645 8.15359C0.340164 8.66775 0.335345 9.18471 0.371245 9.69963C0.41269 10.2137 0.493538 10.7238 0.61308 11.2255C0.676418 11.4558 0.731117 11.6746 0.800213 11.8762C0.834761 11.9741 0.863559 12.0748 0.898107 12.1641L0.998865 12.429C1.0622 12.5988 1.13418 12.7428 1.19176 12.8752C1.24934 13.0076 1.30404 13.117 1.3501 13.2063L1.45663 13.4136C1.47123 13.4366 1.48194 13.4619 1.4883 13.4884Z" fill="white"/>
<path d="M9.22435 1.82771C9.15161 1.83522 9.07828 1.83522 9.00554 1.82771H8.74643C8.64854 1.82771 8.53339 1.82771 8.40671 1.82771C8.28003 1.82771 8.14472 1.8421 7.99501 1.85938C7.8453 1.87665 7.69271 1.8968 7.52861 1.92271C6.81539 2.04562 6.1251 2.27669 5.48162 2.60792C5.33479 2.68854 5.19372 2.76051 5.06992 2.84112C4.95013 2.9091 4.83387 2.98309 4.72156 3.06281C4.61503 3.13191 4.52578 3.20101 4.43366 3.26146C4.34153 3.32192 4.28682 3.37374 4.23212 3.41981C4.17736 3.46876 4.11862 3.51306 4.0565 3.55224C4.10582 3.4979 4.15871 3.44692 4.21485 3.39966C4.26667 3.35071 4.33288 3.29313 4.41062 3.23267C4.48835 3.17221 4.57761 3.09448 4.68413 3.0225C4.79065 2.95053 4.90005 2.86992 5.02961 2.79218C5.15916 2.71445 5.29448 2.63383 5.44131 2.55322C5.76468 2.38454 6.10061 2.24112 6.44609 2.12425C6.79171 2.00882 7.14599 1.92122 7.50557 1.86226C7.67256 1.83923 7.8309 1.81331 7.98061 1.80467C8.13032 1.79604 8.26851 1.78452 8.39519 1.78164C8.52187 1.77877 8.63703 1.78164 8.73779 1.78164C8.83856 1.78164 8.92494 1.78164 8.99403 1.79892C9.07142 1.80276 9.1484 1.81238 9.22435 1.82771Z" fill="white"/>
<path d="M10.3937 17.49C10.3433 17.5132 10.29 17.5297 10.2353 17.5389C10.1317 17.5677 9.97909 17.5994 9.79195 17.631C8.80219 17.7949 7.78787 17.7259 6.82942 17.4295C6.64804 17.3748 6.50122 17.3201 6.40333 17.2798C6.35128 17.2617 6.30113 17.2386 6.25361 17.2107C6.30788 17.219 6.36102 17.2334 6.41197 17.2539C6.51273 17.2884 6.65956 17.3345 6.84382 17.3863C7.79967 17.6534 8.80022 17.721 9.78331 17.585C9.97333 17.5591 10.1259 17.5331 10.2296 17.513C10.283 17.4981 10.3382 17.4904 10.3937 17.49Z" fill="white"/>
</svg>
