<svg width="5" height="1" viewBox="0 0 5 1" fill="none" xmlns="http://www.w3.org/2000/svg">
<path d="M0.333601 0.667431H4.6662C4.71001 0.667431 4.75337 0.6588 4.79385 0.64203C4.83432 0.625259 4.87111 0.600676 4.90208 0.569688C4.93306 0.538699 4.95764 0.501909 4.9744 0.461421C4.99117 0.420933 4.99978 0.377544 4.99978 0.33372C4.99978 0.289895 4.99117 0.246498 4.9744 0.20601C4.95764 0.165521 4.93306 0.128731 4.90208 0.097743C4.87111 0.0667545 4.83432 0.0421719 4.79385 0.0254011C4.75337 0.00863031 4.71001 -1.04485e-08 4.6662 0H0.333601C0.245125 2.11017e-08 0.160278 0.035159 0.0977166 0.097743C0.035155 0.160327 0 0.245213 0 0.33372C0 0.422227 0.035155 0.507104 0.0977166 0.569688C0.160278 0.632272 0.245125 0.667431 0.333601 0.667431Z" fill="#90B9E7"/>
</svg>
