<svg width="75" height="153" viewBox="0 0 75 153" fill="none" xmlns="http://www.w3.org/2000/svg">
<path d="M63.3997 153L11.3347 152.97C9.84562 152.969 8.37126 152.676 6.99577 152.107C5.62027 151.537 4.37059 150.703 3.31807 149.651C2.26554 148.599 1.4308 147.351 0.861485 145.977C0.292168 144.604 -0.000562266 143.131 8.10776e-07 141.645L0.0257215 11.3254C0.0257213 9.83777 0.319267 8.36471 0.889587 6.99037C1.45991 5.61603 2.29582 4.36734 3.3496 3.31562C4.40337 2.2639 5.65435 1.42977 7.03108 0.860867C8.4078 0.291964 9.88329 -0.000561411 11.3733 8.0888e-07L63.4383 0.0299621C66.4452 0.0322313 69.3282 1.22644 71.4536 3.35012C73.579 5.4738 74.7729 8.35316 74.7729 11.3554L74.7472 141.675C74.7478 143.162 74.4546 144.636 73.8845 146.01C73.3144 147.385 72.4785 148.634 71.4246 149.686C70.3707 150.737 69.1195 151.572 67.7425 152.14C66.3655 152.709 64.8898 153.001 63.3997 153Z" fill="#20446C"/>
<path d="M63.4643 4.90484H53.3771C53.0472 4.91204 52.722 4.9843 52.4201 5.11744C52.1183 5.25059 51.8458 5.442 51.6183 5.68066C51.3908 5.91933 51.2128 6.20054 51.0946 6.50813C50.9763 6.81572 50.9201 7.14361 50.9293 7.47295V9.3006C50.9378 9.6298 50.8812 9.95744 50.7628 10.2648C50.6443 10.5721 50.4663 10.8531 50.2389 11.0917C50.0115 11.3302 49.7393 11.5216 49.4377 11.655C49.1361 11.7883 48.8111 11.8609 48.4814 11.8687H28.8043C28.4744 11.8609 28.1492 11.7883 27.8474 11.655C27.5456 11.5218 27.273 11.3304 27.0453 11.0919C26.8176 10.8534 26.6391 10.5725 26.5202 10.2651C26.4013 9.95775 26.3442 9.63001 26.3522 9.3006V7.44299C26.3607 7.1138 26.3041 6.78615 26.1857 6.47881C26.0672 6.17147 25.8892 5.89048 25.6618 5.65193C25.4344 5.41338 25.1622 5.22196 24.8606 5.08862C24.559 4.95528 24.234 4.88264 23.9043 4.87487H11.515C10.4717 4.87375 9.43833 5.07796 8.47409 5.47582C7.50984 5.87368 6.63359 6.45739 5.89544 7.19359C5.15728 7.92978 4.57169 8.80402 4.17216 9.76632C3.77263 10.7286 3.567 11.7601 3.567 12.8018L3.54128 140.005C3.54355 142.106 4.38089 144.121 5.86945 145.606C7.35802 147.092 9.37613 147.927 11.4807 147.928L63.4386 147.958C64.4819 147.959 65.5153 147.755 66.4795 147.357C67.4438 146.959 68.32 146.375 69.0582 145.639C69.7963 144.903 70.3819 144.028 70.7814 143.066C71.181 142.104 71.3866 141.072 71.3866 140.031L71.4123 12.8275C71.41 10.7247 70.5716 8.70895 69.0811 7.22329C67.5907 5.73763 65.5704 4.9037 63.4643 4.90484Z" fill="#FAFAFA"/>
</svg>
