<svg width="4" height="4" viewBox="0 0 4 4" fill="none" xmlns="http://www.w3.org/2000/svg">
<path opacity="0.8" d="M3.28296 3.69168H0.716461C0.526317 3.69131 0.344087 3.6155 0.209765 3.48087C0.0754424 3.34625 -3.54318e-07 3.1638 0 2.97359V0.718103C-3.54318e-07 0.527892 0.0754424 0.345449 0.209765 0.21082C0.344087 0.0761903 0.526317 0.000367202 0.716461 0H3.28435C3.4745 0.000367202 3.65673 0.0761903 3.79105 0.21082C3.92537 0.345449 4.00081 0.527892 4.00081 0.718103V2.97775C3.99972 3.16748 3.9236 3.34907 3.78909 3.48284C3.65459 3.61661 3.47263 3.69168 3.28296 3.69168ZM0.716461 0.611356C0.689505 0.611721 0.663774 0.622685 0.644841 0.641884C0.625908 0.661084 0.615294 0.686971 0.615296 0.71394V2.97359C0.615294 3.00056 0.625908 3.02645 0.644841 3.04565C0.663774 3.06485 0.689505 3.07581 0.716461 3.07617H3.28435C3.31131 3.07581 3.33704 3.06485 3.35597 3.04565C3.37491 3.02645 3.38552 3.00056 3.38552 2.97359V0.718103C3.38552 0.691134 3.37491 0.665246 3.35597 0.646047C3.33704 0.626848 3.31131 0.615884 3.28435 0.615519L0.716461 0.611356Z" fill="white"/>
</svg>
