<svg width="5" height="4" viewBox="0 0 5 4" fill="none" xmlns="http://www.w3.org/2000/svg">
<g clip-path="url(#clip0_2167_10990)">
<path d="M4.12038 0.640554C3.73804 0.419845 3.24913 0.550994 3.02818 0.933339L2.47121 1.89816C2.31005 2.17678 2.51752 2.27413 2.74887 2.41284L3.2848 2.72216C3.46629 2.82685 3.69811 2.7647 3.80279 2.58345L4.37535 1.59192C4.56771 1.25873 4.45357 0.83291 4.12038 0.640554Z" fill="#EA4335"/>
<path d="M3.49207 1.04082L2.95614 0.731498C2.66028 0.567266 2.49274 0.556396 2.37128 0.749457L1.58084 2.11838C1.36013 2.50048 1.49152 2.98916 1.87362 3.20939C2.20681 3.40175 2.63264 3.28761 2.82499 2.95442L3.63055 1.55903C3.7357 1.37756 3.67356 1.1455 3.49207 1.04082Z" fill="#FBBC04"/>
<path d="M3.59403 0.336639L3.21759 0.119239C2.80123 -0.121084 2.26883 0.0214079 2.02851 0.437777L1.3118 1.67908C1.20593 1.86222 1.26879 2.09663 1.45193 2.20226L1.8735 2.44566C2.08168 2.56594 2.34775 2.49458 2.46804 2.28639L3.28683 0.868327C3.4565 0.574598 3.83199 0.473932 4.12571 0.643599L3.59403 0.336639Z" fill="#34A853"/>
<path d="M2.13042 0.792376L1.72351 0.557962C1.54202 0.453516 1.31021 0.515427 1.20553 0.696437L0.717322 1.54005C0.477 1.95523 0.619492 2.48645 1.03586 2.72606L1.34566 2.90447L1.72138 3.12092L1.88443 3.21474C1.59496 3.02097 1.50303 2.63272 1.68003 2.32694L1.80645 2.10859L2.26937 1.3087C2.37382 1.12817 2.31167 0.896823 2.13042 0.792376Z" fill="#4285F4"/>
</g>
<defs>
<clipPath id="clip0_2167_10990">
<rect width="4.9432" height="3.26251" fill="white" transform="scale(1.01146)"/>
</clipPath>
</defs>
</svg>
