<svg width="18" height="18" viewBox="0 0 18 18" fill="none" xmlns="http://www.w3.org/2000/svg">
<path d="M17.9942 8.68575C18.0564 10.4647 17.5896 12.2221 16.6529 13.7358C15.7162 15.2494 14.3517 16.4513 12.7319 17.1894C11.1122 17.9276 9.30988 18.1688 7.55301 17.8827C5.79613 17.5965 4.16357 16.7958 2.86178 15.5818C1.55998 14.3677 0.647426 12.795 0.239508 11.0623C-0.16841 9.32965 -0.0533692 7.51494 0.570086 5.84766C1.19354 4.18039 2.2974 2.73544 3.74208 1.69553C5.18676 0.655631 6.90737 0.0674824 8.68632 0.00546928C11.0717 -0.0776831 13.3924 0.790115 15.1379 2.41797C16.8835 4.04582 17.9109 6.3004 17.9942 8.68575Z" fill="#20446C"/>
<g opacity="0.1">
<path opacity="0.1" d="M8.68569 0.0068721C6.30035 0.0901756 4.04578 1.11761 2.41794 2.86316C0.790101 4.60872 -0.0776825 6.92942 0.00546929 9.31478C0.00546929 9.31478 6.33929 9.37812 7.7788 6.77835C9.21831 4.17859 8.68569 0.0068721 8.68569 0.0068721Z" fill="white"/>
</g>
<path d="M15.6875 8.62254C15.7351 9.97515 15.3805 11.3115 14.6684 12.4625C13.9563 13.6135 12.9188 14.5273 11.6871 15.0884C10.4554 15.6496 9.08501 15.8327 7.74923 15.6147C6.41346 15.3966 5.17238 14.7873 4.18305 13.8637C3.19373 12.94 2.50062 11.7437 2.19145 10.426C1.88228 9.10837 1.97093 7.7286 2.4462 6.46134C2.92147 5.19408 3.76199 4.09629 4.86139 3.30688C5.96078 2.51748 7.26965 2.07196 8.62234 2.02668C10.4335 1.96607 12.1946 2.62658 13.5192 3.8632C14.8439 5.09983 15.6237 6.81153 15.6875 8.62254Z" fill="#20446C"/>
<g opacity="0.2">
<path opacity="0.2" d="M15.6875 8.62254C15.7351 9.97515 15.3805 11.3115 14.6684 12.4625C13.9563 13.6135 12.9188 14.5273 11.6871 15.0884C10.4554 15.6496 9.08501 15.8327 7.74923 15.6147C6.41346 15.3966 5.17238 14.7873 4.18305 13.8637C3.19373 12.94 2.50062 11.7437 2.19145 10.426C1.88228 9.10837 1.97093 7.7286 2.4462 6.46134C2.92147 5.19408 3.76199 4.09629 4.86139 3.30688C5.96078 2.51748 7.26965 2.07196 8.62234 2.02668C10.4335 1.96607 12.1946 2.62658 13.5192 3.8632C14.8439 5.09983 15.6237 6.81153 15.6875 8.62254Z" fill="#20446C"/>
</g>
<path d="M15.8931 8.90162C15.9396 10.2354 15.5895 11.553 14.8871 12.6879C14.1847 13.8227 13.1617 14.7238 11.9472 15.2773C10.7327 15.8307 9.38147 16.0116 8.06421 15.7971C6.74695 15.5826 5.52287 14.9824 4.54673 14.0723C3.57059 13.1621 2.88622 11.983 2.58017 10.684C2.27412 9.38492 2.36011 8.0243 2.82729 6.77412C3.29447 5.52395 4.12185 4.44037 5.20481 3.6604C6.28778 2.88042 7.5777 2.43906 8.91148 2.39213C10.7004 2.32996 12.4408 2.98075 13.75 4.20143C15.0592 5.4221 15.8301 7.11273 15.8931 8.90162Z" fill="#F0792E"/>
<path d="M10.9508 7.27116C11.1811 7.27116 11.3678 7.08713 11.3678 6.86007C11.3678 6.63317 11.1811 6.44898 10.9508 6.44898H7.64836C7.41804 6.44898 7.23138 6.63317 7.23138 6.86007C7.23138 7.08713 7.41804 7.27116 7.64836 7.27116H8.59486C8.98627 7.27052 9.34184 7.49565 9.5039 7.84669H7.65243C7.42228 7.84669 7.23545 8.03088 7.23545 8.25778C7.23545 8.48484 7.42228 8.66887 7.65243 8.66887H9.5039C9.34037 9.01894 8.98562 9.24343 8.59486 9.2444H7.64836C7.47733 9.24456 7.32357 9.34749 7.26021 9.50406C7.19685 9.66063 7.23659 9.83952 7.36054 9.95562L9.7207 12.155C9.79872 12.2269 9.90166 12.2666 10.0083 12.2659C10.123 12.2653 10.2326 12.2193 10.3128 12.1386C10.3887 12.0596 10.4296 11.9541 10.4265 11.8454C10.4234 11.7366 10.3765 11.6335 10.2962 11.5589L8.69487 10.0666C9.50716 10.0203 10.1922 9.45364 10.3796 8.67305H10.9508C11.1811 8.67305 11.3678 8.48902 11.3678 8.26195C11.3678 8.03489 11.1811 7.85086 10.9508 7.85086H10.3796C10.331 7.64612 10.2463 7.45117 10.1294 7.27534H10.9508V7.27116Z" fill="white"/>
<g opacity="0.2">
<path opacity="0.2" d="M15.8931 8.90162C15.9396 10.2354 15.5895 11.553 14.8871 12.6879C14.1847 13.8227 13.1617 14.7238 11.9472 15.2773C10.7327 15.8307 9.38147 16.0116 8.06421 15.7971C6.74695 15.5826 5.52287 14.9824 4.54673 14.0723C3.57059 13.1621 2.88622 11.983 2.58017 10.684C2.27412 9.38492 2.36011 8.0243 2.82729 6.77412C3.29447 5.52395 4.12185 4.44037 5.20481 3.6604C6.28778 2.88042 7.5777 2.43906 8.91148 2.39213C10.7004 2.32996 12.4408 2.98075 13.75 4.20143C15.0592 5.4221 15.8301 7.11273 15.8931 8.90162Z" fill="white"/>
</g>
<path d="M9.26264 15.9525H9.31734L9.47857 15.9382L9.74344 15.9122C9.8634 15.9039 9.98267 15.8876 10.1004 15.8633L10.5467 15.7769C10.6308 15.7613 10.7136 15.7391 10.7943 15.7107L11.062 15.6301C11.1595 15.6053 11.2556 15.5755 11.3499 15.5408L11.6378 15.4199C11.7386 15.3767 11.8451 15.3393 11.9459 15.2875L12.2626 15.1205C12.728 14.869 13.1636 14.5657 13.561 14.2165L13.8748 13.9142L14.0332 13.7587C14.0821 13.7011 14.1282 13.6436 14.18 13.586C14.275 13.4679 14.3815 13.3557 14.4679 13.229L14.7385 12.8403L14.8076 12.7395C14.8307 12.7079 14.8479 12.6705 14.8681 12.6359L14.989 12.4229L15.1099 12.2069C15.1531 12.135 15.179 12.0543 15.2165 11.9795C15.2827 11.824 15.3547 11.6714 15.4151 11.5131L15.5792 11.0208C15.7727 10.3266 15.863 9.60781 15.847 8.8874C15.8136 8.16711 15.6728 7.45584 15.4295 6.77707C15.3633 6.61584 15.3 6.45462 15.2337 6.29627C15.1675 6.13793 15.0783 5.99398 15.0005 5.84427C14.9642 5.76922 14.9238 5.69618 14.8796 5.62546L14.7443 5.41817L14.609 5.21376C14.586 5.17921 14.5658 5.14466 14.5428 5.11299L14.465 5.01798L14.1771 4.64947C14.0735 4.53142 13.9612 4.4249 13.8576 4.3155L13.6992 4.15427C13.6445 4.10245 13.5869 4.05639 13.5294 4.00744L13.1983 3.71954C12.7762 3.39867 12.3194 3.12633 11.8365 2.90765L11.5112 2.7637C11.4046 2.71763 11.2952 2.69173 11.1945 2.6543L10.8893 2.55353C10.7943 2.51898 10.6935 2.50747 10.6014 2.48155L10.3279 2.42109C10.2447 2.39929 10.16 2.3839 10.0745 2.37503L9.6254 2.32033C9.50619 2.3036 9.38589 2.2959 9.26552 2.2973H9.00065H8.83654H9.26552C9.38575 2.29371 9.50607 2.29948 9.6254 2.31457L10.0774 2.36351C10.1636 2.37253 10.2492 2.38695 10.3336 2.4067L10.6215 2.46716C10.7137 2.49019 10.8144 2.50171 10.9094 2.53626L11.2146 2.63414C11.3183 2.66869 11.4305 2.69748 11.5371 2.74355L11.8653 2.88462C12.3523 3.10305 12.8138 3.37435 13.2415 3.69363L13.5754 3.98153L13.7482 4.12836L13.9065 4.28959C14.013 4.40187 14.1282 4.50839 14.2318 4.62643L14.5197 4.99783L14.5975 5.09284L14.6666 5.1936L14.8019 5.40089L14.9401 5.60818C14.989 5.67728 15.0207 5.75789 15.0639 5.82987C15.1416 5.97958 15.2251 6.11777 15.3 6.28476C15.3748 6.45174 15.4295 6.60721 15.4957 6.77131C16.0089 8.1453 16.0614 9.64886 15.6454 11.0553L15.4842 11.5534C15.4209 11.7146 15.346 11.8672 15.2798 12.0227C15.2424 12.1004 15.2165 12.181 15.1733 12.253C15.1301 12.325 15.0898 12.3969 15.0495 12.4689L14.9286 12.6848C14.9084 12.7194 14.8883 12.7568 14.8652 12.7914L14.7961 12.8921L14.5082 13.2837C14.4132 13.4104 14.3067 13.5226 14.2203 13.6407L14.0706 13.8134L13.9123 13.9718L13.5956 14.277C13.1922 14.6266 12.7509 14.9299 12.2799 15.181L11.9632 15.3451C11.8595 15.3969 11.753 15.4314 11.6494 15.4746L11.3615 15.5955C11.267 15.6301 11.171 15.6599 11.0736 15.6848L10.8029 15.7625C10.7212 15.79 10.6374 15.8112 10.5524 15.8259L10.1062 15.9065C9.98751 15.9296 9.86716 15.9431 9.74632 15.9468L9.48145 15.9669H9.31734L9.26264 15.9525Z" fill="#263238"/>
<path d="M1.49026 13.4879C1.47326 13.4666 1.45877 13.4435 1.44708 13.4188L1.32904 13.2173C1.2801 13.1309 1.21964 13.0215 1.15918 12.8891C1.09872 12.7567 1.02098 12.6156 0.957645 12.4457L0.851124 12.1837C0.813696 12.0916 0.784905 11.9937 0.750357 11.8958C0.675503 11.6943 0.620804 11.4755 0.554587 11.2423C0.432056 10.7379 0.348321 10.2249 0.304115 9.70778C0.26999 9.18887 0.276731 8.66807 0.32427 8.15022C0.35306 7.91414 0.376088 7.6867 0.419273 7.47941C0.439426 7.37288 0.453825 7.27212 0.476857 7.17423C0.499889 7.07634 0.522915 6.98709 0.543068 6.88633C0.583374 6.70783 0.635197 6.55236 0.678382 6.41417C0.711086 6.2959 0.750497 6.17959 0.796422 6.0658L0.882788 5.84987C0.889752 5.82355 0.900419 5.79835 0.914462 5.77502C0.910805 5.80257 0.904042 5.82961 0.894307 5.85563L0.822332 6.07444C0.787784 6.16945 0.750355 6.28749 0.712928 6.42568C0.675501 6.56387 0.62656 6.71358 0.589133 6.89496C0.56994 6.98517 0.549789 7.08114 0.528677 7.18287C0.505645 7.27787 0.494128 7.38152 0.473975 7.48517C0.433669 7.69246 0.413519 7.91702 0.387608 8.1531C0.342127 8.66726 0.337309 9.18422 0.373208 9.69914C0.414653 10.2132 0.495502 10.7233 0.615043 11.225C0.678381 11.4553 0.733081 11.6742 0.802177 11.8757C0.836725 11.9736 0.865522 12.0743 0.90007 12.1636L1.00083 12.4285C1.06417 12.5983 1.13615 12.7423 1.19373 12.8747C1.25131 13.0071 1.306 13.1165 1.35207 13.2058L1.45859 13.4131C1.4732 13.4361 1.4839 13.4614 1.49026 13.4879Z" fill="white"/>
<path d="M9.22337 1.82771C9.15063 1.83522 9.0773 1.83522 9.00456 1.82771H8.74545C8.64756 1.82771 8.5324 1.82771 8.40573 1.82771C8.27905 1.82771 8.14374 1.8421 7.99403 1.85938C7.84432 1.87665 7.69173 1.8968 7.52763 1.92271C6.81441 2.04562 6.12412 2.27669 5.48063 2.60792C5.3338 2.68854 5.19273 2.76051 5.06894 2.84112C4.94915 2.9091 4.83288 2.98309 4.72058 3.06281C4.61405 3.13191 4.5248 3.20101 4.43267 3.26146C4.34055 3.32192 4.28584 3.37374 4.23114 3.41981C4.17638 3.46876 4.11764 3.51306 4.05552 3.55224C4.10483 3.4979 4.15773 3.44692 4.21387 3.39966C4.26569 3.35071 4.3319 3.29313 4.40964 3.23267C4.48737 3.17221 4.57662 3.09448 4.68315 3.0225C4.78967 2.95053 4.89907 2.86992 5.02863 2.79218C5.15818 2.71445 5.2935 2.63383 5.44033 2.55322C5.7637 2.38454 6.09963 2.24112 6.44511 2.12425C6.79073 2.00882 7.14501 1.92122 7.50459 1.86226C7.67157 1.83923 7.82992 1.81331 7.97963 1.80467C8.12934 1.79604 8.26753 1.78452 8.39421 1.78164C8.52089 1.77877 8.63605 1.78164 8.73681 1.78164C8.83758 1.78164 8.92395 1.78164 8.99305 1.79892C9.07043 1.80276 9.14742 1.81238 9.22337 1.82771Z" fill="white"/>
<path d="M10.3927 17.49C10.3423 17.5132 10.2891 17.5297 10.2343 17.5389C10.1307 17.5677 9.97811 17.5994 9.79097 17.631C8.80121 17.7949 7.78689 17.7259 6.82844 17.4295C6.64706 17.3748 6.50023 17.3201 6.40235 17.2798C6.3503 17.2617 6.30015 17.2386 6.25263 17.2107C6.3069 17.219 6.36004 17.2334 6.41098 17.2539C6.51175 17.2884 6.65858 17.3345 6.84284 17.3863C7.79869 17.6534 8.79924 17.721 9.78233 17.585C9.97235 17.5591 10.1249 17.5331 10.2286 17.513C10.282 17.4981 10.3372 17.4904 10.3927 17.49Z" fill="white"/>
</svg>
