<svg width="60" height="60" viewBox="0 0 60 60" fill="none" xmlns="http://www.w3.org/2000/svg">
<circle cx="30" cy="30" r="30" fill="#FEDFCC"/>
<circle cx="29.9997" cy="29.9997" r="25.2273" fill="#FFEEE3"/>
<circle cx="29.7727" cy="29.7727" r="19.7727" fill="#F9FCFF"/>
<path d="M30.776 27.0625H25.3057C24.9821 27.0625 24.7197 27.3248 24.7197 27.6484V31.3206C24.7197 31.6442 24.9821 31.9065 25.3057 31.9065H30.776C31.0996 31.9065 31.3619 31.6442 31.3619 31.3206V27.6484C31.3619 27.3248 31.0996 27.0625 30.776 27.0625ZM30.19 30.7346H25.8916V28.2344H30.19V30.7346Z" fill="#F0792E"/>
<path d="M28.4536 34.2046C28.6825 33.9756 28.6825 33.6044 28.4536 33.3755C28.2246 33.1466 27.8534 33.1466 27.6245 33.3755C27.3956 33.6044 27.3956 33.9756 27.6245 34.2046C27.8534 34.4335 28.2246 34.4335 28.4536 34.2046Z" fill="#20446C"/>
<path d="M28.0408 35.71C27.717 35.7103 27.4548 35.973 27.4551 36.2969C27.4554 36.6207 27.7182 36.8829 28.042 36.8826C28.3658 36.8823 28.628 36.6195 28.6277 36.2957C28.6274 35.9719 28.3646 35.7096 28.0408 35.71Z" fill="#20446C"/>
<path d="M25.5342 34.3787C25.858 34.3784 26.1202 34.1156 26.1199 33.7918C26.1196 33.468 25.8568 33.2057 25.533 33.2061C25.2092 33.2064 24.947 33.4691 24.9473 33.793C24.9476 34.1168 25.2104 34.379 25.5342 34.3787Z" fill="#20446C"/>
<path d="M30.9584 34.2016C31.1874 33.9727 31.1874 33.6015 30.9584 33.3726C30.7295 33.1436 30.3583 33.1436 30.1294 33.3726C29.9004 33.6015 29.9004 33.9727 30.1294 34.2016C30.3583 34.4306 30.7295 34.4306 30.9584 34.2016Z" fill="#20446C"/>
<path d="M25.9487 36.7124C26.1776 36.4834 26.1776 36.1123 25.9487 35.8833C25.7197 35.6544 25.3486 35.6544 25.1196 35.8833C24.8907 36.1123 24.8907 36.4834 25.1196 36.7124C25.3486 36.9413 25.7197 36.9413 25.9487 36.7124Z" fill="#20446C"/>
<path d="M31.0643 36.5791C31.2169 36.2935 31.109 35.9383 30.8234 35.7858C30.5378 35.6333 30.1826 35.7412 30.0301 36.0268C29.8775 36.3124 29.9854 36.6676 30.271 36.8201C30.5567 36.9726 30.9118 36.8647 31.0643 36.5791Z" fill="#20446C"/>
<path d="M37.238 26.2456H34.0578L34.0783 25.5951C34.1237 24.7007 33.8095 23.8507 33.193 23.2008C32.6037 22.5796 31.8169 22.2253 30.9666 22.1937V20.6996C30.9666 20.3138 30.6527 20 30.267 20H25.8156C25.4299 20 25.116 20.3138 25.116 20.6996V22.1937C24.2656 22.2253 23.4789 22.5796 22.8896 23.2009C22.2731 23.8508 21.9589 24.7007 22.0043 25.5951C22.0139 25.8989 22.3428 36.4044 22.3451 36.4804C22.3709 37.4309 22.7671 38.319 23.4605 38.9813C24.1483 39.6382 25.0513 40 26.0031 40L30.0852 40C31.0183 40 31.9566 39.589 32.6594 38.8726C32.9469 38.5795 33.1828 38.2493 33.3601 37.8994H37.238C38.0761 37.8994 38.758 37.2176 38.758 36.3795V27.7655C38.758 26.9274 38.0761 26.2456 37.238 26.2456ZM29.7947 21.1719V24.6966H26.2879V21.1719H29.7947ZM30.0852 38.8281L26.0031 38.8281C25.3542 38.8281 24.7387 38.5816 24.2699 38.1339C23.8015 37.6865 23.5339 37.088 23.5165 36.4485C23.5157 36.4188 23.2103 26.6646 23.1755 25.5525C23.1753 25.5483 23.1751 25.5441 23.175 25.5399C23.1447 24.9675 23.3453 24.4232 23.7398 24.0074C24.1056 23.6218 24.5905 23.3972 25.116 23.3664V24.7022C24.8286 24.7397 24.6064 24.985 24.6064 25.2826C24.6064 25.6062 24.8687 25.8686 25.1923 25.8686H30.8903C31.2139 25.8686 31.4762 25.6062 31.4762 25.2826C31.4762 24.9849 31.254 24.7397 30.9666 24.7022V23.3664C31.4921 23.3971 31.9769 23.6217 32.3427 24.0073C32.7373 24.4232 32.9378 24.9675 32.9076 25.5399C32.9074 25.544 32.9073 25.5482 32.9071 25.5523L32.5673 36.3576C32.5671 36.3637 32.567 36.3698 32.567 36.376C32.567 36.9589 32.2958 37.5698 31.8228 38.0519C31.3389 38.5452 30.7056 38.8281 30.0852 38.8281ZM33.7389 36.3859L34.021 27.4175H35.2408V36.7275H33.7185C33.7316 36.6136 33.7385 36.4995 33.7389 36.3859ZM37.5861 36.3795C37.5861 36.5714 37.4299 36.7275 37.238 36.7275H36.4127V27.4175H37.238C37.4299 27.4175 37.5861 27.5736 37.5861 27.7655V36.3795Z" fill="#20446C"/>
<path d="M35.8271 23.9511C36.1507 23.9511 36.4131 23.6888 36.4131 23.3652V20.6416C36.4131 20.318 36.1507 20.0557 35.8271 20.0557C35.5036 20.0557 35.2412 20.318 35.2412 20.6416V23.3652C35.2412 23.6888 35.5036 23.9511 35.8271 23.9511Z" fill="#F0792E"/>
<path d="M38.1719 21.2285C37.8483 21.2285 37.5859 21.4909 37.5859 21.8145V23.3654C37.5859 23.6889 37.8483 23.9513 38.1719 23.9513C38.4955 23.9513 38.7578 23.6889 38.7578 23.3654V21.8145C38.7578 21.4908 38.4955 21.2285 38.1719 21.2285Z" fill="#F0792E"/>
</svg>
