<svg width="27" height="27" viewBox="0 0 27 27" fill="none" xmlns="http://www.w3.org/2000/svg">
<path d="M24.627 14.291C25.0639 14.291 25.418 13.9369 25.418 13.5V11.127H26.209C26.6459 11.127 27 10.7729 27 10.336V7.17191C27 6.735 26.6459 6.3809 26.209 6.3809H23.7832V5.58988C23.7832 5.29161 23.6153 5.01867 23.3492 4.88395L13.857 0.0851267C13.6325 -0.0283756 13.3675 -0.0283756 13.1432 0.0851267L3.65103 4.88395C3.38468 5.01867 3.2168 5.29161 3.2168 5.58988V6.3809H0.791016C0.354103 6.3809 0 6.735 0 7.17191V10.336C0 10.7729 0.354103 11.127 0.791016 11.127H1.58203V13.5C1.58203 13.9369 1.93613 14.291 2.37305 14.291H3.16406V22.2012H2.37305C1.93613 22.2012 1.58203 22.5553 1.58203 22.9922V25.418H0.791016C0.354103 25.418 0 25.7721 0 26.209C0 26.6459 0.354103 27 0.791016 27H26.209C26.6459 27 27 26.6459 27 26.209C27 25.7721 26.6459 25.418 26.209 25.418H25.418V22.9922C25.418 22.5553 25.0639 22.2012 24.627 22.2012H23.8359V14.291H24.627ZM23.8359 12.709H19.0371V11.127H23.8359V12.709ZM18.2461 22.2012C17.8092 22.2012 17.4551 22.5553 17.4551 22.9922V25.418H9.54492V22.9922C9.54492 22.5553 9.19082 22.2012 8.75391 22.2012H7.96289V14.291H8.75391C9.19082 14.291 9.54492 13.9369 9.54492 13.5V11.127H17.4551V13.5C17.4551 13.9369 17.8092 14.291 18.2461 14.291H19.0371V22.2012H18.2461ZM4.79883 6.07644L13.5 1.67745L22.2012 6.07644V6.3809H4.79883V6.07644ZM1.58203 7.96293H25.418V9.54496H1.58203V7.96293ZM7.96289 11.127V12.709H3.16406V11.127H7.96289ZM4.74609 14.291H6.38086V22.2012H4.74609V14.291ZM3.16406 23.7832H7.96289V25.418H3.16406V23.7832ZM19.0371 25.418V23.7832H23.8359V25.418H19.0371ZM22.2539 22.2012H20.6191V14.291H22.2539V22.2012Z" fill="#20446C"/>
<path d="M15.2573 16.5953C15.5024 16.5953 15.7011 16.3954 15.7011 16.1487C15.7011 15.9022 15.5024 15.7021 15.2573 15.7021H11.7418C11.4966 15.7021 11.2979 15.9022 11.2979 16.1487C11.2979 16.3954 11.4966 16.5953 11.7418 16.5953H12.7493C13.166 16.5946 13.5445 16.8392 13.717 17.2205H11.7461C11.5011 17.2205 11.3022 17.4206 11.3022 17.6671C11.3022 17.9138 11.5011 18.1137 11.7461 18.1137H13.717C13.5429 18.494 13.1653 18.7379 12.7493 18.7389H11.7418C11.5597 18.7391 11.396 18.8509 11.3286 19.021C11.2611 19.1911 11.3034 19.3854 11.4354 19.5115L13.9478 21.9007C14.0309 21.9789 14.1404 22.022 14.254 22.0213C14.3761 22.0206 14.4928 21.9707 14.5781 21.883C14.6589 21.7971 14.7024 21.6825 14.6991 21.5644C14.6958 21.4463 14.6459 21.3343 14.5604 21.2532L12.8558 19.6321C13.7205 19.5818 14.4498 18.9662 14.6492 18.1182H15.2573C15.5024 18.1182 15.7011 17.9183 15.7011 17.6716C15.7011 17.425 15.5024 17.2251 15.2573 17.2251H14.6492C14.5975 17.0026 14.5073 16.7909 14.3828 16.5998H15.2573V16.5953Z" fill="#F0792E"/>
</svg>
