<svg width="1" height="14" viewBox="0 0 1 14" fill="none" xmlns="http://www.w3.org/2000/svg">
<path d="M0.215423 14H0.208357C0.180133 13.9992 0.152336 13.9929 0.12657 13.9814C0.100804 13.9698 0.0775785 13.9533 0.0582245 13.9327C0.0388705 13.9121 0.0237768 13.8879 0.0138051 13.8615C0.00383344 13.8351 -0.000822186 13.807 0.000118835 13.7787L0.0201241 13.1314C0.0205621 13.103 0.026725 13.0749 0.0382336 13.0489C0.0497422 13.0229 0.0663551 12.9995 0.087105 12.98C0.107855 12.9606 0.132319 12.9455 0.159012 12.9358C0.185704 12.926 0.214087 12.9217 0.242479 12.9231C0.270757 12.924 0.29858 12.9305 0.324353 12.9422C0.350126 12.9538 0.373344 12.9705 0.392684 12.9911C0.412023 13.0118 0.427102 13.0361 0.43706 13.0626C0.447018 13.0891 0.45166 13.1172 0.450718 13.1455L0.430712 13.7917C0.42888 13.8476 0.405389 13.9006 0.365211 13.9394C0.325032 13.9783 0.27132 14 0.215423 14ZM0.282475 11.8462H0.275424C0.2472 11.8454 0.219403 11.8391 0.193637 11.8275C0.167871 11.816 0.144646 11.7995 0.125292 11.7789C0.105938 11.7583 0.0908295 11.7341 0.0808578 11.7077C0.0708861 11.6813 0.0662449 11.6532 0.0671859 11.6249L0.0871911 10.9776C0.0890633 10.9205 0.113535 10.8664 0.155235 10.8274C0.196934 10.7883 0.252432 10.7674 0.309532 10.7693C0.366632 10.7712 0.420656 10.7956 0.459708 10.8374C0.49876 10.8791 0.519642 10.9346 0.51777 10.9917L0.497779 11.6379C0.495353 11.6933 0.471603 11.7457 0.431488 11.7841C0.391372 11.8225 0.337981 11.8439 0.282475 11.8438V11.8462ZM0.349543 9.69237H0.342477C0.314253 9.69161 0.286455 9.68528 0.260689 9.67373C0.234923 9.66218 0.211698 9.64565 0.192344 9.62508C0.17299 9.60452 0.157897 9.58032 0.147925 9.5539C0.137953 9.52747 0.133298 9.49934 0.134239 9.47111L0.154244 8.82378C0.154525 8.7954 0.160528 8.76737 0.171908 8.74137C0.183288 8.71537 0.199806 8.69194 0.220464 8.67248C0.241121 8.65302 0.265499 8.63795 0.292126 8.62815C0.318754 8.61835 0.347086 8.61404 0.375422 8.61547C0.432633 8.61731 0.486783 8.64175 0.526028 8.68344C0.565273 8.72512 0.586422 8.78066 0.584837 8.83791L0.564832 9.48405C0.562709 9.53985 0.53913 9.59266 0.499014 9.63148C0.458899 9.67029 0.405352 9.69211 0.349543 9.69237ZM0.415418 7.53856C0.387039 7.5378 0.359094 7.53143 0.333185 7.51982C0.307276 7.50821 0.283915 7.49159 0.264452 7.47092C0.244989 7.45025 0.229805 7.42593 0.219774 7.39936C0.209743 7.37279 0.205061 7.3445 0.206002 7.31612L0.226007 6.66997C0.228455 6.61305 0.253113 6.55935 0.294683 6.52041C0.336252 6.48146 0.391424 6.46037 0.448362 6.46165C0.47664 6.46256 0.504463 6.46904 0.530236 6.48072C0.556009 6.49239 0.579227 6.50904 0.598567 6.5297C0.617906 6.55036 0.632985 6.57463 0.642943 6.60112C0.6529 6.62761 0.657543 6.65581 0.6566 6.68409L0.636595 7.33024C0.634751 7.38716 0.610447 7.44103 0.568997 7.48008C0.527547 7.51912 0.472325 7.54015 0.415418 7.53856ZM0.482485 5.38474H0.475419C0.447141 5.38383 0.419318 5.37735 0.393545 5.36568C0.367772 5.354 0.344554 5.33736 0.325215 5.3167C0.305875 5.29604 0.290796 5.27177 0.280838 5.24528C0.270881 5.21879 0.266238 5.19059 0.267181 5.1623L0.287186 4.51616C0.28746 4.48767 0.293498 4.45953 0.304951 4.43345C0.316403 4.40737 0.333023 4.38388 0.353808 4.36441C0.374593 4.34494 0.399121 4.32989 0.425887 4.32016C0.452653 4.31044 0.48111 4.30625 0.509541 4.30784C0.537819 4.30875 0.565642 4.31523 0.591415 4.3269C0.617188 4.33858 0.640406 4.35523 0.659746 4.37588C0.679085 4.39654 0.694164 4.42081 0.704122 4.4473C0.714079 4.4738 0.718722 4.50199 0.717779 4.53028L0.697774 5.17643C0.695941 5.23232 0.672451 5.2853 0.632273 5.32418C0.592094 5.36305 0.538382 5.38477 0.482485 5.38474ZM0.549537 3.23093H0.542486C0.514208 3.23002 0.486386 3.22354 0.460612 3.21186C0.434839 3.20019 0.411621 3.18355 0.392282 3.16289C0.372942 3.14223 0.357863 3.11796 0.347905 3.09146C0.337948 3.06497 0.333305 3.03678 0.334248 3.00849L0.354239 2.36234C0.354838 2.33396 0.361115 2.30598 0.372679 2.28005C0.384242 2.25412 0.400863 2.23076 0.421579 2.21135C0.442294 2.19195 0.466678 2.17688 0.493299 2.16703C0.51992 2.15719 0.54824 2.15276 0.576594 2.15403C0.604872 2.15494 0.632694 2.16142 0.658467 2.17309C0.68424 2.18477 0.707459 2.20141 0.726798 2.22207C0.746138 2.24273 0.761217 2.267 0.771175 2.29349C0.781132 2.31998 0.785774 2.34818 0.784832 2.37647L0.764827 3.02261C0.763002 3.0783 0.739683 3.13111 0.699756 3.16996C0.659829 3.2088 0.606409 3.23066 0.550715 3.23093H0.549537ZM0.616604 1.07712H0.609539C0.581261 1.07621 0.553438 1.06973 0.527665 1.05805C0.501892 1.04638 0.478674 1.02973 0.459334 1.00907C0.439995 0.988415 0.424916 0.964145 0.414958 0.937652C0.405 0.911159 0.400358 0.882963 0.4013 0.854675L0.421306 0.20853C0.421905 0.180144 0.428167 0.152162 0.439731 0.126233C0.451295 0.100303 0.46793 0.0769485 0.488646 0.0575401C0.509361 0.0381318 0.533745 0.0230611 0.560366 0.013216C0.586987 0.00337096 0.615307 -0.00105099 0.643661 0.000210294C0.671939 0.00112258 0.699761 0.00760161 0.725534 0.0192771C0.751308 0.0309527 0.774526 0.0475955 0.793865 0.0682544C0.813205 0.0889132 0.828284 0.113184 0.838242 0.139676C0.848199 0.166169 0.852842 0.194365 0.851899 0.222653L0.831894 0.868798C0.830061 0.924688 0.806571 0.977673 0.766392 1.01655C0.726214 1.05543 0.672502 1.07715 0.616604 1.07712Z" fill="#90B9E7"/>
</svg>
