<svg width="39" height="39" viewBox="0 0 39 39" fill="none" xmlns="http://www.w3.org/2000/svg">
<circle cx="19.5" cy="19.5" r="19.5" fill="#FFEEE3"/>
<path d="M20.776 17.0605H15.3057C14.9821 17.0605 14.7197 17.3229 14.7197 17.6465V21.3186C14.7197 21.6422 14.9821 21.9046 15.3057 21.9046H20.776C21.0996 21.9046 21.3619 21.6422 21.3619 21.3186V17.6465C21.3619 17.3229 21.0996 17.0605 20.776 17.0605ZM20.19 20.7327H15.8916V18.2324H20.19V20.7327Z" fill="#F0792E"/>
<path d="M18.4536 24.2051C18.6825 23.9761 18.6825 23.6049 18.4536 23.376C18.2246 23.1471 17.8534 23.1471 17.6245 23.376C17.3956 23.6049 17.3956 23.9761 17.6245 24.2051C17.8534 24.434 18.2246 24.434 18.4536 24.2051Z" fill="#F0792E"/>
<path d="M18.0408 25.708C17.717 25.7083 17.4548 25.9711 17.4551 26.2949C17.4554 26.6188 17.7182 26.881 18.042 26.8807C18.3658 26.8804 18.628 26.6176 18.6277 26.2938C18.6274 25.9699 18.3646 25.7077 18.0408 25.708Z" fill="#F0792E"/>
<path d="M15.5352 24.3807C15.859 24.3804 16.1212 24.1176 16.1209 23.7938C16.1206 23.4699 15.8578 23.2077 15.534 23.208C15.2102 23.2083 14.9479 23.4711 14.9482 23.7949C14.9486 24.1188 15.2114 24.381 15.5352 24.3807Z" fill="#F0792E"/>
<path d="M20.9584 24.2036C21.1874 23.9747 21.1874 23.6035 20.9584 23.3745C20.7295 23.1456 20.3583 23.1456 20.1294 23.3745C19.9004 23.6035 19.9004 23.9747 20.1294 24.2036C20.3583 24.4325 20.7295 24.4325 20.9584 24.2036Z" fill="#F0792E"/>
<path d="M15.9487 26.7119C16.1776 26.483 16.1776 26.1118 15.9487 25.8828C15.7197 25.6539 15.3486 25.6539 15.1196 25.8828C14.8907 26.1118 14.8907 26.483 15.1196 26.7119C15.3486 26.9408 15.7197 26.9408 15.9487 26.7119Z" fill="#F0792E"/>
<path d="M21.0643 26.5796C21.2169 26.294 21.109 25.9388 20.8234 25.7863C20.5378 25.6338 20.1826 25.7417 20.0301 26.0273C19.8775 26.3129 19.9854 26.6681 20.271 26.8206C20.5567 26.9731 20.9118 26.8652 21.0643 26.5796Z" fill="#F0792E"/>
<path d="M27.238 16.2456H24.0578L24.0783 15.5951C24.1237 14.7007 23.8095 13.8507 23.193 13.2008C22.6037 12.5796 21.8169 12.2253 20.9666 12.1937V10.6996C20.9666 10.3138 20.6527 10 20.267 10H15.8156C15.4299 10 15.116 10.3138 15.116 10.6996V12.1937C14.2656 12.2253 13.4789 12.5796 12.8896 13.2009C12.2731 13.8508 11.9589 14.7007 12.0043 15.5951C12.0139 15.8989 12.3428 26.4044 12.3451 26.4804C12.3709 27.4309 12.7671 28.319 13.4605 28.9813C14.1483 29.6382 15.0513 30 16.0031 30L20.0852 30C21.0183 30 21.9566 29.589 22.6594 28.8726C22.9469 28.5795 23.1828 28.2493 23.3601 27.8994H27.238C28.0761 27.8994 28.758 27.2176 28.758 26.3795V17.7655C28.758 16.9274 28.0761 16.2456 27.238 16.2456ZM19.7947 11.1719V14.6966H16.2879V11.1719H19.7947ZM20.0852 28.8281L16.0031 28.8281C15.3542 28.8281 14.7387 28.5816 14.2699 28.1339C13.8015 27.6865 13.5339 27.088 13.5165 26.4485C13.5157 26.4188 13.2103 16.6646 13.1755 15.5525C13.1753 15.5483 13.1751 15.5441 13.175 15.5399C13.1447 14.9675 13.3453 14.4232 13.7398 14.0074C14.1056 13.6218 14.5905 13.3972 15.116 13.3664V14.7022C14.8286 14.7397 14.6064 14.985 14.6064 15.2826C14.6064 15.6062 14.8687 15.8686 15.1923 15.8686H20.8903C21.2139 15.8686 21.4762 15.6062 21.4762 15.2826C21.4762 14.9849 21.254 14.7397 20.9666 14.7022V13.3664C21.4921 13.3971 21.9769 13.6217 22.3427 14.0073C22.7373 14.4232 22.9378 14.9675 22.9076 15.5399C22.9074 15.544 22.9073 15.5482 22.9071 15.5523L22.5673 26.3576C22.5671 26.3637 22.567 26.3698 22.567 26.376C22.567 26.9589 22.2958 27.5698 21.8228 28.0519C21.3389 28.5452 20.7056 28.8281 20.0852 28.8281ZM23.7389 26.3859L24.021 17.4175H25.2408V26.7275H23.7185C23.7316 26.6136 23.7385 26.4995 23.7389 26.3859ZM27.5861 26.3795C27.5861 26.5714 27.4299 26.7275 27.238 26.7275H26.4127V17.4175H27.238C27.4299 17.4175 27.5861 17.5736 27.5861 17.7655V26.3795Z" fill="#F0792E"/>
<path d="M25.8271 13.9491C26.1507 13.9491 26.4131 13.6868 26.4131 13.3632V10.6396C26.4131 10.3161 26.1507 10.0537 25.8271 10.0537C25.5036 10.0537 25.2412 10.3161 25.2412 10.6396V13.3632C25.2412 13.6868 25.5036 13.9491 25.8271 13.9491Z" fill="#F0792E"/>
<path d="M28.1719 11.2305C27.8483 11.2305 27.5859 11.4928 27.5859 11.8164V13.3673C27.5859 13.6909 27.8483 13.9532 28.1719 13.9532C28.4955 13.9532 28.7578 13.6909 28.7578 13.3673V11.8164C28.7578 11.4928 28.4955 11.2305 28.1719 11.2305Z" fill="#F0792E"/>
</svg>
