<svg width="8" height="11" viewBox="0 0 8 11" fill="none" xmlns="http://www.w3.org/2000/svg">
<path d="M7.22975 3.10492C7.10639 1.45337 5.66371 0.12203 3.87395 0.00819206C2.85938 -0.0561029 1.89115 0.259691 1.15006 0.898144C0.419145 1.52776 0 2.41779 0 3.34009C0 3.7758 0.382812 4.12898 0.854873 4.12898C1.32693 4.12898 1.70975 3.7758 1.70975 3.34009C1.70975 2.84632 1.92535 2.38868 2.31671 2.05159C2.70773 1.71481 3.21877 1.54811 3.75648 1.58235C4.69924 1.64231 5.45914 2.34356 5.52411 3.21347C5.58976 4.09206 4.96511 4.86849 4.03894 5.05972C3.28853 5.21466 2.76449 5.81643 2.76449 6.52304V8.41836C2.76449 8.85407 3.1473 9.20726 3.61936 9.20726C4.09151 9.20726 4.47424 8.85407 4.47415 8.41836V6.58608C6.19672 6.20204 7.35242 4.74748 7.22975 3.10492Z" fill="white"/>
<path d="M4.22358 9.65354C4.06458 9.50681 3.84402 9.4224 3.61919 9.4224C3.39436 9.4224 3.1738 9.50681 3.0148 9.65354C2.85579 9.80028 2.76432 10.0038 2.76432 10.2113C2.76432 10.4196 2.85588 10.6231 3.0148 10.7698C3.1738 10.9166 3.39436 11.0002 3.61919 11.0002C3.84402 11.0002 4.06458 10.9166 4.22358 10.7698C4.38259 10.6223 4.47406 10.4196 4.47406 10.2113C4.47406 10.0038 4.3825 9.80028 4.22358 9.65354Z" fill="white"/>
</svg>
