<svg width="1" height="8" viewBox="0 0 1 8" fill="none" xmlns="http://www.w3.org/2000/svg">
<path d="M0.228421 7.9998C0.167844 7.9998 0.109739 7.97573 0.0669046 7.93289C0.0240698 7.89004 3.44842e-06 7.83193 3.44842e-06 7.77134V7.08597C3.44842e-06 7.02538 0.0240698 6.96727 0.0669046 6.92442C0.109739 6.88158 0.167844 6.85751 0.228421 6.85751C0.288999 6.85751 0.347088 6.88158 0.389922 6.92442C0.432757 6.96727 0.456824 7.02538 0.456824 7.08597V7.77134C0.456824 7.83193 0.432757 7.89004 0.389922 7.93289C0.347088 7.97573 0.288999 7.9998 0.228421 7.9998ZM0.228421 5.71397C0.167844 5.71397 0.109739 5.6899 0.0669046 5.64705C0.0240698 5.60421 3.44842e-06 5.5461 3.44842e-06 5.48551V4.80013C3.44842e-06 4.73954 0.0240698 4.68143 0.0669046 4.63859C0.109739 4.59574 0.167844 4.57167 0.228421 4.57167C0.288999 4.57167 0.347088 4.59574 0.389922 4.63859C0.432757 4.68143 0.456824 4.73954 0.456824 4.80013V5.48551C0.456824 5.5461 0.432757 5.60421 0.389922 5.64705C0.347088 5.6899 0.288999 5.71397 0.228421 5.71397ZM0.228421 3.42813C0.167844 3.42813 0.109739 3.40406 0.0669046 3.36122C0.0240698 3.31837 3.44842e-06 3.26026 3.44842e-06 3.19967V2.5143C3.44842e-06 2.45371 0.0240698 2.3956 0.0669046 2.35275C0.109739 2.30991 0.167844 2.28584 0.228421 2.28584C0.288999 2.28584 0.347088 2.30991 0.389922 2.35275C0.432757 2.3956 0.456824 2.45371 0.456824 2.5143V3.19967C0.456824 3.26026 0.432757 3.31837 0.389922 3.36122C0.347088 3.40406 0.288999 3.42813 0.228421 3.42813ZM0.228421 1.1423C0.19838 1.14246 0.168601 1.13667 0.140814 1.12524C0.113028 1.11382 0.0877816 1.097 0.066539 1.07575C0.0452963 1.0545 0.0284725 1.02925 0.0170525 1.00146C0.00563255 0.973666 -0.000162072 0.943884 3.44842e-06 0.913836V0.228461C3.44842e-06 0.16787 0.0240698 0.10976 0.0669046 0.066916C0.109739 0.0240717 0.167844 0 0.228421 0C0.288999 0 0.347088 0.0240717 0.389922 0.066916C0.432757 0.10976 0.456824 0.16787 0.456824 0.228461V0.913836C0.456989 0.943884 0.451195 0.973666 0.439775 1.00146C0.428355 1.02925 0.411531 1.0545 0.390288 1.07575C0.369045 1.097 0.343799 1.11382 0.316013 1.12524C0.288226 1.13667 0.258462 1.14246 0.228421 1.1423Z" fill="#90B9E7"/>
</svg>
