<svg width="18" height="18" viewBox="0 0 18 18" fill="none" xmlns="http://www.w3.org/2000/svg">
<path d="M17.9947 8.68599C18.0569 10.465 17.59 12.2224 16.6533 13.7361C15.7166 15.2498 14.3521 16.4517 12.7323 17.1899C11.1125 17.9281 9.31014 18.1693 7.55321 17.8831C5.79629 17.597 4.16368 16.7962 2.86186 15.5822C1.56002 14.3681 0.647444 12.7953 0.239515 11.0626C-0.168415 9.3299 -0.0533707 7.51514 0.570101 5.84782C1.19357 4.1805 2.29747 2.73551 3.74219 1.69558C5.18691 0.655649 6.90756 0.0674842 8.68656 0.00546943C11.072 -0.0776852 13.3927 0.790137 15.1384 2.41803C16.884 4.04593 17.9114 6.30057 17.9947 8.68599Z" fill="#20446C"/>
<g opacity="0.1">
<path opacity="0.1" d="M8.68592 0.00687229C6.30052 0.0901781 4.04589 1.11764 2.41801 2.86324C0.790122 4.60884 -0.0776846 6.92961 0.00546944 9.31503C0.00546944 9.31503 6.33947 9.37837 7.77901 6.77854C9.21856 4.1787 8.68592 0.00687229 8.68592 0.00687229Z" fill="white"/>
</g>
<path d="M15.6879 8.62278C15.7356 9.97543 15.3809 11.3118 14.6688 12.4628C13.9567 13.6138 12.9191 14.5277 11.6874 15.0889C10.4557 15.65 9.08526 15.8331 7.74945 15.6151C6.41363 15.3971 5.17252 14.7877 4.18317 13.864C3.19381 12.9404 2.50069 11.744 2.19151 10.4263C1.88233 9.10862 1.97099 7.72881 2.44627 6.46152C2.92155 5.19422 3.76209 4.0964 4.86152 3.30698C5.96095 2.51755 7.26985 2.07201 8.62258 2.02674C10.4338 1.96612 12.195 2.62665 13.5196 3.86331C14.8443 5.09997 15.6241 6.81171 15.6879 8.62278Z" fill="#20446C"/>
<g opacity="0.2">
<path opacity="0.2" d="M15.6879 8.62278C15.7356 9.97543 15.3809 11.3118 14.6688 12.4628C13.9567 13.6138 12.9191 14.5277 11.6874 15.0889C10.4557 15.65 9.08526 15.8331 7.74945 15.6151C6.41363 15.3971 5.17252 14.7877 4.18317 13.864C3.19381 12.9404 2.50069 11.744 2.19151 10.4263C1.88233 9.10862 1.97099 7.72881 2.44627 6.46152C2.92155 5.19422 3.76209 4.0964 4.86152 3.30698C5.96095 2.51755 7.26985 2.07201 8.62258 2.02674C10.4338 1.96612 12.195 2.62665 13.5196 3.86331C14.8443 5.09997 15.6241 6.81171 15.6879 8.62278Z" fill="#20446C"/>
</g>
<path d="M15.8945 8.90187C15.941 10.2357 15.5909 11.5534 14.8885 12.6882C14.1861 13.8231 13.163 14.7242 11.9485 15.2777C10.734 15.8311 9.38271 16.0121 8.06541 15.7976C6.74812 15.5831 5.524 14.9828 4.54783 14.0727C3.57166 13.1625 2.88728 11.9833 2.58122 10.6843C2.27516 9.38518 2.36116 8.02452 2.82835 6.77431C3.29554 5.5241 4.12294 4.4405 5.20594 3.6605C6.28893 2.88049 7.57889 2.43913 8.91271 2.3922C10.7017 2.33002 12.4421 2.98083 13.7514 4.20154C15.0606 5.42225 15.8315 7.11293 15.8945 8.90187Z" fill="#F0792E"/>
<path d="M10.9521 7.27136C11.1824 7.27136 11.3691 7.08733 11.3691 6.86026C11.3691 6.63335 11.1824 6.44915 10.9521 6.44915H7.64955C7.41923 6.44915 7.23256 6.63335 7.23256 6.86026C7.23256 7.08733 7.41923 7.27136 7.64955 7.27136H8.59608C8.98749 7.27072 9.34307 7.49586 9.50515 7.8469H7.65362C7.42346 7.8469 7.23663 8.03109 7.23663 8.258C7.23663 8.48507 7.42346 8.66911 7.65362 8.66911H9.50515C9.34161 9.01919 8.98684 9.24369 8.59608 9.24465H7.64955C7.47852 9.24481 7.32475 9.34775 7.26139 9.50432C7.19803 9.66089 7.23777 9.83979 7.36173 9.95589L9.72195 12.1553C9.79997 12.2272 9.90291 12.2669 10.0096 12.2663C10.1243 12.2656 10.2339 12.2197 10.314 12.1389C10.3899 12.0599 10.4308 11.9544 10.4277 11.8457C10.4246 11.737 10.3777 11.6339 10.2974 11.5592L8.69609 10.0669C9.5084 10.0206 10.1935 9.45389 10.3808 8.67328H10.9521C11.1824 8.67328 11.3691 8.48925 11.3691 8.26218C11.3691 8.03511 11.1824 7.85108 10.9521 7.85108H10.3808C10.3323 7.64633 10.2476 7.45138 10.1306 7.27553H10.9521V7.27136Z" fill="white"/>
<g opacity="0.2">
<path opacity="0.2" d="M15.8945 8.90187C15.941 10.2357 15.5909 11.5534 14.8885 12.6882C14.1861 13.8231 13.163 14.7242 11.9485 15.2777C10.734 15.8311 9.38271 16.0121 8.06541 15.7976C6.74812 15.5831 5.524 14.9828 4.54783 14.0727C3.57166 13.1625 2.88728 11.9833 2.58122 10.6843C2.27516 9.38518 2.36116 8.02452 2.82835 6.77431C3.29554 5.5241 4.12294 4.4405 5.20594 3.6605C6.28893 2.88049 7.57889 2.43913 8.91271 2.3922C10.7017 2.33002 12.4421 2.98083 13.7514 4.20154C15.0606 5.42225 15.8315 7.11293 15.8945 8.90187Z" fill="white"/>
</g>
<path d="M9.26191 15.953H9.31662L9.47784 15.9386L9.74273 15.9127C9.86269 15.9044 9.98196 15.888 10.0997 15.8637L10.546 15.7774C10.6301 15.7617 10.7129 15.7395 10.7936 15.7111L11.0614 15.6305C11.1588 15.6057 11.2549 15.5759 11.3493 15.5413L11.6372 15.4203C11.7379 15.3772 11.8445 15.3397 11.9452 15.2879L12.2619 15.1209C12.7274 14.8694 13.163 14.5661 13.5604 14.2169L13.8742 13.9146L14.0326 13.7591C14.0815 13.7015 14.1276 13.6439 14.1794 13.5864C14.2744 13.4683 14.381 13.356 14.4673 13.2293L14.738 12.8407L14.8071 12.7399C14.8301 12.7082 14.8474 12.6708 14.8675 12.6362L14.9884 12.4232L15.1094 12.2073C15.1526 12.1353 15.1785 12.0547 15.2159 11.9798C15.2821 11.8243 15.3541 11.6717 15.4146 11.5134L15.5787 11.0211C15.7722 10.3269 15.8624 9.60807 15.8464 8.88764C15.813 8.16733 15.6723 7.45604 15.429 6.77726C15.3627 6.61602 15.2994 6.45479 15.2332 6.29644C15.167 6.13809 15.0777 5.99414 15 5.84443C14.9636 5.76938 14.9232 5.69633 14.879 5.62561L14.7437 5.41831L14.6084 5.2139C14.5854 5.17935 14.5652 5.1448 14.5422 5.11313L14.4644 5.01812L14.1765 4.64959C14.0729 4.53155 13.9606 4.42502 13.857 4.31561L13.6986 4.15438C13.6439 4.10256 13.5863 4.0565 13.5287 4.00755L13.1976 3.71964C12.7756 3.39877 12.3188 3.12641 11.8358 2.90773L11.5105 2.76377C11.404 2.71771 11.2946 2.6918 11.1938 2.65437L10.8886 2.5536C10.7936 2.51905 10.6928 2.50753 10.6007 2.48162L10.3272 2.42116C10.244 2.39936 10.1593 2.38396 10.0738 2.3751L9.62468 2.32039C9.50547 2.30366 9.38517 2.29596 9.26479 2.29736H8.99991H8.8358H9.26479C9.38502 2.29377 9.50535 2.29954 9.62468 2.31463L10.0767 2.36358C10.1629 2.37259 10.2485 2.38702 10.3329 2.40677L10.6208 2.46723C10.713 2.49026 10.8137 2.50178 10.9088 2.53633L11.2139 2.63421C11.3176 2.66876 11.4299 2.69756 11.5364 2.74362L11.8646 2.8847C12.3516 3.10314 12.8131 3.37445 13.2408 3.69373L13.5748 3.98164L13.7476 4.12847L13.9059 4.2897C14.0124 4.40199 14.1276 4.50852 14.2312 4.62656L14.5191 4.99797L14.5969 5.09298L14.666 5.19374L14.8013 5.40104L14.9395 5.60834C14.9884 5.67744 15.0201 5.75805 15.0633 5.83003C15.141 5.97974 15.2245 6.11794 15.2994 6.28493C15.3742 6.45192 15.4289 6.60739 15.4952 6.7715C16.0083 8.14552 16.0609 9.64912 15.6449 11.0556L15.4837 11.5537C15.4203 11.7149 15.3455 11.8675 15.2792 12.023C15.2418 12.1007 15.2159 12.1813 15.1727 12.2533C15.1295 12.3253 15.0892 12.3973 15.0489 12.4693L14.928 12.6852C14.9078 12.7197 14.8877 12.7572 14.8646 12.7917L14.7955 12.8925L14.5076 13.284C14.4126 13.4107 14.3061 13.523 14.2197 13.6411L14.07 13.8138L13.9117 13.9722L13.595 14.2773C13.1916 14.627 12.7503 14.9303 12.2792 15.1814L11.9625 15.3455C11.8589 15.3973 11.7523 15.4319 11.6487 15.4751L11.3608 15.596C11.2664 15.6306 11.1703 15.6603 11.0729 15.6852L10.8022 15.763C10.7205 15.7905 10.6367 15.8116 10.5518 15.8263L10.1055 15.9069C9.9868 15.93 9.86645 15.9435 9.7456 15.9472L9.48073 15.9674H9.31662L9.26191 15.953Z" fill="#263238"/>
<path d="M1.48834 13.4888C1.47133 13.4675 1.45684 13.4443 1.44515 13.4197L1.32711 13.2182C1.27817 13.1318 1.21771 13.0224 1.15725 12.8899C1.09679 12.7575 1.01905 12.6164 0.955708 12.4466L0.849183 12.1846C0.811755 12.0924 0.782963 11.9945 0.748414 11.8967C0.673558 11.6951 0.618857 11.4763 0.552638 11.2431C0.430104 10.7387 0.346367 10.2257 0.30216 9.70853C0.268034 9.18961 0.274775 8.6688 0.322315 8.15093C0.351106 7.91485 0.374135 7.6874 0.417321 7.4801C0.437475 7.37357 0.451874 7.27281 0.474906 7.17492C0.497939 7.07703 0.520966 6.98777 0.54112 6.88701C0.581427 6.7085 0.63325 6.55303 0.676437 6.41483C0.709141 6.29656 0.748554 6.18025 0.79448 6.06646L0.880849 5.85052C0.887813 5.8242 0.89848 5.799 0.912523 5.77567C0.908866 5.80321 0.902103 5.83026 0.892368 5.85628L0.820391 6.07509C0.785842 6.1701 0.748412 6.28815 0.710984 6.42635C0.673556 6.56454 0.624614 6.71426 0.587186 6.89564C0.567992 6.98585 0.547841 7.08182 0.526728 7.18355C0.503695 7.27856 0.492178 7.38221 0.472024 7.48586C0.431717 7.69316 0.411567 7.91772 0.385656 8.15381C0.340173 8.66799 0.335355 9.18496 0.371255 9.6999C0.412701 10.214 0.493552 10.7241 0.613097 11.2258C0.676436 11.4561 0.731137 11.675 0.800235 11.8765C0.834784 11.9744 0.863582 12.0752 0.898131 12.1644L0.998892 12.4293C1.06223 12.5992 1.13421 12.7431 1.19179 12.8756C1.24938 13.008 1.30408 13.1174 1.35014 13.2066L1.45666 13.4139C1.47127 13.437 1.48198 13.4623 1.48834 13.4888Z" fill="white"/>
<path d="M9.2246 1.82776C9.15186 1.83527 9.07853 1.83527 9.00579 1.82776H8.74667C8.64878 1.82776 8.53362 1.82776 8.40694 1.82776C8.28026 1.82776 8.14494 1.84215 7.99523 1.85943C7.84551 1.8767 7.69292 1.89685 7.52881 1.92277C6.81557 2.04568 6.12527 2.27675 5.48177 2.608C5.33493 2.68861 5.19386 2.76059 5.07006 2.8412C4.95027 2.90918 4.834 2.98317 4.72169 3.06289C4.61516 3.13199 4.52591 3.20109 4.43378 3.26155C4.34165 3.32201 4.28694 3.37384 4.23224 3.4199C4.17748 3.46885 4.11874 3.51315 4.05661 3.55234C4.10593 3.49799 4.15883 3.44702 4.21496 3.39975C4.26679 3.3508 4.333 3.29322 4.41074 3.23276C4.48847 3.1723 4.57773 3.09456 4.68426 3.02259C4.79078 2.95061 4.90018 2.86999 5.02974 2.79226C5.1593 2.71452 5.29463 2.63391 5.44146 2.55329C5.76484 2.38461 6.10077 2.24118 6.44627 2.1243C6.79189 2.00888 7.14619 1.92127 7.50578 1.86231C7.67276 1.83928 7.83111 1.81336 7.98083 1.80472C8.13054 1.79609 8.26874 1.78457 8.39542 1.78169C8.5221 1.77881 8.63726 1.78169 8.73803 1.78169C8.8388 1.78169 8.92518 1.78169 8.99428 1.79897C9.07166 1.80281 9.14865 1.81243 9.2246 1.82776Z" fill="white"/>
<path d="M10.394 17.4904C10.3436 17.5137 10.2903 17.5301 10.2356 17.5394C10.132 17.5682 9.97936 17.5998 9.79222 17.6315C8.80243 17.7954 7.78808 17.7264 6.82961 17.43C6.64822 17.3753 6.50139 17.3206 6.4035 17.2803C6.35146 17.2622 6.3013 17.239 6.25378 17.2112C6.30805 17.2194 6.36119 17.2339 6.41214 17.2543C6.51291 17.2889 6.65974 17.335 6.84401 17.3868C7.79988 17.6538 8.80046 17.7215 9.78358 17.5854C9.9736 17.5595 10.1262 17.5336 10.2298 17.5135C10.2833 17.4986 10.3385 17.4908 10.394 17.4904Z" fill="white"/>
</svg>
