<svg width="27" height="27" viewBox="0 0 27 27" fill="none" xmlns="http://www.w3.org/2000/svg">
<path d="M18.2461 12.709C17.4143 12.709 16.6157 12.8528 15.873 13.1162V3.2168C15.873 2.64516 15.5665 1.56802 13.5138 0.774536C12.2214 0.275208 10.531 0 8.75391 0C5.31999 0 1.63477 1.08785 1.63477 3.2168V19.0371C1.63477 19.7356 2.04531 20.7221 4.00143 21.4557C5.28333 21.9365 6.97103 22.2012 8.75391 22.2012C9.68788 22.2012 10.6078 22.1272 11.4563 21.9857C12.3674 24.8892 15.0666 27 18.2461 27C22.1715 27 25.3652 23.7828 25.3652 19.8281C25.3652 15.9027 22.1715 12.709 18.2461 12.709ZM11.6384 17.179C10.7615 17.3599 9.77378 17.4551 8.75391 17.4551C5.17126 17.4551 3.2168 16.3421 3.2168 15.873V14.7794C4.76937 15.597 6.98833 15.873 8.75391 15.873C10.1771 15.873 11.5389 15.7039 12.683 15.3912C12.2529 15.9293 11.8994 16.5306 11.6384 17.179ZM14.291 9.54492C14.291 10.0103 12.3499 11.127 8.75391 11.127C5.17126 11.127 3.2168 10.014 3.2168 9.54492V8.45151C4.76628 9.26724 6.9838 9.54492 8.75391 9.54492C10.5368 9.54492 12.2245 9.28022 13.5064 8.79943C13.8022 8.68861 14.062 8.57181 14.291 8.4513V9.54492ZM14.291 6.38086C14.291 6.8462 12.3499 7.96289 8.75391 7.96289C5.17126 7.96289 3.2168 6.84991 3.2168 6.38086V5.28724C4.76937 6.10483 6.98833 6.38086 8.75391 6.38086C10.5187 6.38086 12.738 6.10503 14.291 5.28724V6.38086ZM8.75391 12.709C10.5187 12.709 12.738 12.4332 14.291 11.6154V12.709C14.291 12.8219 14.0449 13.2361 12.9508 13.6463C11.8422 14.062 10.3518 14.291 8.75391 14.291C5.17126 14.291 3.2168 13.178 3.2168 12.709V11.6154C4.76937 12.433 6.98833 12.709 8.75391 12.709ZM8.75391 1.58203C12.2412 1.58203 14.291 2.71376 14.291 3.2168C14.291 3.68214 12.3499 4.79883 8.75391 4.79883C5.17126 4.79883 3.2168 3.68584 3.2168 3.2168C3.2168 2.73127 5.21782 1.58203 8.75391 1.58203ZM8.75391 20.6191C5.17126 20.6191 3.2168 19.5062 3.2168 19.0371V17.9435C4.76937 18.7611 6.98833 19.0371 8.75391 19.0371C9.59457 19.0371 10.4194 18.9776 11.1927 18.863C11.1496 19.1788 11.127 19.5008 11.127 19.8281C11.127 20.0319 11.1358 20.2333 11.1525 20.4327C10.4025 20.5553 9.58633 20.6191 8.75391 20.6191ZM18.2461 25.418C15.5651 25.418 13.3233 23.4845 12.8165 20.9261C12.8142 20.9141 12.8128 20.902 12.8101 20.8898C12.8097 20.8878 12.8089 20.8859 12.8085 20.884C12.7434 20.5419 12.709 20.189 12.709 19.8281C12.709 16.7749 15.1929 14.291 18.2461 14.291C21.2993 14.291 23.7832 16.7749 23.7832 19.8281C23.7832 22.9104 21.2993 25.418 18.2461 25.418Z" fill="#20446C"/>
<path d="M20.4961 17.1307C20.7744 17.1307 21 16.8776 21 16.5654C21 16.2533 20.7744 16 20.4961 16H16.5051C16.2267 16 16.0011 16.2533 16.0011 16.5654C16.0011 16.8776 16.2267 17.1307 16.5051 17.1307H17.6489C18.1219 17.1299 18.5517 17.4395 18.7475 17.9223H16.51C16.2318 17.9223 16.0061 18.1756 16.0061 18.4876C16.0061 18.7999 16.2318 19.053 16.51 19.053H18.7475C18.5499 19.5344 18.1212 19.8432 17.6489 19.8445H16.5051C16.2984 19.8447 16.1126 19.9863 16.036 20.2016C15.9594 20.417 16.0074 20.663 16.1572 20.8227L19.0095 23.8474C19.1038 23.9463 19.2282 24.0009 19.3571 24C19.4957 23.9991 19.6282 23.9359 19.725 23.8249C19.8168 23.7162 19.8662 23.5711 19.8624 23.4216C19.8587 23.2721 19.802 23.1303 19.705 23.0276L17.7698 20.9753C18.7514 20.9117 19.5794 20.1323 19.8057 19.0587H20.4961C20.7744 19.0587 21 18.8056 21 18.4934C21 18.1811 20.7744 17.928 20.4961 17.928H19.8057C19.7471 17.6464 19.6447 17.3783 19.5034 17.1365H20.4961V17.1307Z" fill="#F0792E"/>
</svg>
