<svg width="36" height="36" viewBox="0 0 36 36" fill="none" xmlns="http://www.w3.org/2000/svg">
<path d="M28.5 31.5V28.5H22.5V25.5H28.5V22.5L33 27L28.5 31.5ZM19.5 27C19.5 28.065 19.725 29.085 20.13 30H3V25.5C3 22.185 8.37 19.5 15 19.5C16.5 19.5 17.94 19.635 19.275 19.89C20.52 20.13 21.66 20.46 22.665 20.88C20.745 22.245 19.5 24.48 19.5 27ZM6 25.5V27H16.5C16.5 25.44 16.845 23.955 17.46 22.62L15 22.5C10.035 22.5 6 23.85 6 25.5ZM15 6C16.5913 6 18.1174 6.63214 19.2426 7.75736C20.3679 8.88258 21 10.4087 21 12C21 13.5913 20.3679 15.1174 19.2426 16.2426C18.1174 17.3679 16.5913 18 15 18C13.4087 18 11.8826 17.3679 10.7574 16.2426C9.63214 15.1174 9 13.5913 9 12C9 10.4087 9.63214 8.88258 10.7574 7.75736C11.8826 6.63214 13.4087 6 15 6ZM15 9C14.2044 9 13.4413 9.31607 12.8787 9.87868C12.3161 10.4413 12 11.2044 12 12C12 12.7956 12.3161 13.5587 12.8787 14.1213C13.4413 14.6839 14.2044 15 15 15C15.7956 15 16.5587 14.6839 17.1213 14.1213C17.6839 13.5587 18 12.7956 18 12C18 11.2044 17.6839 10.4413 17.1213 9.87868C16.5587 9.31607 15.7956 9 15 9Z" fill="#F0792E"/>
</svg>
