<svg width="18" height="18" viewBox="0 0 18 18" fill="none" xmlns="http://www.w3.org/2000/svg">
<path d="M17.9947 8.68599C18.0569 10.465 17.59 12.2224 16.6533 13.7361C15.7166 15.2498 14.3521 16.4517 12.7323 17.1899C11.1125 17.9281 9.31014 18.1693 7.55321 17.8831C5.79629 17.597 4.16368 16.7962 2.86186 15.5822C1.56002 14.3681 0.647444 12.7953 0.239515 11.0626C-0.168415 9.3299 -0.0533707 7.51514 0.570101 5.84782C1.19357 4.1805 2.29747 2.73551 3.74219 1.69558C5.18691 0.655649 6.90756 0.0674842 8.68656 0.00546943C11.072 -0.0776852 13.3927 0.790137 15.1384 2.41803C16.884 4.04593 17.9114 6.30057 17.9947 8.68599Z" fill="#20446C"/>
<g opacity="0.1">
<path opacity="0.1" d="M8.68592 0.00687229C6.30052 0.0901781 4.04589 1.11764 2.41801 2.86324C0.790122 4.60884 -0.0776846 6.92961 0.00546944 9.31503C0.00546944 9.31503 6.33947 9.37837 7.77901 6.77854C9.21856 4.1787 8.68592 0.00687229 8.68592 0.00687229Z" fill="white"/>
</g>
<path d="M15.6879 8.62278C15.7356 9.97543 15.3809 11.3118 14.6688 12.4628C13.9567 13.6138 12.9191 14.5277 11.6874 15.0889C10.4557 15.65 9.08526 15.8331 7.74945 15.6151C6.41363 15.3971 5.17252 14.7877 4.18317 13.864C3.19381 12.9404 2.50069 11.744 2.19151 10.4263C1.88233 9.10862 1.97099 7.72881 2.44627 6.46152C2.92155 5.19422 3.76209 4.0964 4.86152 3.30698C5.96095 2.51755 7.26985 2.07201 8.62258 2.02674C10.4338 1.96612 12.195 2.62665 13.5196 3.86331C14.8443 5.09997 15.6241 6.81171 15.6879 8.62278Z" fill="#20446C"/>
<g opacity="0.2">
<path opacity="0.2" d="M15.6879 8.62278C15.7356 9.97543 15.3809 11.3118 14.6688 12.4628C13.9567 13.6138 12.9191 14.5277 11.6874 15.0889C10.4557 15.65 9.08526 15.8331 7.74945 15.6151C6.41363 15.3971 5.17252 14.7877 4.18317 13.864C3.19381 12.9404 2.50069 11.744 2.19151 10.4263C1.88233 9.10862 1.97099 7.72881 2.44627 6.46152C2.92155 5.19422 3.76209 4.0964 4.86152 3.30698C5.96095 2.51755 7.26985 2.07201 8.62258 2.02674C10.4338 1.96612 12.195 2.62665 13.5196 3.86331C14.8443 5.09997 15.6241 6.81171 15.6879 8.62278Z" fill="#20446C"/>
</g>
<path d="M15.8926 8.90187C15.939 10.2357 15.5889 11.5534 14.8865 12.6882C14.1841 13.8231 13.161 14.7242 11.9465 15.2777C10.7321 15.8311 9.38075 16.0121 8.06345 15.7976C6.74615 15.5831 5.52204 14.9828 4.54587 14.0727C3.5697 13.1625 2.88532 11.9833 2.57926 10.6843C2.2732 9.38518 2.35919 8.02452 2.82638 6.77431C3.29357 5.5241 4.12098 4.4405 5.20397 3.6605C6.28697 2.88049 7.57692 2.43913 8.91074 2.3922C10.6997 2.33002 12.4401 2.98083 13.7494 4.20154C15.0586 5.42225 15.8295 7.11293 15.8926 8.90187Z" fill="#F0792E"/>
<path d="M10.9501 7.27136C11.1804 7.27136 11.3671 7.08733 11.3671 6.86026C11.3671 6.63335 11.1804 6.44915 10.9501 6.44915H7.64758C7.41726 6.44915 7.23059 6.63335 7.23059 6.86026C7.23059 7.08733 7.41726 7.27136 7.64758 7.27136H8.59411C8.98553 7.27072 9.34111 7.49586 9.50318 7.8469H7.65166C7.4215 7.8469 7.23467 8.03109 7.23467 8.258C7.23467 8.48507 7.4215 8.66911 7.65166 8.66911H9.50318C9.33964 9.01919 8.98488 9.24369 8.59411 9.24465H7.64758C7.47655 9.24481 7.32279 9.34775 7.25943 9.50432C7.19606 9.66089 7.23581 9.83979 7.35976 9.95589L9.71998 12.1553C9.79801 12.2272 9.90095 12.2669 10.0076 12.2663C10.1223 12.2656 10.2319 12.2197 10.3121 12.1389C10.388 12.0599 10.4289 11.9544 10.4258 11.8457C10.4227 11.737 10.3758 11.6339 10.2955 11.5592L8.69413 10.0669C9.50644 10.0206 10.1915 9.45389 10.3789 8.67328H10.9501C11.1804 8.67328 11.3671 8.48925 11.3671 8.26218C11.3671 8.03511 11.1804 7.85108 10.9501 7.85108H10.3789C10.3303 7.64633 10.2456 7.45138 10.1287 7.27553H10.9501V7.27136Z" fill="white"/>
<g opacity="0.2">
<path opacity="0.2" d="M15.8926 8.90187C15.939 10.2357 15.5889 11.5534 14.8865 12.6882C14.1841 13.8231 13.161 14.7242 11.9465 15.2777C10.7321 15.8311 9.38075 16.0121 8.06345 15.7976C6.74615 15.5831 5.52204 14.9828 4.54587 14.0727C3.5697 13.1625 2.88532 11.9833 2.57926 10.6843C2.2732 9.38518 2.35919 8.02452 2.82638 6.77431C3.29357 5.5241 4.12098 4.4405 5.20397 3.6605C6.28697 2.88049 7.57692 2.43913 8.91074 2.3922C10.6997 2.33002 12.4401 2.98083 13.7494 4.20154C15.0586 5.42225 15.8295 7.11293 15.8926 8.90187Z" fill="white"/>
</g>
<path d="M9.26191 15.953H9.31662L9.47784 15.9386L9.74273 15.9127C9.86269 15.9044 9.98196 15.888 10.0997 15.8637L10.546 15.7774C10.6301 15.7617 10.7129 15.7395 10.7936 15.7111L11.0614 15.6305C11.1588 15.6057 11.2549 15.5759 11.3493 15.5413L11.6372 15.4203C11.7379 15.3772 11.8445 15.3397 11.9452 15.2879L12.2619 15.1209C12.7274 14.8694 13.163 14.5661 13.5604 14.2169L13.8742 13.9146L14.0326 13.7591C14.0815 13.7015 14.1276 13.6439 14.1794 13.5864C14.2744 13.4683 14.381 13.356 14.4673 13.2293L14.738 12.8407L14.8071 12.7399C14.8301 12.7082 14.8474 12.6708 14.8675 12.6362L14.9884 12.4232L15.1094 12.2073C15.1526 12.1353 15.1785 12.0547 15.2159 11.9798C15.2821 11.8243 15.3541 11.6717 15.4146 11.5134L15.5787 11.0211C15.7722 10.3269 15.8624 9.60807 15.8464 8.88764C15.813 8.16733 15.6723 7.45604 15.429 6.77726C15.3627 6.61602 15.2994 6.45479 15.2332 6.29644C15.167 6.13809 15.0777 5.99414 15 5.84443C14.9636 5.76938 14.9232 5.69633 14.879 5.62561L14.7437 5.41831L14.6084 5.2139C14.5854 5.17935 14.5652 5.1448 14.5422 5.11313L14.4644 5.01812L14.1765 4.64959C14.0729 4.53155 13.9606 4.42502 13.857 4.31561L13.6986 4.15438C13.6439 4.10256 13.5863 4.0565 13.5287 4.00755L13.1976 3.71964C12.7756 3.39877 12.3188 3.12641 11.8358 2.90773L11.5105 2.76377C11.404 2.71771 11.2946 2.6918 11.1938 2.65437L10.8886 2.5536C10.7936 2.51905 10.6928 2.50753 10.6007 2.48162L10.3272 2.42116C10.244 2.39936 10.1593 2.38396 10.0738 2.3751L9.62468 2.32039C9.50547 2.30366 9.38517 2.29596 9.26479 2.29736H8.99991H8.8358H9.26479C9.38502 2.29377 9.50535 2.29954 9.62468 2.31463L10.0767 2.36358C10.1629 2.37259 10.2485 2.38702 10.3329 2.40677L10.6208 2.46723C10.713 2.49026 10.8137 2.50178 10.9088 2.53633L11.2139 2.63421C11.3176 2.66876 11.4299 2.69756 11.5364 2.74362L11.8646 2.8847C12.3516 3.10314 12.8131 3.37445 13.2408 3.69373L13.5748 3.98164L13.7476 4.12847L13.9059 4.2897C14.0124 4.40199 14.1276 4.50852 14.2312 4.62656L14.5191 4.99797L14.5969 5.09298L14.666 5.19374L14.8013 5.40104L14.9395 5.60834C14.9884 5.67744 15.0201 5.75805 15.0633 5.83003C15.141 5.97974 15.2245 6.11794 15.2994 6.28493C15.3742 6.45192 15.4289 6.60739 15.4952 6.7715C16.0083 8.14552 16.0609 9.64912 15.6449 11.0556L15.4837 11.5537C15.4203 11.7149 15.3455 11.8675 15.2792 12.023C15.2418 12.1007 15.2159 12.1813 15.1727 12.2533C15.1295 12.3253 15.0892 12.3973 15.0489 12.4693L14.928 12.6852C14.9078 12.7197 14.8877 12.7572 14.8646 12.7917L14.7955 12.8925L14.5076 13.284C14.4126 13.4107 14.3061 13.523 14.2197 13.6411L14.07 13.8138L13.9117 13.9722L13.595 14.2773C13.1916 14.627 12.7503 14.9303 12.2792 15.1814L11.9625 15.3455C11.8589 15.3973 11.7523 15.4319 11.6487 15.4751L11.3608 15.596C11.2664 15.6306 11.1703 15.6603 11.0729 15.6852L10.8022 15.763C10.7205 15.7905 10.6367 15.8116 10.5518 15.8263L10.1055 15.9069C9.9868 15.93 9.86645 15.9435 9.7456 15.9472L9.48073 15.9674H9.31662L9.26191 15.953Z" fill="#263238"/>
<path d="M1.4903 13.4883C1.4733 13.467 1.45881 13.4438 1.44712 13.4192L1.32908 13.2177C1.28013 13.1313 1.21967 13.0219 1.15921 12.8895C1.09875 12.757 1.02101 12.6159 0.957671 12.4461L0.851147 12.1841C0.813719 12.0919 0.784926 11.9941 0.750377 11.8962C0.675521 11.6946 0.620821 11.4758 0.554602 11.2426C0.432067 10.7382 0.348331 10.2252 0.304123 9.70804C0.269997 9.18912 0.276738 8.66831 0.324279 8.15044C0.35307 7.91436 0.376098 7.68691 0.419285 7.47961C0.439438 7.37308 0.453837 7.27231 0.47687 7.17443C0.499902 7.07654 0.522929 6.98728 0.543083 6.88651C0.58339 6.70801 0.635214 6.55254 0.6784 6.41434C0.711105 6.29607 0.750517 6.17976 0.796444 6.06597L0.882812 5.85003C0.889776 5.82371 0.900443 5.79851 0.914487 5.77518C0.91083 5.80272 0.904067 5.82977 0.894331 5.85579L0.822354 6.0746C0.787805 6.16961 0.750376 6.28766 0.712948 6.42586C0.67552 6.56405 0.626577 6.71377 0.589149 6.89515C0.569956 6.98536 0.549804 7.08133 0.528691 7.18306C0.505659 7.27807 0.494141 7.38172 0.473988 7.48537C0.433681 7.69267 0.413531 7.91723 0.387619 8.15332C0.342137 8.6675 0.337318 9.18447 0.373218 9.69941C0.414665 10.2135 0.495515 10.7236 0.61506 11.2253C0.6784 11.4557 0.733101 11.6745 0.802198 11.876C0.836747 11.9739 0.865546 12.0747 0.900095 12.1639L1.00086 12.4288C1.0642 12.5987 1.13618 12.7426 1.19376 12.8751C1.25134 13.0075 1.30604 13.1169 1.3521 13.2062L1.45863 13.4135C1.47324 13.4365 1.48394 13.4618 1.4903 13.4883Z" fill="white"/>
<path d="M9.22264 1.82776C9.14989 1.83527 9.07657 1.83527 9.00382 1.82776H8.74471C8.64682 1.82776 8.53165 1.82776 8.40497 1.82776C8.27829 1.82776 8.14298 1.84215 7.99326 1.85943C7.84355 1.8767 7.69096 1.89685 7.52685 1.92277C6.81361 2.04568 6.12331 2.27675 5.4798 2.608C5.33297 2.68861 5.19189 2.76059 5.06809 2.8412C4.9483 2.90918 4.83203 2.98317 4.71972 3.06289C4.6132 3.13199 4.52394 3.20109 4.43181 3.26155C4.33968 3.32201 4.28498 3.37384 4.23027 3.4199C4.17551 3.46885 4.11677 3.51315 4.05465 3.55234C4.10396 3.49799 4.15686 3.44702 4.213 3.39975C4.26482 3.3508 4.33104 3.29322 4.40878 3.23276C4.48651 3.1723 4.57577 3.09456 4.68229 3.02259C4.78882 2.95061 4.89822 2.86999 5.02778 2.79226C5.15734 2.71452 5.29267 2.63391 5.4395 2.55329C5.76288 2.38461 6.09881 2.24118 6.4443 2.1243C6.78993 2.00888 7.14423 1.92127 7.50381 1.86231C7.6708 1.83928 7.82915 1.81336 7.97886 1.80472C8.12858 1.79609 8.26677 1.78457 8.39346 1.78169C8.52014 1.77881 8.6353 1.78169 8.73607 1.78169C8.83684 1.78169 8.92322 1.78169 8.99231 1.79897C9.0697 1.80281 9.14669 1.81243 9.22264 1.82776Z" fill="white"/>
<path d="M10.392 17.4904C10.3416 17.5137 10.2884 17.5301 10.2336 17.5394C10.13 17.5682 9.9774 17.5998 9.79025 17.6315C8.80047 17.7954 7.78612 17.7264 6.82764 17.43C6.64626 17.3753 6.49943 17.3206 6.40154 17.2803C6.34949 17.2622 6.29934 17.239 6.25182 17.2112C6.30609 17.2194 6.35923 17.2339 6.41018 17.2543C6.51095 17.2889 6.65778 17.335 6.84204 17.3868C7.79792 17.6538 8.7985 17.7215 9.78162 17.5854C9.97164 17.5595 10.1242 17.5336 10.2279 17.5135C10.2813 17.4986 10.3365 17.4908 10.392 17.4904Z" fill="white"/>
</svg>
