<svg width="60" height="37" viewBox="0 0 60 37" fill="none" xmlns="http://www.w3.org/2000/svg">
<path d="M59.993 2.70236L59.3198 31.203L59.212 35.6157C59.2109 35.8933 59.1001 36.1592 58.9037 36.3554C58.7074 36.5517 58.4415 36.6622 58.1639 36.6631H1.51884C1.24131 36.6622 0.975378 36.5517 0.779035 36.3554C0.582692 36.1592 0.471868 35.8933 0.470731 35.6157L0.407178 31.203L0 3.05041C0 2.47499 0.678629 1.35001 1.92171 1.43406L57.2893 0.000889357C57.6467 -0.00839114 58.0024 0.0550423 58.3346 0.18734C58.6669 0.319638 58.9688 0.518046 59.2221 0.77054C59.4754 1.02303 59.6748 1.32435 59.8083 1.65623C59.9417 1.98812 60.0064 2.34365 59.9984 2.70128L59.993 2.70236Z" fill="#F0792E"/>
</svg>
