<svg width="4" height="4" viewBox="0 0 4 4" fill="none" xmlns="http://www.w3.org/2000/svg">
<path opacity="0.8" d="M2.16222 0.000944145C1.05613 0.0347297 0.0779133 0.946944 0.00433542 2.04136C-0.0692424 3.13577 0.802835 3.9792 1.9258 3.89715C3.02103 3.81631 3.94015 2.88961 3.99684 1.83623C4.05353 0.782842 3.24055 -0.0316348 2.16222 0.000944145ZM1.98973 2.84859C1.87233 2.86057 1.75373 2.84664 1.64229 2.8078C1.53085 2.76895 1.42928 2.70612 1.34475 2.62375C1.26021 2.54137 1.19477 2.44145 1.15303 2.33102C1.11129 2.2206 1.09428 2.10236 1.10318 1.98464C1.12739 1.73253 1.2413 1.49751 1.42415 1.32234C1.60701 1.14716 1.84666 1.0435 2.09949 1.0302C2.21493 1.02128 2.33093 1.03732 2.43963 1.07722C2.54832 1.11712 2.64716 1.17995 2.72943 1.26145C2.8117 1.34295 2.87547 1.4412 2.91642 1.54954C2.95737 1.65787 2.97453 1.77376 2.96675 1.88932C2.9442 2.1392 2.83353 2.3729 2.65454 2.54864C2.47554 2.72438 2.23989 2.8307 1.98973 2.84859Z" fill="white"/>
</svg>
