<svg width="24" height="22" viewBox="0 0 24 22" fill="none" xmlns="http://www.w3.org/2000/svg">
<path d="M19.6255 4.27775C14.7451 0.9724 9.48537 0.8883 4.46174 4.21916C4.14753 4.42751 4.07783 4.82896 4.30597 5.11584C4.53411 5.40268 4.97375 5.46641 5.28805 5.25806C9.82774 2.24815 14.4156 2.34783 18.7877 5.30895C19.0996 5.52016 19.5399 5.46059 19.7713 5.1758C20.0026 4.89106 19.9373 4.48897 19.6255 4.27775Z" fill="#F0792E"/>
<path d="M12.0002 4.49396C9.01314 4.49396 5.17301 6.30987 3.54022 8.54615C3.32478 8.84117 3.41211 9.23975 3.73522 9.43641C4.05837 9.63299 4.49492 9.55338 4.71026 9.25833C6.06396 7.40428 9.4705 5.77793 12.0002 5.77793C14.4773 5.77793 17.8652 6.98455 19.2647 9.22075C19.3945 9.42815 19.6318 9.54435 19.8758 9.54435C20.4064 9.54435 20.7563 9.01617 20.4857 8.58378C18.8737 6.00801 15.0886 4.49396 12.0002 4.49396Z" fill="#F0792E"/>
<path d="M8.20352 15.0652C8.20352 12.9648 9.90681 11.2561 12.0004 11.2561C14.094 11.2561 15.7973 12.9648 15.7973 15.0652V15.75C15.7973 16.1045 16.1121 16.3919 16.5004 16.3919C16.8887 16.3919 17.2035 16.1045 17.2035 15.75V15.0652C17.2035 12.2568 14.8694 9.97211 12.0004 9.97211C9.13136 9.97211 6.79727 12.2568 6.79727 15.0652C6.79727 17.795 9.0452 19.2574 10.0377 20.5665C10.1742 20.7465 10.3935 20.8431 10.6165 20.8431C11.1763 20.8431 11.5189 20.2641 11.1939 19.8356C10.1198 18.419 8.20352 17.2443 8.20352 15.0652Z" fill="#F0792E"/>
<path d="M19.7534 17.4065C21.9264 13.4385 18.0622 7.23291 11.9995 7.23291C7.73111 7.23291 3.79638 10.536 3.79638 14.7227C3.79638 16.2427 4.00994 17.5283 5.05216 18.8619C5.27772 19.1505 5.7168 19.2175 6.03292 19.0116C6.349 18.8056 6.42245 18.4047 6.19685 18.1161C5.46283 17.1769 5.20263 16.2889 5.20263 14.7227C5.20263 11.4168 8.37873 8.51687 11.9995 8.51687C13.8223 8.51687 15.6224 9.25092 16.9384 10.5308C18.8013 12.3426 19.4707 15.0517 18.4956 16.8323C17.4805 18.6858 14.2026 18.1604 14.2026 15.7499C14.2026 10.9887 8.86098 12.4127 9.81737 15.9056C9.9115 16.2496 10.2933 16.4586 10.67 16.3727C11.0467 16.2867 11.2758 15.9382 11.1816 15.5942C10.936 14.6971 11.3865 13.9951 11.9995 13.9951C12.5499 13.9951 12.7964 14.8764 12.7964 15.7499C12.7964 19.509 18.0704 20.4799 19.7534 17.4065Z" fill="#F0792E"/>
</svg>
