<svg width="39" height="39" viewBox="0 0 39 39" fill="none" xmlns="http://www.w3.org/2000/svg">
<circle cx="19.5" cy="19.5" r="19.5" fill="#FFEEE3"/>
<g clip-path="url(#clip0_834_44929)">
<path d="M19.6099 11.0107C20.0109 11.0107 20.3359 11.3187 20.3359 11.6987C20.3359 12.0786 20.0109 12.3866 19.6099 12.3866C17.2076 12.3866 15.2531 14.2382 15.2531 16.5141C15.2531 16.894 14.9281 17.202 14.5271 17.202C14.1261 17.202 13.8011 16.894 13.8011 16.5141C13.8011 13.4795 16.4069 11.0107 19.6099 11.0107Z" fill="#F0792E"/>
<path d="M21.48 8.44502C24.7602 9.09446 27.4198 11.5904 28.1196 14.7177C28.7106 17.3585 27.9824 20.0097 26.1218 21.9916C25.2123 22.9603 24.6907 24.239 24.6907 25.5035V26.8793C24.6907 27.7947 24.0582 28.5724 23.1858 28.8417C22.8988 30.448 21.4275 31.7405 19.6086 31.7405C17.7902 31.7405 16.3184 30.4484 16.0314 28.8417C15.1589 28.5724 14.5265 27.7947 14.5265 26.8793V25.5034C14.5265 24.2365 14.0032 22.9731 13.0531 21.946C11.6623 20.4427 10.8964 18.5138 10.8964 16.5147C10.8964 11.3065 15.9277 7.34592 21.48 8.44502ZM19.6086 30.3647C20.5419 30.3647 21.3601 29.7563 21.6623 28.9385H17.5549C17.8571 29.7563 18.6753 30.3647 19.6086 30.3647ZM15.9785 26.8793C15.9785 27.2586 16.3042 27.5672 16.7045 27.5672H22.5127C22.913 27.5672 23.2387 27.2586 23.2387 26.8793V26.1914H15.9785V26.8793ZM14.145 21.0392C15.1575 22.1338 15.7805 23.4537 15.9386 24.8156H23.2785C23.4363 23.4529 24.0577 22.1201 25.0368 21.0772C26.5874 19.4254 27.1934 17.2115 26.6992 15.0031C26.1223 12.4251 23.9055 10.3308 21.183 9.79182C16.5353 8.87153 12.3484 12.1787 12.3484 16.5147C12.3484 18.18 12.9865 19.7869 14.145 21.0392Z" fill="#F0792E"/>
<path d="M29.822 16.5142H31.274C31.6749 16.5142 32 16.8222 32 17.2021C32 17.582 31.6749 17.89 31.274 17.89H29.822C29.421 17.89 29.0959 17.582 29.0959 17.2021C29.0959 16.8222 29.421 16.5142 29.822 16.5142Z" fill="#F0792E"/>
<path d="M29.521 13.0747L30.5477 12.1019C30.8312 11.8332 31.2909 11.8332 31.5745 12.1019C31.858 12.3705 31.858 12.8061 31.5745 13.0747L30.5477 14.0476C30.2642 14.3162 29.8045 14.3163 29.521 14.0476C29.2375 13.7789 29.2375 13.3434 29.521 13.0747Z" fill="#F0792E"/>
<path d="M29.521 20.3568C29.8045 20.0881 30.2642 20.0881 30.5477 20.3568L31.5745 21.3296C31.858 21.5983 31.858 22.0338 31.5745 22.3025C31.291 22.5711 30.8313 22.5712 30.5477 22.3025L29.521 21.3296C29.2375 21.061 29.2375 20.6254 29.521 20.3568Z" fill="#F0792E"/>
<path d="M7.94501 16.5142H9.39703C9.79799 16.5142 10.123 16.8222 10.123 17.2021C10.123 17.582 9.79799 17.89 9.39703 17.89H7.94501C7.54405 17.89 7.21899 17.582 7.21899 17.2021C7.21899 16.8222 7.54405 16.5142 7.94501 16.5142Z" fill="#F0792E"/>
<path d="M7.64404 12.1019C7.92752 11.8332 8.38724 11.8332 8.67077 12.1019L9.69751 13.0747C9.98104 13.3434 9.98104 13.7789 9.69751 14.0476C9.41402 14.3162 8.95431 14.3162 8.67077 14.0476L7.64404 13.0747C7.36051 12.8061 7.36051 12.3705 7.64404 12.1019Z" fill="#F0792E"/>
<path d="M7.64404 21.3296L8.67077 20.3568C8.95426 20.0881 9.41397 20.0881 9.69751 20.3568C9.98104 20.6254 9.98104 21.061 9.69751 21.3296L8.67077 22.3025C8.38729 22.5711 7.92757 22.5711 7.64404 22.3025C7.36051 22.0338 7.36051 21.5983 7.64404 21.3296Z" fill="#F0792E"/>
</g>
<defs>
<clipPath id="clip0_834_44929">
<rect width="24.7813" height="23.4808" fill="white" transform="matrix(-1 0 0 1 32 8.25977)"/>
</clipPath>
</defs>
</svg>
