<svg width="29" height="29" viewBox="0 0 29 29" fill="none" xmlns="http://www.w3.org/2000/svg">
<g clip-path="url(#clip0_834_51500)">
<path fill-rule="evenodd" clip-rule="evenodd" d="M2.43481 4.98413C2.43481 5.42402 2.07819 5.78064 1.63831 5.78064C1.19831 5.78064 0.841797 5.42402 0.841797 4.98413V1.63879C0.841797 1.1988 1.19831 0.842285 1.63831 0.842285H4.98343C5.42342 0.842285 5.77994 1.1988 5.77994 1.63879C5.77994 2.07868 5.42342 2.4353 4.98343 2.4353H2.43481V4.98413ZM13.4266 22.0825C12.9866 22.0825 12.6301 21.7259 12.6301 21.286C12.6301 20.846 12.9866 20.4895 13.4266 20.4895H14.1169C14.5568 20.4895 14.9135 20.846 14.9135 21.286C14.9135 21.7259 14.5568 22.0825 14.1169 22.0825H13.4266ZM14.0107 11.4624C14.0107 11.9023 13.6541 12.2589 13.2142 12.2589C12.7742 12.2589 12.4177 11.9023 12.4177 11.4624V10.7721C12.4177 10.3321 12.7742 9.97559 13.2142 9.97559C13.6541 9.97559 14.0107 10.3321 14.0107 10.7721V11.4624ZM18.896 20.3833C18.456 20.3833 18.0995 20.0267 18.0995 19.5868C18.0995 19.1468 18.456 18.7903 18.896 18.7903H19.5863C20.0262 18.7903 20.3828 19.1468 20.3828 19.5868C20.3828 20.0267 20.0262 20.3833 19.5863 20.3833H18.896ZM2.46136 15.2325H6.16779C6.15717 15.2841 6.15186 15.3373 6.15186 15.3918V17.7814C6.15186 18.2213 6.50837 18.5779 6.94837 18.5779C7.38825 18.5779 7.74487 18.2213 7.74487 17.7814V15.3918C7.74487 15.3373 7.73956 15.2841 7.72894 15.2325H14.7542V16.1353H10.5592C10.1192 16.1353 9.7627 16.4918 9.7627 16.9318C9.7627 17.3716 10.1192 17.7283 10.5592 17.7283H15.5507C15.9905 17.7283 16.3472 17.3716 16.3472 16.9318V15.2325H19.3208V17.569C19.3208 18.0089 19.6773 18.3655 20.1173 18.3655C20.5572 18.3655 20.9138 18.0089 20.9138 17.569V15.2325H26.4097C26.8496 15.2325 27.2062 14.8759 27.2062 14.436C27.2062 13.996 26.8496 13.6395 26.4097 13.6395H22.7723V12.0996H23.5689C24.0087 12.0996 24.3654 11.743 24.3654 11.3031C24.3654 10.8631 24.0087 10.5066 23.5689 10.5066H19.5863C19.1463 10.5066 18.7898 10.8631 18.7898 11.3031C18.7898 11.743 19.1463 12.0996 19.5863 12.0996H21.1793V13.6395H16.3472V11.5686C16.3472 11.1286 15.9905 10.7721 15.5507 10.7721C15.1107 10.7721 14.7542 11.1286 14.7542 11.5686V13.6395H2.46136C2.02137 13.6395 1.66486 13.996 1.66486 14.436C1.66486 14.8759 2.02137 15.2325 2.46136 15.2325ZM16.241 5.46204C16.241 5.02204 16.5975 4.66553 17.0375 4.66553C17.4774 4.66553 17.834 5.02204 17.834 5.46204V9.65698C17.834 10.0969 17.4774 10.4535 17.0375 10.4535C16.5975 10.4535 16.241 10.0969 16.241 9.65698V5.46204ZM11.515 5.78064H13.3204V5.46204C13.3204 5.02204 13.677 4.66553 14.1169 4.66553C14.5568 4.66553 14.9135 5.02204 14.9135 5.46204V8.11707C14.9135 8.55695 14.5568 8.91357 14.1169 8.91357C13.677 8.91357 13.3204 8.55695 13.3204 8.11707V7.37366H11.515V7.74536C11.515 8.18525 11.1584 8.54187 10.7185 8.54187C10.2785 8.54187 9.922 8.18525 9.922 7.74536V5.46204C9.922 5.02204 10.2785 4.66553 10.7185 4.66553C11.1584 4.66553 11.515 5.02204 11.515 5.46204V5.78064ZM5.14273 12.0465C4.70295 12.0465 4.34622 11.6899 4.34622 11.25C4.34622 10.81 4.70295 10.4535 5.14273 10.4535H11.0371C11.477 10.4535 11.8336 10.81 11.8336 11.25C11.8336 11.6899 11.477 12.0465 11.0371 12.0465H5.14273ZM22.5068 22.6135V23.41C22.5068 23.8499 22.8634 24.2065 23.3033 24.2065C23.7432 24.2065 24.0999 23.8499 24.0999 23.41V18.631C24.0999 18.1913 23.7432 17.8345 23.3033 17.8345C22.8634 17.8345 22.5068 18.1913 22.5068 18.631V21.0205H19.8518C19.4118 21.0205 19.0553 21.3773 19.0553 21.817C19.0553 22.2569 19.4118 22.6135 19.8518 22.6135H22.5068ZM14.3824 24.2065H16.772C17.2119 24.2065 17.5685 23.8499 17.5685 23.41V19.3213C17.5685 18.8813 17.2119 18.5248 16.772 18.5248C16.332 18.5248 15.9755 18.8813 15.9755 19.3213V22.6135H14.3824C13.9425 22.6135 13.5859 22.97 13.5859 23.41C13.5859 23.8499 13.9425 24.2065 14.3824 24.2065ZM9.9751 19.3744C9.9751 18.9344 10.3316 18.5779 10.7716 18.5779C11.2115 18.5779 11.5681 18.9344 11.5681 19.3744V21.7108C11.5681 22.1507 11.2115 22.5073 10.7716 22.5073C10.3316 22.5073 9.9751 22.1507 9.9751 21.7108V19.3744ZM5.14294 19.2682H8.48828C8.92817 19.2682 9.28479 19.6247 9.28479 20.0647V23.41C9.28479 23.8499 8.92817 24.2065 8.48828 24.2065H5.14294C4.70295 24.2065 4.34644 23.8499 4.34644 23.41V20.0647C4.34644 19.6247 4.70295 19.2682 5.14294 19.2682ZM7.69177 20.8612H5.93945V22.6135H7.69177V20.8612ZM20.3828 4.66553H23.7282C24.168 4.66553 24.5247 5.02204 24.5247 5.46204V8.80737C24.5247 9.24726 24.168 9.60388 23.7282 9.60388H20.3828C19.9428 9.60388 19.5863 9.24726 19.5863 8.80737V5.46204C19.5863 5.02204 19.9428 4.66553 20.3828 4.66553ZM22.9316 6.25854H21.1793V8.01086H22.9316V6.25854ZM5.14294 4.66553C4.70295 4.66553 4.34644 5.02204 4.34644 5.46204V8.80737C4.34644 9.24726 4.70295 9.60388 5.14294 9.60388H8.48828C8.92817 9.60388 9.28479 9.24726 9.28479 8.80737V5.46204C9.28479 5.02204 8.92817 4.66553 8.48828 4.66553H5.14294ZM7.69177 6.25854V8.01086H5.93945V6.25854H7.69177ZM26.4363 23.8879C26.4363 23.4479 26.7928 23.0914 27.2328 23.0914C27.6727 23.0914 28.0293 23.4479 28.0293 23.8879V27.2333C28.0293 27.6732 27.6727 28.0298 27.2328 28.0298H23.8876C23.4478 28.0298 23.0911 27.6732 23.0911 27.2333C23.0911 26.7933 23.4478 26.4368 23.8876 26.4368H26.4363V23.8879ZM0.841797 23.8879V27.2333C0.841797 27.6732 1.19831 28.0298 1.63831 28.0298H4.98343C5.42342 28.0298 5.77994 27.6732 5.77994 27.2333C5.77994 26.7933 5.42342 26.4368 4.98343 26.4368H2.43481V23.8879C2.43481 23.4479 2.07819 23.0914 1.63831 23.0914C1.19831 23.0914 0.841797 23.4479 0.841797 23.8879ZM28.0293 4.98413V1.63879C28.0293 1.1988 27.6727 0.842285 27.2328 0.842285H23.8876C23.4478 0.842285 23.0911 1.1988 23.0911 1.63879C23.0911 2.07868 23.4478 2.4353 23.8876 2.4353H26.4363V4.98413C26.4363 5.42402 26.7928 5.78064 27.2328 5.78064C27.6727 5.78064 28.0293 5.42402 28.0293 4.98413Z" fill="#20446C"/>
<mask id="mask0_834_51500" style="mask-type:alpha" maskUnits="userSpaceOnUse" x="0" y="1" width="29" height="28">
<path fill-rule="evenodd" clip-rule="evenodd" d="M2.43481 5.14185C2.43481 5.58173 2.07819 5.93835 1.63831 5.93835C1.19831 5.93835 0.841797 5.58173 0.841797 5.14185V1.79651C0.841797 1.35652 1.19831 1 1.63831 1H4.98343C5.42342 1 5.77994 1.35652 5.77994 1.79651C5.77994 2.23639 5.42342 2.59302 4.98343 2.59302H2.43481V5.14185ZM13.4266 22.2402C12.9866 22.2402 12.6301 21.8836 12.6301 21.4437C12.6301 21.0037 12.9866 20.6472 13.4266 20.6472H14.1169C14.5568 20.6472 14.9135 21.0037 14.9135 21.4437C14.9135 21.8836 14.5568 22.2402 14.1169 22.2402H13.4266ZM14.0107 11.6201C14.0107 12.06 13.6541 12.4166 13.2142 12.4166C12.7742 12.4166 12.4177 12.06 12.4177 11.6201V10.9298C12.4177 10.4898 12.7742 10.1333 13.2142 10.1333C13.6541 10.1333 14.0107 10.4898 14.0107 10.9298V11.6201ZM18.896 20.541C18.456 20.541 18.0995 20.1844 18.0995 19.7445C18.0995 19.3045 18.456 18.948 18.896 18.948H19.5863C20.0262 18.948 20.3828 19.3045 20.3828 19.7445C20.3828 20.1844 20.0262 20.541 19.5863 20.541H18.896ZM2.46136 15.3903H6.16779C6.15717 15.4418 6.15186 15.495 6.15186 15.5496V17.9391C6.15186 18.379 6.50837 18.7356 6.94837 18.7356C7.38825 18.7356 7.74487 18.379 7.74487 17.9391V15.5496C7.74487 15.495 7.73956 15.4418 7.72894 15.3903H14.7542V16.293H10.5592C10.1192 16.293 9.7627 16.6495 9.7627 17.0895C9.7627 17.5294 10.1192 17.886 10.5592 17.886H15.5507C15.9905 17.886 16.3472 17.5294 16.3472 17.0895V15.3903H19.3208V17.7267C19.3208 18.1666 19.6773 18.5232 20.1173 18.5232C20.5572 18.5232 20.9138 18.1666 20.9138 17.7267V15.3903H26.4097C26.8496 15.3903 27.2062 15.0336 27.2062 14.5938C27.2062 14.1538 26.8496 13.7972 26.4097 13.7972H22.7723V12.2573H23.5689C24.0087 12.2573 24.3654 11.9007 24.3654 11.4608C24.3654 11.0208 24.0087 10.6643 23.5689 10.6643H19.5863C19.1463 10.6643 18.7898 11.0208 18.7898 11.4608C18.7898 11.9007 19.1463 12.2573 19.5863 12.2573H21.1793V13.7972H16.3472V11.7263C16.3472 11.2863 15.9905 10.9298 15.5507 10.9298C15.1107 10.9298 14.7542 11.2863 14.7542 11.7263V13.7972H2.46136C2.02137 13.7972 1.66486 14.1538 1.66486 14.5938C1.66486 15.0336 2.02137 15.3903 2.46136 15.3903ZM16.241 5.61975C16.241 5.17976 16.5975 4.82324 17.0375 4.82324C17.4774 4.82324 17.834 5.17976 17.834 5.61975V9.8147C17.834 10.2546 17.4774 10.6112 17.0375 10.6112C16.5975 10.6112 16.241 10.2546 16.241 9.8147V5.61975ZM11.515 5.93835H13.3204V5.61975C13.3204 5.17976 13.677 4.82324 14.1169 4.82324C14.5568 4.82324 14.9135 5.17976 14.9135 5.61975V8.27478C14.9135 8.71467 14.5568 9.07129 14.1169 9.07129C13.677 9.07129 13.3204 8.71467 13.3204 8.27478V7.53137H11.515V7.90308C11.515 8.34296 11.1584 8.69958 10.7185 8.69958C10.2785 8.69958 9.922 8.34296 9.922 7.90308V5.61975C9.922 5.17976 10.2785 4.82324 10.7185 4.82324C11.1584 4.82324 11.515 5.17976 11.515 5.61975V5.93835ZM5.14273 12.2042C4.70295 12.2042 4.34622 11.8476 4.34622 11.4077C4.34622 10.9677 4.70295 10.6112 5.14273 10.6112H11.0371C11.477 10.6112 11.8336 10.9677 11.8336 11.4077C11.8336 11.8476 11.477 12.2042 11.0371 12.2042H5.14273ZM22.5068 22.7712V23.5677C22.5068 24.0076 22.8634 24.3643 23.3033 24.3643C23.7432 24.3643 24.0999 24.0076 24.0999 23.5677V18.7887C24.0999 18.349 23.7432 17.9922 23.3033 17.9922C22.8634 17.9922 22.5068 18.349 22.5068 18.7887V21.1782H19.8518C19.4118 21.1782 19.0553 21.5351 19.0553 21.9747C19.0553 22.4146 19.4118 22.7712 19.8518 22.7712H22.5068ZM14.3824 24.3643H16.772C17.2119 24.3643 17.5685 24.0076 17.5685 23.5677V19.479C17.5685 19.039 17.2119 18.6825 16.772 18.6825C16.332 18.6825 15.9755 19.039 15.9755 19.479V22.7712H14.3824C13.9425 22.7712 13.5859 23.1278 13.5859 23.5677C13.5859 24.0076 13.9425 24.3643 14.3824 24.3643ZM9.9751 19.5321C9.9751 19.0921 10.3316 18.7356 10.7716 18.7356C11.2115 18.7356 11.5681 19.0921 11.5681 19.5321V21.8685C11.5681 22.3084 11.2115 22.665 10.7716 22.665C10.3316 22.665 9.9751 22.3084 9.9751 21.8685V19.5321ZM5.14294 19.4259H8.48828C8.92817 19.4259 9.28479 19.7824 9.28479 20.2224V23.5677C9.28479 24.0076 8.92817 24.3643 8.48828 24.3643H5.14294C4.70295 24.3643 4.34644 24.0076 4.34644 23.5677V20.2224C4.34644 19.7824 4.70295 19.4259 5.14294 19.4259ZM7.69177 21.0189H5.93945V22.7712H7.69177V21.0189ZM20.3828 4.82324H23.7282C24.168 4.82324 24.5247 5.17976 24.5247 5.61975V8.96509C24.5247 9.40497 24.168 9.7616 23.7282 9.7616H20.3828C19.9428 9.7616 19.5863 9.40497 19.5863 8.96509V5.61975C19.5863 5.17976 19.9428 4.82324 20.3828 4.82324ZM22.9316 6.41626H21.1793V8.16858H22.9316V6.41626ZM5.14294 4.82324C4.70295 4.82324 4.34644 5.17976 4.34644 5.61975V8.96509C4.34644 9.40497 4.70295 9.7616 5.14294 9.7616H8.48828C8.92817 9.7616 9.28479 9.40497 9.28479 8.96509V5.61975C9.28479 5.17976 8.92817 4.82324 8.48828 4.82324H5.14294ZM7.69177 6.41626V8.16858H5.93945V6.41626H7.69177ZM26.4363 24.0457C26.4363 23.6057 26.7928 23.2491 27.2328 23.2491C27.6727 23.2491 28.0293 23.6057 28.0293 24.0457V27.391C28.0293 27.8309 27.6727 28.1875 27.2328 28.1875H23.8876C23.4478 28.1875 23.0911 27.8309 23.0911 27.391C23.0911 26.951 23.4478 26.5945 23.8876 26.5945H26.4363V24.0457ZM0.841797 24.0457V27.391C0.841797 27.8309 1.19831 28.1875 1.63831 28.1875H4.98343C5.42342 28.1875 5.77994 27.8309 5.77994 27.391C5.77994 26.951 5.42342 26.5945 4.98343 26.5945H2.43481V24.0457C2.43481 23.6057 2.07819 23.2491 1.63831 23.2491C1.19831 23.2491 0.841797 23.6057 0.841797 24.0457ZM28.0293 5.14185V1.79651C28.0293 1.35652 27.6727 1 27.2328 1H23.8876C23.4478 1 23.0911 1.35652 23.0911 1.79651C23.0911 2.23639 23.4478 2.59302 23.8876 2.59302H26.4363V5.14185C26.4363 5.58173 26.7928 5.93835 27.2328 5.93835C27.6727 5.93835 28.0293 5.58173 28.0293 5.14185Z" fill="#20446C"/>
</mask>
<g mask="url(#mask0_834_51500)">
<path d="M0 1H6V3.5L0.5 7L0 1Z" fill="#F0792E"/>
<path d="M29 29H23V26.0833L28.5 22L29 29Z" fill="#F0792E"/>
<path d="M29 1H23V3.5L28.5 7L29 1Z" fill="#F0792E"/>
<path d="M0 29H6V26.0833L0.5 22L0 29Z" fill="#F0792E"/>
</g>
</g>
<defs>
<clipPath id="clip0_834_51500">
<rect width="29" height="29" fill="white"/>
</clipPath>
</defs>
</svg>
