<svg width="26" height="26" viewBox="0 0 26 26" fill="none" xmlns="http://www.w3.org/2000/svg">
<path d="M17.9988 20.7977C17.3333 20.4978 16.4991 20.2627 15.575 20.1098C17.6161 17.3412 21.3789 11.863 21.3789 8.42969C21.3789 5.9787 20.5783 3.87485 19.0636 2.34586C17.5435 0.811111 15.4466 0 13 0C12.9998 0 13.0002 0 13 0C10.5534 0 8.45647 0.81131 6.9364 2.34566C5.42169 3.87485 4.62109 5.9787 4.62109 8.42969C4.62109 11.8638 8.38188 17.3388 10.425 20.1098C9.50066 20.2629 8.66653 20.498 8.00122 20.7977C6.46667 21.489 6.14453 22.3515 6.14453 22.9531C6.14453 23.6258 6.53987 24.5757 8.42354 25.2821C9.65796 25.7451 11.2832 26 13 26C14.7168 26 16.342 25.7451 17.5765 25.2821C19.4601 24.5757 19.8555 23.6258 19.8555 22.9531C19.8555 22.3515 19.5333 21.489 17.9988 20.7977ZM6.14453 8.42969C6.14453 6.38872 6.79259 4.65561 8.01868 3.41782C9.24635 2.17844 10.9689 1.52344 13 1.52344C15.0311 1.52344 16.7536 2.17844 17.9813 3.41782C19.2074 4.65561 19.8555 6.38872 19.8555 8.42969C19.8555 11.6553 15.3482 18.0139 13 20.98C10.6518 18.0139 6.14453 11.6553 6.14453 8.42969ZM17.0415 23.8557C15.9739 24.256 14.5387 24.4766 13 24.4766C11.4613 24.4766 10.0261 24.256 8.95853 23.8557C7.90501 23.4607 7.66797 23.0618 7.66797 22.9531C7.66797 22.8601 7.84035 22.5411 8.62706 22.1866C9.35823 21.8572 10.3604 21.6193 11.4803 21.5055C12.0242 22.2067 12.3801 22.6371 12.4134 22.6774C12.5582 22.852 12.7733 22.9531 13 22.9531C13.2267 22.9531 13.4418 22.8522 13.5866 22.6774C13.6199 22.6371 13.9758 22.2067 14.5197 21.5055C15.6396 21.6191 16.6418 21.8572 17.3729 22.1866C18.1597 22.5411 18.332 22.8601 18.332 22.9531C18.332 23.0618 18.095 23.4607 17.0415 23.8557Z" fill="#20446C"/>
<path d="M13.1114 12.2689C15.4419 12.2689 17.3377 10.373 17.3377 8.04258C17.3377 5.71213 15.4419 3.81631 13.1114 3.81631C10.781 3.81631 8.88516 5.71213 8.88516 8.04258C8.88516 10.373 10.781 12.2689 13.1114 12.2689ZM13.1114 5.02215C14.7768 5.02215 16.1319 6.3772 16.1319 8.04258C16.1319 9.70796 14.7768 11.063 13.1114 11.063C11.446 11.063 10.091 9.70796 10.091 8.04258C10.091 6.3772 11.446 5.02215 13.1114 5.02215Z" fill="#F0792E" stroke="#F0792E" stroke-width="0.3"/>
</svg>
