<svg width="22" height="2" viewBox="0 0 22 2" fill="none" xmlns="http://www.w3.org/2000/svg">
<path d="M22.001 0.882837V0.972093C22.001 1.11672 21.9435 1.25543 21.8413 1.3577C21.7391 1.45996 21.6004 1.51742 21.4558 1.51742H0.546353C0.401662 1.51742 0.26288 1.46 0.160453 1.35777C0.0580267 1.25554 0.000323694 1.11683 0 0.972093V0.546595C0.000155171 0.474143 0.0146688 0.402441 0.042717 0.335642C0.0707651 0.268842 0.111782 0.208273 0.163393 0.15744C0.215003 0.106608 0.276188 0.0665231 0.343392 0.0395066C0.410596 0.01249 0.482497 -0.000921366 0.554918 4.91488e-05L21.4644 0.335067C21.6079 0.337319 21.7447 0.396101 21.8452 0.498654C21.9456 0.601207 22.0016 0.739256 22.001 0.882837Z" fill="#90B9E7"/>
</svg>
