<svg width="42" height="15" viewBox="0 0 42 15" fill="none" xmlns="http://www.w3.org/2000/svg">
<path d="M4.60966 14.3824C4.5388 14.3822 4.47038 14.3565 4.41692 14.3099L0.0894001 10.5263C0.0353924 10.4741 0.0034838 10.4032 0.000268796 10.3281C-0.00294621 10.2531 0.0227782 10.1797 0.072125 10.1231C0.121472 10.0664 0.190672 10.031 0.265427 10.0239C0.340182 10.0169 0.414778 10.0389 0.473807 10.0853L4.61711 13.707L12.3958 7.38283C12.4459 7.34214 12.508 7.31913 12.5725 7.3174C12.637 7.31567 12.7003 7.3353 12.7525 7.37324L20.3981 12.9752L31.1232 0.105272C31.1482 0.0753111 31.1789 0.0506464 31.2136 0.0327255C31.2482 0.0148046 31.2861 0.00398779 31.325 0.000911716C31.3639 -0.00216435 31.403 0.00256173 31.44 0.0148121C31.477 0.0270624 31.5113 0.0465911 31.5406 0.0722501C31.5406 0.0722501 40.7664 8.16789 41.9101 9.16494C41.9641 9.21712 41.996 9.28806 41.9992 9.3631C42.0024 9.43814 41.9767 9.51155 41.9274 9.56816C41.878 9.62478 41.8088 9.66026 41.7341 9.66729C41.6593 9.67432 41.5847 9.65236 41.5257 9.60594C40.4875 8.69731 32.8014 1.95555 31.3809 0.709249L20.676 13.5611C20.6284 13.6181 20.5609 13.6549 20.4871 13.664C20.4134 13.6731 20.3389 13.6539 20.2788 13.6101L12.5928 7.97935L4.79387 14.3174C4.7418 14.3597 4.67672 14.3826 4.60966 14.3824Z" fill="#90B9E7"/>
</svg>
