<svg width="142" height="123" viewBox="0 0 142 123" fill="none" xmlns="http://www.w3.org/2000/svg">
<path d="M123.367 111.814L123.174 111.972C105.441 126.409 81.8862 127.062 64.7171 111.518C55.7766 103.418 39.897 104.967 28.5357 102.038C-10.6372 91.935 -3.86657 43.8755 15.4861 20.6418C32.9475 -0.321985 70.7794 -5.06077 96.2013 5.25635C118.552 14.3204 134.267 34.569 139.872 55.7443C140.436 57.867 140.894 60.0094 141.247 62.1715C144.194 80.1938 138.538 99.3386 123.367 111.814Z" fill="white"/>
<path d="M51.1445 4.93813C51.5749 6.09661 51.6492 7.35915 51.3581 8.56598C51.067 9.77281 50.4235 10.8697 49.5091 11.7178C48.5947 12.5659 47.4505 13.1271 46.2213 13.3304C44.9921 13.5337 43.733 13.3699 42.6036 12.8598C41.4742 12.3497 40.5251 11.5163 39.8764 10.4648C39.2278 9.41343 38.9087 8.19136 38.9596 6.95328C39.0105 5.71521 39.4292 4.51678 40.1625 3.50967C40.8958 2.50256 41.9109 1.73203 43.0793 1.29559C43.8537 1.00521 44.6767 0.869097 45.5013 0.895019C46.3258 0.920941 47.1357 1.10839 47.8847 1.44666C48.6337 1.78493 49.3071 2.26739 49.8665 2.86648C50.4258 3.46556 50.8601 4.16952 51.1445 4.93813Z" fill="#F9C0A8"/>
<path d="M49.7388 5.46753C50.0667 6.35048 50.1233 7.31273 49.9014 8.23249C49.6795 9.15225 49.1891 9.98818 48.4922 10.6345C47.7953 11.2808 46.9233 11.7084 45.9865 11.8632C45.0497 12.0181 44.0903 11.8931 43.2296 11.5042C42.369 11.1154 41.6457 10.48 41.1515 9.67859C40.6573 8.87718 40.4143 7.94574 40.4533 7.00215C40.4922 6.05857 40.8114 5.14526 41.3704 4.37781C41.9294 3.61036 42.7031 3.02327 43.5935 2.69085C44.1837 2.46967 44.8108 2.36604 45.4391 2.38589C46.0674 2.40574 46.6845 2.54868 47.2552 2.80654C47.8259 3.0644 48.3389 3.43213 48.7651 3.88872C49.1912 4.3453 49.5221 4.88179 49.7388 5.46753Z" fill="#FCD3C3"/>
<path d="M45.2957 4.54263C45.443 4.40972 45.4577 4.18628 45.3284 4.04347C45.1992 3.90077 44.9749 3.89265 44.8276 4.02555L42.7147 5.9312C42.5673 6.0641 42.5527 6.28765 42.6819 6.43036C42.8112 6.57316 43.0354 6.58118 43.1827 6.44828L43.7883 5.9021C44.0384 5.67584 44.394 5.61225 44.6976 5.7395L43.513 6.80788C43.3657 6.94069 43.351 7.16433 43.4802 7.30704C43.6095 7.44984 43.8338 7.45777 43.981 7.32496L45.1656 6.25657C45.2603 6.5711 45.1611 6.917 44.9117 7.14308L44.3061 7.68926C44.1967 7.78805 44.157 7.94151 44.2056 8.07654C44.2542 8.21157 44.3814 8.30114 44.5268 8.30263L47.289 8.32389C47.3798 8.32412 47.4683 8.28966 47.5362 8.22769C47.6092 8.16112 47.6532 8.06898 47.6584 7.97194C47.662 7.87845 47.6281 7.78851 47.5643 7.72192C47.5004 7.65534 47.4117 7.61757 47.3178 7.61695L45.4437 7.60245C45.9371 7.10464 46.0528 6.35291 45.7283 5.75391L46.0937 5.42428C46.2411 5.29138 46.2558 5.06793 46.1265 4.92513C45.9972 4.78233 45.773 4.7743 45.6257 4.90721L45.2602 5.23683C45.1126 5.13607 44.9474 5.06235 44.7725 5.01925L45.298 4.54525L45.2957 4.54263Z" fill="#F38D5D"/>
<path d="M49.6867 5.3295C49.659 5.3338 49.5691 5.1522 49.3697 4.8374C49.0921 4.39401 48.7464 3.99694 48.3452 3.66047C48.0689 3.43216 47.7683 3.23443 47.4488 3.07073C47.0809 2.88632 46.6905 2.74986 46.2869 2.66468C46.0701 2.61738 45.8499 2.58677 45.6281 2.57312C45.1591 2.54172 44.6875 2.58079 44.229 2.68904C43.9884 2.74668 43.7524 2.8221 43.5228 2.91467C43.2941 3.00991 43.0724 3.12126 42.8594 3.24788C42.6537 3.37271 42.4577 3.51304 42.2734 3.66764C42.0941 3.81505 41.9271 3.97657 41.7738 4.15061C41.6251 4.31805 41.489 4.49612 41.3666 4.68337C41.138 5.02729 40.9546 5.39871 40.8209 5.78846C40.705 6.12914 40.6275 6.48129 40.5897 6.83839C40.5369 7.36063 40.5657 7.88717 40.675 8.39924C40.7528 8.76424 40.8186 8.96368 40.7919 8.97411C40.7651 8.98453 40.6591 8.80073 40.5373 8.43631C40.3682 7.9161 40.2981 7.36827 40.3306 6.8208C40.3796 5.99796 40.6404 5.19972 41.0881 4.50294C41.352 4.0904 41.6754 3.71845 42.0478 3.39916C42.2451 3.23054 42.4556 3.07797 42.6772 2.94293C42.9059 2.80453 43.1447 2.68369 43.3915 2.58146C43.6395 2.48113 43.8948 2.40009 44.155 2.3391C44.4079 2.27854 44.6651 2.23853 44.9241 2.21947C45.173 2.20171 45.4227 2.20368 45.6709 2.22535C45.9088 2.24418 46.1448 2.28124 46.3766 2.33621C46.803 2.43882 47.213 2.59819 47.5958 2.81003C47.9264 2.99209 48.2338 3.21267 48.5116 3.46715C48.9168 3.83552 49.249 4.27623 49.4914 4.76683C49.6608 5.11289 49.7076 5.32156 49.6867 5.3295Z" fill="#F38D5D"/>
<path d="M83.1118 88.3299C82.9482 89.295 82.4991 90.1906 81.8214 90.9032C81.1437 91.6158 80.2679 92.1134 79.3047 92.3331C78.3416 92.5528 77.3344 92.4847 76.4107 92.1373C75.487 91.79 74.6883 91.1791 74.1156 90.3819C73.5429 89.5847 73.222 88.637 73.1935 87.6589C73.165 86.6807 73.4302 85.716 73.9555 84.8869C74.4808 84.0577 75.2426 83.4013 76.1445 83.0009C77.0464 82.6004 78.0479 82.4738 79.0222 82.6371C79.6685 82.7446 80.2869 82.9771 80.8423 83.3214C81.3976 83.6658 81.8789 84.1151 82.2587 84.6438C82.6385 85.1724 82.9093 85.7701 83.0557 86.4026C83.2021 87.035 83.2211 87.6899 83.1118 88.3299Z" fill="#F9C0A8"/>
<path d="M81.938 88.1345C81.8133 88.8701 81.471 89.5525 80.9545 90.0955C80.438 90.6386 79.7705 91.0178 79.0365 91.1851C78.3025 91.3525 77.535 91.3005 76.8311 91.0357C76.1272 90.7709 75.5185 90.3053 75.0822 89.6977C74.6458 89.0901 74.4014 88.3679 74.3798 87.6225C74.3582 86.877 74.5604 86.1419 74.9608 85.5101C75.3613 84.8783 75.9419 84.3782 76.6293 84.0731C77.3167 83.7681 78.0799 83.6718 78.8224 83.7964C79.3148 83.8783 79.786 84.0556 80.2091 84.318C80.6322 84.5805 80.9989 84.9229 81.2883 85.3258C81.5776 85.7286 81.7839 86.184 81.8954 86.666C82.0069 87.1479 82.0214 87.647 81.938 88.1345Z" fill="#FCD3C3"/>
<path d="M79.2575 85.7371C79.4112 85.7043 79.5098 85.5569 79.4777 85.4077C79.4456 85.2587 79.295 85.1643 79.1412 85.1971L76.9371 85.6675C76.7834 85.7003 76.6849 85.8479 76.717 85.9969C76.7491 86.1461 76.8997 86.2404 77.0534 86.2076L77.6851 86.0727C77.9463 86.0165 78.2154 86.1138 78.3732 86.3213L77.1375 86.585C76.9839 86.6178 76.8853 86.7654 76.9174 86.9144C76.9495 87.0636 77.1002 87.1578 77.2538 87.125L78.4895 86.8613C78.4299 87.1145 78.2249 87.3125 77.9642 87.3688L77.3325 87.5036C77.2184 87.5281 77.1303 87.6176 77.1101 87.7295C77.09 87.8414 77.1418 87.9532 77.241 88.0118L79.1272 89.1202C79.1895 89.1563 79.2638 89.1677 79.3349 89.1521C79.4113 89.1353 79.478 89.0896 79.5201 89.0251C79.5596 88.9624 79.5719 88.8873 79.5545 88.8163C79.537 88.7453 79.4912 88.6843 79.427 88.6467L78.1472 87.8946C78.6828 87.7485 79.0599 87.2787 79.0745 86.7393L79.4558 86.6579C79.6095 86.6251 79.7081 86.4777 79.6759 86.3285C79.6438 86.1794 79.4932 86.0851 79.3395 86.1179L78.9583 86.1993C78.8969 86.0717 78.8128 85.9557 78.7099 85.8569L79.2581 85.7399L79.2575 85.7371Z" fill="#F38D5D"/>
<path d="M81.9591 88.0204C81.9384 88.0124 81.9486 87.8523 81.9365 87.5574C81.9217 87.1433 81.8419 86.7341 81.6999 86.3444C81.6008 86.0783 81.4729 85.8237 81.3186 85.5848C81.1393 85.3127 80.9255 85.0645 80.6824 84.8462C80.5524 84.7279 80.4135 84.6197 80.2668 84.5225C79.9575 84.3153 79.6185 84.1553 79.2611 84.048C79.0733 83.9923 78.8815 83.9505 78.6874 83.9231C78.4928 83.8979 78.2966 83.8864 78.1003 83.8889C77.9098 83.8931 77.7198 83.9118 77.5321 83.9448C77.3508 83.9749 77.1722 84.0196 76.9981 84.0783C76.8298 84.1342 76.666 84.2025 76.5078 84.2825C76.2148 84.4278 75.9419 84.61 75.6959 84.8244C75.4814 85.0122 75.2887 85.223 75.1214 85.453C74.8783 85.7903 74.6896 86.1629 74.5618 86.5574C74.4706 86.8386 74.4367 87.0015 74.4142 86.998C74.3917 86.9946 74.3918 86.8265 74.4526 86.5283C74.5426 86.1045 74.7115 85.701 74.9506 85.3383C75.3101 84.7933 75.8052 84.3491 76.3882 84.0484C76.7326 83.8699 77.1018 83.7429 77.4837 83.6713C77.6858 83.6338 77.8906 83.6125 78.0962 83.6076C78.3078 83.6032 78.5195 83.6149 78.7293 83.6425C78.9391 83.6719 79.1463 83.7174 79.349 83.7786C79.5464 83.8372 79.7387 83.9116 79.9239 84.0011C80.1017 84.0875 80.2722 84.1878 80.4339 84.3009C80.5896 84.408 80.7368 84.5269 80.874 84.6564C81.1259 84.8957 81.344 85.1674 81.5227 85.4642C81.6773 85.72 81.8008 85.9931 81.8906 86.2777C82.0227 86.6908 82.076 87.1247 82.048 87.5572C82.0271 87.8616 81.9765 88.0233 81.9591 88.0204Z" fill="#F38D5D"/>
<path d="M35.2453 9.28005C35.5862 10.1977 35.6451 11.1978 35.4146 12.1538C35.184 13.1098 34.6743 13.9786 33.9501 14.6504C33.2258 15.3222 32.3196 15.7668 31.3459 15.9278C30.3723 16.0888 29.3751 15.9591 28.4805 15.555C27.5859 15.1509 26.8341 14.4907 26.3204 13.6578C25.8066 12.8249 25.5538 11.8569 25.5942 10.8762C25.6345 9.89547 25.966 8.94616 26.5469 8.14841C27.1277 7.35065 27.9317 6.7403 28.8571 6.39459C29.4705 6.16459 30.1224 6.05677 30.7755 6.07732C31.4286 6.09786 32.0701 6.24635 32.6633 6.51432C33.2566 6.78228 33.79 7.16446 34.233 7.63902C34.676 8.11357 35.02 8.67121 35.2453 9.28005Z" fill="#F9C0A8"/>
<path d="M34.1274 9.69873C34.3871 10.3981 34.4319 11.1602 34.2562 11.8887C34.0804 12.6172 33.692 13.2793 33.14 13.7913C32.588 14.3032 31.8973 14.6419 31.1553 14.7645C30.4133 14.8871 29.6534 14.7882 28.9717 14.4802C28.29 14.1721 27.7172 13.6689 27.3257 13.0341C26.9343 12.3994 26.7418 11.6616 26.7727 10.9142C26.8035 10.1669 27.0563 9.44346 27.4991 8.8356C27.9418 8.22773 28.5546 7.76272 29.2599 7.49943C29.7274 7.32424 30.2241 7.24216 30.7217 7.25788C31.2194 7.27361 31.7082 7.38682 32.1602 7.59106C32.6122 7.79531 33.0186 8.08657 33.3561 8.44821C33.6937 8.80985 33.9557 9.23478 34.1274 9.69873Z" fill="#FCD3C3"/>
<path d="M30.6117 8.96362C30.7284 8.85836 30.74 8.68138 30.6376 8.56828C30.5353 8.45526 30.3576 8.44882 30.2409 8.55408L28.5673 10.0634C28.4505 10.1687 28.439 10.3457 28.5413 10.4587C28.6437 10.5718 28.8213 10.5782 28.938 10.4729L29.4177 10.0403C29.6158 9.86114 29.8975 9.81078 30.1379 9.91156L29.1996 10.7577C29.083 10.8629 29.0714 11.0401 29.1737 11.1531C29.2761 11.2662 29.4537 11.2725 29.5704 11.1673L30.5087 10.3211C30.5837 10.5702 30.5051 10.8442 30.3075 11.0232L29.8278 11.4558C29.7412 11.5341 29.7097 11.6556 29.7482 11.7626C29.7867 11.8695 29.8875 11.9404 30.0027 11.9416L32.1906 11.9585C32.2625 11.9586 32.3326 11.9314 32.3864 11.8823C32.4442 11.8295 32.479 11.7566 32.4832 11.6797C32.4861 11.6057 32.4592 11.5344 32.4086 11.4817C32.358 11.429 32.2878 11.399 32.2134 11.3986L30.729 11.3871C31.1198 10.9928 31.2114 10.3974 30.9543 9.92298L31.2438 9.66191C31.3605 9.55665 31.3722 9.37967 31.2698 9.26657C31.1674 9.15347 30.9898 9.14711 30.8731 9.25237L30.5836 9.51344C30.4667 9.43364 30.3358 9.37525 30.1973 9.34111L30.6135 8.9657L30.6117 8.96362Z" fill="#F38D5D"/>
<path d="M34.0905 9.59106C34.0686 9.59448 33.9974 9.45063 33.8395 9.2013C33.6196 8.8501 33.3458 8.5356 33.028 8.26909C32.8091 8.08826 32.5711 7.93165 32.318 7.80199C32.0266 7.65593 31.7173 7.54784 31.3977 7.48037C31.226 7.4429 31.0516 7.41866 30.8759 7.40785C30.5044 7.38298 30.1309 7.41393 29.7677 7.49967C29.5772 7.54532 29.3902 7.60505 29.2084 7.67838C29.0272 7.75381 28.8516 7.84201 28.6829 7.9423C28.52 8.04117 28.3648 8.15232 28.2187 8.27477C28.0768 8.39154 27.9445 8.51947 27.8231 8.65731C27.7053 8.78994 27.5975 8.93098 27.5006 9.07929C27.3195 9.3517 27.1742 9.64588 27.0683 9.95459C26.9765 10.2244 26.9151 10.5033 26.8852 10.7862C26.8434 11.1998 26.8662 11.6169 26.9528 12.0225C27.0144 12.3116 27.0665 12.4696 27.0453 12.4778C27.0241 12.4861 26.9402 12.3405 26.8437 12.0518C26.7098 11.6398 26.6542 11.2059 26.6799 10.7723C26.7187 10.1205 26.9254 9.48827 27.2799 8.93638C27.489 8.60962 27.7451 8.31502 28.0401 8.06212C28.1963 7.92857 28.363 7.80772 28.5386 7.70076C28.7197 7.59114 28.9089 7.49543 29.1044 7.41446C29.3008 7.33498 29.503 7.2708 29.7091 7.22249C29.9094 7.17453 30.1131 7.14284 30.3183 7.12774C30.5154 7.11367 30.7132 7.11523 30.9098 7.1324C31.0982 7.14731 31.2851 7.17666 31.4688 7.2202C31.8065 7.30148 32.1313 7.42771 32.4344 7.5955C32.6962 7.7397 32.9397 7.91441 33.1598 8.11598C33.4807 8.40775 33.7439 8.75681 33.9359 9.1454C34.0701 9.4195 34.1071 9.58478 34.0905 9.59106Z" fill="#F38D5D"/>
<path d="M72.4372 95.5448C72.2306 96.7632 71.6637 97.8938 70.8081 98.7934C69.9525 99.693 68.8468 100.321 67.6308 100.599C66.4149 100.876 65.1433 100.79 63.9771 100.351C62.8109 99.9127 61.8025 99.1415 61.0794 98.135C60.3564 97.1286 59.9512 95.9322 59.9152 94.6974C59.8792 93.4625 60.214 92.2447 60.8771 91.1979C61.5403 90.1512 62.5021 89.3226 63.6408 88.817C64.7794 88.3115 66.0438 88.1517 67.2739 88.3579C68.0898 88.4936 68.8706 88.7872 69.5717 89.2219C70.2728 89.6566 70.8805 90.2239 71.36 90.8913C71.8395 91.5587 72.1814 92.3132 72.3663 93.1117C72.5511 93.9101 72.5752 94.7369 72.4372 95.5448Z" fill="#F9C0A8"/>
<path d="M70.9546 95.2981C70.7971 96.2267 70.365 97.0883 69.7129 97.7739C69.0608 98.4595 68.2181 98.9382 67.2914 99.1495C66.3647 99.3608 65.3957 99.2952 64.5069 98.9609C63.6182 98.6266 62.8498 98.0387 62.2989 97.2716C61.748 96.5045 61.4394 95.5927 61.4121 94.6516C61.3848 93.7104 61.6401 92.7823 62.1457 91.9846C62.6512 91.1869 63.3843 90.5556 64.2522 90.1704C65.12 89.7853 66.0836 89.6637 67.021 89.821C67.6427 89.9245 68.2376 90.1483 68.7718 90.4796C69.306 90.8109 69.769 91.2433 70.1343 91.7519C70.4996 92.2605 70.76 92.8355 70.9008 93.444C71.0415 94.0525 71.0598 94.6825 70.9546 95.2981Z" fill="#FCD3C3"/>
<path d="M67.5688 92.2725C67.7629 92.2311 67.8873 92.0449 67.8468 91.8566C67.8063 91.6684 67.6161 91.5493 67.422 91.5907L64.6393 92.1846C64.4452 92.226 64.3208 92.4123 64.3613 92.6005C64.4019 92.7888 64.592 92.9078 64.7861 92.8664L65.5836 92.6962C65.9133 92.6253 66.2532 92.748 66.4524 93.01L64.8923 93.343C64.6983 93.3844 64.5738 93.5707 64.6143 93.7589C64.6549 93.9472 64.8451 94.0662 65.0391 94.0248L66.5992 93.6918C66.5239 94.0115 66.2651 94.2615 65.936 94.3326L65.1384 94.5028C64.9943 94.5337 64.8831 94.6467 64.8577 94.7879C64.8323 94.9292 64.8977 95.0704 65.0229 95.1443L67.4043 96.5437C67.4829 96.5894 67.5768 96.6037 67.6665 96.584C67.763 96.5629 67.8472 96.5051 67.9003 96.4237C67.9502 96.3445 67.9658 96.2497 67.9438 96.1601C67.9217 96.0705 67.8638 95.9934 67.7828 95.9459L66.167 94.9964C66.8433 94.8119 67.3193 94.2188 67.3378 93.5378L67.8191 93.435C68.0132 93.3936 68.1376 93.2074 68.0971 93.0191C68.0566 92.8308 67.8664 92.7118 67.6723 92.7532L67.191 92.856C67.1135 92.6949 67.0074 92.5485 66.8774 92.4237L67.5696 92.276L67.5688 92.2725Z" fill="#F38D5D"/>
<path d="M70.9795 95.1522C70.9534 95.1421 70.9663 94.9399 70.9511 94.5676C70.9323 94.0448 70.8316 93.5281 70.6523 93.0361C70.5272 92.7002 70.3657 92.3787 70.1709 92.0772C69.9445 91.7336 69.6746 91.4202 69.3677 91.1447C69.2036 90.9953 69.0282 90.8587 68.8429 90.736C68.4525 90.4743 68.0245 90.2724 67.5733 90.1369C67.3361 90.0665 67.094 90.0138 66.8489 89.9792C66.6032 89.9473 66.3555 89.9329 66.1078 89.9361C65.8671 89.9413 65.6273 89.9649 65.3903 90.0066C65.1614 90.0447 64.936 90.101 64.7162 90.1751C64.5037 90.2458 64.2968 90.3319 64.0972 90.4329C63.7272 90.6165 63.3827 90.8464 63.072 91.1171C62.8013 91.3542 62.558 91.6204 62.3467 91.9107C62.0399 92.3366 61.8015 92.807 61.6402 93.3051C61.525 93.6601 61.4823 93.8657 61.4539 93.8614C61.4255 93.857 61.4256 93.6449 61.5024 93.2684C61.6161 92.7333 61.8293 92.2238 62.1311 91.7659C62.585 91.0779 63.2101 90.517 63.9461 90.1374C64.381 89.9121 64.8471 89.7516 65.3292 89.6613C65.5844 89.6139 65.843 89.587 66.1025 89.5809C66.3697 89.5754 66.6369 89.5901 66.9018 89.625C67.1667 89.6621 67.4283 89.7195 67.6842 89.7968C67.9335 89.8708 68.1762 89.9647 68.4101 90.0777C68.6345 90.1868 68.8498 90.3133 69.0539 90.4562C69.2505 90.5915 69.4363 90.7415 69.6096 90.9051C69.9276 91.2071 70.203 91.5501 70.4285 91.9249C70.6238 92.2479 70.7797 92.5926 70.8931 92.9519C71.0598 93.4735 71.1272 94.0213 71.0918 94.5673C71.0654 94.9517 71.0016 95.1558 70.9795 95.1522Z" fill="#F38D5D"/>
<g clip-path="url(#clip0_834_44585)">
<path d="M107.78 37.5078L87.1211 35.5225L84.1368 66.312L104.796 68.2973L107.78 37.5078Z" fill="white" stroke="#263238" stroke-width="0.0891923" stroke-linecap="round" stroke-linejoin="round"/>
<path d="M88.4691 37.7675L93.8473 38.2735" stroke="#263238" stroke-width="0.178385" stroke-linecap="round" stroke-linejoin="round"/>
<path d="M88.3711 38.7925L92.0288 39.1353" stroke="#263238" stroke-width="0.178385" stroke-linecap="round" stroke-linejoin="round"/>
<path d="M89.4503 41.333L104.92 42.7865" stroke="#263238" stroke-width="0.178385" stroke-linecap="round" stroke-linejoin="round"/>
<path d="M89.3531 42.354L104.822 43.8099" stroke="#263238" stroke-width="0.178385" stroke-linecap="round" stroke-linejoin="round"/>
<path d="M89.2419 43.548L102.434 44.7895" stroke="#263238" stroke-width="0.178385" stroke-linecap="round" stroke-linejoin="round"/>
<path d="M90.4632 44.7608L89.2051 44.6426L89.0868 45.8902L90.3449 46.0085L90.4632 44.7608Z" stroke="#263238" stroke-width="0.0891923" stroke-linecap="round" stroke-linejoin="round"/>
<path d="M92.7405 44.9727L91.4824 44.8545L91.3642 46.1021L92.6222 46.2204L92.7405 44.9727Z" stroke="#263238" stroke-width="0.0891923" stroke-linecap="round" stroke-linejoin="round"/>
<path d="M95.0257 45.1895L93.7676 45.0713L93.6493 46.3189L94.9074 46.4372L95.0257 45.1895Z" stroke="#263238" stroke-width="0.0891923" stroke-linecap="round" stroke-linejoin="round"/>
<path d="M97.305 45.4039L96.0469 45.2856L95.9286 46.5333L97.1867 46.6515L97.305 45.4039Z" stroke="#263238" stroke-width="0.0891923" stroke-linecap="round" stroke-linejoin="round"/>
<path d="M88.6294 41.2528C88.6241 41.315 88.6002 41.3743 88.5609 41.4231C88.5215 41.4719 88.4683 41.508 88.4082 41.5267C88.3481 41.5454 88.2837 41.546 88.2232 41.5283C88.1627 41.5107 88.1089 41.4756 88.0686 41.4275C88.0282 41.3794 88.0032 41.3205 87.9967 41.2584C87.9902 41.1962 88.0024 41.1335 88.032 41.0783C88.0615 41.023 88.1069 40.9778 88.1624 40.9483C88.2179 40.9187 88.2811 40.9062 88.3438 40.9124C88.4269 40.9206 88.5035 40.9608 88.5569 41.0245C88.6104 41.0882 88.6364 41.1702 88.6294 41.2528Z" fill="#263238"/>
<path d="M88.8858 47.3032L104.355 48.7565" stroke="#263238" stroke-width="0.178385" stroke-linecap="round" stroke-linejoin="round"/>
<path d="M88.7886 48.3247L104.258 49.7805" stroke="#263238" stroke-width="0.178385" stroke-linecap="round" stroke-linejoin="round"/>
<path d="M88.675 49.523L101.868 50.7621" stroke="#263238" stroke-width="0.178385" stroke-linecap="round" stroke-linejoin="round"/>
<path d="M89.8967 50.7306L88.6387 50.6123L88.5204 51.8599L89.7785 51.9782L89.8967 50.7306Z" stroke="#263238" stroke-width="0.0891923" stroke-linecap="round" stroke-linejoin="round"/>
<path d="M92.178 50.9449L90.9199 50.8267L90.8017 52.0743L92.0597 52.1925L92.178 50.9449Z" stroke="#263238" stroke-width="0.0891923" stroke-linecap="round" stroke-linejoin="round"/>
<path d="M94.4593 51.1622L93.2012 51.0439L93.0829 52.2916L94.341 52.4098L94.4593 51.1622Z" stroke="#263238" stroke-width="0.0891923" stroke-linecap="round" stroke-linejoin="round"/>
<path d="M96.7385 51.3741L95.4805 51.2559L95.3622 52.5035L96.6203 52.6217L96.7385 51.3741Z" stroke="#263238" stroke-width="0.0891923" stroke-linecap="round" stroke-linejoin="round"/>
<path d="M88.0647 47.2259C88.0589 47.288 88.0347 47.3471 87.995 47.3955C87.9554 47.444 87.9021 47.4796 87.8419 47.4979C87.7818 47.5163 87.7175 47.5165 87.6572 47.4986C87.5969 47.4806 87.5433 47.4453 87.5032 47.3971C87.4632 47.349 87.4384 47.2901 87.4321 47.228C87.4258 47.1659 87.4383 47.1033 87.4679 47.0483C87.4975 46.9932 87.5429 46.9481 87.5984 46.9187C87.6539 46.8893 87.717 46.8769 87.7796 46.8831C87.8631 46.8914 87.94 46.9321 87.9934 46.9963C88.0468 47.0605 88.0724 47.143 88.0647 47.2259Z" fill="#263238"/>
<path d="M88.3179 53.2719L103.787 54.7277" stroke="#263238" stroke-width="0.178385" stroke-linecap="round" stroke-linejoin="round"/>
<path d="M88.2218 54.2978L103.689 55.7507" stroke="#263238" stroke-width="0.178385" stroke-linecap="round" stroke-linejoin="round"/>
<path d="M88.1067 55.4937L101.299 56.7328" stroke="#263238" stroke-width="0.178385" stroke-linecap="round" stroke-linejoin="round"/>
<path d="M89.3342 56.7017L88.0762 56.5835L87.9579 57.8311L89.216 57.9494L89.3342 56.7017Z" stroke="#263238" stroke-width="0.0891923" stroke-linecap="round" stroke-linejoin="round"/>
<path d="M91.6135 56.9161L90.3555 56.7979L90.2372 58.0455L91.4953 58.1637L91.6135 56.9161Z" stroke="#263238" stroke-width="0.0891923" stroke-linecap="round" stroke-linejoin="round"/>
<path d="M93.8948 57.1329L92.6367 57.0146L92.5185 58.2623L93.7765 58.3805L93.8948 57.1329Z" stroke="#263238" stroke-width="0.0891923" stroke-linecap="round" stroke-linejoin="round"/>
<path d="M96.1702 57.3473L94.9121 57.229L94.7939 58.4766L96.0519 58.5949L96.1702 57.3473Z" stroke="#263238" stroke-width="0.0891923" stroke-linecap="round" stroke-linejoin="round"/>
<path d="M87.4964 53.1966C87.4906 53.2587 87.4663 53.3178 87.4267 53.3662C87.387 53.4147 87.3337 53.4503 87.2736 53.4686C87.2134 53.487 87.1491 53.4872 87.0888 53.4693C87.0285 53.4513 86.9749 53.416 86.9349 53.3679C86.8948 53.3197 86.8701 53.2608 86.8638 53.1987C86.8575 53.1366 86.8699 53.074 86.8995 53.019C86.9291 52.9639 86.9746 52.9188 87.0301 52.8894C87.0856 52.86 87.1486 52.8476 87.2113 52.8538C87.2948 52.8621 87.3716 52.9028 87.425 52.967C87.4784 53.0312 87.5041 53.1137 87.4964 53.1966Z" fill="#263238"/>
<path d="M87.7379 59.4135L103.205 60.8689" stroke="#263238" stroke-width="0.178385" stroke-linecap="round" stroke-linejoin="round"/>
<path d="M87.6402 60.4394L103.107 61.8947" stroke="#263238" stroke-width="0.178385" stroke-linecap="round" stroke-linejoin="round"/>
<path d="M87.5232 61.6329L100.715 62.8744" stroke="#263238" stroke-width="0.178385" stroke-linecap="round" stroke-linejoin="round"/>
<path d="M88.7522 62.8433L87.4941 62.7251L87.3759 63.9727L88.634 64.091L88.7522 62.8433Z" stroke="#263238" stroke-width="0.0891923" stroke-linecap="round" stroke-linejoin="round"/>
<path d="M91.0276 63.0577L89.7695 62.9395L89.6513 64.1871L90.9094 64.3053L91.0276 63.0577Z" stroke="#263238" stroke-width="0.0891923" stroke-linecap="round" stroke-linejoin="round"/>
<path d="M93.3089 63.2721L92.0508 63.1538L91.9325 64.4014L93.1906 64.5197L93.3089 63.2721Z" stroke="#263238" stroke-width="0.0891923" stroke-linecap="round" stroke-linejoin="round"/>
<path d="M95.594 63.4864L94.3359 63.3682L94.2177 64.6158L95.4758 64.7341L95.594 63.4864Z" stroke="#263238" stroke-width="0.0891923" stroke-linecap="round" stroke-linejoin="round"/>
<path d="M86.9236 59.3375C86.9178 59.3991 86.8938 59.4576 86.8546 59.5056C86.8154 59.5536 86.7627 59.589 86.7031 59.6073C86.6436 59.6256 86.5799 59.6259 86.5202 59.6084C86.4604 59.5908 86.4072 59.556 86.3673 59.5085C86.3274 59.4609 86.3026 59.4028 86.2961 59.3413C86.2895 59.2798 86.3015 59.2178 86.3304 59.1631C86.3594 59.1083 86.4041 59.0634 86.4588 59.0339C86.5136 59.0043 86.5759 58.9916 86.638 58.9972C86.6793 59.0009 86.7194 59.0127 86.7561 59.0318C86.7928 59.0509 86.8254 59.0771 86.8519 59.1087C86.8784 59.1403 86.8984 59.1768 86.9107 59.216C86.923 59.2553 86.9274 59.2966 86.9236 59.3375Z" fill="#263238"/>
<path d="M89.6078 45.1839L89.76 45.4687L90.4629 44.7631" stroke="#263238" stroke-width="0.178385" stroke-linecap="round" stroke-linejoin="round"/>
<path d="M93.6117 51.5072L93.7635 51.7944L94.4668 51.0864" stroke="#263238" stroke-width="0.178385" stroke-linecap="round" stroke-linejoin="round"/>
<path d="M90.7504 57.388L90.9046 57.6757L91.6054 56.9672" stroke="#263238" stroke-width="0.178385" stroke-linecap="round" stroke-linejoin="round"/>
<path d="M94.7055 63.9046L94.8572 64.1918L95.5605 63.4838" stroke="#263238" stroke-width="0.178385" stroke-linecap="round" stroke-linejoin="round"/>
</g>
<path opacity="0.2" d="M86.435 69.1857C86.435 69.1857 85.8489 80.97 85.8412 81.6585C85.8334 82.347 86.5473 86.5295 86.5473 86.5295L83.3979 91.6679L85.7992 93.7715L90.8747 89.29C90.8747 89.29 94.8852 92.0077 95.4685 95.6496C96.0518 99.2914 100.422 102.131 104.611 112.339C108.799 122.547 115.658 90.4696 115.658 90.4696L102.118 71.8875L86.435 69.1857Z" fill="black" fill-opacity="0.7"/>
<path d="M127.611 117.332L105.284 120.001C105.284 120.001 102.391 99.584 100.244 96.2847C98.0962 92.9854 98.5859 91.6959 97.5651 89.4943C96.953 88.1647 93.6864 85.5843 91.1515 83.0697C90.9304 82.8522 90.7157 82.6351 90.5101 82.4214C90.4205 82.3337 90.3374 82.2402 90.254 82.1528C89.9179 81.7909 89.6063 81.4393 89.3319 81.0957C89.2314 80.9736 89.133 80.8515 89.0366 80.7295C88.5706 80.1652 88.2348 79.5072 88.0528 78.8015C88.0448 78.7699 88.04 78.7376 88.0386 78.7051C88.0314 78.6672 88.0269 78.6288 88.0253 78.5902C87.9888 78.1097 87.9524 77.5612 87.9182 76.9664C87.9237 76.8493 87.9046 76.7249 87.8949 76.6008L87.8832 76.452C87.8537 75.9564 87.8193 75.4296 87.7764 74.887C87.7334 74.3444 87.6876 73.7306 87.6283 73.1378C87.6099 72.933 87.5915 72.7283 87.5672 72.5171C87.5437 72.2874 87.5171 72.0575 87.4907 71.8246L87.4159 71.2279C87.4175 71.194 87.4034 71.1625 87.4016 71.1346L87.3098 70.4352C87.3025 70.4099 87.2985 70.3837 87.2979 70.3574C87.2637 70.155 87.2326 69.9558 87.1953 69.7533C87.1199 69.3018 87.0315 68.8589 86.9457 68.4286C86.769 67.6179 86.5299 66.8217 86.2305 66.0469C84.8009 62.4482 86.818 63.8199 85.9985 54.6962C85.9985 54.6962 87.0189 52.6381 89.5626 54.4427C89.7591 54.583 89.9482 54.7332 90.129 54.8928C90.6405 55.343 91.0863 55.8611 91.4534 56.4324C91.951 57.2101 92.318 58.0621 92.5402 58.9553C92.9011 60.4041 92.9507 61.9112 92.6861 63.3795C92.6861 63.3795 94.3399 70.1489 95.3065 71.7178C96.273 73.2867 100.984 64.7629 100.755 63.7327C100.679 63.2718 100.627 62.8074 100.599 62.3414C100.588 62.1895 100.577 62.0314 100.563 61.8578C100.549 61.6841 100.539 61.5107 100.529 61.3279C100.533 61.2416 100.515 61.1481 100.507 61.0582C100.509 61.0212 100.511 60.9842 100.512 60.9503C100.492 60.6002 100.465 60.2283 100.443 59.8442C100.448 59.7364 100.431 59.6336 100.423 59.5344L100.394 58.977C100.393 58.9461 100.395 58.9152 100.398 58.8845C100.403 58.7797 100.383 58.6707 100.379 58.5593C100.364 58.3423 100.353 58.1225 100.342 57.9026C100.33 57.6827 100.322 57.5248 100.312 57.3359C100.292 56.9797 100.274 56.6237 100.256 56.2799C100.244 56.0229 100.231 55.769 100.22 55.5214C100.223 55.4659 100.226 55.4105 100.213 55.3573C100.146 53.995 100.096 52.8806 100.082 52.398C100.082 52.398 97.1793 47.682 96.9697 45.5159C96.7601 43.3499 96.8867 41.0855 98.2377 40.2262C101.436 38.1976 100.358 41.6616 101.681 43.1702C103.004 44.6788 105.008 47.1681 106.177 47.9682C107.254 48.7176 108.118 51.4585 108.239 51.872C108.108 51.2727 106.797 45.3783 106.819 44.2055C106.837 42.9708 106.193 36.4038 107.923 34.1417C109.654 31.8795 111.726 33.7975 111.904 34.2693C112.082 34.7411 111.84 41.062 112.327 42.846C112.815 44.6299 114.856 52.0695 114.856 52.0695C114.856 52.0695 115.295 44.9487 115.986 41.7845C116.678 38.6203 118.197 36.1937 119.577 36.1172C120.956 36.0408 122.155 37.596 122.155 37.596C122.155 37.596 121.37 42.6555 121.47 43.8371C121.57 45.0188 120.987 49.2415 121.53 51.5625C121.53 51.5625 121.745 45.4843 122.736 44.7531C123.728 44.0218 124.566 43.688 125.077 44.2467C125.589 44.8054 125.533 48.3983 125.976 50.5879C126.419 52.7774 126.21 55.7144 126.409 59.1063C126.607 62.4981 127.797 67.25 127.389 69.9149C126.98 72.5798 125.8 79.1803 124.919 83.046C124.037 86.9116 122.008 92.1743 122.008 92.1743C122.008 92.1743 122.68 95.0636 122.403 97.5989C122.126 100.134 127.611 117.332 127.611 117.332Z" fill="white"/>
<path opacity="0.8" d="M112.288 42.8405C112.65 44.1644 113.86 48.5836 114.461 50.79C114.461 50.79 111.26 52.8894 111.238 54.9827C111.217 57.076 110.37 61.2615 108.984 61.0751C107.599 60.8886 108.16 52.121 107.759 50.6254C108.014 51.2553 108.169 51.7971 108.202 51.9006C108.117 51.5166 106.751 45.4003 106.773 44.2028C106.787 43.9193 106.748 43.3583 106.717 42.631L106.718 42.6155C106.718 42.6155 109.932 39.8525 112.106 41.7414C112.139 42.1117 112.2 42.4791 112.288 42.8405Z" fill="#FFE4C8"/>
<path opacity="0.8" d="M121.363 45.8035C119.857 47.0879 117.569 49.3698 117.185 51.659C117.185 51.659 117.684 58.1264 117.207 60.9116L114.814 52.0836C114.814 52.0836 115.253 44.9628 115.944 41.7986L116.003 41.5389C117.798 40.74 119.754 40.3597 121.722 40.4272C121.547 41.5556 121.452 42.6947 121.438 43.8363C121.448 44.4929 121.423 45.1496 121.363 45.8035Z" fill="#FFE4C8"/>
<path opacity="0.4" d="M122.697 44.7401C122.662 44.7631 122.574 44.8238 122.448 44.9228C122.528 44.7874 122.615 44.6564 122.71 44.5306L122.697 44.7401Z" fill="#92E3A9"/>
<path opacity="0.8" d="M122.584 62.5396C122.584 62.5396 121.058 55.5847 121.302 50.0547C121.384 48.0075 121.713 46.1544 122.444 44.9257C122.524 44.7903 122.612 44.6594 122.706 44.5336L122.697 44.7339C123.044 44.4618 123.427 44.2369 123.836 44.0653C123.276 44.8418 122.603 46.382 123.173 48.9761C124.072 53.0161 122.892 57.8466 122.584 62.5396Z" fill="#FFE4C8"/>
<path opacity="0.8" d="M96.3993 74.4187C96.3993 74.4187 96.5839 80.9854 91.1501 83.0744C90.9291 82.8569 90.7143 82.6397 90.5087 82.426C90.4191 82.3384 90.336 82.2448 90.2526 82.1575C89.9165 81.7955 89.6051 81.4409 89.3305 81.1004C89.227 80.975 89.1359 80.8533 89.0353 80.7342C88.5692 80.1698 88.2334 79.5118 88.0514 78.8062C88.0437 78.7745 88.039 78.7422 88.0373 78.7097C88.03 78.6718 88.0256 78.6334 88.024 78.5948C87.9874 78.1143 87.951 77.5658 87.9168 76.9711C87.9224 76.854 87.9033 76.7295 87.8936 76.6055L87.8819 76.4567C87.8525 75.9579 87.818 75.4342 87.775 74.8916C87.7321 74.349 87.6862 73.7352 87.6269 73.1424C87.6054 72.9375 87.5872 72.7297 87.5658 72.5217C87.5423 72.292 87.5159 72.0591 87.4893 71.8292L87.4145 71.2326L87.4002 71.1392C87.3676 70.906 87.3377 70.6791 87.3018 70.4488C87.2963 70.4231 87.2923 70.3971 87.2898 70.371C87.2557 70.1686 87.2247 69.9663 87.1873 69.7668C87.1087 69.3152 87.0204 68.8724 86.9377 68.4421C89.1388 66.5391 93.9395 68.0279 91.808 63.2775C91.808 63.2775 93.1825 59.3643 90.121 54.9064C92.2701 56.791 93.2661 59.9737 92.6792 63.3684C92.6792 63.3684 94.3332 70.1348 95.2996 71.7067C96.266 73.2787 100.977 64.7518 100.748 63.7185C100.672 63.2588 100.621 62.7955 100.596 62.3305C100.581 62.1784 100.57 62.0203 100.559 61.8468C100.549 61.6734 100.532 61.4996 100.522 61.3138C100.526 61.2305 100.509 61.1371 100.5 61.0471C100.502 61.0101 100.504 60.9731 100.506 60.9392C100.485 60.5861 100.462 60.2174 100.436 59.8301C100.441 59.7253 100.424 59.6225 100.417 59.5202C100.426 59.3353 100.397 59.1486 100.387 58.9628C100.387 58.9319 100.388 58.9011 100.391 58.8703C100.396 58.7655 100.377 58.6565 100.372 58.5451C100.358 58.3251 100.349 58.1085 100.335 57.8884L100.306 57.3187C100.285 56.9656 100.268 56.6095 100.25 56.2658C100.24 56.0058 100.227 55.7519 100.214 55.5073C100.216 55.4518 100.219 55.3963 100.206 55.3432C100.274 55.7511 101.502 63.2632 102.321 65.0413C103.138 66.8656 98.7656 76.0758 96.3993 74.4187Z" fill="#FFE4C8"/>
<path opacity="0.8" d="M124.88 83.0384C123.998 86.9071 121.969 92.1668 121.969 92.1668C121.969 92.1668 122.641 95.0561 122.364 97.5913C122.288 98.2735 122.636 100.02 123.176 102.211C123.014 101.728 121.257 96.5409 121.385 94.7647C121.511 92.9173 120.999 92.3647 120.048 90.0243C119.096 87.6839 117.49 87.8577 117.49 87.8577C117.49 87.8577 116.594 93.542 115.325 89.7192C114.056 85.8964 113.98 81.5157 118.361 66.5265C118.361 66.5265 118.823 68.4544 118.092 74.0817C117.362 79.709 118.647 81.4846 118.647 81.4846C120.873 78.0413 122.686 74.3532 124.048 70.4947C124.048 70.4947 123.26 77.0645 122.696 80.0463C122.132 83.0281 124.362 76.6382 125.894 72.6985C127.321 68.9979 127.448 67.5737 127.095 64.8757C127.361 66.7757 127.544 68.5853 127.344 69.8917C126.942 72.5538 125.761 79.1605 124.88 83.0384Z" fill="#FFE4C8"/>
<path opacity="0.8" d="M99.2402 94.541C100.239 96.2906 102.775 98.6569 104.061 104.93C105.348 111.203 104.027 117.939 104.027 117.939L99.2402 94.541Z" fill="#FFE4C8"/>
<path opacity="0.8" d="M92.4284 58.9567C92.4284 58.9567 86.7713 61.4676 86.1145 66.0698C84.6849 62.471 86.702 63.8428 85.8825 54.7191C85.8825 54.7191 86.9029 52.661 89.4466 54.4655C89.6431 54.6059 89.8322 54.7561 90.013 54.9157C90.5245 55.3658 90.9702 55.884 91.3374 56.4552L92.4284 58.9567Z" fill="#FFE4C8" fill-opacity="0.7"/>
<path d="M105.283 120.003C105.283 120.003 102.393 99.5863 100.243 96.2868C98.0921 92.9874 98.585 91.698 97.5642 89.4964C96.5434 87.2948 88.2662 81.6588 88.0339 78.5897C87.8017 75.5205 87.6497 69.6504 86.217 66.0515C84.7842 62.4526 86.8045 63.8245 85.982 54.6976C85.982 54.6976 87.0179 52.6433 89.5491 54.4473C92.0803 56.2513 93.3119 59.6738 92.6763 63.3719C92.6763 63.3719 94.3303 70.1383 95.2998 71.7104C96.2693 73.2825 100.971 64.7552 100.745 63.722C100.519 62.6888 100.106 53.9706 100.05 52.3833C100.05 52.3833 97.148 47.6642 96.9385 45.4981C96.7289 43.332 96.8555 41.0677 98.2064 40.2114C101.405 38.1828 100.327 41.6468 101.649 43.1554C102.972 44.664 104.977 47.1472 106.143 47.9502C107.308 48.7532 108.222 51.9011 108.222 51.9011C108.222 51.9011 106.763 45.4252 106.788 44.1877C106.812 42.9501 106.162 36.386 107.892 34.1238C109.623 31.8617 111.695 33.7797 111.873 34.2515C112.05 34.7233 111.809 41.0442 112.299 42.8252C112.79 44.6062 114.821 52.0515 114.821 52.0515C114.821 52.0515 115.263 44.9309 115.955 41.7667C116.647 38.6025 118.169 36.176 119.545 36.0994C120.922 36.0228 122.123 37.5782 122.123 37.5782C122.123 37.5782 121.338 42.6376 121.435 43.8191C121.532 45.0007 120.956 49.2206 121.499 51.5446C121.499 51.5446 121.713 45.4664 122.705 44.7352C123.697 44.004 124.535 43.6701 125.046 44.2289C125.557 44.7876 125.502 48.3805 125.945 50.5701C126.388 52.7596 126.182 55.6967 126.377 59.0884C126.572 62.4801 127.766 67.2322 127.358 69.894C126.949 72.5558 125.769 79.1625 124.884 83.028C124 86.8934 121.98 92.1566 121.98 92.1566C121.98 92.1566 122.652 95.046 122.372 97.581C122.092 100.116 127.619 117.344 127.619 117.344" stroke="#263238" stroke-width="0.0891923" stroke-linecap="round" stroke-linejoin="round"/>
<path d="M114.811 52.0669C115.385 53.5956 116.678 59.9933 117.204 60.8988C117.47 61.3976 117.873 61.812 118.367 62.094" stroke="#263238" stroke-width="0.0891923" stroke-linecap="round" stroke-linejoin="round"/>
<path d="M121.489 51.5503C121.489 51.5503 121.29 52.8382 121.802 57.0049C122.313 61.1715 122.576 62.9448 122.931 63.8853" stroke="#263238" stroke-width="0.0891923" stroke-linecap="round" stroke-linejoin="round"/>
<path d="M108.207 51.9155C108.951 54.4749 109.25 58.5113 109.685 59.7431C110.121 60.9748 110.552 61.2455 110.552 61.2455" stroke="#263238" stroke-width="0.0891923" stroke-linecap="round" stroke-linejoin="round"/>
<path d="M109.318 58.0229C109.82 58.4383 110.208 58.9722 110.445 59.5749" stroke="#263238" stroke-width="0.0891923" stroke-linecap="round" stroke-linejoin="round"/>
<path d="M95.2988 71.7124C95.2988 71.7124 95.6141 75.0731 97.7414 74.9179" stroke="#263238" stroke-width="0.0891923" stroke-linecap="round" stroke-linejoin="round"/>
<path d="M100.747 63.7258C100.747 63.7258 101.104 67.7217 100.125 69.3619" stroke="#263238" stroke-width="0.0891923" stroke-linecap="round" stroke-linejoin="round"/>
<path d="M117.662 64.5685C117.662 64.5685 119.044 65.4961 117.972 67.9811C116.9 70.4662 114.759 80.5641 114.759 80.5641" stroke="#263238" stroke-width="0.0891923" stroke-linecap="round" stroke-linejoin="round"/>
<path d="M123.727 67.5364C124.214 69.8455 124.265 69.9066 123.17 72.6624C122.076 75.4182 120.175 82.1945 120.175 82.1945" stroke="#263238" stroke-width="0.0891923" stroke-linecap="round" stroke-linejoin="round"/>
<path d="M121.969 92.1487C121.969 92.1487 121.121 90.2547 121.968 88.7504" stroke="#263238" stroke-width="0.0891923" stroke-linecap="round" stroke-linejoin="round"/>
<path d="M100.242 96.2881C100.242 96.2881 102.439 99.6642 103.288 103.365" stroke="#263238" stroke-width="0.0891923" stroke-linecap="round" stroke-linejoin="round"/>
<path d="M120.273 39.902L120.939 39.3097L121.23 39.2432L121.197 39.5505L120.578 40.2594L120.273 39.902Z" fill="#757575" stroke="#263238" stroke-width="0.0891923" stroke-linecap="round" stroke-linejoin="round"/>
<path d="M120.773 40.2701L119.627 42.5415L90.0542 77.8711L87.0492 75.7728L91.5153 70.7588L117.982 40.9743L120.253 39.6955C120.383 39.7387 120.499 39.8144 120.59 39.9151C120.681 40.0158 120.744 40.1381 120.773 40.2701Z" fill="#20446C"/>
<path opacity="0.3" d="M120.771 40.2701L119.625 42.5415L90.0522 77.8711L87.0473 75.7728L91.5134 70.7588C93.4538 70.6535 93.7249 71.7908 93.7249 71.7908L119.162 42.0221C118.964 41.1818 117.961 40.9734 117.961 40.9734L120.233 39.6946C120.366 39.7352 120.486 39.8098 120.58 39.9109C120.675 40.0119 120.741 40.1358 120.771 40.2701Z" fill="black" fill-opacity="0.7"/>
<path d="M120.773 40.2701L119.627 42.5415L90.0542 77.8711L87.0492 75.7728L91.5153 70.7588L117.982 40.9743L120.253 39.6955C120.383 39.7387 120.499 39.8144 120.59 39.9151C120.681 40.0158 120.744 40.1381 120.773 40.2701Z" stroke="#263238" stroke-width="0.0891923" stroke-linecap="round" stroke-linejoin="round"/>
<path d="M99.6484 67.4514C99.6484 67.4514 96.2388 73.3929 93.0575 77.5599L90.8976 78.0038C90.8976 78.0038 85.7708 82.5786 82.6679 84.8341C82.1412 84.4754 81.6689 84.0441 81.2656 83.5534C81.2656 83.5534 85.8915 75.7083 90.8293 70.8341C91.3699 71.055 91.8751 71.3528 92.3287 71.7179C92.919 72.1723 93.4371 72.7113 93.866 73.317L99.4074 67.063L99.6484 67.4514Z" fill="#F0792E"/>
<path opacity="0.3" d="M99.6487 67.4499C99.6487 67.4499 96.2391 73.3914 93.0578 77.5584L90.8979 78.0023C90.8979 78.0023 85.7711 82.5771 82.6682 84.8326L82.8114 83.5328C86.2856 78.7959 90.6577 73.657 92.3291 71.7164C92.9193 72.1708 93.4375 72.7098 93.8664 73.3155L90.7763 77.0111L92.4569 76.7822L99.4083 67.0492L99.6487 67.4499Z" fill="black" fill-opacity="0.7"/>
<path d="M99.6484 67.4514C99.6484 67.4514 96.2388 73.3929 93.0575 77.5599L90.8976 78.0038C90.8976 78.0038 85.7708 82.5786 82.6679 84.8341C82.1412 84.4754 81.6689 84.0441 81.2656 83.5534C81.2656 83.5534 85.8915 75.7083 90.8293 70.8341C91.3699 71.055 91.8751 71.3528 92.3287 71.7179C92.919 72.1723 93.4371 72.7113 93.866 73.317L99.4074 67.063L99.6484 67.4514Z" stroke="#263238" stroke-width="0.0891923" stroke-linecap="round" stroke-linejoin="round"/>
<path d="M110.551 61.2466L101.46 69.1542L100.008 70.4257C101.075 68.0547 100.792 64.285 100.753 63.8415C100.755 63.8281 100.755 63.8148 100.755 63.8014C100.758 63.7789 100.759 63.7562 100.759 63.7336C100.683 63.2739 100.632 62.8106 100.606 62.3455C100.591 62.1935 100.58 62.0354 100.569 61.8619C100.559 61.6884 100.542 61.5147 100.532 61.3289C100.536 61.2456 100.519 61.1521 100.511 61.0622C100.512 61.0252 100.514 60.9882 100.516 60.9543C100.495 60.6042 100.469 60.2323 100.447 59.8451C100.451 59.7404 100.434 59.6376 100.427 59.5353C100.436 59.3504 100.407 59.1637 100.397 58.9779C100.397 58.947 100.398 58.9161 100.402 58.8854C100.406 58.7806 100.387 58.6716 100.383 58.5602C100.368 58.3402 100.36 58.1235 100.345 57.9035L100.316 57.3338C100.295 56.9806 100.278 56.6246 100.26 56.2808C100.247 56.0208 100.234 55.7699 100.224 55.5223C100.227 55.4669 100.229 55.4114 100.216 55.3583C100.15 53.9959 100.099 52.8815 100.085 52.3989C100.085 52.3989 97.1827 47.6829 96.9733 45.5138C96.7639 43.3446 96.8903 41.0833 98.2412 40.2271C101.439 38.1985 100.362 41.6625 101.684 43.1711C103.007 44.6797 105.012 47.169 106.18 47.9691C107.349 48.7692 108.256 51.9199 108.256 51.9199C109 54.479 109.299 58.512 109.735 59.7467C110.17 60.9813 110.551 61.2466 110.551 61.2466Z" fill="white"/>
<path d="M109.318 58.0229C109.82 58.4383 110.208 58.9722 110.445 59.5749" stroke="#263238" stroke-width="0.0891923" stroke-linecap="round" stroke-linejoin="round"/>
<path opacity="0.8" d="M101.636 43.1674C102.946 44.6877 104.952 47.1494 106.12 47.9587C105.956 47.8675 103.788 46.6955 102.493 47.8231C101.146 48.9946 100.05 52.3866 100.05 52.3866C100.05 52.3866 97.1475 47.6706 96.9381 45.5015C96.7287 43.3323 96.8551 41.071 98.206 40.2148C101.392 38.1856 100.32 41.6499 101.636 43.1674Z" fill="#FFE4C8"/>
<path opacity="0.8" d="M101.457 69.1566L100.005 70.4219C101.072 68.0509 100.788 64.2812 100.75 63.8377C100.756 63.802 100.757 63.7659 100.755 63.7298C100.679 63.2701 100.628 62.8068 100.603 62.3418C100.588 62.1897 100.577 62.0316 100.566 61.8582C100.556 61.6847 100.539 61.5109 100.529 61.3251C100.533 61.2419 100.516 61.1484 100.507 61.0584C100.509 61.0214 100.511 60.9844 100.512 60.9505C100.492 60.5974 100.469 60.2287 100.443 59.8414C100.448 59.7366 100.431 59.6338 100.424 59.5315C100.432 59.3466 100.404 59.1599 100.394 58.9741C100.394 58.9432 100.395 58.9124 100.398 58.8817C100.403 58.7769 100.383 58.6678 100.379 58.5564C100.365 58.3364 100.356 58.1198 100.342 57.8998L100.313 57.33C100.292 56.9769 100.275 56.6208 100.257 56.2771C100.247 56.0172 100.234 55.7632 100.221 55.5186C100.223 55.4631 100.226 55.4076 100.213 55.3545C100.281 55.7624 101.509 63.2745 102.328 65.0526C102.603 65.7144 102.207 67.3883 101.457 69.1566Z" fill="#FFE4C8"/>
<path d="M110.549 61.2452C110.549 61.2452 110.121 60.9746 109.683 59.7429C109.244 58.5111 108.948 54.4752 108.204 51.9161C108.204 51.9161 107.293 48.7837 106.125 47.9652C104.957 47.1466 102.948 44.691 101.632 43.1704C100.316 41.6497 101.388 38.1855 98.1889 40.2264C96.8377 41.0888 96.7052 43.3467 96.921 45.5131C97.1368 47.6794 100.033 52.3982 100.033 52.3982C100.088 53.9855 100.499 62.7067 100.728 63.737" stroke="#263238" stroke-width="0.0891923" stroke-linecap="round" stroke-linejoin="round"/>
<path d="M100.747 63.7258C100.747 63.7258 101.104 67.7217 100.125 69.3619" stroke="#263238" stroke-width="0.0891923" stroke-linecap="round" stroke-linejoin="round"/>
<path opacity="0.2" d="M47.1543 66.0546C47.1543 66.0546 48.6979 75.2066 44.1069 81.5954C39.516 87.9842 36.1412 89.5812 34.5688 91.4772C32.9965 93.3731 26.6742 104.078 26.6742 104.078L20.8471 83.9542L28.7834 59.7714L47.1543 66.0546Z" fill="black" fill-opacity="0.7"/>
<g clip-path="url(#clip1_834_44585)">
<path d="M44.2387 28.7705L24.6562 35.5728L34.987 64.7689L54.5695 57.9666L44.2387 28.7705Z" fill="white" stroke="#263238" stroke-width="0.0891923" stroke-linecap="round" stroke-linejoin="round"/>
<path d="M26.8278 37.0518L31.9212 35.271" stroke="#263238" stroke-width="0.178385" stroke-linecap="round" stroke-linejoin="round"/>
<path d="M27.173 38.02L30.6365 36.8077" stroke="#263238" stroke-width="0.178385" stroke-linecap="round" stroke-linejoin="round"/>
<path d="M29.2321 39.8777L43.8817 34.7541" stroke="#263238" stroke-width="0.178385" stroke-linecap="round" stroke-linejoin="round"/>
<path d="M29.5753 40.8451L44.2255 35.7238" stroke="#263238" stroke-width="0.178385" stroke-linecap="round" stroke-linejoin="round"/>
<path d="M29.9795 41.9756L42.4734 37.6081" stroke="#263238" stroke-width="0.178385" stroke-linecap="round" stroke-linejoin="round"/>
<path d="M31.6016 42.5677L30.4102 42.9844L30.8312 44.1663L32.0226 43.7497L31.6016 42.5677Z" stroke="#263238" stroke-width="0.0891923" stroke-linecap="round" stroke-linejoin="round"/>
<path d="M33.7617 41.8124L32.5703 42.229L32.9913 43.4109L34.1828 42.9943L33.7617 41.8124Z" stroke="#263238" stroke-width="0.0891923" stroke-linecap="round" stroke-linejoin="round"/>
<path d="M35.9219 41.0565L34.7305 41.4731L35.1515 42.6551L36.3429 42.2384L35.9219 41.0565Z" stroke="#263238" stroke-width="0.0891923" stroke-linecap="round" stroke-linejoin="round"/>
<path d="M38.0781 40.3011L36.8867 40.7178L37.3078 41.8997L38.4992 41.4831L38.0781 40.3011Z" stroke="#263238" stroke-width="0.0891923" stroke-linecap="round" stroke-linejoin="round"/>
<path d="M28.4513 40.1454C28.4728 40.2041 28.4763 40.2679 28.4612 40.3286C28.4461 40.3893 28.4132 40.4441 28.3666 40.4862C28.32 40.5282 28.2618 40.5556 28.1994 40.5647C28.1371 40.5739 28.0734 40.5644 28.0165 40.5376C27.9595 40.5108 27.9119 40.4677 27.8796 40.414C27.8474 40.3602 27.832 40.2982 27.8354 40.2358C27.8388 40.1734 27.8608 40.1134 27.8987 40.0634C27.9365 40.0135 27.9885 39.9758 28.0481 39.9553C28.1269 39.9281 28.2134 39.9328 28.2889 39.9684C28.3643 40.0039 28.4227 40.0675 28.4513 40.1454Z" fill="#263238"/>
<path d="M31.2458 45.5345L45.8954 40.4108" stroke="#263238" stroke-width="0.178385" stroke-linecap="round" stroke-linejoin="round"/>
<path d="M31.5928 46.5023L46.2431 41.381" stroke="#263238" stroke-width="0.178385" stroke-linecap="round" stroke-linejoin="round"/>
<path d="M31.9938 47.6338L44.487 43.2637" stroke="#263238" stroke-width="0.178385" stroke-linecap="round" stroke-linejoin="round"/>
<path d="M33.6152 48.221L32.4238 48.6377L32.8449 49.8196L34.0363 49.403L33.6152 48.221Z" stroke="#263238" stroke-width="0.0891923" stroke-linecap="round" stroke-linejoin="round"/>
<path d="M35.7774 47.4681L34.5859 47.8848L35.007 49.0667L36.1984 48.6501L35.7774 47.4681Z" stroke="#263238" stroke-width="0.0891923" stroke-linecap="round" stroke-linejoin="round"/>
<path d="M37.9336 46.7127L36.7422 47.1294L37.1632 48.3113L38.3546 47.8947L37.9336 46.7127Z" stroke="#263238" stroke-width="0.0891923" stroke-linecap="round" stroke-linejoin="round"/>
<path d="M40.0957 45.9593L38.9043 46.376L39.3253 47.5579L40.5167 47.1413L40.0957 45.9593Z" stroke="#263238" stroke-width="0.0891923" stroke-linecap="round" stroke-linejoin="round"/>
<path d="M30.4658 45.8064C30.4868 45.8652 30.4898 45.9289 30.4744 45.9894C30.4589 46.0499 30.4256 46.1044 30.3788 46.1462C30.332 46.1879 30.2738 46.2148 30.2115 46.2237C30.1492 46.2325 30.0856 46.2227 30.0289 46.1957C29.9721 46.1687 29.9248 46.1255 29.8927 46.0718C29.8607 46.018 29.8455 45.956 29.8491 45.8937C29.8526 45.8314 29.8747 45.7715 29.9126 45.7217C29.9505 45.6719 30.0025 45.6344 30.062 45.6139C30.1412 45.5866 30.2281 45.5916 30.3038 45.6276C30.3794 45.6637 30.4377 45.7279 30.4658 45.8064Z" fill="#263238"/>
<path d="M33.2628 51.1903L47.913 46.0689" stroke="#263238" stroke-width="0.178385" stroke-linecap="round" stroke-linejoin="round"/>
<path d="M33.6032 52.1605L48.2504 47.0373" stroke="#263238" stroke-width="0.178385" stroke-linecap="round" stroke-linejoin="round"/>
<path d="M34.0094 53.2929L46.5026 48.9229" stroke="#263238" stroke-width="0.178385" stroke-linecap="round" stroke-linejoin="round"/>
<path d="M35.6309 53.8802L34.4395 54.2969L34.8605 55.4788L36.0519 55.0622L35.6309 53.8802Z" stroke="#263238" stroke-width="0.0891923" stroke-linecap="round" stroke-linejoin="round"/>
<path d="M37.793 53.1249L36.6016 53.5415L37.0226 54.7234L38.214 54.3068L37.793 53.1249Z" stroke="#263238" stroke-width="0.0891923" stroke-linecap="round" stroke-linejoin="round"/>
<path d="M39.9531 52.3714L38.7617 52.7881L39.1828 53.97L40.3742 53.5534L39.9531 52.3714Z" stroke="#263238" stroke-width="0.0891923" stroke-linecap="round" stroke-linejoin="round"/>
<path d="M42.1113 51.6161L40.9199 52.0327L41.341 53.2146L42.5324 52.798L42.1113 51.6161Z" stroke="#263238" stroke-width="0.0891923" stroke-linecap="round" stroke-linejoin="round"/>
<path d="M32.4814 51.4631C32.5025 51.5219 32.5055 51.5856 32.49 51.6461C32.4745 51.7066 32.4413 51.7612 32.3945 51.8029C32.3477 51.8446 32.2894 51.8716 32.2271 51.8804C32.1648 51.8892 32.1013 51.8795 32.0445 51.8524C31.9878 51.8254 31.9404 51.7823 31.9084 51.7285C31.8764 51.6747 31.8612 51.6127 31.8647 51.5504C31.8682 51.4881 31.8904 51.4282 31.9283 51.3784C31.9662 51.3286 32.0181 51.2911 32.0776 51.2707C32.1568 51.2434 32.2438 51.2483 32.3194 51.2844C32.3951 51.3204 32.4533 51.3847 32.4814 51.4631Z" fill="#263238"/>
<path d="M35.3331 57.0057L49.9809 51.8849" stroke="#263238" stroke-width="0.178385" stroke-linecap="round" stroke-linejoin="round"/>
<path d="M35.6768 57.9755L50.3246 52.8546" stroke="#263238" stroke-width="0.178385" stroke-linecap="round" stroke-linejoin="round"/>
<path d="M36.0791 59.1079L48.573 54.7403" stroke="#263238" stroke-width="0.178385" stroke-linecap="round" stroke-linejoin="round"/>
<path d="M37.7051 59.6976L36.5137 60.1143L36.9347 61.2962L38.1261 60.8796L37.7051 59.6976Z" stroke="#263238" stroke-width="0.0891923" stroke-linecap="round" stroke-linejoin="round"/>
<path d="M39.8613 58.9447L38.6699 59.3613L39.091 60.5433L40.2824 60.1266L39.8613 58.9447Z" stroke="#263238" stroke-width="0.0891923" stroke-linecap="round" stroke-linejoin="round"/>
<path d="M42.0234 58.1893L40.832 58.606L41.2531 59.7879L42.4445 59.3712L42.0234 58.1893Z" stroke="#263238" stroke-width="0.0891923" stroke-linecap="round" stroke-linejoin="round"/>
<path d="M44.1816 57.4334L42.9902 57.8501L43.4113 59.032L44.6027 58.6154L44.1816 57.4334Z" stroke="#263238" stroke-width="0.0891923" stroke-linecap="round" stroke-linejoin="round"/>
<path d="M34.5639 57.2771C34.5848 57.3353 34.5878 57.3984 34.5725 57.4583C34.5573 57.5183 34.5244 57.5724 34.4782 57.6138C34.4319 57.6552 34.3743 57.682 34.3126 57.691C34.251 57.6999 34.188 57.6905 34.1317 57.6639C34.0754 57.6374 34.0282 57.5949 33.9963 57.5418C33.9643 57.4887 33.9488 57.4275 33.952 57.3657C33.9551 57.304 33.9766 57.2446 34.0137 57.1949C34.0509 57.1453 34.102 57.1078 34.1607 57.087C34.1998 57.0732 34.2412 57.0672 34.2826 57.0693C34.324 57.0713 34.3646 57.0815 34.402 57.0991C34.4395 57.1168 34.473 57.1416 34.5008 57.1721C34.5286 57.2027 34.5501 57.2383 34.5639 57.2771Z" fill="#263238"/>
<path d="M31.0069 43.3073L31.2655 43.5025L31.6044 42.5691" stroke="#263238" stroke-width="0.178385" stroke-linecap="round" stroke-linejoin="round"/>
<path d="M37.3135 47.3815L37.5728 47.5791L37.911 46.6433" stroke="#263238" stroke-width="0.178385" stroke-linecap="round" stroke-linejoin="round"/>
<path d="M37.208 53.9103L37.4697 54.1073L37.8055 53.1722" stroke="#263238" stroke-width="0.178385" stroke-linecap="round" stroke-linejoin="round"/>
<path d="M43.5557 58.1828L43.815 58.3803L44.1532 57.4446" stroke="#263238" stroke-width="0.178385" stroke-linecap="round" stroke-linejoin="round"/>
</g>
<path d="M42.6398 62.0803C43.4872 59.6494 46.7081 51.8919 46.5 48.3821C46.484 48.09 46.4306 47.8009 46.3408 47.522C45.4666 44.8671 41.374 44.9256 39.7051 47.0116C37.8699 49.3058 36.2687 53.514 36.0173 56.103C35.8459 57.3982 35.3579 58.6323 34.5954 59.6988C34.3322 60.094 34.0384 60.4683 33.7166 60.8184L25.4486 38.5704C24.4719 39.2988 23.6081 40.164 22.8843 41.1388C22.4771 41.6821 22.2012 42.3103 22.0777 42.9755C21.7847 45.1238 18.8999 53.8333 17.6992 57.5108C17.6767 57.59 17.6482 57.6628 17.6258 57.7389C16.4695 61.2733 18.4381 74.699 17.5087 78.5253C16.5792 82.3515 16.1246 82.2465 15.8848 84.9842C15.7114 86.9838 12.52 92.9388 8.96223 99.037C6.91991 102.529 4.77527 106.069 3.00295 108.947L26.8591 109.103C27.4071 106.263 27.9748 103.269 28.5008 100.365C28.7268 99.1582 29.0216 97.9646 29.3839 96.7903C30.0078 94.7195 30.7375 92.8545 31.1866 91.7639C31.7693 90.157 32.2647 88.5205 32.6707 86.8613C35.5756 84.099 39.4237 79.7197 40.6217 76.6878L40.6228 76.6662C40.9108 76.0445 41.0256 75.3578 40.9551 74.6773C40.8653 74.1168 40.8285 73.5494 40.845 72.9823C40.8955 69.6239 41.9306 64.1038 42.6398 62.0803Z" fill="white"/>
<path opacity="0.8" d="M34.6004 59.7163C33.7944 61.1452 32.8375 62.5268 32.2011 64.1398C31.5646 65.7529 30.9326 65.9575 29.2056 67.1604C27.4787 68.3632 26.3625 66.1941 26.3625 66.1941C26.3625 66.1941 28.676 64.0338 28.0027 62.7415C27.3294 61.4491 24.7236 58.1898 24.9686 56.4593C25.2136 54.7287 23.5728 50.7709 23.5728 50.7709C23.5728 50.7709 27.8462 48.5587 27.1728 45.691C26.8059 44.1383 24.7001 42.3947 22.8839 41.1375C23.6077 40.1627 24.4716 39.2975 25.4482 38.5691L33.7216 60.8359C34.0434 60.4858 34.3372 60.1115 34.6004 59.7163Z" fill="#FFE4C8"/>
<path opacity="0.8" d="M18.8632 72.3862C18.9106 72.5738 20.0541 77.0579 18.8247 78.8435C17.5953 80.6291 16.3063 83.0111 16.7455 85.5403C17.0935 87.5585 13.0096 94.5923 8.9707 99.0397C12.5191 92.9411 15.7105 86.9861 15.8933 84.9869C16.133 82.2491 16.5877 82.3542 17.5171 78.5279C18.4466 74.7017 16.4624 61.2752 17.6343 57.7416C17.6567 57.6654 17.6852 57.5927 17.7077 57.5134C18.2414 61.607 19.5505 69.7717 19.8917 72.392C20.3145 75.7266 18.9193 72.5217 18.8632 72.3862Z" fill="#FFE4C8"/>
<path opacity="0.8" d="M26.169 99.4432C29.4964 87.8079 39.2385 79.224 40.6231 76.6735C39.425 79.7055 35.5801 84.0849 32.672 86.847C32.2661 88.5063 31.7707 90.1428 31.1879 91.7496C30.7451 92.8406 30.0154 94.7056 29.3852 96.7761C26.5399 99.7976 26.169 99.4432 26.169 99.4432Z" fill="#FFE4C8"/>
<path opacity="0.8" d="M42.6396 62.082C41.9179 64.105 40.8953 69.6257 40.855 72.9692C40.4651 70.847 39.6496 68.1424 39.6701 64.4273C39.7042 58.1274 43.2032 60.5551 42.0934 57.3979C40.9836 54.2406 37.2101 58.0396 39.2879 51.5683C40.8075 46.8403 44.4741 47.0612 46.3406 47.5238C46.4304 47.8027 46.4839 48.0917 46.4998 48.3839C46.7079 51.8936 43.4867 59.6574 42.6396 62.082Z" fill="#FFE4C8"/>
<path d="M33.7224 60.8353C33.1066 61.886 32.5933 62.9921 32.1893 64.1389C31.7275 65.6307 29.763 65.321 28.6982 66.2094" stroke="#263238" stroke-width="0.0891923" stroke-linecap="round" stroke-linejoin="round"/>
<path d="M26.3984 57.8257C26.3984 57.8257 29.0436 58.8784 30.5486 60.1703C32.0536 61.4622 33.1977 61.7977 33.1977 61.7977" stroke="#263238" stroke-width="0.0891923" stroke-linecap="round" stroke-linejoin="round"/>
<path d="M24.9995 51.1648C24.9995 51.1648 27.139 51.8691 28.7816 51.1904C28.8909 50.4248 29.0638 49.6694 29.2988 48.932" stroke="#263238" stroke-width="0.0891923" stroke-linecap="round" stroke-linejoin="round"/>
<path d="M29.2832 51.5234C29.2832 51.5234 29.2904 51.8327 30.3947 51.8853" stroke="#263238" stroke-width="0.0891923" stroke-linecap="round" stroke-linejoin="round"/>
<path d="M32.6684 86.8531C31.0842 88.2858 29.8354 90.0427 29.0089 92.0017" stroke="#263238" stroke-width="0.0891923" stroke-linecap="round" stroke-linejoin="round"/>
<path d="M17.466 58.3888C17.2812 60.2334 19.1622 66.8963 19.6746 70.1888C20.187 73.4813 20.3237 75.7984 20.3237 75.7984" stroke="#263238" stroke-width="0.0891923" stroke-linecap="round" stroke-linejoin="round"/>
<path d="M6.93993 102.617C10.1976 97.3729 13.3473 91.9658 15.7378 86.0838C16.0315 85.236 15.7478 84.1012 16.0414 83.2533C19.2376 75.6212 16.4154 67.3845 17.3212 59.4581C17.9103 56.3446 19.0746 53.2338 20.242 50.1232C20.8282 47.8591 21.1276 45.3126 22.0014 43.0498C22.8701 41.3551 23.7397 39.3763 25.4567 38.5808C28.2959 45.9348 31.1241 53.3224 33.7301 60.8476C35.1015 60.1499 35.4073 58.4563 35.6906 57.0365C36.5715 53.6404 37.4482 50.5282 38.8989 47.706C40.3448 45.4457 43.7923 44.6183 45.7891 46.6161C46.3599 47.2368 46.6642 48.0522 46.6376 48.8898C46.0425 52.8525 44.584 56.8234 43.1308 60.4857C42.5466 62.1816 41.9665 63.5965 41.6699 65.2937C41.668 65.8589 41.6639 66.1429 41.6618 66.7112C40.7862 69.5392 41.3463 72.0926 41.0425 74.9262C40.1527 80.0208 35.8336 83.3923 32.6481 87.0555C31.7724 89.8835 30.8937 92.7113 29.7429 95.5386C28.2903 99.7786 27.6878 104.028 27.063 108.153" stroke="#263238" stroke-width="0.0891923" stroke-linecap="round" stroke-linejoin="round"/>
<g clip-path="url(#clip2_834_44585)">
<path d="M81.7174 23.8742L55.8613 22.6436L54.0197 61.3275L79.8759 62.5582L81.7174 23.8742Z" fill="white" stroke="#263238" stroke-width="0.0891923" stroke-linecap="round" stroke-linejoin="round"/>
<path d="M57.6712 25.3686L64.4017 25.6754" stroke="#263238" stroke-width="0.178385" stroke-linecap="round" stroke-linejoin="round"/>
<path d="M57.6159 26.6565L62.1933 26.8634" stroke="#263238" stroke-width="0.178385" stroke-linecap="round" stroke-linejoin="round"/>
<path d="M59.1162 29.7669L78.4753 30.647" stroke="#263238" stroke-width="0.178385" stroke-linecap="round" stroke-linejoin="round"/>
<path d="M59.06 31.051L78.4187 31.9341" stroke="#263238" stroke-width="0.178385" stroke-linecap="round" stroke-linejoin="round"/>
<path d="M58.9909 32.552L75.5002 33.3051" stroke="#263238" stroke-width="0.178385" stroke-linecap="round" stroke-linejoin="round"/>
<path d="M60.5881 33.9935L59.0137 33.9219L58.9424 35.4892L60.5168 35.5609L60.5881 33.9935Z" stroke="#263238" stroke-width="0.0891923" stroke-linecap="round" stroke-linejoin="round"/>
<path d="M63.4357 34.1224L61.8613 34.0508L61.79 35.6181L63.3644 35.6898L63.4357 34.1224Z" stroke="#263238" stroke-width="0.0891923" stroke-linecap="round" stroke-linejoin="round"/>
<path d="M66.2951 34.2494L64.7207 34.1777L64.6494 35.7451L66.2238 35.8167L66.2951 34.2494Z" stroke="#263238" stroke-width="0.0891923" stroke-linecap="round" stroke-linejoin="round"/>
<path d="M69.1506 34.3807L67.5762 34.3091L67.5049 35.8764L69.0793 35.9481L69.1506 34.3807Z" stroke="#263238" stroke-width="0.0891923" stroke-linecap="round" stroke-linejoin="round"/>
<path d="M58.0882 29.7183C58.0854 29.7965 58.0593 29.8721 58.0132 29.9355C57.9671 29.9989 57.9031 30.0472 57.8294 30.0743C57.7556 30.1014 57.6754 30.106 57.599 30.0875C57.5226 30.0691 57.4534 30.0285 57.4002 29.9708C57.347 29.9132 57.3123 29.841 57.3004 29.7637C57.2885 29.6863 57.2999 29.6072 57.3333 29.5363C57.3667 29.4655 57.4205 29.4061 57.4879 29.3658C57.5553 29.3255 57.6332 29.3061 57.7117 29.31C57.8158 29.3152 57.9136 29.3609 57.9841 29.4373C58.0545 29.5137 58.0919 29.6147 58.0882 29.7183Z" fill="#263238"/>
<path d="M58.7744 37.2655L78.1336 38.1454" stroke="#263238" stroke-width="0.178385" stroke-linecap="round" stroke-linejoin="round"/>
<path d="M58.7182 38.552L78.0769 39.4349" stroke="#263238" stroke-width="0.178385" stroke-linecap="round" stroke-linejoin="round"/>
<path d="M58.6506 40.0555L75.1603 40.8054" stroke="#263238" stroke-width="0.178385" stroke-linecap="round" stroke-linejoin="round"/>
<path d="M60.2463 41.4925L58.6719 41.4209L58.6006 42.9883L60.175 43.0599L60.2463 41.4925Z" stroke="#263238" stroke-width="0.0891923" stroke-linecap="round" stroke-linejoin="round"/>
<path d="M63.0998 41.6263L61.5254 41.5547L61.4541 43.1221L63.0285 43.1937L63.0998 41.6263Z" stroke="#263238" stroke-width="0.0891923" stroke-linecap="round" stroke-linejoin="round"/>
<path d="M65.9514 41.7533L64.377 41.6816L64.3057 43.249L65.8801 43.3206L65.9514 41.7533Z" stroke="#263238" stroke-width="0.0891923" stroke-linecap="round" stroke-linejoin="round"/>
<path d="M68.8068 41.8846L67.2324 41.813L67.1611 43.3804L68.7355 43.452L68.8068 41.8846Z" stroke="#263238" stroke-width="0.0891923" stroke-linecap="round" stroke-linejoin="round"/>
<path d="M57.7463 37.2219C57.7429 37.2999 57.7163 37.3752 57.6698 37.4382C57.6233 37.5012 57.5591 37.549 57.4853 37.5756C57.4115 37.6022 57.3314 37.6063 57.2552 37.5875C57.179 37.5688 57.1101 37.5279 57.0573 37.4701C57.0044 37.4122 56.97 37.3401 56.9584 37.2628C56.9468 37.1855 56.9584 37.1066 56.992 37.0359C57.0255 36.9653 57.0793 36.9061 57.1467 36.866C57.214 36.8259 57.2918 36.8065 57.3702 36.8105C57.4748 36.8158 57.573 36.862 57.6434 36.9391C57.7139 37.0161 57.7508 37.1178 57.7463 37.2219Z" fill="#263238"/>
<path d="M58.433 44.7688L77.7918 45.6517" stroke="#263238" stroke-width="0.178385" stroke-linecap="round" stroke-linejoin="round"/>
<path d="M58.374 46.054L77.7301 46.9335" stroke="#263238" stroke-width="0.178385" stroke-linecap="round" stroke-linejoin="round"/>
<path d="M58.3088 47.5545L74.8186 48.3044" stroke="#263238" stroke-width="0.178385" stroke-linecap="round" stroke-linejoin="round"/>
<path d="M59.9045 48.994L58.3301 48.9224L58.2588 50.4897L59.8332 50.5614L59.9045 48.994Z" stroke="#263238" stroke-width="0.0891923" stroke-linecap="round" stroke-linejoin="round"/>
<path d="M62.7561 49.1253L61.1816 49.0537L61.1103 50.6211L62.6848 50.6927L62.7561 49.1253Z" stroke="#263238" stroke-width="0.0891923" stroke-linecap="round" stroke-linejoin="round"/>
<path d="M65.6154 49.2572L64.041 49.1855L63.9697 50.7529L65.5441 50.8245L65.6154 49.2572Z" stroke="#263238" stroke-width="0.0891923" stroke-linecap="round" stroke-linejoin="round"/>
<path d="M68.465 49.3836L66.8906 49.312L66.8193 50.8794L68.3937 50.951L68.465 49.3836Z" stroke="#263238" stroke-width="0.0891923" stroke-linecap="round" stroke-linejoin="round"/>
<path d="M57.4025 44.7233C57.3991 44.8014 57.3725 44.8767 57.326 44.9397C57.2796 45.0026 57.2154 45.0505 57.1416 45.077C57.0678 45.1036 56.9877 45.1078 56.9115 45.089C56.8353 45.0702 56.7664 45.0293 56.7135 44.9715C56.6607 44.9137 56.6263 44.8416 56.6146 44.7643C56.603 44.687 56.6147 44.608 56.6482 44.5374C56.6817 44.4667 56.7356 44.4076 56.8029 44.3674C56.8703 44.3273 56.9481 44.308 57.0265 44.312C57.131 44.3172 57.2292 44.3635 57.2997 44.4405C57.3701 44.5176 57.4071 44.6192 57.4025 44.7233Z" fill="#263238"/>
<path d="M58.0853 52.4822L77.441 53.3647" stroke="#263238" stroke-width="0.178385" stroke-linecap="round" stroke-linejoin="round"/>
<path d="M58.0268 53.7693L77.3825 54.6518" stroke="#263238" stroke-width="0.178385" stroke-linecap="round" stroke-linejoin="round"/>
<path d="M57.9557 55.2698L74.465 56.0227" stroke="#263238" stroke-width="0.178385" stroke-linecap="round" stroke-linejoin="round"/>
<path d="M59.5568 56.7123L57.9824 56.6406L57.9111 58.208L59.4855 58.2796L59.5568 56.7123Z" stroke="#263238" stroke-width="0.0891923" stroke-linecap="round" stroke-linejoin="round"/>
<path d="M62.4084 56.8412L60.834 56.7695L60.7627 58.3369L62.3371 58.4085L62.4084 56.8412Z" stroke="#263238" stroke-width="0.0891923" stroke-linecap="round" stroke-linejoin="round"/>
<path d="M65.26 56.9706L63.6855 56.8989L63.6143 58.4663L65.1887 58.5379L65.26 56.9706Z" stroke="#263238" stroke-width="0.0891923" stroke-linecap="round" stroke-linejoin="round"/>
<path d="M68.1193 57.0995L66.5449 57.0278L66.4736 58.5952L68.048 58.6668L68.1193 57.0995Z" stroke="#263238" stroke-width="0.0891923" stroke-linecap="round" stroke-linejoin="round"/>
<path d="M57.0687 52.4385C57.0653 52.5158 57.039 52.5904 56.993 52.6528C56.9471 52.7152 56.8836 52.7626 56.8105 52.7891C56.7375 52.8156 56.6582 52.82 56.5827 52.8016C56.5071 52.7832 56.4388 52.743 56.3862 52.686C56.3336 52.6289 56.2992 52.5577 56.2873 52.4812C56.2753 52.4047 56.2864 52.3264 56.3192 52.2562C56.3519 52.1861 56.4049 52.1271 56.4712 52.0869C56.5376 52.0466 56.6145 52.0269 56.6922 52.0302C56.7439 52.0323 56.7946 52.0446 56.8415 52.0663C56.8884 52.088 56.9305 52.1187 56.9655 52.1566C57.0004 52.1945 57.0276 52.239 57.0453 52.2873C57.063 52.3357 57.0709 52.387 57.0687 52.4385Z" fill="#263238"/>
<path d="M59.547 34.5719L59.754 34.9188L60.5865 33.9938" stroke="#263238" stroke-width="0.178385" stroke-linecap="round" stroke-linejoin="round"/>
<path d="M64.9161 42.2389L65.1227 42.5888L65.9556 41.6608" stroke="#263238" stroke-width="0.178385" stroke-linecap="round" stroke-linejoin="round"/>
<path d="M61.7169 49.7672L61.9265 50.1176L62.7564 49.1892" stroke="#263238" stroke-width="0.178385" stroke-linecap="round" stroke-linejoin="round"/>
<path d="M67.0392 57.6783L67.2457 58.0283L68.0787 57.1003" stroke="#263238" stroke-width="0.178385" stroke-linecap="round" stroke-linejoin="round"/>
</g>
<defs>
<clipPath id="clip0_834_44585">
<rect width="23.8896" height="33.0067" fill="white" transform="matrix(0.995413 0.095661 -0.0964725 0.995336 85.6602 34.3394)"/>
</clipPath>
<clipPath id="clip1_834_44585">
<rect width="23.8621" height="33.0454" fill="white" transform="matrix(0.944636 -0.328131 0.333572 0.942721 22.8301 35.1104)"/>
</clipPath>
<clipPath id="clip2_834_44585">
<rect width="29.7961" height="41.323" fill="white" transform="matrix(0.998869 0.0475432 -0.0475523 0.998869 53.9668 21.2534)"/>
</clipPath>
</defs>
</svg>
