<svg width="146" height="132" viewBox="0 0 146 132" fill="none" xmlns="http://www.w3.org/2000/svg">
<path d="M145.731 64.0412L145.705 64.2978C143.211 87.8056 126.405 105.434 102.486 106.525C90.027 107.088 79.5045 119.786 69.0355 125.908C32.9366 147.012 2.89743 106.806 0.172425 75.6625C-2.28674 47.5618 22.0177 16.5396 48.1841 5.60394C71.1847 -4.01585 97.4633 -0.594078 117 10.8682C118.96 12.0158 120.856 13.2545 122.69 14.5845C137.98 25.6677 147.775 43.8387 145.731 64.0412Z" fill="white"/>
<g clip-path="url(#clip0_834_46155)">
<path d="M144.777 101.953H91.4614V70.8403H144.777V101.953ZM91.7868 101.625H144.452V71.1683H91.7868V101.625Z" fill="#E0E0E0"/>
<path d="M133.775 87.4276H98.5944V88.4675H133.775V87.4276Z" fill="#F0F0F0"/>
<path d="M136.199 91.3086H98.5944V92.4435H136.199V91.3086Z" fill="#F0F0F0"/>
<path d="M136.199 95.2316H98.5944V96.3665H136.199V95.2316Z" fill="#F0F0F0"/>
<path d="M110.89 81.7986H98.5944V84.4981H110.89V81.7986Z" fill="#F0F0F0"/>
<path d="M144.616 71.0039H91.6255V75.9569H144.616V71.0039Z" fill="#E0E0E0"/>
<path d="M140.539 75.219C140.47 75.1533 141.154 74.3235 142.061 73.3624C142.969 72.4013 143.766 71.6797 143.831 71.7453C143.896 71.8109 143.216 72.6408 142.309 73.5986C141.401 74.5564 140.604 75.2813 140.539 75.219Z" fill="white"/>
<path d="M143.831 75.2189C143.766 75.2812 142.972 74.5629 142.061 73.5986C141.15 72.6342 140.47 71.8109 140.539 71.7453C140.607 71.6797 141.398 72.4013 142.309 73.3624C143.22 74.3235 143.9 75.1533 143.831 75.2189Z" fill="white"/>
<path d="M79.1583 9.4026H26.1677V40.187H79.1583V9.4026Z" fill="#E6E6E6"/>
<path d="M68.3214 25.8259H33.1405V26.8657H68.3214V25.8259Z" fill="#F0F0F0"/>
<path d="M70.7453 29.7029H33.1405V30.8379H70.7453V29.7029Z" fill="#F0F0F0"/>
<path d="M70.7453 33.6259H33.1405V34.7608H70.7453V33.6259Z" fill="#F0F0F0"/>
<path d="M45.4358 20.1939H33.1405V22.8934H45.4358V20.1939Z" fill="#F0F0F0"/>
<path d="M79.1583 9.4026H26.1677V14.3556H79.1583V9.4026Z" fill="#E0E0E0"/>
<path d="M74.9042 13.5914C74.8358 13.5258 75.5191 12.6959 76.4268 11.7381C77.3346 10.7804 78.1285 10.0555 78.1968 10.1178C78.2651 10.1801 77.5819 11.0132 76.6709 11.9743C75.7599 12.9354 74.9692 13.6669 74.9042 13.5914Z" fill="white"/>
<path d="M78.1958 13.5913C78.1275 13.6569 77.3369 12.9353 76.4259 11.9742C75.5149 11.0132 74.8349 10.1833 74.9032 10.1177C74.9715 10.0521 75.7622 10.7737 76.6699 11.7381C77.5777 12.7024 78.2642 13.5257 78.1958 13.5913Z" fill="white"/>
<path d="M59.0906 66.5884H5.77457V35.476H59.0906V66.5884ZM6.09994 66.2604H58.7652V35.8041H6.09994V66.2604Z" fill="#E0E0E0"/>
<path d="M48.0904 52.0639H12.9095V53.1037H48.0904V52.0639Z" fill="#F0F0F0"/>
<path d="M50.5143 55.9409H12.9095V57.0759H50.5143V55.9409Z" fill="#F0F0F0"/>
<path d="M50.5143 59.8639H12.9095V60.9988H50.5143V59.8639Z" fill="#F0F0F0"/>
<path d="M25.2048 46.4314H12.9095V49.131H25.2048V46.4314Z" fill="#F0F0F0"/>
<path d="M58.9283 35.6406H5.93766V40.5937H58.9283V35.6406Z" fill="#E0E0E0"/>
<path d="M120.622 73.7168H58.0523V130.188H120.622V73.7168Z" fill="#E6E6E6"/>
<path d="M61.1976 55.9278H12.1839V107.265H61.1976V55.9278Z" fill="#F0F0F0"/>
<path d="M61.1976 55.9278H12.1839V61.5203H61.1976V55.9278Z" fill="#E0E0E0"/>
<path d="M16.2311 58.6664C16.2221 58.8703 16.1539 59.067 16.0348 59.232C15.9158 59.397 15.7512 59.5231 15.5615 59.5945C15.3719 59.6659 15.1656 59.6795 14.9684 59.6335C14.7712 59.5875 14.5918 59.4841 14.4524 59.336C14.3131 59.188 14.2201 59.0019 14.185 58.8009C14.1498 58.5999 14.1741 58.393 14.2549 58.2058C14.3356 58.0187 14.4691 57.8596 14.6389 57.7485C14.8086 57.6373 15.0071 57.5789 15.2095 57.5807C15.4874 57.5893 15.7506 57.7082 15.942 57.9115C16.1333 58.1149 16.2372 58.3862 16.2311 58.6664Z" fill="white"/>
<path d="M20.4158 58.6664C20.4068 58.87 20.3388 59.0664 20.22 59.2313C20.1012 59.3962 19.937 59.5223 19.7478 59.5939C19.5585 59.6655 19.3526 59.6795 19.1555 59.6341C18.9584 59.5887 18.779 59.4859 18.6394 59.3384C18.4998 59.191 18.4063 59.0055 18.3704 58.805C18.3345 58.6044 18.3579 58.3977 18.4376 58.2104C18.5173 58.0231 18.6499 57.8636 18.8188 57.7516C18.9877 57.6397 19.1855 57.5802 19.3876 57.5806C19.6667 57.5875 19.9316 57.7057 20.1243 57.9092C20.3171 58.1127 20.4219 58.385 20.4158 58.6664Z" fill="white"/>
<path d="M24.5809 58.6664C24.572 58.8698 24.504 59.0662 24.3854 59.231C24.2668 59.3959 24.1027 59.522 23.9137 59.5937C23.7246 59.6654 23.5188 59.6795 23.3218 59.6344C23.1249 59.5892 22.9454 59.4867 22.8057 59.3396C22.6659 59.1926 22.5721 59.0073 22.5359 58.807C22.4997 58.6066 22.5226 58.4 22.6018 58.2126C22.681 58.0253 22.8131 57.8655 22.9815 57.7532C23.15 57.6408 23.3475 57.5808 23.5495 57.5806C23.688 57.5836 23.8245 57.6141 23.9512 57.6703C24.078 57.7264 24.1926 57.8073 24.2883 57.9081C24.3841 58.0089 24.4592 58.1278 24.5094 58.2579C24.5596 58.388 24.5839 58.5268 24.5809 58.6664Z" fill="white"/>
<path d="M137.78 20.6304H75.21V83.4982H137.78V20.6304Z" fill="#F0F0F0"/>
<path d="M137.78 20.6304H75.21V27.9944H137.78V20.6304Z" fill="#E0E0E0"/>
<path d="M80.5393 24.2384C80.5272 24.5059 80.4374 24.764 80.2812 24.9805C80.125 25.1971 79.9091 25.3627 79.6604 25.4567C79.4116 25.5508 79.141 25.5691 78.882 25.5095C78.623 25.4499 78.3871 25.315 78.2035 25.1214C78.0199 24.9279 77.8967 24.6843 77.8492 24.4208C77.8016 24.1573 77.8319 23.8855 77.9361 23.6392C78.0404 23.3929 78.2141 23.1828 78.4357 23.0351C78.6572 22.8874 78.9169 22.8085 79.1826 22.8082C79.5505 22.8168 79.9 22.9723 80.1543 23.2404C80.4087 23.5085 80.5471 23.8674 80.5393 24.2384Z" fill="white"/>
<path d="M85.6376 23.2704C85.8183 23.4676 85.9375 23.714 85.9803 23.979C86.023 24.2439 85.9875 24.5157 85.8782 24.7605C85.7688 25.0053 85.5904 25.2122 85.3652 25.3554C85.14 25.4987 84.878 25.572 84.6118 25.5662C84.3456 25.5604 84.0869 25.4757 83.8681 25.3227C83.6493 25.1698 83.48 24.9553 83.3812 24.706C83.2825 24.4567 83.2587 24.1836 83.3128 23.9207C83.3669 23.6579 83.4965 23.4169 83.6855 23.2278C83.9507 22.9738 84.3046 22.8357 84.6703 22.8437C85.036 22.8517 85.3837 23.0051 85.6376 23.2704Z" fill="white"/>
<path d="M91.5308 24.2384C91.5187 24.5059 91.429 24.764 91.2728 24.9805C91.1165 25.1971 90.9006 25.3627 90.6519 25.4567C90.4032 25.5508 90.1325 25.5691 89.8736 25.5095C89.6146 25.4499 89.3786 25.315 89.195 25.1214C89.0114 24.9279 88.8882 24.6843 88.8407 24.4208C88.7931 24.1573 88.8234 23.8855 88.9276 23.6392C89.0319 23.3929 89.2056 23.1828 89.4272 23.0351C89.6488 22.8874 89.9085 22.8085 90.1741 22.8082C90.542 22.8168 90.8915 22.9723 91.1459 23.2404C91.4003 23.5085 91.5387 23.8674 91.5308 24.2384Z" fill="white"/>
<path d="M124.263 122.254C124.263 122.299 101.669 122.339 73.8036 122.339C45.9385 122.339 23.3444 122.299 23.3444 122.254C23.3444 122.208 45.9352 122.168 73.8069 122.168C101.679 122.168 124.263 122.204 124.263 122.254Z" fill="#263238"/>
<path d="M113.753 17.8059L112.077 18.4127L111.358 16.2052C110.037 12.1346 105.827 9.97299 101.959 11.3474C98.0902 12.7217 96.0307 17.1859 97.3516 21.2566L98.0706 23.4641L96.3885 24.0709C95.7471 24.3217 95.2263 24.8121 94.9342 25.44C94.6421 26.068 94.6014 26.7853 94.8203 27.4428L99.4827 41.8064C99.5795 42.1319 99.7402 42.4345 99.9552 42.6961C100.17 42.9578 100.435 43.1732 100.735 43.3295C101.034 43.4859 101.361 43.58 101.697 43.6063C102.033 43.6326 102.371 43.5905 102.691 43.4826L120.055 37.2176C120.705 36.9679 121.233 36.4738 121.528 35.8393C121.824 35.2049 121.864 34.4796 121.639 33.8161L116.974 19.4525C116.875 19.1276 116.712 18.8262 116.495 18.5662C116.278 18.3062 116.011 18.093 115.71 17.9393C115.41 17.7856 115.081 17.6946 114.745 17.6716C114.409 17.6487 114.071 17.6944 113.753 17.8059ZM100.517 20.102C100.161 19.0431 100.225 17.8863 100.695 16.8738C101.166 15.8613 102.007 15.0716 103.042 14.6701C103.553 14.4944 104.094 14.4242 104.633 14.4637C105.172 14.5033 105.697 14.6517 106.178 14.9003C106.658 15.1488 107.084 15.4923 107.431 15.9104C107.777 16.3284 108.036 16.8124 108.192 17.3335L108.918 19.5706L101.243 22.339L100.517 20.102ZM110.278 32.8452L111.469 36.5123C111.492 36.5859 111.485 36.6654 111.45 36.7341C111.416 36.8027 111.356 36.855 111.283 36.8797L109.614 37.4832C109.548 37.5018 109.477 37.4937 109.416 37.4607C109.356 37.4277 109.31 37.3723 109.289 37.3061L108.095 33.6357C107.433 33.5993 106.798 33.3599 106.274 32.9496C105.751 32.5392 105.365 31.9775 105.167 31.3396C104.884 30.4963 104.935 29.5753 105.311 28.7694C105.686 27.9636 106.356 27.3354 107.181 27.0164C107.587 26.8752 108.018 26.8182 108.447 26.8488C108.877 26.8794 109.295 26.9969 109.678 27.1945C110.061 27.392 110.401 27.6654 110.677 27.9983C110.953 28.3313 111.159 28.7169 111.283 29.1321C111.497 29.7839 111.516 30.4845 111.337 31.1469C111.159 31.8094 110.792 32.4045 110.281 32.8583L110.278 32.8452Z" fill="#20446C"/>
<path d="M112.003 18.3739C112.003 18.4166 108.895 19.5974 105.027 20.998C101.158 22.3986 98.0121 23.5073 97.9958 23.4778C97.9796 23.4482 101.103 22.2543 104.972 20.8537C108.84 19.4531 111.986 18.328 112.003 18.3739Z" fill="#263238"/>
<path d="M115.692 18.9771L115.728 19.0624L115.822 19.3215C115.907 19.5576 116.024 19.8922 116.171 20.3055L117.42 23.9694C117.94 25.5242 118.562 27.3676 119.248 29.4144C119.59 30.4443 119.961 31.5104 120.319 32.6387C120.51 33.2185 120.593 33.8292 120.563 34.4395C120.535 34.7568 120.445 35.0655 120.299 35.3481C120.143 35.6285 119.934 35.8758 119.684 36.0763C119.182 36.4515 118.623 36.7417 118.028 36.9357L116.353 37.5458L113.181 38.6905L107.812 40.6192L104.184 41.905L103.208 42.233L102.948 42.3183C102.92 42.3287 102.89 42.3364 102.86 42.3413C102.86 42.3413 102.886 42.3413 102.942 42.3019L103.195 42.2002L104.171 41.8296L107.78 40.4913L113.141 38.5232L116.307 37.3719L117.983 36.7618C118.552 36.5846 119.09 36.3178 119.577 35.9713C119.809 35.7842 120.004 35.5537 120.15 35.2923C120.285 35.0302 120.368 34.7438 120.394 34.4493C120.424 33.8602 120.344 33.2706 120.159 32.7109C119.808 31.5956 119.437 30.5198 119.102 29.4931C118.425 27.4397 117.817 25.593 117.306 24.035C116.795 22.4769 116.402 21.2108 116.109 20.335C115.972 19.9086 115.868 19.574 115.783 19.3313C115.751 19.2231 115.725 19.1378 115.705 19.0689C115.697 19.0391 115.692 19.0082 115.692 18.9771Z" fill="#263238"/>
<path d="M106.53 14.4537C106.53 14.4537 106.357 14.3652 106.039 14.234C105.583 14.0608 105.103 13.9644 104.617 13.9486C103.897 13.9224 103.182 14.0592 102.522 14.3488C101.716 14.7066 101.027 15.2864 100.534 16.0216C100.037 16.7566 99.7704 17.6251 99.769 18.5145C99.7758 19.2415 99.8853 19.9639 100.094 20.6597C100.264 21.26 100.439 21.7356 100.556 22.0636C100.624 22.2323 100.681 22.4054 100.726 22.5818C100.633 22.4255 100.556 22.2607 100.495 22.0898C100.361 21.7618 100.169 21.296 99.9773 20.6958C99.745 19.9906 99.6199 19.2541 99.6064 18.5112C99.5981 17.5894 99.8707 16.6872 100.387 15.9265C100.898 15.1645 101.615 14.5668 102.453 14.2044C103.136 13.9121 103.876 13.7829 104.617 13.8272C105.114 13.8536 105.603 13.9714 106.058 14.1749C106.179 14.232 106.296 14.2967 106.41 14.3685C106.494 14.4209 106.533 14.4472 106.53 14.4537Z" fill="#263238"/>
<path d="M106.679 27.289C106.73 27.2556 106.785 27.2281 106.842 27.207C107.005 27.133 107.174 27.0716 107.346 27.0233C107.621 26.9429 107.904 26.8956 108.189 26.8822C108.577 26.8616 108.965 26.9196 109.331 27.0528C110.164 27.348 110.929 28.2041 111.306 29.3489C111.487 29.9643 111.487 30.6195 111.306 31.2349C111.102 31.905 110.736 32.5135 110.242 33.0062L110.265 32.9209C110.698 34.1149 111.166 35.4171 111.657 36.7718L111.687 36.8538L111.605 36.88L110.86 37.1326L109.233 37.6771L109.152 37.7066L109.126 37.6246C108.68 36.2633 108.192 34.9808 107.825 33.7573L107.893 33.8131C107.258 33.7573 106.653 33.5156 106.152 33.1177C105.698 32.7657 105.325 32.3179 105.059 31.8057C104.824 31.3504 104.705 30.843 104.714 30.3296C104.728 29.8932 104.82 29.463 104.988 29.0602C105.218 28.4905 105.595 27.9933 106.081 27.6203C106.25 27.4817 106.44 27.371 106.644 27.2922C106.459 27.4006 106.281 27.52 106.11 27.6498C105.662 28.0344 105.318 28.5277 105.111 29.0832C104.933 29.5051 104.85 29.9615 104.867 30.4197C104.885 30.8779 105.002 31.3266 105.212 31.7335C105.473 32.2255 105.836 32.6551 106.276 32.9931C106.755 33.3703 107.333 33.5983 107.938 33.6491H107.994V33.7016C108.352 34.9185 108.843 36.1945 109.295 37.5623L109.188 37.5065L110.815 36.9587L111.556 36.7094L111.504 36.8177C111.02 35.463 110.551 34.1608 110.122 32.9636L110.105 32.9176L110.141 32.8783C110.616 32.4064 110.969 31.8241 111.169 31.1825C111.344 30.595 111.344 29.9691 111.169 29.3817C110.815 28.2796 110.083 27.4398 109.289 27.1479C108.937 27.0113 108.562 26.9477 108.186 26.961C107.905 26.9658 107.625 27.0043 107.353 27.0758C106.91 27.1906 106.683 27.3021 106.679 27.289Z" fill="#263238"/>
<g clip-path="url(#clip1_834_46155)">
<path d="M95.4703 102.448L89.262 100.157L83.1137 102.422C82.329 102.798 81.6401 103.026 81.6401 103.778V107.517C81.627 110.138 82.3273 112.712 83.6656 114.963C84.812 116.875 86.5915 118.844 89.3219 120.096C91.8355 119.257 93.7108 117.021 94.8572 115.108C96.1947 112.857 96.8941 110.283 96.88 107.664V104.3C96.88 103.229 96.3308 102.705 95.4703 102.448Z" fill="#F5F5F5"/>
<path d="M93.0525 111.917H91.9127V105.697C91.9127 104.993 91.6335 104.318 91.1364 103.82C90.6393 103.322 89.9651 103.042 89.2621 103.042C88.5591 103.042 87.8849 103.322 87.3879 103.82C86.8908 104.318 86.6115 104.993 86.6115 105.697V111.917H85.4704V105.697C85.457 105.19 85.5451 104.686 85.7296 104.213C85.914 103.741 86.1911 103.31 86.5444 102.947C86.8977 102.583 87.3201 102.294 87.7866 102.097C88.2532 101.9 88.7544 101.798 89.2608 101.798C89.7672 101.798 90.2684 101.9 90.735 102.097C91.2015 102.294 91.6239 102.583 91.9772 102.947C92.3305 103.31 92.6076 103.741 92.792 104.213C92.9765 104.686 93.0646 105.19 93.0512 105.697L93.0525 111.917Z" fill="#E0E0E0"/>
<path d="M93.598 109.151H84.9253C84.4986 109.151 84.1526 109.497 84.1526 109.925V114.944C84.1526 115.372 84.4986 115.718 84.9253 115.718H93.598C94.0248 115.718 94.3707 115.372 94.3707 114.944V109.925C94.3707 109.497 94.0248 109.151 93.598 109.151Z" fill="#EBEBEB"/>
<path d="M90.116 111.579C90.1172 111.419 90.0737 111.262 89.9904 111.125C89.9072 110.989 89.7874 110.878 89.6448 110.807C89.5022 110.735 89.3424 110.704 89.1834 110.719C89.0244 110.733 88.8727 110.792 88.7453 110.889C88.618 110.985 88.5201 111.115 88.4628 111.264C88.4054 111.414 88.3909 111.576 88.4209 111.733C88.4509 111.89 88.5241 112.036 88.6324 112.153C88.7406 112.271 88.8795 112.355 89.0334 112.398V113.677H89.5002V112.398C89.6777 112.347 89.8337 112.239 89.9448 112.091C90.0559 111.944 90.116 111.764 90.116 111.579Z" fill="#E0E0E0"/>
<path d="M88.5931 112.675C88.5931 112.675 88.5532 112.662 88.492 112.618C88.4077 112.554 88.3336 112.478 88.2726 112.391C88.166 112.25 88.0919 112.088 88.0555 111.915C88.0191 111.742 88.0213 111.563 88.0619 111.391C88.1026 111.219 88.1807 111.058 88.2907 110.92C88.4007 110.782 88.5398 110.669 88.6982 110.591C88.7912 110.542 88.8912 110.508 88.9947 110.49C89.0329 110.483 89.0723 110.483 89.1105 110.49C88.9783 110.534 88.8498 110.587 88.7261 110.651C88.5817 110.732 88.4556 110.842 88.3561 110.974C88.2566 111.106 88.1858 111.258 88.1482 111.419C88.1106 111.58 88.1071 111.747 88.1379 111.91C88.1687 112.073 88.2332 112.227 88.3271 112.363C88.4073 112.474 88.4962 112.579 88.5931 112.675Z" fill="#FAFAFA"/>
<path d="M96.9364 118.645L97.0109 118.545L97.0521 118.491C97.0667 118.469 97.0787 118.445 97.0947 118.419C97.1312 118.359 97.1624 118.296 97.1878 118.231C97.2024 118.193 97.2197 118.155 97.2357 118.114C97.2516 118.072 97.2596 118.024 97.2729 117.98C97.2868 117.931 97.297 117.881 97.3035 117.83C97.314 117.775 97.3215 117.719 97.3261 117.663C97.3485 117.396 97.3364 117.128 97.2902 116.864C97.1521 116.139 96.9041 115.439 96.5547 114.789C96.1032 113.923 95.5749 113.1 94.9761 112.328C94.2556 111.389 93.4699 110.502 92.6247 109.674C91.6569 108.721 90.6227 107.837 89.5299 107.031C88.9527 106.606 88.3436 106.193 87.7025 105.805C87.0498 105.406 86.3719 105.05 85.673 104.739C84.9519 104.409 84.1924 104.171 83.4121 104.03C83.0153 103.959 82.61 103.948 82.2098 103.997C82.0093 104.027 81.8137 104.084 81.6286 104.166C81.4445 104.256 81.2785 104.38 81.1392 104.53C81.007 104.687 80.9055 104.868 80.84 105.063C80.7794 105.257 80.7449 105.458 80.7375 105.661C80.7322 106.067 80.7882 106.471 80.9038 106.86C81.1328 107.62 81.4553 108.348 81.864 109.028C82.2523 109.689 82.6828 110.323 83.1527 110.928C83.6103 111.522 84.0837 112.082 84.5758 112.607C85.5007 113.601 86.4944 114.529 87.5496 115.384C88.4654 116.132 89.4329 116.814 90.4449 117.426C91.2778 117.934 92.1547 118.366 93.0649 118.717C93.7487 118.991 94.4704 119.158 95.2048 119.213C95.472 119.228 95.7402 119.21 96.0028 119.158C96.0613 119.15 96.1132 119.129 96.1664 119.117C96.216 119.105 96.2645 119.088 96.3113 119.067L96.4443 119.016C96.4842 118.996 96.5215 118.974 96.556 118.956C96.6175 118.922 96.6763 118.884 96.7316 118.841C96.7555 118.822 96.7795 118.808 96.7981 118.79C96.8167 118.773 96.8327 118.757 96.8486 118.744L96.9377 118.658C96.9377 118.658 96.9098 118.689 96.8513 118.746L96.8021 118.796C96.7835 118.812 96.7595 118.828 96.7356 118.846C96.6814 118.891 96.623 118.93 96.5614 118.964C96.5255 118.984 96.4895 119.005 96.4496 119.025L96.3167 119.079C96.2686 119.099 96.2193 119.116 96.169 119.129C96.1158 119.146 96.0616 119.16 96.0068 119.171C95.7444 119.226 95.4763 119.246 95.2088 119.231C94.4716 119.18 93.7467 119.015 93.0596 118.742C92.1465 118.393 91.2669 117.962 90.4316 117.454C89.4169 116.844 88.4467 116.162 87.5283 115.414C86.4706 114.56 85.4746 113.632 84.5479 112.637C84.0598 112.105 83.5797 111.552 83.1208 110.956C82.6495 110.35 82.2177 109.714 81.8281 109.052C81.4166 108.369 81.0923 107.637 80.8626 106.874C80.7454 106.481 80.6889 106.072 80.695 105.663C80.7017 105.455 80.7366 105.249 80.7987 105.051C80.867 104.852 80.9722 104.668 81.1086 104.509C81.2495 104.352 81.4187 104.224 81.6073 104.13C81.7972 104.046 81.9977 103.988 82.2032 103.957C82.6084 103.905 83.0192 103.916 83.4214 103.988C84.2049 104.129 84.9676 104.369 85.6916 104.701C86.3919 105.011 87.0712 105.367 87.7251 105.766C88.3688 106.156 88.978 106.566 89.5552 106.995C90.6472 107.804 91.681 108.69 92.6486 109.645C93.4951 110.476 94.2817 111.367 95.0027 112.31C95.6014 113.083 96.1289 113.91 96.5787 114.779C96.9272 115.431 97.1735 116.134 97.3088 116.861C97.3534 117.128 97.3641 117.399 97.3407 117.669C97.3407 117.727 97.3234 117.782 97.3168 117.835C97.3083 117.887 97.2958 117.937 97.2795 117.987L97.241 118.12C97.2263 118.163 97.2077 118.201 97.1931 118.239C97.1662 118.304 97.1337 118.367 97.096 118.427C97.0814 118.452 97.0681 118.477 97.0534 118.499L97.0109 118.552C96.9643 118.613 96.9364 118.645 96.9364 118.645Z" fill="#E0E0E0"/>
<path d="M99.8581 111.58C99.8581 111.58 99.8581 111.537 99.8475 111.456C99.8475 111.436 99.8475 111.413 99.8475 111.388C99.8475 111.362 99.8368 111.334 99.8315 111.305C99.819 111.236 99.8003 111.168 99.7757 111.103C99.7624 111.065 99.7504 111.025 99.7331 110.984L99.6706 110.851C99.6484 110.804 99.6226 110.76 99.5935 110.718C99.5629 110.674 99.5376 110.623 99.5004 110.584C99.3388 110.37 99.1506 110.177 98.9405 110.01C98.3558 109.561 97.7059 109.204 97.0133 108.952C96.1011 108.607 95.1597 108.346 94.2005 108.17C93.039 107.951 91.8634 107.815 90.6827 107.762C89.3276 107.696 87.9694 107.726 86.6184 107.852C85.9055 107.92 85.1781 108.018 84.4413 108.155C83.6869 108.293 82.9423 108.479 82.2123 108.714C81.4558 108.948 80.7316 109.276 80.0564 109.69C79.7127 109.903 79.4029 110.166 79.1374 110.471C79.0076 110.627 78.8993 110.8 78.8155 110.985C78.7372 111.173 78.6944 111.374 78.6892 111.578C78.6945 111.782 78.7369 111.983 78.8142 112.171C78.8982 112.356 79.0064 112.529 79.1361 112.685C79.4015 112.991 79.7113 113.255 80.0551 113.468C80.7306 113.882 81.4553 114.21 82.2123 114.444C82.9405 114.679 83.6834 114.865 84.4359 115.002C85.1727 115.136 85.8989 115.24 86.6131 115.308C87.9641 115.432 89.3223 115.462 90.6774 115.395C91.8579 115.345 93.0334 115.211 94.1952 114.996C95.1564 114.818 96.0997 114.554 97.0133 114.206C97.7059 113.954 98.3558 113.597 98.9405 113.148C99.1509 112.981 99.3391 112.788 99.5004 112.574C99.5376 112.53 99.5629 112.479 99.5935 112.44C99.6226 112.398 99.6484 112.353 99.6706 112.307C99.6919 112.263 99.7132 112.222 99.7331 112.182C99.7531 112.142 99.7624 112.099 99.7757 112.062C99.8006 111.996 99.8193 111.928 99.8315 111.859C99.8315 111.83 99.8435 111.803 99.8475 111.778C99.8515 111.753 99.8475 111.73 99.8475 111.709C99.8541 111.628 99.8581 111.586 99.8581 111.586C99.8581 111.586 99.8581 111.628 99.8581 111.71C99.8581 111.73 99.8581 111.752 99.8581 111.778C99.8581 111.803 99.8475 111.831 99.8422 111.861C99.8315 111.931 99.8136 111.999 99.789 112.066C99.7757 112.103 99.7637 112.145 99.7464 112.186C99.7291 112.227 99.7065 112.268 99.6852 112.319C99.6632 112.365 99.6379 112.41 99.6094 112.452C99.5788 112.496 99.5536 112.548 99.5163 112.592C99.3554 112.809 99.1672 113.004 98.9564 113.173C98.3717 113.626 97.7208 113.985 97.0266 114.239C96.114 114.587 95.1716 114.852 94.2111 115.029C93.048 115.25 91.8707 115.389 90.6881 115.443C89.3312 115.511 87.9712 115.483 86.6184 115.358C85.9042 115.292 85.1754 115.193 84.4359 115.056C83.6815 114.918 82.9369 114.731 82.2069 114.496C81.446 114.261 80.7177 113.931 80.0391 113.514C79.6904 113.3 79.3765 113.033 79.1081 112.724C78.975 112.562 78.8645 112.383 78.7796 112.191C78.6976 111.997 78.6525 111.79 78.6466 111.58C78.653 111.369 78.6981 111.162 78.7796 110.968C78.8652 110.779 78.9762 110.602 79.1095 110.443C79.3778 110.133 79.6917 109.866 80.0404 109.652C80.7159 109.236 81.4405 108.906 82.1976 108.67C82.9282 108.435 83.6732 108.249 84.428 108.111C85.1661 107.978 85.8909 107.876 86.6091 107.808C87.962 107.684 89.322 107.657 90.6788 107.728C91.8609 107.782 93.0378 107.92 94.2005 108.141C95.16 108.317 96.1015 108.58 97.0133 108.927C97.707 109.181 98.3575 109.54 98.9418 109.993C99.1529 110.161 99.3416 110.357 99.503 110.574C99.5364 110.619 99.567 110.666 99.5948 110.715C99.6239 110.757 99.6497 110.802 99.6719 110.848C99.6932 110.892 99.7145 110.935 99.7331 110.981C99.7517 111.028 99.7624 111.064 99.7757 111.103C99.7997 111.169 99.8175 111.237 99.8289 111.306C99.8289 111.337 99.8408 111.364 99.8448 111.389C99.8488 111.414 99.8448 111.437 99.8448 111.458C99.8568 111.537 99.8581 111.58 99.8581 111.58Z" fill="#E0E0E0"/>
<path d="M95.9875 102.784C95.9875 102.784 95.9516 102.762 95.8824 102.717L95.8252 102.68C95.8039 102.666 95.7773 102.656 95.7507 102.642C95.6885 102.61 95.6236 102.582 95.5566 102.561C95.5193 102.549 95.4794 102.535 95.4369 102.523L95.3039 102.495C95.254 102.484 95.2033 102.477 95.1523 102.475C95.0967 102.467 95.0407 102.463 94.9847 102.463C94.7159 102.459 94.4477 102.49 94.1867 102.555C93.474 102.742 92.7944 103.038 92.1718 103.433C91.3404 103.943 90.5569 104.528 89.8311 105.181C88.947 105.965 88.1194 106.811 87.3547 107.712C86.4704 108.745 85.6607 109.839 84.9316 110.987C84.5472 111.593 84.1788 112.23 83.837 112.898C83.4844 113.578 83.1765 114.28 82.9153 115C82.6362 115.743 82.4512 116.518 82.3647 117.306C82.3206 117.709 82.3386 118.115 82.4179 118.512C82.4609 118.71 82.5307 118.902 82.6254 119.081C82.7216 119.261 82.8541 119.418 83.0144 119.543C83.1747 119.668 83.3593 119.759 83.5564 119.809C83.754 119.856 83.9571 119.876 84.1602 119.869C84.5633 119.847 84.9606 119.763 85.3385 119.621C86.0814 119.34 86.7865 118.968 87.4372 118.512C88.0678 118.079 88.6698 117.605 89.2393 117.093C89.8005 116.595 90.3232 116.078 90.814 115.556C91.7403 114.563 92.5954 113.505 93.3728 112.391C94.0547 111.425 94.6676 110.411 95.2068 109.358C95.6554 108.49 96.0253 107.584 96.312 106.65C96.5381 105.948 96.6548 105.215 96.6578 104.477C96.6561 104.207 96.6194 103.938 96.5487 103.678C96.5342 103.623 96.5164 103.57 96.4955 103.518C96.4799 103.469 96.4608 103.421 96.4383 103.375C96.4157 103.331 96.3958 103.289 96.3758 103.242C96.3559 103.195 96.3306 103.169 96.3093 103.135C96.2702 103.076 96.2257 103.019 96.1763 102.968C96.1564 102.945 96.1391 102.922 96.1218 102.904L96.0713 102.858C96.0101 102.802 95.9808 102.773 95.9808 102.773L96.0739 102.854L96.1258 102.9C96.1444 102.918 96.1617 102.94 96.1817 102.962C96.231 103.014 96.2755 103.07 96.3146 103.13C96.3359 103.163 96.3599 103.198 96.3825 103.237L96.4463 103.37C96.4698 103.416 96.4894 103.464 96.5048 103.514C96.5264 103.566 96.5446 103.619 96.5594 103.674C96.6325 103.934 96.671 104.203 96.6737 104.473C96.6757 105.216 96.5622 105.954 96.3373 106.662C96.0536 107.599 95.685 108.507 95.2361 109.376C94.6985 110.432 94.0865 111.449 93.4047 112.418C92.6273 113.534 91.7718 114.594 90.8445 115.589C90.3538 116.114 89.8298 116.631 89.2685 117.131C88.6975 117.644 88.0938 118.12 87.4611 118.555C86.8096 119.013 86.1032 119.388 85.3585 119.67C84.9744 119.814 84.5708 119.898 84.1615 119.921C83.954 119.928 83.7464 119.908 83.5444 119.859C83.3404 119.808 83.1493 119.715 82.9832 119.586C82.8172 119.457 82.6799 119.295 82.5802 119.109C82.4833 118.925 82.4118 118.729 82.3674 118.526C82.2883 118.124 82.2699 117.713 82.3129 117.306C82.4002 116.514 82.5865 115.735 82.8675 114.988C83.1315 114.266 83.4425 113.563 83.7984 112.882C84.1416 112.216 84.5113 111.575 84.8957 110.968C85.625 109.82 86.4353 108.724 87.3202 107.691C88.0875 106.789 88.9177 105.943 89.8045 105.159C90.5332 104.507 91.3198 103.923 92.1545 103.414C92.7795 103.016 93.4624 102.719 94.1787 102.532C94.4399 102.468 94.708 102.438 94.9767 102.443C95.0352 102.443 95.0911 102.452 95.1456 102.456C95.1971 102.459 95.2483 102.467 95.2986 102.479L95.4316 102.508C95.4741 102.52 95.514 102.535 95.5526 102.548C95.6194 102.569 95.684 102.597 95.7454 102.63C95.7734 102.645 95.7986 102.656 95.8199 102.669L95.8771 102.708L95.9875 102.784Z" fill="#E0E0E0"/>
<path d="M45.489 51.9167L41.0568 50.2816L36.6674 51.8987C36.1072 52.1669 35.6153 52.3296 35.6153 52.866V55.5361C35.606 57.4066 36.106 59.2443 37.0614 60.8514C37.8799 62.2164 39.1503 63.6223 41.0996 64.5164C42.8941 63.9171 44.2329 62.321 45.0513 60.9551C46.0062 59.3482 46.5055 57.5108 46.4955 55.6407V53.2389C46.4955 52.4741 46.1034 52.1003 45.489 51.9167Z" fill="#F5F5F5"/>
<path d="M43.7636 58.677H42.9499V54.2367C42.9499 53.734 42.7505 53.2518 42.3957 52.8962C42.0408 52.5407 41.5595 52.341 41.0576 52.341C40.5557 52.341 40.0744 52.5407 39.7195 52.8962C39.3646 53.2518 39.1653 53.734 39.1653 54.2367V58.677H38.3506V54.2367C38.341 53.8747 38.4039 53.5144 38.5356 53.1771C38.6673 52.8398 38.8651 52.5324 39.1173 52.2729C39.3696 52.0134 39.6711 51.8072 40.0042 51.6664C40.3373 51.5256 40.6951 51.453 41.0566 51.453C41.4182 51.453 41.776 51.5256 42.1091 51.6664C42.4422 51.8072 42.7437 52.0134 42.9959 52.2729C43.2482 52.5324 43.446 52.8398 43.5776 53.1771C43.7093 53.5144 43.7722 53.8747 43.7627 54.2367L43.7636 58.677Z" fill="#E0E0E0"/>
<path d="M44.1524 56.7022H37.9609C37.6562 56.7022 37.4092 56.9496 37.4092 57.2549V60.838C37.4092 61.1433 37.6562 61.3907 37.9609 61.3907H44.1524C44.4571 61.3907 44.7041 61.1433 44.7041 60.838V57.2549C44.7041 56.9496 44.4571 56.7022 44.1524 56.7022Z" fill="#EBEBEB"/>
<path d="M41.6664 58.4352C41.6673 58.321 41.6362 58.2089 41.5768 58.1115C41.5174 58.0141 41.4319 57.9353 41.3301 57.884C41.2282 57.8328 41.1141 57.8111 41.0006 57.8214C40.8872 57.8318 40.7788 57.8737 40.6879 57.9426C40.597 58.0114 40.5271 58.1043 40.4862 58.2108C40.4452 58.3174 40.4349 58.4333 40.4563 58.5454C40.4777 58.6575 40.53 58.7614 40.6073 58.8453C40.6845 58.9292 40.7837 58.9898 40.8936 59.0201V59.9333H41.2268V59.0201C41.3535 58.9836 41.4649 58.9068 41.5442 58.8013C41.6235 58.6957 41.6664 58.5672 41.6664 58.4352Z" fill="#E0E0E0"/>
<path d="M40.5801 59.2179C40.5801 59.2179 40.5516 59.2084 40.5079 59.177C40.4477 59.1315 40.3948 59.077 40.3512 59.0153C40.2752 58.9147 40.2222 58.7985 40.1962 58.675C40.1702 58.5515 40.1718 58.4238 40.2008 58.301C40.2299 58.1782 40.2857 58.0634 40.3642 57.9647C40.4427 57.866 40.542 57.7859 40.6551 57.7302C40.7215 57.6952 40.7929 57.6708 40.8668 57.6579C40.8941 57.6525 40.9221 57.6525 40.9494 57.6579C40.8551 57.689 40.7633 57.7275 40.675 57.773C40.5719 57.8305 40.4819 57.9089 40.4109 58.0033C40.3398 58.0977 40.2892 58.2059 40.2624 58.321C40.2356 58.4361 40.2331 58.5555 40.2551 58.6717C40.2771 58.7878 40.3231 58.8981 40.3902 58.9953C40.4474 59.0745 40.5109 59.1489 40.5801 59.2179Z" fill="#FAFAFA"/>
<path d="M46.5358 63.4804L46.589 63.4091L46.6184 63.3701C46.6289 63.3548 46.6374 63.3377 46.6488 63.3187C46.6749 63.2761 46.6972 63.2312 46.7153 63.1846C46.7257 63.1579 46.7381 63.1304 46.7495 63.1009C46.7608 63.0714 46.7665 63.0371 46.776 63.0058C46.786 62.9705 46.7933 62.9346 46.7979 62.8983C46.8054 62.859 46.8108 62.8193 46.814 62.7794C46.83 62.5888 46.8214 62.397 46.7884 62.2086C46.6898 61.691 46.5128 61.1916 46.2633 60.7276C45.941 60.1093 45.5638 59.5213 45.1363 58.9707C44.622 58.3003 44.061 57.6671 43.4576 57.0759C42.7667 56.3952 42.0283 55.7646 41.2481 55.1888C40.8361 54.8853 40.4012 54.5904 39.9435 54.3136C39.4775 54.0288 38.9936 53.7746 38.4946 53.5527C37.9798 53.317 37.4376 53.147 36.8805 53.0466C36.5972 52.9956 36.3079 52.9876 36.0222 53.0229C35.879 53.044 35.7394 53.0846 35.6072 53.1437C35.4758 53.2079 35.3573 53.2959 35.2578 53.4033C35.1634 53.5156 35.091 53.6447 35.0442 53.7838C35.0009 53.9223 34.9764 54.0659 34.9711 54.2109C34.9673 54.5006 35.0073 54.7893 35.0898 55.067C35.2533 55.6094 35.4835 56.1293 35.7753 56.6146C36.0525 57.0861 36.3598 57.5392 36.6954 57.971C37.022 58.3953 37.36 58.7948 37.7113 59.1695C38.3716 59.8795 39.081 60.5419 39.8344 61.1519C40.4882 61.6861 41.1789 62.1734 41.9014 62.6101C42.496 62.9729 43.122 63.2813 43.7719 63.5318C44.26 63.7273 44.7753 63.8467 45.2996 63.8856C45.4904 63.8968 45.6818 63.8837 45.8693 63.8466C45.9111 63.8409 45.9481 63.8257 45.9861 63.8171C46.0215 63.8084 46.0561 63.7966 46.0896 63.7819L46.1845 63.7448C46.213 63.7306 46.2396 63.7154 46.2643 63.702C46.3082 63.6782 46.3501 63.6508 46.3896 63.6202C46.4067 63.6069 46.4238 63.5965 46.4371 63.5841C46.4504 63.5717 46.4618 63.5603 46.4732 63.5508L46.5368 63.4899C46.5368 63.4899 46.5168 63.5118 46.475 63.5527L46.4399 63.5879C46.4266 63.5993 46.4095 63.6107 46.3924 63.624C46.3537 63.6559 46.3121 63.6839 46.2681 63.7077C46.2424 63.722 46.2168 63.7372 46.1883 63.7515L46.0934 63.7905C46.0591 63.8046 46.0239 63.8164 45.988 63.8257C45.95 63.8381 45.9113 63.8482 45.8721 63.8561C45.6848 63.8948 45.4934 63.9092 45.3024 63.8989C44.7761 63.8621 44.2586 63.7443 43.7681 63.5498C43.1162 63.3006 42.4883 62.9928 41.8919 62.63C41.1675 62.1943 40.4748 61.7076 39.8192 61.1737C39.0641 60.5641 38.353 59.9017 37.6914 59.1914C37.3429 58.8109 37.0001 58.4162 36.6726 57.991C36.3361 57.5582 36.0278 57.1042 35.7497 56.6317C35.4559 56.1442 35.2243 55.6217 35.0603 55.0765C34.9767 54.7961 34.9363 54.5045 34.9407 54.2119C34.9455 54.0636 34.9704 53.9168 35.0148 53.7753C35.0635 53.6334 35.1386 53.5021 35.236 53.3881C35.3366 53.2763 35.4574 53.1847 35.5921 53.118C35.7276 53.0577 35.8707 53.0161 36.0174 52.9943C36.3068 52.9573 36.6 52.9647 36.8872 53.0162C37.4465 53.1173 37.991 53.2882 38.5079 53.5251C39.0078 53.7469 39.4928 54.0011 39.9597 54.2861C40.4192 54.5638 40.8541 54.8568 41.2662 55.1631C42.0458 55.7409 42.7838 56.3731 43.4747 57.055C44.079 57.6486 44.6406 58.2844 45.1553 58.9574C45.5827 59.5097 45.9593 60.0996 46.2804 60.72C46.5292 61.1859 46.7051 61.6873 46.8017 62.2067C46.8335 62.3972 46.8412 62.5908 46.8245 62.7832C46.8245 62.825 46.8121 62.864 46.8074 62.9021C46.8013 62.9388 46.7924 62.9751 46.7808 63.0105L46.7532 63.1056C46.7428 63.1361 46.7295 63.1637 46.7191 63.1903C46.6999 63.2369 46.6767 63.2818 46.6498 63.3244C46.6393 63.3425 46.6298 63.3606 46.6194 63.3758L46.589 63.4138C46.5558 63.4576 46.5358 63.4804 46.5358 63.4804Z" fill="#E0E0E0"/>
<path d="M48.6218 58.436C48.6218 58.436 48.6218 58.4055 48.6142 58.3475C48.6142 58.3333 48.6142 58.3171 48.6142 58.299C48.6142 58.2809 48.6066 58.261 48.6028 58.24C48.5938 58.1908 48.5805 58.1424 48.5629 58.0955C48.5534 58.0688 48.5449 58.0403 48.5325 58.0108L48.4879 57.9157C48.472 57.8826 48.4536 57.8508 48.4328 57.8206C48.411 57.7892 48.3929 57.753 48.3664 57.7254C48.251 57.5724 48.1167 57.4346 47.9666 57.3155C47.5492 56.9948 47.0852 56.7401 46.5908 56.5602C45.9395 56.314 45.2674 56.1271 44.5827 56.0019C43.7534 55.8457 42.9142 55.7484 42.0713 55.7108C41.1038 55.6633 40.1341 55.6846 39.1696 55.7745C38.6607 55.823 38.1414 55.8934 37.6153 55.9914C37.0768 56.0894 36.5452 56.2225 36.024 56.3899C35.484 56.5572 34.9669 56.7914 34.4849 57.0872C34.2395 57.239 34.0183 57.4269 33.8288 57.6446C33.7361 57.7561 33.6588 57.8796 33.599 58.0117C33.5431 58.146 33.5125 58.2896 33.5088 58.435C33.5126 58.5804 33.5429 58.7238 33.5981 58.8583C33.658 58.9904 33.7353 59.1139 33.8278 59.2255C34.0173 59.4435 34.2385 59.6318 34.4839 59.7838C34.9662 60.0798 35.4836 60.314 36.024 60.4811C36.5439 60.6485 37.0743 60.7816 37.6115 60.8796C38.1376 60.9747 38.656 61.0489 39.1658 61.0975C40.1304 61.1866 41.1 61.2076 42.0675 61.1602C42.9102 61.124 43.7494 61.0287 44.5789 60.8749C45.2651 60.7481 45.9385 60.5593 46.5908 60.3108C47.0852 60.1309 47.5492 59.8762 47.9666 59.5556C48.1169 59.4367 48.2512 59.2989 48.3664 59.1456C48.3929 59.1142 48.411 59.078 48.4328 59.0505C48.4536 59.0202 48.472 58.9884 48.4879 58.9553C48.5031 58.924 48.5183 58.8945 48.5325 58.8659C48.5468 58.8374 48.5534 58.807 48.5629 58.7803C48.5807 58.7335 48.594 58.6851 48.6028 58.6357C48.6028 58.6148 48.6113 58.5958 48.6142 58.5777C48.617 58.5596 48.6142 58.5435 48.6142 58.5283C48.6189 58.4702 48.6218 58.4407 48.6218 58.4407C48.6218 58.4407 48.6218 58.4702 48.6218 58.5292C48.6218 58.5432 48.6218 58.5593 48.6218 58.5777C48.6218 58.5958 48.6142 58.6158 48.6104 58.6367C48.6027 58.6867 48.59 58.7358 48.5724 58.7832C48.5629 58.8098 48.5544 58.8393 48.542 58.8688C48.5297 58.8983 48.5135 58.9278 48.4983 58.9639C48.4826 58.9969 48.4645 59.0287 48.4442 59.059C48.4224 59.0904 48.4043 59.1275 48.3777 59.1589C48.2628 59.3138 48.1285 59.4531 47.978 59.5736C47.5606 59.8968 47.0959 60.1534 46.6003 60.3346C45.9488 60.5834 45.276 60.7722 44.5903 60.8987C43.7599 61.0565 42.9194 61.1554 42.0751 61.1945C41.1064 61.243 40.1355 61.2226 39.1696 61.1336C38.6598 61.086 38.1395 61.0157 37.6115 60.9177C37.0729 60.8196 36.5413 60.6861 36.0202 60.5182C35.477 60.3505 34.957 60.115 34.4725 59.8171C34.2236 59.6641 33.9995 59.4739 33.8079 59.2531C33.7129 59.1375 33.634 59.0095 33.5734 58.8726C33.5148 58.7343 33.4826 58.5862 33.4784 58.436C33.483 58.2858 33.5152 58.1378 33.5734 57.9994C33.6345 57.8643 33.7137 57.7382 33.8089 57.6246C34.0004 57.4035 34.2245 57.2129 34.4735 57.0596C34.9557 56.7626 35.4731 56.5271 36.0136 56.3586C36.5351 56.1913 37.067 56.0581 37.6058 55.96C38.1328 55.8649 38.6503 55.7916 39.163 55.7431C40.1289 55.6549 41.0998 55.6358 42.0684 55.6861C42.9124 55.7248 43.7526 55.8233 44.5827 55.9809C45.2677 56.1065 45.9398 56.2944 46.5908 56.5421C47.0861 56.7234 47.5504 56.98 47.9676 57.3031C48.1183 57.4236 48.253 57.563 48.3683 57.7178C48.3921 57.7501 48.414 57.7838 48.4338 57.8187C48.4546 57.8489 48.473 57.8807 48.4888 57.9138C48.504 57.9452 48.5192 57.9756 48.5325 58.0089C48.5458 58.0422 48.5534 58.0679 48.5629 58.0955C48.5801 58.1427 48.5928 58.1914 48.6009 58.241C48.6009 58.2629 48.6094 58.2819 48.6123 58.3C48.6151 58.318 48.6123 58.3342 48.6123 58.3494C48.6208 58.4055 48.6218 58.436 48.6218 58.436Z" fill="#E0E0E0"/>
<path d="M45.8588 52.1563C45.8588 52.1563 45.8332 52.1411 45.7838 52.1088L45.743 52.0821C45.7278 52.0726 45.7088 52.065 45.6898 52.0555C45.6454 52.0321 45.599 52.0127 45.5512 51.9975C45.5246 51.9889 45.4961 51.9785 45.4657 51.9699L45.3708 51.9499C45.3351 51.9421 45.2989 51.9373 45.2625 51.9356C45.2229 51.9303 45.1829 51.9275 45.1429 51.9271C44.951 51.9245 44.7595 51.9465 44.5732 51.9927C44.0644 52.1264 43.5792 52.3378 43.1347 52.6196C42.5411 52.984 41.9818 53.4017 41.4636 53.8675C40.8324 54.4274 40.2416 55.0313 39.6957 55.6748C39.0644 56.4121 38.4863 57.1934 37.9657 58.0129C37.6913 58.4457 37.4283 58.9004 37.1843 59.3769C36.9326 59.8624 36.7128 60.3638 36.5263 60.8779C36.327 61.4081 36.1949 61.9613 36.1332 62.5245C36.1017 62.8117 36.1145 63.102 36.1712 63.3853C36.2019 63.5268 36.2517 63.6635 36.3193 63.7915C36.388 63.9195 36.4826 64.0319 36.597 64.1213C36.7115 64.2107 36.8432 64.2753 36.984 64.3108C37.1251 64.3445 37.2701 64.3589 37.415 64.3536C37.7028 64.3379 37.9865 64.2782 38.2563 64.1767C38.7867 63.9764 39.29 63.7106 39.7546 63.3853C40.2048 63.0758 40.6345 62.7374 41.0411 62.3723C41.4418 62.0165 41.8149 61.6474 42.1653 61.2746C42.8266 60.5656 43.4371 59.8107 43.9921 59.0155C44.479 58.3253 44.9165 57.6015 45.3014 56.8496C45.6217 56.2303 45.8858 55.5834 46.0905 54.9167C46.2519 54.4154 46.3352 53.8921 46.3373 53.3653C46.3361 53.1725 46.3099 52.9807 46.2595 52.7946C46.2491 52.7558 46.2364 52.7177 46.2215 52.6804C46.2103 52.6456 46.1967 52.6116 46.1807 52.5787C46.1645 52.5473 46.1503 52.5168 46.136 52.4835C46.1218 52.4502 46.1038 52.4312 46.0886 52.4074C46.0606 52.3647 46.0289 52.3245 45.9936 52.2876C45.9794 52.2714 45.967 52.2553 45.9547 52.2419L45.9186 52.2096C45.8749 52.1696 45.854 52.1487 45.854 52.1487L45.9205 52.2067L45.9575 52.2391C45.9708 52.2524 45.9832 52.2676 45.9974 52.2838C46.0327 52.3207 46.0644 52.3609 46.0924 52.4036C46.1076 52.4274 46.1246 52.4522 46.1408 52.4797L46.1864 52.5749C46.2031 52.6079 46.2171 52.6422 46.2281 52.6776C46.2435 52.7148 46.2565 52.7529 46.2671 52.7917C46.3193 52.9775 46.3468 53.1694 46.3487 53.3625C46.3502 53.8927 46.2691 54.42 46.1085 54.9253C45.906 55.5938 45.6428 56.2424 45.3223 56.8629C44.9385 57.6169 44.5016 58.3426 44.0149 59.0345C43.4599 59.8315 42.8491 60.588 42.1871 61.2984C41.8368 61.6731 41.4627 62.0422 41.062 62.3989C40.6543 62.7655 40.2233 63.1052 39.7716 63.4157C39.3065 63.7431 38.8022 64.0106 38.2705 64.2119C37.9963 64.3143 37.7082 64.3746 37.416 64.3907C37.2678 64.3961 37.1196 64.3814 36.9754 64.347C36.8298 64.3106 36.6933 64.2442 36.5748 64.152C36.4562 64.0598 36.3582 63.9438 36.287 63.8114C36.2179 63.6801 36.1668 63.5399 36.1351 63.3948C36.0786 63.1083 36.0655 62.8149 36.0962 62.5245C36.1585 61.9583 36.2916 61.4023 36.4921 60.8694C36.6806 60.3541 36.9026 59.8517 37.1568 59.3655C37.4017 58.8899 37.6657 58.4324 37.9401 57.9996C38.4608 57.1794 39.0393 56.3974 39.671 55.6596C40.2188 55.0159 40.8115 54.412 41.4446 53.8523C41.9648 53.3866 42.5264 52.9696 43.1224 52.6062C43.5685 52.3224 44.0561 52.11 44.5675 51.9765C44.7539 51.9311 44.9454 51.9097 45.1372 51.9128C45.179 51.9128 45.2188 51.9195 45.2578 51.9223C45.2946 51.9246 45.3311 51.9301 45.367 51.9385L45.4619 51.9594C45.4923 51.968 45.5208 51.9785 45.5483 51.988C45.596 52.003 45.6421 52.0228 45.686 52.0469C45.7059 52.0574 45.724 52.065 45.7392 52.0745L45.78 52.1021L45.8588 52.1563Z" fill="#E0E0E0"/>
<path d="M61.9457 88.4309C62.1114 89.554 61.9407 90.701 61.4554 91.7268C60.9701 92.7526 60.1919 93.6111 59.2193 94.1937C58.2467 94.7762 57.1235 95.0566 55.9918 94.9994C54.86 94.9421 53.7707 94.5497 52.8617 93.872C51.9526 93.1942 51.2647 92.2615 50.8851 91.1919C50.5054 90.1223 50.451 88.9639 50.7288 87.8633C51.0066 86.7627 51.6041 85.7695 52.4457 85.0092C53.2872 84.249 54.335 83.756 55.4563 83.5926C56.9573 83.3723 58.4841 83.7583 59.7011 84.6656C60.918 85.5729 61.7254 86.9273 61.9457 88.4309Z" fill="#F5F5F5"/>
<path d="M60.5965 88.6289C60.7226 89.4847 60.5923 90.3587 60.2223 91.1403C59.8523 91.9219 59.2591 92.576 58.5179 93.0198C57.7766 93.4635 56.9206 93.677 56.0582 93.6332C55.1958 93.5893 54.3658 93.2901 53.6732 92.7735C52.9806 92.2569 52.4565 91.546 52.1674 90.7309C51.8782 89.9158 51.837 89.033 52.0488 88.1944C52.2607 87.3557 52.7161 86.5989 53.3575 86.0197C53.9989 85.4405 54.7974 85.0649 55.6519 84.9406C56.2183 84.8573 56.7956 84.8868 57.3507 85.0271C57.9057 85.1674 58.4278 85.416 58.887 85.7585C59.3461 86.101 59.7335 86.5308 60.0268 87.0233C60.3201 87.5158 60.5137 88.0614 60.5965 88.6289Z" fill="#EBEBEB"/>
<path d="M56.374 87.2888C56.5019 87.2038 56.5383 87.0324 56.4553 86.9061C56.3724 86.7799 56.2014 86.7463 56.0735 86.8313L54.2394 88.0507C54.1115 88.1357 54.0751 88.3071 54.1581 88.4334C54.241 88.5597 54.412 88.5932 54.5399 88.5081L55.0655 88.1587C55.2827 88.0138 55.5624 88.0078 55.7807 88.1432L54.7524 88.8269C54.6246 88.9118 54.5882 89.0833 54.6711 89.2095C54.7541 89.3359 54.9251 89.3693 55.0529 89.2843L56.0812 88.6007C56.1183 88.8558 56.0033 89.1117 55.7866 89.2565L55.261 89.606C55.166 89.6693 55.1183 89.7833 55.1403 89.8938C55.1623 90.0043 55.2498 90.0892 55.361 90.108L57.4755 90.4603C57.5452 90.4715 57.6168 90.4555 57.6758 90.4158C57.7393 90.3731 57.7834 90.3071 57.7984 90.2325C57.8117 90.1606 57.7958 90.0868 57.7544 90.0274C57.7129 89.9681 57.6492 89.928 57.5773 89.9161L56.1426 89.6771C56.5769 89.3514 56.7503 88.7832 56.569 88.2797L56.8863 88.0688C57.0142 87.9838 57.0506 87.8124 56.9676 87.6861C56.8847 87.5598 56.7137 87.5263 56.5858 87.6113L56.2686 87.8222C56.1668 87.7263 56.0485 87.6491 55.9193 87.5944L56.3755 87.2911L56.374 87.2888Z" fill="#E0E0E0"/>
<path d="M60.5753 88.4942C60.4951 88.3332 60.431 88.1647 60.3837 87.9911C60.2201 87.5399 59.9873 87.1169 59.6937 86.7374C59.4921 86.478 59.262 86.2423 59.0076 86.0346C58.7154 85.7964 58.3932 85.5976 58.0494 85.4433C57.8629 85.3595 57.6708 85.2889 57.4744 85.2321C57.2722 85.1733 57.0659 85.1297 56.8573 85.1015C56.6407 85.0722 56.4222 85.0594 56.2037 85.0631C55.9789 85.069 55.7547 85.0908 55.533 85.1284C55.3122 85.1698 55.0945 85.2262 54.8813 85.2974C54.6757 85.3707 54.4753 85.4579 54.2815 85.5585C53.9163 85.7537 53.5808 86 53.2849 86.29C53.0178 86.5538 52.7853 86.8506 52.593 87.1732C52.4273 87.4569 52.2924 87.7574 52.1906 88.0698C52.046 88.5275 51.973 89.0048 51.974 89.4849C51.9935 89.6635 51.9935 89.8438 51.974 90.0225C51.8947 89.8563 51.8522 89.6748 51.8494 89.4906C51.7974 88.9914 51.8384 88.4869 51.9702 88.0026C52.0598 87.6687 52.1884 87.3464 52.3535 87.0426C52.5481 86.6922 52.7885 86.3694 53.0683 86.0826C53.2199 85.9263 53.3833 85.7819 53.557 85.6507C53.7387 85.5123 53.931 85.3884 54.132 85.2801C54.3387 85.1678 54.5541 85.0721 54.7759 84.994C55.0051 84.912 55.2403 84.8478 55.4793 84.802C55.718 84.7602 55.9596 84.7371 56.2018 84.7329C56.4378 84.7288 56.6737 84.7442 56.9071 84.779C57.3476 84.842 57.776 84.9715 58.1778 85.163C58.8586 85.4849 59.4444 85.9785 59.8777 86.5953C60.1677 87.0044 60.379 87.4641 60.5006 87.9508C60.5644 88.1244 60.5899 88.3098 60.5753 88.4942Z" fill="#E0E0E0"/>
<path d="M112.315 74.2881C112.452 75.2179 112.311 76.1677 111.909 77.017C111.507 77.8664 110.863 78.5772 110.057 79.0596C109.252 79.5419 108.322 79.7741 107.385 79.7267C106.448 79.6793 105.546 79.3544 104.793 78.7932C104.041 78.232 103.471 77.4597 103.157 76.5741C102.842 75.6885 102.797 74.7294 103.027 73.8181C103.257 72.9069 103.752 72.0844 104.449 71.455C105.146 70.8255 106.013 70.4173 106.942 70.282C108.184 70.0996 109.449 70.4192 110.456 71.1704C111.464 71.9217 112.132 73.0431 112.315 74.2881Z" fill="#F5F5F5"/>
<path d="M111.197 74.4519C111.302 75.1605 111.194 75.8842 110.888 76.5314C110.581 77.1786 110.09 77.7201 109.476 78.0876C108.863 78.455 108.154 78.6317 107.44 78.5954C106.726 78.5591 106.038 78.3114 105.465 77.8837C104.892 77.4559 104.458 76.8673 104.218 76.1924C103.979 75.5175 103.945 74.7866 104.12 74.0922C104.295 73.3978 104.673 72.7712 105.204 72.2916C105.735 71.812 106.396 71.5011 107.103 71.3981C107.572 71.3292 108.05 71.3535 108.51 71.4697C108.969 71.5859 109.402 71.7917 109.782 72.0753C110.162 72.3589 110.483 72.7147 110.726 73.1225C110.969 73.5303 111.129 73.9821 111.197 74.4519Z" fill="#EBEBEB"/>
<path d="M107.702 73.342C107.808 73.2716 107.838 73.1298 107.769 73.0252C107.7 72.9206 107.559 72.8928 107.453 72.9633L105.934 73.9729C105.828 74.0433 105.798 74.1852 105.867 74.2897C105.936 74.3943 106.077 74.422 106.183 74.3516L106.618 74.0623C106.798 73.9423 107.03 73.9373 107.21 74.0495L106.359 74.6155C106.253 74.6859 106.223 74.8278 106.292 74.9324C106.36 75.037 106.502 75.0646 106.608 74.9943L107.459 74.4282C107.49 74.6395 107.395 74.8514 107.215 74.9713L106.78 75.2606C106.702 75.313 106.662 75.4074 106.68 75.4989C106.698 75.5904 106.771 75.6607 106.863 75.6763L108.614 75.9679C108.671 75.9772 108.731 75.964 108.78 75.9311C108.832 75.8958 108.869 75.8411 108.881 75.7794C108.892 75.7198 108.879 75.6587 108.845 75.6096C108.81 75.5604 108.758 75.5273 108.698 75.5174L107.51 75.3195C107.87 75.0498 108.013 74.5793 107.863 74.1625L108.126 73.9878C108.232 73.9174 108.262 73.7756 108.193 73.671C108.124 73.5664 107.983 73.5387 107.877 73.6091L107.614 73.7837C107.53 73.7042 107.432 73.6403 107.325 73.5951L107.703 73.3439L107.702 73.342Z" fill="#E0E0E0"/>
<path d="M111.18 74.3404C111.114 74.2071 111.061 74.0676 111.022 73.9239C110.886 73.5502 110.694 73.2 110.45 72.8858C110.284 72.671 110.093 72.4758 109.882 72.3039C109.64 72.1066 109.374 71.942 109.089 71.8143C108.935 71.7449 108.775 71.6864 108.613 71.6394C108.445 71.5907 108.275 71.5546 108.102 71.5313C107.923 71.507 107.742 71.4964 107.561 71.4995C107.375 71.5043 107.189 71.5224 107.005 71.5536C106.823 71.5878 106.642 71.6345 106.466 71.6935C106.296 71.7541 106.13 71.8264 105.969 71.9097C105.667 72.0713 105.389 72.2752 105.144 72.5153C104.923 72.7338 104.73 72.9795 104.571 73.2466C104.434 73.4815 104.322 73.7304 104.238 73.989C104.118 74.368 104.058 74.7632 104.059 75.1607C104.075 75.3086 104.075 75.4579 104.059 75.6058C103.993 75.4682 103.958 75.3179 103.955 75.1654C103.912 74.7521 103.946 74.3343 104.055 73.9334C104.13 73.6568 104.236 73.39 104.373 73.1385C104.534 72.8484 104.733 72.5811 104.965 72.3437C105.09 72.2142 105.226 72.0946 105.369 71.986C105.52 71.8714 105.679 71.7688 105.845 71.6791C106.017 71.5862 106.195 71.5069 106.379 71.4423C106.568 71.3744 106.763 71.3212 106.961 71.2833C107.159 71.2486 107.359 71.2295 107.559 71.2261C107.755 71.2227 107.95 71.2354 108.143 71.2642C108.508 71.3164 108.863 71.4236 109.195 71.5822C109.759 71.8487 110.244 72.2574 110.603 72.7681C110.843 73.1068 111.018 73.4875 111.119 73.8905C111.171 74.0342 111.192 74.1877 111.18 74.3404Z" fill="#E0E0E0"/>
<path d="M135.933 118.387H7.03827V118.452H135.933V118.387Z" fill="#EBEBEB"/>
<path d="M114.221 120.151H109.274V120.216H114.221V120.151Z" fill="#EBEBEB"/>
<path d="M31.696 120.586H20.5621V120.65H31.696V120.586Z" fill="#EBEBEB"/>
<path d="M35.6249 120.586H33.9931V120.65H35.6249V120.586Z" fill="#EBEBEB"/>
<path d="M65.0795 121.681H40.9298V121.746H65.0795V121.681Z" fill="#EBEBEB"/>
<path d="M108.589 57.2591L80.5315 47.7411L80.5083 47.7204L65.6854 32.4595L53.7962 43.3653L53.6235 43.1737L65.6957 32.0971L80.6707 47.5158L108.491 56.9535L119.911 41.1748L120.12 41.3276L108.589 57.2591Z" fill="#20446C"/>
<path d="M21.3739 80.686C21.3759 80.962 21.2963 81.2323 21.1452 81.4627C20.994 81.6932 20.7781 81.8733 20.5249 81.9804C20.2717 82.0874 19.9925 82.1164 19.7228 82.0639C19.4531 82.0113 19.205 81.8795 19.01 81.6851C18.815 81.4907 18.6819 81.2425 18.6275 80.972C18.5732 80.7015 18.6 80.4209 18.7047 80.1657C18.8093 79.9106 18.9871 79.6924 19.2154 79.5389C19.4437 79.3854 19.7122 79.3034 19.987 79.3034C20.353 79.3034 20.7042 79.4487 20.964 79.7077C21.2238 79.9667 21.3712 80.3184 21.3739 80.686Z" fill="#20446C"/>
<path d="M67.0773 32.2781C67.0773 32.5536 66.9959 32.8229 66.8435 33.052C66.6911 33.2811 66.4745 33.4596 66.2211 33.5651C65.9677 33.6705 65.6888 33.6981 65.4198 33.6443C65.1508 33.5906 64.9037 33.4579 64.7097 33.2631C64.5157 33.0683 64.3836 32.8201 64.3301 32.5499C64.2766 32.2796 64.3041 31.9996 64.4091 31.745C64.514 31.4905 64.6918 31.2729 64.9199 31.1199C65.1479 30.9668 65.4161 30.8851 65.6904 30.8851C66.0582 30.8851 66.411 31.0319 66.6711 31.2931C66.9312 31.5543 67.0773 31.9087 67.0773 32.2781Z" fill="#20446C"/>
<path d="M121.401 41.2417C121.401 41.5172 121.32 41.7866 121.167 42.0156C121.015 42.2447 120.798 42.4233 120.545 42.5287C120.291 42.6341 120.013 42.6617 119.744 42.608C119.474 42.5542 119.227 42.4215 119.033 42.2267C118.839 42.0319 118.707 41.7837 118.654 41.5135C118.6 41.2433 118.628 40.9632 118.733 40.7086C118.838 40.4541 119.016 40.2366 119.244 40.0835C119.472 39.9304 119.74 39.8487 120.014 39.8487C120.382 39.8487 120.735 39.9955 120.995 40.2567C121.255 40.518 121.401 40.8723 121.401 41.2417Z" fill="#20446C"/>
<path d="M121.522 114.76C121.522 115.036 121.441 115.305 121.288 115.534C121.136 115.763 120.919 115.942 120.666 116.047C120.413 116.153 120.134 116.18 119.865 116.127C119.596 116.073 119.348 115.94 119.155 115.745C118.961 115.55 118.828 115.302 118.775 115.032C118.721 114.762 118.749 114.482 118.854 114.227C118.959 113.973 119.137 113.755 119.365 113.602C119.593 113.449 119.861 113.367 120.135 113.367C120.503 113.367 120.856 113.514 121.116 113.775C121.376 114.037 121.522 114.391 121.522 114.76Z" fill="#20446C"/>
<path d="M81.9878 47.6296C81.9878 47.9051 81.9065 48.1744 81.7541 48.4035C81.6017 48.6326 81.3851 48.8111 81.1317 48.9166C80.8783 49.022 80.5994 49.0496 80.3304 48.9958C80.0613 48.9421 79.8142 48.8094 79.6202 48.6146C79.4263 48.4198 79.2942 48.1716 79.2407 47.9014C79.1872 47.6311 79.2146 47.3511 79.3196 47.0965C79.4246 46.842 79.6023 46.6244 79.8304 46.4714C80.0585 46.3183 80.3266 46.2366 80.6009 46.2366C80.7832 46.2362 80.9637 46.272 81.1321 46.3419C81.3005 46.4118 81.4535 46.5144 81.5824 46.6438C81.7112 46.7733 81.8134 46.9269 81.883 47.0961C81.9525 47.2653 81.9882 47.4466 81.9878 47.6296Z" fill="#20446C"/>
<path d="M23.1432 53.7939L22.9723 53.9878L34.8388 64.5437L35.0097 64.3498L23.1432 53.7939Z" fill="#20446C"/>
<path d="M120.068 114.871L102.871 104.165L103.247 104.064L121.313 86.605L108.421 57.1578L108.658 57.0543L121.622 86.6671L121.558 86.7293L103.454 104.225L120.202 114.649L120.068 114.871Z" fill="#20446C"/>
<path d="M56.3666 114.796L56.2609 114.776L21.4801 108.178L21.5265 107.925L56.2016 114.501L80.4802 47.5828L80.7225 47.6734L56.3666 114.796Z" fill="#20446C"/>
<path d="M21.6107 108.121L21.3942 107.981L31.7882 91.8584L19.8062 80.6937L19.8938 80.5979L34.8997 64.2781L34.99 64.3325L103.376 104.067L103.247 104.292L34.9487 64.6069L20.1697 80.6808L32.1208 91.8144L21.6107 108.121Z" fill="#20446C"/>
<path d="M20.8349 55.1823C20.6405 54.8464 20.5245 54.4714 20.4946 54.0854L20.4946 53.8877C20.4946 53.4491 20.6057 53.0179 20.8173 52.6345C21.0288 52.2512 21.3338 51.9284 21.7033 51.6964C22.0729 51.4644 22.4949 51.3307 22.9298 51.3077C23.3646 51.2847 23.7983 51.3731 24.19 51.5648L24.4098 51.1157L24.19 51.5648C24.5816 51.7565 24.9186 52.0452 25.169 52.404C25.4194 52.7628 25.575 53.1799 25.6209 53.616C25.6667 54.0522 25.6014 54.4928 25.4312 54.8965C25.2609 55.3001 24.9913 55.6534 24.648 55.9233L24.6479 55.9233C24.2449 56.2403 23.757 56.4289 23.2469 56.4651C22.7368 56.5014 22.2275 56.3837 21.7842 56.127L21.7821 56.1259C21.3893 55.9009 21.0625 55.5755 20.8349 55.1823L20.4022 55.4328L20.8349 55.1823Z" fill="#FFF8F3" stroke="#F0792E"/>
<path d="M21.338 53.8412C21.3439 53.9416 21.3816 54.0375 21.4456 54.1148C21.5096 54.1922 21.5966 54.2469 21.6938 54.2711C21.6457 54.4103 21.6457 54.5617 21.6938 54.7009C21.7789 54.9391 22.2532 54.9391 22.2532 54.9391C22.2714 54.9812 22.3012 55.0173 22.3391 55.043C22.377 55.0687 22.4214 55.0829 22.4671 55.0841L22.4981 55.1203C22.5187 55.1514 22.5419 55.1851 22.5651 55.2135C22.6244 55.6822 22.6141 56.1767 22.3847 56.4279C22.1862 56.4486 21.9877 56.4745 21.7892 56.5081C21.6938 56.5081 21.601 56.5366 21.5082 56.5547C22.038 56.8615 22.6469 57.0023 23.2569 56.9589C23.8669 56.9155 24.4501 56.69 24.9316 56.3114H24.6558H24.117C23.9945 56.3054 23.8764 56.2635 23.7775 56.1907C23.6785 56.118 23.6029 56.0177 23.5602 55.9023C23.5286 55.7983 23.5156 55.6897 23.5215 55.5812C23.6107 55.5651 23.6974 55.5372 23.7793 55.4983C24.0172 55.3789 24.2013 55.1736 24.2949 54.9235C24.3095 54.8882 24.3216 54.8519 24.331 54.8148C24.4055 54.5154 24.4282 54.2053 24.398 53.8982C24.4519 53.8664 24.4985 53.8234 24.5345 53.772C24.5705 53.7207 24.5952 53.6622 24.6068 53.6005C24.629 53.5205 24.6186 53.4349 24.578 53.3625C24.5374 53.2902 24.4699 53.237 24.3902 53.2147C24.4851 53.1916 24.5688 53.1355 24.6264 53.0564C24.684 52.9772 24.7118 52.8801 24.7048 52.7823C24.7125 52.7358 24.7103 52.6883 24.6981 52.6428C24.686 52.5973 24.6643 52.5549 24.6345 52.5186C24.6047 52.4823 24.5675 52.4528 24.5253 52.4322C24.4832 52.4116 24.4371 52.4003 24.3902 52.3991C24.3902 52.3991 24.5011 52.2359 24.2846 51.9356C24.2294 51.8541 24.1454 51.7967 24.0497 51.7751C23.9539 51.7534 23.8536 51.7692 23.769 51.8191C23.7058 51.7195 23.6151 51.6405 23.508 51.5917C23.4009 51.543 23.282 51.5266 23.1658 51.5446C23.0684 51.5579 22.9753 51.593 22.8932 51.6472C22.8111 51.7014 22.7422 51.7734 22.6914 51.8579C22.6914 51.8579 22.6914 51.6378 22.2661 51.7595C22.1436 51.8047 22.04 51.8902 21.9721 52.0021C21.9043 52.114 21.8761 52.2457 21.8923 52.3758C21.8537 52.3556 21.8114 52.3438 21.768 52.341C21.7246 52.3383 21.6812 52.3447 21.6404 52.3598C21.5996 52.3749 21.5624 52.3984 21.5312 52.4288C21.5 52.4592 21.4755 52.4958 21.4592 52.5363C21.3123 52.8444 21.6319 53.3855 21.6319 53.3855C21.5371 53.4142 21.4555 53.4757 21.4017 53.5592C21.3478 53.6427 21.3253 53.7426 21.338 53.8412Z" fill="#F0792E"/>
<path d="M23.7329 108.052C23.7329 109.292 22.7325 110.294 21.5029 110.294C20.2734 110.294 19.273 109.292 19.273 108.052C19.273 106.812 20.2734 105.81 21.5029 105.81C22.7325 105.81 23.7329 106.812 23.7329 108.052Z" fill="#FFF8F3" stroke="#F0792E"/>
<path d="M23.5373 109.636C23.1351 110.155 22.5513 110.501 21.9045 110.604C21.2577 110.706 20.5963 110.557 20.0546 110.188C20.1397 109.991 20.1938 109.874 20.1938 109.874C20.5146 109.772 20.8419 109.691 21.1734 109.631C21.271 109.549 21.3868 109.491 21.5111 109.463C21.5642 109.27 21.5579 109.065 21.4931 108.875C21.3925 108.805 21.3052 108.717 21.2353 108.616C21.1826 108.576 21.1358 108.529 21.0961 108.476C21.0161 108.445 20.4696 108.189 20.4413 107.288C20.4387 107.251 20.4387 107.214 20.4413 107.177C20.2711 107.161 20.0933 107.213 20.217 107.56C20.4284 108.158 20.217 108.471 20.217 108.471C20.2218 108.34 20.2149 108.208 20.1964 108.078C20.1964 108.694 19.8638 108.735 19.8638 108.735C19.8638 108.735 20.0752 108.513 19.7633 107.824C19.4514 107.135 19.5416 106.206 20.1371 106.164C20.2606 106.155 20.3846 106.175 20.4988 106.224C20.6131 106.272 20.7144 106.346 20.7944 106.441C20.9492 106.297 21.1456 106.207 21.3551 106.182C21.5646 106.158 21.7764 106.202 21.9596 106.307C21.9596 106.307 22.4933 106.174 22.6454 106.307C22.6763 106.335 22.6454 106.408 22.5887 106.501C22.7426 106.603 22.8501 106.762 22.8877 106.943C22.9219 107.086 22.9265 107.234 22.9012 107.378C22.8759 107.523 22.8213 107.66 22.7407 107.782C22.8129 108.463 22.6969 108.971 22.1581 109.02C22.1581 109.036 22.1581 109.054 22.1581 109.069C22.1581 109.085 22.1581 109.118 22.1581 109.139C22.1526 109.237 22.1658 109.336 22.1968 109.429C22.2731 109.444 22.348 109.465 22.4211 109.491C22.9032 109.491 23.4522 109.54 23.4522 109.54C23.4841 109.569 23.5126 109.601 23.5373 109.636Z" fill="#F0792E"/>
<path d="M124.121 83.9714C125.586 85.4428 125.586 87.8284 124.121 89.2998C122.656 90.7712 120.281 90.7712 118.816 89.2998C117.351 87.8284 117.351 85.4428 118.816 83.9714C120.281 82.5 122.656 82.5 124.121 83.9714Z" fill="#FFF8F3" stroke="#F0792E"/>
<path d="M124.848 88.8994C124.537 89.3611 124.132 89.7544 123.659 90.0547C123.186 90.355 122.655 90.5557 122.1 90.6445C121.544 90.7332 120.977 90.708 120.432 90.5703C119.887 90.4327 119.376 90.1857 118.933 89.8446C118.909 89.6236 118.916 89.4005 118.955 89.1815C119.007 88.6869 119.583 88.2912 119.576 87.9431C119.568 87.5951 118.981 87.1517 119.356 86.9539C119.732 86.7561 119.813 85.9867 119.512 85.5543C119.342 85.3758 119.25 85.1389 119.254 84.8941C119.258 84.6492 119.359 84.4155 119.535 84.2427C119.817 83.912 120.215 83.6987 120.649 83.6455C121.026 83.4663 121.449 83.4061 121.861 83.4733C122.29 83.5044 122.705 83.6431 123.065 83.8763C123.343 84.0664 123.561 84.3307 123.693 84.6384C123.957 85.1844 124.002 85.8086 123.819 86.386C123.615 86.9612 124.525 86.9283 124.562 87.4595C124.599 87.9908 124.135 88.0201 124.217 88.3718C124.243 88.5476 124.558 88.7015 124.848 88.8994Z" fill="#F0792E"/>
<path d="M58.1993 41.2939C58.1993 43.6224 56.3205 45.5063 54.0075 45.5063C51.6946 45.5063 49.8158 43.6224 49.8158 41.2939C49.8158 38.9654 51.6946 37.0816 54.0075 37.0816C56.3205 37.0816 58.1993 38.9654 58.1993 41.2939Z" fill="#FFF8F3" stroke="#F0792E"/>
<path d="M57.248 44.3157C56.8192 44.779 56.2969 45.1451 55.716 45.3894C55.135 45.6338 54.5089 45.7508 53.8793 45.7326C53.2498 45.7145 52.6313 45.5616 52.0653 45.2843C51.4993 45.0069 50.9987 44.6114 50.5971 44.1241C50.6202 44.1137 50.6444 44.1059 50.6692 44.1008C50.7272 44.0156 50.7986 43.9404 50.8806 43.8782C50.8793 43.8661 50.8793 43.854 50.8806 43.8419L50.958 43.8264C51.105 43.7407 51.2726 43.6968 51.4426 43.6995H51.5844L51.8602 43.6503C51.8602 43.6503 51.8602 43.6762 51.8602 43.7254C52.2108 43.7539 52.7444 43.785 53.3502 43.8264C53.4795 43.7288 53.5751 43.593 53.6235 43.438C53.6753 43.2706 53.6937 43.0947 53.6776 42.9202C53.4622 42.9089 53.2514 42.8524 53.0589 42.7544C52.7009 42.5719 52.4247 42.2602 52.2856 41.8819C52.2674 41.8292 52.2519 41.7756 52.2392 41.7213C52.1134 41.17 52.1055 40.5982 52.216 40.0435H52.1773C52.1659 40.0416 52.1557 40.0355 52.1485 40.0264C52.1414 40.0173 52.1378 40.0059 52.1386 39.9943C52.1386 39.9943 52.1386 39.9943 52.1386 39.9814C52.1411 39.9681 52.1488 39.9563 52.1599 39.9485C52.1709 39.9408 52.1846 39.9377 52.1979 39.94H52.2108C52.1858 39.6032 52.211 39.2646 52.2856 38.9354C52.211 38.7771 52.1723 38.6042 52.1723 38.4292C52.1723 38.2541 52.211 38.0812 52.2856 37.923C52.4506 37.6848 52.3217 37.8116 52.7548 37.7754C53.1878 37.7391 52.9275 37.3507 53.2033 37.3482C53.4791 37.3456 53.4224 37.5165 53.7601 37.6459C54.0978 37.7754 53.9741 37.387 54.3608 37.3507C54.7475 37.3145 54.799 37.6097 55.0749 37.6848C55.251 37.7201 55.4323 37.7201 55.6085 37.6848C55.8096 37.6848 55.8276 38.2725 55.9127 38.3838C55.9977 38.4952 56.1421 38.3269 56.3251 38.6298C56.3482 38.6745 56.3589 38.7246 56.3561 38.7748C56.3561 39.1658 55.8714 39.9115 55.8714 39.9115C55.8471 40.096 55.8135 40.2792 55.7709 40.4604C55.8438 40.5375 55.8913 40.6352 55.907 40.7404C55.9227 40.8455 55.9058 40.953 55.8585 41.0482C55.7628 41.2391 55.6142 41.3982 55.4306 41.5064C55.3525 41.6767 55.2593 41.8396 55.1522 41.9932C55.031 42.6716 54.9717 43.4742 55.2012 43.9791C55.8904 44.0437 56.5743 44.1562 57.248 44.3157Z" fill="#F0792E"/>
<path d="M59.2487 111.261C60.8861 112.905 60.8861 115.572 59.2487 117.216C57.6113 118.861 54.9566 118.861 53.3191 117.216C51.6817 115.572 51.6817 112.905 53.3191 111.261C54.9566 109.616 57.6113 109.616 59.2487 111.261Z" fill="#FFF8F3" stroke="#F0792E"/>
<path d="M59.3232 117.461C58.5887 118.16 57.6377 118.585 56.629 118.664C55.6203 118.744 54.615 118.474 53.7807 117.898C54.103 117.854 54.4407 117.813 54.7835 117.779C55.0413 117.197 54.982 116.27 54.8402 115.488C54.7192 115.309 54.6131 115.12 54.5232 114.923C54.3093 114.8 54.1369 114.615 54.0282 114.393C53.9718 114.283 53.951 114.159 53.9685 114.038C53.9861 113.916 54.0412 113.803 54.1262 113.714C54.042 113.365 53.9945 113.007 53.9844 112.648H53.9638C53.9638 112.648 53.608 111.267 54.9382 110.763C56.2684 110.258 57.6115 111.159 57.6115 111.159C57.6115 111.159 57.9002 110.62 58.2431 110.763C58.5369 110.882 58.3797 111.262 58.3255 111.381C58.3991 111.268 58.5038 111.178 58.6272 111.122C58.8617 111.014 59.1866 111.317 58.457 112.047C58.3814 112.123 58.2944 112.187 58.1992 112.236C58.2531 112.566 58.2601 112.903 58.2199 113.235C58.3469 113.876 58.3372 114.536 58.1915 115.172C58.1772 115.235 58.1583 115.296 58.1348 115.356C57.9805 115.793 57.6649 116.155 57.2531 116.366C57.0312 116.479 56.7879 116.544 56.5391 116.557C56.5242 116.755 56.5443 116.954 56.5984 117.145C56.6562 117.324 56.7668 117.481 56.9154 117.596C57.6192 117.546 58.2327 117.513 58.6375 117.479C58.6392 117.45 58.6392 117.42 58.6375 117.391L58.9571 117.448C59.0792 117.436 59.2023 117.44 59.3232 117.461Z" fill="#F0792E"/>
<path d="M35.8875 60.3432C38.1389 60.8769 39.5364 63.144 39.0039 65.4099C38.4714 67.6759 36.2122 69.0761 33.9608 68.5424C31.7094 68.0087 30.3119 65.7416 30.8444 63.4756C31.3768 61.2097 33.6361 59.8094 35.8875 60.3432Z" fill="#FFF8F3" stroke="#F0792E"/>
<path d="M38.2305 67.3931C37.4997 68.2149 36.4909 68.7346 35.4 68.8514C34.3091 68.9681 33.214 68.6736 32.3271 68.0249L34.0801 67.4811C34.1136 67.52 34.1445 67.5614 34.1781 67.6028L34.4023 67.5614C34.5441 67.5355 34.6833 67.5148 34.8251 67.4941C34.9225 67.327 34.9823 67.1405 35.0004 66.9478H34.7581C34.8071 66.7717 34.5467 66.4066 34.5467 66.4066L34.4591 66.8908C34.3563 66.8718 34.2572 66.8368 34.1652 66.7872C34.0466 66.7122 33.9074 66.1865 33.9074 66.1865C33.9074 66.1865 33.6032 66.7044 33.5362 66.8157C33.4691 66.9271 33.2938 66.8157 33.2938 66.8157C33.2276 66.5178 33.2373 66.2078 33.3222 65.9147C33.3482 65.8651 33.3602 65.8092 33.3567 65.7532C33.3533 65.6973 33.3346 65.6433 33.3026 65.5973C33.2707 65.5514 33.2267 65.5151 33.1756 65.4925C33.1245 65.4699 33.0682 65.4619 33.0129 65.4693C33.0018 65.6428 32.9626 65.8134 32.8969 65.9742C32.8103 66.1822 32.7698 66.4066 32.7783 66.6319C32.7783 66.8183 32.7937 66.9478 32.6623 66.9478C32.5308 66.9478 32.5127 66.8313 32.5282 66.6319C32.5437 66.4325 32.3374 66.2383 32.456 66.0778C32.5746 65.9173 32.4844 65.4693 32.4844 65.4693C32.4122 65.78 32.0719 65.7671 32.0152 65.9872C31.9585 66.2073 32.175 66.5205 32.0719 66.6319C31.9688 66.7432 31.7935 66.6319 31.7935 66.6319C31.7935 66.6319 31.9405 66.3885 31.8373 66.2461C31.7342 66.1037 31.5796 66.0312 31.644 65.7438C31.7084 65.4564 31.8502 65.4564 31.809 65.1353C31.7677 64.8143 31.6156 64.835 31.809 64.7159C32.0541 64.4655 32.2092 64.1403 32.2498 63.7915C32.2498 63.5481 32.1467 62.9863 32.5591 62.7895C32.9716 62.5927 33.0747 62.4399 33 61.9195C32.9252 61.3991 33.3222 61.4353 33.8249 61.5389C33.8249 61.5389 34.0827 61.1402 34.3095 61.2126C34.5364 61.2851 34.722 61.2437 34.771 61.1091C34.82 60.9744 35.4722 60.99 35.5701 61.1091C35.6613 61.1821 35.7691 61.2312 35.8838 61.252C35.9986 61.2727 36.1167 61.2646 36.2275 61.2282C36.4414 61.1402 37.0008 61.4871 37.0008 61.7279C37.0008 61.9687 36.9854 62.1008 37.2896 62.2457C37.5938 62.3907 37.6505 62.4503 37.7819 62.9811C37.9134 63.5119 37.6943 63.7216 37.9598 63.9262C38.2253 64.1307 38.1944 64.9489 38.2176 65.2C38.2408 65.4512 38.2176 65.7308 38.2176 65.7308L38.1429 65.7541C38.0707 65.7723 38.0114 65.4797 38.0243 65.2622C38.0372 65.0447 37.5783 64.7443 37.5396 64.7288C37.5396 64.7495 37.6324 64.9282 37.6866 65.0706C37.7474 65.3308 37.7674 65.599 37.7459 65.8655C37.7304 66.1244 38.0243 66.2564 38.0243 66.2564L37.702 66.417C37.702 66.417 37.4442 65.881 37.537 65.6014C37.555 65.5065 37.5499 65.4087 37.5221 65.3163C37.4942 65.2238 37.4445 65.1395 37.3772 65.0706V65.6014C37.3772 65.6014 37.2896 65.7904 37.1581 66.0415C37.0266 66.2927 37.2612 66.3678 37.2973 66.5024C37.3334 66.6371 37.0086 66.6422 37.0086 66.6422L36.9467 66.3238L36.8359 66.6422C36.6382 66.7479 36.4219 66.8138 36.1991 66.8364C36.1985 67.0171 36.2428 67.1951 36.328 67.3543C36.4311 67.3543 36.5368 67.3543 36.6425 67.3387C36.8488 67.3387 37.0653 67.3387 37.2741 67.3387C37.6118 67.3595 37.9727 67.3931 38.2305 67.3931Z" fill="#F0792E"/>
<path d="M78.7155 42.7809C78.8366 43.6022 78.7119 44.4412 78.3569 45.1914C78.0019 45.9417 77.4328 46.5696 76.7214 46.9957C76.0101 47.4218 75.1885 47.6269 74.3608 47.585C73.5331 47.5431 72.7363 47.2561 72.0715 46.7604C71.4066 46.2647 70.9035 45.5825 70.6258 44.8002C70.3481 44.0179 70.3084 43.1707 70.5115 42.3657C70.7147 41.5608 71.1517 40.8343 71.7672 40.2783C72.3827 39.7222 73.149 39.3616 73.9692 39.2421C75.067 39.081 76.1837 39.3633 77.0738 40.0269C77.9638 40.6905 78.5543 41.6811 78.7155 42.7809Z" fill="#F5F5F5"/>
<path d="M77.7291 42.9253C77.8213 43.5513 77.7261 44.1905 77.4554 44.7622C77.1848 45.3339 76.751 45.8123 76.2088 46.1368C75.6667 46.4614 75.0406 46.6175 74.4098 46.5855C73.7791 46.5534 73.172 46.3346 72.6654 45.9567C72.1589 45.5789 71.7756 45.0589 71.5641 44.4628C71.3526 43.8666 71.3224 43.2209 71.4774 42.6076C71.6323 41.9942 71.9654 41.4406 72.4346 41.017C72.9037 40.5934 73.4877 40.3187 74.1127 40.2277C74.527 40.1669 74.9491 40.1884 75.3551 40.291C75.7611 40.3937 76.1429 40.5754 76.4788 40.826C76.8146 41.0765 77.0979 41.3908 77.3124 41.751C77.527 42.1112 77.6686 42.5103 77.7291 42.9253Z" fill="#EBEBEB"/>
<path d="M74.6402 41.9453C74.7337 41.8831 74.7603 41.7578 74.6997 41.6654C74.639 41.5731 74.514 41.5485 74.4204 41.6107L73.0789 42.5025C72.9854 42.5647 72.9588 42.6901 73.0194 42.7824C73.0801 42.8748 73.2051 42.8993 73.2987 42.8371L73.6832 42.5815C73.842 42.4756 74.0466 42.4711 74.2063 42.5702L73.4542 43.0702C73.3607 43.1324 73.334 43.2578 73.3947 43.3501C73.4554 43.4425 73.5804 43.467 73.6739 43.4048L74.426 42.9048C74.4531 43.0914 74.369 43.2786 74.2106 43.3845L73.8261 43.6401C73.7567 43.6864 73.7217 43.7698 73.7378 43.8506C73.7539 43.9314 73.8179 43.9935 73.8993 44.0073L75.4458 44.2649C75.4967 44.2731 75.5492 44.2614 75.5923 44.2324C75.6387 44.2011 75.671 44.1528 75.682 44.0983C75.6917 44.0457 75.6801 43.9917 75.6498 43.9483C75.6194 43.9049 75.5728 43.8756 75.5203 43.8669L74.471 43.6921C74.7885 43.4539 74.9154 43.0383 74.7828 42.67L75.0148 42.5158C75.1084 42.4536 75.135 42.3283 75.0744 42.2359C75.0137 42.1435 74.8887 42.119 74.7951 42.1812L74.5631 42.3355C74.4886 42.2652 74.4021 42.2088 74.3076 42.1688L74.6413 41.947L74.6402 41.9453Z" fill="#E0E0E0"/>
<path d="M77.7135 42.8272C77.6548 42.7095 77.6079 42.5863 77.5733 42.4593C77.4536 42.1292 77.2834 41.8199 77.0687 41.5423C76.9212 41.3526 76.7529 41.1802 76.5669 41.0283C76.3531 40.8541 76.1175 40.7087 75.866 40.5958C75.7296 40.5345 75.5891 40.4829 75.4455 40.4414C75.2976 40.3984 75.1467 40.3664 74.9941 40.3459C74.8357 40.3244 74.6759 40.315 74.5161 40.3178C74.3517 40.3221 74.1877 40.338 74.0255 40.3655C73.864 40.3958 73.7048 40.4371 73.5489 40.4891C73.3985 40.5427 73.2519 40.6065 73.1102 40.6801C72.8431 40.8229 72.5977 41.003 72.3813 41.2151C72.1859 41.4081 72.0159 41.6251 71.8752 41.8611C71.7541 42.0685 71.6554 42.2884 71.5809 42.5169C71.4752 42.8516 71.4218 43.2007 71.4225 43.5518C71.4368 43.6825 71.4368 43.8144 71.4225 43.945C71.3645 43.8235 71.3334 43.6908 71.3314 43.556C71.2934 43.1909 71.3233 42.8219 71.4197 42.4677C71.4852 42.2235 71.5793 41.9878 71.7 41.7656C71.8424 41.5093 72.0182 41.2732 72.2229 41.0635C72.3338 40.9491 72.4533 40.8435 72.5803 40.7475C72.7132 40.6463 72.8538 40.5557 73.0008 40.4765C73.152 40.3943 73.3095 40.3244 73.4718 40.2672C73.6394 40.2072 73.8114 40.1603 73.9863 40.1268C74.1608 40.0962 74.3375 40.0793 74.5147 40.0763C74.6873 40.0733 74.8598 40.0845 75.0306 40.11C75.3527 40.156 75.666 40.2507 75.9599 40.3908C76.4579 40.6263 76.8863 40.9873 77.2032 41.4384C77.4154 41.7376 77.5699 42.0738 77.6588 42.4298C77.7055 42.5568 77.7241 42.6924 77.7135 42.8272Z" fill="#E0E0E0"/>
</g>
<path d="M96.6219 121.997L64.1234 121.846C62.249 121.838 60.4545 121.08 59.1334 119.739C57.8122 118.399 57.0723 116.585 57.0758 114.695L57.4207 32.56C57.4293 30.6667 58.1834 28.8543 59.5172 27.5214C60.851 26.1884 62.6553 25.4441 64.5334 25.4519L97.0319 25.6061C97.9612 25.61 98.8807 25.7983 99.7379 26.1604C100.595 26.5225 101.373 27.0513 102.027 27.7165C102.682 28.3818 103.2 29.1704 103.552 30.0375C103.904 30.9046 104.083 31.8331 104.08 32.77L103.735 114.892C103.731 115.83 103.544 116.757 103.184 117.622C102.825 118.486 102.299 119.271 101.639 119.931C100.978 120.591 100.195 121.113 99.3344 121.467C98.4735 121.822 97.5518 122.002 96.6219 121.997Z" fill="#455A64"/>
<path d="M96.9861 28.4271L90.6966 28.3943C90.2821 28.402 89.8875 28.5753 89.5996 28.876C89.3117 29.1767 89.1539 29.5804 89.1608 29.9983V31.1496C89.1647 31.3568 89.1281 31.5628 89.053 31.7557C88.9779 31.9486 88.8658 32.1247 88.7232 32.274C88.5806 32.4232 88.4102 32.5427 88.2218 32.6256C88.0334 32.7084 87.8306 32.7531 87.6251 32.7569L75.3226 32.6913C74.9081 32.6801 74.5148 32.5036 74.2293 32.2003C73.9438 31.8971 73.7894 31.4921 73.7999 31.0742V29.9195C73.8103 29.5016 73.6559 29.0966 73.3704 28.7934C73.0849 28.4902 72.6916 28.3136 72.2771 28.3024H70.0613L64.5462 28.2762C63.2325 28.271 61.9704 28.7918 61.0375 29.7243C60.1046 30.6568 59.5772 31.9245 59.5712 33.2489L59.2458 113.419C59.2424 114.076 59.3673 114.726 59.6133 115.334C59.8594 115.942 60.2219 116.494 60.6799 116.961C61.138 117.427 61.6828 117.798 62.2831 118.052C62.8834 118.306 63.5275 118.438 64.1785 118.441L96.6119 118.592C97.2634 118.595 97.9091 118.469 98.5121 118.22C99.115 117.972 99.6635 117.606 100.126 117.143C100.589 116.681 100.956 116.131 101.208 115.525C101.46 114.92 101.591 114.27 101.593 113.613L101.919 33.4424C101.924 32.1181 101.407 30.8458 100.482 29.9053C99.5574 28.9649 98.2998 28.4332 96.9861 28.4271Z" fill="white"/>
<path d="M92.6186 107.896L68.5031 107.784C68.3643 107.76 68.2401 107.683 68.1565 107.568C68.0728 107.454 68.0362 107.312 68.0542 107.171L68.0802 100.811C68.0802 100.483 68.2852 100.201 68.5357 100.204L92.6512 100.315C92.9017 100.315 93.1034 100.591 93.1002 100.929L93.0741 107.289C93.0902 107.43 93.0518 107.571 92.967 107.684C92.8821 107.797 92.7574 107.873 92.6186 107.896Z" fill="#20446C"/>
<path d="M73.3112 51.9786L64.9431 51.9404L64.9362 53.4886L73.3043 53.5269L73.3112 51.9786Z" fill="#20446C"/>
<path opacity="0.1" d="M73.3112 51.9786L64.9431 51.9404L64.9362 53.4886L73.3043 53.5269L73.3112 51.9786Z" fill="#20446C"/>
<path d="M97.8536 61.4809C97.9193 61.4742 97.9838 61.4587 98.0455 61.435C98.1355 61.4004 98.2139 61.3407 98.2715 61.2628C98.3292 61.185 98.3636 61.0923 98.3709 60.9954C98.3709 60.4706 98.3709 59.7129 98.3709 58.7354C98.3709 58.2434 98.3709 57.6989 98.3709 57.0954C98.3709 56.9445 98.3709 56.7936 98.3709 56.6362C98.392 56.4861 98.3585 56.3335 98.2765 56.2065C98.2328 56.1449 98.1752 56.0946 98.1084 56.0599C98.0417 56.0251 97.9677 56.0068 97.8926 56.0064H97.385H92.6836L65.4707 55.9047C65.401 55.9047 65.3321 55.9213 65.2699 55.9533C65.2077 55.9852 65.1539 56.0315 65.1129 56.0884C65.034 56.2166 65.004 56.3692 65.0283 56.5181C65.0283 56.8461 65.0283 57.1741 65.0283 57.5021C65.0283 58.1581 65.0283 58.8142 65.0283 59.4702C65.0283 59.7982 65.0283 60.1262 65.0283 60.4542C65.0148 60.6081 65.0148 60.7628 65.0283 60.9167C65.0454 60.9822 65.0771 61.0429 65.1211 61.094C65.1651 61.1452 65.2202 61.1855 65.282 61.2119C65.346 61.2381 65.4149 61.2493 65.4838 61.2447H67.1398L74.366 61.2841L86.5995 61.3595L94.8473 61.4251L97.089 61.4514H97.6714C97.8048 61.4514 97.8698 61.4514 97.8698 61.4514C97.8698 61.4514 97.8048 61.4514 97.6714 61.4514H97.089H94.8473H86.5995L74.3628 61.412L67.1398 61.3825H65.4805C65.3903 61.3837 65.3008 61.367 65.217 61.3333C65.1318 61.2965 65.0559 61.2409 64.9951 61.1705C64.9343 61.1 64.89 61.0166 64.8656 60.9265C64.8468 60.8405 64.8402 60.7521 64.8461 60.6641V60.4214C64.8461 60.0934 64.8461 59.7654 64.8461 59.4374C64.8461 58.7814 64.8461 58.1253 64.8461 57.4693C64.8461 57.1413 64.8461 56.8133 64.8461 56.4853C64.8414 56.399 64.8414 56.3125 64.8461 56.2262C64.8686 56.0807 64.942 55.9482 65.053 55.8525C65.1639 55.7569 65.3052 55.7044 65.4512 55.7046L92.6641 55.8555L97.3655 55.8916H97.8731C97.9623 55.8927 98.05 55.915 98.1291 55.9566C98.2083 55.9982 98.2766 56.0579 98.3286 56.131C98.4198 56.2739 98.4567 56.4451 98.4327 56.6132C98.4327 56.7706 98.4327 56.9215 98.4327 57.0724C98.4327 57.6694 98.4327 58.2139 98.4327 58.7125C98.4327 59.6965 98.4099 60.4509 98.4034 60.9757C98.3956 61.0763 98.3593 61.1725 98.2987 61.2528C98.2381 61.3331 98.1559 61.394 98.0618 61.4284C97.9986 61.4652 97.9265 61.4833 97.8536 61.4809Z" fill="#E0E0E0"/>
<path d="M82.7138 57.6134H67.409V59.0599H82.7138V57.6134Z" fill="#F0792E"/>
<path opacity="0.2" d="M82.7138 57.6134H67.409V59.0599H82.7138V57.6134Z" fill="white"/>
<path d="M73.2536 66.1021L64.8855 66.0638L64.8786 67.612L73.2467 67.6502L73.2536 66.1021Z" fill="#20446C"/>
<path opacity="0.1" d="M73.2536 66.1021L64.8855 66.0638L64.8786 67.612L73.2467 67.6502L73.2536 66.1021Z" fill="#20446C"/>
<path d="M97.6296 75.6049C97.6957 75.5989 97.761 75.5868 97.8249 75.5688C97.915 75.5392 97.9981 75.491 98.0687 75.4272C98.1393 75.3633 98.1959 75.2853 98.2348 75.1981C98.286 75.0657 98.3061 74.9231 98.2934 74.7816C98.2934 74.6208 98.2934 74.4536 98.2934 74.26C98.2934 73.8828 98.2934 73.4498 98.2934 72.948V70.8618C98.3089 70.711 98.2758 70.5592 98.199 70.4289C98.1168 70.2976 97.9912 70.2 97.8444 70.1533C97.6823 70.1246 97.5174 70.1147 97.3531 70.1238H92.6712L65.5527 70.0221C65.4064 70.0211 65.2649 70.0743 65.1551 70.1717C65.0453 70.2691 64.9748 70.4038 64.9573 70.5502C64.9573 70.8618 64.9573 71.2063 64.9573 71.5343C64.9573 72.1903 64.9573 72.8463 64.9573 73.5023C64.9573 73.8303 64.9573 74.1583 64.9573 74.4864C64.9452 74.6397 64.9518 74.7939 64.9768 74.9456C65.016 75.0793 65.0999 75.1952 65.2143 75.2736C65.3337 75.3522 65.4755 75.3891 65.6177 75.3785H67.033L74.2332 75.4179L86.4243 75.4934L94.6429 75.559L96.8781 75.5852H97.4605C97.5906 75.5852 97.6557 75.5852 97.6557 75.5852C97.6557 75.5852 97.5906 75.5852 97.4572 75.5852H96.8781H94.6429H86.4243L74.2332 75.5458L67.033 75.5163H65.6177C65.4421 75.528 65.2674 75.482 65.1199 75.3851C64.9717 75.2805 64.8637 75.1276 64.8141 74.9521C64.785 74.7866 64.7763 74.618 64.7881 74.4503C64.7881 74.1223 64.7881 73.7943 64.7881 73.4662C64.7881 72.8102 64.7881 72.1542 64.7881 71.4982C64.7881 71.1702 64.7881 70.8422 64.7881 70.4977C64.8111 70.3099 64.9017 70.1371 65.0426 70.012C65.1835 69.8869 65.3649 69.8181 65.5527 69.8188L92.6712 69.9696L97.3531 70.0025C97.5274 69.9934 97.7022 70.0055 97.8737 70.0385C98.0421 70.0953 98.1843 70.2119 98.2738 70.3665C98.358 70.511 98.3945 70.6787 98.378 70.8454C98.378 71.0029 98.378 71.1538 98.378 71.3014C98.378 71.8984 98.378 72.4396 98.378 72.9414C98.378 73.4433 98.378 73.8631 98.3617 74.2535C98.3617 74.4437 98.3617 74.6176 98.3617 74.775C98.3725 74.9217 98.3491 75.0688 98.2934 75.2047C98.2517 75.2956 98.1908 75.3762 98.1149 75.4408C98.039 75.5054 97.95 75.5524 97.8541 75.5786C97.7822 75.6041 97.7055 75.613 97.6296 75.6049Z" fill="#E0E0E0"/>
<path d="M73.1921 80.8373L64.824 80.799L64.817 82.3472L73.1851 82.3855L73.1921 80.8373Z" fill="#20446C"/>
<path opacity="0.1" d="M73.1921 80.8373L64.824 80.799L64.817 82.3472L73.1851 82.3855L73.1921 80.8373Z" fill="#20446C"/>
<path d="M97.5677 90.3403C97.6336 90.3318 97.6988 90.3186 97.7629 90.3009C97.8546 90.2728 97.9392 90.2251 98.011 90.1612C98.0829 90.0972 98.1403 90.0185 98.1794 89.9303C98.2306 89.7979 98.2507 89.6553 98.2379 89.5137C98.2379 89.3563 98.2379 89.1857 98.2379 88.9922C98.2379 88.615 98.2379 88.182 98.2379 87.6801V85.5972C98.2535 85.4464 98.2204 85.2946 98.1436 85.1643C98.0634 85.0306 97.9371 84.9313 97.789 84.8854C97.6269 84.8563 97.4619 84.8475 97.2977 84.8592H92.6158L65.4973 84.7575C65.3514 84.7579 65.2107 84.8116 65.1011 84.9087C64.9916 85.0059 64.9208 85.1398 64.9019 85.2856C64.9019 85.6136 64.9019 85.9416 64.9019 86.2697C64.9019 86.9257 64.9019 87.5817 64.9019 88.2377C64.9019 88.5658 64.9019 88.8938 64.9019 89.2218C64.8898 89.3751 64.8963 89.5293 64.9214 89.681C64.9606 89.8147 65.0446 89.9306 65.1589 90.009C65.2784 90.0876 65.4201 90.1245 65.5624 90.114H66.0374H66.9777L74.1778 90.1501L86.3689 90.2255L94.5874 90.2911L96.8226 90.3173H97.405C97.5352 90.3173 97.6003 90.3173 97.6003 90.3173H97.405H96.8226H94.5874H86.3689L74.1778 90.278L66.9451 90.2813H66.0016H65.5298C65.3539 90.2918 65.1792 90.2446 65.032 90.1468C64.884 90.0434 64.776 89.8916 64.7262 89.7171C64.6971 89.5504 64.6884 89.3808 64.7002 89.2119C64.7002 88.8839 64.7002 88.5559 64.7002 88.2279C64.7002 87.5719 64.7002 86.9158 64.7002 86.2598C64.7002 85.9318 64.7002 85.6038 64.7002 85.2594C64.7239 85.0718 64.8147 84.8994 64.9554 84.7744C65.0961 84.6494 65.2772 84.5805 65.4648 84.5804L92.5832 84.7313L97.2651 84.7674C97.4395 84.7549 97.6147 84.7671 97.7857 84.8034C97.9548 84.8591 98.0973 84.976 98.1859 85.1314C98.2705 85.2758 98.307 85.4436 98.29 85.6104C98.29 85.7645 98.29 85.9154 98.29 86.0663C98.29 86.66 98.29 87.2045 98.29 87.7064C98.29 88.2082 98.29 88.6281 98.29 89.0184C98.29 89.2054 98.29 89.3792 98.29 89.5367C98.3008 89.6833 98.2774 89.8305 98.2217 89.9664C98.18 90.0576 98.1191 90.1386 98.0433 90.2038C97.9674 90.2689 97.8784 90.3166 97.7825 90.3436C97.7112 90.3553 97.6385 90.3542 97.5677 90.3403Z" fill="#E0E0E0"/>
<path d="M82.4354 72.0885L67.1307 72.0185L67.1242 73.4651L82.4288 73.5351L82.4354 72.0885Z" fill="#F0792E"/>
<path opacity="0.2" d="M82.4354 72.0885L67.1307 72.0185L67.1242 73.4651L82.4288 73.5351L82.4354 72.0885Z" fill="white"/>
<path d="M68.5165 87.6605C68.5076 87.7919 68.4608 87.9179 68.3818 88.0229C68.3029 88.1279 68.1952 88.2073 68.072 88.2514C67.9488 88.2954 67.8156 88.3022 67.6886 88.2709C67.5617 88.2397 67.4466 88.1716 67.3575 88.0752C67.2684 87.9788 67.2092 87.8583 67.1872 87.7284C67.1651 87.5985 67.1813 87.465 67.2336 87.3442C67.2858 87.2235 67.372 87.1208 67.4814 87.0487C67.5909 86.9767 67.7188 86.9385 67.8495 86.9389C68.0328 86.9457 68.2059 87.0255 68.3309 87.1607C68.4559 87.296 68.5226 87.4757 68.5165 87.6605Z" fill="#F0792E"/>
<path d="M70.5888 87.67C70.5798 87.8021 70.5325 87.9287 70.4528 88.034C70.3731 88.1392 70.2644 88.2185 70.1403 88.262C70.0162 88.3055 69.8822 88.3113 69.7549 88.2787C69.6276 88.246 69.5126 88.1764 69.4242 88.0784C69.3358 87.9804 69.278 87.8583 69.2578 87.7275C69.2377 87.5966 69.2561 87.4626 69.3109 87.3422C69.3656 87.2218 69.4543 87.1203 69.5658 87.0503C69.6773 86.9803 69.8068 86.9448 69.9381 86.9484C70.1185 86.9594 70.2874 87.041 70.409 87.1758C70.5306 87.3106 70.5951 87.4879 70.5888 87.67Z" fill="#F0792E"/>
<path d="M72.665 87.6805C72.6562 87.812 72.6093 87.9379 72.5304 88.0429C72.4514 88.1479 72.3437 88.2273 72.2205 88.2714C72.0974 88.3155 71.9641 88.3223 71.8372 88.291C71.7102 88.2597 71.5951 88.1916 71.506 88.0952C71.4169 87.9988 71.3577 87.8783 71.3357 87.7484C71.3137 87.6185 71.3298 87.485 71.3821 87.3642C71.4344 87.2435 71.5206 87.1408 71.63 87.0688C71.7394 86.9967 71.8674 86.9585 71.9981 86.9589C72.181 86.9666 72.3536 87.0466 72.4785 87.1817C72.6033 87.3167 72.6703 87.496 72.665 87.6805Z" fill="#F0792E"/>
<path d="M74.754 87.69C74.745 87.8221 74.6977 87.9487 74.618 88.054C74.5382 88.1592 74.4296 88.2385 74.3055 88.282C74.1814 88.3255 74.0474 88.3313 73.92 88.2987C73.7927 88.266 73.6777 88.1964 73.5894 88.0984C73.501 88.0004 73.4431 87.8783 73.423 87.7475C73.4028 87.6166 73.4213 87.4826 73.476 87.3622C73.5308 87.2418 73.6194 87.1403 73.7309 87.0703C73.8425 87.0003 73.9719 86.9648 74.1032 86.9684C74.2836 86.9794 74.4526 87.061 74.5742 87.1958C74.6957 87.3306 74.7602 87.5079 74.754 87.69Z" fill="#F0792E"/>
<path d="M76.8097 87.7003C76.8008 87.8324 76.7535 87.959 76.6737 88.0642C76.594 88.1695 76.4853 88.2488 76.3612 88.2923C76.2371 88.3358 76.1031 88.3416 75.9758 88.3089C75.8484 88.2763 75.7335 88.2066 75.6451 88.1086C75.5567 88.0106 75.4988 87.8886 75.4787 87.7577C75.4586 87.6268 75.477 87.4929 75.5318 87.3725C75.5865 87.2521 75.6752 87.1506 75.7867 87.0806C75.8982 87.0105 76.0277 86.9751 76.159 86.9786C76.3397 86.9888 76.5091 87.0702 76.6309 87.2052C76.7526 87.3402 76.8168 87.518 76.8097 87.7003Z" fill="#F0792E"/>
<path d="M78.882 87.7096C78.8731 87.8417 78.8258 87.9683 78.746 88.0735C78.6663 88.1788 78.5576 88.2581 78.4335 88.3016C78.3094 88.3451 78.1754 88.3509 78.0481 88.3183C77.9208 88.2856 77.8058 88.216 77.7174 88.1179C77.629 88.0199 77.5712 87.8979 77.551 87.767C77.5309 87.6362 77.5493 87.5022 77.6041 87.3818C77.6588 87.2614 77.7475 87.1599 77.859 87.0898C77.9705 87.0198 78.1 86.9844 78.2313 86.9879C78.4123 86.9973 78.5823 87.0784 78.7042 87.2136C78.8261 87.3488 78.89 87.527 78.882 87.7096Z" fill="#F0792E"/>
<path d="M80.9582 87.7193C80.9492 87.8515 80.9019 87.978 80.8222 88.0833C80.7425 88.1885 80.6338 88.2679 80.5097 88.3114C80.3856 88.3549 80.2516 88.3607 80.1243 88.328C79.997 88.2953 79.882 88.2257 79.7936 88.1277C79.7052 88.0297 79.6474 87.9077 79.6272 87.7768C79.6071 87.6459 79.6255 87.5119 79.6803 87.3915C79.735 87.2711 79.8237 87.1696 79.9352 87.0996C80.0467 87.0296 80.1762 86.9941 80.3075 86.9977C80.4879 87.0087 80.6568 87.0903 80.7784 87.2251C80.9 87.3599 80.9645 87.5372 80.9582 87.7193Z" fill="#F0792E"/>
<path d="M83.0315 87.7293C83.0226 87.8608 82.9758 87.9867 82.8969 88.0917C82.8179 88.1967 82.7102 88.2761 82.587 88.3202C82.4639 88.3643 82.3306 88.3711 82.2036 88.3398C82.0767 88.3085 81.9616 88.2404 81.8725 88.144C81.7834 88.0477 81.7242 87.9271 81.7022 87.7972C81.6802 87.6673 81.6963 87.5338 81.7486 87.4131C81.8009 87.2923 81.887 87.1896 81.9965 87.1176C82.1059 87.0456 82.2339 87.0074 82.3645 87.0077C82.4554 87.0107 82.5448 87.0317 82.6276 87.0696C82.7104 87.1075 82.7849 87.1616 82.8469 87.2287C82.9089 87.2957 82.9571 87.3745 82.9888 87.4604C83.0205 87.5463 83.035 87.6377 83.0315 87.7293Z" fill="#F0792E"/>
<path d="M85.1039 87.7393C85.0949 87.8715 85.0476 87.998 84.9678 88.1033C84.8881 88.2085 84.7794 88.2879 84.6554 88.3314C84.5313 88.3749 84.3972 88.3807 84.2699 88.348C84.1426 88.3153 84.0276 88.2457 83.9392 88.1477C83.8509 88.0497 83.793 87.9277 83.7729 87.7968C83.7527 87.6659 83.7712 87.5319 83.8259 87.4116C83.8807 87.2912 83.9693 87.1896 84.0808 87.1196C84.1923 87.0496 84.3218 87.0142 84.4531 87.0177C84.6338 87.0279 84.8033 87.1093 84.925 87.2442C85.0467 87.3792 85.111 87.557 85.1039 87.7393Z" fill="#F0792E"/>
<g opacity="0.2">
<path opacity="0.2" d="M68.5165 87.6605C68.5076 87.7919 68.4608 87.9179 68.3818 88.0229C68.3029 88.1279 68.1952 88.2073 68.072 88.2514C67.9488 88.2954 67.8156 88.3022 67.6886 88.2709C67.5617 88.2397 67.4466 88.1716 67.3575 88.0752C67.2684 87.9788 67.2092 87.8583 67.1872 87.7284C67.1651 87.5985 67.1813 87.465 67.2336 87.3442C67.2858 87.2235 67.372 87.1208 67.4814 87.0487C67.5909 86.9767 67.7188 86.9385 67.8495 86.9389C68.0328 86.9457 68.2059 87.0255 68.3309 87.1607C68.4559 87.296 68.5226 87.4757 68.5165 87.6605Z" fill="white"/>
<path opacity="0.2" d="M70.5888 87.67C70.5798 87.8021 70.5325 87.9287 70.4528 88.034C70.3731 88.1392 70.2644 88.2185 70.1403 88.262C70.0162 88.3056 69.8822 88.3113 69.7549 88.2787C69.6276 88.246 69.5126 88.1764 69.4242 88.0784C69.3358 87.9804 69.278 87.8583 69.2578 87.7275C69.2377 87.5966 69.2561 87.4626 69.3109 87.3422C69.3656 87.2218 69.4543 87.1203 69.5658 87.0503C69.6773 86.9803 69.8068 86.9448 69.9381 86.9484C70.1185 86.9594 70.2874 87.041 70.409 87.1758C70.5306 87.3106 70.5951 87.4879 70.5888 87.67Z" fill="white"/>
<path opacity="0.2" d="M72.665 87.6795C72.6562 87.811 72.6093 87.937 72.5304 88.0419C72.4514 88.1469 72.3437 88.2263 72.2205 88.2704C72.0974 88.3145 71.9641 88.3213 71.8372 88.29C71.7102 88.2587 71.5951 88.1907 71.506 88.0943C71.4169 87.9979 71.3577 87.8773 71.3357 87.7474C71.3137 87.6176 71.3298 87.484 71.3821 87.3633C71.4344 87.2425 71.5206 87.1398 71.63 87.0678C71.7394 86.9958 71.8674 86.9576 71.9981 86.9579C72.181 86.9656 72.3536 87.0456 72.4785 87.1807C72.6033 87.3158 72.6703 87.495 72.665 87.6795Z" fill="white"/>
<path opacity="0.2" d="M74.754 87.69C74.745 87.8222 74.6977 87.9487 74.618 88.054C74.5382 88.1592 74.4296 88.2386 74.3055 88.2821C74.1814 88.3256 74.0474 88.3314 73.92 88.2987C73.7927 88.266 73.6777 88.1964 73.5894 88.0984C73.501 88.0004 73.4431 87.8784 73.423 87.7475C73.4028 87.6166 73.4213 87.4826 73.476 87.3622C73.5308 87.2418 73.6194 87.1403 73.7309 87.0703C73.8425 87.0003 73.9719 86.9648 74.1032 86.9684C74.2836 86.9794 74.4526 87.061 74.5742 87.1958C74.6957 87.3306 74.7602 87.5079 74.754 87.69Z" fill="white"/>
<path opacity="0.2" d="M76.8107 87.6998C76.8017 87.8319 76.7544 87.9585 76.6747 88.0637C76.5949 88.169 76.4863 88.2483 76.3622 88.2918C76.2381 88.3353 76.1041 88.3411 75.9767 88.3084C75.8494 88.2758 75.7344 88.2061 75.6461 88.1081C75.5577 88.0101 75.4998 87.8881 75.4797 87.7572C75.4595 87.6264 75.478 87.4924 75.5327 87.372C75.5875 87.2516 75.6761 87.1501 75.7876 87.0801C75.8992 87.01 76.0286 86.9746 76.16 86.9782C76.3406 86.9883 76.5101 87.0697 76.6318 87.2047C76.7536 87.3397 76.8178 87.5175 76.8107 87.6998Z" fill="white"/>
<path opacity="0.2" d="M78.882 87.7096C78.873 87.8417 78.8257 87.9683 78.746 88.0735C78.6663 88.1788 78.5576 88.2581 78.4335 88.3016C78.3094 88.3451 78.1754 88.3509 78.0481 88.3183C77.9208 88.2856 77.8058 88.2159 77.7174 88.1179C77.629 88.0199 77.5712 87.8979 77.551 87.767C77.5309 87.6361 77.5493 87.5022 77.6041 87.3818C77.6588 87.2614 77.7475 87.1599 77.859 87.0898C77.9705 87.0198 78.1 86.9844 78.2313 86.9879C78.4123 86.9973 78.5822 87.0784 78.7041 87.2136C78.826 87.3488 78.89 87.527 78.882 87.7096Z" fill="white"/>
<path opacity="0.2" d="M80.9582 87.7193C80.9492 87.8515 80.9019 87.978 80.8222 88.0833C80.7424 88.1886 80.6338 88.2679 80.5097 88.3114C80.3856 88.3549 80.2516 88.3607 80.1243 88.328C79.997 88.2954 79.882 88.2257 79.7936 88.1277C79.7052 88.0297 79.6474 87.9077 79.6272 87.7768C79.6071 87.6459 79.6255 87.5119 79.6803 87.3915C79.735 87.2711 79.8237 87.1696 79.9352 87.0996C80.0467 87.0296 80.1762 86.9941 80.3075 86.9977C80.4879 87.0087 80.6568 87.0903 80.7784 87.2251C80.8999 87.3599 80.9645 87.5373 80.9582 87.7193Z" fill="white"/>
<path opacity="0.2" d="M83.0305 87.7293C83.0217 87.8608 82.9748 87.9867 82.8959 88.0917C82.8169 88.1967 82.7092 88.2761 82.586 88.3202C82.4629 88.3642 82.3296 88.3711 82.2027 88.3398C82.0757 88.3085 81.9606 88.2404 81.8715 88.144C81.7824 88.0476 81.7232 87.9271 81.7012 87.7972C81.6792 87.6673 81.6953 87.5338 81.7476 87.4131C81.7999 87.2923 81.8861 87.1896 81.9955 87.1176C82.1049 87.0456 82.2329 87.0074 82.3636 87.0077C82.4544 87.0107 82.5438 87.0317 82.6266 87.0696C82.7094 87.1075 82.7839 87.1616 82.8459 87.2287C82.9079 87.2957 82.9561 87.3745 82.9878 87.4604C83.0195 87.5463 83.034 87.6377 83.0305 87.7293Z" fill="white"/>
<path opacity="0.2" d="M85.1039 87.7393C85.0949 87.8715 85.0476 87.998 84.9678 88.1033C84.8881 88.2086 84.7794 88.2879 84.6554 88.3314C84.5313 88.3749 84.3972 88.3807 84.2699 88.348C84.1426 88.3154 84.0276 88.2457 83.9392 88.1477C83.8509 88.0497 83.793 87.9277 83.7729 87.7968C83.7527 87.6659 83.7712 87.532 83.8259 87.4116C83.8807 87.2912 83.9693 87.1896 84.0808 87.1196C84.1923 87.0496 84.3218 87.0142 84.4531 87.0177C84.6338 87.0279 84.8033 87.1093 84.925 87.2442C85.0467 87.3792 85.111 87.557 85.1039 87.7393Z" fill="white"/>
</g>
<path d="M82.1589 40.3833C82.3849 40.283 82.5767 40.1179 82.7103 39.9085C82.844 39.6991 82.9136 39.4547 82.9105 39.2058C82.9189 39.0439 82.8946 38.8821 82.8389 38.73C82.7833 38.578 82.6976 38.4389 82.5869 38.3214C82.4763 38.2038 82.343 38.1102 82.1953 38.0462C82.0476 37.9823 81.8886 37.9493 81.7278 37.9493C81.5671 37.9493 81.408 37.9823 81.2603 38.0462C81.1126 38.1102 80.9794 38.2038 80.8687 38.3214C80.7581 38.4389 80.6723 38.578 80.6167 38.73C80.5611 38.8821 80.5367 39.0439 80.5451 39.2058C80.54 39.4569 80.609 39.7038 80.7434 39.9152C80.8778 40.1267 81.0715 40.293 81.3 40.3932C79.478 40.6687 79.5593 42.6663 79.5593 42.6663L83.867 42.686C83.867 42.686 83.9646 40.6589 82.1589 40.3833Z" fill="#F0792E"/>
<path opacity="0.1" d="M82.1589 40.3833C82.3849 40.283 82.5767 40.1179 82.7103 39.9085C82.844 39.6991 82.9136 39.4547 82.9105 39.2058C82.9189 39.0439 82.8946 38.8821 82.8389 38.73C82.7833 38.578 82.6976 38.4389 82.5869 38.3214C82.4763 38.2038 82.343 38.1102 82.1953 38.0462C82.0476 37.9823 81.8886 37.9493 81.7278 37.9493C81.5671 37.9493 81.408 37.9823 81.2603 38.0462C81.1126 38.1102 80.9794 38.2038 80.8687 38.3214C80.7581 38.4389 80.6723 38.578 80.6167 38.73C80.5611 38.8821 80.5367 39.0439 80.5451 39.2058C80.54 39.4569 80.609 39.7038 80.7434 39.9152C80.8778 40.1267 81.0715 40.293 81.3 40.3932C79.478 40.6687 79.5593 42.6663 79.5593 42.6663L83.867 42.686C83.867 42.686 83.9646 40.6589 82.1589 40.3833Z" fill="#F0792E"/>
<path d="M89.1572 43.9757L73.8037 43.9055L73.7954 45.7554L89.1488 45.8257L89.1572 43.9757Z" fill="#20446C"/>
</g>
<defs>
<clipPath id="clip0_834_46155">
<rect width="139" height="113.095" fill="white" transform="translate(5.77457 9.4026)"/>
</clipPath>
<clipPath id="clip1_834_46155">
<rect width="128.891" height="99.1954" fill="white" transform="translate(7.03827 30.8851)"/>
</clipPath>
</defs>
</svg>
