<svg width="2" height="4" viewBox="0 0 2 4" fill="none" xmlns="http://www.w3.org/2000/svg">
<path opacity="0.81" d="M1.10964 3.9971C1.0396 3.99683 0.97168 3.97305 0.916767 3.92956C0.861854 3.88607 0.823128 3.82541 0.806797 3.75728L0.00483605 0.36601C-0.00917535 0.28742 0.00752467 0.206457 0.0514862 0.139832C0.0954477 0.0732068 0.163314 0.0260245 0.24106 0.00802142C0.318807 -0.00998168 0.400494 0.00257722 0.46925 0.0431012C0.538006 0.0836251 0.588578 0.149004 0.610514 0.225759L1.41247 3.61703C1.42326 3.66273 1.42357 3.71029 1.41338 3.75613C1.40319 3.80197 1.38276 3.84491 1.35363 3.88174C1.32451 3.91857 1.28743 3.94834 1.24517 3.9688C1.20292 3.98926 1.15658 3.99989 1.10964 3.99991V3.9971Z" fill="white"/>
</svg>
