<svg width="23" height="23" viewBox="0 0 23 23" fill="none" xmlns="http://www.w3.org/2000/svg">
<path d="M19.9419 12.7222C19.9419 17.6611 15.7865 21.6713 10.6522 21.6713C5.51792 21.6713 1.36249 17.6609 1.36249 12.7222C1.36249 7.78343 5.51792 3.77311 10.6522 3.77311C15.7866 3.77311 19.9419 7.78342 19.9419 12.7222ZM10.6522 22.8897C16.4728 22.8897 21.1981 18.3411 21.1981 12.7222C21.1981 7.10313 16.4728 2.5547 10.6522 2.5547C4.8315 2.5547 0.106232 7.10314 0.106232 12.7222C0.106232 18.3411 4.8315 22.8897 10.6522 22.8897Z" fill="white" stroke="white" stroke-width="0.205"/>
<path d="M15.5352 12.5862C15.5352 13.0503 15.2709 13.4703 14.8384 13.6987L8.99978 16.8006C8.78354 16.9185 8.54327 16.9774 8.303 16.9774C8.06273 16.9774 7.82246 16.9185 7.60621 16.8006C7.16571 16.5648 6.90142 16.1522 6.90142 15.688V9.4843C6.90142 9.02012 7.16571 8.60016 7.60621 8.37175C8.0387 8.13598 8.5673 8.13598 9.00779 8.37175L14.8464 11.4736C15.2709 11.7094 15.5352 12.122 15.5352 12.5862Z" fill="white"/>
<ellipse cx="17.3343" cy="5.59823" rx="5.66437" ry="5.21089" fill="white"/>
<path d="M17.1253 0C13.8782 0 11.2502 2.41728 11.2502 5.40476C11.2502 8.39192 13.8778 10.8095 17.1253 10.8095C20.3724 10.8095 23.0004 8.39224 23.0004 5.40476C23.0004 2.41759 20.3728 0 17.1253 0ZM17.1253 10.0554C14.3378 10.0554 12.07 7.9691 12.07 5.40476C12.07 2.84041 14.3378 0.754154 17.1253 0.754154C19.9128 0.754154 22.1806 2.84041 22.1806 5.40476C22.1806 7.9691 19.9128 10.0554 17.1253 10.0554Z" fill="white"/>
<g clip-path="url(#clip0_2339_15716)">
<path d="M17.5367 7.52382L17.4704 7.83253C17.2715 7.92195 17.1126 7.99 16.9943 8.0368C16.8759 8.08373 16.7383 8.10708 16.5815 8.10708C16.3407 8.10708 16.1534 8.0399 16.0198 7.90644C15.8862 7.77246 15.8194 7.60268 15.8194 7.39671C15.8194 7.31698 15.8242 7.23497 15.8343 7.15141C15.8445 7.06776 15.8606 6.97354 15.8828 6.86823L16.1313 5.86611C16.1535 5.77015 16.1722 5.67923 16.1873 5.59325C16.2026 5.5078 16.2099 5.42918 16.2099 5.35841C16.2099 5.23044 16.1867 5.14092 16.1404 5.09059C16.094 5.04041 16.0057 5.01493 15.8745 5.01493C15.8102 5.01493 15.7442 5.02665 15.6768 5.04932C15.6092 5.07209 15.5514 5.09408 15.5029 5.11452L15.5694 4.80557C15.7322 4.73005 15.8879 4.66538 16.0368 4.61171C16.1856 4.5579 16.3263 4.53096 16.4594 4.53096C16.6985 4.53096 16.8831 4.59679 17.0126 4.72845C17.1422 4.86021 17.207 5.03101 17.207 5.24148C17.207 5.28503 17.2027 5.36176 17.1936 5.47142C17.1847 5.58133 17.168 5.68204 17.1438 5.77364L16.8963 6.77174C16.876 6.85191 16.8578 6.94356 16.8419 7.04669C16.8255 7.14914 16.8177 7.22742 16.8177 7.27992C16.8177 7.41246 16.8436 7.50294 16.8956 7.55104C16.948 7.59914 17.0383 7.62307 17.1665 7.62307C17.2266 7.62307 17.2951 7.61091 17.3712 7.58703C17.4471 7.56315 17.5024 7.54218 17.5367 7.52382ZM17.5995 3.33348C17.5995 3.50738 17.5419 3.6559 17.4263 3.77802C17.311 3.90057 17.172 3.96189 17.0094 3.96189C16.8463 3.96189 16.707 3.90057 16.5903 3.77802C16.4739 3.65585 16.4156 3.50738 16.4156 3.33348C16.4156 3.15992 16.4739 3.01117 16.5903 2.8875C16.7068 2.76403 16.8464 2.70231 17.0094 2.70231C17.172 2.70231 17.311 2.76417 17.4263 2.8875C17.542 3.01117 17.5995 3.15997 17.5995 3.33348Z" fill="#F06F33"/>
</g>
<defs>
<clipPath id="clip0_2339_15716">
<rect width="4.58194" height="5.21889" fill="white" transform="translate(14.178 2.70231) scale(1.03562)"/>
</clipPath>
</defs>
</svg>
