<svg width="24" height="25" viewBox="0 0 24 25" fill="none" xmlns="http://www.w3.org/2000/svg">
<path d="M21.2206 24.0289L4.1835 24.996C3.49818 25.0348 2.8251 24.8024 2.30958 24.349C1.79406 23.8956 1.47746 23.2576 1.42812 22.5728L0.00667854 2.80225C-0.0189715 2.44394 0.0294379 2.08418 0.148891 1.74542C0.268345 1.40665 0.456281 1.09613 0.700981 0.833213C0.94568 0.5703 1.2419 0.36063 1.57116 0.217277C1.90043 0.0739241 2.25569 -3.78132e-05 2.61479 1.45028e-08H21.0765C21.7685 0.00197866 22.4315 0.278437 22.92 0.768741C23.4086 1.25905 23.6828 1.92317 23.6825 2.61543V21.423C23.6812 22.0894 23.4257 22.7301 22.9681 23.2144C22.5106 23.6986 21.8855 23.99 21.2206 24.0289Z" fill="#6C9ED7"/>
</svg>
