<svg width="20" height="14" viewBox="0 0 20 14" fill="none" xmlns="http://www.w3.org/2000/svg">
<path opacity="0.8" d="M19.579 4.07777C19.507 3.96445 19.4102 3.869 19.2958 3.79861C19.1815 3.72822 19.0527 3.68474 18.9191 3.67145L4.89802 2.12722L4.62297 1.07143C4.56763 0.880975 4.45705 0.71122 4.30524 0.58365C4.15342 0.45608 3.96719 0.376426 3.7701 0.354769L1.11556 0.0103064C0.532411 -0.065412 0.0494767 0.284382 0.00363518 0.786683C-0.0422064 1.28898 0.350113 1.7209 0.920467 1.78915L2.89058 2.02591L5.82871 13.3303C5.88224 13.5249 5.99878 13.6962 6.16006 13.8174C6.32134 13.9386 6.51826 14.0028 6.71995 14.0001L17.1004 13.775C17.322 13.772 17.5337 13.6828 17.6907 13.5264C17.8477 13.3699 17.9377 13.1585 17.9415 12.9368C17.947 12.8248 17.9293 12.7128 17.8894 12.608C17.8496 12.5031 17.7885 12.4076 17.71 12.3275C17.6316 12.2474 17.5374 12.1843 17.4334 12.1424C17.3294 12.1004 17.2178 12.0804 17.1057 12.0837L7.51098 12.1903L7.0046 10.2131L17.3456 10.4701C17.5393 10.4656 17.7265 10.3994 17.8799 10.281C18.0333 10.1626 18.1449 9.99835 18.1985 9.8121L19.6825 4.83175C19.7191 4.70586 19.7289 4.57365 19.7111 4.44373C19.6933 4.31382 19.6483 4.18912 19.579 4.07777ZM6.72102 13.5276V13.0563V13.5276ZM17.3008 9.52629L6.53339 9.25861L5.17307 3.25979L17.997 4.65579L17.3008 9.52629Z" fill="white"/>
</svg>
