<svg width="27" height="2" viewBox="0 0 27 2" fill="none" xmlns="http://www.w3.org/2000/svg">
<path d="M26.5297 0.249453L0.47763 5.56691e-05C0.414161 -0.000921025 0.351157 0.0109632 0.292401 0.0349909C0.233644 0.0590187 0.180348 0.094691 0.135739 0.139865C0.0911295 0.185039 0.0561227 0.238777 0.032824 0.297844C0.00952537 0.35691 -0.00157355 0.420082 0.000179561 0.483556L0.00840527 0.903533C0.0102639 1.02813 0.0614517 1.1469 0.15074 1.2338C0.240029 1.32069 0.360133 1.36861 0.484693 1.36704L26.5285 1.19646C26.5914 1.19648 26.6536 1.1839 26.7115 1.15944C26.7695 1.13499 26.8219 1.09917 26.8658 1.05409C26.9096 1.00902 26.944 0.955603 26.9669 0.89701C26.9897 0.838417 27.0006 0.775832 26.9989 0.712956C26.997 0.589586 26.9468 0.471877 26.8591 0.385184C26.7713 0.29849 26.653 0.249747 26.5297 0.249453Z" fill="#7D97F4"/>
</svg>
