<svg width="1" height="8" viewBox="0 0 1 8" fill="none" xmlns="http://www.w3.org/2000/svg">
<path d="M0.228389 7.99976C0.167819 7.99976 0.109722 7.97569 0.0668928 7.93285C0.0240633 7.89 0 7.83189 0 7.7713V7.08468C0 7.02409 0.0240633 6.96598 0.0668928 6.92314C0.109722 6.88029 0.167819 6.85623 0.228389 6.85623C0.288959 6.85623 0.347041 6.88029 0.38987 6.92314C0.4327 6.96598 0.456763 7.02409 0.456763 7.08468V7.7713C0.456763 7.8013 0.450858 7.83101 0.439381 7.85873C0.427904 7.88645 0.411077 7.91163 0.38987 7.93285C0.368663 7.95406 0.343495 7.97089 0.315787 7.98237C0.288079 7.99385 0.25838 7.99976 0.228389 7.99976ZM0.228389 5.71394C0.167819 5.71394 0.109722 5.68987 0.0668928 5.64702C0.0240633 5.60418 0 5.54607 0 5.48548V4.79886C0 4.73827 0.0240633 4.68016 0.0668928 4.63731C0.109722 4.59447 0.167819 4.5704 0.228389 4.5704C0.288959 4.5704 0.347041 4.59447 0.38987 4.63731C0.4327 4.68016 0.456763 4.73827 0.456763 4.79886V5.48548C0.456763 5.51548 0.450858 5.54519 0.439381 5.57291C0.427904 5.60062 0.411077 5.62581 0.38987 5.64702C0.368663 5.66824 0.343495 5.68507 0.315787 5.69655C0.288079 5.70803 0.25838 5.71394 0.228389 5.71394ZM0.228389 3.42811C0.167819 3.42811 0.109722 3.40404 0.0668928 3.3612C0.0240633 3.31836 0 3.26025 0 3.19966V2.51303C0 2.45244 0.0240633 2.39433 0.0668928 2.35149C0.109722 2.30865 0.167819 2.28458 0.228389 2.28458C0.288959 2.28458 0.347041 2.30865 0.38987 2.35149C0.4327 2.39433 0.456763 2.45244 0.456763 2.51303V3.2034C0.455781 3.26334 0.431284 3.32049 0.38856 3.36253C0.345837 3.40457 0.288316 3.42812 0.228389 3.42811ZM0.228389 1.14229C0.167819 1.14229 0.109722 1.11822 0.0668928 1.07538C0.0240633 1.03253 0 0.974422 0 0.913831V0.22846C0 0.167869 0.0240633 0.10976 0.0668928 0.0669157C0.109722 0.0240716 0.167819 0 0.228389 0C0.288959 0 0.347041 0.0240716 0.38987 0.0669157C0.4327 0.10976 0.456763 0.167869 0.456763 0.22846V0.913831C0.456763 0.943833 0.450858 0.973541 0.439381 1.00126C0.427904 1.02898 0.411077 1.05416 0.38987 1.07538C0.368663 1.09659 0.343495 1.11342 0.315787 1.1249C0.288079 1.13638 0.25838 1.14229 0.228389 1.14229Z" fill="#90B9E7"/>
</svg>
