<svg width="22" height="22" viewBox="0 0 22 22" fill="none" xmlns="http://www.w3.org/2000/svg">
<path d="M21.9935 10.5706C22.0694 12.7356 21.4989 14.8744 20.3541 16.7165C19.2093 18.5587 17.5416 20.0214 15.5619 20.9197C13.5822 21.818 11.3795 22.1116 9.23225 21.7634C7.085 21.4151 5.08968 20.4406 3.49863 18.9631C1.90758 17.4857 0.79226 15.5716 0.293703 13.4629C-0.204853 11.3543 -0.0642505 9.14575 0.697734 7.11666C1.45972 5.08757 2.80886 3.32905 4.57454 2.06348C6.34023 0.797909 8.44315 0.0821267 10.6174 0.00665616C13.5328 -0.0945411 16.3691 0.961577 18.5025 2.94269C20.6359 4.9238 21.8917 7.66764 21.9935 10.5706Z" fill="#20446C"/>
<g opacity="0.1">
<path opacity="0.1" d="M10.6156 0.00830631C7.70027 0.109687 4.94475 1.36009 2.9552 3.48444C0.965659 5.6088 -0.0949434 8.43311 0.00668455 11.3361C0.00668455 11.3361 7.74787 11.4132 9.50723 8.24926C11.2666 5.08532 10.6156 0.00830631 10.6156 0.00830631Z" fill="white"/>
</g>
<path d="M19.1745 10.4935C19.2328 12.1396 18.7993 13.766 17.929 15.1667C17.0587 16.5675 15.7906 17.6797 14.2853 18.3625C12.78 19.0454 11.105 19.2683 9.47243 19.003C7.83985 18.7376 6.32301 17.996 5.11386 16.872C3.90471 15.7479 3.05759 14.292 2.67973 12.6884C2.30186 11.0847 2.41021 9.40555 2.99108 7.86328C3.57196 6.32101 4.59923 4.98499 5.94291 4.02428C7.2866 3.06357 8.88629 2.52136 10.5395 2.46626C12.7531 2.3925 14.9056 3.19634 16.5245 4.70132C18.1435 6.20631 19.0965 8.28946 19.1745 10.4935Z" fill="#20446C"/>
<g opacity="0.2">
<path opacity="0.2" d="M19.1745 10.4935C19.2328 12.1396 18.7993 13.766 17.929 15.1667C17.0587 16.5675 15.7906 17.6797 14.2853 18.3625C12.78 19.0454 11.105 19.2683 9.47243 19.003C7.83985 18.7376 6.32301 17.996 5.11386 16.872C3.90471 15.7479 3.05759 14.292 2.67973 12.6884C2.30186 11.0847 2.41021 9.40555 2.99108 7.86328C3.57196 6.32101 4.59923 4.98499 5.94291 4.02428C7.2866 3.06357 8.88629 2.52136 10.5395 2.46626C12.7531 2.3925 14.9056 3.19634 16.5245 4.70132C18.1435 6.20631 19.0965 8.28946 19.1745 10.4935Z" fill="#20446C"/>
</g>
<path d="M19.4274 10.8333C19.4841 12.4566 19.0562 14.0601 18.1978 15.4412C17.3394 16.8223 16.089 17.919 14.6047 18.5925C13.1204 19.2661 11.4689 19.4862 9.85891 19.2252C8.24896 18.9642 6.75289 18.2337 5.55985 17.126C4.36681 16.0184 3.53039 14.5834 3.15633 13.0024C2.78227 11.4215 2.88737 9.76559 3.45836 8.24412C4.02934 6.72265 5.04056 5.40392 6.36416 4.45468C7.68776 3.50544 9.26429 2.96831 10.8944 2.9112C13.0808 2.83553 15.2079 3.62755 16.8081 5.11312C18.4082 6.59869 19.3503 8.65621 19.4274 10.8333Z" fill="#F0792E"/>
<path d="M13.3849 8.84909C13.6664 8.84909 13.8945 8.62513 13.8945 8.34879C13.8945 8.07265 13.6664 7.84849 13.3849 7.84849H9.3487C9.06721 7.84849 8.83907 8.07265 8.83907 8.34879C8.83907 8.62513 9.06721 8.84909 9.3487 8.84909H10.5055C10.9839 8.84831 11.4185 9.1223 11.6165 9.54951H9.35368C9.07239 9.54951 8.84405 9.77367 8.84405 10.0498C8.84405 10.3262 9.07239 10.5501 9.35368 10.5501H11.6165C11.4167 10.9762 10.9831 11.2494 10.5055 11.2505H9.3487C9.13967 11.2507 8.95175 11.376 8.87431 11.5666C8.79687 11.7571 8.84544 11.9748 8.99694 12.1161L11.8815 14.7927C11.9769 14.8803 12.1027 14.9285 12.2331 14.9278C12.3732 14.927 12.5072 14.8711 12.6051 14.7728C12.6979 14.6766 12.7479 14.5482 12.7441 14.4159C12.7403 14.2836 12.683 14.1582 12.5848 14.0673L10.6277 12.2511C11.6205 12.1949 12.4578 11.5052 12.6868 10.5552H13.3849C13.6664 10.5552 13.8945 10.3312 13.8945 10.0549C13.8945 9.77856 13.6664 9.5546 13.3849 9.5546H12.6868C12.6274 9.30542 12.5239 9.06817 12.381 8.85417H13.3849V8.84909Z" fill="white"/>
<g opacity="0.2">
<path opacity="0.2" d="M19.4274 10.8333C19.4841 12.4566 19.0562 14.0601 18.1978 15.4412C17.3394 16.8223 16.089 17.919 14.6047 18.5925C13.1204 19.2661 11.4689 19.4862 9.85891 19.2252C8.24896 18.9642 6.75289 18.2337 5.55985 17.126C4.36681 16.0184 3.53039 14.5834 3.15633 13.0024C2.78227 11.4215 2.88737 9.76559 3.45836 8.24412C4.02934 6.72265 5.04056 5.40392 6.36416 4.45468C7.68776 3.50544 9.26429 2.96831 10.8944 2.9112C13.0808 2.83553 15.2079 3.62755 16.8081 5.11312C18.4082 6.59869 19.3503 8.65621 19.4274 10.8333Z" fill="white"/>
</g>
<path d="M11.3219 19.4142H11.3888L11.5858 19.3966L11.9095 19.3651C12.0562 19.355 12.2019 19.3351 12.3459 19.3055L12.8913 19.2004C12.9941 19.1814 13.0952 19.1544 13.1939 19.1198L13.5211 19.0217C13.6402 18.9916 13.7577 18.9553 13.873 18.9131L14.2249 18.766C14.348 18.7134 14.4782 18.6679 14.6014 18.6048L14.9884 18.4016C15.5573 18.0955 16.0897 17.7264 16.5754 17.3014L16.9589 16.9335L17.1525 16.7443C17.2123 16.6742 17.2686 16.6041 17.3319 16.534C17.448 16.3904 17.5782 16.2537 17.6838 16.0996L18.0145 15.6265L18.099 15.5039C18.1271 15.4654 18.1483 15.4198 18.1729 15.3778L18.3207 15.1185L18.4685 14.8557C18.5213 14.7681 18.5529 14.67 18.5987 14.5789C18.6796 14.3897 18.7676 14.204 18.8415 14.0113L19.042 13.4121C19.2785 12.5674 19.3888 11.6926 19.3693 10.8158C19.3284 9.93922 19.1564 9.07359 18.8591 8.24752C18.7781 8.05131 18.7007 7.8551 18.6198 7.66239C18.5388 7.46968 18.4298 7.29449 18.3348 7.11229C18.2903 7.02096 18.241 6.93206 18.187 6.846L18.0216 6.59372L17.8562 6.34496C17.828 6.30291 17.8034 6.26086 17.7753 6.22232L17.6803 6.1067L17.3284 5.65821C17.2017 5.51455 17.0645 5.38491 16.9378 5.25177L16.7443 5.05555C16.6774 4.99248 16.6071 4.93643 16.5367 4.87686L16.132 4.52648C15.6162 4.13598 15.0579 3.80454 14.4677 3.5384L14.07 3.36321C13.9399 3.30715 13.8061 3.27562 13.683 3.23007L13.31 3.10744C13.1939 3.06539 13.0707 3.05138 12.9581 3.01984L12.6239 2.94626C12.5222 2.91973 12.4187 2.90099 12.3142 2.8902L11.7653 2.82363C11.6196 2.80327 11.4725 2.7939 11.3254 2.7956H11.0017H10.8011H11.3254C11.4724 2.79123 11.6194 2.79826 11.7653 2.81662L12.3177 2.87618C12.4231 2.88715 12.5277 2.90471 12.6309 2.92874L12.9828 3.00232C13.0954 3.03035 13.2185 3.04437 13.3346 3.08641L13.7076 3.20554C13.8343 3.24759 13.9715 3.28263 14.1017 3.33869L14.5029 3.51037C15.098 3.77621 15.6621 4.10639 16.1848 4.49495L16.593 4.84533L16.8041 5.02402L16.9976 5.22023C17.1278 5.35688 17.2686 5.48652 17.3953 5.63018L17.7471 6.08217L17.8421 6.1978L17.9266 6.32043L18.092 6.5727L18.2609 6.82498C18.3207 6.90907 18.3594 7.00718 18.4122 7.09477C18.5072 7.27697 18.6092 7.44515 18.7007 7.64837C18.7922 7.8516 18.859 8.0408 18.94 8.24051C19.5671 9.91267 19.6313 11.7425 19.123 13.4542L18.9259 14.0603C18.8485 14.2566 18.757 14.4423 18.6761 14.6315C18.6303 14.7261 18.5987 14.8242 18.5459 14.9118C18.4931 14.9994 18.4438 15.087 18.3946 15.1746L18.2468 15.4373C18.2222 15.4794 18.1975 15.5249 18.1694 15.567L18.0849 15.6896L17.7331 16.1661C17.6169 16.3203 17.4867 16.4569 17.3812 16.6006L17.1982 16.8108L17.0047 17.0035L16.6176 17.3749C16.1247 17.8005 15.5853 18.1695 15.0096 18.4751L14.6225 18.6749C14.4958 18.7379 14.3656 18.78 14.2389 18.8325L13.8871 18.9797C13.7717 19.0218 13.6543 19.058 13.5352 19.0883L13.2044 19.1829C13.1045 19.2164 13.0022 19.2422 12.8983 19.26L12.3529 19.3581C12.2078 19.3862 12.0608 19.4026 11.9131 19.4072L11.5893 19.4317H11.3888L11.3219 19.4142Z" fill="#263238"/>
<path d="M1.82079 16.4148C1.8 16.3889 1.7823 16.3607 1.76801 16.3307L1.62374 16.0855C1.56392 15.9803 1.49003 15.8472 1.41614 15.686C1.34225 15.5248 1.24724 15.3532 1.16983 15.1464L1.03964 14.8276C0.993892 14.7155 0.958703 14.5963 0.916478 14.4772C0.824992 14.2319 0.758139 13.9657 0.677209 13.6818C0.527452 13.068 0.425112 12.4437 0.371083 11.8143C0.329376 11.1828 0.337614 10.549 0.395717 9.91876C0.430904 9.63145 0.459049 9.35464 0.511829 9.10237C0.53646 8.97273 0.554058 8.8501 0.582208 8.73097C0.610357 8.61184 0.6385 8.50322 0.663131 8.38059C0.712393 8.16335 0.77573 7.97415 0.828511 7.80596C0.868482 7.66203 0.91665 7.52048 0.972779 7.382L1.07834 7.11921C1.08685 7.08718 1.09988 7.05651 1.11705 7.02812C1.11258 7.06164 1.10431 7.09455 1.09241 7.12622L1.00445 7.39251C0.962222 7.50814 0.916477 7.65179 0.870734 7.81998C0.82499 7.98816 0.765175 8.17036 0.719432 8.3911C0.695974 8.50088 0.671346 8.61768 0.645542 8.74148C0.617392 8.8571 0.603317 8.98324 0.578686 9.10938C0.529424 9.36165 0.504797 9.63495 0.473129 9.92226C0.417542 10.548 0.411653 11.1771 0.455529 11.8038C0.506183 12.4294 0.604996 13.0503 0.751099 13.6608C0.82851 13.9411 0.895364 14.2074 0.979813 14.4527C1.02204 14.5718 1.05723 14.6944 1.09946 14.8031L1.2226 15.1254C1.30002 15.3321 1.38799 15.5073 1.45836 15.6685C1.52874 15.8297 1.59559 15.9628 1.65189 16.0714L1.78208 16.3237C1.79993 16.3518 1.81301 16.3825 1.82079 16.4148Z" fill="white"/>
<path d="M11.2745 2.22458C11.1856 2.23372 11.096 2.23372 11.0071 2.22458H10.6904C10.5708 2.22458 10.43 2.22458 10.2752 2.22458C10.1204 2.22458 9.95498 2.2421 9.77201 2.26313C9.58903 2.28415 9.40254 2.30868 9.20198 2.34021C8.33028 2.48979 7.48661 2.771 6.70015 3.17412C6.52069 3.27222 6.34828 3.35982 6.19697 3.45792C6.05057 3.54065 5.90847 3.63069 5.77121 3.72772C5.64101 3.81181 5.53193 3.8959 5.41933 3.96948C5.30673 4.04306 5.23987 4.10613 5.17302 4.16219C5.10609 4.22176 5.0343 4.27567 4.95838 4.32336C5.01865 4.25722 5.0833 4.19518 5.15191 4.13766C5.21524 4.0781 5.29617 4.00802 5.39118 3.93444C5.48618 3.86086 5.59527 3.76626 5.72546 3.67867C5.85566 3.59107 5.98936 3.49296 6.1477 3.39836C6.30605 3.30376 6.47144 3.20565 6.65089 3.10754C7.04611 2.90226 7.45668 2.72771 7.87893 2.58548C8.30134 2.44501 8.73435 2.33839 9.17382 2.26663C9.37791 2.2386 9.57144 2.20706 9.75441 2.19655C9.93738 2.18604 10.1063 2.17203 10.2611 2.16853C10.4159 2.16502 10.5567 2.16853 10.6798 2.16853C10.803 2.16853 10.9086 2.16853 10.993 2.18955C11.0876 2.19423 11.1817 2.20594 11.2745 2.22458Z" fill="white"/>
<path d="M12.7047 21.285C12.6431 21.3133 12.578 21.3333 12.5112 21.3445C12.3845 21.3796 12.198 21.4181 11.9693 21.4567C10.7596 21.6561 9.5199 21.5721 8.34849 21.2114C8.12681 21.1448 7.94736 21.0782 7.82772 21.0292C7.76411 21.0072 7.70282 20.979 7.64474 20.9451C7.71106 20.9552 7.77601 20.9728 7.83828 20.9977C7.96143 21.0397 8.14089 21.0958 8.36609 21.1588C9.53432 21.4838 10.7572 21.5661 11.9587 21.4006C12.191 21.3691 12.3775 21.3375 12.5041 21.313C12.5694 21.2949 12.6369 21.2854 12.7047 21.285Z" fill="white"/>
</svg>
