<svg width="29" height="29" viewBox="0 0 29 29" fill="none" xmlns="http://www.w3.org/2000/svg">
<path d="M14.4144 28.9993C14.3956 29.0004 14.3768 29.0004 14.358 28.9993L11.157 28.6108C11.0615 28.5995 10.972 28.5585 10.9009 28.4937C10.8299 28.4289 10.7809 28.3434 10.761 28.2493L10.2249 25.7527C9.09196 25.325 8.03084 24.7269 7.07818 23.9791L4.66278 24.8149C4.5719 24.8462 4.47352 24.8484 4.38134 24.8211C4.28915 24.7939 4.20775 24.7386 4.14845 24.6629L2.16926 22.1186C2.10986 22.0429 2.07562 21.9505 2.07134 21.8543C2.06705 21.7582 2.09295 21.6631 2.14539 21.5824L3.53321 19.4353C3.03355 18.3337 2.70427 17.1625 2.55663 15.9618L0.259515 14.8438C0.173081 14.8018 0.101934 14.7338 0.0560218 14.6493C0.0101093 14.5648 -0.00827319 14.4681 0.00343656 14.3727L0.391892 11.1706C0.403176 11.0751 0.444093 10.9855 0.508904 10.9144C0.573715 10.8434 0.659156 10.7944 0.75322 10.7744L3.24891 10.2382C3.67706 9.10488 4.2753 8.04342 5.02304 7.09035L4.18751 4.67411C4.15622 4.58319 4.15403 4.48477 4.18126 4.39256C4.20849 4.30034 4.26377 4.21891 4.33943 4.1596L6.87744 2.16994C6.95316 2.11065 7.04544 2.0764 7.14148 2.07193C7.23753 2.06745 7.33257 2.09299 7.41347 2.14498L9.55977 3.53437C10.6609 3.03427 11.8317 2.70486 13.032 2.55745L14.1497 0.259519C14.1918 0.17316 14.2598 0.102091 14.3442 0.0561802C14.4286 0.0102699 14.5252 -0.00819802 14.6206 0.00335133L17.8216 0.391949C17.9171 0.403237 18.0067 0.444175 18.0777 0.509009C18.1487 0.573843 18.1977 0.659314 18.2177 0.753411L18.7537 3.24998C19.8862 3.67857 20.9472 4.27659 21.9004 5.02362L24.3158 4.1889C24.4067 4.15759 24.5051 4.1554 24.5973 4.18264C24.6895 4.20988 24.7709 4.26519 24.8302 4.34087L26.818 6.89062C26.8774 6.96634 26.9117 7.05874 26.916 7.1549C26.9202 7.25105 26.8943 7.34614 26.8419 7.42684L25.4541 9.57281C25.9536 10.6745 26.2829 11.8457 26.4307 13.0463L28.7278 14.1643C28.8142 14.2064 28.8854 14.2744 28.9313 14.3588C28.9772 14.4433 28.9956 14.54 28.9839 14.6354L28.5954 17.8375C28.584 17.933 28.543 18.0225 28.4782 18.0935C28.4134 18.1646 28.3281 18.2136 28.2341 18.2337L25.7384 18.7699C25.3098 19.9011 24.712 20.9607 23.9653 21.9124L24.7998 24.3297C24.8311 24.4206 24.8333 24.519 24.806 24.6112C24.7788 24.7034 24.7235 24.7849 24.6479 24.8442L22.1099 26.8338C22.0342 26.8933 21.9418 26.9275 21.8457 26.9318C21.7496 26.9361 21.6545 26.9102 21.5738 26.8577L19.4221 25.4705C18.321 25.9706 17.1501 26.3 15.9498 26.4474L14.8322 28.7454C14.7932 28.8225 14.7335 28.8872 14.6596 28.9321C14.5858 28.977 14.5008 29.0003 14.4144 28.9993ZM7.17584 23.432L7.28435 23.5145C8.25486 24.2959 9.34633 24.9137 10.5157 25.3435L10.6405 25.3891L11.233 28.1473L14.4166 28.5196L15.6243 25.9948L15.7567 25.9796C16.9968 25.8441 18.2064 25.5064 19.3375 24.9799L19.4579 24.9234L21.8277 26.4561L24.3419 24.4675L23.4141 21.8223L23.4977 21.7191C24.2781 20.7468 24.8946 19.6534 25.3228 18.4823L25.3684 18.3564L28.1256 17.7648L28.4977 14.58L25.9738 13.3676L25.9586 13.2352C25.8232 11.9946 25.4856 10.7846 24.9593 9.65313L24.9039 9.53156L26.435 7.16199L24.4471 4.64697L21.8093 5.57504L21.7008 5.49146C20.729 4.71032 19.636 4.09358 18.4651 3.66571L18.3403 3.62012L17.7478 0.861957L14.5653 0.486384L13.3532 3.01117L13.2208 3.02529C11.9808 3.1617 10.7712 3.49974 9.64006 4.02608L9.51962 4.08144L7.15197 2.54877L4.63783 4.53734L5.56558 7.18152L5.48311 7.29007C4.70232 8.2624 4.08546 9.35573 3.65691 10.5269L3.61134 10.6518L0.867159 11.2412L0.480863 14.4292L3.00477 15.6416L3.01996 15.7741C3.15545 17.0146 3.49304 18.2246 4.01933 19.3561L4.07575 19.4766L2.54361 21.8472L4.53149 24.3622L7.17584 23.432ZM14.5642 22.4866C14.2377 22.4864 13.9116 22.4664 13.5876 22.4269C12.1472 22.2521 10.7813 21.6894 9.63573 20.7987C9.58523 20.7594 9.55239 20.7016 9.54446 20.6381C9.53652 20.5746 9.55413 20.5105 9.59341 20.46C9.63269 20.4095 9.69042 20.3766 9.75391 20.3687C9.8174 20.3608 9.88145 20.3784 9.93196 20.4177C11.2474 21.4391 12.8638 21.9962 14.529 22.0022C16.1941 22.0081 17.8145 21.4626 19.1372 20.4507C20.4599 19.4387 21.4106 18.0173 21.841 16.4081C22.2715 14.799 22.1574 13.0926 21.5165 11.5551C20.8757 10.0176 19.7442 8.73549 18.2985 7.90881C16.8529 7.08213 15.1743 6.75734 13.5248 6.98512C11.8752 7.21289 10.3474 7.98041 9.1797 9.16795C8.01197 10.3555 7.26999 11.8963 7.0695 13.5499C7.00483 14.0831 6.99646 14.6215 7.04455 15.1564C7.0484 15.1884 7.04578 15.2209 7.03687 15.2519C7.02795 15.2829 7.0129 15.3118 6.99263 15.3368C6.97235 15.3619 6.94726 15.3826 6.91882 15.3978C6.89039 15.413 6.8592 15.4223 6.8271 15.4252C6.79499 15.4281 6.76264 15.4246 6.73194 15.4147C6.70124 15.4049 6.67282 15.389 6.64837 15.368C6.62393 15.347 6.60395 15.3213 6.58961 15.2924C6.57528 15.2635 6.56689 15.232 6.56494 15.1998C6.41574 13.589 6.75679 11.9706 7.54334 10.5571C8.32989 9.14356 9.52521 8.00089 10.9725 7.27899C12.4197 6.55709 14.0513 6.28968 15.6532 6.51186C17.2551 6.73402 18.7524 7.4354 19.9487 8.52395C21.1451 9.61249 21.9845 11.0374 22.357 12.6117C22.7294 14.1859 22.6175 15.8361 22.0358 17.3456C21.4541 18.8551 20.4299 20.1534 19.0975 21.0703C17.7651 21.9871 16.1868 22.4797 14.5696 22.4833L14.5642 22.4866Z" fill="#90B9E7"/>
</svg>
