<svg width="140" height="132" viewBox="0 0 140 132" fill="none" xmlns="http://www.w3.org/2000/svg">
<path d="M18.371 21.6719L18.5609 21.5155C36.0442 7.27497 59.2671 6.63088 76.1944 21.9633C85.0089 29.9531 100.665 28.4256 111.866 31.3148C150.487 41.2798 143.812 88.6848 124.732 111.602C107.517 132.28 70.2175 136.955 45.1537 126.778C23.1173 117.838 7.62405 97.8646 2.09801 76.9777C1.54202 74.8839 1.08999 72.7707 0.741931 70.6381C-2.16348 52.8612 3.41341 33.9771 18.371 21.6719Z" fill="white"/>
<path d="M80.1959 68.7275C80.1717 68.795 80.1218 68.8502 80.0572 68.881C79.9926 68.9117 79.9185 68.9156 79.8511 68.8918L65.9057 64.0871C65.8379 64.0643 65.7819 64.0155 65.7498 63.9515C65.7178 63.8874 65.7124 63.8132 65.7347 63.7451L68.3175 55.8336C68.3653 55.6941 68.6255 55.48 68.9247 55.6059L82.6712 59.9548C82.7597 59.9825 82.8418 60.0278 82.9126 60.0879C82.9835 60.148 83.0415 60.2217 83.0834 60.3047C83.1248 60.3866 83.1489 60.4762 83.1542 60.5679C83.1595 60.6595 83.1459 60.7513 83.1143 60.8375L80.1959 68.7275Z" fill="#FFD9C9"/>
<path d="M70.7408 59.4135L68.9329 58.7906C68.7834 58.739 68.6204 58.8189 68.569 58.9689L68.0962 60.3478C68.0448 60.4978 68.1244 60.6611 68.2739 60.7127L70.0818 61.3356C70.2314 61.3871 70.3944 61.3073 70.4458 61.1573L70.9185 59.7784C70.97 59.6284 70.8904 59.465 70.7408 59.4135Z" fill="#F0792E"/>
<path opacity="0.8" d="M69.5354 60.5228L69.0199 60.3452C68.9817 60.3319 68.9504 60.304 68.9327 60.2676C68.915 60.2312 68.9124 60.1893 68.9256 60.151L69.0813 59.6968C69.0944 59.6585 69.1222 59.627 69.1584 59.6092C69.1947 59.5914 69.2365 59.5887 69.2748 59.6018L69.7906 59.7795C69.8287 59.7928 69.8601 59.8206 69.8778 59.8571C69.8955 59.8935 69.898 59.9354 69.8849 59.9737L69.7289 60.4287C69.7156 60.4668 69.6877 60.4981 69.6515 60.5157C69.6152 60.5334 69.5735 60.5359 69.5354 60.5228ZM69.2326 59.7249C69.2271 59.7231 69.2212 59.7236 69.2161 59.7261C69.2109 59.7287 69.207 59.7331 69.2052 59.7386L69.0492 60.1936C69.0473 60.199 69.0476 60.2049 69.0501 60.2101C69.0526 60.2153 69.057 60.2193 69.0624 60.2212L69.5782 60.3989C69.5836 60.4007 69.5896 60.4003 69.5947 60.3977C69.5998 60.3952 69.6037 60.3907 69.6056 60.3853L69.7613 59.9311C69.7632 59.9257 69.7628 59.9198 69.7603 59.9146C69.7579 59.9094 69.7534 59.9054 69.7481 59.9035L69.2326 59.7249Z" fill="white"/>
<path opacity="0.81" d="M69.0845 59.8844L68.3435 59.6291C68.3271 59.6235 68.3137 59.6115 68.306 59.5959C68.2984 59.5803 68.2973 59.5623 68.303 59.5459C68.3086 59.5294 68.3205 59.5159 68.3361 59.5083C68.3517 59.5006 68.3696 59.4995 68.386 59.5052L69.127 59.7605C69.1434 59.7661 69.1568 59.7781 69.1645 59.7937C69.1721 59.8093 69.1732 59.8273 69.1675 59.8437C69.1619 59.8602 69.15 59.8737 69.1344 59.8813C69.1188 59.8889 69.1009 59.8901 69.0845 59.8844Z" fill="white"/>
<path opacity="0.81" d="M69.02 60.07L68.2791 59.8147C68.2627 59.809 68.2492 59.7971 68.2416 59.7815C68.234 59.7658 68.2329 59.7478 68.2385 59.7314C68.2442 59.715 68.2561 59.7014 68.2716 59.6938C68.2872 59.6862 68.3052 59.6851 68.3216 59.6907L69.0625 59.946C69.0789 59.9517 69.0924 59.9636 69.1 59.9792C69.1076 59.9948 69.1087 60.0128 69.1031 60.0293C69.0974 60.0457 69.0855 60.0592 69.07 60.0669C69.0544 60.0745 69.0364 60.0756 69.02 60.07Z" fill="white"/>
<path opacity="0.81" d="M70.6901 60.4382L69.8865 60.1613C69.8701 60.1557 69.8566 60.1437 69.849 60.1281C69.8414 60.1125 69.8403 60.0945 69.8459 60.0781C69.8516 60.0616 69.8635 60.0481 69.8791 60.0405C69.8946 60.0329 69.9126 60.0318 69.929 60.0374L70.7326 60.3143C70.749 60.3199 70.7624 60.3319 70.7701 60.3475C70.7777 60.3631 70.7788 60.3811 70.7731 60.3975C70.7675 60.414 70.7556 60.4275 70.74 60.4351C70.7244 60.4427 70.7065 60.4439 70.6901 60.4382Z" fill="white"/>
<path opacity="0.81" d="M70.6315 60.6238L69.8279 60.3469C69.8115 60.3412 69.798 60.3293 69.7904 60.3137C69.7828 60.2981 69.7817 60.2801 69.7873 60.2636C69.793 60.2472 69.8049 60.2337 69.8205 60.226C69.836 60.2184 69.854 60.2173 69.8704 60.223L70.674 60.4998C70.6904 60.5055 70.7039 60.5174 70.7115 60.533C70.7191 60.5486 70.7202 60.5666 70.7145 60.5831C70.7089 60.5995 70.697 60.613 70.6814 60.6207C70.6658 60.6283 70.6479 60.6294 70.6315 60.6238Z" fill="white"/>
<path opacity="0.81" d="M69.3152 59.7595C69.3012 59.7546 69.2893 59.7452 69.2814 59.7328C69.2734 59.7204 69.2699 59.7056 69.2713 59.691L69.3432 58.9609C69.3457 58.9443 69.3546 58.9293 69.3679 58.9191C69.3812 58.9088 69.3979 58.9041 69.4146 58.9058C69.4313 58.9076 69.4467 58.9157 69.4576 58.9284C69.4685 58.9412 69.4741 58.9577 69.4733 58.9745L69.4014 59.7046C69.4004 59.7144 69.3972 59.7239 69.392 59.7323C69.3869 59.7407 69.3799 59.7479 69.3716 59.7532C69.3633 59.7586 69.3539 59.7619 69.3441 59.7631C69.3342 59.7643 69.3243 59.7632 69.315 59.76L69.3152 59.7595Z" fill="white"/>
<path opacity="0.81" d="M69.749 59.9099C69.7439 59.9082 69.7391 59.9059 69.7345 59.9031C69.7273 59.8984 69.7211 59.8923 69.7162 59.8852C69.7113 59.8782 69.7078 59.8702 69.706 59.8618C69.7042 59.8533 69.7041 59.8446 69.7057 59.8362C69.7072 59.8277 69.7104 59.8196 69.7151 59.8124L70.112 59.1943C70.1214 59.1796 70.1362 59.1693 70.1532 59.1657C70.1702 59.162 70.188 59.1652 70.2026 59.1746C70.2173 59.1841 70.2276 59.1989 70.2313 59.2159C70.235 59.233 70.2317 59.2508 70.2223 59.2654L69.8252 59.8834C69.8172 59.8957 69.8054 59.9049 69.7916 59.9097C69.7779 59.9145 69.7629 59.9146 69.749 59.9099Z" fill="white"/>
<path opacity="0.81" d="M68.7224 60.9659C68.713 60.9627 68.7045 60.9573 68.6975 60.9504C68.6904 60.9434 68.6851 60.9349 68.6818 60.9255C68.6785 60.9161 68.6774 60.9061 68.6786 60.8963C68.6797 60.8864 68.6831 60.877 68.6884 60.8686L69.0793 60.2488C69.0836 60.241 69.0895 60.2342 69.0965 60.2288C69.1035 60.2233 69.1116 60.2194 69.1202 60.2172C69.1288 60.2149 69.1377 60.2145 69.1465 60.2159C69.1553 60.2172 69.1637 60.2204 69.1712 60.2251C69.1787 60.2298 69.1852 60.236 69.1903 60.2433C69.1954 60.2506 69.1989 60.2589 69.2007 60.2676C69.2025 60.2763 69.2025 60.2853 69.2007 60.294C69.1989 60.3027 69.1953 60.3109 69.1903 60.3182L68.7992 60.9383C68.7914 60.9509 68.7795 60.9605 68.7656 60.9655C68.7517 60.9705 68.7364 60.9706 68.7224 60.9659Z" fill="white"/>
<path opacity="0.81" d="M69.4827 61.2254C69.4688 61.2206 69.4569 61.2112 69.4489 61.1989C69.441 61.1865 69.4373 61.1718 69.4387 61.1572L69.5046 60.4253C69.5052 60.4166 69.5075 60.4081 69.5114 60.4002C69.5153 60.3924 69.5207 60.3854 69.5273 60.3797C69.534 60.374 69.5417 60.3697 69.55 60.3671C69.5583 60.3644 69.5671 60.3634 69.5758 60.3642C69.5845 60.365 69.593 60.3675 69.6007 60.3717C69.6084 60.3758 69.6153 60.3814 69.6208 60.3882C69.6263 60.395 69.6304 60.4028 69.6328 60.4112C69.6353 60.4197 69.636 60.4285 69.635 60.4372L69.5692 61.1694C69.5676 61.1867 69.5592 61.2026 69.5459 61.2137C69.5326 61.2248 69.5154 61.2301 69.4981 61.2285C69.4928 61.2282 69.4876 61.2271 69.4827 61.2254Z" fill="white"/>
<path d="M71.4135 57.2916L69.3977 56.5971C69.2201 56.5359 69.0267 56.6307 68.9656 56.8087L68.9528 56.8461C68.8918 57.0242 68.9862 57.2181 69.1638 57.2793L71.1796 57.9738C71.3571 58.035 71.5506 57.9402 71.6116 57.7622L71.6244 57.7248C71.6855 57.5467 71.591 57.3528 71.4135 57.2916Z" fill="white"/>
<path d="M69.9359 62.2571L67.7052 61.4885C67.5358 61.4301 67.3512 61.5205 67.293 61.6904L67.2913 61.6952C67.2331 61.865 67.3232 62.0501 67.4926 62.1084L69.7233 62.877C69.8927 62.9354 70.0773 62.845 70.1355 62.6751L70.1372 62.6704C70.1954 62.5005 70.1053 62.3154 69.9359 62.2571Z" fill="white"/>
<path d="M73.1507 63.365L70.92 62.5964C70.7506 62.538 70.5661 62.6284 70.5078 62.7983L70.5062 62.8031C70.4479 62.9729 70.5381 63.158 70.7075 63.2164L72.9382 63.9849C73.1076 64.0433 73.2921 63.9529 73.3504 63.783L73.352 63.7783C73.4102 63.6084 73.3201 63.4233 73.1507 63.365Z" fill="white"/>
<path d="M76.3636 64.4729L74.1329 63.7043C73.9635 63.6459 73.779 63.7364 73.7207 63.9062L73.7191 63.911C73.6608 64.0809 73.751 64.2659 73.9204 64.3243L76.1511 65.0928C76.3205 65.1512 76.505 65.0608 76.5633 64.8909L76.5649 64.8862C76.6231 64.7163 76.533 64.5313 76.3636 64.4729Z" fill="white"/>
<path d="M79.639 65.6013L77.4083 64.8327C77.2389 64.7744 77.0543 64.8648 76.9961 65.0347L76.9945 65.0394C76.9362 65.2093 77.0263 65.3943 77.1958 65.4527L79.4265 66.2212C79.5959 66.2796 79.7804 66.1892 79.8387 66.0193L79.8403 66.0146C79.8985 65.8447 79.8084 65.6597 79.639 65.6013Z" fill="white"/>
<path d="M71.6103 64.4312L67.4606 63.0015C67.326 62.9551 67.1793 63.027 67.133 63.162L67.1306 63.169C67.0843 63.304 67.1559 63.4511 67.2906 63.4975L71.4402 64.9272C71.5749 64.9736 71.7216 64.9018 71.7679 64.7667L71.7703 64.7597C71.8166 64.6247 71.7449 64.4776 71.6103 64.4312Z" fill="white"/>
<path d="M78.8877 66.798L77.0876 66.1778C76.9529 66.1314 76.8062 66.2032 76.7599 66.3383L76.7575 66.3452C76.7112 66.4803 76.7829 66.6274 76.9175 66.6738L78.7176 67.294C78.8523 67.3404 78.999 67.2685 79.0453 67.1335L79.0477 67.1265C79.094 66.9915 79.0223 66.8444 78.8877 66.798Z" fill="white"/>
<path d="M111.685 23.3591C111.833 24.0659 111.769 24.8009 111.498 25.4709C111.228 26.1409 110.765 26.7158 110.167 27.123C109.57 27.5301 108.865 27.7512 108.141 27.7581C107.418 27.765 106.708 27.5576 106.103 27.162C105.498 26.7664 105.024 26.2005 104.741 25.5358C104.458 24.8711 104.378 24.1375 104.513 23.4279C104.648 22.7184 104.991 22.0646 105.498 21.5495C106.005 21.0344 106.654 20.681 107.362 20.5342C107.832 20.4362 108.316 20.4315 108.788 20.5205C109.259 20.6094 109.709 20.7902 110.11 21.0526C110.511 21.3149 110.857 21.6536 111.127 22.0494C111.398 22.4452 111.587 22.8902 111.685 23.3591Z" fill="#FFE8DE"/>
<path d="M110.834 23.5383C110.947 24.077 110.898 24.6371 110.692 25.1476C110.486 25.6582 110.133 26.0964 109.678 26.4066C109.222 26.7168 108.685 26.8852 108.133 26.8904C107.582 26.8957 107.042 26.7375 106.58 26.436C106.119 26.1345 105.758 25.7031 105.542 25.1965C105.327 24.6899 105.266 24.1309 105.369 23.5902C105.472 23.0494 105.733 22.5513 106.12 22.1588C106.506 21.7664 107.001 21.4972 107.541 21.3853C107.899 21.3107 108.268 21.3072 108.627 21.3751C108.986 21.4429 109.329 21.5807 109.634 21.7807C109.94 21.9806 110.204 22.2387 110.41 22.5403C110.615 22.8419 110.76 23.181 110.834 23.5383Z" fill="#FFD2C0"/>
<path d="M108.356 22.6027C108.452 22.5393 108.479 22.4116 108.417 22.3175C108.355 22.2234 108.227 22.1984 108.132 22.2617L106.76 23.1706C106.664 23.234 106.637 23.3618 106.699 23.4559C106.761 23.55 106.889 23.575 106.984 23.5116L107.378 23.2511C107.54 23.1431 107.749 23.1386 107.913 23.2396L107.143 23.7492C107.048 23.8125 107.02 23.9403 107.083 24.0344C107.145 24.1286 107.273 24.1535 107.368 24.0901L108.137 23.5806C108.165 23.7708 108.079 23.9615 107.917 24.0695L107.524 24.3299C107.453 24.3771 107.417 24.4621 107.433 24.5445C107.45 24.6268 107.515 24.6901 107.599 24.7041L109.18 24.9667C109.233 24.975 109.286 24.9632 109.33 24.9335C109.378 24.9017 109.411 24.8525 109.422 24.7969C109.432 24.7433 109.42 24.6883 109.389 24.644C109.358 24.5998 109.31 24.57 109.257 24.5611L108.183 24.3829C108.508 24.1402 108.638 23.7166 108.502 23.3413L108.74 23.1841C108.835 23.1207 108.863 22.993 108.801 22.8989C108.738 22.8047 108.611 22.7798 108.515 22.8431L108.278 23.0004C108.201 22.9288 108.113 22.8713 108.016 22.8305L108.358 22.6045L108.356 22.6027Z" fill="#F38D5D"/>
<path d="M110.813 23.4525C110.797 23.4525 110.761 23.3398 110.673 23.1404C110.552 22.86 110.387 22.6001 110.185 22.3702C110.046 22.2138 109.89 22.0729 109.721 21.9499C109.525 21.8106 109.313 21.6969 109.088 21.6116C108.968 21.5649 108.844 21.5275 108.718 21.4998C108.451 21.4396 108.177 21.4199 107.905 21.4412C107.762 21.4528 107.62 21.4751 107.48 21.5079C107.34 21.5423 107.204 21.5866 107.071 21.6405C106.942 21.694 106.817 21.7573 106.698 21.8299C106.583 21.8988 106.473 21.9769 106.37 22.0635C106.271 22.1467 106.177 22.2371 106.091 22.3341C105.931 22.5118 105.794 22.7095 105.684 22.9222C105.588 23.1082 105.513 23.3042 105.461 23.5066C105.387 23.8029 105.358 24.109 105.377 24.414C105.391 24.6314 105.412 24.7522 105.395 24.7558C105.379 24.7594 105.334 24.644 105.295 24.423C105.242 24.108 105.249 23.7859 105.314 23.4733C105.412 23.0034 105.63 22.5666 105.947 22.2051C106.133 21.991 106.351 21.8056 106.592 21.6549C106.719 21.5754 106.853 21.5063 106.992 21.4484C107.135 21.3891 107.282 21.3409 107.433 21.3041C107.584 21.2685 107.737 21.2446 107.892 21.2328C108.042 21.2206 108.193 21.2206 108.344 21.2328C108.488 21.2449 108.631 21.2684 108.772 21.3032C108.907 21.3353 109.039 21.3779 109.168 21.4303C109.404 21.5277 109.626 21.6563 109.827 21.8128C110.002 21.9474 110.159 22.1021 110.297 22.2737C110.499 22.5223 110.652 22.8061 110.749 23.1107C110.817 23.3253 110.826 23.4498 110.813 23.4525Z" fill="#F38D5D"/>
<path d="M49.6645 11.0027C49.8711 11.9867 49.7807 13.0098 49.4047 13.9425C49.0287 14.8752 48.3839 15.6755 47.552 16.2423C46.7201 16.8091 45.7384 17.1168 44.7313 17.1264C43.7241 17.1361 42.7367 16.8473 41.894 16.2966C41.0513 15.7459 40.3913 14.9581 39.9973 14.0328C39.6034 13.1075 39.4933 12.0863 39.6809 11.0986C39.8686 10.1108 40.3456 9.20078 41.0516 8.48371C41.7576 7.76664 42.6608 7.27473 43.6469 7.07025C44.3008 6.93384 44.9751 6.92736 45.6314 7.05118C46.2877 7.17501 46.9132 7.42671 47.472 7.7919C48.0308 8.1571 48.5121 8.62863 48.8883 9.17955C49.2645 9.73048 49.5282 10.35 49.6645 11.0027Z" fill="#FFE8DE"/>
<path d="M48.4767 11.2467C48.6341 11.9966 48.5652 12.7763 48.2786 13.487C47.9919 14.1978 47.5005 14.8077 46.8665 15.2395C46.2325 15.6714 45.4844 15.9058 44.7169 15.9131C43.9493 15.9204 43.1969 15.7002 42.5548 15.2805C41.9126 14.8607 41.4097 14.2602 41.1096 13.5551C40.8095 12.8499 40.7257 12.0717 40.8688 11.3189C41.012 10.5662 41.3756 9.87276 41.9137 9.3264C42.4519 8.78005 43.1403 8.40532 43.8918 8.24965C44.39 8.14579 44.9038 8.14093 45.4039 8.23535C45.904 8.32977 46.3806 8.52163 46.8063 8.79995C47.2321 9.07828 47.5988 9.43762 47.8854 9.85744C48.172 10.2773 48.3729 10.7493 48.4767 11.2467Z" fill="#FFD2C0"/>
<path d="M45.031 9.94484C45.1642 9.85661 45.2021 9.67885 45.1157 9.54776C45.0294 9.41677 44.8513 9.38194 44.7181 9.47018L42.8081 10.7354C42.6749 10.8236 42.637 11.0015 42.7234 11.1325C42.8098 11.2636 42.9878 11.2983 43.121 11.2101L43.6684 10.8474C43.8946 10.6971 44.1859 10.6909 44.4132 10.8314L43.3424 11.5408C43.2093 11.6289 43.1713 11.8068 43.2577 11.9378C43.3441 12.0689 43.5222 12.1036 43.6553 12.0154L44.7261 11.3061C44.7647 11.5708 44.645 11.8364 44.4194 11.9866L43.8719 12.3492C43.7731 12.4149 43.7233 12.5332 43.7463 12.6479C43.7692 12.7625 43.8603 12.8506 43.9761 12.8701L46.1781 13.2356C46.2506 13.2473 46.3253 13.2307 46.3867 13.1895C46.4528 13.1452 46.4987 13.0767 46.5143 12.9993C46.5282 12.9246 46.5117 12.8481 46.4685 12.7865C46.4253 12.7249 46.359 12.6834 46.2841 12.671L44.7901 12.423C45.2423 12.0851 45.4229 11.4954 45.2341 10.973L45.5645 10.7542C45.6977 10.6659 45.7356 10.4882 45.6492 10.3571C45.5628 10.226 45.3848 10.1913 45.2516 10.2795L44.9212 10.4984C44.8152 10.3988 44.6921 10.3187 44.5575 10.2619L45.0326 9.94725L45.031 9.94484Z" fill="#F38D5D"/>
<path d="M48.4534 11.1267C48.4308 11.1267 48.3805 10.9697 48.2585 10.6922C48.0892 10.3018 47.86 9.94005 47.5792 9.61998C47.3855 9.40229 47.1687 9.20612 46.9327 9.03488C46.6606 8.841 46.3647 8.68276 46.0522 8.56404C45.8846 8.49903 45.7122 8.44698 45.5365 8.40835C45.1654 8.32461 44.7838 8.2971 44.4044 8.32674C44.2053 8.34296 44.0077 8.37402 43.8133 8.41965C43.6192 8.46752 43.4287 8.5292 43.2435 8.60422C43.0642 8.6787 42.8909 8.76685 42.7252 8.86789C42.5645 8.96381 42.4118 9.07257 42.2686 9.19308C42.1299 9.30889 42 9.43479 41.88 9.56976C41.6564 9.8172 41.4658 10.0923 41.3127 10.3884C41.1796 10.6473 41.0758 10.9202 41.0032 11.202C40.8991 11.6145 40.8596 12.0406 40.8863 12.4651C40.9051 12.7677 40.9341 12.936 40.9114 12.941C40.8888 12.946 40.8259 12.7853 40.7718 12.4777C40.6984 12.0391 40.7073 11.5908 40.7982 11.1555C40.935 10.5014 41.2382 9.89345 41.6787 9.39021C41.9386 9.09212 42.2412 8.83403 42.5768 8.62431C42.7545 8.51363 42.9408 8.41747 43.134 8.33678C43.3332 8.25427 43.5384 8.1871 43.7478 8.13589C43.9579 8.08632 44.1716 8.05316 44.3868 8.0367C44.5961 8.01967 44.8065 8.01967 45.0158 8.0367C45.2168 8.05352 45.4162 8.08626 45.612 8.13463C45.7999 8.17943 45.9841 8.23862 46.1629 8.31167C46.4915 8.44722 46.8004 8.62628 47.0811 8.84403C47.3238 9.03139 47.5433 9.24675 47.7352 9.48563C48.0153 9.83179 48.2286 10.2269 48.3641 10.6508C48.4585 10.9496 48.4711 11.1229 48.4534 11.1267Z" fill="#F38D5D"/>
<path d="M125.331 31.6589L117.629 44.5664L124.006 48.3901L131.707 35.4825L125.331 31.6589Z" fill="#EDBEF5"/>
<path d="M125.961 41.0341C125.754 41.2731 125.482 41.4453 125.177 41.5289C124.873 41.6124 124.551 41.6036 124.252 41.5035C123.952 41.4034 123.689 41.2165 123.496 40.9665C123.303 40.7165 123.188 40.4146 123.166 40.0991C123.144 39.7836 123.216 39.4687 123.372 39.1941C123.529 38.9196 123.764 38.6978 124.046 38.5569C124.328 38.416 124.646 38.3623 124.959 38.4026C125.272 38.4429 125.566 38.5753 125.804 38.7832C126.121 39.0616 126.316 39.4545 126.345 39.8762C126.375 40.2979 126.237 40.7141 125.961 41.0341Z" fill="#954CAF" stroke="#263238" stroke-width="0.370251" stroke-linecap="round" stroke-linejoin="round"/>
<path d="M124.38 39.1451L124.39 39.1253C124.419 39.0685 124.397 39.0002 124.342 38.9723C124.288 38.9443 124.22 38.9666 124.191 39.0233L123.699 39.9881C123.67 40.0449 123.692 40.1132 123.747 40.1411C123.801 40.1691 123.869 40.1468 123.898 40.0901L124.039 39.8136L124.039 39.8136L124.38 39.1451ZM124.38 39.1451L124.381 39.1457M124.38 39.1451L124.381 39.1457M124.381 39.1457L124.269 39.3659L124.25 39.4029L124.291 39.3981C124.357 39.3904 124.424 39.3944 124.488 39.4101L124.505 39.4142L124.513 39.3986L124.598 39.2317C124.627 39.175 124.695 39.1527 124.749 39.1806C124.804 39.2086 124.826 39.2769 124.797 39.3336L124.712 39.5005L124.704 39.5161L124.717 39.5275C124.908 39.6917 124.968 39.9655 124.865 40.201L124.844 40.2488L124.893 40.2308L125.564 39.9848L125.564 39.9848C125.592 39.9745 125.623 39.9759 125.65 39.9885C125.676 40.0012 125.696 40.024 125.706 40.0523C125.716 40.082 125.713 40.1147 125.699 40.1431L125.699 40.1431C125.686 40.1694 125.663 40.1897 125.636 40.1998C125.636 40.1998 125.636 40.1998 125.636 40.1998L124.647 40.5624C124.647 40.5624 124.647 40.5624 124.647 40.5624C124.603 40.5782 124.555 40.5657 124.525 40.531C124.495 40.4962 124.489 40.4457 124.51 40.4036L124.381 39.1457Z" fill="white" stroke="#BFBFBF" stroke-width="0.0444301"/>
<path d="M117.629 44.5685L124.005 48.3847L131.714 35.4865L125.34 31.6647L117.629 44.5685ZM130.909 35.6861L123.805 47.5932L118.423 44.3786L125.524 32.4589L130.909 35.6861Z" fill="white"/>
<path d="M125.288 31.7458L117.586 44.6533L123.963 48.477L131.665 35.5695L125.288 31.7458Z" stroke="#263238" stroke-width="0.370251" stroke-linecap="round" stroke-linejoin="round"/>
<path opacity="0.5" d="M125.974 33.6889L125.025 35.2737C124.973 35.3588 124.89 35.4199 124.793 35.4441C124.697 35.4682 124.595 35.4535 124.509 35.403C124.423 35.3512 124.362 35.2677 124.338 35.1707C124.314 35.0736 124.329 34.971 124.38 34.8851L125.329 33.3002C125.381 33.2152 125.464 33.154 125.561 33.1299C125.658 33.1057 125.76 33.1205 125.846 33.171C125.931 33.2227 125.992 33.3062 126.017 33.4033C126.041 33.5003 126.026 33.603 125.974 33.6889Z" fill="#20446C"/>
<path opacity="0.5" d="M124.863 44.8608L123.914 46.4456C123.862 46.5306 123.779 46.5918 123.682 46.6159C123.586 46.6401 123.483 46.6253 123.397 46.5748C123.312 46.5231 123.251 46.4396 123.226 46.3426C123.202 46.2455 123.217 46.1428 123.269 46.057L124.218 44.4721C124.27 44.3871 124.353 44.3259 124.45 44.3018C124.546 44.2776 124.648 44.2924 124.734 44.3429C124.82 44.3946 124.881 44.4781 124.905 44.5751C124.929 44.6722 124.914 44.7749 124.863 44.8608Z" fill="#20446C"/>
<path d="M127.877 74.5623C128.084 75.5463 127.994 76.5693 127.618 77.502C127.242 78.4347 126.597 79.2351 125.765 79.8019C124.933 80.3686 123.951 80.6763 122.944 80.686C121.937 80.6957 120.95 80.4069 120.107 79.8562C119.264 79.3055 118.604 78.5177 118.21 77.5924C117.816 76.6671 117.706 75.6459 117.894 74.6581C118.082 73.6704 118.559 72.7604 119.264 72.0433C119.97 71.3262 120.874 70.8343 121.86 70.6298C122.514 70.4934 123.188 70.4869 123.844 70.6108C124.501 70.7346 125.126 70.9863 125.685 71.3515C126.244 71.7167 126.725 72.1882 127.101 72.7391C127.477 73.29 127.741 73.9096 127.877 74.5623Z" fill="#FFE8DE"/>
<path d="M126.69 74.8097C126.847 75.5596 126.778 76.3392 126.491 77.05C126.205 77.7608 125.713 78.3707 125.079 78.8025C124.445 79.2344 123.697 79.4688 122.93 79.4761C122.162 79.4834 121.41 79.2632 120.768 78.8435C120.126 78.4237 119.623 77.8232 119.322 77.118C119.022 76.4129 118.939 75.6347 119.082 74.8819C119.225 74.1292 119.589 73.4357 120.127 72.8894C120.665 72.343 121.353 71.9683 122.105 71.8126C122.603 71.7088 123.117 71.7039 123.617 71.7983C124.117 71.8928 124.593 72.0846 125.019 72.3629C125.445 72.6413 125.812 73.0006 126.098 73.4204C126.385 73.8403 126.586 74.3123 126.69 74.8097Z" fill="#FFD2C0"/>
<path d="M123.244 73.5069C123.377 73.4186 123.415 73.2409 123.329 73.1098C123.242 72.9788 123.064 72.944 122.931 73.0322L121.021 74.2974C120.888 74.3856 120.85 74.5635 120.936 74.6945C121.023 74.8256 121.201 74.8603 121.334 74.7721L121.881 74.4094C122.107 74.2591 122.399 74.2529 122.626 74.3934L121.555 75.1028C121.422 75.1909 121.384 75.3689 121.471 75.4999C121.557 75.6309 121.735 75.6656 121.868 75.5774L122.939 74.8681C122.978 75.1329 122.858 75.3984 122.632 75.5486L122.085 75.9113C121.986 75.9769 121.936 76.0952 121.959 76.2099C121.982 76.3245 122.073 76.4126 122.189 76.4321L124.391 76.7976C124.464 76.8093 124.538 76.7927 124.6 76.7515C124.666 76.7072 124.712 76.6387 124.727 76.5613C124.741 76.4866 124.725 76.4101 124.681 76.3485C124.638 76.2869 124.572 76.2454 124.497 76.233L123.003 75.985C123.455 75.6471 123.636 75.0574 123.447 74.535L123.777 74.3162C123.911 74.228 123.949 74.0502 123.862 73.9191C123.776 73.788 123.598 73.7533 123.465 73.8415L123.134 74.0604C123.028 73.9608 122.905 73.8807 122.77 73.824L123.245 73.5093L123.244 73.5069Z" fill="#F38D5D"/>
<path d="M126.666 74.6892C126.644 74.6892 126.593 74.5322 126.471 74.2547C126.302 73.8643 126.073 73.5026 125.792 73.1825C125.598 72.9648 125.382 72.7686 125.146 72.5974C124.873 72.4035 124.578 72.2453 124.265 72.1265C124.097 72.0615 123.925 72.0095 123.749 71.9708C123.378 71.8871 122.997 71.8596 122.617 71.8892C122.418 71.9055 122.221 71.9365 122.026 71.9821C121.832 72.03 121.642 72.0917 121.456 72.1667C121.277 72.2412 121.104 72.3294 120.938 72.4304C120.777 72.5263 120.625 72.6351 120.482 72.7556C120.343 72.8714 120.213 72.9973 120.093 73.1323C119.869 73.3797 119.679 73.6548 119.526 73.9509C119.392 74.2098 119.289 74.4827 119.216 74.7645C119.112 75.177 119.073 75.6031 119.099 76.0276C119.118 76.3302 119.147 76.4985 119.124 76.5035C119.102 76.5085 119.039 76.3478 118.985 76.0402C118.911 75.6016 118.92 75.1533 119.011 74.718C119.148 74.0639 119.451 73.456 119.892 72.9527C120.151 72.6546 120.454 72.3965 120.79 72.1868C120.967 72.0761 121.154 71.98 121.347 71.8993C121.546 71.8168 121.751 71.7496 121.961 71.6984C122.171 71.6488 122.384 71.6157 122.6 71.5992C122.809 71.5822 123.019 71.5822 123.229 71.5992C123.43 71.616 123.629 71.6488 123.825 71.6971C124.013 71.7419 124.197 71.8011 124.376 71.8742C124.704 72.0097 125.013 72.1888 125.294 72.4065C125.537 72.5939 125.756 72.8093 125.948 73.0481C126.228 73.3943 126.441 73.7894 126.577 74.2133C126.671 74.5121 126.684 74.6854 126.666 74.6892Z" fill="#F38D5D"/>
<path d="M48.3835 97.0618C48.5201 97.7123 48.4603 98.3886 48.2117 99.0052C47.9631 99.6218 47.5369 100.151 46.9869 100.526C46.437 100.9 45.788 101.104 45.1222 101.11C44.4564 101.116 43.8036 100.926 43.2466 100.561C42.6895 100.197 42.2531 99.6766 41.9927 99.0649C41.7323 98.4532 41.6595 97.7781 41.7835 97.1251C41.9076 96.4721 42.2229 95.8705 42.6897 95.3965C43.1564 94.9225 43.7535 94.5973 44.4054 94.4621C44.8376 94.3719 45.2834 94.3676 45.7173 94.4495C46.1512 94.5313 46.5646 94.6977 46.934 94.9392C47.3035 95.1806 47.6216 95.4923 47.8703 95.8565C48.119 96.2207 48.2934 96.6303 48.3835 97.0618Z" fill="#FFE8DE"/>
<path d="M47.5998 97.2272C47.7039 97.7229 47.6583 98.2383 47.4688 98.7082C47.2793 99.1781 46.9545 99.5813 46.5353 99.8668C46.1162 100.152 45.6216 100.307 45.1142 100.312C44.6068 100.317 44.1094 100.171 43.6849 99.8938C43.2604 99.6163 42.9279 99.2194 42.7295 98.7532C42.5311 98.287 42.4758 97.7726 42.5704 97.2749C42.665 96.7773 42.9054 96.3189 43.2612 95.9577C43.6169 95.5965 44.072 95.3488 44.5688 95.2459C44.8982 95.1772 45.2378 95.174 45.5684 95.2364C45.899 95.2989 46.2141 95.4257 46.4955 95.6097C46.777 95.7937 47.0194 96.0312 47.2089 96.3088C47.3983 96.5863 47.5312 96.8984 47.5998 97.2272Z" fill="#FFD2C0"/>
<path d="M45.3227 96.3662C45.4107 96.3078 45.4358 96.1903 45.3787 96.1037C45.3216 96.0171 45.2039 95.994 45.1158 96.0524L43.8531 96.8888C43.7651 96.9471 43.7401 97.0647 43.7971 97.1513C43.8543 97.2379 43.9719 97.2609 44.06 97.2026L44.4219 96.9628C44.5714 96.8635 44.764 96.8593 44.9142 96.9523L44.2063 97.4212C44.1183 97.4795 44.0933 97.5971 44.1503 97.6837C44.2075 97.7704 44.3252 97.7933 44.4132 97.735L45.1211 97.2661C45.1466 97.4411 45.0675 97.6166 44.9183 97.7159L44.5564 97.9557C44.4911 97.999 44.4582 98.0773 44.4733 98.1531C44.4885 98.2289 44.5487 98.2871 44.6253 98.3L46.081 98.5416C46.1289 98.5493 46.1783 98.5384 46.2189 98.5111C46.2626 98.4818 46.2929 98.4365 46.3033 98.3854C46.3124 98.336 46.3015 98.2854 46.273 98.2447C46.2444 98.204 46.2006 98.1765 46.1511 98.1684L45.1634 98.0044C45.4623 97.781 45.5817 97.3912 45.4569 97.0459L45.6753 96.9012C45.7634 96.8429 45.7885 96.7254 45.7313 96.6387C45.6742 96.552 45.5566 96.5291 45.4685 96.5874L45.2501 96.7321C45.18 96.6662 45.0986 96.6133 45.0096 96.5758L45.3237 96.3678L45.3227 96.3662Z" fill="#F38D5D"/>
<path d="M47.5814 97.1469C47.5664 97.1469 47.5331 97.0431 47.4525 96.8597C47.3406 96.6016 47.1891 96.3624 47.0035 96.1508C46.8754 96.0069 46.7321 95.8772 46.576 95.764C46.3962 95.6359 46.2005 95.5312 45.994 95.4528C45.8831 95.4098 45.7692 95.3754 45.653 95.3498C45.4077 95.2945 45.1554 95.2763 44.9047 95.2959C44.773 95.3066 44.6424 95.3271 44.5138 95.3573C44.3855 95.389 44.2596 95.4297 44.1372 95.4793C44.0186 95.5286 43.9041 95.5868 43.7946 95.6536C43.6883 95.717 43.5874 95.7889 43.4927 95.8686C43.401 95.9452 43.3151 96.0284 43.2358 96.1176C43.088 96.2812 42.962 96.4631 42.8607 96.6588C42.7728 96.83 42.7042 97.0104 42.6562 97.1967C42.5873 97.4693 42.5612 97.751 42.5789 98.0317C42.5913 98.2317 42.6105 98.3429 42.5955 98.3463C42.5805 98.3496 42.5389 98.2433 42.5032 98.04C42.4546 97.7501 42.4606 97.4537 42.5206 97.166C42.6111 96.7335 42.8116 96.3316 43.1027 95.9989C43.2745 95.8019 43.4746 95.6312 43.6964 95.4926C43.8139 95.4194 43.9371 95.3559 44.0648 95.3025C44.1965 95.248 44.3321 95.2036 44.4706 95.1697C44.6095 95.137 44.7507 95.115 44.893 95.1041C45.0314 95.0929 45.1704 95.0929 45.3088 95.1041C45.4417 95.1153 45.5735 95.1369 45.7029 95.1689C45.8272 95.1985 45.9489 95.2376 46.0671 95.2859C46.2844 95.3755 46.4886 95.4939 46.6742 95.6379C46.8346 95.7617 46.9797 95.9041 47.1066 96.062C47.2918 96.2908 47.4327 96.552 47.5223 96.8323C47.5847 97.0298 47.593 97.1444 47.5814 97.1469Z" fill="#F38D5D"/>
<path d="M28.5707 40.5081C28.7774 41.4921 28.687 42.5151 28.3109 43.4478C27.9349 44.3805 27.2901 45.1809 26.4582 45.7477C25.6263 46.3144 24.6447 46.6221 23.6375 46.6318C22.6304 46.6415 21.643 46.3527 20.8003 45.802C19.9576 45.2513 19.2975 44.4635 18.9036 43.5382C18.5096 42.6129 18.3995 41.5917 18.5872 40.6039C18.7749 39.6162 19.2519 38.7062 19.9578 37.9891C20.6638 37.272 21.567 36.7801 22.5532 36.5756C23.207 36.4392 23.8813 36.4327 24.5376 36.5566C25.194 36.6804 25.8194 36.9321 26.3782 37.2973C26.9371 37.6625 27.4183 38.134 27.7945 38.6849C28.1707 39.2358 28.4345 39.8554 28.5707 40.5081Z" fill="#FFE8DE"/>
<path d="M27.3829 40.755C27.5404 41.5049 27.4714 42.2846 27.1848 42.9953C26.8982 43.7061 26.4068 44.316 25.7728 44.7478C25.1388 45.1797 24.3906 45.4141 23.6231 45.4214C22.8556 45.4287 22.1031 45.2085 21.461 44.7888C20.8189 44.369 20.3159 43.7685 20.0158 43.0634C19.7157 42.3582 19.6319 41.58 19.7751 40.8272C19.9182 40.0745 20.2819 39.3811 20.82 38.8347C21.3581 38.2883 22.0465 37.9136 22.7981 37.758C23.2963 37.6541 23.8101 37.6492 24.3102 37.7437C24.8103 37.8381 25.2868 38.0299 25.7126 38.3083C26.1384 38.5866 26.505 38.9459 26.7916 39.3657C27.0782 39.7856 27.2791 40.2576 27.3829 40.755Z" fill="#FFD2C0"/>
<path d="M23.9373 39.4507C24.0705 39.3625 24.1084 39.1847 24.022 39.0536C23.9356 38.9226 23.7576 38.8878 23.6244 38.976L21.7144 40.2413C21.5812 40.3295 21.5433 40.5073 21.6296 40.6383C21.7161 40.7694 21.894 40.8042 22.0273 40.7159L22.5747 40.3533C22.8008 40.203 23.0921 40.1967 23.3195 40.3373L22.2486 41.0466C22.1155 41.1348 22.0776 41.3127 22.1639 41.4437C22.2503 41.5748 22.4284 41.6095 22.5615 41.5213L23.6323 40.8119C23.671 41.0767 23.5512 41.3422 23.3256 41.4925L22.7782 41.8551C22.6793 41.9207 22.6296 42.039 22.6525 42.1537C22.6755 42.2684 22.7665 42.3564 22.8824 42.376L25.0844 42.7415C25.1569 42.7531 25.2315 42.7366 25.293 42.6953C25.3591 42.651 25.405 42.5825 25.4206 42.5052C25.4344 42.4305 25.4179 42.3539 25.3748 42.2923C25.3316 42.2308 25.2652 42.1892 25.1904 42.1769L23.6963 41.9288C24.1485 41.5909 24.3291 41.0013 24.1404 40.4789L24.4708 40.26C24.604 40.1718 24.6419 39.994 24.5555 39.863C24.4691 39.7319 24.2911 39.6971 24.1579 39.7854L23.8275 40.0042C23.7215 39.9046 23.5983 39.8245 23.4638 39.7678L23.9388 39.4531L23.9373 39.4507Z" fill="#F38D5D"/>
<path d="M27.3597 40.6345C27.3371 40.6345 27.2867 40.4775 27.1647 40.2001C26.9954 39.8096 26.7663 39.4479 26.4855 39.1278C26.2917 38.9101 26.0749 38.7139 25.839 38.5427C25.5668 38.3488 25.2709 38.1906 24.9585 38.0719C24.7908 38.0068 24.6184 37.9548 24.4428 37.9162C24.0716 37.8324 23.69 37.8049 23.3107 37.8345C23.1116 37.8508 22.914 37.8818 22.7195 37.9275C22.5254 37.9753 22.335 38.037 22.1497 38.112C21.9704 38.1865 21.7972 38.2747 21.6315 38.3757C21.4707 38.4716 21.318 38.5804 21.1749 38.7009C21.0362 38.8167 20.9063 38.9426 20.7862 39.0776C20.5627 39.325 20.372 39.6001 20.2189 39.8962C20.0858 40.1551 19.9821 40.428 19.9095 40.7098C19.8053 41.1223 19.7659 41.5484 19.7925 41.9729C19.8114 42.2755 19.8403 42.4438 19.8177 42.4488C19.795 42.4538 19.7321 42.2931 19.678 41.9855C19.6046 41.547 19.6136 41.0986 19.7045 40.6634C19.8413 40.0092 20.1445 39.4013 20.5849 38.898C20.8449 38.5999 21.1475 38.3418 21.483 38.1321C21.6607 38.0214 21.8471 37.9253 22.0403 37.8446C22.2394 37.7621 22.4446 37.6949 22.6541 37.6437C22.8642 37.5941 23.0778 37.561 23.2931 37.5445C23.5024 37.5275 23.7127 37.5275 23.922 37.5445C24.123 37.5613 24.3224 37.5941 24.5182 37.6424C24.7062 37.6872 24.8903 37.7464 25.0692 37.8195C25.3978 37.955 25.7066 38.1341 25.9874 38.3518C26.23 38.5392 26.4496 38.7546 26.6415 38.9934C26.9216 39.3396 27.1349 39.7347 27.2704 40.1586C27.3647 40.4574 27.3773 40.6307 27.3597 40.6345Z" fill="#F38D5D"/>
<path d="M78.2408 111.557C78.2166 111.625 78.1668 111.68 78.1022 111.711C78.0375 111.741 77.9634 111.745 77.896 111.721L63.9506 106.917C63.8828 106.894 63.8268 106.845 63.7948 106.781C63.7627 106.717 63.7573 106.643 63.7797 106.575L66.3624 98.6632C66.4102 98.5237 66.6704 98.3096 66.9696 98.4355L80.7161 102.784C80.8047 102.812 80.8868 102.857 80.9576 102.917C81.0284 102.978 81.0864 103.051 81.1283 103.134C81.1697 103.216 81.1938 103.306 81.1991 103.397C81.2044 103.489 81.1908 103.581 81.1592 103.667L78.2408 111.557Z" fill="#FFD9C9"/>
<path d="M68.7858 102.245L66.9779 101.622C66.8283 101.57 66.6653 101.65 66.6139 101.8L66.1411 103.179C66.0897 103.329 66.1693 103.492 66.3189 103.544L68.1267 104.167C68.2763 104.218 68.4393 104.138 68.4907 103.988L68.9635 102.609C69.0149 102.459 68.9353 102.296 68.7858 102.245Z" fill="#F0792E"/>
<path opacity="0.8" d="M67.5803 103.352L67.0648 103.174C67.0267 103.161 66.9953 103.133 66.9776 103.097C66.9599 103.06 66.9574 103.018 66.9705 102.98L67.1262 102.526C67.1393 102.488 67.1671 102.456 67.2034 102.438C67.2396 102.421 67.2815 102.418 67.3197 102.431L67.8355 102.609C67.8736 102.622 67.905 102.65 67.9227 102.686C67.9404 102.723 67.9429 102.765 67.9298 102.803L67.7738 103.258C67.7605 103.296 67.7327 103.327 67.6964 103.345C67.6602 103.362 67.6184 103.365 67.5803 103.352ZM67.2775 102.554C67.272 102.552 67.2661 102.553 67.261 102.555C67.2559 102.558 67.2519 102.562 67.2501 102.568L67.0941 103.023C67.0922 103.028 67.0926 103.034 67.095 103.039C67.0975 103.044 67.1019 103.048 67.1073 103.05L67.6231 103.228C67.6285 103.23 67.6345 103.229 67.6396 103.227C67.6447 103.224 67.6486 103.22 67.6505 103.214L67.8062 102.76C67.8081 102.755 67.8077 102.749 67.8053 102.744C67.8028 102.739 67.7984 102.735 67.793 102.733L67.2775 102.554Z" fill="white"/>
<path opacity="0.81" d="M67.1294 102.713L66.3884 102.458C66.3721 102.452 66.3586 102.44 66.351 102.425C66.3434 102.409 66.3423 102.391 66.3479 102.374C66.3535 102.358 66.3654 102.345 66.381 102.337C66.3966 102.329 66.4145 102.328 66.4309 102.334L67.1719 102.589C67.1883 102.595 67.2018 102.607 67.2094 102.622C67.217 102.638 67.2181 102.656 67.2125 102.672C67.2068 102.689 67.1949 102.702 67.1793 102.71C67.1638 102.718 67.1458 102.719 67.1294 102.713Z" fill="white"/>
<path opacity="0.81" d="M67.065 102.899L66.324 102.643C66.3076 102.638 66.2941 102.626 66.2865 102.61C66.2789 102.594 66.2778 102.576 66.2834 102.56C66.2891 102.544 66.301 102.53 66.3166 102.522C66.3321 102.515 66.3501 102.514 66.3665 102.519L67.1074 102.775C67.1238 102.78 67.1373 102.792 67.1449 102.808C67.1525 102.823 67.1536 102.841 67.148 102.858C67.1424 102.874 67.1304 102.888 67.1149 102.895C67.0993 102.903 67.0813 102.904 67.065 102.899Z" fill="white"/>
<path opacity="0.81" d="M68.7409 103.267L67.9373 102.99C67.9209 102.984 67.9074 102.972 67.8998 102.957C67.8922 102.941 67.8911 102.923 67.8967 102.907C67.9024 102.89 67.9143 102.877 67.9298 102.869C67.9454 102.861 67.9634 102.86 67.9798 102.866L68.7834 103.143C68.7997 103.149 68.8132 103.16 68.8208 103.176C68.8284 103.192 68.8295 103.21 68.8239 103.226C68.8183 103.243 68.8064 103.256 68.7908 103.264C68.7752 103.271 68.7573 103.272 68.7409 103.267Z" fill="white"/>
<path opacity="0.81" d="M68.6764 103.452L67.8728 103.175C67.8564 103.17 67.8429 103.158 67.8353 103.142C67.8277 103.127 67.8266 103.109 67.8323 103.092C67.8379 103.076 67.8498 103.062 67.8654 103.055C67.881 103.047 67.8989 103.046 67.9153 103.052L68.7189 103.328C68.7353 103.334 68.7488 103.346 68.7564 103.362C68.764 103.377 68.7651 103.395 68.7595 103.412C68.7538 103.428 68.7419 103.442 68.7263 103.449C68.7108 103.457 68.6928 103.458 68.6764 103.452Z" fill="white"/>
<path opacity="0.81" d="M67.3659 102.588C67.352 102.583 67.3401 102.574 67.3322 102.561C67.3242 102.549 67.3206 102.534 67.3221 102.52L67.3939 101.79C67.3965 101.773 67.4054 101.758 67.4187 101.748C67.432 101.737 67.4487 101.733 67.4654 101.734C67.4821 101.736 67.4975 101.744 67.5084 101.757C67.5193 101.77 67.5249 101.786 67.524 101.803L67.4521 102.533C67.4512 102.543 67.448 102.553 67.4428 102.561C67.4377 102.569 67.4307 102.577 67.4224 102.582C67.414 102.587 67.4046 102.591 67.3948 102.592C67.385 102.593 67.3751 102.592 67.3657 102.589L67.3659 102.588Z" fill="white"/>
<path opacity="0.81" d="M67.7939 102.736C67.7889 102.734 67.784 102.732 67.7794 102.729C67.7722 102.725 67.766 102.719 67.7611 102.711C67.7562 102.704 67.7528 102.696 67.751 102.688C67.7492 102.68 67.749 102.671 67.7506 102.662C67.7521 102.654 67.7553 102.646 67.76 102.639L68.1569 102.02C68.1663 102.006 68.1811 101.996 68.1981 101.992C68.2151 101.988 68.2329 101.991 68.2475 102.001C68.2622 102.01 68.2725 102.025 68.2762 102.042C68.2799 102.059 68.2767 102.077 68.2673 102.092L67.8701 102.71C67.8621 102.722 67.8504 102.731 67.8366 102.736C67.8228 102.741 67.8078 102.741 67.7939 102.736Z" fill="white"/>
<path opacity="0.81" d="M66.7732 103.794C66.7638 103.791 66.7553 103.786 66.7483 103.779C66.7412 103.772 66.7359 103.763 66.7326 103.754C66.7293 103.745 66.7282 103.735 66.7293 103.725C66.7305 103.715 66.7338 103.706 66.7392 103.697L67.1301 103.077C67.1344 103.07 67.1403 103.063 67.1473 103.057C67.1543 103.052 67.1624 103.048 67.171 103.046C67.1795 103.044 67.1885 103.043 67.1973 103.044C67.2061 103.046 67.2145 103.049 67.222 103.054C67.2295 103.058 67.236 103.065 67.2411 103.072C67.2462 103.079 67.2497 103.087 67.2515 103.096C67.2533 103.105 67.2532 103.114 67.2515 103.123C67.2497 103.131 67.2461 103.14 67.241 103.147L66.85 103.767C66.8422 103.78 66.8303 103.789 66.8164 103.794C66.8024 103.799 66.7872 103.799 66.7732 103.794Z" fill="white"/>
<path opacity="0.81" d="M67.5276 104.056C67.5137 104.052 67.5018 104.042 67.4938 104.03C67.4859 104.018 67.4823 104.003 67.4836 103.988L67.5496 103.256C67.5501 103.248 67.5524 103.239 67.5563 103.231C67.5602 103.223 67.5656 103.216 67.5723 103.211C67.5789 103.205 67.5866 103.201 67.5949 103.198C67.6033 103.195 67.612 103.194 67.6207 103.195C67.6295 103.196 67.6379 103.199 67.6456 103.203C67.6534 103.207 67.6602 103.212 67.6657 103.219C67.6712 103.226 67.6753 103.234 67.6778 103.242C67.6802 103.251 67.6809 103.26 67.6799 103.268L67.6142 104C67.6126 104.018 67.6042 104.034 67.5908 104.045C67.5775 104.056 67.5603 104.061 67.543 104.06C67.5378 104.059 67.5326 104.058 67.5276 104.056Z" fill="white"/>
<path d="M69.4584 100.118L67.4426 99.4233C67.265 99.3621 67.0716 99.4568 67.0106 99.6349L66.9977 99.6723C66.9367 99.8504 67.0311 100.044 67.2087 100.105L69.2245 100.8C69.4021 100.861 69.5955 100.766 69.6565 100.588L69.6694 100.551C69.7304 100.373 69.636 100.179 69.4584 100.118Z" fill="white"/>
<path d="M67.9808 105.083L65.7501 104.315C65.5807 104.256 65.3961 104.347 65.3379 104.517L65.3363 104.521C65.278 104.691 65.3681 104.876 65.5375 104.935L67.7682 105.703C67.9377 105.762 68.1222 105.671 68.1805 105.501L68.1821 105.497C68.2403 105.327 68.1502 105.142 67.9808 105.083Z" fill="white"/>
<path d="M71.1956 106.194L68.9649 105.425C68.7955 105.367 68.611 105.457 68.5527 105.627L68.5511 105.632C68.4929 105.802 68.583 105.987 68.7524 106.045L70.9831 106.814C71.1525 106.872 71.3371 106.781 71.3953 106.612L71.3969 106.607C71.4552 106.437 71.3651 106.252 71.1956 106.194Z" fill="white"/>
<path d="M74.4085 107.301L72.1778 106.533C72.0084 106.475 71.8239 106.565 71.7656 106.735L71.764 106.74C71.7058 106.909 71.7959 107.095 71.9653 107.153L74.196 107.921C74.3654 107.98 74.5499 107.889 74.6082 107.72L74.6098 107.715C74.6681 107.545 74.5779 107.36 74.4085 107.301Z" fill="white"/>
<path d="M77.6898 108.43L75.4591 107.661C75.2897 107.603 75.1051 107.693 75.0469 107.863L75.0453 107.868C74.987 108.038 75.0771 108.223 75.2465 108.281L77.4772 109.05C77.6466 109.108 77.8312 109.018 77.8894 108.848L77.8911 108.843C77.9493 108.673 77.8592 108.488 77.6898 108.43Z" fill="white"/>
<path d="M69.6552 107.255L65.5056 105.825C65.3709 105.779 65.2242 105.851 65.1779 105.986L65.1755 105.993C65.1292 106.128 65.2008 106.275 65.3355 106.321L69.4851 107.751C69.6198 107.797 69.7665 107.725 69.8128 107.59L69.8152 107.583C69.8615 107.448 69.7899 107.301 69.6552 107.255Z" fill="white"/>
<path d="M76.9326 109.624L75.1325 109.004C74.9978 108.958 74.8511 109.029 74.8048 109.164L74.8024 109.171C74.7561 109.306 74.8278 109.454 74.9624 109.5L76.7625 110.12C76.8972 110.167 77.0439 110.095 77.0902 109.96L77.0926 109.953C77.1389 109.818 77.0673 109.671 76.9326 109.624Z" fill="white"/>
<path opacity="0.25" d="M74.0994 0.962891C77.4812 0.962891 80.7872 1.96817 83.5991 3.8516C86.411 5.73503 88.6027 8.41204 89.897 11.5441C91.1912 14.6762 91.5299 18.1226 90.8703 21.4476C90.2106 24.7727 88.5822 27.827 86.191 30.2243C83.7998 32.6216 80.7531 34.2543 77.4363 34.9158C74.1194 35.5774 70.6814 35.2382 67.5568 33.9411C64.4323 32.6439 61.7616 30.4471 59.8825 27.6285C58.0034 24.8098 57.0003 21.4959 57 18.1058C56.9998 15.8546 57.4419 13.6254 58.3011 11.5456C59.1604 9.46573 60.4199 7.5759 62.0077 5.98402C63.5956 4.39213 65.4807 3.12937 67.5554 2.26784C69.63 1.40631 71.8537 0.962891 74.0994 0.962891V0.962891Z" stroke="#5580A6" stroke-width="1.92596" stroke-miterlimit="10"/>
<path opacity="0.5" d="M74.0982 5.11963C76.6602 5.11995 79.1645 5.88178 81.2945 7.3088C83.4246 8.73582 85.0847 10.7639 86.0649 13.1367C87.0452 15.5095 87.3016 18.1204 86.8017 20.6392C86.3018 23.1581 85.0681 25.4718 83.2566 27.2878C81.445 29.1038 79.1369 30.3405 76.6243 30.8416C74.1116 31.3427 71.5071 31.0857 69.1401 30.1031C66.7731 29.1204 64.7499 27.4562 63.3264 25.321C61.9029 23.1857 61.1429 20.6753 61.1426 18.107C61.1426 14.6626 62.5075 11.3592 64.9372 8.92355C67.3669 6.48794 70.6622 5.11963 74.0982 5.11963V5.11963Z" stroke="#5580A6" stroke-width="2.88728" stroke-miterlimit="10"/>
<path opacity="0.75" d="M74.0927 9.27539C75.835 9.27475 77.5384 9.79211 78.9874 10.762C80.4364 11.7319 81.566 13.1108 82.2332 14.7243C82.9004 16.3378 83.0753 18.1133 82.7358 19.8265C82.3962 21.5396 81.5575 23.1133 80.3257 24.3486C79.0939 25.5839 77.5244 26.4252 75.8156 26.7662C74.1067 27.1071 72.3354 26.9325 70.7256 26.2642C69.1159 25.596 67.7399 24.4642 66.7719 23.0119C65.8038 21.5597 65.2871 19.8523 65.2871 18.1057C65.2871 15.7643 66.2147 13.5188 67.866 11.8629C69.5173 10.207 71.757 9.27624 74.0927 9.27539V9.27539Z" stroke="#5580A6" stroke-width="3.85191" stroke-miterlimit="10"/>
</svg>
