<svg width="98" height="98" viewBox="0 0 98 98" fill="none" xmlns="http://www.w3.org/2000/svg">
<path d="M9.3696 65.1457C25.869 74.2188 32.5003 88.995 40.4492 93.3669C48.4008 97.7388 67.6115 102.348 87.7233 65.7718C107.835 29.196 88.3249 11.477 79.5784 6.6696C38.6308 -15.8486 -19.8507 49.0764 9.3696 65.1457Z" fill="#FEF1E8"/>
<path d="M57.8472 23.8194V74.1806C57.8472 77.175 55.3972 79.625 52.4028 79.625H23.8194C20.825 79.625 18.375 77.175 18.375 74.1806V23.8194C18.375 20.825 20.825 18.375 23.8194 18.375H25.1806C27.44 18.375 29.2639 20.1989 29.2639 22.4583C29.2639 23.9556 30.4889 25.1806 31.9861 25.1806H44.2361C45.7333 25.1806 46.9583 23.9556 46.9583 22.4583C46.9583 20.1989 48.7822 18.375 51.0417 18.375H52.4028C55.3972 18.375 57.8472 20.825 57.8472 23.8194Z" fill="#FEF1E8"/>
<path d="M24.5 74.1806V23.8194C24.5 21.7478 25.6869 19.9566 27.4019 19.0365C26.7622 18.6227 26.0027 18.375 25.1806 18.375H23.8194C20.825 18.375 18.375 20.825 18.375 23.8194V74.1806C18.375 77.175 20.825 79.625 23.8194 79.625H29.9444C26.95 79.625 24.5 77.175 24.5 74.1806Z" fill="#D5DBE1"/>
<path d="M61.2504 52.4032C63.1297 52.4032 64.6532 50.8797 64.6532 49.0004C64.6532 47.1211 63.1297 45.5977 61.2504 45.5977C59.3711 45.5977 57.8477 47.1211 57.8477 49.0004C57.8477 50.8797 59.3711 52.4032 61.2504 52.4032Z" fill="#FEF1E8"/>
<path d="M84.0479 78.6042H89.4923V81.3265H84.0479V78.6042Z" fill="#A4AFC1"/>
<path d="M68.3955 78.6042H73.84V81.3265H68.3955V78.6042Z" fill="#A4AFC1"/>
<path d="M77.9229 69.0767H80.6451V74.5211H77.9229V69.0767Z" fill="#A4AFC1"/>
<path d="M77.9229 84.7297H80.6451V90.1742H77.9229V84.7297Z" fill="#A4AFC1"/>
<path d="M61.2503 14.6322C58.999 14.6322 57.167 12.8002 57.167 10.5489C57.167 8.29763 58.999 6.46558 61.2503 6.46558C63.5016 6.46558 65.3336 8.29763 65.3336 10.5489C65.3336 12.8002 63.5016 14.6322 61.2503 14.6322ZM61.2503 9.1878C60.499 9.1878 59.8892 9.79758 59.8892 10.5489C59.8892 11.3002 60.499 11.91 61.2503 11.91C62.0016 11.91 62.6114 11.3002 62.6114 10.5489C62.6114 9.79758 62.0016 9.1878 61.2503 9.1878Z" fill="#A4AFC1"/>
<path d="M44.236 27.2224H31.986C29.3591 27.2224 27.2221 25.0854 27.2221 22.4585C27.2221 21.3315 26.3074 20.4168 25.1804 20.4168H23.8193V16.3335H25.1804C28.5587 16.3335 31.3054 19.0802 31.3054 22.4585C31.3054 22.8342 31.6103 23.139 31.986 23.139H44.236C44.6117 23.139 44.9166 22.8342 44.9166 22.4585C44.9166 19.0802 47.6633 16.3335 51.0416 16.3335H52.4027V20.4168H51.0416C49.9146 20.4168 48.9999 21.3315 48.9999 22.4585C48.9999 25.0854 46.8629 27.2224 44.236 27.2224Z" fill="#20446C"/>
<path d="M52.4024 81.6668H23.8191C19.6895 81.6668 16.333 78.3103 16.333 74.1807V23.8196C16.333 19.69 19.6895 16.3335 23.8191 16.3335H52.4024C56.5321 16.3335 59.8885 19.69 59.8885 23.8196V27.9029H55.8052V23.8196C55.8052 21.944 54.278 20.4168 52.4024 20.4168H23.8191C21.9435 20.4168 20.4163 21.944 20.4163 23.8196V74.1807C20.4163 76.0563 21.9435 77.5835 23.8191 77.5835H52.4024C54.278 77.5835 55.8052 76.0563 55.8052 74.1807V70.0974H59.8885V74.1807C59.8885 78.3103 56.5321 81.6668 52.4024 81.6668Z" fill="#20446C"/>
<path d="M66.1228 63.9176H51.1506C48.5237 63.9176 46.3867 61.7807 46.3867 59.1537V49.626C46.3867 46.999 48.5237 44.8621 51.1506 44.8621H66.1228C68.7498 44.8621 70.8867 46.999 70.8867 49.626V59.1537C70.8867 61.7807 68.7498 63.9176 66.1228 63.9176ZM51.1506 48.9454C50.7749 48.9454 50.4701 49.2503 50.4701 49.626V59.1537C50.4701 59.5294 50.7749 59.8343 51.1506 59.8343H66.1228C66.4985 59.8343 66.8034 59.5294 66.8034 59.1537V49.626C66.8034 49.2503 66.4985 48.9454 66.1228 48.9454H51.1506Z" fill="#F0792E"/>
<path d="M63.4005 48.9456H53.8727C52.7457 48.9456 51.8311 48.0309 51.8311 46.9039V40.7789C51.8311 37.0277 54.8827 33.9734 58.6366 33.9734C62.3906 33.9734 65.4422 37.0277 65.4422 40.7789V46.9039C65.4422 48.0309 64.5275 48.9456 63.4005 48.9456ZM55.9144 44.8623H61.3588V40.7789C61.3588 39.279 60.1393 38.0567 58.6366 38.0567C57.1339 38.0567 55.9144 39.279 55.9144 40.7789V44.8623Z" fill="#F0792E"/>
</svg>
