<svg width="2" height="4" viewBox="0 0 2 4" fill="none" xmlns="http://www.w3.org/2000/svg">
<path opacity="0.81" d="M0.310896 3.99999C0.285519 3.99997 0.260221 3.99717 0.235458 3.99162C0.19592 3.98181 0.158704 3.96431 0.125932 3.9401C0.0931588 3.9159 0.0654731 3.88547 0.0444572 3.85056C0.0234413 3.81566 0.0095072 3.77694 0.00344923 3.73665C-0.00260873 3.69635 -0.000673515 3.65525 0.00914916 3.6157L0.837553 0.236738C0.857189 0.156684 0.907813 0.0877013 0.978286 0.0449842C1.04876 0.00226714 1.13331 -0.010686 1.21334 0.00895686C1.29337 0.0285997 1.36232 0.0792437 1.40502 0.14974C1.44773 0.220236 1.46068 0.304802 1.44105 0.384856L0.611244 3.76384C0.594495 3.83097 0.55589 3.89062 0.501509 3.93338C0.447127 3.97614 0.380065 3.99957 0.310896 3.99999Z" fill="white"/>
</svg>
