<svg width="30" height="31" viewBox="0 0 30 31" fill="none" xmlns="http://www.w3.org/2000/svg">
<path d="M6.64623 30.3407L27.4326 29.9989C27.7855 29.9924 28.1334 29.9145 28.4553 29.7699C28.7773 29.6253 29.0667 29.417 29.3061 29.1576C29.5455 28.8981 29.7299 28.5929 29.8483 28.2603C29.9667 27.9277 30.0165 27.5745 29.9948 27.2221L28.6272 5.55277C28.5905 4.9478 28.3448 4.37438 27.9321 3.9306C27.5195 3.48682 26.9655 3.20025 26.365 3.11991L2.95871 0.0227549C2.55507 -0.0308572 2.1445 0.0105778 1.7597 0.143757C1.3749 0.276936 1.02652 0.498182 0.742305 0.789859C0.458092 1.08154 0.245907 1.43558 0.122657 1.8238C-0.000594053 2.21201 -0.0315029 2.62365 0.0323929 3.02592L4.01991 28.1353C4.11861 28.7577 4.43866 29.3236 4.9212 29.7288C5.40374 30.134 6.01631 30.3513 6.64623 30.3407Z" fill="#6C9ED7"/>
</svg>
