<svg width="24" height="25" viewBox="0 0 24 25" fill="none" xmlns="http://www.w3.org/2000/svg">
<path d="M3.64987 24.4306H21.5266C22.1824 24.4306 22.8113 24.17 23.2749 23.7062C23.7386 23.2423 23.9991 22.6133 23.9991 21.9573V4.01836C23.9997 3.39604 23.7658 2.79636 23.344 2.33893C22.9222 1.8815 22.3435 1.59995 21.7234 1.55044L2.67594 0.00839315C2.32255 -0.0208042 1.96701 0.0263795 1.63345 0.14675C1.29989 0.26712 0.996118 0.457856 0.742742 0.706016C0.489366 0.954177 0.292316 1.25396 0.164962 1.58501C0.0376076 1.91607 -0.0170706 2.27065 0.00463767 2.62471L1.17528 22.0982C1.2113 22.7298 1.4879 23.3236 1.94818 23.7574C2.40847 24.1913 3.01745 24.4322 3.64987 24.4306Z" fill="#96B6D9"/>
</svg>
